<svg width="200" height="31" viewBox="0 0 200 31" fill="none" xmlns="http://www.w3.org/2000/svg">
<g clip-path="url(#clip0_144_875)">
<path d="M30.947 0H0V30.6667H30.947V0Z" fill="#B8292D"/>
<path d="M10.4655 20.2957C11.2569 20.3594 12.0197 20.6177 12.6849 21.0473C13.3501 21.4769 13.8966 22.0641 14.275 22.7558C14.6711 23.4543 14.8706 24.2453 14.8529 25.0463H12.2632C12.1348 25.0463 12.092 25.0463 12.0706 24.8978C12.0544 24.5614 11.9514 24.2346 11.7716 23.9487C11.5918 23.6629 11.341 23.4274 11.0433 23.2648C10.742 23.1219 10.4111 23.0509 10.0772 23.0575C9.7432 23.0641 9.41542 23.148 9.12005 23.3026C8.82468 23.4572 8.56993 23.6781 8.37619 23.9478C8.18244 24.2174 8.05507 24.5282 8.00428 24.8554C7.9939 24.9186 7.9939 24.9831 8.00428 25.0463H5.22205C5.24814 23.8646 5.69546 22.7301 6.48475 21.8439C7.27508 20.9604 8.37914 20.4133 9.56661 20.3169C9.31423 20.2728 9.06423 20.2162 8.81755 20.1473C8.00393 19.9399 7.26032 19.5225 6.66254 18.9376C6.06476 18.3527 5.63417 17.6212 5.41466 16.8176C5.32626 16.4483 5.269 16.0723 5.24345 15.6936C5.24345 15.5663 5.24345 15.5239 5.37186 15.5239H7.85447C7.98288 15.5239 8.00428 15.5239 8.02568 15.6936C8.05078 15.9938 8.1401 16.2852 8.28771 16.5485C8.43532 16.8118 8.63783 17.0409 8.88176 17.2206C9.18388 17.403 9.52693 17.5084 9.88022 17.5273C10.2335 17.5462 10.586 17.478 10.9062 17.3288C11.2264 17.1796 11.5042 16.9541 11.7149 16.6724C11.9256 16.3908 12.0625 16.0617 12.1134 15.7148C12.1134 15.5663 12.1134 15.5239 12.2846 15.5239H14.7245C14.8529 15.5239 14.8957 15.5239 14.8957 15.6936C14.853 16.7123 14.4864 17.6916 13.8483 18.4915C13.2103 19.2913 12.3334 19.8709 11.343 20.1473L10.4655 20.2957Z" fill="white"/>
<path d="M25.7464 20.232V24.8765C25.7464 25.0037 25.7464 25.0462 25.5752 25.0462H15.9658C15.9658 21.9074 15.9658 18.6838 15.9658 15.6086C15.9658 15.4602 15.9658 15.439 16.1584 15.439H25.7464V20.232ZM21.9583 22.3528H22.793C22.9214 22.3528 22.9642 22.3528 22.9642 22.1831C22.9642 20.9318 22.9642 19.7018 22.9642 18.4505C22.9642 18.3232 22.9642 18.2808 22.793 18.2808H18.9192C18.9192 18.2808 18.748 18.2808 18.748 18.4293C18.748 19.7442 18.748 21.0591 18.748 22.3528H21.9583Z" fill="white"/>
<path d="M9.97328 5.06885C9.03781 5.06885 8.12335 5.34373 7.34554 5.85874C6.56773 6.37375 5.96149 7.10575 5.60351 7.96218C5.24552 8.81861 5.15185 9.761 5.33435 10.6702C5.51685 11.5794 5.96732 12.4145 6.6288 13.07C7.29027 13.7255 8.13304 14.1718 9.05054 14.3527C9.96803 14.5335 10.919 14.4407 11.7833 14.086C12.6475 13.7312 13.3862 13.1305 13.906 12.3597C14.4257 11.589 14.7031 10.6828 14.7031 9.7558C14.7031 8.51274 14.2048 7.3206 13.3177 6.44162C12.4307 5.56265 11.2277 5.06885 9.97328 5.06885V5.06885ZM9.97328 11.9402C9.54999 11.9402 9.1362 11.8158 8.78425 11.5828C8.4323 11.3498 8.15799 11.0185 7.996 10.631C7.83402 10.2435 7.79164 9.81707 7.87422 9.40568C7.95679 8.99429 8.16063 8.61639 8.45994 8.31979C8.75925 8.0232 9.14059 7.82121 9.55575 7.73938C9.9709 7.65755 10.4012 7.69955 10.7923 7.86007C11.1834 8.02058 11.5176 8.29241 11.7528 8.64117C11.9879 8.98994 12.1135 9.39997 12.1135 9.81942C12.1135 10.3819 11.888 10.9213 11.4866 11.3191C11.0853 11.7168 10.5409 11.9402 9.97328 11.9402Z" fill="white"/>
<path d="M25.7464 8.50391H15.9658V11.0064H25.7464V8.50391Z" fill="white"/>
<path d="M25.7464 11.9399H15.9658V14.4425H25.7464V11.9399Z" fill="white"/>
<path d="M25.7464 5.06885H15.9658V7.57138H25.7464V5.06885Z" fill="white"/>
<path d="M54.4249 10.8585C54.47 11.67 54.3429 12.482 54.0517 13.2418C53.7604 14.0016 53.3116 14.6925 52.7341 15.2697C51.4505 16.327 49.834 16.9058 48.1648 16.9058C46.4957 16.9058 44.8791 16.327 43.5955 15.2697C43.0181 14.6925 42.5692 14.0016 42.278 13.2418C41.9867 12.482 41.8596 11.67 41.9048 10.8585C41.8583 10.0449 41.9869 9.23089 42.2821 8.47036C42.5773 7.70984 43.0323 7.0202 43.6169 6.44721C44.8971 5.39155 46.51 4.81354 48.1755 4.81354C49.841 4.81354 51.4539 5.39155 52.7341 6.44721C53.3116 7.02443 53.7604 7.71527 54.0517 8.47512C54.3429 9.23496 54.47 10.0469 54.4249 10.8585V10.8585ZM51.0862 10.8585C51.1384 9.9531 50.8485 9.06093 50.2729 8.35592C50.0039 8.05704 49.6741 7.81788 49.3053 7.65413C48.9365 7.49038 48.5369 7.40573 48.1327 7.40573C47.7286 7.40573 47.329 7.49038 46.9601 7.65413C46.5913 7.81788 46.2616 8.05704 45.9925 8.35592C45.4569 9.08235 45.1681 9.95875 45.1681 10.8585C45.1681 11.7582 45.4569 12.6346 45.9925 13.361C46.2577 13.666 46.5862 13.9107 46.9556 14.0785C47.3249 14.2463 47.7264 14.3331 48.1327 14.3331C48.539 14.3331 48.9405 14.2463 49.3099 14.0785C49.6792 13.9107 50.0077 13.666 50.2729 13.361C50.8485 12.656 51.1384 11.7638 51.0862 10.8585V10.8585ZM62.5147 12.4915H59.1761V19.4901H55.709V4.64453H59.1547V10.1798H62.4933L62.5147 12.4915Z" fill="white"/>
<path d="M76.062 10.8585C76.1031 11.6714 75.972 12.4839 75.6771 13.2436C75.3822 14.0034 74.9301 14.6935 74.3499 15.2697C73.0525 16.3243 71.4264 16.9006 69.7485 16.9006C68.0705 16.9006 66.4444 16.3243 65.1471 15.2697C64.5668 14.6935 64.1147 14.0034 63.8199 13.2436C63.525 12.4839 63.3939 11.6714 63.4349 10.8585C63.3967 10.0439 63.5311 9.23052 63.8297 8.4707C64.1283 7.71088 64.5844 7.02155 65.1685 6.44721C66.4607 5.39049 68.0838 4.81251 69.7592 4.81251C71.4346 4.81251 73.0577 5.39049 74.3499 6.44721C74.9301 7.02338 75.3822 7.71353 75.6771 8.47327C75.972 9.233 76.1031 10.0455 76.062 10.8585V10.8585ZM72.6591 10.8585C72.7174 9.95584 72.4352 9.06397 71.8673 8.35592C71.5964 8.05999 71.2661 7.82351 70.8975 7.66168C70.5289 7.49984 70.1302 7.41624 69.7271 7.41624C69.3239 7.41624 68.9252 7.49984 68.5566 7.66168C68.1881 7.82351 67.8577 8.05999 67.5869 8.35592C67.0512 9.08235 66.7625 9.95875 66.7625 10.8585C66.7625 11.7582 67.0512 12.6346 67.5869 13.361C67.854 13.6629 68.1832 13.9048 68.5523 14.0705C68.9213 14.2363 69.3219 14.322 69.7271 14.322C70.1323 14.322 70.5328 14.2363 70.9019 14.0705C71.271 13.9048 71.6001 13.6629 71.8673 13.361C72.4352 12.6529 72.7174 11.7611 72.6591 10.8585V10.8585ZM81.0058 19.4901H77.5601V4.64453H81.0058V19.4901Z" fill="white"/>
<path d="M99.9037 19.4902H96.3724V17.9844C95.5512 18.6347 94.5675 19.0524 93.526 19.1933C91.7496 19.5317 89.9408 19.6739 88.1327 19.6175C87.2037 19.6262 86.2748 19.5837 85.3505 19.4902C85.0399 19.4794 84.7355 19.4017 84.4583 19.2625C84.1811 19.1234 83.9378 18.9261 83.7453 18.6843C83.4489 18.1928 83.3143 17.6221 83.3601 17.0513V5.0264H93.2478V7.27444H86.8272V10.8162H92.9695V12.937H86.8914V16.3726C86.8795 16.4579 86.8851 16.5447 86.908 16.6277C86.9309 16.7108 86.9706 16.7883 87.0246 16.8558C87.0786 16.9232 87.1459 16.979 87.2223 17.0199C87.2987 17.0608 87.3828 17.0859 87.4693 17.0937C88.3433 17.1897 89.2224 17.2322 90.1017 17.221C91.3707 17.2608 92.6403 17.1684 93.8898 16.9453C94.5206 16.8452 95.1289 16.6371 95.6876 16.3302C95.9294 16.1563 96.1242 15.9259 96.2549 15.6596C96.3855 15.3933 96.4479 15.0992 96.4366 14.8033V4.72949H99.9037V19.4902Z" fill="white"/>
<path d="M116.276 15.9061H113.344V11.0495H111.996C111.843 12.2481 111.23 13.3422 110.284 14.1035C109.284 14.8582 108.051 15.2478 106.795 15.2063C106.084 15.2575 105.37 15.1557 104.702 14.9078C104.035 14.66 103.429 14.2719 102.927 13.7703C102.425 13.2687 102.038 12.6653 101.793 12.0017C101.548 11.338 101.451 10.6298 101.509 9.92551C101.451 9.22123 101.548 8.51298 101.793 7.84934C102.038 7.18569 102.425 6.58236 102.927 6.08073C103.429 5.5791 104.035 5.19104 104.702 4.94317C105.37 4.69531 106.084 4.5935 106.795 4.64473C108.059 4.59832 109.299 4.98813 110.305 5.74755C111.257 6.51025 111.865 7.61621 111.996 8.8227H113.344V4.72957H116.276V15.9061ZM109.064 9.92551C109.123 9.16742 108.902 8.41382 108.443 7.80471C108.238 7.57305 107.984 7.38853 107.699 7.26399C107.415 7.13946 107.106 7.07792 106.795 7.08365C106.486 7.07034 106.178 7.12857 105.896 7.25374C105.613 7.3789 105.364 7.56755 105.169 7.80471C104.764 8.41183 104.548 9.12352 104.548 9.85128C104.548 10.579 104.764 11.2907 105.169 11.8978C105.36 12.1415 105.608 12.3361 105.891 12.4652C106.174 12.5944 106.484 12.6544 106.795 12.6401C107.109 12.6526 107.422 12.5919 107.708 12.463C107.994 12.3341 108.246 12.1406 108.443 11.8978C108.87 11.3294 109.089 10.6337 109.064 9.92551V9.92551ZM120.492 18.4087L120.107 24.6438H117.025V19.7236C117.039 19.6359 117.032 19.5463 117.005 19.4617C116.978 19.3771 116.932 19.2999 116.87 19.2362C116.807 19.1724 116.731 19.1239 116.647 19.0944C116.562 19.0649 116.472 19.0552 116.383 19.0661H105.918V16.8817H119.08C119.282 16.8531 119.487 16.8733 119.68 16.9407C119.872 17.008 120.045 17.1205 120.183 17.2684C120.322 17.4164 120.423 17.5955 120.477 17.7904C120.53 17.9852 120.536 18.1901 120.492 18.3875V18.4087ZM120.492 15.9698H117.389V4.72957H120.407L120.492 15.9698Z" fill="white"/>
<path d="M141.702 19.4684H122.055V17.2416H141.68L141.702 19.4684ZM140.482 13.1061L139.561 15.2269C137.9 14.9068 136.316 14.2732 134.896 13.3606C133.628 12.6124 132.592 11.5341 131.899 10.243C131.313 11.5187 130.37 12.6008 129.181 13.3606C127.715 14.3439 126.085 15.0619 124.366 15.4814L123.36 13.3606C127.855 12.0881 130.102 9.69159 130.102 6.12866V5.32275H133.654V6.19228C133.666 7.77742 134.295 9.29695 135.409 10.4339C136.84 11.7557 138.585 12.6969 140.482 13.1697V13.1061Z" fill="white"/>
<path d="M153.986 6.72304L153.622 18.9176H144.419C143.921 18.9679 143.421 18.8233 143.028 18.5146C142.871 18.3235 142.754 18.103 142.684 17.8662C142.614 17.6294 142.593 17.3812 142.622 17.1361V5.04761H152.338C152.567 5.00892 152.802 5.02592 153.023 5.09715C153.244 5.16838 153.444 5.29171 153.606 5.45653C153.768 5.62135 153.887 5.82273 153.954 6.04335C154.02 6.26397 154.031 6.49722 153.986 6.72304V6.72304ZM150.455 16.6908V7.82585C150.455 7.46531 150.284 7.29565 149.941 7.29565H146.067V16.1181C146.067 16.4999 146.281 16.6908 146.688 16.6908H150.455ZM162.889 13.1702H159.551V20.7627H156.105V4.72949H159.551V10.9434H162.889V13.1702Z" fill="white"/>
<path d="M177.057 20.5294H174.104V12.7037H171.279C169.945 15.8032 167.71 18.439 164.858 20.2749L163.125 18.4722C165.268 16.9639 166.973 14.9232 168.068 12.5552C167.481 12.6521 166.887 12.7017 166.292 12.7037H163.381V10.4768H168.689C168.846 9.60891 168.925 8.72884 168.925 7.84706C168.932 7.76826 168.921 7.68892 168.893 7.61484C168.865 7.54075 168.82 7.4738 168.763 7.4189C168.705 7.364 168.636 7.32253 168.561 7.29753C168.485 7.27254 168.404 7.26465 168.325 7.27444H163.617V5.0264H170.701C171.143 4.97739 171.588 5.09889 171.942 5.36573C172.076 5.53106 172.176 5.72131 172.234 5.92527C172.293 6.12923 172.31 6.34279 172.285 6.55338C172.295 7.87097 172.166 9.18602 171.899 10.4768H174.04V4.72949H177.057V20.5294ZM181.487 20.7627H178.427V4.72949H181.487V20.7627Z" fill="white"/>
<path d="M200 15.7152H196.533V13.7429C195.751 14.4113 194.794 14.8453 193.772 14.9941C191.655 15.3756 189.503 15.539 187.352 15.4819C186.495 15.4819 185.811 15.4819 185.211 15.4819C184.903 15.4737 184.599 15.3993 184.322 15.2638C184.045 15.1284 183.801 14.9351 183.606 14.6972C183.316 14.1877 183.183 13.6055 183.221 13.0218V5.00519H193.109V7.12599H186.688V8.90745H192.873V11.0282H186.859V12.2583C186.859 12.6825 187.052 12.937 187.437 12.9794C188.086 13.0204 188.736 13.0204 189.385 12.9794C190.952 13.01 192.519 12.9178 194.072 12.7037C194.754 12.6542 195.415 12.4433 195.998 12.0886C196.189 11.9299 196.338 11.7268 196.431 11.4975C196.525 11.2682 196.56 11.0196 196.533 10.7738V4.72949H200V15.7152ZM199.743 20.5718C199.758 21.2075 199.623 21.8379 199.348 22.4124C199.073 22.9869 198.666 23.4896 198.159 23.8803C196.841 24.7511 195.292 25.2158 193.708 25.2158C192.124 25.2158 190.575 24.7511 189.256 23.8803C188.75 23.4896 188.343 22.9869 188.068 22.4124C187.793 21.8379 187.658 21.2075 187.673 20.5718C187.663 19.9257 187.803 19.2861 188.081 18.7016C188.359 18.1172 188.769 17.6035 189.278 17.1998C190.549 16.2525 192.12 15.7862 193.708 15.8849C195.304 15.8002 196.879 16.273 198.159 17.221C198.662 17.6246 199.065 18.1359 199.34 18.7162C199.614 19.2966 199.752 19.931 199.743 20.5718V20.5718ZM196.383 20.5718C196.399 20.253 196.341 19.9348 196.215 19.6411C196.089 19.3473 195.898 19.0855 195.655 18.8752C195.116 18.4156 194.418 18.18 193.708 18.2177C193.003 18.1766 192.311 18.4129 191.782 18.8752C191.546 19.0897 191.358 19.3503 191.23 19.6405C191.101 19.9308 191.035 20.2443 191.035 20.5612C191.035 20.8782 191.101 21.1917 191.23 21.4819C191.358 21.7721 191.546 22.0327 191.782 22.2472C192.319 22.6941 193.008 22.9215 193.708 22.8835C194.414 22.9185 195.109 22.6917 195.655 22.2472C195.895 22.0392 196.084 21.7809 196.21 21.491C196.336 21.2012 196.395 20.8871 196.383 20.5718Z" fill="white"/>
<path d="M79.4863 16.9663H79.1653V17.2844H79.4863V16.9663Z" fill="white"/>
</g>
<defs>
<clipPath id="clip0_144_875">
<rect width="200" height="30.6667" fill="white"/>
</clipPath>
</defs>
</svg>
