<svg width="200" height="31" viewBox="0 0 200 31" fill="none" xmlns="http://www.w3.org/2000/svg">
<g clip-path="url(#clip0_144_906)">
<path d="M30.947 0H0V30.5085H30.947V0Z" fill="#B8292D"/>
<path d="M10.4655 20.191C11.2569 20.2544 12.0197 20.5114 12.6849 20.9387C13.3501 21.3661 13.8966 21.9503 14.275 22.6384C14.6711 23.3333 14.8706 24.1202 14.8529 24.9171H12.2632C12.1348 24.9171 12.092 24.9171 12.0706 24.7694C12.0544 24.4347 11.9514 24.1096 11.7716 23.8252C11.5918 23.5408 11.341 23.3066 11.0433 23.1448C10.742 23.0027 10.4111 22.932 10.0772 22.9386C9.7432 22.9451 9.41542 23.0286 9.12005 23.1824C8.82468 23.3362 8.56993 23.556 8.37619 23.8242C8.18244 24.0925 8.05507 24.4017 8.00428 24.7272C7.9939 24.7901 7.9939 24.8542 8.00428 24.9171H5.22205C5.24814 23.7415 5.69546 22.6129 6.48475 21.7312C7.27508 20.8522 8.37914 20.308 9.56661 20.2121C9.31423 20.1682 9.06423 20.1119 8.81755 20.0433C8.00393 19.8371 7.26032 19.4218 6.66254 18.8399C6.06476 18.258 5.63417 17.5303 5.41466 16.7309C5.32626 16.3634 5.269 15.9894 5.24345 15.6126C5.24345 15.486 5.24345 15.4438 5.37186 15.4438H7.85447C7.98288 15.4438 8.00428 15.4438 8.02569 15.6126C8.05078 15.9113 8.1401 16.2012 8.28771 16.4631C8.43532 16.725 8.63783 16.953 8.88176 17.1317C9.18388 17.3132 9.52693 17.4181 9.88022 17.4369C10.2335 17.4557 10.586 17.3878 10.9062 17.2394C11.2264 17.091 11.5042 16.8666 11.7149 16.5864C11.9256 16.3062 12.0625 15.9789 12.1134 15.6337C12.1134 15.486 12.1134 15.4438 12.2846 15.4438H14.7245C14.8529 15.4438 14.8957 15.4438 14.8957 15.6126C14.853 16.6261 14.4864 17.6003 13.8483 18.3961C13.2103 19.1918 12.3334 19.7684 11.343 20.0433L10.4655 20.191Z" fill="white"/>
<path d="M25.7464 20.1276V24.7482C25.7464 24.8748 25.7464 24.917 25.5752 24.917H15.9658C15.9658 21.7944 15.9658 18.5875 15.9658 15.5282C15.9658 15.3805 15.9658 15.3594 16.1584 15.3594H25.7464V20.1276ZM21.9583 22.2375H22.793C22.9214 22.2375 22.9642 22.2375 22.9642 22.0687C22.9642 20.8239 22.9642 19.6002 22.9642 18.3554C22.9642 18.2288 22.9642 18.1866 22.793 18.1866H18.9192C18.9192 18.1866 18.748 18.1866 18.748 18.3343C18.748 19.6424 18.748 20.9505 18.748 22.2375H21.9583Z" fill="white"/>
<path d="M9.97327 5.04272C9.03781 5.04272 8.12335 5.31619 7.34554 5.82854C6.56773 6.3409 5.96149 7.06912 5.60351 7.92113C5.24552 8.77314 5.15185 9.71067 5.33435 10.6152C5.51685 11.5196 5.96732 12.3505 6.6288 13.0026C7.29027 13.6547 8.13304 14.0988 9.05053 14.2787C9.96803 14.4586 10.919 14.3663 11.7833 14.0133C12.6475 13.6604 13.3862 13.0628 13.906 12.296C14.4257 11.5292 14.7031 10.6277 14.7031 9.7055C14.7031 8.46885 14.2048 7.28286 13.3177 6.40842C12.4307 5.53398 11.2277 5.04272 9.97327 5.04272ZM9.97327 11.8786C9.54999 11.8786 9.1362 11.7549 8.78425 11.5231C8.4323 11.2912 8.15799 10.9617 7.996 10.5762C7.83402 10.1907 7.79164 9.76646 7.87421 9.35718C7.95679 8.94791 8.16063 8.57197 8.45994 8.2769C8.75925 7.98183 9.14059 7.78089 9.55574 7.69948C9.9709 7.61807 10.4012 7.65985 10.7923 7.81954C11.1834 7.97923 11.5176 8.24966 11.7528 8.59662C11.9879 8.94359 12.1135 9.3515 12.1135 9.76879C12.1135 10.3284 11.888 10.865 11.4866 11.2607C11.0852 11.6564 10.5409 11.8786 9.97327 11.8786Z" fill="white"/>
<path d="M25.7464 8.46021H15.9658V10.9498H25.7464V8.46021Z" fill="white"/>
<path d="M25.7464 11.8783H15.9658V14.3679H25.7464V11.8783Z" fill="white"/>
<path d="M25.7464 5.04272H15.9658V7.53235H25.7464V5.04272Z" fill="white"/>
<path d="M54.4249 10.8024C54.47 11.6097 54.3429 12.4175 54.0517 13.1734C53.7604 13.9293 53.3116 14.6166 52.7341 15.1908C51.4505 16.2427 49.834 16.8185 48.1648 16.8185C46.4957 16.8185 44.8791 16.2427 43.5955 15.1908C43.0181 14.6166 42.5692 13.9293 42.278 13.1734C41.9867 12.4175 41.8596 11.6097 41.9048 10.8024C41.8583 9.99301 41.9869 9.18318 42.2821 8.42658C42.5773 7.66998 43.0323 6.9839 43.6169 6.41386C44.8971 5.36365 46.51 4.78862 48.1755 4.78862C49.841 4.78862 51.4539 5.36365 52.7341 6.41386C53.3116 6.9881 53.7604 7.67539 54.0517 8.43131C54.3429 9.18723 54.47 9.99497 54.4249 10.8024ZM51.0862 10.8024C51.1384 9.90167 50.8485 9.0141 50.2729 8.31273C50.0039 8.01539 49.6741 7.77747 49.3053 7.61456C48.9365 7.45165 48.5369 7.36744 48.1327 7.36744C47.7286 7.36744 47.329 7.45165 46.9601 7.61456C46.5913 7.77747 46.2616 8.01539 45.9925 8.31273C45.4569 9.03541 45.1681 9.90729 45.1681 10.8024C45.1681 11.6974 45.4569 12.5693 45.9925 13.292C46.2577 13.5954 46.5862 13.8389 46.9556 14.0058C47.3249 14.1727 47.7264 14.2591 48.1327 14.2591C48.539 14.2591 48.9405 14.1727 49.3099 14.0058C49.6792 13.8389 50.0077 13.5954 50.2729 13.292C50.8485 12.5906 51.1384 11.703 51.0862 10.8024ZM62.5147 12.4269H59.1761V19.3895H55.709V4.62048H59.1547V10.1272H62.4933L62.5147 12.4269Z" fill="current"/>
<path d="M76.062 10.8024C76.1031 11.6111 75.972 12.4194 75.6771 13.1752C75.3822 13.9311 74.9301 14.6176 74.3499 15.1908C73.0526 16.24 71.4265 16.8133 69.7485 16.8133C68.0705 16.8133 66.4444 16.24 65.1471 15.1908C64.5669 14.6176 64.1148 13.9311 63.8199 13.1752C63.525 12.4194 63.3939 11.6111 63.435 10.8024C63.3967 9.99204 63.5312 9.18281 63.8298 8.42691C64.1284 7.67101 64.5844 6.98524 65.1685 6.41386C66.4607 5.36259 68.0838 4.7876 69.7592 4.7876C71.4346 4.7876 73.0577 5.36259 74.3499 6.41386C74.9301 6.98706 75.3822 7.67366 75.6771 8.42947C75.972 9.18528 76.1031 9.99358 76.062 10.8024ZM72.6591 10.8024C72.7174 9.9044 72.4352 9.01712 71.8673 8.31273C71.5965 8.01833 71.2661 7.78307 70.8975 7.62206C70.5289 7.46106 70.1303 7.37789 69.7271 7.37789C69.324 7.37789 68.9253 7.46106 68.5567 7.62206C68.1881 7.78307 67.8578 8.01833 67.5869 8.31273C67.0512 9.03541 66.7625 9.90729 66.7625 10.8024C66.7625 11.6974 67.0512 12.5693 67.5869 13.292C67.8541 13.5923 68.1832 13.833 68.5523 13.9979C68.9214 14.1627 69.3219 14.248 69.7271 14.248C70.1323 14.248 70.5328 14.1627 70.9019 13.9979C71.271 13.833 71.6001 13.5923 71.8673 13.292C72.4352 12.5876 72.7174 11.7003 72.6591 10.8024ZM81.0059 19.3895H77.5602V4.62048H81.0059V19.3895Z" fill="current"/>
<path d="M99.9037 19.3895H96.3724V17.8915C95.5511 18.5384 94.5675 18.954 93.5259 19.0941C91.7495 19.4308 89.9407 19.5723 88.1327 19.5161C87.2036 19.5248 86.2748 19.4825 85.3505 19.3895C85.0399 19.3788 84.7355 19.3015 84.4583 19.163C84.1811 19.0246 83.9378 18.8283 83.7453 18.5878C83.4489 18.0988 83.3143 17.531 83.3601 16.9632V5.00033H93.2477V7.23678H86.8272V10.7602H92.9695V12.8701H86.8914V16.288C86.8794 16.3729 86.8851 16.4592 86.908 16.5418C86.9309 16.6244 86.9705 16.7016 87.0246 16.7687C87.0786 16.8357 87.1458 16.8913 87.2223 16.932C87.2987 16.9727 87.3827 16.9976 87.4692 17.0054C88.3432 17.1009 89.2224 17.1431 90.1017 17.132C91.3706 17.1716 92.6403 17.0797 93.8898 16.8577C94.5205 16.7582 95.1289 16.5512 95.6875 16.2458C95.9293 16.0728 96.1242 15.8436 96.2548 15.5787C96.3855 15.3137 96.4479 15.0211 96.4366 14.7268V4.70496H99.9037V19.3895Z" fill="current"/>
<path d="M116.276 15.8242H113.344V10.9926H111.996C111.843 12.185 111.23 13.2734 110.284 14.0308C109.284 14.7817 108.051 15.1692 106.795 15.1279C106.084 15.1789 105.37 15.0776 104.702 14.831C104.035 14.5844 103.429 14.1984 102.927 13.6993C102.425 13.2003 102.038 12.6001 101.793 11.9399C101.548 11.2796 101.451 10.575 101.509 9.8744C101.451 9.17375 101.548 8.46916 101.793 7.80893C102.038 7.14871 102.425 6.54849 102.927 6.04945C103.429 5.55041 104.035 5.16435 104.702 4.91776C105.37 4.67118 106.084 4.56989 106.795 4.62086C108.059 4.57469 109.299 4.96248 110.305 5.71799C111.257 6.47676 111.865 7.57701 111.996 8.77728H113.344V4.70526H116.276V15.8242ZM109.064 9.8744C109.123 9.12022 108.902 8.3705 108.443 7.76454C108.238 7.53408 107.984 7.3505 107.699 7.22661C107.415 7.10272 107.106 7.0415 106.795 7.0472C106.486 7.03395 106.178 7.09189 105.896 7.21641C105.613 7.34093 105.364 7.5286 105.169 7.76454C104.764 8.36852 104.548 9.07655 104.548 9.80055C104.548 10.5246 104.764 11.2326 105.169 11.8366C105.36 12.0789 105.608 12.2725 105.891 12.401C106.174 12.5295 106.484 12.5892 106.795 12.575C107.109 12.5874 107.422 12.5271 107.708 12.3988C107.994 12.2706 108.246 12.078 108.443 11.8366C108.87 11.2711 109.089 10.579 109.064 9.8744ZM120.492 18.3138L120.107 24.5168H117.025V19.6219C117.039 19.5347 117.032 19.4456 117.005 19.3614C116.978 19.2773 116.932 19.2004 116.87 19.137C116.807 19.0736 116.731 19.0253 116.647 18.9959C116.562 18.9666 116.472 18.957 116.383 18.9679H105.918V16.7947H119.08C119.282 16.7662 119.487 16.7864 119.68 16.8534C119.872 16.9204 120.045 17.0322 120.183 17.1794C120.322 17.3266 120.423 17.5048 120.477 17.6987C120.53 17.8925 120.536 18.0964 120.492 18.2927V18.3138ZM120.492 15.8875H117.389V4.70526H120.407L120.492 15.8875Z" fill="current"/>
<path d="M141.701 19.3681H122.055V17.1528H141.68L141.701 19.3681ZM140.482 13.0386L139.561 15.1484C137.9 14.83 136.316 14.1997 134.896 13.2918C133.628 12.5474 132.592 11.4747 131.899 10.1903C131.313 11.4594 130.37 12.5359 129.181 13.2918C127.715 14.27 126.085 14.9843 124.366 15.4016L123.36 13.2918C127.854 12.0258 130.102 9.64171 130.102 6.09716V5.29541H133.654V6.16045C133.666 7.73742 134.295 9.24911 135.409 10.3802C136.84 11.6952 138.585 12.6315 140.482 13.1019V13.0386Z" fill="current"/>
<path d="M153.986 6.68822L153.622 18.8199H144.419C143.921 18.8699 143.421 18.7261 143.028 18.419C142.871 18.2288 142.754 18.0095 142.684 17.7739C142.614 17.5383 142.593 17.2914 142.622 17.0476V5.02143H152.338C152.567 4.98294 152.802 4.99985 153.023 5.07071C153.244 5.14158 153.444 5.26427 153.606 5.42824C153.768 5.59221 153.887 5.79256 153.954 6.01204C154.02 6.23152 154.031 6.46356 153.986 6.68822ZM150.455 16.6045V7.78534C150.455 7.42666 150.284 7.25788 149.941 7.25788H146.067V16.0349C146.067 16.4146 146.281 16.6045 146.688 16.6045H150.455ZM162.889 13.1022H159.551V20.6554H156.105V4.70496H159.551V10.8868H162.889V13.1022Z" fill="current"/>
<path d="M177.057 20.4234H174.104V12.638H171.279C169.945 15.7216 167.71 18.3437 164.858 20.1702L163.125 18.3768C165.268 16.8762 166.973 14.8461 168.068 12.4903C167.481 12.5867 166.887 12.636 166.292 12.638H163.381V10.4227H168.689C168.846 9.55921 168.925 8.68367 168.925 7.80644C168.932 7.72805 168.921 7.64912 168.893 7.57542C168.865 7.50171 168.82 7.43511 168.763 7.38049C168.705 7.32587 168.636 7.28461 168.561 7.25975C168.485 7.23488 168.404 7.22703 168.325 7.23678H163.617V5.00033H170.701C171.143 4.95157 171.588 5.07244 171.942 5.33791C172.076 5.50239 172.176 5.69166 172.234 5.89457C172.293 6.09747 172.31 6.30993 172.285 6.51943C172.295 7.83022 172.166 9.13849 171.899 10.4227H174.04V4.70496H177.057V20.4234ZM181.487 20.6554H178.427V4.70496H181.487V20.6554Z" fill="current"/>
<path d="M200 15.634H196.533V13.6718C195.751 14.3368 194.794 14.7686 193.772 14.9166C191.655 15.2961 189.503 15.4587 187.352 15.4019C186.495 15.4019 185.811 15.4019 185.211 15.4019C184.903 15.3937 184.599 15.3197 184.322 15.1849C184.045 15.0502 183.801 14.8579 183.606 14.6213C183.316 14.1143 183.183 13.5352 183.221 12.9545V4.97924H193.109V7.08909H186.688V8.86136H192.873V10.9712H186.859V12.1949C186.859 12.6169 187.052 12.8701 187.437 12.9123C188.086 12.9531 188.736 12.9531 189.385 12.9123C190.952 12.9427 192.519 12.851 194.072 12.638C194.754 12.5888 195.415 12.3789 195.998 12.0261C196.189 11.8682 196.338 11.6662 196.431 11.4381C196.525 11.2099 196.56 10.9626 196.533 10.718V4.70496H200V15.634ZM199.743 20.4656C199.758 21.098 199.623 21.7251 199.348 22.2966C199.073 22.8682 198.666 23.3683 198.159 23.7569C196.841 24.6233 195.292 25.0856 193.708 25.0856C192.124 25.0856 190.575 24.6233 189.256 23.7569C188.75 23.3683 188.343 22.8682 188.068 22.2966C187.793 21.7251 187.658 21.098 187.673 20.4656C187.663 19.8228 187.803 19.1864 188.081 18.605C188.359 18.0236 188.769 17.5126 189.278 17.1109C190.549 16.1685 192.12 15.7047 193.708 15.8028C195.304 15.7185 196.879 16.1889 198.159 17.132C198.662 17.5336 199.065 18.0422 199.34 18.6196C199.614 19.1969 199.752 19.8281 199.743 20.4656ZM196.383 20.4656C196.399 20.1484 196.341 19.8318 196.215 19.5396C196.089 19.2473 195.898 18.9869 195.655 18.7777C195.116 18.3204 194.418 18.0861 193.708 18.1236C193.003 18.0827 192.311 18.3178 191.782 18.7777C191.546 18.9911 191.358 19.2504 191.23 19.5391C191.101 19.8278 191.035 20.1397 191.035 20.455C191.035 20.7703 191.101 21.0822 191.23 21.3709C191.358 21.6596 191.546 21.9189 191.782 22.1323C192.319 22.5769 193.008 22.8032 193.708 22.7653C194.414 22.8002 195.109 22.5745 195.655 22.1323C195.895 21.9254 196.084 21.6684 196.21 21.38C196.336 21.0917 196.395 20.7792 196.383 20.4656Z" fill="current"/>
<path d="M79.4863 16.8788H79.1653V17.1953H79.4863V16.8788Z" fill="current"/>
</g>
<defs>
<clipPath id="clip0_144_906">
<rect width="200" height="30.5085" fill="white"/>
</clipPath>
</defs>
</svg>
