<svg width="86" height="122" viewBox="0 0 86 122" fill="none" xmlns="http://www.w3.org/2000/svg">
<g clip-path="url(#clip0_225_50)">
<path d="M17.0201 53.5508C16.2244 53.5508 15.4613 53.2347 14.8987 52.6721C14.3361 52.1095 14.0201 51.3464 14.0201 50.5508V26.0508C13.996 19.1997 16.6864 12.618 21.5027 7.74548C26.319 2.87296 32.8691 0.106268 39.72 0.0507812H45.8201C52.671 0.106268 59.2211 2.87296 64.0374 7.74548C68.8537 12.618 71.5441 19.1997 71.5201 26.0508V50.5508C71.5201 51.3464 71.204 52.1095 70.6414 52.6721C70.0788 53.2347 69.3157 53.5508 68.5201 53.5508C67.7244 53.5508 66.9613 53.2347 66.3987 52.6721C65.8361 52.1095 65.5201 51.3464 65.5201 50.5508V26.0508C65.5441 20.7909 63.4858 15.7353 59.7947 11.988C56.1036 8.24073 51.0797 6.1062 45.8201 6.05078H39.76C34.4996 6.10358 29.474 8.23723 25.7824 11.9851C22.0907 15.733 20.0334 20.7901 20.0601 26.0508V50.5508C20.0601 50.9481 19.9812 51.3415 19.8279 51.7081C19.6747 52.0747 19.4501 52.4073 19.1673 52.6864C18.8844 52.9655 18.5489 53.1856 18.1803 53.334C17.8117 53.4824 17.4174 53.5561 17.0201 53.5508Z" fill="#1A1A1A"/>
<path d="M82.54 121.411H3C2.20435 121.411 1.44127 121.094 0.878662 120.532C0.316053 119.969 0 119.206 0 118.411V73.6605C0 73.5405 0 73.4306 0 73.3206C0 73.0506 0 72.7806 0 72.5106C0 54.7606 19.19 40.3105 42.77 40.3105C66.35 40.3105 85.54 54.7606 85.54 72.5106C85.54 72.7806 85.54 73.0506 85.54 73.3206C85.54 73.4306 85.54 73.5405 85.54 73.6605V118.411C85.54 119.206 85.224 119.969 84.6614 120.532C84.0988 121.094 83.3357 121.411 82.54 121.411ZM6 115.411H79.54V74.1306C79.5151 73.918 79.5151 73.7032 79.54 73.4906C79.54 73.1606 79.54 72.8406 79.54 72.4906C79.54 58.0406 63.04 46.2905 42.77 46.2905C22.5 46.2905 6 58.0406 6 72.4906C6 72.8206 6 73.1506 6 73.4906C6.0204 73.7001 6.0204 73.9111 6 74.1206V115.411Z" fill="#1A1A1A"/>
<path d="M82.54 108.061H3C2.20435 108.061 1.44127 107.744 0.878662 107.182C0.316053 106.619 0 105.856 0 105.061C0 104.265 0.316053 103.502 0.878662 102.939C1.44127 102.377 2.20435 102.061 3 102.061H82.54C83.3357 102.061 84.0988 102.377 84.6614 102.939C85.224 103.502 85.54 104.265 85.54 105.061C85.54 105.856 85.224 106.619 84.6614 107.182C84.0988 107.744 83.3357 108.061 82.54 108.061Z" fill="#1A1A1A"/>
<path d="M39.03 79.0309C39.03 79.1609 39.03 79.2909 39.03 79.4309V89.481C39.0327 90.3686 39.3865 91.2191 40.0142 91.8468C40.6418 92.4745 41.4923 92.8283 42.38 92.8309H43.18C44.0677 92.8283 44.9182 92.4745 45.5459 91.8468C46.1736 91.2191 46.5274 90.3686 46.53 89.481V79.4309C46.5404 79.3078 46.5404 79.184 46.53 79.0609C48.2809 78.2201 49.6942 76.8095 50.5383 75.0603C51.3825 73.3111 51.6073 71.3269 51.1761 69.4331C50.745 67.5393 49.6834 65.8481 48.1652 64.6367C46.647 63.4253 44.7623 62.7656 42.8201 62.7656C40.8778 62.7656 38.993 63.4253 37.4748 64.6367C35.9567 65.8481 34.895 67.5393 34.4639 69.4331C34.0327 71.3269 34.2575 73.3111 35.1017 75.0603C35.9458 76.8095 37.3591 78.2201 39.11 79.0609L39.03 79.0309Z" fill="#C22229"/>
</g>
<defs>
<clipPath id="clip0_225_50">
<rect width="85.54" height="121.41" fill="white"/>
</clipPath>
</defs>
</svg>
