<svg width="100" height="100" viewBox="0 0 100 100" fill="none" xmlns="http://www.w3.org/2000/svg">
<path d="M66.1286 30.6459C60.806 30.6459 56.4512 26.291 56.4512 20.9684C56.4512 15.6459 60.806 11.291 66.1286 11.291C71.4512 11.291 75.806 15.6459 75.806 20.9684C75.806 26.291 71.4512 30.6459 66.1286 30.6459ZM66.1286 14.5168C62.5802 14.5168 59.677 17.42 59.677 20.9684C59.677 24.5168 62.5802 27.42 66.1286 27.42C69.677 27.42 72.5802 24.5168 72.5802 20.9684C72.5802 17.42 69.677 14.5168 66.1286 14.5168Z" fill="#444444"/>
<path d="M62.0963 88.7104C59.0318 88.7104 56.4512 86.1297 56.4512 83.0652H59.677C59.677 84.3555 60.806 85.4846 62.0963 85.4846C63.3867 85.4846 64.5157 84.3555 64.5157 83.0652V61.291H67.7415V83.0652C67.7415 86.1297 65.1608 88.7104 62.0963 88.7104Z" fill="#444444"/>
<path d="M70.1608 88.7104C67.0963 88.7104 64.5156 86.1298 64.5156 83.0653V61.2911H67.7414V83.0653C67.7414 84.3556 68.8705 85.4846 70.1608 85.4846C71.4511 85.4846 72.5801 84.3556 72.5801 83.0653V53.2266H75.8059V83.0653C75.8059 86.1298 73.2253 88.7104 70.1608 88.7104Z" fill="#444444"/>
<path d="M78.2254 59.6768C75.1609 59.6768 72.5803 57.0961 72.5803 54.0316V38.709H75.8061V54.0316C75.8061 55.322 76.9351 56.451 78.2254 56.451C79.5157 56.451 80.6448 55.322 80.6448 54.0316V40.8058C80.6448 37.0961 77.5803 33.8703 73.7093 33.8703H58.3867V30.6445H73.7093C79.3545 30.6445 83.8706 35.1607 83.8706 40.8058V54.0316C83.8706 57.0961 81.2899 59.6768 78.2254 59.6768Z" fill="#444444"/>
<path d="M59.677 38.709H56.4512V43.5477H59.677V38.709Z" fill="#444444"/>
<path d="M33.8708 30.6459C28.5482 30.6459 24.1934 26.291 24.1934 20.9684C24.1934 15.6459 28.5482 11.291 33.8708 11.291C39.1934 11.291 43.5482 15.6459 43.5482 20.9684C43.5482 26.291 39.1934 30.6459 33.8708 30.6459ZM33.8708 14.5168C30.3224 14.5168 27.4192 17.42 27.4192 20.9684C27.4192 24.5168 30.3224 27.42 33.8708 27.42C37.4192 27.42 40.3224 24.5168 40.3224 20.9684C40.3224 17.42 37.4192 14.5168 33.8708 14.5168Z" fill="#444444"/>
<path d="M37.903 88.7104C34.8385 88.7104 32.2578 86.1297 32.2578 83.0652V61.291H35.4836V83.0652C35.4836 84.3555 36.6127 85.4846 37.903 85.4846C39.1933 85.4846 40.3223 84.3555 40.3223 83.0652H43.5481C43.5481 86.1297 40.9675 88.7104 37.903 88.7104Z" fill="#444444"/>
<path d="M29.8385 88.7104C26.774 88.7104 24.1934 86.1298 24.1934 83.0653V53.2266H27.4192V83.0653C27.4192 84.3556 28.5482 85.4846 29.8385 85.4846C31.1288 85.4846 32.2579 84.3556 32.2579 83.0653V61.2911H35.4837V83.0653C35.4837 86.1298 32.903 88.7104 29.8385 88.7104Z" fill="#444444"/>
<path d="M21.7741 59.6768C18.7096 59.6768 16.1289 57.0961 16.1289 54.0316V40.8058C16.1289 35.1607 20.645 30.6445 26.2902 30.6445H41.6128V33.8703H26.2902C22.5805 33.8703 19.3547 36.9349 19.3547 40.8058V54.0316C19.3547 55.322 20.4837 56.451 21.7741 56.451C23.0644 56.451 24.1934 55.322 24.1934 54.0316V38.709H27.4192V54.0316C27.4192 57.0961 24.8386 59.6768 21.7741 59.6768Z" fill="#444444"/>
<path d="M43.5481 38.709H40.3223V43.5477H43.5481V38.709Z" fill="#606060"/>
<path d="M59.6771 32.2575C59.6771 26.9349 55.3223 22.5801 49.9997 22.5801C44.6771 22.5801 40.3223 26.9349 40.3223 32.2575C40.3223 37.5801 44.6771 41.9349 49.9997 41.9349C55.3223 41.9349 59.6771 37.5801 59.6771 32.2575Z" fill="#B8292D"/>
<path d="M57.5804 41.9355H49.9997H42.4191C36.7739 41.9355 32.2578 46.4517 32.2578 52.0968V65.3226C32.2578 68.3872 34.8385 70.9678 37.903 70.9678C38.7094 70.9678 39.5159 70.8065 40.3223 70.3226V94.3549C40.3223 97.4194 42.903 100 45.9675 100C47.5804 100 49.032 99.3549 49.9997 98.2259C50.9675 99.3549 52.4191 100 54.032 100C57.0965 100 59.6772 97.4194 59.6772 94.3549V70.3226C60.4836 70.6452 61.2901 70.9678 62.0965 70.9678C65.161 70.9678 67.7417 68.3872 67.7417 65.3226V52.0968C67.7417 46.4517 63.2256 41.9355 57.5804 41.9355Z" fill="#B8292D"/>
<path d="M17.7419 19.3548C12.4193 19.3548 8.06445 15 8.06445 9.67742C8.06445 4.35484 12.4193 0 17.7419 0C23.0645 0 27.4193 4.35484 27.4193 9.67742C27.4193 15 23.0645 19.3548 17.7419 19.3548ZM17.7419 3.22581C14.1935 3.22581 11.2903 6.12903 11.2903 9.67742C11.2903 13.2258 14.1935 16.129 17.7419 16.129C21.2903 16.129 24.1935 13.2258 24.1935 9.67742C24.1935 6.12903 21.2903 3.22581 17.7419 3.22581Z" fill="#444444"/>
<path d="M21.7741 77.4193C18.7096 77.4193 16.1289 74.8387 16.1289 71.7742V50H19.3547V71.7742C19.3547 73.0645 20.4837 74.1935 21.7741 74.1935C23.0644 74.1935 24.1934 73.0645 24.1934 71.7742H27.4192C27.4192 74.8387 24.8386 77.4193 21.7741 77.4193Z" fill="#444444"/>
<path d="M13.7096 77.4194C10.6451 77.4194 8.06445 74.8388 8.06445 71.7743V41.9355H11.2903V71.7743C11.2903 73.0646 12.4193 74.1936 13.7096 74.1936C14.9999 74.1936 16.129 73.0646 16.129 71.7743V50.0001H19.3548V71.7743C19.3548 74.8388 16.7741 77.4194 13.7096 77.4194Z" fill="#444444"/>
<path d="M5.64516 48.3877C2.58065 48.3877 0 45.8071 0 42.7426V29.5168C0 23.8716 4.51613 19.3555 10.1613 19.3555H25.4839V22.5813H10.1613C6.29032 22.5813 3.22581 25.6458 3.22581 29.5168V42.7426C3.22581 44.0329 4.35484 45.1619 5.64516 45.1619C6.93548 45.1619 8.06452 44.0329 8.06452 42.7426V27.42H11.2903V42.7426C11.2903 45.8071 8.70968 48.3877 5.64516 48.3877Z" fill="#444444"/>
<path d="M27.4192 27.4199H24.1934V32.2586H27.4192V27.4199Z" fill="#444444"/>
<path d="M82.2575 19.3548C76.9349 19.3548 72.5801 15 72.5801 9.67742C72.5801 4.35484 76.9349 0 82.2575 0C87.5801 0 91.9349 4.35484 91.9349 9.67742C91.9349 15 87.5801 19.3548 82.2575 19.3548ZM82.2575 3.22581C78.7091 3.22581 75.8059 6.12903 75.8059 9.67742C75.8059 13.2258 78.7091 16.129 82.2575 16.129C85.8059 16.129 88.7091 13.2258 88.7091 9.67742C88.7091 6.12903 85.8059 3.22581 82.2575 3.22581Z" fill="#444444"/>
<path d="M78.2252 77.4193C75.1607 77.4193 72.5801 74.8387 72.5801 71.7742H75.8059C75.8059 73.0645 76.9349 74.1935 78.2252 74.1935C79.5156 74.1935 80.6446 73.0645 80.6446 71.7742V50H83.8704V71.7742C83.8704 74.8387 81.2897 77.4193 78.2252 77.4193Z" fill="#444444"/>
<path d="M86.2897 77.4194C83.2252 77.4194 80.6445 74.8388 80.6445 71.7743V50.0001H83.8703V71.7743C83.8703 73.0646 84.9994 74.1936 86.2897 74.1936C87.58 74.1936 88.709 73.0646 88.709 71.7743V41.9355H91.9349V71.7743C91.9349 74.8388 89.3542 77.4194 86.2897 77.4194Z" fill="#444444"/>
<path d="M94.3543 48.3877C91.2898 48.3877 88.7092 45.8071 88.7092 42.7426V27.42H91.935V42.7426C91.935 44.0329 93.064 45.1619 94.3543 45.1619C95.6447 45.1619 96.7737 44.0329 96.7737 42.7426V29.5168C96.7737 25.8071 93.7092 22.5813 89.8382 22.5813H74.5156V19.3555H89.8382C95.4834 19.3555 99.9995 23.8716 99.9995 29.5168V42.7426C99.9995 45.8071 97.4189 48.3877 94.3543 48.3877Z" fill="#444444"/>
<path d="M75.8059 27.4199H72.5801V32.2586H75.8059V27.4199Z" fill="#444444"/>
</svg>
