<svg width="100" height="105" viewBox="0 0 100 105" fill="none" xmlns="http://www.w3.org/2000/svg">
<g clip-path="url(#clip0_885_155)">
<path d="M79.3204 7.93164H5.66602V27.7617H79.3204V7.93164Z" fill="#B8292D"/>
<path d="M79.3201 31.4447H2.83286C1.13314 31.4447 0 30.3116 0 28.6119V9.63169C0 7.93197 1.13314 6.79883 2.83286 6.79883H79.3201C81.0198 6.79883 82.153 7.93197 82.153 9.63169V28.6119C82.153 30.3116 81.0198 31.4447 79.3201 31.4447ZM5.66572 25.779H76.4873V12.4646H5.66572V25.779Z" fill="#444444"/>
<path d="M79.3201 104.248H2.83286C1.13314 104.248 0 103.115 0 101.416V39.0926C0 37.3929 1.13314 36.2598 2.83286 36.2598C4.53258 36.2598 5.66572 37.3929 5.66572 39.0926V98.5827H76.4873V39.0926C76.4873 37.3929 77.6204 36.2598 79.3201 36.2598C81.0198 36.2598 82.153 37.3929 82.153 39.0926V101.416C82.153 102.832 81.0198 104.248 79.3201 104.248Z" fill="#444444"/>
<path d="M41.077 19.5467C39.3773 19.5467 38.2441 18.4136 38.2441 16.7139V2.83286C38.2441 1.13314 39.3773 0 41.077 0C42.7767 0 43.9099 1.13314 43.9099 2.83286V16.7139C43.9099 18.1303 42.7767 19.5467 41.077 19.5467Z" fill="#444444"/>
<path d="M28.8954 19.5467C27.1956 19.5467 26.0625 18.4136 26.0625 16.7139V2.83286C26.0625 1.13314 27.1956 0 28.8954 0C30.5951 0 31.7282 1.13314 31.7282 2.83286V16.7139C31.7282 18.1303 30.5951 19.5467 28.8954 19.5467Z" fill="#444444"/>
<path d="M16.7137 19.5467C15.014 19.5467 13.8809 18.4136 13.8809 16.7139V2.83286C13.8809 1.13314 15.014 0 16.7137 0C18.4134 0 19.5466 1.13314 19.5466 2.83286V16.7139C19.5466 18.1303 18.1302 19.5467 16.7137 19.5467Z" fill="#444444"/>
<path d="M53.2586 19.5467C51.5589 19.5467 50.4258 18.4136 50.4258 16.7139V2.83286C50.4258 1.13314 51.5589 0 53.2586 0C54.9584 0 56.0915 1.13314 56.0915 2.83286V16.7139C56.0915 18.1303 54.9584 19.5467 53.2586 19.5467Z" fill="#444444"/>
<path d="M65.4383 19.5467C63.7386 19.5467 62.6055 18.4136 62.6055 16.7139V2.83286C62.6055 1.13314 63.7386 0 65.4383 0C67.138 0 68.2712 1.13314 68.2712 2.83286V16.7139C68.2712 18.1303 67.138 19.5467 65.4383 19.5467Z" fill="#444444"/>
<path d="M88.3856 104.248C86.6859 104.248 85.5527 103.115 85.5527 101.416V39.0926C85.5527 37.3929 86.6859 36.2598 88.3856 36.2598C90.0853 36.2598 91.2185 37.3929 91.2185 39.0926V101.416C91.2185 102.832 89.802 104.248 88.3856 104.248Z" fill="#444444"/>
<path d="M97.1668 92.6338C95.4671 92.6338 94.334 91.5006 94.334 89.8009V38.8094C94.334 37.1097 95.4671 35.9766 97.1668 35.9766C98.8666 35.9766 99.9997 37.1097 99.9997 38.8094V89.8009C99.9997 91.5006 98.8666 92.6338 97.1668 92.6338Z" fill="#444444"/>
<path d="M97.1662 31.4447C95.4665 31.4447 94.3333 30.3116 94.3333 28.6119V12.4646H82.152V28.6119C82.152 30.3116 81.0189 31.4447 79.3192 31.4447C77.6195 31.4447 76.4863 30.3116 76.4863 28.6119V9.63169C76.4863 7.93197 77.6195 6.79883 79.3192 6.79883H97.1662C98.8659 6.79883 99.9991 7.93197 99.9991 9.63169V28.6119C99.9991 30.3116 98.8659 31.4447 97.1662 31.4447Z" fill="#444444"/>
<path d="M26.6297 84.7024C24.93 84.7024 23.7969 83.5692 23.7969 81.8695V50.1415C23.7969 48.4417 24.93 47.3086 26.6297 47.3086C28.3295 47.3086 29.4626 48.4417 29.4626 50.1415V81.8695C29.4626 83.5692 28.3295 84.7024 26.6297 84.7024Z" fill="#444444"/>
<path d="M20.9637 58.9233C20.1139 58.9233 19.5473 58.64 18.9807 58.0735C17.8476 56.9403 17.8476 55.2406 18.9807 54.1075L24.6464 48.1585C25.7796 47.0253 27.4793 47.0253 28.6124 48.1585C29.7456 49.2916 29.7456 50.9913 28.6124 52.1245L22.6634 58.0735C22.3802 58.64 21.5303 58.9233 20.9637 58.9233Z" fill="#444444"/>
<path d="M50.7074 84.7017C47.0246 84.7017 43.3419 83.2853 40.5091 80.4524C34.8433 74.7867 34.8433 65.7216 40.5091 60.3391C46.1748 54.6734 55.2399 54.6734 60.6224 60.3391C63.4552 62.8887 64.8717 66.5714 64.8717 70.5374C64.8717 74.2202 63.4552 77.9029 60.6224 80.7357C58.0728 83.2853 54.3901 84.7017 50.7074 84.7017ZM50.7074 62.0389C48.4411 62.0389 46.1748 62.8887 44.7583 64.5884C41.3589 67.9879 41.3589 73.3703 44.7583 76.7697C47.8745 79.8859 53.5402 79.8859 56.9397 76.7697C58.6394 75.07 59.4892 73.087 59.4892 70.8207C59.4892 68.5544 58.6394 66.2881 56.9397 64.8717C54.9566 62.8887 52.9736 62.0389 50.7074 62.0389Z" fill="#444444"/>
<path d="M42.493 65.1555C41.6432 65.1555 41.0766 64.8723 40.51 64.3057C39.3769 63.1725 39.3769 61.4728 40.51 60.3397L52.408 48.4417C53.5412 47.3085 55.2409 47.3085 56.374 48.4417C57.5072 49.5748 57.5072 51.2745 56.374 52.4077L44.476 64.3057C44.1927 64.8723 43.3429 65.1555 42.493 65.1555Z" fill="#444444"/>
</g>
<defs>
<clipPath id="clip0_885_155">
<rect width="100" height="104.249" fill="white"/>
</clipPath>
</defs>
</svg>
