<svg width="90" height="112" viewBox="0 0 90 112" fill="none" xmlns="http://www.w3.org/2000/svg">
<g clip-path="url(#clip0_885_186)">
<path d="M84.6 0H5.4C2.52 0 0 2.52 0 5.4V55.8C0 58.86 2.52 61.2 5.4 61.2H19.8V57.6V46.8C19.8 42.84 23.04 39.6 27 39.6C30.96 39.6 34.2 42.84 34.2 46.8V57.6V61.2H84.6C87.66 61.2 90 58.68 90 55.8V5.4C90 2.52 87.48 0 84.6 0ZM21.6 30.6C16.56 30.6 12.6 26.64 12.6 21.6C12.6 16.56 16.56 12.6 21.6 12.6C26.64 12.6 30.6 16.56 30.6 21.6C30.6 26.64 26.64 30.6 21.6 30.6Z" fill="#B8292D"/>
<path d="M21.6008 32.4008C15.6608 32.4008 10.8008 27.5408 10.8008 21.6008C10.8008 15.6608 15.6608 10.8008 21.6008 10.8008C27.5408 10.8008 32.4008 15.6608 32.4008 21.6008C32.4008 27.5408 27.5408 32.4008 21.6008 32.4008ZM21.6008 14.4008C17.6408 14.4008 14.4008 17.6408 14.4008 21.6008C14.4008 25.5608 17.6408 28.8008 21.6008 28.8008C25.5608 28.8008 28.8008 25.5608 28.8008 21.6008C28.8008 17.6408 25.5608 14.4008 21.6008 14.4008Z" fill="#444444"/>
<path d="M79.1996 10.8008H39.5996V14.4008H79.1996V10.8008Z" fill="#444444"/>
<path d="M79.1996 19.8008H39.5996V23.4008H79.1996V19.8008Z" fill="#444444"/>
<path d="M79.1996 28.8008H39.5996V32.4008H79.1996V28.8008Z" fill="#444444"/>
<path d="M79.2004 37.8008H50.4004V41.4008H79.2004V37.8008Z" fill="#444444"/>
<path d="M45.9 111.601C30.6 111.601 18 99.0008 18 83.7008V46.8008C18 41.7608 21.96 37.8008 27 37.8008C32.04 37.8008 36 41.7608 36 46.8008V63.0008H37.8C44.82 63.0008 50.4 68.5808 50.4 75.6008C50.4 82.6208 44.82 88.2008 37.8 88.2008V84.6008C42.84 84.6008 46.8 80.6408 46.8 75.6008C46.8 70.5608 42.84 66.6008 37.8 66.6008H32.4V46.8008C32.4 43.7408 30.06 41.4008 27 41.4008C23.94 41.4008 21.6 43.7408 21.6 46.8008V83.7008C21.6 97.0208 32.58 108.001 45.9 108.001C59.22 108.001 70.2 97.0208 70.2 83.7008V61.2008H73.8V83.7008C73.8 99.0008 61.2 111.601 45.9 111.601Z" fill="#444444"/>
</g>
<defs>
<clipPath id="clip0_885_186">
<rect width="90" height="111.6" fill="white"/>
</clipPath>
</defs>
</svg>
