<svg width="100" height="99" viewBox="0 0 100 99" fill="none" xmlns="http://www.w3.org/2000/svg">
<g clip-path="url(#clip0_885_279)">
<path d="M53.8083 87.5212H48.946C45.8666 87.5212 43.2734 84.928 43.2734 81.8486V81.0382H46.5149V81.8486C46.5149 83.1452 47.6495 84.2797 48.946 84.2797H53.8083C55.1049 84.2797 56.2394 83.1452 56.2394 81.8486C56.2394 80.552 55.1049 79.4175 53.8083 79.4175H48.946C45.8666 79.4175 43.2734 76.8243 43.2734 73.7449C43.2734 70.6655 45.8666 68.0723 48.946 68.0723H53.8083C56.8877 68.0723 59.4809 70.6655 59.4809 73.7449V74.5552H56.2394V73.7449C56.2394 72.4483 55.1049 71.3138 53.8083 71.3138H48.946C47.6495 71.3138 46.5149 72.4483 46.5149 73.7449C46.5149 75.0415 47.6495 76.176 48.946 76.176H53.8083C56.8877 76.176 59.4809 78.7692 59.4809 81.8486C59.4809 84.928 56.8877 87.5212 53.8083 87.5212Z" fill="#444444"/>
<path d="M52.9993 64.8301H49.7578V69.6923H52.9993V64.8301Z" fill="#444444"/>
<path d="M52.9993 85.9004H49.7578V90.7626H52.9993V85.9004Z" fill="#444444"/>
<path d="M42.6259 53.1596L40.5189 50.5664L49.7571 43.1109L52.9986 46.3524C53.9711 47.3249 55.4297 47.3249 56.4022 46.6766C57.0505 46.1904 57.3746 45.5421 57.3746 44.8938C57.5367 44.2455 57.2126 43.4351 56.8884 42.9489L53.4848 38.7349L43.4362 35.8176L34.198 43.7592H1.13477V40.5178H32.9014L42.7879 32.252L55.4297 35.8176L59.4816 40.8419C60.4541 42.1385 60.9403 43.5972 60.7782 45.2179C60.6161 46.8387 59.8058 48.2973 58.5092 49.1077C56.2401 50.8905 52.8365 50.5664 50.8917 48.6215L49.5951 47.3249L42.6259 53.1596Z" fill="#444444"/>
<path d="M62.7232 47.0018H59.3196V43.7603H62.7232C63.6957 43.7603 64.344 43.112 64.344 42.1396C64.344 41.1671 63.6957 40.5188 62.7232 40.5188H56.2402V37.2773H62.7232C65.4785 37.2773 67.5854 39.3843 67.5854 42.1396C67.5854 44.8948 65.4785 47.0018 62.7232 47.0018Z" fill="#444444"/>
<path d="M62.7222 53.4842H56.2392C53.4839 53.4842 51.377 51.3773 51.377 48.622H54.6184C54.6184 49.5944 55.2667 50.2427 56.2392 50.2427H62.7222C63.6946 50.2427 64.3429 49.5944 64.3429 48.622C64.3429 47.6496 63.6946 47.0013 62.7222 47.0013H59.4807V43.7598H62.7222C65.4774 43.7598 67.5844 45.8667 67.5844 48.622C67.5844 51.3773 65.4774 53.4842 62.7222 53.4842Z" fill="#444444"/>
<path d="M41.6529 29.173C38.0873 29.173 35.1699 26.2557 35.1699 22.69C35.1699 19.1244 38.0873 16.207 41.6529 16.207C45.2185 16.207 48.1359 19.1244 48.1359 22.69C48.1359 26.2557 45.2185 29.173 41.6529 29.173Z" fill="#B8292D"/>
<path d="M62.7222 59.9667H56.2392C53.4839 59.9667 51.377 57.8597 51.377 55.1044C51.377 52.3492 53.4839 50.2422 56.2392 50.2422H62.7222C65.4774 50.2422 67.5844 52.3492 67.5844 55.1044C67.5844 57.8597 65.4774 59.9667 62.7222 59.9667ZM56.2392 53.4837C55.2667 53.4837 54.6184 54.132 54.6184 55.1044C54.6184 56.0769 55.2667 56.7252 56.2392 56.7252H62.7222C63.6946 56.7252 64.3429 56.0769 64.3429 55.1044C64.3429 54.132 63.6946 53.4837 62.7222 53.4837H56.2392Z" fill="#444444"/>
<path d="M62.7222 66.451H56.2392C53.4839 66.451 51.377 64.3441 51.377 61.5888C51.377 58.8335 53.4839 56.7266 56.2392 56.7266H62.7222C65.4774 56.7266 67.5844 58.8335 67.5844 61.5888C67.5844 64.3441 65.4774 66.451 62.7222 66.451ZM56.2392 59.9681C55.2667 59.9681 54.6184 60.6163 54.6184 61.5888C54.6184 62.5612 55.2667 63.2095 56.2392 63.2095H62.7222C63.6946 63.2095 64.3429 62.5612 64.3429 61.5888C64.3429 60.6163 63.6946 59.9681 62.7222 59.9681H56.2392Z" fill="#444444"/>
<path d="M59.481 22.6906C55.9154 22.6906 52.998 19.7732 52.998 16.2076C52.998 12.642 55.9154 9.72461 59.481 9.72461C63.0467 9.72461 65.964 12.642 65.964 16.2076C65.964 19.7732 63.0467 22.6906 59.481 22.6906Z" fill="#B8292D"/>
<path d="M36.9532 66.4501H34.8463L31.6048 64.8294H1.13477V61.5879H32.2531L35.4946 63.2086H36.9532V66.4501Z" fill="#444444"/>
<path d="M51.3772 98.8646C51.0531 98.8646 50.7289 98.8646 50.5668 98.8646C39.5458 98.3784 30.6317 89.1402 30.3075 78.1191C30.1455 72.4465 32.2524 67.098 36.3043 63.0461C39.7078 59.4805 41.6527 54.9424 41.6527 50.5664H44.8942C44.8942 55.9149 42.6252 61.2633 38.5733 65.3152C35.1698 68.7188 33.3869 73.2568 33.549 78.1191C33.7111 87.3573 41.3286 95.299 50.5668 95.6231C55.5912 95.7852 60.1292 94.0024 63.6949 90.5988C67.2605 87.1953 69.2054 82.6572 69.2054 77.7949C69.2054 73.0948 67.2605 68.5567 64.019 65.1531L66.2881 62.8841C70.3399 66.9359 72.4469 72.1223 72.4469 77.7949C72.4469 83.6296 70.1779 88.9781 65.9639 93.0299C62.0741 96.7577 56.8878 98.8646 51.3772 98.8646Z" fill="#444444"/>
<path d="M60.9391 39.708L58.0218 38.0872L63.2082 29.1731H38.0866L41.9764 35.494L39.2212 37.1148L32.252 25.9316H68.7187L60.9391 39.708Z" fill="#444444"/>
<path d="M40.0325 6.48242H36.791V14.5862H40.0325V6.48242Z" fill="#444444"/>
<path d="M46.5149 4.86133H43.2734V14.5858H46.5149V4.86133Z" fill="#444444"/>
<path d="M57.8606 1.62109H54.6191V8.10408H57.8606V1.62109Z" fill="#444444"/>
<path d="M64.3431 0H61.1016V8.10373H64.3431V0Z" fill="#444444"/>
<path d="M2.26904 95.137L0 92.8679L23.825 69.043L33.0632 78.2812L30.7942 80.5503L23.825 73.5811L2.26904 95.137Z" fill="#444444"/>
<path d="M65.478 48.1353L63.209 45.8663L75.5266 33.5486L83.4683 39.8695L95.4618 23.3379L98.055 25.2828L84.1166 44.4076L75.8508 37.7625L65.478 48.1353Z" fill="#444444"/>
<path d="M96.7584 31.1193L95.4618 25.9329H90.2754V22.6914H98.055L99.9999 30.471L96.7584 31.1193Z" fill="#444444"/>
</g>
<defs>
<clipPath id="clip0_885_279">
<rect width="100" height="98.8655" fill="white"/>
</clipPath>
</defs>
</svg>
