<svg width="60" height="125" viewBox="0 0 60 125" fill="none" xmlns="http://www.w3.org/2000/svg">
<g clip-path="url(#clip0_885_244)">
<path d="M59.056 116.5L57.5906 94.5191C57.4441 92.9071 57.4441 90.709 57.4441 88.5109C57.4441 86.3127 57.4441 83.9681 57.5906 82.2096L58.9095 63.4522V63.0126C58.9095 60.961 58.1768 59.2025 56.8579 57.8837C56.7114 57.7371 56.5648 57.5906 56.4183 57.444C56.8579 56.4183 57.151 55.2459 57.151 54.0736V48.7981C57.151 45.2811 54.8063 42.2037 51.5824 41.3245C51.5824 40.5918 51.5824 39.8591 51.5824 39.1263C51.5824 36.3421 50.7032 33.9974 49.2378 32.0923C47.1862 29.3081 44.2553 27.403 41.9107 26.0841C39.566 24.9118 37.661 24.3256 37.5144 24.3256C37.3679 24.3256 37.0748 24.1791 36.9283 23.886C36.7817 23.5929 36.6352 23.2998 36.6352 23.1533V19.0501C36.6352 17.7313 36.3421 16.1193 35.7559 14.8004C35.7559 14.6539 35.4628 13.6281 34.5836 12.7488C33.8509 11.7231 32.2389 10.6973 29.8943 10.6973C27.6961 10.6973 25.9376 11.7231 25.0584 12.6023C24.1791 13.6281 23.8861 14.5073 23.7395 14.6539C23.1533 15.9728 22.8603 17.5847 22.8603 18.9036V23.0068C22.8603 23.1533 22.7137 23.4464 22.5672 23.7395C22.4206 24.0326 22.1276 24.1791 21.981 24.1791C21.8345 24.1791 18.6106 25.2049 15.0936 27.403C13.3351 28.5753 11.5766 30.0408 10.2577 31.9458C8.93881 33.8508 7.91302 36.1955 7.91302 38.9798C7.91302 39.859 7.91302 40.5918 7.91302 41.471C5.12873 42.6433 3.07714 45.4276 3.07714 48.7981V54.0736C3.07714 55.0994 3.37023 56.1252 3.66331 57.151C3.37023 57.444 3.07715 57.5906 2.78406 57.8837C1.46519 59.2025 0.585937 61.1076 0.732479 63.0126V63.4522L2.05135 82.2096C2.1979 83.9681 2.1979 86.1662 2.1979 88.5109C2.1979 90.709 2.1979 92.9071 2.05135 94.5191L0.585938 116.5V116.94C0.585938 118.992 1.31865 120.75 2.78406 122.069C4.10294 123.388 6.00798 124.267 8.05956 124.267H51.729C53.7805 124.267 55.6856 123.388 57.0045 122.069C58.3233 120.75 59.2026 118.845 59.2026 116.94L59.056 116.5ZM56.1252 116.94C56.1252 119.431 54.2202 121.336 51.729 121.336H8.05956C5.56835 121.336 3.66331 119.431 3.66331 116.94V116.647L5.12873 94.6656C5.27527 92.9071 5.27527 90.709 5.27527 88.5109C5.27527 86.1662 5.27527 83.8215 5.12873 82.063L3.66331 63.3057V63.0126C3.66331 60.5214 5.56835 58.6164 8.05956 58.6164H51.729C54.2202 58.6164 56.1252 60.5214 56.1252 63.0126V63.3057L54.8063 82.063C54.6598 83.8215 54.6598 86.1662 54.6598 88.5109C54.6598 90.709 54.6598 92.9071 54.8063 94.6656L56.2718 116.647L56.1252 116.94ZM6.15452 54.0736V48.7981C6.15452 47.4792 6.74068 46.1603 7.61994 45.2811C8.49918 44.4018 9.81806 43.8157 11.1369 43.8157H49.3843C50.7032 43.8157 52.022 44.4018 52.9013 45.2811C53.7805 46.1603 54.3667 47.4792 54.3667 48.7981V54.0736C54.3667 54.8063 54.2202 55.539 53.9271 56.1252C53.1944 55.9786 52.4617 55.6855 51.729 55.6855H8.05956C7.47339 55.6855 7.03377 55.6855 6.4476 55.8321C6.15452 55.3925 6.15452 54.8063 6.15452 54.0736ZM37.0748 27.1099C37.661 27.2565 40.7383 28.2823 43.6692 30.3338C45.1346 31.3596 46.4535 32.532 47.3327 33.9974C48.3585 35.4628 48.9447 37.0748 48.9447 38.9798C48.9447 39.566 48.9447 40.1521 48.9447 40.8848H11.1369C10.9904 40.8848 10.9904 40.8848 10.8439 40.8848C10.8439 40.2987 10.8439 39.7125 10.8439 38.9798C10.8439 36.9282 11.5766 35.1697 12.6024 33.7043C14.2143 31.5062 16.7055 29.7477 18.9036 28.5753C19.9294 27.9892 20.9552 27.6961 21.6879 27.403C21.981 27.2565 22.2741 27.1099 22.5672 27.1099H22.7137C23.593 26.8168 24.3257 26.2307 24.7653 25.6445C25.2049 24.9118 25.6446 24.1791 25.6446 23.1533V19.0501C25.6446 18.3174 25.9376 16.5589 26.3773 15.8262C26.3773 15.8262 26.6703 15.2401 27.11 14.8004C27.6961 14.3608 28.2823 13.9212 29.7477 13.7746C31.3597 13.7746 32.0924 14.3608 32.532 14.8004C32.8251 15.0935 32.9716 15.2401 32.9716 15.5331L33.1182 15.6797V15.8262V15.9728C33.4113 16.7055 33.8509 18.464 33.8509 19.1967V23.2998C33.8509 24.1791 34.144 25.0583 34.7301 25.7911C35.3163 26.2307 36.049 26.8168 37.0748 27.1099L37.3679 25.6445L37.0748 27.1099Z" fill="#444444"/>
<path d="M37.0748 27.1099C37.661 27.2565 40.7383 28.2823 43.6692 30.3338C45.1346 31.3596 46.4535 32.532 47.3327 33.9974C48.3585 35.4628 48.9447 37.0748 48.9447 38.9798C48.9447 39.566 48.9447 40.1521 48.9447 40.8848H11.1369C10.9904 40.8848 10.9904 40.8848 10.8439 40.8848C10.8439 40.2987 10.8439 39.7125 10.8439 38.9798C10.8439 36.9282 11.5766 35.1697 12.6024 33.7043C14.2143 31.5062 16.7055 29.7477 18.9036 28.5753C19.9294 27.9892 20.9552 27.6961 21.6879 27.403C21.981 27.2565 22.2741 27.1099 22.5672 27.1099H22.7137C23.593 26.8168 24.3257 26.2307 24.7653 25.6445C25.2049 24.9118 25.6446 24.1791 25.6446 23.1533V19.0501C25.6446 18.3174 25.9376 16.5589 26.3773 15.8262C26.3773 15.8262 26.6703 15.2401 27.11 14.8004C27.6961 14.3608 28.2823 13.9212 29.7477 13.7746C31.3597 13.7746 32.0924 14.3608 32.532 14.8004C32.8251 15.0935 32.9716 15.2401 32.9716 15.5331L33.1182 15.6797V15.8262V15.9728C33.4113 16.7055 33.8509 18.464 33.8509 19.1967V23.2998C33.8509 24.1791 34.144 25.0583 34.7301 25.7911C35.3163 26.2307 36.049 26.8168 37.0748 27.1099ZM37.0748 27.1099L37.3679 25.6445L37.0748 27.1099ZM59.056 116.5L57.5906 94.5191C57.4441 92.9071 57.4441 90.709 57.4441 88.5109C57.4441 86.3127 57.4441 83.9681 57.5906 82.2096L58.9095 63.4522V63.0126C58.9095 60.961 58.1768 59.2025 56.8579 57.8837C56.7114 57.7371 56.5648 57.5906 56.4183 57.444C56.8579 56.4183 57.151 55.2459 57.151 54.0736V48.7981C57.151 45.2811 54.8063 42.2037 51.5824 41.3245C51.5824 40.5918 51.5824 39.8591 51.5824 39.1263C51.5824 36.3421 50.7032 33.9974 49.2378 32.0923C47.1862 29.3081 44.2553 27.403 41.9107 26.0841C39.566 24.9118 37.661 24.3256 37.5144 24.3256C37.3679 24.3256 37.0748 24.1791 36.9283 23.886C36.7817 23.5929 36.6352 23.2998 36.6352 23.1533V19.0501C36.6352 17.7313 36.3421 16.1193 35.7559 14.8004C35.7559 14.6539 35.4628 13.6281 34.5836 12.7488C33.8509 11.7231 32.2389 10.6973 29.8943 10.6973C27.6961 10.6973 25.9376 11.7231 25.0584 12.6023C24.1791 13.6281 23.8861 14.5073 23.7395 14.6539C23.1533 15.9728 22.8603 17.5847 22.8603 18.9036V23.0068C22.8603 23.1533 22.7137 23.4464 22.5672 23.7395C22.4206 24.0326 22.1276 24.1791 21.981 24.1791C21.8345 24.1791 18.6106 25.2049 15.0936 27.403C13.3351 28.5753 11.5766 30.0408 10.2577 31.9458C8.93881 33.8508 7.91302 36.1955 7.91302 38.9798C7.91302 39.859 7.91302 40.5918 7.91302 41.471C5.12873 42.6433 3.07714 45.4276 3.07714 48.7981V54.0736C3.07714 55.0994 3.37023 56.1252 3.66331 57.151C3.37023 57.444 3.07715 57.5906 2.78406 57.8837C1.46519 59.2025 0.585937 61.1076 0.732479 63.0126V63.4522L2.05135 82.2096C2.1979 83.9681 2.1979 86.1662 2.1979 88.5109C2.1979 90.709 2.1979 92.9071 2.05135 94.5191L0.585938 116.5V116.94C0.585938 118.992 1.31865 120.75 2.78406 122.069C4.10294 123.388 6.00798 124.267 8.05956 124.267H51.729C53.7805 124.267 55.6856 123.388 57.0045 122.069C58.3233 120.75 59.2026 118.845 59.2026 116.94L59.056 116.5ZM56.1252 116.94C56.1252 119.431 54.2202 121.336 51.729 121.336H8.05956C5.56835 121.336 3.66331 119.431 3.66331 116.94V116.647L5.12873 94.6656C5.27527 92.9071 5.27527 90.709 5.27527 88.5109C5.27527 86.1662 5.27527 83.8215 5.12873 82.063L3.66331 63.3057V63.0126C3.66331 60.5214 5.56835 58.6164 8.05956 58.6164H51.729C54.2202 58.6164 56.1252 60.5214 56.1252 63.0126V63.3057L54.8063 82.063C54.6598 83.8215 54.6598 86.1662 54.6598 88.5109C54.6598 90.709 54.6598 92.9071 54.8063 94.6656L56.2718 116.647L56.1252 116.94ZM6.15452 54.0736V48.7981C6.15452 47.4792 6.74069 46.1603 7.61993 45.2811C8.49918 44.4018 9.81806 43.8157 11.1369 43.8157H49.3843C50.7032 43.8157 52.022 44.4018 52.9013 45.2811C53.7805 46.1603 54.3667 47.4792 54.3667 48.7981V54.0736C54.3667 54.8063 54.2202 55.539 53.9271 56.1252C53.1944 55.9786 52.4617 55.6855 51.729 55.6855H8.05956C7.47339 55.6855 7.03377 55.6855 6.4476 55.8321C6.15452 55.3925 6.15452 54.8063 6.15452 54.0736Z" stroke="#444444" stroke-miterlimit="10"/>
<path d="M42.7908 85.1408C42.0581 85.1408 41.3254 84.5546 41.3254 83.6754C41.3254 82.9427 41.9115 82.21 42.7908 82.21H50.1179C50.1179 82.0634 50.1179 81.9169 50.1179 81.7703L50.2644 79.7188H9.67239L9.81893 81.7703C9.96547 85.4339 9.96547 91.2955 9.81893 94.8125L8.35352 116.647H51.2902L50.9971 112.544H42.4977C41.765 112.544 41.0323 111.958 41.0323 111.079C41.0323 110.346 41.6185 109.613 42.4977 109.613H50.704L49.9713 98.9157H42.3512C41.6185 98.9157 40.8858 98.3295 40.8858 97.4503C40.8858 96.7176 41.4719 95.9849 42.3512 95.9849H49.6783V94.9591C49.8248 92.3213 49.8248 88.5112 49.9713 85.1408H42.7908Z" fill="#B8292D"/>
<path d="M41.3242 83.6744C41.3242 84.4071 41.9104 85.1398 42.7896 85.1398H49.9702H52.0218C52.7545 85.1398 53.4872 84.5537 53.4872 83.6744C53.4872 82.9417 52.901 82.209 52.0218 82.209H49.9702H42.6431C41.9104 82.209 41.3242 82.9417 41.3242 83.6744Z" fill="#444444" stroke="#444444" stroke-width="0.5" stroke-miterlimit="10"/>
<path d="M41.3242 97.4498C41.3242 98.1825 41.9104 98.9152 42.7896 98.9152H50.4098H52.1683C52.901 98.9152 53.6337 98.329 53.6337 97.4498C53.6337 96.7171 53.0475 95.9844 52.1683 95.9844H50.2633H42.9362C41.9104 95.9844 41.3242 96.5705 41.3242 97.4498Z" fill="#444444" stroke="#444444" stroke-width="0.5" stroke-miterlimit="10"/>
<path d="M41.3242 111.079C41.3242 111.811 41.9104 112.544 42.7896 112.544H51.289H52.1683C52.901 112.544 53.6337 111.958 53.6337 111.079C53.6337 110.346 53.0475 109.613 52.1683 109.613H51.1425H42.9362C41.9104 109.613 41.3242 110.199 41.3242 111.079Z" fill="#444444" stroke="#444444" stroke-width="0.5" stroke-miterlimit="10"/>
<path d="M12.0162 54.8067C12.7489 54.8067 13.4816 54.2206 13.4816 53.3413V46.0142C13.4816 45.2815 12.8954 44.5488 12.0162 44.5488C11.2835 44.5488 10.5508 45.135 10.5508 46.0142V53.3413C10.5508 54.074 11.1369 54.8067 12.0162 54.8067Z" fill="#444444" stroke="#444444" stroke-miterlimit="10"/>
<path d="M20.9557 54.8067C21.6884 54.8067 22.4211 54.2206 22.4211 53.3413V46.0142C22.4211 45.2815 21.8349 44.5488 20.9557 44.5488C20.2229 44.5488 19.4902 45.135 19.4902 46.0142V53.3413C19.4902 54.074 20.2229 54.8067 20.9557 54.8067Z" fill="#444444" stroke="#444444" stroke-miterlimit="10"/>
<path d="M30.0416 54.8067C30.7743 54.8067 31.507 54.2206 31.507 53.3413V46.0142C31.507 45.2815 30.9208 44.5488 30.0416 44.5488C29.3089 44.5488 28.5762 45.135 28.5762 46.0142V53.3413C28.5762 54.074 29.1623 54.8067 30.0416 54.8067Z" fill="#444444" stroke="#444444" stroke-miterlimit="10"/>
<path d="M38.981 54.8067C39.7137 54.8067 40.4464 54.2206 40.4464 53.3413V46.0142C40.4464 45.2815 39.8603 44.5488 38.981 44.5488C38.2483 44.5488 37.5156 45.135 37.5156 46.0142V53.3413C37.5156 54.074 38.2483 54.8067 38.981 54.8067Z" fill="#444444" stroke="#444444" stroke-miterlimit="10"/>
<path d="M48.065 54.8067C48.7977 54.8067 49.5305 54.2206 49.5305 53.3413V46.0142C49.5305 45.2815 48.9443 44.5488 48.065 44.5488C47.1858 44.5488 46.5996 45.135 46.5996 46.0142V53.3413C46.5996 54.074 47.1858 54.8067 48.065 54.8067Z" fill="#444444" stroke="#444444" stroke-miterlimit="10"/>
<path d="M4.83651 37.8074C5.56922 37.8074 6.30193 37.2213 6.30193 36.342V23.5929C6.30193 17.5847 8.93967 12.6023 13.0428 9.08529C17.2925 5.56829 23.1542 3.51671 29.8951 3.51671C36.4895 3.51671 42.4977 5.56829 46.7474 9.08529C50.9971 12.6023 53.4883 17.5847 53.4883 23.5929V36.7817C53.4883 37.5144 54.0745 38.2471 54.9537 38.2471C55.6865 38.2471 56.4192 37.6609 56.4192 36.7817V23.5929C56.4192 16.7055 53.3418 10.8438 48.5059 6.88717C43.67 2.93055 37.0757 0.732422 29.8951 0.732422C22.7146 0.732422 16.1202 2.93055 11.2843 6.88717C6.44847 10.8438 3.37109 16.7055 3.37109 23.5929V36.342C3.37109 37.2213 4.1038 37.8074 4.83651 37.8074Z" fill="#444444" stroke="#444444" stroke-miterlimit="10"/>
</g>
<defs>
<clipPath id="clip0_885_244">
<rect width="59.789" height="125" fill="white"/>
</clipPath>
</defs>
</svg>
