<svg width="100" height="87" viewBox="0 0 100 87" fill="none" xmlns="http://www.w3.org/2000/svg">
<g clip-path="url(#clip0_885_129)">
<path d="M66.7426 86.3326H2.2779C0.911162 86.3326 0 85.4214 0 84.0547V2.2779C0 0.911162 0.911162 0 2.2779 0H66.7426C68.1093 0 69.0205 0.911162 69.0205 2.2779V84.0547C69.0205 85.4214 67.8815 86.3326 66.7426 86.3326ZM4.55581 81.7768H64.4647V4.55581H4.55581V81.7768Z" fill="#444444"/>
<path d="M39.6352 12.757H29.1568C27.7901 12.757 26.8789 11.8458 26.8789 10.4791C26.8789 9.11233 27.7901 8.20117 29.1568 8.20117H39.6352C41.0019 8.20117 41.9131 9.11233 41.9131 10.4791C41.9131 11.8458 41.0019 12.757 39.6352 12.757Z" fill="#444444"/>
<path d="M16.4008 33.2564C15.7174 33.2564 15.2618 33.0286 14.8063 32.5731L12.3006 30.0674C11.3894 29.1562 11.3894 27.7895 12.3006 26.8783C13.2117 25.9671 14.5785 25.9671 15.4896 26.8783L16.4008 27.7895L20.501 23.6892C21.4122 22.7781 22.7789 22.7781 23.6901 23.6892C24.6012 24.6004 24.6012 25.9671 23.6901 26.8783L17.9953 32.5731C17.5397 33.0286 16.8564 33.2564 16.4008 33.2564Z" fill="#B8292D"/>
<path d="M16.4008 46.9244C15.7174 46.9244 15.2618 46.6966 14.8063 46.241L12.3006 43.7353C11.3894 42.8242 11.3894 41.4574 12.3006 40.5463C13.2117 39.6351 14.5785 39.6351 15.4896 40.5463L16.4008 41.4574L20.501 37.3572C21.4122 36.446 22.7789 36.446 23.6901 37.3572C24.6012 38.2684 24.6012 39.6351 23.6901 40.5463L17.9953 46.241C17.5397 46.6966 16.8564 46.9244 16.4008 46.9244Z" fill="#B8292D"/>
<path d="M16.4008 60.5924C15.7174 60.5924 15.2618 60.3646 14.8063 59.909L12.3006 57.4033C11.3894 56.4921 11.3894 55.1254 12.3006 54.2142C13.2117 53.3031 14.5785 53.3031 15.4896 54.2142L16.4008 55.1254L20.501 51.0252C21.4122 50.114 22.7789 50.114 23.6901 51.0252C24.6012 51.9363 24.6012 53.3031 23.6901 54.2142L17.9953 59.909C17.5397 60.3646 16.8564 60.5924 16.4008 60.5924Z" fill="#B8292D"/>
<path d="M48.2914 33.257H31.6627C30.2959 33.257 29.3848 32.3458 29.3848 30.9791C29.3848 29.6123 30.2959 28.7012 31.6627 28.7012H48.2914C49.6581 28.7012 50.5693 29.6123 50.5693 30.9791C50.5693 32.3458 49.4303 33.257 48.2914 33.257Z" fill="#444444"/>
<path d="M48.2914 46.9249H31.6627C30.2959 46.9249 29.3848 46.0138 29.3848 44.647C29.3848 43.2803 30.2959 42.3691 31.6627 42.3691H48.2914C49.6581 42.3691 50.5693 43.2803 50.5693 44.647C50.5693 45.786 49.4303 46.9249 48.2914 46.9249Z" fill="#444444"/>
<path d="M48.2914 60.5929H31.6627C30.2959 60.5929 29.3848 59.6818 29.3848 58.315C29.3848 56.9483 30.2959 56.0371 31.6627 56.0371H48.2914C49.6581 56.0371 50.5693 56.9483 50.5693 58.315C50.5693 59.6818 49.4303 60.5929 48.2914 60.5929Z" fill="#444444"/>
<path d="M91.1159 38.2688H79.4986C78.1319 38.2688 77.2207 37.3576 77.2207 35.9909V7.97266C77.2207 3.41686 80.8654 0 85.1934 0C89.7492 0 93.166 3.64465 93.166 7.97266V35.7631C93.3938 37.1298 92.2549 38.2688 91.1159 38.2688ZM81.7765 33.713H88.838V7.97266C88.838 6.15034 87.2435 4.55581 85.1934 4.55581C83.1433 4.55581 81.7765 6.15034 81.7765 7.97266V33.713Z" fill="#444444"/>
<path d="M85.1926 83.599C84.2814 83.599 83.3703 83.1434 83.1425 82.2322L79.0422 72.2095C79.0422 71.9817 78.8145 71.7539 78.8145 71.2983V35.9908C78.8145 34.6241 79.7256 33.7129 81.0924 33.7129H89.065C90.4318 33.7129 91.3429 34.6241 91.3429 35.9908V71.2983C91.3429 71.5261 91.3429 71.9817 91.1151 72.2095L87.0149 82.2322C87.0149 83.1434 86.1038 83.599 85.1926 83.599ZM83.3703 70.8427L85.1926 75.1707L87.0149 70.8427V38.2687H83.5981V70.8427H83.3703Z" fill="#444444"/>
<path d="M97.721 13.8957H90.8873C89.5205 13.8957 88.6094 12.9845 88.6094 11.6177C88.6094 10.251 89.5205 9.33984 90.8873 9.33984H97.721C99.0877 9.33984 99.9989 10.251 99.9989 11.6177C99.9989 12.9845 99.0877 13.8957 97.721 13.8957Z" fill="#444444"/>
<path d="M97.7213 27.5631C96.3545 27.5631 95.4434 26.6519 95.4434 25.2852V11.6177C95.4434 10.251 96.3545 9.33984 97.7213 9.33984C99.088 9.33984 99.9992 10.251 99.9992 11.6177V25.0574C99.9992 26.4241 99.088 27.5631 97.7213 27.5631Z" fill="#444444"/>
</g>
<defs>
<clipPath id="clip0_885_129">
<rect width="100" height="86.3326" fill="white"/>
</clipPath>
</defs>
</svg>
