<svg width="150" height="139" viewBox="0 0 150 139" fill="none" xmlns="http://www.w3.org/2000/svg">
<g clip-path="url(#clip0_1331_609)">
<path d="M133.214 55.0225C128.213 42.7761 114.462 33.4576 101.919 30.0937L110.259 8.20819C111.517 5.51875 110.111 3.27344 107.142 3.27344H66.7507C63.7734 3.27344 62.3671 5.47763 63.6254 8.20819L71.9569 30.0937C59.4309 33.4576 45.6383 42.7761 40.7035 55.0225C30.4721 80.1321 52.9006 102.626 76.8917 104.37C80.1075 104.608 83.5125 104.724 86.9915 104.691C90.4705 104.658 93.8754 104.608 97.0994 104.37C121.017 102.602 143.437 80.1074 133.214 55.0225Z" fill="white"/>
<path d="M88.1757 107.98H85.7084C82.6899 107.98 79.6222 107.865 76.5956 107.643C61.964 106.566 47.7272 98.1684 40.3251 86.2593C37.2822 81.4658 35.4472 76.006 34.9774 70.3478C34.5075 64.6896 35.4169 59.0018 37.6275 53.7721C42.7678 41.1556 55.8367 32.0593 67.639 27.9717L60.5904 9.47464C60.0408 8.4581 59.7757 7.31196 59.8228 6.1573C59.8699 5.00264 60.2277 3.88219 60.8584 2.91385C61.4891 1.9455 62.3693 1.16525 63.4063 0.655298C64.4433 0.14535 65.5987 -0.0753659 66.7506 0.0163669H107.142C108.292 -0.0716582 109.444 0.151009 110.478 0.661322C111.513 1.17164 112.391 1.95069 113.02 2.91686C113.65 3.88303 114.009 5.00082 114.058 6.15308C114.108 7.30534 113.847 8.44978 113.302 9.46641L106.245 27.9717C118.039 32.084 131.116 41.131 136.257 53.7721C138.469 59.0014 139.38 64.6894 138.91 70.348C138.44 76.0066 136.604 81.4666 133.559 86.2593C126.157 98.1849 111.92 106.582 97.2885 107.643C94.2619 107.865 91.1942 107.98 88.1757 107.98ZM86.9091 101.401H88.1757C91.0379 101.401 93.9329 101.294 96.8116 101.08C109.412 100.159 121.633 92.9705 127.966 82.772C130.481 78.8692 131.997 74.4073 132.38 69.7802C132.763 65.153 132.001 60.5027 130.162 56.2395C125.384 44.5195 111.731 36.1057 101.072 33.2107C100.627 33.0913 100.213 32.8799 99.8547 32.5902C99.4969 32.3005 99.2038 31.9389 98.9945 31.5288C98.7852 31.1187 98.6643 30.6693 98.6396 30.2096C98.6149 29.7498 98.687 29.29 98.8512 28.8598L107.191 6.98257C107.191 6.90855 107.249 6.83451 107.281 6.76049C107.313 6.69373 107.341 6.62505 107.364 6.55487H66.5204C66.5469 6.62231 66.5771 6.6882 66.6109 6.75225C66.646 6.82699 66.6762 6.90393 66.7014 6.98257L75.0329 28.8681C75.1957 29.2977 75.2667 29.7568 75.2414 30.2156C75.216 30.6744 75.0949 31.1227 74.8857 31.5318C74.6765 31.9409 74.3839 32.3017 74.0268 32.5908C73.6697 32.88 73.2558 33.0912 72.8122 33.2107C62.1202 36.0728 48.5003 44.4948 43.7218 56.2395C41.8869 60.5037 41.1276 65.1534 41.5105 69.7798C41.8935 74.4061 43.4069 78.8675 45.9178 82.772C52.2507 92.9705 64.4807 100.159 77.0808 101.08C80.3432 101.321 83.6193 101.425 86.9091 101.392V101.401Z" fill="#444444"/>
<path d="M109.28 30.5629C109.28 31.1853 109.033 31.7824 108.594 32.2233C108.155 32.6642 107.559 32.913 106.936 32.9152H66.9563C66.3331 32.9131 65.7361 32.6643 65.2954 32.2237C64.8547 31.783 64.6062 31.1861 64.6041 30.5629V24.9537C64.6062 24.3305 64.8547 23.7336 65.2954 23.2929C65.7361 22.8522 66.3331 22.6037 66.9563 22.6016H106.936C107.559 22.6037 108.155 22.8524 108.594 23.2933C109.033 23.7342 109.28 24.3313 109.28 24.9537V30.5629Z" fill="#B8292D"/>
<path d="M106.936 36.2058H66.9563C65.4606 36.2037 64.0268 35.6085 62.9692 34.5509C61.9116 33.4932 61.3164 32.0594 61.3143 30.5637V24.9545C61.3164 23.4588 61.9116 22.0251 62.9692 20.9675C64.0268 19.9098 65.4606 19.3147 66.9563 19.3125H106.936C108.431 19.3147 109.864 19.91 110.92 20.9679C111.977 22.0257 112.57 23.4595 112.57 24.9545V30.5637C112.57 32.0586 111.977 33.4924 110.92 34.5503C109.864 35.6081 108.431 36.2036 106.936 36.2058ZM67.8939 29.6262H105.99V25.8922H67.8939V29.6262Z" fill="#444444"/>
<path d="M143.692 71.4713C141.807 69.6662 139.283 68.6814 136.674 68.7323C134.064 68.7831 131.581 69.8656 129.767 71.7428L103.77 95.1911C102.63 96.0781 101.292 96.6741 99.8702 96.9278C98.4487 97.1814 96.9868 97.085 95.6108 96.6469C88.8749 94.1137 82.254 91.235 75.5921 88.5291C74.597 88.1261 73.5936 87.7067 72.5902 87.3448L95.874 82.6813C98.5342 82.0467 100.845 80.4065 102.322 78.1046C103.799 75.8027 104.327 73.0182 103.794 70.3356C103.262 67.653 101.712 65.2808 99.4684 63.7168C97.2249 62.1528 94.4627 61.5185 91.7617 61.9472L41.7644 71.9649C39.9961 72.3185 29.5674 76.291 26.7217 79.5232C21.7047 85.2311 19.5992 92.8636 19.5992 100.356C19.5992 118.664 26.9191 123.13 37.5371 125.03C37.5999 125.023 37.6634 125.023 37.7262 125.03L97.4449 135.541C98.9315 135.529 100.4 135.218 101.764 134.626C103.128 134.034 104.358 133.173 105.382 132.095L144.037 85.3955C145.833 83.5007 146.805 80.9717 146.74 78.362C146.675 75.7524 145.579 73.2748 143.692 71.4713Z" fill="white"/>
<path d="M97.7245 138.847H97.2393C97.1042 138.842 96.9696 138.828 96.8363 138.806L37.1094 128.295H37.0024H36.9284C26.2365 126.403 16.2682 121.715 16.2682 100.405C16.2682 91.3991 19.0892 83.2321 24.2132 77.3762C27.8567 73.2639 39.2395 69.1517 41.0736 68.7651L91.0708 58.7476C92.8563 58.3892 94.6948 58.3862 96.4814 58.7388C98.268 59.0913 99.9676 59.7924 101.483 60.8022C102.998 61.8119 104.3 63.1106 105.313 64.6237C106.327 66.1368 107.032 67.8347 107.388 69.6205C107.746 71.4053 107.748 73.2431 107.395 75.0287C107.042 76.8144 106.34 78.513 105.33 80.0275C104.321 81.542 103.023 82.8427 101.51 83.8555C99.9976 84.8682 98.3004 85.5732 96.5155 85.9299L83.9648 88.4465C88.1593 90.1901 92.4854 91.9831 96.7704 93.5951C97.2254 93.7513 97.7042 93.8264 98.1851 93.8172C99.4161 93.8386 100.62 93.4575 101.615 92.7317L127.481 69.3984C129.951 67.1485 133.185 65.9224 136.525 65.9688C139.866 66.0152 143.064 67.3307 145.471 69.6484C147.877 71.966 149.312 75.1124 149.484 78.4491C149.656 81.7858 148.553 85.0628 146.398 87.6158L107.857 134.225C106.56 135.629 104.995 136.761 103.256 137.555C101.516 138.348 99.6357 138.788 97.7245 138.847ZM38.3923 121.822L97.7327 132.267C99.6542 132.145 101.466 131.329 102.832 129.972L141.43 83.3061C141.48 83.242 141.535 83.1815 141.594 83.1252C142.665 81.8478 143.212 80.2116 143.123 78.5471C143.034 76.8825 142.316 75.3139 141.115 74.1579C139.914 73.0019 138.32 72.3449 136.653 72.3194C134.986 72.2939 133.372 72.902 132.136 74.0207L131.972 74.1852L105.974 97.6335C103.78 99.4327 101.022 100.402 98.1851 100.372C96.9122 100.382 95.6477 100.165 94.4511 99.7308C89.9112 98.0118 85.4041 96.1283 80.971 94.3025L74.3914 91.5719C73.4209 91.1771 72.4339 90.7988 71.4388 90.4123C70.7756 90.1546 70.2139 89.6889 69.8377 89.085C69.4616 88.4811 69.2914 87.7718 69.3525 87.063C69.4137 86.3542 69.7029 85.6843 70.1769 85.1538C70.6509 84.6233 71.2842 84.2606 71.9816 84.1203L95.2654 79.4571C97.031 79.0957 98.6001 78.0929 99.6696 76.6423C100.739 75.1917 101.233 73.3963 101.056 71.6027C100.879 69.8092 100.044 68.1449 98.7118 66.9312C97.3795 65.7175 95.6447 65.0405 93.8425 65.0311C93.359 65.0315 92.8767 65.0812 92.4032 65.1793L42.4142 75.1885C40.7117 75.5587 31.2864 79.3008 29.1973 81.6941C25.1261 86.3246 22.889 92.9537 22.889 100.356C22.889 117.627 29.7401 120.276 38.0305 121.74C38.1526 121.76 38.2734 121.788 38.3923 121.822Z" fill="#444444"/>
<path d="M30.5708 61.8672H9.82018C6.21358 61.8672 3.28986 64.7909 3.28986 68.3975V128.297C3.28986 131.904 6.21358 134.827 9.82018 134.827H30.5708C34.1774 134.827 37.1011 131.904 37.1011 128.297V68.3975C37.1011 64.7909 34.1774 61.8672 30.5708 61.8672Z" fill="#B8292D"/>
<path d="M30.5625 138.09H9.82011C7.21964 138.077 4.72938 137.038 2.89055 135.2C1.05172 133.361 0.0129702 130.871 0 128.27V68.3705C0.0021801 65.7674 1.03771 63.2718 2.87911 61.432C4.72051 59.5921 7.21706 58.5586 9.82011 58.5586H30.5625C33.163 58.5716 35.6533 59.6102 37.4921 61.449C39.331 63.2879 40.3697 65.7782 40.3827 68.3787V128.27C40.3697 130.871 39.331 133.361 37.4921 135.2C35.6533 137.038 33.163 138.077 30.5625 138.09ZM9.82011 65.1383C9.39495 65.1372 8.9738 65.2199 8.5807 65.3818C8.18759 65.5438 7.83025 65.7817 7.52923 66.082C7.22822 66.3823 6.9894 66.7389 6.82645 67.1316C6.6635 67.5243 6.57967 67.9453 6.57967 68.3705V128.27C6.57858 128.696 6.66167 129.118 6.82414 129.512C6.9866 129.905 7.2252 130.263 7.52632 130.564C7.82744 130.865 8.18515 131.104 8.57879 131.266C8.97243 131.429 9.39426 131.512 9.82011 131.511H30.5625C30.988 131.511 31.4094 131.427 31.8026 131.264C32.1958 131.101 32.553 130.862 32.8539 130.561C33.1548 130.261 33.3935 129.903 33.5564 129.51C33.7192 129.117 33.803 128.696 33.803 128.27V68.3787C33.803 67.5193 33.4616 66.6951 32.8539 66.0874C32.2462 65.4797 31.4219 65.1383 30.5625 65.1383H9.82011Z" fill="#444444"/>
<path d="M24.131 122.663C24.131 123.444 23.8994 124.207 23.4656 124.856C23.0319 125.505 22.4153 126.011 21.6939 126.31C20.9726 126.609 20.1788 126.687 19.413 126.535C18.6472 126.382 17.9438 126.006 17.3917 125.454C16.8396 124.902 16.4635 124.199 16.3112 123.433C16.1589 122.667 16.2371 121.873 16.5359 121.152C16.8347 120.431 17.3406 119.814 17.9899 119.38C18.6391 118.946 19.4023 118.715 20.1831 118.715C20.7019 118.714 21.2158 118.815 21.6952 119.013C22.1747 119.211 22.6103 119.502 22.9771 119.869C23.3439 120.236 23.6347 120.671 23.8327 121.151C24.0307 121.63 24.1321 122.144 24.131 122.663Z" fill="#444444"/>
</g>
<defs>
<clipPath id="clip0_1331_609">
<rect width="150" height="138.847" fill="white"/>
</clipPath>
</defs>
</svg>
