<svg width="150" height="133" viewBox="0 0 150 133" fill="none" xmlns="http://www.w3.org/2000/svg">
<g clip-path="url(#clip0_1331_651)">
<path d="M46.6349 111.707V122.532C46.6349 124.49 45.857 126.368 44.4724 127.753C43.0878 129.137 41.2098 129.915 39.2517 129.915H32.2603C30.3021 129.915 28.4242 129.137 27.0396 127.753C25.6549 126.368 24.8771 124.49 24.8771 122.532V111.707" fill="#B8292D"/>
<path d="M39.2286 132.991H32.2372C29.4653 132.987 26.808 131.884 24.8479 129.924C22.8879 127.964 21.7849 125.307 21.7809 122.535V111.71C21.7809 110.895 22.1046 110.113 22.6809 109.537C23.2573 108.96 24.039 108.637 24.854 108.637C25.6691 108.637 26.4507 108.96 27.027 109.537C27.6033 110.113 27.9272 110.895 27.9272 111.71V122.535C27.9292 123.677 28.3839 124.773 29.1918 125.58C29.9996 126.388 31.0948 126.843 32.2372 126.845H39.2286C40.3717 126.845 41.468 126.391 42.2763 125.583C43.0846 124.774 43.5387 123.678 43.5387 122.535V111.71C43.5387 110.895 43.8625 110.113 44.4388 109.537C45.0151 108.96 45.7968 108.637 46.6118 108.637C47.4269 108.637 48.2086 108.96 48.7849 109.537C49.3612 110.113 49.685 110.895 49.685 111.71V122.535C49.6829 125.307 48.5807 127.966 46.6202 129.926C44.6597 131.887 42.0012 132.989 39.2286 132.991Z" fill="#444444"/>
<path d="M125.154 111.707V122.532C125.154 124.49 124.376 126.368 122.991 127.753C121.607 129.137 119.729 129.915 117.77 129.915H110.771C108.814 129.913 106.937 129.135 105.553 127.751C104.169 126.366 103.39 124.49 103.388 122.532V111.707" fill="#B8292D"/>
<path d="M117.77 132.991H110.771C107.999 132.987 105.342 131.884 103.382 129.924C101.422 127.964 100.319 125.307 100.315 122.535V111.71C100.315 110.895 100.639 110.113 101.215 109.537C101.791 108.96 102.573 108.637 103.388 108.637C104.203 108.637 104.985 108.96 105.561 109.537C106.137 110.113 106.461 110.895 106.461 111.71V122.535C106.463 123.677 106.918 124.773 107.726 125.58C108.534 126.388 109.629 126.843 110.771 126.845H117.77C118.913 126.843 120.008 126.388 120.816 125.58C121.624 124.773 122.078 123.677 122.08 122.535V111.71C122.08 110.895 122.404 110.113 122.981 109.537C123.557 108.96 124.339 108.637 125.154 108.637C125.969 108.637 126.75 108.96 127.327 109.537C127.903 110.113 128.227 110.895 128.227 111.71V122.535C128.223 125.307 127.12 127.964 125.16 129.924C123.2 131.884 120.542 132.987 117.77 132.991Z" fill="#444444"/>
<path d="M124.478 24.9922C124.478 25.1843 124.478 25.384 124.478 25.5838C124.478 25.7835 124.47 25.9449 124.478 24.9922Z" fill="white"/>
<path d="M124.455 28.8018C123.646 28.8018 122.87 28.4834 122.295 27.9153C121.72 27.3473 121.392 26.5755 121.381 25.7671C121.37 25.6213 121.37 25.4749 121.381 25.3291C121.381 25.1908 121.381 25.0525 121.381 24.9219C121.4 24.1189 121.731 23.355 122.306 22.7935C122.88 22.2321 123.651 21.9178 124.455 21.918C125.27 21.918 126.051 22.2418 126.628 22.8181C127.204 23.3944 127.528 24.1761 127.528 24.9911C127.54 25.224 127.54 25.4573 127.528 25.6902C127.524 25.7336 127.524 25.7775 127.528 25.8209C127.159 28.4946 125.3 28.8018 124.455 28.8018ZM121.474 24.9603H124.478L127.459 25.0219C127.31 24.3442 126.938 23.7365 126.4 23.2977C125.863 22.8589 125.193 22.6146 124.5 22.6048C123.806 22.5951 123.13 22.8202 122.58 23.2437C122.031 23.6672 121.641 24.264 121.474 24.9373V24.9603Z" fill="#515151"/>
<path d="M25.5685 25.5838C25.5685 25.384 25.5685 25.1919 25.5685 24.9922C25.5378 25.9449 25.5532 25.7682 25.5685 25.5838Z" fill="white"/>
<path d="M25.5531 28.8013C24.708 28.8013 22.818 28.4786 22.48 25.7281V25.5745C22.48 25.3901 22.48 25.1904 22.48 24.9829C22.4698 24.1679 22.7837 23.3822 23.3528 22.7987C23.922 22.2151 24.6996 21.8815 25.5147 21.8713C26.3297 21.8611 27.1154 22.1752 27.6989 22.7443C28.2824 23.3134 28.6161 24.091 28.6263 24.906C28.6263 24.9905 28.6263 25.0751 28.6263 25.1596V25.3748C28.634 25.495 28.634 25.6156 28.6263 25.7358C28.6242 26.5495 28.2995 27.3293 27.7234 27.9039C27.1473 28.4786 26.3668 28.8013 25.5531 28.8013ZM25.5531 22.655V24.9599H28.534C28.3637 24.3006 27.9794 23.7165 27.4413 23.2993C26.9031 22.8821 26.2416 22.6555 25.5607 22.655H25.5531Z" fill="#515151"/>
<path d="M128.972 64.3142H124.478V24.8859C124.416 12.8315 102.29 3.07422 75 3.07422C47.7106 3.07422 25.5916 12.8315 25.5302 24.8859V64.3142H21.0357C20.0562 64.3162 19.1174 64.7063 18.4248 65.3989C17.7322 66.0915 17.3422 67.0302 17.3402 68.0097V108.014C17.3422 108.994 17.7322 109.933 18.4248 110.625C19.1174 111.318 20.0562 111.708 21.0357 111.71H128.972C129.95 111.706 130.887 111.315 131.578 110.623C132.269 109.93 132.658 108.993 132.66 108.014V68.0097C132.658 67.0316 132.269 66.0939 131.578 65.4015C130.887 64.7092 129.95 64.3183 128.972 64.3142ZM25.5302 24.9934C25.5302 25.1932 25.5302 25.3853 25.5302 25.585C25.5302 25.7848 25.5378 25.9461 25.5302 24.9934ZM42.4324 89.0454H38.6909C36.8637 88.9851 35.1314 88.2167 33.8602 86.9028C32.589 85.5889 31.8783 83.8323 31.8783 82.0041C31.8783 80.1759 32.589 78.4192 33.8602 77.1053C35.1314 75.7914 36.8637 75.0231 38.6909 74.9627H42.4324C43.3767 74.9315 44.3175 75.0905 45.1991 75.4303C46.0806 75.7701 46.8848 76.2839 47.5638 76.9408C48.2428 77.5977 48.7827 78.3845 49.1515 79.2543C49.5202 80.1241 49.7102 81.0593 49.7102 82.0041C49.7102 82.9488 49.5202 83.8838 49.1515 84.7537C48.7827 85.6235 48.2428 86.4104 47.5638 87.0673C46.8848 87.7243 46.0806 88.2378 45.1991 88.5776C44.3175 88.9175 43.3767 89.0766 42.4324 89.0454ZM68.3082 61.2028C68.3082 61.5458 68.1725 61.8749 67.9306 62.1181C67.6888 62.3614 67.3606 62.4991 67.0176 62.5012H38.9521C38.6091 62.4991 38.2807 62.3614 38.0389 62.1181C37.7971 61.8749 37.6613 61.5458 37.6613 61.2028V35.4576C37.6633 35.1159 37.8 34.7887 38.0416 34.5471C38.2832 34.3055 38.6104 34.1687 38.9521 34.1667H66.956C67.2977 34.1687 67.6249 34.3055 67.8665 34.5471C68.1081 34.7887 68.2448 35.1159 68.2468 35.4576L68.3082 61.2028ZM80.8927 61.2028V35.4576C80.8948 35.1159 81.0314 34.7887 81.273 34.5471C81.5147 34.3055 81.8418 34.1687 82.1835 34.1667H110.187C110.529 34.1687 110.856 34.3055 111.098 34.5471C111.34 34.7887 111.476 35.1159 111.478 35.4576V61.2028C111.478 61.5458 111.342 61.8749 111.101 62.1181C110.859 62.3614 110.53 62.4991 110.187 62.5012H82.1835C82.0104 62.5052 81.8382 62.4747 81.6772 62.4113C81.5161 62.3479 81.3693 62.2528 81.2455 62.1318C81.1216 62.0108 81.0232 61.8664 80.956 61.7068C80.8889 61.5472 80.8543 61.3759 80.8544 61.2028H80.8927ZM111.386 89.0454H107.652C106.708 89.0766 105.767 88.9175 104.885 88.5776C104.004 88.2378 103.2 87.7243 102.521 87.0673C101.842 86.4104 101.302 85.6235 100.933 84.7537C100.564 83.8838 100.374 82.9488 100.374 82.0041C100.374 81.0593 100.564 80.1241 100.933 79.2543C101.302 78.3845 101.842 77.5977 102.521 76.9408C103.2 76.2839 104.004 75.7701 104.885 75.4303C105.767 75.0905 106.708 74.9315 107.652 74.9627H111.386C112.33 74.9315 113.271 75.0905 114.153 75.4303C115.034 75.7701 115.838 76.2839 116.517 76.9408C117.196 77.5977 117.736 78.3845 118.105 79.2543C118.474 80.1241 118.664 81.0593 118.664 82.0041C118.664 82.9488 118.474 83.8838 118.105 84.7537C117.736 85.6235 117.196 86.4104 116.517 87.0673C115.838 87.7243 115.034 88.2378 114.153 88.5776C113.271 88.9175 112.33 89.0766 111.386 89.0454ZM124.447 25.585C124.447 25.3853 124.447 25.1855 124.447 24.9934C124.47 25.9461 124.447 25.7694 124.439 25.585H124.447Z" fill="white"/>
<path d="M128.972 114.782H21.0357C19.2412 114.78 17.5208 114.066 16.2519 112.797C14.9829 111.528 14.2691 109.808 14.2671 108.013V68.0086C14.2691 66.2141 14.9829 64.4938 16.2519 63.2248C17.5208 61.9559 19.2412 61.242 21.0357 61.24H22.457V23.7478C22.4556 23.3643 22.5259 22.9836 22.6645 22.626C23.7785 16.4029 29.4177 10.7945 38.7985 6.64578C48.5173 2.35875 61.363 0 74.977 0C88.591 0 101.444 2.35875 111.163 6.64578C120.575 10.7945 126.214 16.4106 127.297 22.6413C127.431 22.9947 127.499 23.3699 127.497 23.7478V61.24H128.918C130.711 61.2441 132.43 61.9588 133.697 63.2275C134.964 64.4962 135.677 66.2154 135.679 68.0086V108.013C135.677 109.797 134.972 111.508 133.716 112.775C132.461 114.043 130.756 114.764 128.972 114.782ZM21.0357 67.3863C20.8713 67.3883 20.7141 67.4546 20.5978 67.5708C20.4816 67.6871 20.4154 67.8442 20.4134 68.0086V108.013C20.4154 108.178 20.4816 108.335 20.5978 108.451C20.7141 108.567 20.8713 108.634 21.0357 108.636H128.972C129.135 108.632 129.29 108.565 129.405 108.448C129.52 108.332 129.585 108.176 129.587 108.013V68.0086C129.585 67.8455 129.52 67.6895 129.405 67.5735C129.29 67.4574 129.135 67.3902 128.972 67.3863H124.478C123.663 67.3863 122.881 67.0626 122.305 66.4863C121.728 65.91 121.404 65.1282 121.404 64.3131V26.1063C121.404 25.9911 121.404 25.8836 121.404 25.7683C121.393 25.6226 121.393 25.4761 121.404 25.3303C121.404 25.1921 121.404 25.0537 121.404 24.9231C121.351 16.0571 102.282 6.17704 75.0001 6.17704C47.7183 6.17704 28.6494 16.0571 28.6033 24.9308V24.9693C28.6033 25.0538 28.6033 25.1384 28.6033 25.2229V25.438C28.611 25.5583 28.611 25.6788 28.6033 25.7991C28.6033 25.9143 28.6033 26.0141 28.6033 26.1217V64.3439C28.6033 65.1589 28.2795 65.9406 27.7032 66.5169C27.1268 67.0932 26.3452 67.417 25.5302 67.417L21.0357 67.3863ZM111.348 92.1175H107.614C106.262 92.1548 104.917 91.9207 103.657 91.4291C102.397 90.9376 101.249 90.1985 100.279 89.2556C99.3102 88.3127 98.5398 87.185 98.0137 85.9393C97.4877 84.6936 97.2167 83.3552 97.2167 82.003C97.2167 80.6508 97.4877 79.3122 98.0137 78.0665C98.5398 76.8208 99.3102 75.6932 100.279 74.7503C101.249 73.8074 102.397 73.0684 103.657 72.5769C104.917 72.0853 106.262 71.8512 107.614 71.8885H111.348C112.699 71.8512 114.045 72.0853 115.304 72.5769C116.564 73.0684 117.713 73.8074 118.682 74.7503C119.651 75.6932 120.422 76.8208 120.948 78.0665C121.474 79.3122 121.745 80.6508 121.745 82.003C121.745 83.3552 121.474 84.6936 120.948 85.9393C120.422 87.185 119.651 88.3127 118.682 89.2556C117.713 90.1985 116.564 90.9376 115.304 91.4291C114.045 91.9207 112.699 92.1548 111.348 92.1175ZM107.614 78.0348C107.078 78.0112 106.543 78.0964 106.041 78.2852C105.539 78.474 105.08 78.7624 104.693 79.1332C104.305 79.504 103.997 79.9494 103.786 80.4426C103.576 80.9358 103.467 81.4667 103.467 82.003C103.467 82.5393 103.576 83.07 103.786 83.5632C103.997 84.0564 104.305 84.5018 104.693 84.8726C105.08 85.2434 105.539 85.532 106.041 85.7208C106.543 85.9096 107.078 85.9948 107.614 85.9712H111.348C111.883 85.9948 112.418 85.9096 112.92 85.7208C113.422 85.532 113.881 85.2434 114.268 84.8726C114.656 84.5018 114.964 84.0564 115.175 83.5632C115.386 83.07 115.494 82.5393 115.494 82.003C115.494 81.4667 115.386 80.9358 115.175 80.4426C114.964 79.9494 114.656 79.504 114.268 79.1332C113.881 78.7624 113.422 78.474 112.92 78.2852C112.418 78.0964 111.883 78.0112 111.348 78.0348H107.614ZM42.394 92.1175H38.6525C36.0182 92.0449 33.5162 90.9474 31.6786 89.0584C29.8411 87.1695 28.8129 84.6383 28.8129 82.003C28.8129 79.3677 29.8411 76.8363 31.6786 74.9474C33.5162 73.0585 36.0182 71.9611 38.6525 71.8885H42.394C43.7457 71.8512 45.0912 72.0853 46.3509 72.5769C47.6106 73.0684 48.759 73.8074 49.7283 74.7503C50.6975 75.6932 51.4679 76.8208 51.994 78.0665C52.5201 79.3122 52.7911 80.6508 52.7911 82.003C52.7911 83.3552 52.5201 84.6936 51.994 85.9393C51.4679 87.185 50.6975 88.3127 49.7283 89.2556C48.759 90.1985 47.6106 90.9376 46.3509 91.4291C45.0912 91.9207 43.7457 92.1548 42.394 92.1175ZM38.6525 78.0348C37.6302 78.0798 36.6648 78.5175 35.9574 79.2568C35.2499 79.9961 34.8551 80.9798 34.8551 82.003C34.8551 83.0262 35.2499 84.01 35.9574 84.7492C36.6648 85.4885 37.6302 85.9262 38.6525 85.9712H42.394C42.9298 85.9948 43.4649 85.9096 43.9669 85.7208C44.4689 85.532 44.9274 85.2434 45.3148 84.8726C45.7023 84.5018 46.0108 84.0564 46.2215 83.5632C46.4321 83.07 46.5407 82.5393 46.5407 82.003C46.5407 81.4667 46.4321 80.9358 46.2215 80.4426C46.0108 79.9494 45.7023 79.504 45.3148 79.1332C44.9274 78.7624 44.4689 78.474 43.9669 78.2852C43.4649 78.0964 42.9298 78.0112 42.394 78.0348H38.6525ZM110.149 65.5732H82.1451C80.987 65.5712 79.8771 65.1097 79.0589 64.2901C78.2407 63.4705 77.7813 62.3598 77.7813 61.2017V35.4565C77.7833 34.2997 78.2437 33.1908 79.0616 32.3728C79.8796 31.5549 80.9883 31.0945 82.1451 31.0925H110.149C111.306 31.0945 112.415 31.5549 113.233 32.3728C114.051 33.1908 114.511 34.2997 114.513 35.4565V61.2017C114.513 62.3598 114.053 63.4705 113.235 64.2901C112.417 65.1097 111.307 65.5712 110.149 65.5732ZM83.9275 59.4269H108.367V37.2388H83.9275V59.4269ZM66.9791 65.5732H38.9521C37.794 65.5712 36.6841 65.1097 35.8659 64.2901C35.0478 63.4705 34.5882 62.3598 34.5882 61.2017V35.4565C34.5902 34.2997 35.0507 33.1908 35.8686 32.3728C36.6866 31.5549 37.7954 31.0945 38.9521 31.0925H66.9561C68.1128 31.0945 69.2217 31.5549 70.0396 32.3728C70.8576 33.1908 71.3179 34.2997 71.32 35.4565V61.2017C71.32 62.3558 70.8637 63.463 70.0505 64.282C69.2373 65.1009 68.1332 65.5651 66.9791 65.5732ZM40.7575 59.4269H65.1967V37.2388H40.7575V59.4269Z" fill="#444444"/>
<path d="M42.3939 74.9609H38.6524C36.8252 75.0212 35.0929 75.7896 33.8217 77.1035C32.5505 78.4174 31.8398 80.174 31.8398 82.0022C31.8398 83.8305 32.5505 85.5871 33.8217 86.901C35.0929 88.2149 36.8252 88.9832 38.6524 89.0436H42.3939C43.3382 89.0748 44.279 88.9156 45.1606 88.5758C46.0421 88.236 46.8464 87.7224 47.5254 87.0655C48.2043 86.4086 48.7442 85.6217 49.1129 84.7518C49.4817 83.882 49.6717 82.947 49.6717 82.0022C49.6717 81.0575 49.4817 80.1223 49.1129 79.2525C48.7442 78.3826 48.2043 77.5959 47.5254 76.939C46.8464 76.2821 46.0421 75.7683 45.1606 75.4285C44.279 75.0887 43.3382 74.9297 42.3939 74.9609Z" fill="white"/>
<path d="M42.3939 92.1157H38.6524C36.0181 92.0431 33.5161 90.9455 31.6786 89.0566C29.841 87.1677 28.8129 84.6364 28.8129 82.0012C28.8129 79.3659 29.841 76.8345 31.6786 74.9455C33.5161 73.0566 36.0181 71.9593 38.6524 71.8867H42.3939C43.7456 71.8494 45.0911 72.0835 46.3508 72.575C47.6105 73.0666 48.7589 73.8055 49.7282 74.7484C50.6974 75.6913 51.4679 76.8189 51.9939 78.0646C52.52 79.3103 52.791 80.6489 52.791 82.0012C52.791 83.3534 52.52 84.6918 51.9939 85.9375C51.4679 87.1832 50.6974 88.3108 49.7282 89.2537C48.7589 90.1966 47.6105 90.9357 46.3508 91.4273C45.0911 91.9188 43.7456 92.1529 42.3939 92.1157ZM38.6524 78.0329C37.6302 78.0779 36.6647 78.5157 35.9573 79.255C35.2499 79.9942 34.855 80.978 34.855 82.0012C34.855 83.0244 35.2499 84.0081 35.9573 84.7474C36.6647 85.4866 37.6302 85.9244 38.6524 85.9694H42.3939C42.9297 85.993 43.4648 85.9078 43.9668 85.719C44.4688 85.5302 44.9273 85.2416 45.3148 84.8708C45.7023 84.5 46.0107 84.0546 46.2214 83.5614C46.4321 83.0682 46.5406 82.5375 46.5406 82.0012C46.5406 81.4648 46.4321 80.934 46.2214 80.4408C46.0107 79.9476 45.7023 79.5022 45.3148 79.1313C44.9273 78.7605 44.4688 78.4721 43.9668 78.2833C43.4648 78.0946 42.9297 78.0094 42.3939 78.0329H38.6524Z" fill="#444444"/>
<path d="M110.149 34.1641H82.1451C81.4322 34.1641 80.8544 34.7419 80.8544 35.4548V61.2077C80.8544 61.9205 81.4322 62.4984 82.1451 62.4984H110.149C110.862 62.4984 111.44 61.9205 111.44 61.2077V35.4548C111.44 34.7419 110.862 34.1641 110.149 34.1641Z" fill="#B8292D"/>
<path d="M110.149 65.5745H82.1451C80.987 65.5725 79.877 65.1109 79.0589 64.2913C78.2407 63.4717 77.7812 62.3611 77.7813 61.203V35.4577C77.7833 34.301 78.2437 33.192 79.0616 32.3741C79.8795 31.5562 80.9883 31.0958 82.1451 31.0938H110.149C111.306 31.0958 112.415 31.5562 113.233 32.3741C114.051 33.192 114.511 34.301 114.513 35.4577V61.203C114.513 62.3611 114.053 63.4717 113.235 64.2913C112.417 65.1109 111.307 65.5725 110.149 65.5745ZM83.9275 59.4282H108.367V37.24H83.9275V59.4282Z" fill="#444444"/>
<path d="M66.9715 34.1641H38.9675C38.2546 34.1641 37.6768 34.7419 37.6768 35.4548V61.2077C37.6768 61.9205 38.2546 62.4984 38.9675 62.4984H66.9715C67.6843 62.4984 68.2622 61.9205 68.2622 61.2077V35.4548C68.2622 34.7419 67.6843 34.1641 66.9715 34.1641Z" fill="#B8292D"/>
<path d="M66.9791 65.5745H38.952C37.794 65.5725 36.684 65.1109 35.8659 64.2913C35.0477 63.4717 34.5881 62.3611 34.5881 61.203V35.4577C34.5902 34.301 35.0506 33.192 35.8686 32.3741C36.6865 31.5562 37.7953 31.0958 38.952 31.0938H66.956C68.1127 31.0958 69.2216 31.5562 70.0395 32.3741C70.8575 33.192 71.3179 34.301 71.3199 35.4577V61.203C71.3199 62.3571 70.8636 63.4643 70.0504 64.2833C69.2372 65.1022 68.1331 65.5664 66.9791 65.5745ZM40.7575 59.4282H65.1967V37.24H40.7575V59.4282Z" fill="#444444"/>
<path d="M111.348 74.9609H107.614C106.669 74.9297 105.729 75.0887 104.847 75.4285C103.966 75.7683 103.161 76.2821 102.482 76.939C101.803 77.5959 101.263 78.3826 100.895 79.2525C100.526 80.1223 100.336 81.0575 100.336 82.0022C100.336 82.947 100.526 83.882 100.895 84.7518C101.263 85.6217 101.803 86.4086 102.482 87.0655C103.161 87.7224 103.966 88.236 104.847 88.5758C105.729 88.9156 106.669 89.0748 107.614 89.0436H111.348C112.292 89.0748 113.233 88.9156 114.114 88.5758C114.996 88.236 115.8 87.7224 116.479 87.0655C117.158 86.4086 117.698 85.6217 118.067 84.7518C118.435 83.882 118.625 82.947 118.625 82.0022C118.625 81.0575 118.435 80.1223 118.067 79.2525C117.698 78.3826 117.158 77.5959 116.479 76.939C115.8 76.2821 114.996 75.7683 114.114 75.4285C113.233 75.0887 112.292 74.9297 111.348 74.9609Z" fill="white"/>
<path d="M111.348 92.1157H107.614C106.262 92.1529 104.917 91.9188 103.657 91.4273C102.397 90.9357 101.249 90.1966 100.279 89.2537C99.3103 88.3108 98.5398 87.1832 98.0138 85.9375C97.4877 84.6918 97.2167 83.3534 97.2167 82.0012C97.2167 80.6489 97.4877 79.3103 98.0138 78.0646C98.5398 76.8189 99.3103 75.6913 100.279 74.7484C101.249 73.8055 102.397 73.0666 103.657 72.575C104.917 72.0835 106.262 71.8494 107.614 71.8867H111.348C112.699 71.8494 114.045 72.0835 115.304 72.575C116.564 73.0666 117.713 73.8055 118.682 74.7484C119.651 75.6913 120.422 76.8189 120.948 78.0646C121.474 79.3103 121.745 80.6489 121.745 82.0012C121.745 83.3534 121.474 84.6918 120.948 85.9375C120.422 87.1832 119.651 88.3108 118.682 89.2537C117.713 90.1966 116.564 90.9357 115.304 91.4273C114.045 91.9188 112.699 92.1529 111.348 92.1157ZM107.614 78.0329C107.078 78.0094 106.543 78.0946 106.041 78.2833C105.539 78.4721 105.08 78.7605 104.693 79.1313C104.305 79.5022 103.997 79.9476 103.786 80.4408C103.576 80.934 103.467 81.4648 103.467 82.0012C103.467 82.5375 103.576 83.0682 103.786 83.5614C103.997 84.0546 104.305 84.5 104.693 84.8708C105.08 85.2416 105.539 85.5302 106.041 85.719C106.543 85.9078 107.078 85.993 107.614 85.9694H111.348C111.883 85.993 112.418 85.9078 112.92 85.719C113.422 85.5302 113.881 85.2416 114.268 84.8708C114.656 84.5 114.964 84.0546 115.175 83.5614C115.386 83.0682 115.494 82.5375 115.494 82.0012C115.494 81.4648 115.386 80.934 115.175 80.4408C114.964 79.9476 114.656 79.5022 114.268 79.1313C113.881 78.7605 113.422 78.4721 112.92 78.2833C112.418 78.0946 111.883 78.0094 111.348 78.0329H107.614Z" fill="#444444"/>
<path d="M91.011 81.1228H58.382C57.5669 81.1228 56.7852 80.799 56.2089 80.2227C55.6326 79.6464 55.3088 78.8647 55.3088 78.0497C55.3088 77.2347 55.6326 76.453 56.2089 75.8767C56.7852 75.3004 57.5669 74.9766 58.382 74.9766H91.011C91.8261 74.9766 92.6077 75.3004 93.184 75.8767C93.7604 76.453 94.0842 77.2347 94.0842 78.0497C94.0842 78.8647 93.7604 79.6464 93.184 80.2227C92.6077 80.799 91.8261 81.1228 91.011 81.1228Z" fill="#444444"/>
<path d="M91.011 90.2517H58.382C57.5669 90.2517 56.7852 89.9281 56.2089 89.3518C55.6326 88.7755 55.3088 87.9937 55.3088 87.1786C55.3088 86.3636 55.6326 85.5819 56.2089 85.0056C56.7852 84.4293 57.5669 84.1055 58.382 84.1055H91.011C91.8261 84.1055 92.6077 84.4293 93.184 85.0056C93.7604 85.5819 94.0842 86.3636 94.0842 87.1786C94.0842 87.9937 93.7604 88.7755 93.184 89.3518C92.6077 89.9281 91.8261 90.2517 91.011 90.2517Z" fill="#444444"/>
<path d="M106.392 65.5745C105.577 65.5745 104.795 65.2506 104.219 64.6743C103.643 64.098 103.319 63.3164 103.319 62.5013C103.35 61.5397 103.188 60.5816 102.842 59.684C102.496 58.7864 101.972 57.9675 101.303 57.2762C100.634 56.5848 99.833 56.0352 98.9472 55.6597C98.0614 55.2843 97.1091 55.0906 96.147 55.0906C95.1849 55.0906 94.2327 55.2843 93.3469 55.6597C92.461 56.0352 91.6597 56.5848 90.9906 57.2762C90.3215 57.9675 89.7983 58.7864 89.4521 59.684C89.1058 60.5816 88.9436 61.5397 88.9751 62.5013C88.9751 63.3164 88.6513 64.098 88.075 64.6743C87.4987 65.2506 86.717 65.5745 85.9019 65.5745C85.0869 65.5745 84.3053 65.2506 83.7289 64.6743C83.1526 64.098 82.8288 63.3164 82.8288 62.5013C82.7861 60.7254 83.0991 58.959 83.7492 57.3058C84.3993 55.6527 85.3736 54.1462 86.6145 52.8751C87.8554 51.604 89.3381 50.5938 90.9751 49.9041C92.6122 49.2145 94.3706 48.8594 96.147 48.8594C97.9234 48.8594 99.6819 49.2145 101.319 49.9041C102.956 50.5938 104.439 51.604 105.68 52.8751C106.92 54.1462 107.895 55.6527 108.545 57.3058C109.195 58.959 109.508 60.7254 109.465 62.5013C109.465 63.3164 109.141 64.098 108.565 64.6743C107.989 65.2506 107.207 65.5745 106.392 65.5745Z" fill="#444444"/>
<path d="M13.7062 38.6211H4.50213C3.71291 38.6211 3.07312 39.2609 3.07312 40.0501V57.3442C3.07312 58.1334 3.71291 58.7732 4.50213 58.7732H13.7062C14.4954 58.7732 15.1352 58.1334 15.1352 57.3442V40.0501C15.1352 39.2609 14.4954 38.6211 13.7062 38.6211Z" fill="white"/>
<path d="M13.7062 61.8453H4.48676C3.29201 61.8453 2.14605 61.3711 1.30051 60.527C0.454976 59.6829 -0.0210359 58.538 -0.0230713 57.3432V40.0491C-0.0210359 38.8544 0.454976 37.7092 1.30051 36.8651C2.14605 36.021 3.29201 35.5469 4.48676 35.5469H13.7062C14.8996 35.5489 16.0436 36.0239 16.8875 36.8677C17.7313 37.7116 18.2063 38.8557 18.2083 40.0491V57.3432C18.2063 58.5366 17.7313 59.6805 16.8875 60.5244C16.0436 61.3683 14.8996 61.8432 13.7062 61.8453ZM6.14628 55.699H12.062V41.6932H6.14628V55.699Z" fill="#444444"/>
<path d="M145.498 38.6211H136.294C135.505 38.6211 134.865 39.2609 134.865 40.0501V57.3442C134.865 58.1334 135.505 58.7732 136.294 58.7732H145.498C146.287 58.7732 146.927 58.1334 146.927 57.3442V40.0501C146.927 39.2609 146.287 38.6211 145.498 38.6211Z" fill="white"/>
<path d="M145.498 61.8453H136.278C135.084 61.8453 133.939 61.371 133.095 60.5266C132.251 59.6823 131.776 58.5373 131.776 57.3432V40.0491C131.776 38.8551 132.251 37.7098 133.095 36.8655C133.939 36.0212 135.084 35.5469 136.278 35.5469H145.498C146.691 35.5489 147.835 36.0239 148.679 36.8677C149.523 37.7116 149.998 38.8557 150 40.0491V57.3432C149.998 58.5366 149.523 59.6805 148.679 60.5244C147.835 61.3683 146.691 61.8432 145.498 61.8453ZM137.946 55.699H143.854V41.6932H137.946V55.699Z" fill="#444444"/>
<path d="M25.5302 51.7674H15.1353C14.3202 51.7674 13.5386 51.4436 12.9623 50.8672C12.386 50.2909 12.0621 49.5093 12.0621 48.6942C12.0621 47.8792 12.386 47.0974 12.9623 46.5211C13.5386 45.9447 14.3202 45.6211 15.1353 45.6211H25.5302C26.3452 45.6211 27.1269 45.9447 27.7032 46.5211C28.2795 47.0974 28.6033 47.8792 28.6033 48.6942C28.6033 49.5093 28.2795 50.2909 27.7032 50.8672C27.1269 51.4436 26.3452 51.7674 25.5302 51.7674Z" fill="#444444"/>
<path d="M134.872 51.7674H125.154C124.339 51.7674 123.557 51.4436 122.981 50.8672C122.404 50.2909 122.08 49.5093 122.08 48.6942C122.08 47.8792 122.404 47.0974 122.981 46.5211C123.557 45.9447 124.339 45.6211 125.154 45.6211H134.872C135.687 45.6211 136.469 45.9447 137.046 46.5211C137.622 47.0974 137.946 47.8792 137.946 48.6942C137.946 49.5093 137.622 50.2909 137.046 50.8672C136.469 51.4436 135.687 51.7674 134.872 51.7674Z" fill="#444444"/>
</g>
<defs>
<clipPath id="clip0_1331_651">
<rect width="150" height="132.99" fill="white"/>
</clipPath>
</defs>
</svg>
