<svg width="100" height="116" viewBox="0 0 100 116" fill="none" xmlns="http://www.w3.org/2000/svg">
<g clip-path="url(#clip0_739_421)">
<path d="M64.7146 -0.00600919L57.1025 11.4121L68.5207 19.0242L76.1327 7.60606L64.7146 -0.00600919Z" fill="#B8292D"/>
<path d="M88.866 115.855L67.3586 103.673C61.9057 100.604 55.7537 98.9907 49.496 98.9907C43.2384 98.9907 37.0863 100.604 31.6334 103.673L10.126 115.855L8.22266 112.543L29.7111 100.362C35.7346 96.9646 42.533 95.1797 49.4484 95.1797C56.3638 95.1797 63.1623 96.9646 69.1858 100.362L90.6932 112.543L88.866 115.855Z" fill="#444444"/>
<path d="M49.4111 36.162C46.3823 36.162 43.4776 34.9589 41.336 32.8172C39.1944 30.6756 37.9912 27.7709 37.9912 24.7421C37.9912 21.7134 39.1944 18.8087 41.336 16.6671C43.4776 14.5254 46.3823 13.3223 49.4111 13.3223C52.4398 13.3223 55.3445 14.5254 57.4862 16.6671C59.6278 18.8087 60.831 21.7134 60.831 24.7421C60.831 27.7709 59.6278 30.6756 57.4862 32.8172C55.3445 34.9589 52.4398 36.162 49.4111 36.162V36.162ZM49.4111 17.1289C47.3919 17.1289 45.4555 17.931 44.0277 19.3588C42.5999 20.7865 41.7978 22.723 41.7978 24.7421C41.7978 26.7613 42.5999 28.6978 44.0277 30.1255C45.4555 31.5533 47.3919 32.3554 49.4111 32.3554C51.4302 32.3554 53.3667 31.5533 54.7945 30.1255C56.2222 28.6978 57.0243 26.7613 57.0243 24.7421C57.0243 22.723 56.2222 20.7865 54.7945 19.3588C53.3667 17.931 51.4302 17.1289 49.4111 17.1289Z" fill="#444444"/>
<path d="M58.5088 97.0701C58.2177 97.0984 57.9245 97.0984 57.6333 97.0701C56.3961 96.8727 55.258 96.2739 54.3947 95.3659C53.5314 94.4578 52.9907 93.291 52.856 92.0454L49.7346 68.5966H49.2588L46.1183 92.2167C46.0061 93.0202 45.7241 93.7905 45.2909 94.4764C44.8576 95.1624 44.2833 95.7481 43.6059 96.1946C42.9242 96.6465 42.1533 96.9466 41.3455 97.0746C40.5377 97.2027 39.7118 97.1557 38.9238 96.9369C37.591 96.5508 36.4444 95.6926 35.6983 94.5227C34.9522 93.3527 34.6576 91.9511 34.8697 90.5798L37.9912 66.4839V58.0332L36.9063 59.0229C35.5618 60.244 33.8119 60.9222 31.9957 60.9262C30.0538 60.9212 28.1929 60.1476 26.8198 58.7744C25.4466 57.4013 24.673 55.5404 24.668 53.5985V38.0865C24.6675 37.257 24.8478 36.4375 25.1962 35.6848C25.5446 34.9321 26.0528 34.2643 26.6855 33.7279C27.3199 33.1899 28.0643 32.797 28.8665 32.5767C29.6687 32.3565 30.5093 32.3141 31.3296 32.4527C32.683 32.712 33.9018 33.4399 34.7719 34.5084C35.6421 35.577 36.108 36.918 36.0878 38.2958V44.4055L41.931 39.1143L42.521 38.6194C44.4986 37.1018 46.9183 36.273 49.411 36.2593C52.2156 36.25 54.9255 37.2729 57.0243 39.1333L68.1967 35.3267L69.9668 23.9068C70.1673 22.5819 70.8367 21.373 71.8531 20.4998C72.8695 19.6266 74.1654 19.1471 75.5054 19.1485C76.3274 19.1433 77.1402 19.3218 77.8844 19.6708C78.6286 20.0198 79.2854 20.5307 79.8069 21.166C80.3395 21.7912 80.7253 22.5277 80.9361 23.3214C81.1469 24.1152 81.1773 24.946 81.025 25.753L78.3604 40.4276C78.1931 41.3342 77.7903 42.1808 77.1923 42.8824C76.5943 43.584 75.8222 44.1158 74.9535 44.4245L60.907 49.4493V66.5791L64.1426 90.7321C64.255 91.6051 64.164 92.4923 63.8768 93.3243C63.5895 94.1563 63.1138 94.9107 62.4868 95.5284C61.4164 96.5475 59.9864 97.1017 58.5088 97.0701V97.0701ZM45.928 64.7138H53.0654L56.6246 91.4744C56.6727 91.8965 56.8504 92.2934 57.1333 92.6103C57.4162 92.9273 57.7904 93.1489 58.2043 93.2445C58.4954 93.2898 58.7929 93.267 59.0737 93.1779C59.3544 93.0887 59.6106 92.9356 59.8221 92.7306C60.025 92.525 60.1784 92.2759 60.2708 92.0022C60.3631 91.7285 60.3919 91.4373 60.3551 91.1508L57.0243 66.6171V46.6514L73.6021 40.7321C73.8417 40.6477 74.0545 40.5009 74.2184 40.3069C74.3824 40.1128 74.4916 39.8785 74.5348 39.6282V39.6282L77.1994 24.9536C77.251 24.6965 77.2436 24.431 77.1777 24.1771C77.1117 23.9232 76.989 23.6876 76.8187 23.4881C76.6504 23.283 76.4382 23.1183 76.1977 23.0063C75.9572 22.8943 75.6946 22.8378 75.4293 22.841C75.0008 22.8407 74.5865 22.9943 74.2616 23.2738C73.9368 23.5532 73.723 23.9399 73.6592 24.3636L71.5465 38.1246L55.8823 43.4348L55.121 42.5022C53.8506 41.1071 52.1076 40.2334 50.2297 40.0506C48.3518 39.8677 46.4729 40.3887 44.9573 41.5124L44.4815 41.9122L35.5549 50.0203L32.3574 52.9133V38.2768C32.3764 37.8019 32.2318 37.3347 31.9477 36.9536C31.6636 36.5725 31.2573 36.3005 30.7966 36.1832C30.5203 36.1368 30.2372 36.1519 29.9674 36.2276C29.6976 36.3033 29.4478 36.4376 29.2359 36.621C29.0235 36.7978 28.8522 37.0189 28.7339 37.2687C28.6156 37.5185 28.5531 37.7911 28.5507 38.0675V53.5795C28.5507 54.5133 28.9217 55.4089 29.582 56.0693C30.2424 56.7296 31.138 57.1006 32.0719 57.1006C32.945 57.1009 33.7866 56.7751 34.432 56.187L41.8739 49.4873V66.8646L38.6383 90.9986C38.5462 91.4588 38.6274 91.9368 38.8663 92.3408C39.1051 92.7448 39.4849 93.0463 39.9325 93.1874C40.1967 93.266 40.4747 93.2862 40.7475 93.2468C41.0202 93.2073 41.2812 93.1091 41.5123 92.959C41.7331 92.8096 41.92 92.6155 42.061 92.3893C42.2019 92.163 42.2939 91.9097 42.3307 91.6457L45.928 64.7138Z" fill="#444444"/>
<path d="M58.1247 9.83338L56.0811 13.0449L97.9596 39.6937L100.003 36.4821L58.1247 9.83338Z" fill="#444444"/>
<path d="M98.9726 55.1953H87.5527V59.0019H98.9726V55.1953Z" fill="#444444"/>
<path d="M95.166 51.3887H91.3594V62.8085H95.166V51.3887Z" fill="#444444"/>
<path d="M81.8427 64.7129H74.2295V68.5195H81.8427V64.7129Z" fill="#444444"/>
<path d="M79.9394 62.8086H76.1328V70.4218H79.9394V62.8086Z" fill="#444444"/>
<path d="M95.166 72.3262H83.7461V76.1328H95.166V72.3262Z" fill="#444444"/>
<path d="M91.3594 68.5195H87.5527V79.9394H91.3594V68.5195Z" fill="#444444"/>
<path d="M28.5498 9.51562H17.1299V13.3222H28.5498V9.51562Z" fill="#444444"/>
<path d="M24.7431 5.70898H20.9365V17.1289H24.7431V5.70898Z" fill="#444444"/>
<path d="M7.61325 5.70898H0V9.51561H7.61325V5.70898Z" fill="#444444"/>
<path d="M5.70994 3.80664H1.90332V11.4199H5.70994V3.80664Z" fill="#444444"/>
<path d="M15.2265 20.9355H3.80664V24.7422H15.2265V20.9355Z" fill="#444444"/>
<path d="M11.4199 17.1289H7.61328V28.5488H11.4199V17.1289Z" fill="#444444"/>
</g>
<defs>
<clipPath id="clip0_739_421">
<rect width="100" height="115.855" fill="white"/>
</clipPath>
</defs>
</svg>
