<svg width="150" height="146" viewBox="0 0 150 146" fill="none" xmlns="http://www.w3.org/2000/svg">
<g clip-path="url(#clip0_1331_683)">
<path d="M98.0593 26.6755C98.0593 31.2406 96.7055 35.7033 94.1692 39.4991C91.633 43.2949 88.0281 46.2534 83.8105 48.0004C79.5928 49.7474 74.9519 50.2045 70.4744 49.3139C65.997 48.4232 61.8843 46.2249 58.6562 42.9969C55.4282 39.7689 53.2299 35.656 52.3393 31.1786C51.4487 26.7011 51.9058 22.0602 53.6528 17.8425C55.3998 13.6249 58.3581 10.02 62.1539 7.48377C65.9497 4.94751 70.4124 3.59375 74.9776 3.59375C78.0087 3.59375 81.0101 4.19081 83.8105 5.35077C86.6109 6.51074 89.1554 8.21089 91.2988 10.3542C93.4421 12.4976 95.1423 15.0421 96.3022 17.8425C97.4622 20.6429 98.0593 23.6443 98.0593 26.6755Z" fill="white"/>
<path d="M75.0045 53.3514C69.7286 53.3514 64.5711 51.7869 60.1843 48.8557C55.7975 45.9246 52.3785 41.7584 50.3595 36.8841C48.3404 32.0097 47.8121 26.646 48.8414 21.4714C49.8707 16.2968 52.4113 11.5438 56.142 7.81312C59.8726 4.08247 64.6258 1.54188 69.8003 0.512595C74.9749 -0.516691 80.3386 0.0115058 85.2129 2.03052C90.0872 4.04954 94.2534 7.46859 97.1846 11.8554C100.116 16.2422 101.68 21.3996 101.68 26.6756C101.673 33.7482 98.8603 40.5292 93.8592 45.5303C88.858 50.5314 82.0771 53.3442 75.0045 53.3514ZM75.0045 7.18775C71.1502 7.18775 67.3824 8.33078 64.1776 10.4721C60.9729 12.6135 58.4751 15.657 57.0001 19.218C55.5251 22.7789 55.1392 26.6973 55.8911 30.4776C56.6431 34.2579 58.4991 37.7302 61.2245 40.4556C63.9499 43.181 67.4224 45.0372 71.2027 45.7892C74.9829 46.5411 78.9013 46.1551 82.4622 44.6801C86.0231 43.2051 89.0668 40.7074 91.2082 37.5026C93.3495 34.2979 94.4924 30.5299 94.4924 26.6756C94.4877 21.5085 92.4329 16.5545 88.7793 12.9008C85.1256 9.24716 80.1715 7.1925 75.0045 7.18775Z" fill="#444444"/>
<path d="M106.667 81.4273C106.737 77.2239 105.971 73.0484 104.411 69.1444C102.852 65.2404 100.53 61.6858 97.5827 58.6882C94.6352 55.6906 91.1203 53.3098 87.2431 51.6847C83.3659 50.0595 79.204 49.2227 75 49.2227C70.796 49.2227 66.6341 50.0595 62.7569 51.6847C58.8797 53.3098 55.3649 55.6906 52.4173 58.6882C49.4698 61.6858 47.1486 65.2404 45.589 69.1444C44.0294 73.0484 43.2625 77.2239 43.3333 81.4273V118.265H106.667V81.4273Z" fill="#B8292D"/>
<path d="M106.667 121.814H43.3332C42.3801 121.814 41.466 121.435 40.792 120.761C40.118 120.087 39.7394 119.173 39.7394 118.22V81.3826C39.6647 76.7048 40.5216 72.0588 42.2601 67.7153C43.9985 63.3719 46.5839 59.4179 49.8656 56.0834C53.1472 52.749 57.0595 50.1007 61.3746 48.2931C65.6898 46.4855 70.3215 45.5547 74.9999 45.5547C79.6784 45.5547 84.31 46.4855 88.6252 48.2931C92.9403 50.1007 96.8527 52.749 100.134 56.0834C103.416 59.4179 106.001 63.3719 107.74 67.7153C109.478 72.0588 110.335 76.7048 110.26 81.3826V118.22C110.26 119.173 109.882 120.087 109.208 120.761C108.534 121.435 107.62 121.814 106.667 121.814ZM46.9271 114.626H103.073V81.3826C103.139 77.6538 102.463 73.949 101.082 70.4847C99.701 67.0203 97.6438 63.8657 95.0304 61.2051C92.417 58.5445 89.2997 56.4312 85.8605 54.9886C82.4214 53.5461 78.7293 52.803 74.9999 52.803C71.2705 52.803 67.5785 53.5461 64.1394 54.9886C60.7003 56.4312 57.5829 58.5445 54.9695 61.2051C52.3561 63.8657 50.2989 67.0203 48.9181 70.4847C47.5373 73.949 46.8604 77.6538 46.9271 81.3826V114.626Z" fill="#515151"/>
<path d="M90.0898 53.5763C85.455 51.0702 80.2689 49.7578 74.9999 49.7578C69.7309 49.7578 64.545 51.0702 59.9102 53.5763L75.0044 79.7127L90.0898 53.5763Z" fill="white"/>
<path d="M106.667 121.814H43.3332C42.3801 121.814 41.466 121.435 40.792 120.761C40.118 120.087 39.7394 119.173 39.7394 118.22V81.3826C39.6647 76.7048 40.5216 72.0588 42.2601 67.7153C43.9985 63.3719 46.5839 59.4179 49.8656 56.0834C53.1472 52.749 57.0595 50.1007 61.3746 48.2931C65.6898 46.4855 70.3215 45.5547 74.9999 45.5547C79.6784 45.5547 84.31 46.4855 88.6252 48.2931C92.9403 50.1007 96.8527 52.749 100.134 56.0834C103.416 59.4179 106.001 63.3719 107.74 67.7153C109.478 72.0588 110.335 76.7048 110.26 81.3826V118.22C110.26 119.173 109.882 120.087 109.208 120.761C108.534 121.435 107.62 121.814 106.667 121.814ZM46.9271 114.626H103.073V81.3826C103.139 77.6538 102.463 73.949 101.082 70.4847C99.701 67.0203 97.6438 63.8657 95.0304 61.2051C92.417 58.5445 89.2997 56.4312 85.8605 54.9886C82.4214 53.5461 78.7293 52.803 74.9999 52.803C71.2705 52.803 67.5785 53.5461 64.1394 54.9886C60.7003 56.4312 57.5829 58.5445 54.9695 61.2051C52.3561 63.8657 50.2989 67.0203 48.9181 70.4847C47.5373 73.949 46.8604 77.6538 46.9271 81.3826V114.626Z" fill="#444444"/>
<path d="M137.826 64.8891C137.829 69.4568 136.478 73.923 133.943 77.7226C131.408 81.5222 127.803 84.4846 123.584 86.2351C119.365 87.9855 114.722 88.4454 110.241 87.5565C105.761 86.6675 101.645 84.4696 98.4136 81.2411C95.1825 78.0125 92.9816 73.8982 92.0892 69.4186C91.1968 64.9389 91.6529 60.2952 93.4001 56.0748C95.1472 51.8545 98.1069 48.2471 101.905 45.7091C105.702 43.171 110.167 41.8164 114.735 41.8164C120.856 41.8164 126.726 44.2467 131.056 48.5732C135.386 52.8996 137.821 58.7682 137.826 64.8891Z" fill="white"/>
<path d="M114.735 91.5741C109.46 91.5723 104.303 90.0063 99.918 87.0744C95.5326 84.1426 92.1149 79.9765 90.097 75.1026C88.0791 70.2286 87.5516 64.8656 88.5811 59.6919C89.6107 54.5181 92.1512 49.7659 95.8813 46.0358C99.6114 42.3057 104.364 39.7653 109.537 38.7357C114.711 37.7061 120.074 38.2335 124.948 40.2514C129.822 42.2693 133.988 45.6871 136.92 50.0726C139.852 54.458 141.418 59.6141 141.419 64.8892C141.412 71.9643 138.599 78.7476 133.596 83.7504C128.593 88.7532 121.81 91.5669 114.735 91.5741ZM114.735 45.4104C110.881 45.4122 107.113 46.5568 103.909 48.6996C100.706 50.8425 98.2093 53.8874 96.7359 57.449C95.2626 61.0106 94.8785 64.9291 95.6321 68.7091C96.3858 72.489 98.2434 75.9604 100.97 78.6846C103.697 81.4088 107.17 83.2632 110.951 84.0134C114.731 84.7636 118.65 84.3759 122.21 82.8993C125.77 81.4226 128.812 78.9234 130.952 75.7176C133.092 72.5119 134.233 68.7436 134.232 64.8892C134.225 59.7222 132.168 54.7691 128.512 51.1171C124.857 47.4651 119.902 45.4128 114.735 45.4104Z" fill="#444444"/>
<path d="M146.406 119.642C146.266 111.336 142.868 103.417 136.945 97.5924C131.021 91.7679 123.047 88.5039 114.739 88.5039C106.432 88.5039 98.4573 91.7679 92.5339 97.5924C86.6105 103.417 83.2127 111.336 83.0728 119.642V142.175H146.406V119.642Z" fill="#B8292D"/>
<path d="M146.406 145.767H83.0728C82.1196 145.767 81.2055 145.388 80.5316 144.714C79.8576 144.04 79.4789 143.126 79.4789 142.173V119.64C79.6266 110.385 83.4066 101.56 90.0031 95.0681C96.5997 88.576 105.484 84.9375 114.739 84.9375C123.995 84.9375 132.879 88.576 139.476 95.0681C146.072 101.56 149.852 110.385 150 119.64V142.173C150 143.126 149.621 144.04 148.947 144.714C148.273 145.388 147.359 145.767 146.406 145.767ZM86.6667 138.579H142.812V119.64C142.681 112.281 139.665 105.269 134.415 100.112C129.164 94.9543 122.099 92.0645 114.739 92.0645C107.38 92.0645 100.315 94.9543 95.0642 100.112C89.8138 105.269 86.7983 112.281 86.6667 119.64V138.579Z" fill="#444444"/>
<path d="M58.3468 64.8891C58.3486 69.4546 56.9964 73.9182 54.4612 77.7152C51.926 81.5121 48.3218 84.472 44.1043 86.2204C39.8868 87.9688 35.2455 88.4272 30.7675 87.5376C26.2895 86.648 22.1759 84.4503 18.947 81.2226C15.718 77.9949 13.5187 73.8822 12.6274 69.4045C11.736 64.9268 12.1927 60.2853 13.9394 56.0672C15.6862 51.849 18.6445 48.2437 22.4405 45.7071C26.2365 43.1704 30.6995 41.8164 35.265 41.8164C41.3844 41.8188 47.2526 44.2502 51.5805 48.5764C55.9084 52.9027 58.3421 58.7697 58.3468 64.8891Z" fill="white"/>
<path d="M35.2651 91.5741C29.9896 91.5741 24.8325 90.0096 20.4459 87.0788C16.0593 84.1481 12.6402 79.9825 10.621 75.1087C8.60167 70.2349 8.07282 64.8717 9.10138 59.6974C10.1299 54.523 12.6696 49.7699 16.3994 46.0389C20.1291 42.3079 24.8815 39.7667 30.0555 38.7364C35.2294 37.7061 40.5928 38.2329 45.4673 40.2506C50.3418 42.2682 54.5086 45.6859 57.4408 50.0715C60.373 54.4571 61.9391 59.6137 61.9408 64.8892C61.9337 71.9627 59.1212 78.7445 54.1203 83.7471C49.1195 88.7496 42.3386 91.5645 35.2651 91.5741ZM35.2651 45.4104C31.4104 45.4104 27.6422 46.5537 24.4373 48.6955C21.2323 50.8372 18.7345 53.8812 17.2598 57.4426C15.7851 61.0041 15.3997 64.9231 16.1524 68.7036C16.9051 72.4841 18.762 75.9565 21.4883 78.6815C24.2146 81.4066 27.6879 83.2618 31.4688 84.0127C35.2496 84.7636 39.1683 84.3765 42.7291 82.9002C46.2899 81.4238 49.3328 78.9247 51.4731 75.7187C53.6133 72.5128 54.7548 68.744 54.753 64.8892C54.7459 59.7238 52.6901 54.7721 49.0367 51.1204C45.3833 47.4687 40.4306 45.4152 35.2651 45.4104Z" fill="#444444"/>
<path d="M66.9362 119.64C66.9362 111.24 63.5994 103.184 57.6599 97.245C51.7204 91.3055 43.6647 87.9688 35.265 87.9688C26.8653 87.9688 18.8096 91.3055 12.8701 97.245C6.93062 103.184 3.59387 111.24 3.59387 119.64V142.173H66.9362V119.64Z" fill="#B8292D"/>
<path d="M66.9362 145.767H3.59389C2.64073 145.767 1.72666 145.389 1.05268 144.715C0.378693 144.041 0 143.127 0 142.174V119.64C0 110.287 3.71545 101.317 10.3289 94.7037C16.9424 88.0902 25.9122 84.375 35.265 84.375C44.6179 84.375 53.5877 88.0902 60.2012 94.7037C66.8147 101.317 70.5301 110.287 70.5301 119.64V142.174C70.5301 143.127 70.1515 144.041 69.4775 144.715C68.8035 145.389 67.8894 145.767 66.9362 145.767ZM7.18778 138.58H63.3423V119.64C63.3423 112.193 60.3842 105.052 55.1186 99.7864C49.8531 94.5208 42.7116 91.5628 35.265 91.5628C27.8185 91.5628 20.677 94.5208 15.4115 99.7864C10.146 105.052 7.18778 112.193 7.18778 119.64V138.58Z" fill="#444444"/>
</g>
<defs>
<clipPath id="clip0_1331_683">
<rect width="150" height="145.768" fill="white"/>
</clipPath>
</defs>
</svg>
