<svg width="150" height="150" viewBox="0 0 150 150" fill="none" xmlns="http://www.w3.org/2000/svg">
<g clip-path="url(#clip0_1488_3886)">
<path d="M2.41943 19.3555V133.065H55.6452V145.162H147.581V67.7426H94.3549V21.7748L2.41943 19.3555Z" fill="white"/>
<path d="M55.6452 135.483H0V36.2891H96.7742V67.7407H91.9355V41.1278H4.83871V130.644H55.6452V135.483Z" fill="#444444"/>
<path d="M96.7742 38.7078H91.9355V21.7723H4.83871V38.7078H0V16.9336H96.7742V38.7078Z" fill="#444444"/>
<path d="M92.8549 40.5978L78.3872 29.0333L92.8549 17.4688L95.8791 21.2429L86.1291 29.0333L95.8791 36.8236L92.8549 40.5978Z" fill="#444444"/>
<path d="M3.94363 40.5978L0.919434 36.8236L10.6452 29.0333L0.919434 21.2429L3.94363 17.4688L18.3872 29.0333L3.94363 40.5978Z" fill="#444444"/>
<path d="M26.613 60.4849C25.1775 60.4849 23.7742 60.0592 22.5807 59.2617C21.3871 58.4642 20.4568 57.3307 19.9075 56.0045C19.3581 54.6782 19.2144 53.2188 19.4944 51.8109C19.7745 50.403 20.4658 49.1097 21.4808 48.0946C22.4959 47.0796 23.7891 46.3883 25.1971 46.1082C26.605 45.8282 28.0643 45.9719 29.3906 46.5212C30.7168 47.0706 31.8504 48.001 32.6479 49.1946C33.4454 50.3882 33.8711 51.7914 33.8711 53.2269C33.8711 55.1518 33.1064 56.998 31.7452 58.3592C30.3841 59.7203 28.538 60.4849 26.613 60.4849ZM26.613 50.8075C26.1345 50.8075 25.6668 50.9494 25.2689 51.2152C24.8711 51.4811 24.5609 51.8589 24.3778 52.301C24.1947 52.7431 24.1469 53.2295 24.2402 53.6988C24.3336 54.1681 24.564 54.5992 24.9023 54.9376C25.2407 55.2759 25.6717 55.5064 26.141 55.5997C26.6103 55.6931 27.0968 55.6452 27.5389 55.4621C27.981 55.279 28.3588 54.9688 28.6247 54.5709C28.8905 54.1731 29.0324 53.7054 29.0324 53.2269C29.0324 52.5852 28.7775 51.9699 28.3237 51.5162C27.87 51.0625 27.2547 50.8075 26.613 50.8075Z" fill="#444444"/>
<path d="M70.1614 60.4849C68.7259 60.4849 67.3226 60.0592 66.129 59.2617C64.9354 58.4642 64.0052 57.3307 63.4558 56.0045C62.9065 54.6782 62.7627 53.2188 63.0428 51.8109C63.3228 50.403 64.0141 49.1097 65.0292 48.0946C66.0442 47.0796 67.3375 46.3883 68.7454 46.1082C70.1533 45.8282 71.6127 45.9719 72.9389 46.5212C74.2651 47.0706 75.3987 48.001 76.1963 49.1946C76.9938 50.3882 77.4194 51.7914 77.4194 53.2269C77.4194 55.1518 76.6547 56.998 75.2936 58.3592C73.9324 59.7203 72.0863 60.4849 70.1614 60.4849ZM70.1614 50.8075C69.6829 50.8075 69.2151 50.9494 68.8173 51.2152C68.4194 51.4811 68.1093 51.8589 67.9262 52.301C67.7431 52.7431 67.6952 53.2295 67.7885 53.6988C67.8819 54.1681 68.1123 54.5992 68.4507 54.9376C68.789 55.2759 69.2201 55.5064 69.6894 55.5997C70.1587 55.6931 70.6452 55.6452 71.0872 55.4621C71.5293 55.279 71.9072 54.9688 72.173 54.5709C72.4389 54.1731 72.5807 53.7054 72.5807 53.2269C72.5807 52.5852 72.3258 51.9699 71.8721 51.5162C71.4184 51.0625 70.803 50.8075 70.1614 50.8075Z" fill="#444444"/>
<path d="M72.5805 48.3875H67.7417V38.7101C67.7417 36.7851 66.977 34.9389 65.6159 33.5778C64.2547 32.2166 62.4086 31.452 60.4837 31.452H36.2901C34.3652 31.452 32.5191 32.2166 31.1579 33.5778C29.7968 34.9389 29.0321 36.7851 29.0321 38.7101V48.3875H24.1934V38.7101C24.1934 35.5018 25.4679 32.425 27.7364 30.1564C30.005 27.8878 33.0819 26.6133 36.2901 26.6133H60.4837C63.6919 26.6133 66.7688 27.8878 69.0374 30.1564C71.3059 32.425 72.5805 35.5018 72.5805 38.7101V48.3875Z" fill="#444444"/>
<path d="M72.5805 21.7742H67.7417V12.0968C67.7417 10.1718 66.977 8.32566 65.6159 6.9645C64.2547 5.60335 62.4086 4.83871 60.4837 4.83871H36.2901C34.3652 4.83871 32.5191 5.60335 31.1579 6.9645C29.7968 8.32566 29.0321 10.1718 29.0321 12.0968V21.7742H24.1934V12.0968C24.1934 8.88851 25.4679 5.81168 27.7364 3.54309C30.005 1.27451 33.0819 0 36.2901 0H60.4837C63.6919 0 66.7688 1.27451 69.0374 3.54309C71.3059 5.81168 72.5805 8.88851 72.5805 12.0968V21.7742Z" fill="#444444"/>
<path d="M58.0643 106.453H9.67725V65.3242H58.0643V106.453Z" fill="#B8292D"/>
<path d="M150 149.998H53.2256V84.6758H150V149.998ZM58.0643 145.16H145.161V89.5145H58.0643V145.16Z" fill="#444444"/>
<path d="M150 87.0984H145.161V70.1629H58.0643V87.0984H53.2256V65.3242H150V87.0984Z" fill="#444444"/>
<path d="M146.081 88.9845L131.613 77.42L146.081 65.8555L149.105 69.6297L139.355 77.42L149.105 85.2103L146.081 88.9845Z" fill="#444444"/>
<path d="M57.1692 88.9845L54.145 85.2103L63.8708 77.42L54.145 69.6297L57.1692 65.8555L71.6128 77.42L57.1692 88.9845Z" fill="#444444"/>
<path d="M79.8386 108.872C78.4031 108.872 76.9998 108.446 75.8062 107.648C74.6127 106.851 73.6824 105.717 73.1331 104.391C72.5837 103.065 72.44 101.606 72.72 100.198C73.0001 98.7897 73.6914 97.4964 74.7064 96.4813C75.7215 95.4663 77.0147 94.775 78.4227 94.4949C79.8306 94.2149 81.2899 94.3586 82.6161 94.908C83.9424 95.4573 85.076 96.3877 85.8735 97.5813C86.671 98.7749 87.0967 100.178 87.0967 101.614C87.0967 103.539 86.332 105.385 84.9708 106.746C83.6097 108.107 81.7636 108.872 79.8386 108.872ZM79.8386 99.1942C79.3601 99.1942 78.8924 99.3361 78.4945 99.602C78.0966 99.8678 77.7865 100.246 77.6034 100.688C77.4203 101.13 77.3724 101.616 77.4658 102.086C77.5591 102.555 77.7896 102.986 78.1279 103.324C78.4663 103.663 78.8973 103.893 79.3666 103.986C79.8359 104.08 80.3224 104.032 80.7645 103.849C81.2066 103.666 81.5844 103.356 81.8503 102.958C82.1161 102.56 82.258 102.092 82.258 101.614C82.258 100.972 82.0031 100.357 81.5493 99.9029C81.0956 99.4492 80.4803 99.1942 79.8386 99.1942Z" fill="#444444"/>
<path d="M123.387 108.872C121.951 108.872 120.548 108.446 119.355 107.648C118.161 106.851 117.231 105.717 116.681 104.391C116.132 103.065 115.988 101.606 116.268 100.198C116.548 98.7897 117.24 97.4964 118.255 96.4813C119.27 95.4663 120.563 94.775 121.971 94.4949C123.379 94.2149 124.838 94.3586 126.164 94.908C127.491 95.4573 128.624 96.3877 129.422 97.5813C130.219 98.7749 130.645 100.178 130.645 101.614C130.645 103.539 129.88 105.385 128.519 106.746C127.158 108.107 125.312 108.872 123.387 108.872ZM123.387 99.1942C122.908 99.1942 122.441 99.3361 122.043 99.602C121.645 99.8678 121.335 100.246 121.152 100.688C120.969 101.13 120.921 101.616 121.014 102.086C121.107 102.555 121.338 102.986 121.676 103.324C122.015 103.663 122.446 103.893 122.915 103.986C123.384 104.08 123.871 104.032 124.313 103.849C124.755 103.666 125.133 103.356 125.399 102.958C125.664 102.56 125.806 102.092 125.806 101.614C125.806 100.972 125.551 100.357 125.098 99.9029C124.644 99.4492 124.029 99.1942 123.387 99.1942Z" fill="#444444"/>
<path d="M125.807 96.7742H120.968V87.0968C120.968 85.1718 120.203 83.3257 118.842 81.9645C117.481 80.6034 115.635 79.8387 113.71 79.8387H89.5162C87.5912 79.8387 85.7452 80.6034 84.384 81.9645C83.0229 83.3257 82.2581 85.1718 82.2581 87.0968V96.7742H77.4194V87.0968C77.4194 83.8885 78.6939 80.8117 80.9625 78.5431C83.2311 76.2745 86.3079 75 89.5162 75H113.71C116.918 75 119.995 76.2745 122.263 78.5431C124.532 80.8117 125.807 83.8885 125.807 87.0968V96.7742Z" fill="#444444"/>
<path d="M125.807 70.1609H120.968V60.4835C120.968 58.5585 120.203 56.7124 118.842 55.3512C117.481 53.9901 115.635 53.2254 113.71 53.2254H89.5162C87.5912 53.2254 85.7452 53.9901 84.384 55.3512C83.0229 56.7124 82.2581 58.5585 82.2581 60.4835V70.1609H77.4194V60.4835C77.4194 57.2752 78.6939 54.1984 80.9625 51.9298C83.2311 49.6612 86.3079 48.3867 89.5162 48.3867H113.71C116.918 48.3867 119.995 49.6612 122.263 51.9298C124.532 54.1984 125.807 57.2752 125.807 60.4835V70.1609Z" fill="#444444"/>
</g>
<defs>
<clipPath id="clip0_1488_3886">
<rect width="150" height="150" fill="white"/>
</clipPath>
</defs>
</svg>
