<svg width="150" height="152" viewBox="0 0 150 152" fill="none" xmlns="http://www.w3.org/2000/svg">
<g clip-path="url(#clip0_1488_3856)">
<path d="M25.8032 44.293H145.647L126.08 112.775H42.9237L25.8032 44.293Z" fill="white"/>
<path d="M68.4819 51.3633H63.5903V100.279H68.4819V51.3633Z" fill="#B8292D"/>
<path d="M88.0483 51.3633H83.1567V100.279H88.0483V51.3633Z" fill="#B8292D"/>
<path d="M107.615 51.3633H102.723V100.279H107.615V51.3633Z" fill="#B8292D"/>
<path d="M129.04 114.95H39.6462L15.1883 12.2275H0V7.33594H19.0527L27.1972 41.5769H150L129.04 114.95ZM43.4372 110.059H125.347L143.519 46.4685H28.3711L43.4372 110.059Z" fill="#444444"/>
<path d="M36.6869 134.516H34.2411C30.9978 134.516 27.8873 133.228 25.594 130.935C23.3006 128.641 22.0122 125.531 22.0122 122.288C22.0122 119.044 23.3006 115.934 25.594 113.64C27.8873 111.347 30.9978 110.059 34.2411 110.059H44.0243V114.95H34.2411C32.2951 114.95 30.4289 115.723 29.0528 117.099C27.6768 118.475 26.9038 120.342 26.9038 122.288C26.9038 124.234 27.6768 126.1 29.0528 127.476C30.4289 128.852 32.2951 129.625 34.2411 129.625H36.6869V134.516Z" fill="#444444"/>
<path d="M112.506 151.638C109.604 151.638 106.767 150.778 104.353 149.165C101.94 147.553 100.059 145.261 98.9486 142.579C97.8379 139.898 97.5473 136.948 98.1135 134.101C98.6797 131.254 100.077 128.639 102.13 126.587C104.182 124.535 106.797 123.137 109.643 122.571C112.49 122.005 115.441 122.295 118.122 123.406C120.803 124.517 123.095 126.398 124.708 128.811C126.32 131.224 127.181 134.061 127.181 136.964C127.181 140.856 125.635 144.588 122.883 147.34C120.131 150.092 116.398 151.638 112.506 151.638ZM112.506 127.181C110.571 127.181 108.68 127.754 107.071 128.829C105.462 129.904 104.208 131.432 103.468 133.22C102.727 135.007 102.534 136.975 102.911 138.872C103.289 140.77 104.22 142.513 105.589 143.881C106.957 145.25 108.7 146.181 110.598 146.559C112.495 146.936 114.463 146.743 116.25 146.002C118.038 145.262 119.566 144.008 120.641 142.399C121.716 140.79 122.289 138.899 122.289 136.964C122.289 134.369 121.259 131.881 119.424 130.046C117.589 128.211 115.101 127.181 112.506 127.181Z" fill="#444444"/>
<path d="M112.506 139.411C113.857 139.411 114.952 138.316 114.952 136.965C114.952 135.615 113.857 134.52 112.506 134.52C111.156 134.52 110.061 135.615 110.061 136.965C110.061 138.316 111.156 139.411 112.506 139.411Z" fill="#444444"/>
<path d="M48.9159 151.638C46.0135 151.638 43.1763 150.778 40.7631 149.165C38.3498 147.553 36.469 145.261 35.3583 142.579C34.2476 139.898 33.957 136.948 34.5232 134.101C35.0894 131.254 36.487 128.639 38.5393 126.587C40.5916 124.535 43.2064 123.137 46.053 122.571C48.8997 122.005 51.8502 122.295 54.5317 123.406C57.2131 124.517 59.505 126.398 61.1175 128.811C62.73 131.224 63.5906 134.061 63.5906 136.964C63.5906 140.856 62.0445 144.588 59.2925 147.34C56.5405 150.092 52.8079 151.638 48.9159 151.638ZM48.9159 127.181C46.981 127.181 45.0895 127.754 43.4807 128.829C41.8719 129.904 40.6179 131.432 39.8775 133.22C39.137 135.007 38.9433 136.975 39.3208 138.872C39.6982 140.77 40.63 142.513 41.9982 143.881C43.3664 145.25 45.1096 146.181 47.0073 146.559C48.9051 146.936 50.8721 146.743 52.6597 146.002C54.4474 145.262 55.9753 144.008 57.0503 142.399C58.1253 140.79 58.699 138.899 58.699 136.964C58.699 134.369 57.6683 131.881 55.8336 130.046C53.9989 128.211 51.5106 127.181 48.9159 127.181Z" fill="#444444"/>
<path d="M48.9155 139.411C50.2663 139.411 51.3613 138.316 51.3613 136.965C51.3613 135.615 50.2663 134.52 48.9155 134.52C47.5647 134.52 46.4697 135.615 46.4697 136.965C46.4697 138.316 47.5647 139.411 48.9155 139.411Z" fill="#444444"/>
<path d="M100.277 129.625H61.1445V134.517H100.277V129.625Z" fill="#444444"/>
<path d="M129.626 58.6992H44.0239V63.5908H129.626V58.6992Z" fill="#444444"/>
<path d="M124.735 73.375H46.4697V78.2666H124.735V73.375Z" fill="#444444"/>
<path d="M119.843 88.0469H48.9155V92.9385H119.843V88.0469Z" fill="#444444"/>
<path d="M80.9068 45.0025L76.431 43.0459C77.8971 39.6959 78.5055 36.0334 78.2012 32.3892C77.8969 28.7451 76.6896 25.2341 74.6882 22.1736C72.6868 19.1131 69.9544 16.5993 66.738 14.8595C63.5215 13.1198 59.9223 12.2086 56.2655 12.2086C52.6086 12.2086 49.0094 13.1198 45.793 14.8595C42.5765 16.5993 39.8442 19.1131 37.8428 22.1736C35.8414 25.2341 34.634 28.7451 34.3297 32.3892C34.0254 36.0334 34.6339 39.6959 36.1 43.0459L31.5997 45.0025C29.811 40.9082 29.0701 36.4328 29.444 31.9805C29.8179 27.5281 31.2947 23.239 33.7413 19.5003C36.1878 15.7616 39.5269 12.6911 43.4572 10.566C47.3875 8.44088 51.7852 7.32812 56.2532 7.32812C60.7213 7.32812 65.1189 8.44088 69.0492 10.566C72.9795 12.6911 76.3187 15.7616 78.7652 19.5003C81.2117 23.239 82.6886 27.5281 83.0625 31.9805C83.4364 36.4328 82.6955 40.9082 80.9068 45.0025Z" fill="#444444"/>
<path d="M65.8405 45.004C63.6399 39.996 63.0181 34.4363 64.0581 29.0659C65.0981 23.6955 67.7504 18.7697 71.6614 14.9453L75.0855 18.4428C71.9165 21.563 69.767 25.57 68.92 29.9359C68.073 34.3018 68.5683 38.8218 70.3407 42.9006L65.8405 45.004Z" fill="#444444"/>
<path d="M46.6655 45.0017L42.1897 43.0451C43.9591 38.9639 44.4505 34.4424 43.5991 30.0764C42.7477 25.7104 40.5935 21.7047 37.4204 18.5873L40.8445 15.0898C44.7354 18.9064 47.3753 23.8147 48.4148 29.1649C49.4542 34.5151 48.8442 40.0549 46.6655 45.0507V45.0017Z" fill="#444444"/>
<path d="M144.301 44.0233H139.41C139.41 38.5448 138.456 29.3486 132.073 29.3486C126.423 29.3486 124.735 37.1016 124.735 37.1995C124.616 37.7557 124.306 38.253 123.86 38.6057C123.413 38.9583 122.858 39.1444 122.289 39.1317C121.717 39.1433 121.159 38.9538 120.712 38.5963C120.265 38.2388 119.958 37.7359 119.844 37.1751C119.844 37.1751 118.107 29.3486 112.506 29.3486C106.123 29.3486 105.169 38.5448 105.169 44.0233H100.277C100.277 26.3647 108.838 24.457 112.506 24.457C114.512 24.477 116.475 25.0315 118.195 26.0633C119.915 27.0951 121.328 28.5668 122.289 30.3268C123.251 28.5668 124.664 27.0951 126.384 26.0633C128.103 25.0315 130.067 24.477 132.073 24.457C135.864 24.457 144.301 26.3647 144.301 44.0233Z" fill="#444444"/>
<path d="M124.735 34.2425H119.843V24.4594C119.843 21.2161 121.132 18.1056 123.425 15.8123C125.718 13.5189 128.829 12.2305 132.072 12.2305V17.122C130.126 17.122 128.26 17.895 126.884 19.2711C125.508 20.6471 124.735 22.5134 124.735 24.4594V34.2425Z" fill="#444444"/>
<path d="M100.228 44.5865L95.4589 43.4613L102.478 13.6472C102.722 12.5983 102.725 11.508 102.488 10.4576C102.251 9.4072 101.779 8.42408 101.109 7.58172C100.278 6.54449 99.174 5.75968 97.9215 5.31552C96.6689 4.87136 95.3173 4.78547 94.0186 5.06757C92.72 5.34967 91.5258 5.98859 90.5704 6.91236C89.615 7.83612 88.9363 9.00806 88.6106 10.2965L83.0832 32.3086L78.3384 31.1346L83.8658 9.12258C84.2384 7.58892 84.9094 6.14366 85.8405 4.86933C86.7717 3.59499 87.9446 2.51652 89.2925 1.69551C90.6404 0.874497 92.1369 0.327032 93.6964 0.0843405C95.2559 -0.158351 96.8479 -0.0914846 98.3815 0.28109C99.9152 0.653665 101.36 1.32463 102.635 2.25575C103.909 3.18687 104.988 4.35991 105.809 5.70782C106.63 7.05574 107.177 8.55221 107.42 10.1117C107.662 11.6712 107.596 13.2632 107.223 14.7968L100.228 44.5865Z" fill="#444444"/>
<path d="M88.6613 19.7741L87.4746 24.5195L97.2502 26.9641L98.4369 22.2187L88.6613 19.7741Z" fill="#444444"/>
<path d="M86.2101 29.5592L85.0234 34.3047L94.799 36.7493L95.9857 32.0038L86.2101 29.5592Z" fill="#444444"/>
</g>
<defs>
<clipPath id="clip0_1488_3856">
<rect width="150" height="151.639" fill="white"/>
</clipPath>
</defs>
</svg>
