<svg width="148" height="148" viewBox="0 0 148 148" fill="none" xmlns="http://www.w3.org/2000/svg">
<g filter="url(#filter0_d_1014_47)">
<circle cx="69" cy="67" r="66" fill="white"/>
</g>
<path d="M42.2168 64.175C42.2168 62.7917 42.4251 61.4917 42.8418 60.275C43.2751 59.0583 43.9001 58 44.7168 57.1C45.5501 56.2 46.5751 55.4917 47.7918 54.975C49.0085 54.4417 50.4168 54.175 52.0168 54.175C53.6168 54.175 54.9918 54.4083 56.1418 54.875C57.2918 55.3417 58.3501 56.0833 59.3168 57.1L57.4668 59.15C56.7168 58.3 55.9085 57.7 55.0418 57.35C54.1751 57 53.1668 56.825 52.0168 56.825C50.9668 56.825 50.0251 57 49.1918 57.35C48.3751 57.6833 47.6835 58.175 47.1168 58.825C46.5501 59.4583 46.1168 60.2333 45.8168 61.15C45.5335 62.05 45.3918 63.0583 45.3918 64.175C45.3918 65.3083 45.5418 66.325 45.8418 67.225C46.1585 68.125 46.6001 68.9 47.1668 69.55C47.7501 70.1833 48.4585 70.675 49.2918 71.025C50.1251 71.3583 51.0668 71.525 52.1168 71.525C53.2668 71.525 54.2918 71.35 55.1918 71C56.0918 70.65 56.9168 70.05 57.6668 69.2L59.5168 71.25C58.5501 72.2667 57.4751 73.0083 56.2918 73.475C55.1085 73.9417 53.7168 74.175 52.1168 74.175C50.5168 74.175 49.1001 73.9083 47.8668 73.375C46.6501 72.8583 45.6168 72.15 44.7668 71.25C43.9335 70.35 43.3001 69.2917 42.8668 68.075C42.4335 66.8583 42.2168 65.5583 42.2168 64.175ZM73.6283 57.175H65.1533V62.6H72.9033V65.225H65.1533V71.25H73.9283V73.95H62.0283V54.475H73.6283V57.175ZM85.7576 74.2C84.2076 74.2 82.816 73.9417 81.5826 73.425C80.366 72.9083 79.341 72.2 78.5076 71.3C77.6743 70.3833 77.0326 69.3167 76.5826 68.1C76.1493 66.8667 75.9326 65.55 75.9326 64.15C75.9326 62.7167 76.1576 61.3917 76.6076 60.175C77.0743 58.9417 77.7326 57.875 78.5826 56.975C79.4493 56.075 80.491 55.375 81.7076 54.875C82.941 54.3583 84.3243 54.1 85.8576 54.1C87.391 54.1 88.766 54.3667 89.9826 54.9C91.216 55.4167 92.2576 56.1333 93.1076 57.05C93.9743 57.95 94.6326 59.0167 95.0826 60.25C95.5493 61.4667 95.7826 62.7667 95.7826 64.15C95.7826 65.5833 95.541 66.9167 95.0576 68.15C94.591 69.3667 93.916 70.425 93.0326 71.325C92.166 72.225 91.116 72.925 89.8826 73.425C88.6493 73.9417 87.2743 74.2 85.7576 74.2ZM85.8576 56.7C84.8076 56.7 83.8576 56.875 83.0076 57.225C82.1743 57.575 81.4576 58.075 80.8576 58.725C80.2743 59.375 79.8243 60.1583 79.5076 61.075C79.191 61.9917 79.0326 63.0167 79.0326 64.15C79.0326 65.3833 79.1993 66.4667 79.5326 67.4C79.8826 68.3167 80.366 69.0917 80.9826 69.725C81.5993 70.3417 82.316 70.8083 83.1326 71.125C83.966 71.4417 84.8743 71.6 85.8576 71.6C86.9076 71.6 87.8493 71.425 88.6826 71.075C89.5326 70.7083 90.2493 70.2 90.8326 69.55C91.4326 68.9 91.891 68.1167 92.2076 67.2C92.5243 66.2833 92.6826 65.2667 92.6826 64.15C92.6826 62.95 92.5076 61.8917 92.1576 60.975C91.8243 60.0417 91.3576 59.2583 90.7576 58.625C90.1576 57.9917 89.441 57.5167 88.6076 57.2C87.7743 56.8667 86.8576 56.7 85.8576 56.7Z" fill="#1A1A1A"/>
<defs>
<filter id="filter0_d_1014_47" x="0" y="0" width="148" height="148" filterUnits="userSpaceOnUse" color-interpolation-filters="sRGB">
<feFlood flood-opacity="0" result="BackgroundImageFix"/>
<feColorMatrix in="SourceAlpha" type="matrix" values="0 0 0 0 0 0 0 0 0 0 0 0 0 0 0 0 0 0 127 0" result="hardAlpha"/>
<feOffset dx="5" dy="7"/>
<feGaussianBlur stdDeviation="4"/>
<feComposite in2="hardAlpha" operator="out"/>
<feColorMatrix type="matrix" values="0 0 0 0 0 0 0 0 0 0 0 0 0 0 0 0 0 0 0.25 0"/>
<feBlend mode="normal" in2="BackgroundImageFix" result="effect1_dropShadow_1014_47"/>
<feBlend mode="normal" in="SourceGraphic" in2="effect1_dropShadow_1014_47" result="shape"/>
</filter>
</defs>
</svg>
