<svg width="758" height="758" viewBox="0 0 758 758" fill="none" xmlns="http://www.w3.org/2000/svg">
<path d="M5.33045 378.671C5.33045 192.671 141.33 38.5005 319.26 10.0405L318.411 4.77051C137.921 33.6405 0.000369223 190.041 0.000369223 378.671C-0.0821854 437.671 13.6801 495.867 40.1805 548.58L44.9406 546.19C18.8137 494.218 5.24661 436.84 5.33045 378.671V378.671Z" fill="white"/>
<path d="M378.671 3.80027e-06C358.49 -0.0028416 338.34 1.59216 318.411 4.77002L319.26 10.04C338.908 6.90279 358.774 5.32777 378.671 5.32996C584.851 5.32996 752 172.48 752 378.67C752 584.86 584.851 752 378.671 752C232.721 752 106.341 668.25 44.9407 546.19L40.1807 548.58C102.451 672.38 230.631 757.33 378.671 757.33C587.801 757.33 757.331 587.8 757.331 378.67C757.331 169.54 587.801 3.80027e-06 378.671 3.80027e-06Z" fill="#B8292D"/>
<path d="M378.495 151C366.372 150.999 354.267 151.96 342.296 153.874C233.854 171.211 151.001 265.182 151.001 378.511C150.948 413.956 159.212 448.919 175.13 480.589C194.062 518.298 223.109 549.999 259.022 572.148C294.936 594.297 336.301 606.022 378.495 606.011C504.139 606.011 605.989 504.158 605.989 378.511C605.989 252.865 504.139 151 378.495 151ZM378.495 602.811C336.895 602.82 296.113 591.259 260.705 569.421C225.297 547.584 196.66 516.33 177.993 479.152C162.302 447.927 154.153 413.457 154.201 378.511C154.201 266.777 235.897 174.153 342.834 157.041C354.639 155.152 366.575 154.206 378.529 154.211C502.398 154.211 602.823 254.628 602.823 378.511C602.823 502.395 502.365 602.845 378.495 602.845V602.811Z" fill="#C4C4C4"/>
</svg>
