<svg width="578" height="582" viewBox="0 0 578 582" fill="none" xmlns="http://www.w3.org/2000/svg">
<path d="M217.351 82.9051C322.556 46.7133 436.221 93.6393 486.94 188.742L489.756 187.236C438.306 90.7649 323.007 43.1867 216.314 79.8903C182.926 91.3238 152.687 110.432 128.027 135.678L130.306 137.905C154.618 113.015 184.433 94.1764 217.351 82.9051Z" fill="white"/>
<path d="M504.179 220.393C500.254 208.977 495.431 197.89 489.756 187.236L486.94 188.743C492.538 199.245 497.294 210.175 501.165 221.43C541.283 338.049 479.263 465.117 362.638 505.237C246.013 545.358 118.951 483.336 78.8324 366.717C50.4335 284.164 73.2133 196.385 130.306 137.905L128.028 135.678C70.1204 194.988 47.0121 284.019 75.8177 367.754C116.51 486.042 245.387 548.945 363.675 508.252C481.963 467.56 544.872 338.681 504.179 220.393Z" fill="#B8292D"/>
<path d="M305.632 128.209C296.866 128.208 288.113 128.903 279.457 130.287C201.045 142.823 141.136 210.772 141.136 292.717C141.098 318.347 147.074 343.628 158.584 366.527C172.273 393.794 193.276 416.716 219.244 432.731C245.212 448.747 275.123 457.225 305.632 457.217C396.482 457.217 470.128 383.569 470.128 292.717C470.128 201.865 396.482 128.209 305.632 128.209ZM305.632 454.903C275.552 454.909 246.063 446.55 220.461 430.76C194.859 414.97 174.151 392.37 160.654 365.488C149.308 342.91 143.416 317.986 143.45 292.717C143.45 211.924 202.523 144.95 279.847 132.577C288.382 131.211 297.013 130.527 305.657 130.531C395.224 130.531 467.839 203.14 467.839 292.717C467.839 382.295 395.199 454.928 305.632 454.928V454.903Z" fill="#C4C4C4"/>
<g clip-path="url(#clip0_1022_64)">
<g filter="url(#filter0_d_1022_64)">
<circle cx="305.136" cy="293.209" r="50" fill="#B8292D"/>
</g>
<path d="M302.336 282.419H291.686V288.869H301.376V292.019H291.686V302.549H287.936V279.179H302.336V282.419ZM322.288 286.829C322.288 287.789 322.108 288.729 321.748 289.649C321.388 290.569 320.878 291.389 320.218 292.109C319.558 292.809 318.768 293.379 317.848 293.819C316.948 294.239 315.958 294.449 314.878 294.449H309.088V302.549H305.338V279.179H314.878C315.958 279.179 316.948 279.399 317.848 279.839C318.768 280.259 319.558 280.829 320.218 281.549C320.878 282.269 321.388 283.089 321.748 284.009C322.108 284.929 322.288 285.869 322.288 286.829ZM314.698 291.269C315.318 291.269 315.868 291.159 316.348 290.939C316.848 290.699 317.268 290.379 317.608 289.979C317.948 289.579 318.198 289.109 318.358 288.569C318.538 288.029 318.628 287.449 318.628 286.829C318.628 286.209 318.538 285.629 318.358 285.089C318.198 284.549 317.948 284.079 317.608 283.679C317.268 283.259 316.848 282.939 316.348 282.719C315.868 282.479 315.318 282.359 314.698 282.359H309.088V291.269H314.698Z" fill="white"/>
</g>
<g filter="url(#filter1_d_1022_64)">
<circle cx="171.136" cy="362.209" r="30" fill="white"/>
</g>
<path d="M154.495 363.201C154.495 362.316 154.628 361.484 154.895 360.705C155.172 359.926 155.572 359.249 156.095 358.673C156.628 358.097 157.284 357.644 158.063 357.313C158.842 356.972 159.743 356.801 160.767 356.801C161.791 356.801 162.671 356.95 163.407 357.249C164.143 357.548 164.82 358.022 165.439 358.673L164.255 359.985C163.775 359.441 163.258 359.057 162.703 358.833C162.148 358.609 161.503 358.497 160.767 358.497C160.095 358.497 159.492 358.609 158.959 358.833C158.436 359.046 157.994 359.361 157.631 359.777C157.268 360.182 156.991 360.678 156.799 361.265C156.618 361.841 156.527 362.486 156.527 363.201C156.527 363.926 156.623 364.577 156.815 365.153C157.018 365.729 157.3 366.225 157.663 366.641C158.036 367.046 158.49 367.361 159.023 367.585C159.556 367.798 160.159 367.905 160.831 367.905C161.567 367.905 162.223 367.793 162.799 367.569C163.375 367.345 163.903 366.961 164.383 366.417L165.567 367.729C164.948 368.38 164.26 368.854 163.503 369.153C162.746 369.452 161.855 369.601 160.831 369.601C159.807 369.601 158.9 369.43 158.111 369.089C157.332 368.758 156.671 368.305 156.127 367.729C155.594 367.153 155.188 366.476 154.911 365.697C154.634 364.918 154.495 364.086 154.495 363.201ZM174.598 358.721H169.174V362.193H174.134V363.873H169.174V367.729H174.79V369.457H167.174V356.993H174.598V358.721ZM182.361 369.617C181.369 369.617 180.478 369.452 179.689 369.121C178.91 368.79 178.254 368.337 177.721 367.761C177.188 367.174 176.777 366.492 176.489 365.713C176.212 364.924 176.073 364.081 176.073 363.185C176.073 362.268 176.217 361.42 176.505 360.641C176.804 359.852 177.225 359.169 177.769 358.593C178.324 358.017 178.99 357.569 179.769 357.249C180.558 356.918 181.444 356.753 182.425 356.753C183.406 356.753 184.286 356.924 185.065 357.265C185.854 357.596 186.521 358.054 187.065 358.641C187.62 359.217 188.041 359.9 188.329 360.689C188.628 361.468 188.777 362.3 188.777 363.185C188.777 364.102 188.622 364.956 188.313 365.745C188.014 366.524 187.582 367.201 187.017 367.777C186.462 368.353 185.79 368.801 185.001 369.121C184.212 369.452 183.332 369.617 182.361 369.617ZM182.425 358.417C181.753 358.417 181.145 358.529 180.601 358.753C180.068 358.977 179.609 359.297 179.225 359.713C178.852 360.129 178.564 360.63 178.361 361.217C178.158 361.804 178.057 362.46 178.057 363.185C178.057 363.974 178.164 364.668 178.377 365.265C178.601 365.852 178.91 366.348 179.305 366.753C179.7 367.148 180.158 367.446 180.681 367.649C181.214 367.852 181.796 367.953 182.425 367.953C183.097 367.953 183.7 367.841 184.233 367.617C184.777 367.382 185.236 367.057 185.609 366.641C185.993 366.225 186.286 365.724 186.489 365.137C186.692 364.55 186.793 363.9 186.793 363.185C186.793 362.417 186.681 361.74 186.457 361.153C186.244 360.556 185.945 360.054 185.561 359.649C185.177 359.244 184.718 358.94 184.185 358.737C183.652 358.524 183.065 358.417 182.425 358.417Z" fill="#1A1A1A"/>
<g filter="url(#filter2_d_1022_64)">
<circle cx="228.136" cy="488.209" r="40" fill="white"/>
</g>
<path d="M221.575 481.457H213.815V468.993H215.815V479.729H221.575V481.457ZM229.834 481.457V480.593C229.461 480.977 229.039 481.238 228.57 481.377C228.111 481.526 227.653 481.601 227.194 481.601C226.543 481.601 225.941 481.489 225.386 481.265C224.831 481.041 224.346 480.732 223.93 480.337C223.525 479.942 223.205 479.473 222.97 478.929C222.735 478.385 222.618 477.788 222.618 477.137C222.618 476.486 222.735 475.889 222.97 475.345C223.205 474.79 223.525 474.316 223.93 473.921C224.346 473.516 224.831 473.201 225.386 472.977C225.941 472.742 226.543 472.625 227.194 472.625C227.642 472.625 228.101 472.716 228.57 472.897C229.039 473.068 229.461 473.345 229.834 473.729V472.769H231.834V481.457H229.834ZM227.194 474.321C226.799 474.321 226.442 474.396 226.122 474.545C225.802 474.694 225.53 474.897 225.306 475.153C225.082 475.409 224.906 475.708 224.778 476.049C224.661 476.39 224.602 476.753 224.602 477.137C224.602 477.521 224.661 477.884 224.778 478.225C224.906 478.556 225.082 478.849 225.306 479.105C225.53 479.35 225.802 479.548 226.122 479.697C226.442 479.836 226.799 479.905 227.194 479.905C227.589 479.905 227.946 479.836 228.266 479.697C228.586 479.548 228.858 479.35 229.082 479.105C229.317 478.849 229.493 478.556 229.61 478.225C229.738 477.884 229.802 477.521 229.802 477.137C229.802 476.753 229.738 476.39 229.61 476.049C229.493 475.708 229.317 475.409 229.082 475.153C228.858 474.897 228.586 474.694 228.266 474.545C227.946 474.396 227.589 474.321 227.194 474.321ZM233.752 481.457V468.993H235.752V473.441C236.115 473.185 236.51 472.988 236.936 472.849C237.374 472.7 237.832 472.625 238.312 472.625C238.963 472.625 239.566 472.742 240.12 472.977C240.675 473.201 241.155 473.516 241.56 473.921C241.966 474.316 242.28 474.79 242.504 475.345C242.739 475.889 242.856 476.486 242.856 477.137C242.856 477.788 242.739 478.385 242.504 478.929C242.28 479.473 241.966 479.942 241.56 480.337C241.155 480.732 240.675 481.041 240.12 481.265C239.566 481.489 238.963 481.601 238.312 481.601C237.832 481.601 237.363 481.516 236.904 481.345C236.446 481.174 236.062 480.918 235.752 480.577V481.457H233.752ZM238.312 474.321C237.576 474.321 236.979 474.545 236.52 474.993C236.072 475.43 235.816 476.022 235.752 476.769V477.505C235.816 478.252 236.072 478.838 236.52 479.265C236.979 479.692 237.576 479.905 238.312 479.905C239.112 479.905 239.736 479.66 240.184 479.169C240.643 478.678 240.872 478.001 240.872 477.137C240.872 476.273 240.643 475.59 240.184 475.089C239.736 474.577 239.112 474.321 238.312 474.321ZM205.634 505.801C205.282 505.652 204.946 505.486 204.626 505.305C204.316 505.124 204.023 504.926 203.746 504.713C203.17 504.286 202.69 503.774 202.306 503.177C201.89 502.601 201.58 501.94 201.378 501.193C201.154 500.457 201.042 499.614 201.042 498.665C201.042 496.894 201.436 495.412 202.226 494.217C203.004 493.022 204.14 492.121 205.634 491.513V493.449C205.154 493.726 204.764 494.009 204.466 494.297C204.146 494.606 203.863 494.98 203.618 495.417C203.372 495.854 203.196 496.334 203.09 496.857C202.962 497.401 202.898 498.004 202.898 498.665C202.898 500.009 203.138 501.081 203.618 501.881C204.076 502.713 204.748 503.369 205.634 503.849V505.801ZM214.986 495.177C214.986 495.753 214.89 496.265 214.698 496.713C214.485 497.193 214.213 497.593 213.882 497.913C213.53 498.254 213.13 498.51 212.682 498.681C212.213 498.873 211.717 498.969 211.194 498.969C210.639 498.969 210.138 498.873 209.69 498.681C209.221 498.51 208.821 498.254 208.49 497.913C208.17 497.625 207.903 497.225 207.69 496.713C207.498 496.265 207.402 495.753 207.402 495.177C207.402 494.633 207.498 494.121 207.69 493.641C207.903 493.14 208.17 492.74 208.49 492.441C208.863 492.089 209.263 491.828 209.69 491.657C210.17 491.476 210.671 491.385 211.194 491.385C211.695 491.385 212.191 491.476 212.682 491.657C213.098 491.828 213.498 492.089 213.882 492.441C214.213 492.782 214.485 493.182 214.698 493.641C214.89 494.121 214.986 494.633 214.986 495.177ZM213.066 495.177C213.066 494.526 212.89 494.009 212.538 493.625C212.165 493.262 211.722 493.081 211.21 493.081C210.666 493.081 210.213 493.262 209.85 493.625C209.487 493.988 209.306 494.505 209.306 495.177C209.306 495.86 209.487 496.377 209.85 496.729C210.202 497.092 210.655 497.273 211.21 497.273C211.466 497.273 211.706 497.225 211.93 497.129C212.154 497.054 212.351 496.921 212.522 496.729C212.682 496.548 212.815 496.329 212.922 496.073C213.018 495.817 213.066 495.518 213.066 495.177ZM219.178 505.721H211.834C211.194 505.721 210.677 505.582 210.282 505.305C209.898 505.028 209.706 504.617 209.706 504.073V500.585H211.626V503.561C211.626 503.86 211.781 504.009 212.09 504.009H219.178V505.721ZM215.066 497.593V496.025H217.146V494.233H215.066V492.665H217.146V491.081H219.066V500.825H217.146V497.593H215.066ZM233.161 491.673C233.161 493.081 233.102 494.34 232.985 495.449C232.878 496.558 232.723 497.497 232.521 498.265L230.745 497.961C230.947 497.193 231.081 496.414 231.145 495.625C231.209 494.825 231.241 494.073 231.241 493.369H223.097V491.673H233.161ZM227.161 506.121V500.889H221.321V499.193H234.969V500.889H229.113V506.121H227.161ZM243.831 499.177V502.601H249.687V504.297H236.039V502.601H241.895V499.177H243.831ZM242.871 496.185C242.733 496.494 242.567 496.772 242.375 497.017C242.194 497.262 241.997 497.508 241.783 497.753C241.261 498.361 240.658 498.857 239.975 499.241C239.303 499.614 238.599 499.908 237.863 500.121L236.807 498.793C237.575 498.548 238.263 498.238 238.871 497.865C239.479 497.481 240.039 497.012 240.551 496.457C240.957 495.977 241.271 495.486 241.495 494.985C241.73 494.484 241.847 493.945 241.847 493.369V491.945H243.847V493.369C243.847 493.977 243.97 494.537 244.215 495.049C244.461 495.55 244.775 496.014 245.159 496.441C245.703 497.049 246.285 497.54 246.903 497.913C247.522 498.276 248.183 498.564 248.887 498.777L247.831 500.121C247.031 499.886 246.301 499.577 245.639 499.193C244.989 498.798 244.391 498.281 243.847 497.641C243.666 497.417 243.495 497.188 243.335 496.953C243.175 496.708 243.021 496.452 242.871 496.185ZM250.662 503.849C251.537 503.358 252.214 502.702 252.694 501.881C253.164 501.06 253.398 499.988 253.398 498.665C253.398 498.324 253.382 498.009 253.35 497.721C253.318 497.422 253.276 497.134 253.222 496.857C253.094 496.334 252.918 495.854 252.694 495.417C252.577 495.214 252.444 495.022 252.294 494.841C252.156 494.649 252.001 494.468 251.83 494.297C251.649 494.137 251.462 493.988 251.27 493.849C251.078 493.71 250.876 493.577 250.662 493.449V491.513C252.134 492.121 253.276 493.022 254.086 494.217C254.876 495.422 255.27 496.905 255.27 498.665C255.27 499.582 255.164 500.425 254.95 501.193C254.737 501.918 254.422 502.58 254.006 503.177C253.569 503.774 253.084 504.286 252.55 504.713C252.262 504.926 251.958 505.124 251.638 505.305C251.329 505.486 251.004 505.652 250.662 505.801V503.849Z" fill="#1A1A1A"/>
<g filter="url(#filter3_d_1022_64)">
<circle cx="81.1361" cy="173.209" r="40" fill="white"/>
</g>
<path d="M65.7182 166.993V179.457H63.7342V170.625L59.4462 177.633L55.1582 170.625V179.457H53.1742V166.993H54.9342L59.4462 174.433L63.9902 166.993H65.7182ZM74.459 179.457V178.593C74.0857 178.977 73.6643 179.238 73.195 179.377C72.7363 179.526 72.2777 179.601 71.819 179.601C71.1683 179.601 70.5657 179.489 70.011 179.265C69.4563 179.041 68.971 178.732 68.555 178.337C68.1497 177.942 67.8297 177.473 67.595 176.929C67.3603 176.385 67.243 175.788 67.243 175.137C67.243 174.486 67.3603 173.889 67.595 173.345C67.8297 172.79 68.1497 172.316 68.555 171.921C68.971 171.516 69.4563 171.201 70.011 170.977C70.5657 170.742 71.1683 170.625 71.819 170.625C72.267 170.625 72.7257 170.716 73.195 170.897C73.6643 171.068 74.0857 171.345 74.459 171.729V170.769H76.459V179.457H74.459ZM71.819 172.321C71.4243 172.321 71.067 172.396 70.747 172.545C70.427 172.694 70.155 172.897 69.931 173.153C69.707 173.409 69.531 173.708 69.403 174.049C69.2857 174.39 69.227 174.753 69.227 175.137C69.227 175.521 69.2857 175.884 69.403 176.225C69.531 176.556 69.707 176.849 69.931 177.105C70.155 177.35 70.427 177.548 70.747 177.697C71.067 177.836 71.4243 177.905 71.819 177.905C72.2137 177.905 72.571 177.836 72.891 177.697C73.211 177.548 73.483 177.35 73.707 177.105C73.9417 176.849 74.1177 176.556 74.235 176.225C74.363 175.884 74.427 175.521 74.427 175.137C74.427 174.753 74.363 174.39 74.235 174.049C74.1177 173.708 73.9417 173.409 73.707 173.153C73.483 172.897 73.211 172.694 72.891 172.545C72.571 172.396 72.2137 172.321 71.819 172.321ZM83.9614 172.433C83.4067 172.433 82.9267 172.481 82.5214 172.577C82.1267 172.673 81.732 172.86 81.3374 173.137C81.06 173.318 80.8414 173.569 80.6814 173.889C80.532 174.198 80.4574 174.492 80.4574 174.769V179.457H78.4574V170.769H80.4574V171.857C80.98 171.377 81.5294 171.057 82.1054 170.897C82.692 170.726 83.3107 170.641 83.9614 170.641V172.433ZM87.4867 179.457H85.4867V166.993H87.4867V174.305L90.5587 170.769H92.7667L89.5987 174.337L93.2947 179.457H91.0867L88.3827 175.713L87.4867 176.737V179.457ZM101.518 178.097C101.368 178.289 101.171 178.476 100.926 178.657C100.691 178.849 100.408 179.014 100.078 179.153C99.7576 179.302 99.3896 179.42 98.9736 179.505C98.5683 179.59 98.1256 179.633 97.6456 179.633C96.9736 179.633 96.3603 179.521 95.8056 179.297C95.2616 179.073 94.7869 178.758 94.3816 178.353C93.9869 177.958 93.6776 177.489 93.4536 176.945C93.2403 176.401 93.1336 175.804 93.1336 175.153C93.1336 174.502 93.2349 173.905 93.4376 173.361C93.6509 172.806 93.9496 172.326 94.3336 171.921C94.7176 171.516 95.1816 171.201 95.7256 170.977C96.2696 170.742 96.8776 170.625 97.5496 170.625C98.2216 170.625 98.8296 170.742 99.3736 170.977C99.9176 171.201 100.382 171.516 100.766 171.921C101.15 172.326 101.443 172.806 101.646 173.361C101.859 173.905 101.966 174.502 101.966 175.153V175.921H95.2136C95.3416 176.529 95.6083 177.02 96.0136 177.393C96.4296 177.766 96.9736 177.953 97.6456 177.953C98.2536 177.953 98.7976 177.852 99.2776 177.649C99.7576 177.446 100.126 177.19 100.382 176.881L101.518 178.097ZM97.5496 172.321C96.9096 172.321 96.3923 172.502 95.9976 172.865C95.6136 173.217 95.3576 173.681 95.2296 174.257H99.8536C99.7256 173.681 99.4696 173.217 99.0856 172.865C98.7016 172.502 98.1896 172.321 97.5496 172.321ZM106.559 176.497C106.559 176.945 106.665 177.292 106.879 177.537C107.103 177.782 107.428 177.905 107.855 177.905C108.164 177.905 108.447 177.82 108.703 177.649C108.959 177.468 109.161 177.265 109.311 177.041L110.495 178.209C110.185 178.657 109.807 179.004 109.359 179.249C108.911 179.494 108.431 179.617 107.919 179.617C106.82 179.617 105.983 179.334 105.407 178.769C104.841 178.214 104.559 177.441 104.559 176.449V172.497H103.087V170.769H104.559V167.313H106.559V170.769H109.199V172.497H106.559V176.497Z" fill="#1A1A1A"/>
<g filter="url(#filter4_d_1022_64)">
<circle cx="269.136" cy="133.209" r="45" fill="white"/>
</g>
<path d="M259.195 123.609C258.363 123.609 257.729 123.433 257.291 123.081C256.854 122.729 256.635 122.132 256.635 121.289V116.089H258.555V118.249H264.635V116.089H266.539V123.609H262.603V126.601H268.459V128.297H254.811V126.601H260.667V123.609H259.195ZM264.635 119.945H258.555V121.017C258.555 121.358 258.614 121.593 258.731 121.721C258.859 121.849 259.094 121.913 259.435 121.913H264.635V119.945ZM269.738 118.009V116.441H273.002V114.857H274.986V116.441H278.25V118.009H276.81C276.981 118.19 277.125 118.393 277.242 118.617C277.37 118.841 277.466 119.086 277.53 119.353H280.074V115.081H281.994V123.705H280.074V121.065H277.466C277.338 121.46 277.146 121.801 276.89 122.089C276.645 122.377 276.362 122.617 276.042 122.809C275.722 123.001 275.381 123.145 275.018 123.241C274.666 123.326 274.319 123.369 273.978 123.369C273.541 123.369 273.103 123.3 272.666 123.161C272.239 123.022 271.855 122.82 271.514 122.553C271.173 122.276 270.895 121.934 270.682 121.529C270.479 121.124 270.378 120.649 270.378 120.105C270.378 119.657 270.447 119.262 270.586 118.921C270.725 118.58 270.917 118.276 271.162 118.009H269.738ZM281.994 129.801H274.81C274.17 129.801 273.653 129.662 273.258 129.385C272.874 129.108 272.682 128.697 272.682 128.153V124.601H281.994V129.801ZM275.738 120.105C275.738 119.529 275.573 119.092 275.242 118.793C274.911 118.484 274.49 118.329 273.978 118.329C273.466 118.329 273.045 118.489 272.714 118.809C272.394 119.129 272.234 119.561 272.234 120.105C272.234 120.66 272.405 121.092 272.746 121.401C273.087 121.71 273.498 121.865 273.978 121.865C274.49 121.865 274.911 121.71 275.242 121.401C275.573 121.081 275.738 120.649 275.738 120.105ZM280.074 128.089V126.313H274.602V127.641C274.602 127.94 274.757 128.089 275.066 128.089H280.074ZM259.132 150.657H251.324V151.009C251.335 151.126 251.377 151.222 251.452 151.297C251.537 151.382 251.649 151.425 251.788 151.425H259.308V152.929H251.484C250.844 152.929 250.337 152.796 249.964 152.529C249.601 152.262 249.42 151.857 249.42 151.313V149.169H257.212V148.465H249.42V146.961H259.132V150.657ZM248.908 143.793V142.225H250.78C250.759 142.076 250.748 141.932 250.748 141.793C250.748 141.644 250.748 141.494 250.748 141.345L250.7 140.465H252.62L252.668 141.345C252.668 141.494 252.668 141.644 252.668 141.793C252.668 141.932 252.679 142.076 252.7 142.225H255.82L255.868 141.345C255.868 141.068 255.884 140.774 255.916 140.465H257.82C257.799 140.614 257.788 140.764 257.788 140.913C257.788 141.052 257.788 141.196 257.788 141.345L257.74 142.225H259.628V143.793H248.908ZM261.1 144.529V146.177H247.452V144.529H261.1ZM249.116 140.081V138.513H259.404V140.081H249.116ZM270.283 142.689H272.555V138.081H274.475V153.121H272.555V144.385H270.283V142.689ZM271.675 148.193C271.035 148.524 270.283 148.774 269.419 148.945C268.555 149.105 267.605 149.185 266.571 149.185C266.059 149.185 265.579 149.126 265.131 149.009C264.693 148.892 264.315 148.716 263.995 148.481C263.675 148.236 263.419 147.926 263.227 147.553C263.045 147.18 262.955 146.737 262.955 146.225V143.041H267.531V140.977H262.955V139.281H269.467V144.705H264.891V145.809C264.891 146.449 265.04 146.892 265.339 147.137C265.637 147.382 266.107 147.505 266.747 147.505C267.227 147.505 267.669 147.489 268.075 147.457C268.491 147.414 268.88 147.361 269.243 147.297C269.605 147.233 269.947 147.153 270.267 147.057C270.597 146.95 270.923 146.833 271.243 146.705L271.675 148.193ZM290.537 149.601V151.297H276.889V149.601H290.537ZM283.721 143.441C283.583 143.75 283.417 144.028 283.225 144.273C283.044 144.518 282.847 144.764 282.633 145.009C282.111 145.617 281.508 146.113 280.825 146.497C280.153 146.87 279.449 147.164 278.713 147.377L277.657 146.049C278.425 145.804 279.113 145.494 279.721 145.121C280.329 144.737 280.889 144.268 281.401 143.713C281.807 143.233 282.121 142.742 282.345 142.241C282.58 141.74 282.697 141.201 282.697 140.625V139.105H284.697V140.625C284.697 141.233 284.82 141.793 285.065 142.305C285.311 142.806 285.625 143.27 286.009 143.697C286.553 144.305 287.135 144.796 287.753 145.169C288.372 145.532 289.033 145.82 289.737 146.033L288.681 147.377C287.881 147.142 287.151 146.833 286.489 146.449C285.839 146.054 285.241 145.537 284.697 144.897C284.516 144.673 284.345 144.444 284.185 144.209C284.025 143.964 283.871 143.708 283.721 143.441Z" fill="#1A1A1A"/>
<defs>
<filter id="filter0_d_1022_64" x="248.136" y="240.209" width="114" height="114" filterUnits="userSpaceOnUse" color-interpolation-filters="sRGB">
<feFlood flood-opacity="0" result="BackgroundImageFix"/>
<feColorMatrix in="SourceAlpha" type="matrix" values="0 0 0 0 0 0 0 0 0 0 0 0 0 0 0 0 0 0 127 0" result="hardAlpha"/>
<feOffset dy="4"/>
<feGaussianBlur stdDeviation="3.5"/>
<feComposite in2="hardAlpha" operator="out"/>
<feColorMatrix type="matrix" values="0 0 0 0 0 0 0 0 0 0 0 0 0 0 0 0 0 0 0.25 0"/>
<feBlend mode="normal" in2="BackgroundImageFix" result="effect1_dropShadow_1022_64"/>
<feBlend mode="normal" in="SourceGraphic" in2="effect1_dropShadow_1022_64" result="shape"/>
</filter>
<filter id="filter1_d_1022_64" x="138.136" y="331.209" width="76" height="76" filterUnits="userSpaceOnUse" color-interpolation-filters="sRGB">
<feFlood flood-opacity="0" result="BackgroundImageFix"/>
<feColorMatrix in="SourceAlpha" type="matrix" values="0 0 0 0 0 0 0 0 0 0 0 0 0 0 0 0 0 0 127 0" result="hardAlpha"/>
<feOffset dx="5" dy="7"/>
<feGaussianBlur stdDeviation="4"/>
<feComposite in2="hardAlpha" operator="out"/>
<feColorMatrix type="matrix" values="0 0 0 0 0 0 0 0 0 0 0 0 0 0 0 0 0 0 0.25 0"/>
<feBlend mode="normal" in2="BackgroundImageFix" result="effect1_dropShadow_1022_64"/>
<feBlend mode="normal" in="SourceGraphic" in2="effect1_dropShadow_1022_64" result="shape"/>
</filter>
<filter id="filter2_d_1022_64" x="185.136" y="447.209" width="96" height="96" filterUnits="userSpaceOnUse" color-interpolation-filters="sRGB">
<feFlood flood-opacity="0" result="BackgroundImageFix"/>
<feColorMatrix in="SourceAlpha" type="matrix" values="0 0 0 0 0 0 0 0 0 0 0 0 0 0 0 0 0 0 127 0" result="hardAlpha"/>
<feOffset dx="5" dy="7"/>
<feGaussianBlur stdDeviation="4"/>
<feComposite in2="hardAlpha" operator="out"/>
<feColorMatrix type="matrix" values="0 0 0 0 0 0 0 0 0 0 0 0 0 0 0 0 0 0 0.25 0"/>
<feBlend mode="normal" in2="BackgroundImageFix" result="effect1_dropShadow_1022_64"/>
<feBlend mode="normal" in="SourceGraphic" in2="effect1_dropShadow_1022_64" result="shape"/>
</filter>
<filter id="filter3_d_1022_64" x="38.1361" y="132.209" width="96" height="96" filterUnits="userSpaceOnUse" color-interpolation-filters="sRGB">
<feFlood flood-opacity="0" result="BackgroundImageFix"/>
<feColorMatrix in="SourceAlpha" type="matrix" values="0 0 0 0 0 0 0 0 0 0 0 0 0 0 0 0 0 0 127 0" result="hardAlpha"/>
<feOffset dx="5" dy="7"/>
<feGaussianBlur stdDeviation="4"/>
<feComposite in2="hardAlpha" operator="out"/>
<feColorMatrix type="matrix" values="0 0 0 0 0 0 0 0 0 0 0 0 0 0 0 0 0 0 0.25 0"/>
<feBlend mode="normal" in2="BackgroundImageFix" result="effect1_dropShadow_1022_64"/>
<feBlend mode="normal" in="SourceGraphic" in2="effect1_dropShadow_1022_64" result="shape"/>
</filter>
<filter id="filter4_d_1022_64" x="221.136" y="87.209" width="106" height="106" filterUnits="userSpaceOnUse" color-interpolation-filters="sRGB">
<feFlood flood-opacity="0" result="BackgroundImageFix"/>
<feColorMatrix in="SourceAlpha" type="matrix" values="0 0 0 0 0 0 0 0 0 0 0 0 0 0 0 0 0 0 127 0" result="hardAlpha"/>
<feOffset dx="5" dy="7"/>
<feGaussianBlur stdDeviation="4"/>
<feComposite in2="hardAlpha" operator="out"/>
<feColorMatrix type="matrix" values="0 0 0 0 0 0 0 0 0 0 0 0 0 0 0 0 0 0 0.25 0"/>
<feBlend mode="normal" in2="BackgroundImageFix" result="effect1_dropShadow_1022_64"/>
<feBlend mode="normal" in="SourceGraphic" in2="effect1_dropShadow_1022_64" result="shape"/>
</filter>
<clipPath id="clip0_1022_64">
<rect width="120" height="120" fill="white" transform="translate(245.136 233.209)"/>
</clipPath>
</defs>
</svg>
