<svg width="150" height="133" viewBox="0 0 150 133" fill="none" xmlns="http://www.w3.org/2000/svg">
<path d="M85.5129 49.2031L109.942 56.4739L128 94.0161L76 116.203" fill="white"/>
<path d="M85.5129 49.2031L109.942 56.4739L128 94.0161L76 116.203" stroke="#444444" stroke-width="5" stroke-linecap="round" stroke-linejoin="round"/>
<path d="M59.4622 61.6697L52.9697 81.8672L63.6397 85.2971L70.1322 65.0995L59.4622 61.6697Z" fill="white" stroke="#444444" stroke-width="2" stroke-linecap="round" stroke-linejoin="round"/>
<path d="M81.805 88.2031L104.387 110.786C105.42 111.822 106 113.225 106 114.688C106 116.151 105.42 117.555 104.387 118.591C103.353 119.623 101.951 120.203 100.49 120.203C99.0282 120.203 97.6265 119.623 96.5923 118.591L74 95.9978" fill="white"/>
<path d="M81.805 88.2031L104.387 110.786C105.42 111.822 106 113.225 106 114.688C106 116.151 105.42 117.555 104.387 118.591V118.591C103.353 119.623 101.951 120.203 100.49 120.203C99.0282 120.203 97.6265 119.623 96.5923 118.591L74 95.9978" stroke="#444444" stroke-width="5" stroke-linecap="round" stroke-linejoin="round"/>
<path d="M73.7657 96.2031L91.3958 113.844C92.4231 114.873 93 116.267 93 117.721C93 119.175 92.4231 120.57 91.3958 121.599C90.3668 122.626 88.9722 123.203 87.5182 123.203C86.0642 123.203 84.6696 122.626 83.6406 121.599L66 103.969" fill="white"/>
<path d="M73.7657 96.2031L91.3958 113.844C92.4231 114.873 93 116.267 93 117.721C93 119.175 92.4231 120.57 91.3958 121.599V121.599C90.3668 122.626 88.9722 123.203 87.5182 123.203C86.0642 123.203 84.6696 122.626 83.6406 121.599L66 103.969" stroke="#444444" stroke-width="5" stroke-linecap="round" stroke-linejoin="round"/>
<path d="M65.0581 104.203L78.3399 117.517C79.4029 118.582 80 120.025 80 121.53C80 123.034 79.4029 124.477 78.3399 125.542C77.2731 126.606 75.8281 127.203 74.3217 127.203C72.8152 127.203 71.3702 126.606 70.3035 125.542L57 112.228" fill="white"/>
<path d="M65.0581 104.203L78.3399 117.517C79.4029 118.582 80 120.025 80 121.53C80 123.034 79.4029 124.477 78.3399 125.542V125.542C77.2731 126.606 75.8281 127.203 74.3217 127.203C72.8152 127.203 71.3702 126.606 70.3035 125.542L57 112.228" stroke="#444444" stroke-width="5" stroke-linecap="round" stroke-linejoin="round"/>
<path d="M89.9442 80.2031L117.357 107.618C118.409 108.672 119 110.1 119 111.589C119 113.078 118.409 114.507 117.357 115.56C116.303 116.612 114.874 117.203 113.385 117.203C111.895 117.203 110.467 116.612 109.412 115.56L82 88.1558" fill="white"/>
<path d="M89.9442 80.2031L117.357 107.618C118.409 108.672 119 110.1 119 111.589C119 113.078 118.409 114.507 117.357 115.56C116.303 116.612 114.874 117.203 113.385 117.203C111.895 117.203 110.467 116.612 109.412 115.56L82 88.1558" stroke="#444444" stroke-width="5" stroke-linecap="round" stroke-linejoin="round"/>
<path d="M57.3606 112.203L23 93.3776L36.846 54.2031L69.9942 57.0797L90 80.0815" fill="white"/>
<path d="M57.3606 112.203L23 93.3776L36.846 54.2031L69.9942 57.0797L90 80.0815" stroke="#444444" stroke-width="5" stroke-linecap="round" stroke-linejoin="round"/>
<path d="M34.2787 93.1705L27.0583 100.391C25.736 101.713 25.736 103.857 27.0583 105.179L30.195 108.316C31.5172 109.638 33.6611 109.638 34.9833 108.316L42.2038 101.096C43.5261 99.7733 43.5261 97.6295 42.2038 96.3072L39.0671 93.1705C37.7448 91.8482 35.601 91.8482 34.2787 93.1705Z" fill="white" stroke="#444444" stroke-width="5" stroke-linecap="round" stroke-linejoin="round"/>
<path d="M45.2094 98.0807L37.9889 105.301C36.6666 106.623 36.6666 108.767 37.9889 110.09L41.1256 113.226C42.4479 114.548 44.5917 114.548 45.914 113.226L53.1344 106.006C54.4567 104.683 54.4567 102.54 53.1344 101.217L49.9977 98.0807C48.6754 96.7584 46.5316 96.7584 45.2094 98.0807Z" fill="white" stroke="#444444" stroke-width="5" stroke-linecap="round" stroke-linejoin="round"/>
<path d="M64.8383 110.139L57.6178 117.36C56.2956 118.682 56.2956 120.826 57.6178 122.148L60.7545 125.285C62.0768 126.607 64.2206 126.607 65.5429 125.285L72.7633 118.064C74.0856 116.742 74.0856 114.598 72.7633 113.276L69.6267 110.139C68.3044 108.817 66.1605 108.817 64.8383 110.139Z" fill="white" stroke="#444444" stroke-width="5" stroke-linecap="round" stroke-linejoin="round"/>
<path d="M55.7396 103.405L48.5192 110.625C47.1969 111.948 47.1969 114.091 48.5192 115.414L51.6559 118.55C52.9781 119.873 55.122 119.873 56.4442 118.55L63.6647 111.33C64.987 110.008 64.987 107.864 63.6647 106.542L60.528 103.405C59.2057 102.083 57.0619 102.083 55.7396 103.405Z" fill="white" stroke="#444444" stroke-width="5" stroke-linecap="round" stroke-linejoin="round"/>
<path d="M86 61.8664L69.175 69.6667C68.4897 69.9854 67.7482 70.166 66.993 70.198C66.2378 70.23 65.4838 70.1129 64.774 69.8533C64.0641 69.5937 63.4125 69.1968 62.8564 68.6853C62.3003 68.1737 61.8507 67.5577 61.5332 66.8723C60.8921 65.489 60.8264 63.908 61.3508 62.4765C61.8752 61.0449 62.9467 59.8798 64.3301 59.2369L85.978 49.2031" fill="white"/>
<path d="M86 61.8664L69.175 69.6667C68.4897 69.9854 67.7482 70.166 66.993 70.198C66.2378 70.23 65.4838 70.1129 64.774 69.8533C64.0641 69.5937 63.4125 69.1968 62.8564 68.6853C62.3003 68.1737 61.8507 67.5577 61.5332 66.8723V66.8723C60.8921 65.489 60.8264 63.908 61.3508 62.4765C61.8752 61.0449 62.9467 59.8798 64.3301 59.2369L85.978 49.2031" stroke="#444444" stroke-width="5" stroke-linecap="round" stroke-linejoin="round"/>
<path d="M123.991 38.9997L103 48.9805L127.542 100.595L148.533 90.6142L123.991 38.9997Z" fill="#B8292D"/>
<path d="M42.3522 48.0612L20.3477 40L0.999512 92.8142L23.004 100.875L42.3522 48.0612Z" fill="#B8292D"/>
<path d="M73.3809 25.4993V6" stroke="#444444" stroke-width="5" stroke-linecap="round" stroke-linejoin="round"/>
<path d="M51.7682 31.2988L42.0186 14.4062" stroke="#444444" stroke-width="5" stroke-linecap="round" stroke-linejoin="round"/>
<path d="M94.9932 31.2988L104.743 14.4062" stroke="#444444" stroke-width="5" stroke-linecap="round" stroke-linejoin="round"/>
</svg>
