<svg width="150" height="176" viewBox="0 0 150 176" fill="none" xmlns="http://www.w3.org/2000/svg">
<path d="M69.0878 116.223L97.121 116.372C101.105 116.372 104.291 111.242 103.902 107.148C103.686 105.421 102.844 103.835 101.538 102.693C100.232 101.552 98.5535 100.937 96.8245 100.964H69.0878C61.7519 100.966 54.7072 103.855 49.4572 109.013L25 133.086L30.5585 162L47.2801 147.077L98.9275 139.615C105.955 138.591 112.437 135.221 117.335 130.046L140.088 105.982C140.716 105.319 141.208 104.538 141.535 103.684C141.863 102.829 142.02 101.918 141.998 101.002C141.976 100.087 141.774 99.1845 141.405 98.3473C141.036 97.5101 140.506 96.7544 139.847 96.1234L139.643 95.9182C138.31 94.6456 136.53 93.9567 134.693 94.0021C132.856 94.0476 131.112 94.8237 129.842 96.1607L119.197 107.428C112.935 114.05 104.542 116.755 95.4627 116.428L69.0878 116.223Z" fill="white" stroke="#444444" stroke-width="5" stroke-linecap="round" stroke-linejoin="round"/>
<path d="M29.7135 114.428L6.97559 123.211L25.5492 171.296L48.2871 162.513L29.7135 114.428Z" fill="#B8292D"/>
<path d="M79.5 79C87.5081 79 94 72.732 94 65C94 57.268 87.5081 51 79.5 51C71.4919 51 65 57.268 65 65C65 72.732 71.4919 79 79.5 79Z" stroke="#444444" stroke-width="4" stroke-linecap="round" stroke-linejoin="round"/>
<path d="M77.7955 72.1577C77.2704 72.0021 76.7681 71.7672 76.3036 71.4599C75.8254 71.1346 75.3873 70.7447 75 70.2996L76.2601 68.6376C76.6538 69.176 77.1472 69.6193 77.7086 69.939C78.2534 70.2298 78.8538 70.3775 79.4612 70.3702C80.1489 70.427 80.8344 70.2339 81.4093 69.8214C81.6302 69.6156 81.8035 69.3566 81.9154 69.0653C82.0273 68.774 82.0747 68.4584 82.0538 68.1437C82.0749 67.7372 81.9648 67.3353 81.7424 67.007C81.5264 66.7258 81.247 66.5098 80.9313 66.3798C80.5184 66.2213 80.0946 66.0981 79.6639 66.0113H79.5625H79.4684H79.367C78.69 65.886 78.0239 65.6998 77.3754 65.4547C76.8449 65.2309 76.3884 64.8405 76.0646 64.3336C75.6674 63.6448 75.4776 62.8394 75.5214 62.0287C75.4954 61.1918 75.6648 60.3613 76.0139 59.6141C76.3374 58.9743 76.8464 58.4674 77.4623 58.1716C78.2322 57.8245 79.0622 57.6613 79.8957 57.6934C80.3239 57.6933 80.751 57.7406 81.1703 57.8345C81.5986 57.9332 82.0161 58.0803 82.4159 58.2735C82.8424 58.4783 83.2518 58.7223 83.6399 59.0026L82.5101 60.6882C82.0964 60.3806 81.6487 60.1304 81.1775 59.9434C80.7652 59.7881 80.3323 59.706 79.8957 59.7004C79.2468 59.6471 78.6012 59.8413 78.0707 60.2491C77.8622 60.4516 77.6995 60.7032 77.5952 60.9846C77.491 61.2661 77.448 61.5697 77.4696 61.8719C77.446 62.2971 77.57 62.7165 77.8172 63.0479C78.0544 63.3335 78.3565 63.547 78.6935 63.6672C79.1681 63.8375 79.6518 63.9762 80.1419 64.0828H80.2143H80.3012H80.3881H80.4751C81.1004 64.219 81.71 64.4293 82.2928 64.7099C82.7949 64.9773 83.2167 65.3932 83.5095 65.9094C83.8645 66.5947 84.0327 67.3748 83.9947 68.1594C84.0244 68.9776 83.8519 69.7894 83.495 70.5113C83.1417 71.1401 82.6111 71.6293 81.9814 71.9068C81.1755 72.2406 80.3164 72.3978 79.4539 72.3693C78.8949 72.3778 78.3373 72.3067 77.7955 72.1577ZM78.7152 56H80.5982V58.2735H78.7152V56ZM78.7152 71.601H80.5982V74H78.7152V71.601Z" fill="#444444" stroke="#444444"/>
<path d="M102.5 50C110.508 50 117 43.5081 117 35.5C117 27.4919 110.508 21 102.5 21C94.4919 21 88 27.4919 88 35.5C88 43.5081 94.4919 50 102.5 50Z" stroke="#444444" stroke-width="4" stroke-linecap="round" stroke-linejoin="round"/>
<path d="M100.055 43.1506C99.4891 42.9911 98.948 42.7564 98.4473 42.4532C97.9145 42.1305 97.4279 41.7405 97 41.2934L98.399 39.64C98.8356 40.1786 99.3835 40.6218 100.007 40.9408C100.615 41.2315 101.284 41.3791 101.961 41.3718C102.724 41.4274 103.485 41.2344 104.124 40.8232C104.369 40.6175 104.561 40.3587 104.686 40.0675C104.81 39.7763 104.863 39.4608 104.839 39.1463C104.86 38.7426 104.738 38.3443 104.494 38.0178C104.257 37.7338 103.946 37.5173 103.593 37.391C103.135 37.2244 102.661 37.101 102.178 37.0226H102.13H102.065H101.961H101.856C101.102 36.898 100.36 36.7119 99.6372 36.4663C99.0502 36.2429 98.5459 35.8524 98.19 35.3457C97.749 34.6571 97.5382 33.8521 97.5869 33.0418C97.5538 32.2058 97.7391 31.3753 98.1256 30.6282C98.4867 29.9882 99.051 29.4796 99.7337 29.1785C100.589 28.8341 101.51 28.6711 102.435 28.7005C102.911 28.7001 103.385 28.7473 103.85 28.8415C104.327 28.9438 104.793 29.0907 105.241 29.2804C105.714 29.4849 106.166 29.7315 106.592 30.017L105.338 31.694C104.883 31.3859 104.388 31.1382 103.866 30.9573C103.407 30.7953 102.923 30.7106 102.435 30.7066C101.717 30.6539 101.003 30.848 100.417 31.2551C100.184 31.4567 100.002 31.7079 99.8849 31.9892C99.7678 32.2706 99.7188 32.5744 99.7418 32.8772C99.7169 33.2997 99.8545 33.716 100.128 34.0448C100.395 34.329 100.733 34.5421 101.109 34.6639C101.636 34.8345 102.173 34.9758 102.717 35.0871H102.797H102.886H102.982H103.087C103.777 35.2267 104.451 35.4368 105.097 35.714C105.658 35.9786 106.13 36.3947 106.455 36.9129C106.85 37.5979 107.036 38.3777 106.994 39.162C107.029 39.9808 106.834 40.7934 106.431 41.5128C106.044 42.145 105.453 42.6352 104.751 42.9077C103.859 43.2403 102.908 43.3974 101.953 43.37C101.313 43.3801 100.675 43.3063 100.055 43.1506ZM101.084 27H103.143V29.2569H101.06L101.084 27ZM101.084 42.5943H103.143V45H101.06L101.084 42.5943Z" fill="#444444" stroke="#444444"/>
<path d="M61.9928 33.0035L55.5635 26.5742" stroke="#444444" stroke-width="4.5" stroke-linecap="round" stroke-linejoin="round"/>
<path d="M56.7802 42.0423L48 39.6914" stroke="#444444" stroke-width="4.5" stroke-linecap="round" stroke-linejoin="round"/>
<path d="M71.0287 27.7905L68.6777 19" stroke="#444444" stroke-width="4.5" stroke-linecap="round" stroke-linejoin="round"/>
<path d="M121.035 74.0352L127.464 80.4645" stroke="#444444" stroke-width="4.5" stroke-linecap="round" stroke-linejoin="round"/>
<path d="M112 79.2461L114.351 88.0366" stroke="#444444" stroke-width="4.5" stroke-linecap="round" stroke-linejoin="round"/>
<path d="M126.248 65L135.039 67.3509" stroke="#444444" stroke-width="4.5" stroke-linecap="round" stroke-linejoin="round"/>
</svg>
