<svg width="150" height="157" viewBox="0 0 150 157" fill="none" xmlns="http://www.w3.org/2000/svg">
<g clip-path="url(#clip0_1589_359)">
<path d="M79.5171 26.8194L1.95508 51.0664L33.8223 153.004L111.384 128.757L79.5171 26.8194Z" fill="white" stroke="#444444" stroke-width="5" stroke-linecap="round" stroke-linejoin="round"/>
<path d="M90.997 30.9955L10.207 39.7578L21.7231 145.938L102.513 137.175L90.997 30.9955Z" fill="white" stroke="#444444" stroke-width="5" stroke-linecap="round" stroke-linejoin="round"/>
<path d="M111.779 14.6953H33.0902C29.4009 14.6953 26.4102 17.6861 26.4102 21.3753V123.589C26.4102 127.278 29.4009 130.269 33.0902 130.269H111.779C115.468 130.269 118.459 127.278 118.459 123.589V21.3753C118.459 17.6861 115.468 14.6953 111.779 14.6953Z" fill="white" stroke="#444444" stroke-width="5" stroke-linecap="round" stroke-linejoin="round"/>
<path d="M109.785 23.5234H35.0459V121.749H109.785V23.5234Z" fill="white" stroke="#444444" stroke-width="5" stroke-linecap="round" stroke-linejoin="round"/>
<path d="M76.8105 52.6445V72.1618H96.4052C96.3847 66.9784 94.3113 62.0143 90.6388 58.3563C86.9663 54.6983 81.994 52.6445 76.8105 52.6445Z" fill="#B8292D"/>
<path d="M72.2792 57.5078C69.7069 57.5053 67.1594 58.0098 64.7821 58.9924C62.4049 59.975 60.2447 61.4165 58.4249 63.2345C56.6051 65.0525 55.1615 67.2113 54.1765 69.5875C53.1915 71.9638 52.6846 74.5108 52.6846 77.0831C52.6846 82.2799 54.749 87.264 58.4237 90.9387C62.0984 94.6134 67.0824 96.6778 72.2792 96.6778C74.856 96.6714 77.406 96.1549 79.7821 95.1579C82.1583 94.1609 84.3134 92.7033 86.1233 90.8691L72.2792 77.0057V57.5078Z" fill="white" stroke="#444444" stroke-width="5" stroke-linecap="round" stroke-linejoin="round"/>
<path d="M76.8105 75.2031L90.6546 89.0471C92.4879 87.2366 93.945 85.0814 94.9419 82.7054C95.9388 80.3295 96.4559 77.7797 96.4633 75.2031H76.8105Z" fill="#444444" stroke="#444444" stroke-width="2" stroke-linecap="round" stroke-linejoin="round"/>
<path d="M88.6988 9.48886C88.6988 5.32596 81.4185 1.9375 72.4344 1.9375C63.4503 1.9375 56.17 5.32596 56.17 9.48886H50.3613V28.3865H94.6624V9.48886H88.6988Z" fill="white" stroke="#444444" stroke-width="5" stroke-linecap="round" stroke-linejoin="round"/>
<path d="M141 83H131L133.745 79H138.255L141 83Z" fill="white" stroke="#444444" stroke-width="3" stroke-linecap="round" stroke-linejoin="round"/>
<path d="M141 83H131V129H141V83Z" fill="white" stroke="#444444" stroke-width="3" stroke-linecap="round" stroke-linejoin="round"/>
<path d="M138 79H134L135.993 75L138 79Z" fill="white" stroke="#444444" stroke-width="3" stroke-linecap="round" stroke-linejoin="round"/>
<path d="M141 129V138.097C141 139.132 140.573 140.125 139.813 140.857C139.054 141.589 138.023 142 136.949 142H135.051C133.977 142 132.946 141.589 132.187 140.857C131.427 140.125 131 139.132 131 138.097V129H140.985H141Z" fill="white" stroke="#444444" stroke-width="3" stroke-linecap="round" stroke-linejoin="round"/>
<path d="M141 129H145V106" stroke="#444444" stroke-width="3" stroke-linecap="round" stroke-linejoin="round"/>
</g>
<defs>
<clipPath id="clip0_1589_359">
<rect width="150" height="156.448" fill="white"/>
</clipPath>
</defs>
</svg>
