<svg width="100" height="100" viewBox="0 0 100 100" fill="none" xmlns="http://www.w3.org/2000/svg">
<g clip-path="url(#clip0_739_576)">
<path d="M14.5161 98.3877H0V69.3555H14.5161V98.3877ZM3.22581 95.1619H11.2903V72.5813H3.22581V95.1619Z" fill="#444444"/>
<path d="M39.4023 86.9028L38.0153 83.9995L57.5636 74.7576C58.3601 74.3847 58.9965 73.7387 59.3575 72.9368C59.7185 72.1349 59.7802 71.2301 59.5314 70.3866C59.2545 69.4519 58.6193 68.6645 57.7642 68.1962C56.9092 67.7279 55.9036 67.6166 54.9669 67.8866L27.4185 75.806H12.9023V72.5802H27.1927L54.0798 64.8221C55.8356 64.3218 57.7178 64.5341 59.3182 65.4127C60.9185 66.2914 62.1079 67.7657 62.6282 69.5157C63.0933 71.0955 62.9784 72.7897 62.304 74.2922C61.6296 75.7948 60.4403 77.0067 58.9507 77.7092L39.4023 86.9028Z" fill="#444444"/>
<path d="M59.9998 100H36.8869L12.6934 96.7744L13.1127 93.5485L37.2095 96.7744H59.3547L93.5966 82.5001C94.548 82.12 95.3638 81.4636 95.9387 80.6155C96.5137 79.7675 96.8214 78.7667 96.8224 77.7421C96.8254 77.0216 96.6761 76.3086 96.3842 75.6498C96.0923 74.991 95.6645 74.4014 95.1288 73.9195C94.5946 73.4337 93.963 73.0673 93.276 72.8448C92.5891 72.6223 91.8626 72.5488 91.145 72.6292L59.8869 75.855L59.5643 72.6292L90.8224 69.4034C91.9856 69.2865 93.1605 69.414 94.2715 69.7779C95.3826 70.1418 96.4053 70.7339 97.274 71.5163C98.1423 72.301 98.8364 73.2591 99.3114 74.3287C99.7865 75.3983 100.032 76.5556 100.032 77.726C100.038 79.3832 99.5509 81.0048 98.6316 82.3837C97.7124 83.7627 96.403 84.8364 94.8708 85.4679L59.9998 100Z" fill="#444444"/>
<path d="M51.6125 27.4199H48.3867V67.7425H51.6125V27.4199Z" fill="#444444"/>
<path d="M50.0005 29.0323C46.1506 29.0323 42.4583 27.5029 39.736 24.7806C37.0137 22.0583 35.4844 18.366 35.4844 14.5161C35.4844 10.6662 37.0137 6.97397 39.736 4.25166C42.4583 1.52936 46.1506 0 50.0005 0C53.8504 0 57.5427 1.52936 60.265 4.25166C62.9873 6.97397 64.5166 10.6662 64.5166 14.5161C64.5166 18.366 62.9873 22.0583 60.265 24.7806C57.5427 27.5029 53.8504 29.0323 50.0005 29.0323V29.0323Z" fill="#B8292D"/>
<path d="M51.6133 22.5802H48.3875C47.1042 22.5802 45.8735 22.0704 44.9661 21.163C44.0586 20.2555 43.5488 19.0248 43.5488 17.7415H46.7746C46.7746 18.1693 46.9446 18.5795 47.247 18.882C47.5495 19.1845 47.9598 19.3544 48.3875 19.3544H51.6133C52.0411 19.3544 52.4514 19.1845 52.7538 18.882C53.0563 18.5795 53.2262 18.1693 53.2262 17.7415C53.2262 17.3137 53.0563 16.9035 52.7538 16.601C52.4514 16.2985 52.0411 16.1286 51.6133 16.1286H48.3875C47.1042 16.1286 45.8735 15.6188 44.9661 14.7114C44.0586 13.8039 43.5488 12.5732 43.5488 11.2899C43.5488 10.0066 44.0586 8.77583 44.9661 7.86839C45.8735 6.96096 47.1042 6.45117 48.3875 6.45117H51.6133C52.8967 6.45117 54.1274 6.96096 55.0348 7.86839C55.9423 8.77583 56.4521 10.0066 56.4521 11.2899H53.2262C53.2262 10.8621 53.0563 10.4519 52.7538 10.1494C52.4514 9.84691 52.0411 9.67698 51.6133 9.67698H48.3875C47.9598 9.67698 47.5495 9.84691 47.247 10.1494C46.9446 10.4519 46.7746 10.8621 46.7746 11.2899C46.7746 11.7177 46.9446 12.1279 47.247 12.4304C47.5495 12.7329 47.9598 12.9028 48.3875 12.9028H51.6133C52.8967 12.9028 54.1274 13.4126 55.0348 14.32C55.9423 15.2274 56.4521 16.4582 56.4521 17.7415C56.4521 19.0248 55.9423 20.2555 55.0348 21.163C54.1274 22.0704 52.8967 22.5802 51.6133 22.5802Z" fill="#444444"/>
<path d="M51.6125 4.83789H48.3867V8.0637H51.6125V4.83789Z" fill="#444444"/>
<path d="M51.6125 20.9668H48.3867V24.1926H51.6125V20.9668Z" fill="#444444"/>
<path d="M58.7814 47.0572L49.1055 53.5078L50.8948 56.1918L60.5708 49.7412L58.7814 47.0572Z" fill="#444444"/>
<path d="M59.6774 50.0001H58.0645V48.3872C58.0645 44.5373 59.5938 40.8451 62.3161 38.1228C65.0384 35.4005 68.7307 33.8711 72.5806 33.8711H74.1935V35.484C74.1935 39.3339 72.6641 43.0262 69.9418 45.7485C67.2195 48.4708 63.5273 50.0001 59.6774 50.0001ZM70.8386 37.2259C68.4726 37.5942 66.285 38.7053 64.5918 40.3984C62.8986 42.0916 61.7876 44.2793 61.4193 46.6453C63.7853 46.277 65.973 45.166 67.6661 43.4728C69.3593 41.7796 70.4703 39.592 70.8386 37.2259Z" fill="#444444"/>
<path d="M41.2171 38.98L39.4277 41.6641L49.1037 48.1147L50.893 45.4306L41.2171 38.98Z" fill="#444444"/>
<path d="M41.9357 41.9357H40.3228C36.4729 41.9357 32.7806 40.4063 30.0583 37.684C27.336 34.9617 25.8066 31.2695 25.8066 27.4195V25.8066H27.4195C31.2695 25.8066 34.9617 27.336 37.684 30.0583C40.4063 32.7806 41.9357 36.4729 41.9357 40.3228V41.9357ZM29.1615 29.1615C29.5298 31.5275 30.6408 33.7152 32.334 35.4083C34.0272 37.1015 36.2148 38.2125 38.5808 38.5808C38.2125 36.2148 37.1015 34.0272 35.4083 32.334C33.7152 30.6408 31.5275 29.5298 29.1615 29.1615V29.1615Z" fill="#444444"/>
<path d="M98.3864 16.1289H88.709V19.3547H98.3864V16.1289Z" fill="#444444"/>
<path d="M95.1613 12.9023H91.9355V22.5798H95.1613V12.9023Z" fill="#444444"/>
<path d="M88.7099 6.45117H75.8066V9.67698H88.7099V6.45117Z" fill="#444444"/>
<path d="M83.8703 1.61328H80.6445V14.5165H83.8703V1.61328Z" fill="#444444"/>
<path d="M88.7106 25.8066H79.0332V29.0324H88.7106V25.8066Z" fill="#444444"/>
<path d="M85.4836 22.5801H82.2578V32.2575H85.4836V22.5801Z" fill="#444444"/>
<path d="M20.968 9.67773H17.7422V19.3552H20.968V9.67773Z" fill="#444444"/>
<path d="M24.193 12.9023H14.5156V16.1281H24.193V12.9023Z" fill="#444444"/>
<path d="M9.67698 19.3555H6.45117V32.2587H9.67698V19.3555Z" fill="#444444"/>
<path d="M14.5165 24.1934H1.61328V27.4192H14.5165V24.1934Z" fill="#444444"/>
</g>
<defs>
<clipPath id="clip0_739_576">
<rect width="100" height="99.9677" fill="white"/>
</clipPath>
</defs>
</svg>
