<svg width="109" height="92" viewBox="0 0 109 92" fill="none" xmlns="http://www.w3.org/2000/svg">
<g clip-path="url(#clip0_225_64)">
<path d="M105.5 91.25H3C2.20435 91.25 1.44139 90.9339 0.878784 90.3713C0.316175 89.8087 0 89.0456 0 88.25V3C0 2.20435 0.316175 1.44127 0.878784 0.878662C1.44139 0.316053 2.20435 0 3 0C3.79565 0 4.55873 0.316053 5.12134 0.878662C5.68395 1.44127 6 2.20435 6 3V85.25H105.5C106.296 85.25 107.059 85.5661 107.621 86.1287C108.184 86.6913 108.5 87.4544 108.5 88.25C108.5 89.0456 108.184 89.8087 107.621 90.3713C107.059 90.9339 106.296 91.25 105.5 91.25Z" fill="#1A1A1A"/>
<path d="M27.8 91.2491H14.64C13.8444 91.2491 13.0814 90.9331 12.5188 90.3705C11.9562 89.8079 11.64 89.0448 11.64 88.2491V46.9492C11.64 46.1536 11.9562 45.3905 12.5188 44.8279C13.0814 44.2653 13.8444 43.9492 14.64 43.9492H27.8C28.5957 43.9492 29.3588 44.2653 29.9214 44.8279C30.484 45.3905 30.8 46.1536 30.8 46.9492V88.2491C30.8 89.0448 30.484 89.8079 29.9214 90.3705C29.3588 90.9331 28.5957 91.2491 27.8 91.2491ZM17.64 85.2491H24.8V49.9492H17.64V85.2491Z" fill="#1A1A1A"/>
<path d="M91.7999 91.2491H78.6299C77.8342 91.2491 77.0713 90.9331 76.5087 90.3705C75.9461 89.8079 75.6299 89.0448 75.6299 88.2491V46.9492C75.6299 46.1536 75.9461 45.3905 76.5087 44.8279C77.0713 44.2653 77.8342 43.9492 78.6299 43.9492H91.7999C92.5956 43.9492 93.3587 44.2653 93.9213 44.8279C94.4839 45.3905 94.7999 46.1536 94.7999 46.9492V88.2491C94.7999 89.0448 94.4839 89.8079 93.9213 90.3705C93.3587 90.9331 92.5956 91.2491 91.7999 91.2491ZM81.6299 85.2491H88.7999V49.9492H81.6299V85.2491Z" fill="#1A1A1A"/>
<path d="M49.14 91.2504H35.9701C35.1744 91.2504 34.4114 90.9343 33.8488 90.3717C33.2861 89.8091 32.9701 89.046 32.9701 88.2504V59.4004C32.9701 58.6047 33.2861 57.8417 33.8488 57.2791C34.4114 56.7164 35.1744 56.4004 35.9701 56.4004H49.14C49.9357 56.4004 50.6987 56.7164 51.2614 57.2791C51.824 57.8417 52.14 58.6047 52.14 59.4004V88.2504C52.14 89.046 51.824 89.8091 51.2614 90.3717C50.6987 90.9343 49.9357 91.2504 49.14 91.2504ZM38.9701 85.2504H46.14V62.4004H38.9701V85.2504Z" fill="#1A1A1A"/>
<path d="M70.4701 91.2494H57.3C56.5044 91.2494 55.7413 90.9333 55.1787 90.3707C54.6161 89.8081 54.3 89.045 54.3 88.2494V35.1094C54.3 34.3137 54.6161 33.5506 55.1787 32.988C55.7413 32.4254 56.5044 32.1094 57.3 32.1094H70.4701C71.2657 32.1094 72.0288 32.4254 72.5914 32.988C73.154 33.5506 73.4701 34.3137 73.4701 35.1094V88.2494C73.4701 89.045 73.154 89.8081 72.5914 90.3707C72.0288 90.9333 71.2657 91.2494 70.4701 91.2494ZM60.3 85.2494H67.4701V38.1094H60.3V85.2494Z" fill="#1A1A1A"/>
<path d="M46.4501 32.1892C46.4501 33.2256 46.1428 34.2386 45.567 35.1003C44.9912 35.9621 44.1728 36.6337 43.2153 37.0303C42.2579 37.4269 41.2042 37.5307 40.1877 37.3285C39.1713 37.1263 38.2376 36.6272 37.5048 35.8944C36.7719 35.1616 36.273 34.2279 36.0708 33.2114C35.8686 32.195 35.9723 31.1414 36.3689 30.184C36.7655 29.2265 37.4371 28.4081 38.2988 27.8323C39.1605 27.2565 40.1737 26.9492 41.2101 26.9492C42.599 26.9519 43.9302 27.5047 44.9124 28.4868C45.8945 29.4689 46.4474 30.8003 46.4501 32.1892Z" fill="#C22229"/>
<path d="M69.1201 11.2791C69.1201 12.3154 68.8127 13.3285 68.2369 14.1902C67.6611 15.0519 66.8428 15.7235 65.8853 16.1201C64.9279 16.5167 63.8742 16.6205 62.8578 16.4183C61.8413 16.2161 60.9076 15.7171 60.1748 14.9843C59.4419 14.2514 58.9429 13.3177 58.7407 12.3013C58.5385 11.2848 58.6423 10.2313 59.0389 9.2738C59.4355 8.31632 60.1071 7.4979 60.9688 6.92212C61.8306 6.34634 62.8436 6.03906 63.88 6.03906C65.2697 6.03906 66.6026 6.59116 67.5853 7.57385C68.568 8.55654 69.1201 9.88932 69.1201 11.2791Z" fill="#C22229"/>
<path d="M90.46 26.9492C90.46 27.9876 90.1521 29.0026 89.5752 29.866C88.9983 30.7293 88.1783 31.4022 87.219 31.7996C86.2597 32.1969 85.2041 32.3008 84.1857 32.0983C83.1673 31.8957 82.2319 31.3957 81.4977 30.6615C80.7635 29.9273 80.2634 28.9918 80.0608 27.9734C79.8582 26.955 79.9623 25.8994 80.3596 24.9401C80.757 23.9808 81.4299 23.1609 82.2932 22.584C83.1566 22.0071 84.1716 21.6992 85.21 21.6992C86.6024 21.6992 87.9377 22.2523 88.9223 23.2368C89.9068 24.2214 90.46 25.5568 90.46 26.9492Z" fill="#C22229"/>
<path d="M28.0601 28.1892C28.0621 29.228 27.7559 30.244 27.1802 31.1087C26.6045 31.9733 25.7852 32.6477 24.8261 33.0466C23.867 33.4455 22.8111 33.5509 21.792 33.3495C20.773 33.1481 19.8366 32.6489 19.1014 31.915C18.3661 31.1812 17.865 30.2457 17.6617 29.2271C17.4583 28.2084 17.5617 27.1523 17.9588 26.1924C18.3558 25.2325 19.0288 24.4119 19.8924 23.8346C20.7559 23.2573 21.7713 22.9492 22.8101 22.9492C23.4991 22.9479 24.1815 23.0825 24.8184 23.3452C25.4553 23.608 26.0341 23.9936 26.5218 24.4804C27.0094 24.9671 27.3964 25.5453 27.6603 26.1817C27.9243 26.818 28.0601 27.5002 28.0601 28.1892Z" fill="#C22229"/>
<path d="M41.2101 34.1904C41.0654 34.1881 40.9213 34.1713 40.78 34.1404L22.43 30.1404C22.1733 30.0846 21.9301 29.9788 21.7142 29.829C21.4984 29.6791 21.3142 29.4882 21.1721 29.2672C21.03 29.0462 20.9329 28.7994 20.8862 28.5409C20.8395 28.2823 20.8442 28.0171 20.9 27.7604C20.9558 27.5036 21.0617 27.2604 21.2115 27.0445C21.3613 26.8287 21.5522 26.6445 21.7732 26.5024C21.9942 26.3603 22.241 26.2632 22.4995 26.2165C22.7581 26.1698 23.0233 26.1745 23.28 26.2303L40.6201 30.0003L62.53 9.8004C62.8714 9.48598 63.3115 9.30006 63.7749 9.27452C64.2383 9.24898 64.6962 9.38538 65.0701 9.66038L86.4 25.3204C86.6506 25.4565 86.8692 25.6446 87.0411 25.8722C87.213 26.0997 87.3343 26.3614 87.3967 26.6396C87.4592 26.9179 87.4614 27.2063 87.4033 27.4855C87.3452 27.7646 87.228 28.0281 87.0597 28.2583C86.8914 28.4885 86.6758 28.68 86.4274 28.82C86.1789 28.9601 85.9035 29.0454 85.6194 29.0702C85.3353 29.095 85.0492 29.0588 84.7803 28.964C84.5113 28.8691 84.2657 28.7179 84.0601 28.5204L64.0601 13.8304L42.6001 33.6203C42.2284 33.9838 41.7299 34.1883 41.2101 34.1904Z" fill="#C22229"/>
</g>
<defs>
<clipPath id="clip0_225_64">
<rect width="108.5" height="91.25" fill="white"/>
</clipPath>
</defs>
</svg>
