<svg width="214" height="214" viewBox="0 0 214 214" fill="none" xmlns="http://www.w3.org/2000/svg">
<g filter="url(#filter0_d_1019_57)">
<circle cx="107" cy="103" r="100" fill="#B8292D"/>
</g>
<path d="M104.8 81.49H79.95V96.54H102.56V103.89H79.95V128.46H71.2V73.93H104.8V81.49ZM151.355 91.78C151.355 94.02 150.935 96.2133 150.095 98.36C149.255 100.507 148.065 102.42 146.525 104.1C144.985 105.733 143.142 107.063 140.995 108.09C138.895 109.07 136.585 109.56 134.065 109.56H120.555V128.46H111.805V73.93H134.065C136.585 73.93 138.895 74.4433 140.995 75.47C143.142 76.45 144.985 77.78 146.525 79.46C148.065 81.14 149.255 83.0533 150.095 85.2C150.935 87.3467 151.355 89.54 151.355 91.78ZM133.645 102.14C135.092 102.14 136.375 101.883 137.495 101.37C138.662 100.81 139.642 100.063 140.435 99.13C141.229 98.1967 141.812 97.1 142.185 95.84C142.605 94.58 142.815 93.2267 142.815 91.78C142.815 90.3333 142.605 88.98 142.185 87.72C141.812 86.46 141.229 85.3633 140.435 84.43C139.642 83.45 138.662 82.7033 137.495 82.19C136.375 81.63 135.092 81.35 133.645 81.35H120.555V102.14H133.645Z" fill="white"/>
<defs>
<filter id="filter0_d_1019_57" x="0" y="0" width="214" height="214" filterUnits="userSpaceOnUse" color-interpolation-filters="sRGB">
<feFlood flood-opacity="0" result="BackgroundImageFix"/>
<feColorMatrix in="SourceAlpha" type="matrix" values="0 0 0 0 0 0 0 0 0 0 0 0 0 0 0 0 0 0 127 0" result="hardAlpha"/>
<feOffset dy="4"/>
<feGaussianBlur stdDeviation="3.5"/>
<feComposite in2="hardAlpha" operator="out"/>
<feColorMatrix type="matrix" values="0 0 0 0 0 0 0 0 0 0 0 0 0 0 0 0 0 0 0.25 0"/>
<feBlend mode="normal" in2="BackgroundImageFix" result="effect1_dropShadow_1019_57"/>
<feBlend mode="normal" in="SourceGraphic" in2="effect1_dropShadow_1019_57" result="shape"/>
</filter>
</defs>
</svg>
