<svg width="276" height="276" viewBox="0 0 276 276" fill="none" xmlns="http://www.w3.org/2000/svg">
<g clip-path="url(#clip0_2161_696)">
<path d="M138 276C121.864 275.983 105.859 273.106 90.7261 267.504C89.0122 266.863 87.6126 265.584 86.821 263.934C86.0293 262.284 85.9071 260.391 86.4799 258.653L92.6369 240.031L75.0861 228.348L58.1015 243.217C56.8148 244.333 55.169 244.947 53.4661 244.947C51.7633 244.947 50.1175 244.333 48.8308 243.217C33.4553 230.098 21.1157 213.79 12.6677 195.423C11.8826 193.749 11.7836 191.833 12.392 190.087C13.0004 188.34 14.2678 186.901 15.923 186.077L33.4739 177.297L29.3692 156.622L7.1477 155.064C5.43905 154.967 3.82354 154.253 2.60044 153.056C1.37734 151.858 0.629514 150.257 0.495375 148.55C0.495375 145.01 -6.10352e-05 141.47 -6.10352e-05 137.859C0.0504458 121.265 3.07048 104.815 8.91693 89.286C9.55658 87.5548 10.8466 86.1418 12.5122 85.3483C14.1778 84.5547 16.0873 84.4433 17.8338 85.0377L36.0216 91.1269L47.6984 73.4963L33.5446 57.2111C32.4292 55.9237 31.8152 54.277 31.8152 52.5733C31.8152 50.8695 32.4292 49.2229 33.5446 47.9355C46.6885 32.6927 62.9882 20.492 81.3138 12.1788C82.9721 11.4365 84.8521 11.3606 86.5647 11.9669C88.2773 12.5732 89.6913 13.8152 90.5138 15.4358L98.7938 31.9335L119.458 27.8268L120.874 6.58511C120.988 4.88814 121.708 3.28883 122.904 2.07971C124.099 0.870584 125.69 0.132493 127.385 0.000248611C147.403 -1.56218 167.521 1.26499 186.335 8.28448C187.229 8.63254 188.042 9.15854 188.726 9.83055C189.41 10.5025 189.95 11.3065 190.314 12.1937C190.678 13.081 190.858 14.033 190.843 14.992C190.828 15.9509 190.619 16.8969 190.228 17.7724L184.566 34.7657L202.117 46.4487L217.615 32.854C218.902 31.7381 220.548 31.1237 222.251 31.1237C223.954 31.1237 225.599 31.7381 226.886 32.854C242.161 45.8653 254.449 62.0231 262.908 80.2229C263.671 81.8899 263.758 83.788 263.151 85.518C262.544 87.248 261.29 88.675 259.652 89.4985L243.729 97.4994L247.834 118.175L268.569 119.591C270.254 119.703 271.844 120.413 273.051 121.595C274.258 122.777 275.002 124.351 275.151 126.034C275.575 130.849 275.788 134.602 275.788 138.213C275.744 154.203 272.918 170.065 267.437 185.086C266.811 186.83 265.527 188.259 263.86 189.067C262.193 189.874 260.276 189.996 258.52 189.405L241.252 183.67L229.505 201.23L243.658 217.373C244.755 218.656 245.357 220.288 245.357 221.976C245.357 223.663 244.755 225.295 243.658 226.578C230.7 242.036 214.548 254.5 196.314 263.114C194.64 263.899 192.726 263.998 190.98 263.389C189.234 262.781 187.796 261.513 186.972 259.857L178.48 242.863L157.815 246.97L156.329 269.132C156.201 270.805 155.484 272.379 154.304 273.572C153.125 274.765 151.56 275.5 149.889 275.646C145.502 275.788 141.609 276 138 276ZM102.12 256.458C113.752 259.999 125.841 261.812 138 261.839C139.557 261.839 141.114 261.839 142.883 261.839L144.298 240.597C144.392 239.039 144.998 237.555 146.022 236.377C147.046 235.199 148.43 234.393 149.96 234.083L181.311 227.782C182.838 227.482 184.421 227.694 185.816 228.385C187.21 229.076 188.338 230.208 189.025 231.605L196.738 247.112C208.828 240.539 219.774 232.051 229.151 221.976L215.492 206.398C214.473 205.23 213.865 203.758 213.763 202.21C213.661 200.662 214.069 199.124 214.926 197.831L232.689 171.208C233.551 169.933 234.805 168.973 236.261 168.475C237.716 167.977 239.295 167.967 240.757 168.447L256.538 173.686C260.036 162.21 261.824 150.281 261.846 138.283C261.846 136.726 261.846 135.097 261.846 133.398L241.889 132.053C240.332 131.959 238.849 131.352 237.671 130.328C236.494 129.303 235.688 127.918 235.378 126.388L229.08 95.0213C228.78 93.4934 228.992 91.9093 229.683 90.5141C230.374 89.119 231.505 87.9906 232.902 87.3035L247.055 80.2229C240.611 68.1827 232.245 57.2766 222.286 47.9355L207.425 60.8929C206.256 61.9128 204.786 62.5207 203.239 62.623C201.692 62.7253 200.154 62.3165 198.862 61.4594L172.323 43.8288C171.021 42.9726 170.038 41.7105 169.526 40.2383C169.014 38.766 169.003 37.1659 169.492 35.6862L174.658 20.2506C161.649 16.0067 147.994 14.0892 134.32 14.5862L132.975 34.6949C132.882 36.2533 132.275 37.7369 131.252 38.915C130.228 40.0931 128.843 40.8996 127.314 41.209L96.0338 47.4399C94.5042 47.7625 92.9108 47.5692 91.5026 46.8903C90.0943 46.2115 88.9503 45.0852 88.2492 43.6873L80.7477 28.6056C68.5914 34.9666 57.5683 43.2919 48.123 53.2459L61.7816 68.8232C62.8177 69.9976 63.4353 71.4826 63.5377 73.0457C63.6402 74.6088 63.2216 76.1617 62.3476 77.4614L44.6553 104.013C43.7995 105.316 42.5381 106.3 41.0666 106.812C39.5951 107.324 37.9959 107.336 36.5169 106.846L19.8153 101.252C16 113.275 14.0431 125.811 14.0123 138.425C14.0123 139.629 14.0123 140.762 14.0123 141.965L35.2431 143.381C36.8007 143.475 38.2835 144.082 39.461 145.106C40.6385 146.131 41.4446 147.516 41.7538 149.046L48.0523 180.413C48.3521 181.941 48.1401 183.525 47.4493 184.92C46.7585 186.315 45.6272 187.443 44.2307 188.131L28.0953 196.202C34.56 208.412 43.0015 219.465 53.0769 228.915L69.4245 214.753C70.5928 213.734 72.0634 213.126 73.6105 213.023C75.1575 212.921 76.6954 213.33 77.9877 214.187L104.597 231.888C105.886 232.755 106.855 234.021 107.354 235.493C107.852 236.964 107.854 238.559 107.357 240.031L102.12 256.458Z" fill="#E0E0E0"/>
<path d="M139.274 208.946C120.085 208.946 101.681 201.325 88.1064 187.756C74.5314 174.187 66.8957 155.781 66.877 136.583C66.8769 117.366 74.5021 98.9346 88.0772 85.3393C101.652 71.7441 120.066 64.0969 139.274 64.0781C148.79 64.1152 158.207 66.0275 166.985 69.7055C175.763 73.3836 183.731 78.7555 190.433 85.5145C197.136 92.2735 202.443 100.287 206.051 109.098C209.658 117.909 211.496 127.345 211.458 136.866C211.365 155.979 203.726 174.28 190.204 187.781C176.683 201.283 158.377 208.891 139.274 208.946ZM139.274 78.2392C123.826 78.2767 109.023 84.4379 98.1061 95.3734C87.1895 106.309 81.0495 121.127 81.0308 136.583C81.0496 152.026 87.1941 166.83 98.1147 177.743C109.035 188.656 123.839 194.785 139.274 194.785C154.709 194.785 169.512 188.656 180.433 177.743C191.354 166.83 197.498 152.026 197.517 136.583C197.424 121.176 191.251 106.431 180.342 95.5562C169.433 84.6818 154.673 78.5596 139.274 78.5225V78.2392Z" fill="#E0E0E0"/>
</g>
<defs>
<clipPath id="clip0_2161_696">
<rect width="276" height="276" fill="white"/>
</clipPath>
</defs>
</svg>
