<svg width="100" height="100" viewBox="0 0 100 100" fill="none" xmlns="http://www.w3.org/2000/svg">
<g clip-path="url(#clip0_739_564)">
<path d="M58.0644 32.2581H41.9354V22.9678C40.4265 21.7597 39.2083 20.2281 38.3708 18.486C37.5333 16.744 37.0979 14.8361 37.0967 12.9032C37.0967 9.48108 38.4561 6.19908 40.8759 3.77926C43.2958 1.35943 46.5778 0 49.9999 0C53.4221 0 56.704 1.35943 59.1239 3.77926C61.5437 6.19908 62.9031 9.48108 62.9031 12.9032C62.9019 14.8361 62.4665 16.744 61.629 18.486C60.7915 20.2281 59.5733 21.7597 58.0644 22.9678V32.2581Z" fill="#B8292D"/>
<path d="M59.6771 24.1934H40.3223V27.4192H59.6771V24.1934Z" fill="#444444"/>
<path d="M51.6125 16.1289H48.3867V25.8063H51.6125V16.1289Z" fill="#444444"/>
<path d="M49.9998 17.7419C48.7165 17.7419 47.4858 17.2321 46.5784 16.3247C45.6709 15.4172 45.1611 14.1865 45.1611 12.9032C45.1611 11.6199 45.6709 10.3891 46.5784 9.48167C47.4858 8.57424 48.7165 8.06445 49.9998 8.06445C51.2831 8.06445 52.5139 8.57424 53.4213 9.48167C54.3288 10.3891 54.8386 11.6199 54.8386 12.9032C54.8386 14.1865 54.3288 15.4172 53.4213 16.3247C52.5139 17.2321 51.2831 17.7419 49.9998 17.7419ZM49.9998 11.2903C49.5721 11.2903 49.1618 11.4602 48.8593 11.7627C48.5569 12.0651 48.3869 12.4754 48.3869 12.9032C48.3869 13.3309 48.5569 13.7412 48.8593 14.0437C49.1618 14.3461 49.5721 14.5161 49.9998 14.5161C50.4276 14.5161 50.8379 14.3461 51.1403 14.0437C51.4428 13.7412 51.6127 13.3309 51.6127 12.9032C51.6127 12.4754 51.4428 12.0651 51.1403 11.7627C50.8379 11.4602 50.4276 11.2903 49.9998 11.2903Z" fill="#444444"/>
<path d="M74.1938 100H25.8067V87.9359C25.8029 84.2863 26.7185 80.6946 28.4691 77.4923C30.2196 74.29 32.7487 71.5803 35.8228 69.6133L37.5647 72.3229C34.948 74.0018 32.7953 76.3114 31.3044 79.0396C29.8135 81.7678 29.0322 84.8269 29.0325 87.9359V96.7746H70.9679V87.9359C70.9682 84.8269 70.1869 81.7678 68.696 79.0396C67.2051 76.3114 65.0524 74.0018 62.4357 72.3229L64.1776 69.6133C67.2517 71.5803 69.7808 74.29 71.5313 77.4923C73.2819 80.6946 74.1975 84.2863 74.1938 87.9359V100Z" fill="#444444"/>
<path d="M49.9997 72.7104C45.2943 72.7104 40.7816 70.8412 37.4543 67.5139C34.127 64.1867 32.2578 59.674 32.2578 54.9685C32.2578 50.263 34.127 45.7503 37.4543 42.423C40.7816 39.0958 45.2943 37.2266 49.9997 37.2266C54.7052 37.2266 59.2179 39.0958 62.5452 42.423C65.8725 45.7503 67.7417 50.263 67.7417 54.9685C67.7417 59.674 65.8725 64.1867 62.5452 67.5139C59.2179 70.8412 54.7052 72.7104 49.9997 72.7104ZM49.9997 40.3233C46.1498 40.3233 42.4576 41.8527 39.7353 44.575C37.013 47.2973 35.4836 50.9895 35.4836 54.8395C35.4836 58.6894 37.013 62.3816 39.7353 65.1039C42.4576 67.8262 46.1498 69.3556 49.9997 69.3556C53.8418 69.3302 57.5194 67.7927 60.2362 65.0759C62.953 62.3591 64.4905 58.6816 64.5159 54.8395C64.4905 50.9974 62.953 47.3199 60.2362 44.603C57.5194 41.8862 53.8418 40.3487 49.9997 40.3233V40.3233Z" fill="#444444"/>
<path d="M24.1931 64.646C19.4877 64.646 14.9749 62.7767 11.6477 59.4495C8.32042 56.1222 6.45117 51.6095 6.45117 46.9041C6.45117 42.1986 8.32042 37.6859 11.6477 34.3586C14.9749 31.0313 19.4877 29.1621 24.1931 29.1621C26.8302 29.1588 29.4348 29.7434 31.8176 30.8734C34.2003 32.0034 36.3011 33.6503 37.9673 35.6944L35.4834 37.7428C34.119 36.0658 32.3973 34.7147 30.444 33.7883C28.4906 32.8619 26.355 32.3834 24.1931 32.3879C20.3432 32.3879 16.6509 33.9173 13.9286 36.6396C11.2063 39.3619 9.67698 43.0541 9.67698 46.9041C9.67698 50.754 11.2063 54.4462 13.9286 57.1685C16.6509 59.8908 20.3432 61.4202 24.1931 61.4202C25.5524 61.4156 26.9043 61.2202 28.2092 60.8395L29.0963 63.9524C27.5008 64.404 25.8513 64.6374 24.1931 64.646V64.646Z" fill="#444444"/>
<path d="M20.9678 91.9359H1.16129e-05V79.8714C-0.00376137 76.2219 0.911893 72.6302 2.66245 69.4279C4.413 66.2255 6.94206 63.5158 10.0162 61.5488L11.7581 64.2585C9.14136 65.9373 6.98863 68.247 5.49773 70.9751C4.00682 73.7033 3.22559 76.7625 3.22582 79.8714V88.7101H20.9678V91.9359Z" fill="#444444"/>
<path d="M75.8069 64.6461C74.1702 64.6327 72.5427 64.3994 70.9682 63.9525L71.8553 60.8397C73.1596 61.223 74.5119 61.4186 75.8714 61.4203C79.7135 61.3949 83.391 59.8574 86.1078 57.1406C88.8246 54.4238 90.3622 50.7463 90.3875 46.9042C90.3622 43.0621 88.8246 39.3846 86.1078 36.6677C83.391 33.9509 79.7135 32.4134 75.8714 32.388C73.7095 32.3835 71.5739 32.862 69.6205 33.7884C67.6672 34.7148 65.9455 36.0659 64.5811 37.7429L62.0811 35.6945C63.7294 33.6331 65.8169 31.9655 68.1914 30.8131C70.5659 29.6607 73.1676 29.0527 75.8069 29.0332C80.5123 29.0332 85.0251 30.9024 88.3523 34.2297C91.6796 37.557 93.5488 42.0697 93.5488 46.7751C93.5658 49.1159 93.1195 51.4368 92.2355 53.6043C91.3515 55.7718 90.0473 57.7429 88.3981 59.4041C86.749 61.0653 84.7874 62.3837 82.6264 63.2834C80.4653 64.183 78.1477 64.6462 75.8069 64.6461Z" fill="#444444"/>
<path d="M99.9996 91.9359H77.4189V87.9359H80.6448V88.7101H96.7738V79.8714C96.774 76.7625 95.9928 73.7033 94.5019 70.9751C93.011 68.247 90.8582 65.9373 88.2415 64.2585L89.9835 61.5488C93.0576 63.5158 95.5866 66.2255 97.3372 69.4279C99.0877 72.6302 100.003 76.2219 99.9996 79.8714V91.9359Z" fill="#444444"/>
<path d="M50.0007 98.3548L37.3232 76.6129L40.0974 75L50.0007 91.9677L59.9039 75L62.6781 76.6129L50.0007 98.3548Z" fill="#444444"/>
</g>
<defs>
<clipPath id="clip0_739_564">
<rect width="100" height="100" fill="white"/>
</clipPath>
</defs>
</svg>
