<svg width="150" height="132" viewBox="0 0 150 132" fill="none" xmlns="http://www.w3.org/2000/svg">
<g clip-path="url(#clip0_1331_562)">
<path d="M29.168 131.642C28.705 131.64 28.2479 131.537 27.8288 131.34C27.4515 131.164 27.1126 130.915 26.8315 130.608C26.5504 130.301 26.3326 129.941 26.1906 129.55C26.0486 129.158 25.9851 128.742 26.0038 128.326C26.0225 127.91 26.123 127.502 26.2995 127.125L41.252 95.1599C41.4284 94.7827 41.6773 94.4438 41.9846 94.1628C42.2919 93.8818 42.6516 93.6641 43.043 93.5221C43.4345 93.3801 43.8501 93.3166 44.2661 93.3352C44.6821 93.3538 45.0903 93.4542 45.4675 93.6306C45.8447 93.807 46.1835 94.0559 46.4645 94.3632C46.7455 94.6705 46.9632 95.0302 47.1053 95.4216C47.2473 95.8131 47.3108 96.2286 47.2922 96.6446C47.2736 97.0606 47.1732 97.4688 46.9968 97.846L32.0444 129.819C31.788 130.365 31.3812 130.827 30.8717 131.15C30.3622 131.472 29.7711 131.643 29.168 131.642Z" fill="#444444"/>
<path d="M120.832 131.639C120.229 131.638 119.639 131.465 119.131 131.141C118.623 130.817 118.218 130.354 117.964 129.808L103.011 97.843C102.816 97.4641 102.699 97.0498 102.668 96.6247C102.637 96.1996 102.692 95.7724 102.829 95.3689C102.967 94.9655 103.184 94.5941 103.469 94.2767C103.753 93.9593 104.099 93.7024 104.485 93.5216C104.871 93.3409 105.29 93.24 105.716 93.2247C106.142 93.2094 106.566 93.2802 106.964 93.4328C107.362 93.5855 107.725 93.8168 108.032 94.113C108.338 94.4093 108.582 94.7644 108.748 95.1569L123.7 127.122C123.927 127.605 124.028 128.137 123.995 128.67C123.961 129.202 123.793 129.718 123.507 130.168C123.221 130.619 122.826 130.99 122.358 131.247C121.891 131.504 121.366 131.639 120.832 131.639Z" fill="#444444"/>
<path d="M74.9921 108.423C74.1515 108.423 73.3453 108.089 72.7509 107.494C72.1564 106.9 71.8225 106.094 71.8225 105.253V3.19301C71.8225 2.35239 72.1564 1.54624 72.7509 0.95183C73.3453 0.35742 74.1515 0.0234375 74.9921 0.0234375C75.8327 0.0234375 76.6389 0.35742 77.2333 0.95183C77.8277 1.54624 78.1617 2.35239 78.1617 3.19301V105.253C78.1617 106.094 77.8277 106.9 77.2333 107.494C76.6389 108.089 75.8327 108.423 74.9921 108.423Z" fill="#444444"/>
<path d="M134.453 27.4023H15.5468V98.9475H134.453V27.4023Z" fill="white"/>
<path d="M134.422 102.084H15.5626C14.722 102.084 13.9158 101.75 13.3214 101.155C12.727 100.561 12.393 99.7546 12.393 98.914V27.3688C12.393 26.5282 12.727 25.722 13.3214 25.1276C13.9158 24.5332 14.722 24.1992 15.5626 24.1992H134.422C135.262 24.1992 136.068 24.5332 136.663 25.1276C137.257 25.722 137.591 26.5282 137.591 27.3688V98.914C137.591 99.7546 137.257 100.561 136.663 101.155C136.068 101.75 135.262 102.084 134.422 102.084ZM18.7322 95.7444H131.252V30.5384H18.7322V95.7444Z" fill="#444444"/>
<path d="M146.83 19.6042C146.83 21.4956 146.079 23.3096 144.742 24.647C143.404 25.9844 141.59 26.7357 139.699 26.7357H10.3407C8.4493 26.7357 6.63538 25.9844 5.29795 24.647C3.96053 23.3096 3.20917 21.4956 3.20917 19.6042C3.20917 17.7128 3.96053 15.899 5.29795 14.5616C6.63538 13.2242 8.4493 12.4727 10.3407 12.4727H139.667C141.559 12.4727 143.373 13.2242 144.71 14.5616C146.047 15.899 146.799 17.7128 146.799 19.6042H146.83Z" fill="white"/>
<path d="M139.667 29.9744H10.3407C7.59923 29.9744 4.97005 28.8853 3.03153 26.9468C1.09301 25.0083 0.00395203 22.3792 0.00395203 19.6377C0.00395203 16.8962 1.09301 14.2669 3.03153 12.3284C4.97005 10.3898 7.59923 9.30078 10.3407 9.30078H139.667C142.409 9.30078 145.038 10.3898 146.976 12.3284C148.915 14.2669 150.004 16.8962 150.004 19.6377C150.004 22.3792 148.915 25.0083 146.976 26.9468C145.038 28.8853 142.409 29.9744 139.667 29.9744ZM10.3407 15.6399C9.28047 15.6399 8.26369 16.0612 7.51399 16.8109C6.76429 17.5606 6.3431 18.5774 6.3431 19.6377C6.3431 20.6979 6.76429 21.7148 7.51399 22.4645C8.26369 23.2142 9.28047 23.6352 10.3407 23.6352H139.667C140.727 23.6352 141.744 23.2142 142.494 22.4645C143.244 21.7148 143.665 20.6979 143.665 19.6377C143.665 18.5774 143.244 17.5606 142.494 16.8109C141.744 16.0612 140.727 15.6399 139.667 15.6399H10.3407Z" fill="#444444"/>
<path d="M146.83 105.253C146.836 106.192 146.655 107.124 146.299 107.994C145.943 108.864 145.418 109.655 144.756 110.321C144.093 110.987 143.305 111.516 142.437 111.877C141.569 112.238 140.639 112.424 139.699 112.424H10.3407C9.40085 112.424 8.47029 112.238 7.60246 111.877C6.73463 111.516 5.94669 110.987 5.28395 110.321C4.6212 109.655 4.09671 108.864 3.74066 107.994C3.3846 107.124 3.20396 106.192 3.20919 105.253C3.20919 103.361 3.96055 101.547 5.29797 100.21C6.63539 98.8724 8.44932 98.1211 10.3407 98.1211H139.667C141.559 98.1211 143.373 98.8724 144.71 100.21C146.047 101.547 146.799 103.361 146.799 105.253H146.83Z" fill="white"/>
<path d="M139.667 115.556H10.3407C7.59923 115.556 4.97005 114.467 3.03153 112.529C1.09301 110.59 0.00395203 107.961 0.00395203 105.22C0.00395203 102.478 1.09301 99.8489 3.03153 97.9104C4.97005 95.9719 7.59923 94.8828 10.3407 94.8828H139.667C142.409 94.8828 145.038 95.9719 146.976 97.9104C148.915 99.8489 150.004 102.478 150.004 105.22C150.004 107.961 148.915 110.59 146.976 112.529C145.038 114.467 142.409 115.556 139.667 115.556ZM10.3407 101.222C9.28047 101.222 8.26369 101.643 7.51399 102.393C6.76429 103.143 6.3431 104.159 6.3431 105.22C6.3431 106.28 6.76429 107.297 7.51399 108.046C8.26369 108.796 9.28047 109.217 10.3407 109.217H139.667C140.727 109.217 141.744 108.796 142.494 108.046C143.244 107.297 143.665 106.28 143.665 105.22C143.665 104.159 143.244 103.143 142.494 102.393C141.744 101.643 140.727 101.222 139.667 101.222H10.3407Z" fill="#444444"/>
<path d="M32.6941 80.3713C32.1108 80.3707 31.539 80.209 31.0416 79.9043C30.5441 79.5995 30.1405 79.1633 29.8751 78.6439C29.6096 78.1245 29.4926 77.5419 29.537 76.9603C29.5815 76.3786 29.7855 75.8205 30.1268 75.3474L42.6307 57.9941C42.8765 57.6535 43.1875 57.365 43.5457 57.1456C43.9038 56.9262 44.3021 56.7803 44.7171 56.7161C45.1322 56.652 45.5559 56.671 45.9636 56.772C46.3713 56.8731 46.7548 57.0541 47.0919 57.3046L56.8542 64.5787L67.5357 47.7009C67.7584 47.3492 68.0481 47.0448 68.3885 46.805C68.7288 46.5653 69.113 46.3948 69.5192 46.3036C69.9253 46.2124 70.3455 46.2021 70.7556 46.2732C71.1658 46.3444 71.5579 46.4955 71.9097 46.7182C72.2614 46.9409 72.5658 47.2308 72.8055 47.5711C73.0453 47.9114 73.2156 48.2957 73.3068 48.7019C73.3981 49.108 73.4084 49.5281 73.3373 49.9382C73.2662 50.3484 73.1149 50.7405 72.8922 51.0922L60.3883 70.8546C60.1549 71.2236 59.8479 71.5404 59.4863 71.7851C59.1248 72.0299 58.7166 72.1973 58.2874 72.2769C57.8581 72.3565 57.417 72.3465 56.9918 72.2477C56.5665 72.1488 56.1663 71.9631 55.8162 71.7023L45.8875 64.3174L35.2694 79.0558C34.9753 79.4636 34.5883 79.7957 34.1405 80.0244C33.6927 80.2531 33.197 80.372 32.6941 80.3713Z" fill="#444444"/>
<path d="M38.2171 77.203C38.2171 78.3 37.8918 79.3724 37.2823 80.2846C36.6728 81.1967 35.8065 81.9076 34.793 82.3274C33.7795 82.7473 32.6642 82.8572 31.5882 82.6432C30.5123 82.4291 29.5239 81.9008 28.7482 81.1251C27.9725 80.3494 27.4442 79.361 27.2302 78.285C27.0161 77.209 27.126 76.0938 27.5458 75.0802C27.9656 74.0667 28.6766 73.2005 29.5887 72.591C30.5009 71.9815 31.5733 71.6562 32.6704 71.6562C34.1415 71.6562 35.5523 72.2405 36.5925 73.2807C37.6327 74.3209 38.2171 75.7319 38.2171 77.203Z" fill="#B8292D"/>
<path d="M50.7211 59.8475C50.7211 60.9446 50.3958 62.0171 49.7863 62.9293C49.1768 63.8414 48.3105 64.5523 47.2969 64.9722C46.2834 65.392 45.1682 65.5017 44.0922 65.2877C43.0163 65.0737 42.0279 64.5454 41.2521 63.7696C40.4764 62.9939 39.9482 62.0057 39.7342 60.9297C39.5201 59.8538 39.63 58.7385 40.0498 57.7249C40.4696 56.7114 41.1806 55.845 42.0927 55.2356C43.0049 54.6261 44.0773 54.3008 45.1743 54.3008C46.6454 54.3008 48.0563 54.8852 49.0965 55.9254C50.1367 56.9656 50.7211 58.3764 50.7211 59.8475Z" fill="#B8292D"/>
<path d="M63.225 69.16C63.225 70.2571 62.8997 71.3296 62.2902 72.2418C61.6807 73.1539 60.8145 73.8648 59.8009 74.2847C58.7874 74.7045 57.6721 74.8142 56.5961 74.6002C55.5202 74.3862 54.5318 73.8579 53.7561 73.0821C52.9804 72.3064 52.4521 71.3182 52.2381 70.2422C52.0241 69.1663 52.1339 68.051 52.5537 67.0374C52.9736 66.0239 53.6845 65.1575 54.5966 64.5481C55.5088 63.9386 56.5812 63.6133 57.6783 63.6133C59.1494 63.6133 60.5602 64.1977 61.6004 65.2379C62.6406 66.2781 63.225 67.6889 63.225 69.16Z" fill="#B8292D"/>
<path d="M75.7369 49.3983C75.7369 50.4954 75.4116 51.5677 74.8021 52.4799C74.1927 53.392 73.3263 54.1029 72.3128 54.5228C71.2993 54.9426 70.184 55.0525 69.108 54.8385C68.0321 54.6244 67.0437 54.0962 66.268 53.3204C65.4923 52.5447 64.964 51.5565 64.75 50.4805C64.536 49.4045 64.6458 48.2893 65.0656 47.2757C65.4855 46.2622 66.1964 45.3958 67.1086 44.7863C68.0207 44.1769 69.0931 43.8516 70.1902 43.8516C71.6613 43.8516 73.0721 44.436 74.1123 45.4762C75.1526 46.5164 75.7369 47.9272 75.7369 49.3983Z" fill="#B8292D"/>
<path d="M115.848 53.2102H93.4944C92.6538 53.2102 91.8476 52.8763 91.2532 52.2818C90.6588 51.6874 90.3249 50.8813 90.3249 50.0407C90.3249 49.2 90.6588 48.3937 91.2532 47.7993C91.8476 47.2049 92.6538 46.8711 93.4944 46.8711H115.848C116.688 46.8711 117.495 47.2049 118.089 47.7993C118.683 48.3937 119.017 49.2 119.017 50.0407C119.017 50.8813 118.683 51.6874 118.089 52.2818C117.495 52.8763 116.688 53.2102 115.848 53.2102Z" fill="#444444"/>
<path d="M115.848 66.3391H93.4944C92.6538 66.3391 91.8476 66.0054 91.2532 65.4109C90.6588 64.8165 90.3249 64.0102 90.3249 63.1696C90.3249 62.3289 90.6588 61.5228 91.2532 60.9284C91.8476 60.334 92.6538 60 93.4944 60H115.848C116.688 60 117.495 60.334 118.089 60.9284C118.683 61.5228 119.017 62.3289 119.017 63.1696C119.017 64.0102 118.683 64.8165 118.089 65.4109C117.495 66.0054 116.688 66.3391 115.848 66.3391Z" fill="#444444"/>
<path d="M109.746 79.468H93.4944C92.6538 79.468 91.8476 79.1341 91.2532 78.5397C90.6588 77.9452 90.3249 77.1391 90.3249 76.2985C90.3249 75.4579 90.6588 74.6517 91.2532 74.0573C91.8476 73.4629 92.6538 73.1289 93.4944 73.1289H109.746C110.587 73.1289 111.393 73.4629 111.988 74.0573C112.582 74.6517 112.916 75.4579 112.916 76.2985C112.916 77.1391 112.582 77.9452 111.988 78.5397C111.393 79.1341 110.587 79.468 109.746 79.468Z" fill="#444444"/>
</g>
<defs>
<clipPath id="clip0_1331_562">
<rect width="150" height="131.64" fill="white"/>
</clipPath>
</defs>
</svg>
