<svg width="150" height="159" viewBox="0 0 150 159" fill="none" xmlns="http://www.w3.org/2000/svg">
<g clip-path="url(#clip0_1488_3796)">
<path d="M7.25806 153.629V59.2741H43.5484V3.62891H106.452V59.2741H142.742V156.048L7.25806 153.629Z" fill="white"/>
<path d="M145.161 158.468H101.613V56.8555H145.161V158.468ZM106.452 153.63H140.322V61.6942H106.452V153.63Z" fill="#444444"/>
<path d="M133.064 81.0474H113.709V66.5312H133.064V81.0474ZM118.548 76.2087H128.226V71.37H118.548V76.2087Z" fill="#444444"/>
<path d="M133.064 100.403H113.709V85.8867H133.064V100.403ZM118.548 95.5641H128.226V90.7254H118.548V95.5641Z" fill="#444444"/>
<path d="M133.064 119.758H113.709V105.242H133.064V119.758ZM118.548 114.92H128.226V110.081H118.548V114.92Z" fill="#444444"/>
<path d="M133.064 139.114H113.709V124.598H133.064V139.114ZM118.548 134.275H128.226V129.436H118.548V134.275Z" fill="#444444"/>
<path d="M48.387 158.468H4.83862V56.8555H48.387V158.468ZM9.67733 153.63H43.5483V61.6942H9.67733V153.63Z" fill="#444444"/>
<path d="M36.2904 81.0474H16.9355V66.5312H36.2904V81.0474ZM21.7743 76.2087H31.4517V71.37H21.7743V76.2087Z" fill="#444444"/>
<path d="M36.2904 100.403H16.9355V85.8867H36.2904V100.403ZM21.7743 95.5641H31.4517V90.7254H21.7743V95.5641Z" fill="#444444"/>
<path d="M36.2904 119.758H16.9355V105.242H36.2904V119.758ZM21.7743 114.92H31.4517V110.081H21.7743V114.92Z" fill="#444444"/>
<path d="M36.2904 139.114H16.9355V124.598H36.2904V139.114ZM21.7743 134.275H31.4517V129.436H21.7743V134.275Z" fill="#444444"/>
<path d="M104 154H46V4H104V154Z" stroke="#444444" stroke-width="5.5" stroke-miterlimit="10"/>
<path d="M80 48H70V38H60V28H70V18H80V28H90V38H80V48ZM73.3333 44.6667H76.6667V34.6667H86.6667V31.3333H76.6667V21.3333H73.3333V31.3333H63.3333V34.6667H73.3333V44.6667Z" fill="#B8292D"/>
<path d="M94.3547 156.048H89.516V117.339H60.4837V156.048H55.645V112.5H94.3547V156.048Z" fill="#444444"/>
<path d="M96.774 112.5H53.2256V117.339H96.774V112.5Z" fill="#444444"/>
<path d="M77.4193 114.918H72.5806V156.047H77.4193V114.918Z" fill="#444444"/>
<path d="M72.5804 81.0474H53.2256V66.5312H72.5804V81.0474ZM58.0643 76.2087H67.7417V71.37H58.0643V76.2087Z" fill="#444444"/>
<path d="M96.7743 81.0474H77.4194V66.5312H96.7743V81.0474ZM82.2581 76.2087H91.9356V71.37H82.2581V76.2087Z" fill="#444444"/>
<path d="M72.5804 100.403H53.2256V85.8867H72.5804V100.403ZM58.0643 95.5641H67.7417V90.7254H58.0643V95.5641Z" fill="#444444"/>
<path d="M96.7743 100.403H77.4194V85.8867H96.7743V100.403ZM82.2581 95.5641H91.9356V90.7254H82.2581V95.5641Z" fill="#444444"/>
<path d="M150 153.629H0V158.468H150V153.629Z" fill="#444444"/>
<path d="M77 21H73V45H77V21Z" fill="#B8292D"/>
<path d="M88 35V31H62V35H88Z" fill="#B8292D"/>
</g>
<defs>
<clipPath id="clip0_1488_3796">
<rect width="150" height="158.468" fill="white"/>
</clipPath>
</defs>
</svg>
