<svg width="28" height="22" viewBox="0 0 28 22" fill="none" xmlns="http://www.w3.org/2000/svg">
<g clip-path="url(#clip0_739_1295)">
<path d="M20.0468 21.527H7.94922V12.1525C7.95043 10.8811 8.45601 9.66217 9.35499 8.76319C10.254 7.86421 11.4729 7.35864 12.7442 7.35742H15.2564C16.5269 7.35985 17.7447 7.86597 18.6427 8.76482C19.5406 9.66366 20.0456 10.8819 20.0468 12.1525V21.527ZM9.32446 20.1518H18.6715V12.1525C18.6715 11.2463 18.3119 10.3771 17.6715 9.73593C17.0312 9.09473 16.1625 8.73388 15.2564 8.73267H12.7442C11.8376 8.73388 10.9685 9.09458 10.3274 9.73565C9.68635 10.3767 9.32568 11.2458 9.32446 12.1525V20.1518Z" fill="#1A1A1A"/>
<path d="M14.0003 8.73739C13.6189 8.73635 13.2405 8.66968 12.8818 8.54028L12.3179 8.33857C11.5929 8.07485 10.9663 7.59493 10.5228 6.96368C10.0793 6.33242 9.84022 5.58025 9.83789 4.80877V3.74983C9.8391 2.75569 10.2346 1.8026 10.9375 1.09963C11.6405 0.396666 12.5936 0.00121311 13.5877 0H14.4083C15.4024 0.00121311 16.3555 0.396666 17.0585 1.09963C17.7615 1.8026 18.1569 2.75569 18.1581 3.74983V4.80877C18.1571 5.58056 17.9185 6.33333 17.4748 6.96484C17.0312 7.59634 16.4038 8.07598 15.6781 8.33857L15.1188 8.54028C14.7599 8.66932 14.3817 8.73599 14.0003 8.73739ZM13.5877 1.37525C12.9583 1.37646 12.355 1.62703 11.91 2.07209C11.4649 2.51715 11.2143 3.12042 11.2131 3.74983V4.80877C11.214 5.29793 11.3654 5.77498 11.6467 6.17517C11.928 6.57537 12.3255 6.87934 12.7855 7.04584L13.3447 7.24754C13.7671 7.39867 14.2289 7.39867 14.6512 7.24754L15.2151 7.04584C15.6746 6.87915 16.0715 6.575 16.352 6.17474C16.6325 5.77448 16.783 5.29754 16.7829 4.80877V3.74983C16.7829 3.12005 16.5327 2.51607 16.0874 2.07074C15.6421 1.62542 15.0381 1.37525 14.4083 1.37525H13.5877Z" fill="#1A1A1A"/>
<path d="M10.0432 21.5281H0.00390625V13.5975C0.0051212 12.4554 0.459644 11.3606 1.26763 10.5535C2.07561 9.74633 3.17097 9.29297 4.31302 9.29297H5.14275V10.6682H4.31302C3.53571 10.6682 2.79015 10.9767 2.24008 11.5259C1.69001 12.0751 1.38037 12.8202 1.37915 13.5975V20.1528H10.0432V21.5281Z" fill="#1A1A1A"/>
<path d="M5.13839 10.686C4.8025 10.6871 4.46897 10.6297 4.15278 10.5164L3.69437 10.3422C3.05881 10.1126 2.50935 9.69285 2.12061 9.14008C1.73186 8.58731 1.52268 7.92828 1.52148 7.2525V6.33567C1.5227 5.46432 1.86938 4.629 2.48552 4.01286C3.10165 3.39672 3.93696 3.05004 4.80831 3.04883H5.50511C6.37646 3.05004 7.21177 3.39672 7.82791 4.01286C8.44405 4.629 8.79073 5.46432 8.79194 6.33567V7.2525C8.79009 7.92812 8.58066 8.58685 8.19201 9.13949C7.80335 9.69213 7.25425 10.112 6.61906 10.3422L6.16064 10.5164C5.83275 10.6335 5.48654 10.691 5.13839 10.686ZM4.78999 4.43783C4.283 4.43783 3.79679 4.63923 3.4383 4.99772C3.07981 5.35622 2.8784 5.84244 2.8784 6.34942V7.26625C2.88013 7.65924 3.00235 8.04224 3.22859 8.36358C3.45484 8.68491 3.77423 8.92911 4.14363 9.06323L4.60205 9.23284C4.93828 9.35433 5.3064 9.35433 5.64263 9.23284L6.10105 9.06323C6.47045 8.92911 6.78981 8.68491 7.01606 8.36358C7.2423 8.04224 7.36455 7.65924 7.36628 7.26625V6.34942C7.36628 5.84244 7.16487 5.35622 6.80638 4.99772C6.44789 4.63923 5.96168 4.43783 5.45469 4.43783H4.78999Z" fill="#1A1A1A"/>
<path d="M27.9996 21.5281H17.9512V20.1528H26.6244V13.5975C26.6232 12.8202 26.3135 12.0751 25.7635 11.5259C25.2134 10.9767 24.4678 10.6682 23.6905 10.6682H22.8608V9.29297H23.6905C24.8322 9.29418 25.9268 9.74794 26.7346 10.5548C27.5423 11.3617 27.9972 12.4558 27.9996 13.5975V21.5281Z" fill="#1A1A1A"/>
<path d="M22.861 10.686C22.5252 10.6871 22.1917 10.6297 21.8755 10.5164L21.4171 10.3422C20.7815 10.1126 20.232 9.69285 19.8433 9.14008C19.4545 8.58731 19.2453 7.92828 19.2441 7.2525V6.33567C19.2454 5.46432 19.592 4.629 20.2082 4.01286C20.8243 3.39672 21.6596 3.05004 22.531 3.04883H23.2278C24.0991 3.05004 24.9345 3.39672 25.5506 4.01286C26.1667 4.629 26.5134 5.46432 26.5146 6.33567V7.2525C26.5128 7.92812 26.3033 8.58685 25.9147 9.13949C25.526 9.69214 24.9769 10.112 24.3417 10.3422L23.8833 10.5164C23.5556 10.634 23.2092 10.6915 22.861 10.686ZM21.8663 9.04948L22.3247 9.21909C22.6589 9.34303 23.0265 9.34303 23.3607 9.21909L23.8191 9.04948C24.1885 8.91536 24.5079 8.67116 24.7342 8.34983C24.9604 8.02849 25.0826 7.64549 25.0844 7.2525V6.33567C25.0844 5.82869 24.883 5.34246 24.5245 4.98397C24.166 4.62548 23.6797 4.42407 23.1728 4.42407H22.5126C22.0057 4.42407 21.5194 4.62548 21.161 4.98397C20.8025 5.34246 20.6011 5.82869 20.6011 6.33567V7.2525C20.6028 7.64549 20.725 8.02849 20.9513 8.34983C21.1775 8.67116 21.4969 8.91536 21.8663 9.04948Z" fill="#1A1A1A"/>
</g>
<defs>
<clipPath id="clip0_739_1295">
<rect width="28" height="21.5272" fill="white"/>
</clipPath>
</defs>
</svg>
