<svg width="23" height="35" viewBox="0 0 23 35" fill="none" xmlns="http://www.w3.org/2000/svg">
<g clip-path="url(#clip0_739_1302)">
<path d="M17.7987 34.9818H5.23035C4.54723 34.9827 3.87062 34.8491 3.23914 34.5885C2.60767 34.3279 2.03371 33.9455 1.55002 33.4631C1.06633 32.9807 0.682391 32.4078 0.420125 31.777C0.157859 31.1463 0.0224007 30.47 0.0214844 29.7869V5.20188C0.0214831 3.82346 0.56858 2.5014 1.54261 1.52606C2.51665 0.550719 3.83797 0.00185022 5.21639 0H17.7847C19.1638 0.00184737 20.4858 0.550493 21.4609 1.52564C22.4361 2.50078 22.9847 3.82282 22.9866 5.20188V29.7869C22.9847 31.1629 22.4378 32.4821 21.4655 33.4557C20.4931 34.4294 19.1747 34.9781 17.7987 34.9818ZM5.23035 2.09472C4.82147 2.09288 4.41626 2.17194 4.03805 2.32735C3.65985 2.48276 3.31613 2.71145 3.02668 3.00025C2.73723 3.28905 2.50777 3.63226 2.35151 4.01011C2.19525 4.38797 2.11528 4.79299 2.1162 5.20188V29.7869C2.1162 30.6091 2.44283 31.3976 3.02422 31.979C3.60562 32.5604 4.39417 32.8871 5.21639 32.8871H17.7847C18.6076 32.8871 19.3968 32.5607 19.9793 31.9795C20.5618 31.3983 20.89 30.6097 20.8919 29.7869V5.20188C20.8919 4.79384 20.8115 4.3898 20.6553 4.01282C20.4992 3.63584 20.2703 3.29331 19.9818 3.00479C19.6933 2.71626 19.3507 2.48738 18.9738 2.33123C18.5968 2.17509 18.1927 2.09472 17.7847 2.09472H5.23035Z" fill="#1A1A1A"/>
<path d="M14.2298 29.2559H8.76953V31.3506H14.2298V29.2559Z" fill="#1A1A1A"/>
</g>
<defs>
<clipPath id="clip0_739_1302">
<rect width="23" height="34.9888" fill="white"/>
</clipPath>
</defs>
</svg>
