<svg width="28" height="21" viewBox="0 0 28 21" fill="none" xmlns="http://www.w3.org/2000/svg">
<g clip-path="url(#clip0_739_1292)">
<path d="M24.4063 20.6279H3.59378C3.12038 20.6279 2.65165 20.5344 2.21451 20.3527C1.77736 20.171 1.38042 19.9048 1.04649 19.5692C0.71255 19.2337 0.448199 18.8355 0.268617 18.3975C0.0890361 17.9595 -0.00223793 17.4903 4.16692e-05 17.0169V0H28V17.0169C28.0016 17.4901 27.9098 17.9589 27.7299 18.3966C27.5501 18.8342 27.2857 19.2322 26.9519 19.5675C26.6181 19.9029 26.2215 20.1692 25.7847 20.3512C25.3479 20.5331 24.8795 20.6272 24.4063 20.6279ZM1.73057 1.73053V17.0169C1.73057 17.511 1.92687 17.985 2.27629 18.3344C2.62571 18.6838 3.09963 18.8801 3.59378 18.8801H24.4063C24.9005 18.8801 25.3744 18.6838 25.7238 18.3344C26.0732 17.985 26.2695 17.511 26.2695 17.0169V1.73053H1.73057Z" fill="#1A1A1A"/>
<path d="M13.9995 11.3817L4.30857 4.40768C4.12192 4.27382 3.9961 4.07129 3.95878 3.84466C3.92146 3.61802 3.97569 3.38584 4.10956 3.19919C4.24342 3.01255 4.44595 2.88673 4.67259 2.8494C4.89922 2.81208 5.1314 2.86632 5.31804 3.00018L13.9707 9.2474L22.6234 3.00018C22.81 2.86632 23.0422 2.81208 23.2688 2.8494C23.4955 2.88673 23.698 3.01255 23.8318 3.19919C23.9657 3.38584 24.02 3.61802 23.9826 3.84466C23.9453 4.07129 23.8195 4.27382 23.6328 4.40768L13.9995 11.3817Z" fill="#1A1A1A"/>
</g>
<defs>
<clipPath id="clip0_739_1292">
<rect width="28" height="20.6279" fill="white"/>
</clipPath>
</defs>
</svg>
