<svg width="148" height="148" viewBox="0 0 148 148" fill="none" xmlns="http://www.w3.org/2000/svg">
<g filter="url(#filter0_d_1014_50)">
<circle cx="69" cy="67" r="66" fill="white"/>
</g>
<path d="M53.202 49.375C51.902 49.375 50.9103 49.1 50.227 48.55C49.5436 48 49.202 47.0667 49.202 45.75V37.625H52.202V41H61.702V37.625H64.677V49.375H58.527V54.05H67.677V56.7H46.352V54.05H55.502V49.375H53.202ZM61.702 43.65H52.202V45.325C52.202 45.8583 52.2936 46.225 52.477 46.425C52.677 46.625 53.0436 46.725 53.577 46.725H61.702V43.65ZM69.675 40.625V38.175H74.775V35.7H77.875V38.175H82.975V40.625H80.725C80.9917 40.9083 81.2167 41.225 81.4 41.575C81.6 41.925 81.75 42.3083 81.85 42.725H85.825V36.05H88.825V49.525H85.825V45.4H81.75C81.55 46.0167 81.25 46.55 80.85 47C80.4667 47.45 80.025 47.825 79.525 48.125C79.025 48.425 78.4917 48.65 77.925 48.8C77.375 48.9333 76.8333 49 76.3 49C75.6167 49 74.9333 48.8917 74.25 48.675C73.5833 48.4583 72.9833 48.1417 72.45 47.725C71.9167 47.2917 71.4833 46.7583 71.15 46.125C70.8333 45.4917 70.675 44.75 70.675 43.9C70.675 43.2 70.7833 42.5833 71 42.05C71.2167 41.5167 71.5167 41.0417 71.9 40.625H69.675ZM88.825 59.05H77.6C76.6 59.05 75.7917 58.8333 75.175 58.4C74.575 57.9667 74.275 57.325 74.275 56.475V50.925H88.825V59.05ZM79.05 43.9C79.05 43 78.7917 42.3167 78.275 41.85C77.7583 41.3667 77.1 41.125 76.3 41.125C75.5 41.125 74.8417 41.375 74.325 41.875C73.825 42.375 73.575 43.05 73.575 43.9C73.575 44.7667 73.8417 45.4417 74.375 45.925C74.9083 46.4083 75.55 46.65 76.3 46.65C77.1 46.65 77.7583 46.4083 78.275 45.925C78.7917 45.425 79.05 44.75 79.05 43.9ZM85.825 56.375V53.6H77.275V55.675C77.275 56.1417 77.5167 56.375 78 56.375H85.825ZM53.1029 88.7H40.9029V89.25C40.9196 89.4333 40.9863 89.5833 41.1029 89.7C41.2363 89.8333 41.4113 89.9 41.6279 89.9H53.3779V92.25H41.1529C40.1529 92.25 39.3613 92.0417 38.7779 91.625C38.2113 91.2083 37.9279 90.575 37.9279 89.725V86.375H50.1029V85.275H37.9279V82.925H53.1029V88.7ZM37.1279 77.975V75.525H40.0529C40.0196 75.2917 40.0029 75.0667 40.0029 74.85C40.0029 74.6167 40.0029 74.3833 40.0029 74.15L39.9279 72.775H42.9279L43.0029 74.15C43.0029 74.3833 43.0029 74.6167 43.0029 74.85C43.0029 75.0667 43.0196 75.2917 43.0529 75.525H47.9279L48.0029 74.15C48.0029 73.7167 48.0279 73.2583 48.0779 72.775H51.0529C51.0196 73.0083 51.0029 73.2417 51.0029 73.475C51.0029 73.6917 51.0029 73.9167 51.0029 74.15L50.9279 75.525H53.8779V77.975H37.1279ZM56.1779 79.125V81.7H34.8529V79.125H56.1779ZM37.4529 72.175V69.725H53.5279V72.175H37.4529ZM70.526 76.25H74.076V69.05H77.076V92.55H74.076V78.9H70.526V76.25ZM72.701 84.85C71.701 85.3667 70.526 85.7583 69.176 86.025C67.826 86.275 66.3426 86.4 64.726 86.4C63.926 86.4 63.176 86.3083 62.476 86.125C61.7926 85.9417 61.201 85.6667 60.701 85.3C60.201 84.9167 59.801 84.4333 59.501 83.85C59.2176 83.2667 59.076 82.575 59.076 81.775V76.8H66.226V73.575H59.076V70.925H69.251V79.4H62.101V81.125C62.101 82.125 62.3343 82.8167 62.801 83.2C63.2676 83.5833 64.001 83.775 65.001 83.775C65.751 83.775 66.4426 83.75 67.076 83.7C67.726 83.6333 68.3343 83.55 68.901 83.45C69.4676 83.35 70.001 83.225 70.501 83.075C71.0176 82.9083 71.526 82.725 72.026 82.525L72.701 84.85ZM102.174 87.05V89.7H80.849V87.05H102.174ZM91.524 77.425C91.3074 77.9083 91.049 78.3417 90.749 78.725C90.4657 79.1083 90.1574 79.4917 89.824 79.875C89.0074 80.825 88.0657 81.6 86.999 82.2C85.949 82.7833 84.849 83.2417 83.699 83.575L82.049 81.5C83.249 81.1167 84.324 80.6333 85.274 80.05C86.224 79.45 87.099 78.7167 87.899 77.85C88.5324 77.1 89.024 76.3333 89.374 75.55C89.7407 74.7667 89.924 73.925 89.924 73.025V70.65H93.049V73.025C93.049 73.975 93.2407 74.85 93.624 75.65C94.0074 76.4333 94.499 77.1583 95.099 77.825C95.949 78.775 96.8574 79.5417 97.824 80.125C98.7907 80.6917 99.824 81.1417 100.924 81.475L99.274 83.575C98.024 83.2083 96.8824 82.725 95.849 82.125C94.8324 81.5083 93.899 80.7 93.049 79.7C92.7657 79.35 92.499 78.9917 92.249 78.625C91.999 78.2417 91.7574 77.8417 91.524 77.425Z" fill="#1A1A1A"/>
<defs>
<filter id="filter0_d_1014_50" x="0" y="0" width="148" height="148" filterUnits="userSpaceOnUse" color-interpolation-filters="sRGB">
<feFlood flood-opacity="0" result="BackgroundImageFix"/>
<feColorMatrix in="SourceAlpha" type="matrix" values="0 0 0 0 0 0 0 0 0 0 0 0 0 0 0 0 0 0 127 0" result="hardAlpha"/>
<feOffset dx="5" dy="7"/>
<feGaussianBlur stdDeviation="4"/>
<feComposite in2="hardAlpha" operator="out"/>
<feColorMatrix type="matrix" values="0 0 0 0 0 0 0 0 0 0 0 0 0 0 0 0 0 0 0.25 0"/>
<feBlend mode="normal" in2="BackgroundImageFix" result="effect1_dropShadow_1014_50"/>
<feBlend mode="normal" in="SourceGraphic" in2="effect1_dropShadow_1014_50" result="shape"/>
</filter>
</defs>
</svg>
