<svg width="109" height="115" viewBox="0 0 109 115" fill="none" xmlns="http://www.w3.org/2000/svg">
<g clip-path="url(#clip0_225_75)">
<path d="M23.13 114.029C22.3344 114.029 21.5713 113.713 21.0087 113.151C20.4461 112.588 20.13 111.825 20.13 111.029V3.0293C20.13 2.23365 20.4461 1.47069 21.0087 0.908081C21.5713 0.345472 22.3344 0.0292969 23.13 0.0292969C23.9257 0.0292969 24.6886 0.345472 25.2512 0.908081C25.8138 1.47069 26.13 2.23365 26.13 3.0293V111.029C26.13 111.825 25.8138 112.588 25.2512 113.151C24.6886 113.713 23.9257 114.029 23.13 114.029Z" fill="#1A1A1A"/>
<path d="M79.62 41.2991H35.49C34.6943 41.2991 33.9313 40.983 33.3687 40.4204C32.806 39.8578 32.49 39.0947 32.49 38.2991V14.8691C32.49 14.0735 32.806 13.3104 33.3687 12.7478C33.9313 12.1852 34.6943 11.8691 35.49 11.8691H79.62C80.4156 11.8691 81.1786 12.1852 81.7412 12.7478C82.3038 13.3104 82.62 14.0735 82.62 14.8691V38.2991C82.62 39.0947 82.3038 39.8578 81.7412 40.4204C81.1786 40.983 80.4156 41.2991 79.62 41.2991ZM38.49 35.2991H76.62V17.8691H38.49V35.2991Z" fill="#1A1A1A"/>
<path d="M108.53 31.0598H91.45V18.0898H108.53L104.64 24.3598L108.53 31.0598Z" fill="#C22229"/>
<path d="M79.62 85.0801H35.49C34.6943 85.0801 33.9313 84.764 33.3687 84.2014C32.806 83.6388 32.49 82.8757 32.49 82.0801C32.49 81.2844 32.806 80.5213 33.3687 79.9587C33.9313 79.3961 34.6943 79.0801 35.49 79.0801H79.62C80.4156 79.0801 81.1786 79.3961 81.7412 79.9587C82.3038 80.5213 82.62 81.2844 82.62 82.0801C82.62 82.8757 82.3038 83.6388 81.7412 84.2014C81.1786 84.764 80.4156 85.0801 79.62 85.0801Z" fill="#1A1A1A"/>
<path d="M79.62 98.0605H35.49C34.6943 98.0605 33.9313 97.7445 33.3687 97.1819C32.806 96.6193 32.49 95.8562 32.49 95.0605C32.49 94.2649 32.806 93.5018 33.3687 92.9392C33.9313 92.3766 34.6943 92.0605 35.49 92.0605H79.62C80.4156 92.0605 81.1786 92.3766 81.7412 92.9392C82.3038 93.5018 82.62 94.2649 82.62 95.0605C82.62 95.8562 82.3038 96.6193 81.7412 97.1819C81.1786 97.7445 80.4156 98.0605 79.62 98.0605Z" fill="#1A1A1A"/>
<path d="M86.45 114.029H8C5.87827 114.029 3.84343 113.186 2.34314 111.686C0.842849 110.186 0 108.151 0 106.029V8.0293C0 5.90757 0.842849 3.87285 2.34314 2.37256C3.84343 0.872268 5.87827 0.0292969 8 0.0292969H86.45C88.5717 0.0292969 90.6065 0.872268 92.1068 2.37256C93.6071 3.87285 94.45 5.90757 94.45 8.0293V106.029C94.45 108.151 93.6071 110.186 92.1068 111.686C90.6065 113.186 88.5717 114.029 86.45 114.029ZM8 6.0293C7.46957 6.0293 6.96077 6.24004 6.58569 6.61511C6.21062 6.99019 6 7.49886 6 8.0293V106.029C6 106.56 6.21062 107.069 6.58569 107.444C6.96077 107.819 7.46957 108.029 8 108.029H86.45C86.9804 108.029 87.4891 107.819 87.8641 107.444C88.2392 107.069 88.45 106.56 88.45 106.029V8.0293C88.45 7.49886 88.2392 6.99019 87.8641 6.61511C87.4891 6.24004 86.9804 6.0293 86.45 6.0293H8Z" fill="#1A1A1A"/>
</g>
<defs>
<clipPath id="clip0_225_75">
<rect width="108.53" height="114.04" fill="white"/>
</clipPath>
</defs>
</svg>
