<svg width="186" height="186" viewBox="0 0 186 186" fill="none" xmlns="http://www.w3.org/2000/svg">
<g filter="url(#filter0_d_1014_51)">
<circle cx="88" cy="86" r="85" fill="white"/>
</g>
<path d="M77.248 75.95H65.123V56.475H68.248V73.25H77.248V75.95ZM90.1529 75.95V74.6C89.5696 75.2 88.9113 75.6083 88.1779 75.825C87.4613 76.0583 86.7446 76.175 86.0279 76.175C85.0113 76.175 84.0696 76 83.2029 75.65C82.3363 75.3 81.5779 74.8167 80.9279 74.2C80.2946 73.5833 79.7946 72.85 79.4279 72C79.0613 71.15 78.8779 70.2167 78.8779 69.2C78.8779 68.1833 79.0613 67.25 79.4279 66.4C79.7946 65.5333 80.2946 64.7917 80.9279 64.175C81.5779 63.5417 82.3363 63.05 83.2029 62.7C84.0696 62.3333 85.0113 62.15 86.0279 62.15C86.7279 62.15 87.4446 62.2917 88.1779 62.575C88.9113 62.8417 89.5696 63.275 90.1529 63.875V62.375H93.2779V75.95H90.1529ZM86.0279 64.8C85.4113 64.8 84.8529 64.9167 84.3529 65.15C83.8529 65.3833 83.4279 65.7 83.0779 66.1C82.7279 66.5 82.4529 66.9667 82.2529 67.5C82.0696 68.0333 81.9779 68.6 81.9779 69.2C81.9779 69.8 82.0696 70.3667 82.2529 70.9C82.4529 71.4167 82.7279 71.875 83.0779 72.275C83.4279 72.6583 83.8529 72.9667 84.3529 73.2C84.8529 73.4167 85.4113 73.525 86.0279 73.525C86.6446 73.525 87.2029 73.4167 87.7029 73.2C88.2029 72.9667 88.6279 72.6583 88.9779 72.275C89.3446 71.875 89.6196 71.4167 89.8029 70.9C90.0029 70.3667 90.1029 69.8 90.1029 69.2C90.1029 68.6 90.0029 68.0333 89.8029 67.5C89.6196 66.9667 89.3446 66.5 88.9779 66.1C88.6279 65.7 88.2029 65.3833 87.7029 65.15C87.2029 64.9167 86.6446 64.8 86.0279 64.8ZM96.2754 75.95V56.475H99.4004V63.425C99.9671 63.025 100.584 62.7167 101.25 62.5C101.934 62.2667 102.65 62.15 103.4 62.15C104.417 62.15 105.359 62.3333 106.225 62.7C107.092 63.05 107.842 63.5417 108.475 64.175C109.109 64.7917 109.6 65.5333 109.95 66.4C110.317 67.25 110.5 68.1833 110.5 69.2C110.5 70.2167 110.317 71.15 109.95 72C109.6 72.85 109.109 73.5833 108.475 74.2C107.842 74.8167 107.092 75.3 106.225 75.65C105.359 76 104.417 76.175 103.4 76.175C102.65 76.175 101.917 76.0417 101.2 75.775C100.484 75.5083 99.8837 75.1083 99.4004 74.575V75.95H96.2754ZM103.4 64.8C102.25 64.8 101.317 65.15 100.6 65.85C99.9004 66.5333 99.5004 67.4583 99.4004 68.625V69.775C99.5004 70.9417 99.9004 71.8583 100.6 72.525C101.317 73.1917 102.25 73.525 103.4 73.525C104.65 73.525 105.625 73.1417 106.325 72.375C107.042 71.6083 107.4 70.55 107.4 69.2C107.4 67.85 107.042 66.7833 106.325 66C105.625 65.2 104.65 64.8 103.4 64.8ZM52.34 111.05C51.79 110.817 51.265 110.558 50.765 110.275C50.2817 109.992 49.8234 109.683 49.39 109.35C48.49 108.683 47.74 107.883 47.14 106.95C46.49 106.05 46.0067 105.017 45.69 103.85C45.34 102.7 45.165 101.383 45.165 99.9C45.165 97.1333 45.7817 94.8167 47.015 92.95C48.2317 91.0833 50.0067 89.675 52.34 88.725V91.75C51.59 92.1833 50.9817 92.625 50.515 93.075C50.015 93.5583 49.5734 94.1417 49.19 94.825C48.8067 95.5083 48.5317 96.2583 48.365 97.075C48.165 97.925 48.065 98.8667 48.065 99.9C48.065 102 48.44 103.675 49.19 104.925C49.9067 106.225 50.9567 107.25 52.34 108V111.05ZM66.9529 94.45C66.9529 95.35 66.8029 96.15 66.5029 96.85C66.1696 97.6 65.7446 98.225 65.2279 98.725C64.6779 99.2583 64.0529 99.6583 63.3529 99.925C62.6196 100.225 61.8446 100.375 61.0279 100.375C60.1613 100.375 59.3779 100.225 58.6779 99.925C57.9446 99.6583 57.3196 99.2583 56.8029 98.725C56.3029 98.275 55.8863 97.65 55.5529 96.85C55.2529 96.15 55.1029 95.35 55.1029 94.45C55.1029 93.6 55.2529 92.8 55.5529 92.05C55.8863 91.2667 56.3029 90.6417 56.8029 90.175C57.3863 89.625 58.0113 89.2167 58.6779 88.95C59.4279 88.6667 60.2113 88.525 61.0279 88.525C61.8113 88.525 62.5863 88.6667 63.3529 88.95C64.0029 89.2167 64.6279 89.625 65.2279 90.175C65.7446 90.7083 66.1696 91.3333 66.5029 92.05C66.8029 92.8 66.9529 93.6 66.9529 94.45ZM63.9529 94.45C63.9529 93.4333 63.6779 92.625 63.1279 92.025C62.5446 91.4583 61.8529 91.175 61.0529 91.175C60.2029 91.175 59.4946 91.4583 58.9279 92.025C58.3613 92.5917 58.0779 93.4 58.0779 94.45C58.0779 95.5167 58.3613 96.325 58.9279 96.875C59.4779 97.4417 60.1863 97.725 61.0529 97.725C61.4529 97.725 61.8279 97.65 62.1779 97.5C62.5279 97.3833 62.8363 97.175 63.1029 96.875C63.3529 96.5917 63.5613 96.25 63.7279 95.85C63.8779 95.45 63.9529 94.9833 63.9529 94.45ZM73.5029 110.925H62.0279C61.0279 110.925 60.2196 110.708 59.6029 110.275C59.0029 109.842 58.7029 109.2 58.7029 108.35V102.9H61.7029V107.55C61.7029 108.017 61.9446 108.25 62.4279 108.25H73.5029V110.925ZM67.0779 98.225V95.775H70.3279V92.975H67.0779V90.525H70.3279V88.05H73.3279V103.275H70.3279V98.225H67.0779ZM95.351 88.975C95.351 91.175 95.2593 93.1417 95.076 94.875C94.9093 96.6083 94.6676 98.075 94.351 99.275L91.576 98.8C91.8926 97.6 92.101 96.3833 92.201 95.15C92.301 93.9 92.351 92.725 92.351 91.625H79.626V88.975H95.351ZM85.976 111.55V103.375H76.851V100.725H98.176V103.375H89.026V111.55H85.976ZM112.024 100.7V106.05H121.174V108.7H99.849V106.05H108.999V100.7H112.024ZM110.524 96.025C110.307 96.5083 110.049 96.9417 109.749 97.325C109.466 97.7083 109.157 98.0917 108.824 98.475C108.007 99.425 107.066 100.2 105.999 100.8C104.949 101.383 103.849 101.842 102.699 102.175L101.049 100.1C102.249 99.7167 103.324 99.2333 104.274 98.65C105.224 98.05 106.099 97.3167 106.899 96.45C107.532 95.7 108.024 94.9333 108.374 94.15C108.741 93.3667 108.924 92.525 108.924 91.625V89.4H112.049V91.625C112.049 92.575 112.241 93.45 112.624 94.25C113.007 95.0333 113.499 95.7583 114.099 96.425C114.949 97.375 115.857 98.1417 116.824 98.725C117.791 99.2917 118.824 99.7417 119.924 100.075L118.274 102.175C117.024 101.808 115.882 101.325 114.849 100.725C113.832 100.108 112.899 99.3 112.049 98.3C111.766 97.95 111.499 97.5917 111.249 97.225C110.999 96.8417 110.757 96.4417 110.524 96.025ZM122.697 108C124.064 107.233 125.122 106.208 125.872 104.925C126.605 103.642 126.972 101.967 126.972 99.9C126.972 99.3667 126.947 98.875 126.897 98.425C126.847 97.9583 126.78 97.5083 126.697 97.075C126.497 96.2583 126.222 95.5083 125.872 94.825C125.689 94.5083 125.48 94.2083 125.247 93.925C125.03 93.625 124.789 93.3417 124.522 93.075C124.239 92.825 123.947 92.5917 123.647 92.375C123.347 92.1583 123.03 91.95 122.697 91.75V88.725C124.997 89.675 126.78 91.0833 128.047 92.95C129.28 94.8333 129.897 97.15 129.897 99.9C129.897 101.333 129.73 102.65 129.397 103.85C129.064 104.983 128.572 106.017 127.922 106.95C127.239 107.883 126.48 108.683 125.647 109.35C125.197 109.683 124.722 109.992 124.222 110.275C123.739 110.558 123.23 110.817 122.697 111.05V108Z" fill="#1A1A1A"/>
<defs>
<filter id="filter0_d_1014_51" x="0" y="0" width="186" height="186" filterUnits="userSpaceOnUse" color-interpolation-filters="sRGB">
<feFlood flood-opacity="0" result="BackgroundImageFix"/>
<feColorMatrix in="SourceAlpha" type="matrix" values="0 0 0 0 0 0 0 0 0 0 0 0 0 0 0 0 0 0 127 0" result="hardAlpha"/>
<feOffset dx="5" dy="7"/>
<feGaussianBlur stdDeviation="4"/>
<feComposite in2="hardAlpha" operator="out"/>
<feColorMatrix type="matrix" values="0 0 0 0 0 0 0 0 0 0 0 0 0 0 0 0 0 0 0.25 0"/>
<feBlend mode="normal" in2="BackgroundImageFix" result="effect1_dropShadow_1014_51"/>
<feBlend mode="normal" in="SourceGraphic" in2="effect1_dropShadow_1014_51" result="shape"/>
</filter>
</defs>
</svg>
