<svg width="339" height="328" viewBox="0 0 339 328" fill="none" xmlns="http://www.w3.org/2000/svg">
<g clip-path="url(#clip0_739_1657)">
<path d="M86.8884 131.944C86.8884 131.944 67.7259 141.791 47.2013 162.662C26.6768 183.532 0.380522 232.235 0.357434 243.282C0.334347 254.329 32.1255 263.876 32.1255 263.876C32.1255 263.876 44.0038 236.875 53.6428 233.862V225.17L58.491 218.89L56.1823 214.712L74.86 203.422C74.86 203.422 86.5074 232.096 87.4309 235.213C88.3544 238.33 114.778 231.357 116.197 234.186C117.617 237.014 109.976 243.94 109.976 243.94L117.791 247.53V254.826L116.486 273.526L140.728 283.442L181.696 272.499C181.696 272.499 195.756 262.375 197.361 256.061C198.965 249.747 191.589 235.663 194.867 225.159C198.146 214.654 203.906 160.63 198.18 152.284C192.455 143.938 191.023 136.769 172.553 128.746C154.084 120.724 152.502 121.485 152.502 121.485L136.895 119.696C136.895 119.696 138.915 135.338 140.728 143.811C142.54 152.284 154.765 189.212 156.727 192.04C156.727 192.04 171.272 209.517 173.061 226.809C174.851 244.102 165.05 252.829 165.05 252.829C165.05 252.829 156.323 246.884 152.502 240.754C148.681 234.624 127.741 181.258 127.741 181.258L124.728 184.34L86.8884 131.944Z" fill="#B8292D"/>
<path d="M251.709 297.987C248.577 307.991 245.444 317.996 242.312 328H117.711C114.001 313.517 110.992 298.895 108.683 284.135C107.945 279.413 106.213 278.247 101.757 278.27C95.3874 278.216 89.0982 276.841 83.2875 274.23C81.6483 273.526 78.8894 273.249 79.8244 270.64C80.7941 267.835 83.0222 269.555 84.6383 270.236C91.443 272.918 98.7034 274.255 106.017 274.172C109.653 274.172 112.943 273.965 113.647 269.37C114.386 264.499 117.11 259.651 113.786 254.791C113.601 254.576 113.462 254.325 113.378 254.053C113.295 253.782 113.269 253.496 113.301 253.214C113.334 252.932 113.425 252.66 113.567 252.415C113.71 252.17 113.903 251.957 114.132 251.789C117.976 247.865 114.663 247.553 111.823 247.357C108.36 247.126 104.897 247.357 101.434 247.057C99.7948 246.918 97.6708 246.491 97.9709 244.078C98.2711 241.666 100.28 242.681 101.677 242.681C103.004 242.85 104.35 242.827 105.671 242.612C108.51 241.735 113.186 240.846 112.597 237.995C111.893 234.532 108.222 237.799 105.867 237.995C102.796 238.18 99.7719 238.918 96.7129 239.011C92.8804 239.138 89.7868 240.534 88.3784 244.032C87.0971 247.241 85.0539 247.703 82.0872 247.495C75.7729 246.941 69.389 246.768 63.1209 246.075C60.3158 245.775 56.8527 245.394 55.0403 243.651C49.7534 238.711 46.9599 241.85 43.8084 245.96C40.1345 250.411 37.26 255.465 35.3124 260.897C34.285 264.037 32.8652 264.764 29.8523 263.425C22.9261 260.32 15.7806 257.503 8.8083 254.398C6.56847 253.473 4.61036 251.977 3.12964 250.059C1.64892 248.141 0.697329 245.868 0.369859 243.467C-0.779376 235.8 0.969787 227.98 5.27589 221.534C6.10255 220.219 7.26454 219.149 8.64216 218.433C10.0198 217.717 11.5633 217.38 13.114 217.459C20.8098 217.528 28.5055 217.632 36.2013 217.77C37.8866 217.77 40.1261 217.655 40.1608 220.01C40.1954 222.365 37.852 222.111 36.2359 222.088C29.3098 221.984 22.3836 221.915 15.4574 221.626C10.9439 221.441 8.33498 223.519 6.75351 227.582C4.92166 232.036 4.13197 236.849 4.44479 241.654C4.53154 243.39 5.05807 245.074 5.97482 246.551C6.89157 248.027 8.16848 249.245 9.68563 250.093C13.0564 252.136 15.7229 252.482 17.997 248.049C21.9272 240.077 27.8178 233.233 35.1162 228.16C38.9833 225.528 43.0351 224.223 47.5948 225.851C53.0318 227.836 52.9396 221.638 56.091 220.079C58.2958 218.925 55.5137 217.332 54.4863 216.224C52.1776 213.696 53.8976 212.576 55.9754 211.525C60.4197 209.217 64.8295 206.908 69.343 204.819C71.6518 203.664 71.9865 202.579 70.4974 200.49C68.1194 197.234 65.9491 193.841 63.7327 190.47C62.8323 189.108 61.1586 187.642 63.3173 186.083C65.1989 184.733 66.0876 186.499 66.9188 187.676C75.6919 200.074 84.038 212.691 86.6238 228.079C87.5011 233.25 89.4403 236.656 95.7662 234.901C99.2293 233.943 103.027 234.174 106.583 233.423C109.942 232.708 113.232 230.965 116.141 234.335C119.05 237.706 117.295 240.627 115.309 243.467C118.068 244.829 119.742 243.236 121.543 242.22C126.161 239.588 130.847 236.875 135.557 234.289C136.896 233.562 138.639 231.403 139.863 233.828C140.936 235.94 138.374 236.483 137.046 237.291C133.339 239.68 129.509 241.872 125.572 243.859C119.8 246.595 118.323 250.785 120.389 256.557C120.542 256.927 120.647 257.315 120.701 257.711C120.989 260.84 116.949 264.153 120.943 267.119C127.223 271.737 132.971 277.509 141.421 278.028C146.033 278.179 150.628 277.394 154.927 275.719C168.018 271.16 180.566 265.515 191.936 257.457C193.529 256.303 195.63 253.856 197.281 256.303C198.931 258.75 195.999 259.905 194.314 261.036C190.516 263.587 186.626 266.023 182.366 268.77L224.778 287.99C224.778 271.968 224.778 256.649 224.778 241.319C224.778 235.94 222.388 232.65 216.697 231.08C209.401 229.06 203.561 224.847 201.841 216.651C201.286 214.053 201.067 212.218 204.507 211.733C212.253 210.66 217.609 205.961 222.088 199.855C227.86 192.04 234.786 186.002 246.329 186.002C241.435 181.05 236.159 178.395 231.611 174.817C230.457 173.87 229.026 173.131 227.917 172.081C226.601 170.846 225.713 169.31 227.063 167.521C228.552 165.536 230.353 165.847 232.119 167.048C236.541 170.049 240.927 173.108 245.325 176.133C250.728 177.483 254.468 181.5 258.635 184.721C261.486 186.937 260.551 189.339 257.354 190.839C254.525 191.543 251.582 191.162 248.754 191.312C240.304 191.74 233.17 194.591 227.906 201.702C223.577 207.554 218.983 213.245 211.583 215.739C208.882 216.628 208.524 218.567 210.429 220.61C213.13 223.542 216.709 226.267 220.495 225.112C227.121 223.104 234.832 223.669 240.119 217.794C241.908 215.797 244.806 216.351 247.726 215.185C245.822 213.557 241.954 213.753 242.924 210.221C243.998 206.515 247.542 207.243 250.612 206.423C247.796 206.123 245.268 206.515 242.82 205.857C241.458 205.488 240.223 204.784 240.027 203.295C239.83 201.806 240.962 200.859 242.128 200.132C244.496 198.786 247.259 198.304 249.943 198.77C254.722 199.324 257.607 197.477 258.739 192.813C260.955 188.334 262.641 183.578 264.649 179.053C267.535 172.485 269.14 171.711 275.592 174.84C279.321 176.652 280.291 175.844 280.129 171.931C279.912 167.511 279.943 163.083 280.221 158.667C280.395 156.289 280.972 153.669 283.892 153.646C286.813 153.623 287.448 156.231 287.586 158.621C287.892 164.188 287.915 169.767 287.656 175.336C287.461 177.347 287.853 179.372 288.783 181.166C289.712 182.96 291.141 184.447 292.896 185.448C296.035 187.332 298.957 189.554 301.612 192.074C304.405 194.891 306.518 194.106 308.538 191.059C312.731 184.617 317.359 178.469 322.39 172.658C324.872 169.841 327.493 167.752 331.267 170.419C334.661 172.797 335.031 175.902 333.311 179.538C328.289 190.135 323.902 201.009 318.812 211.572C318.252 212.52 317.818 213.536 317.519 214.596C315.406 220.16 313.652 225.862 311.574 231.438C309.496 237.014 307.615 237.706 302.524 234.786C295.909 230.988 289.618 226.636 282.9 222.988C288.279 227.836 294.062 232.223 299.58 236.84C302.05 238.93 306.506 241.458 303.297 245.048C300.088 248.638 297.006 244.771 294.686 242.347C289.895 237.348 283.708 234.012 279.852 229.776C283.142 232.916 287.459 236.702 291.396 240.95C292.815 242.497 294.536 244.124 293.289 246.491C292.135 248.661 289.907 248.8 287.748 248.8C282.657 248.869 279.009 245.671 274.877 243.432C280.54 246.606 285.55 250.824 289.641 255.864C293.67 260.701 299.442 260.482 305.11 259.327C305.932 259.029 306.673 258.543 307.274 257.907C307.875 257.272 308.32 256.505 308.573 255.668C308.78 255.125 308.965 254.514 309.219 254.063C310.304 251.87 311.251 248.442 314.171 249.515C317.634 250.785 316.48 254.364 315.603 257.076C314.947 259.518 313.618 261.726 311.766 263.447C309.914 265.168 307.616 266.333 305.133 266.808C297.779 268.378 290.426 267.258 285.37 261.648C279.731 255.643 273.382 250.347 266.462 245.879C265.371 245.247 264.478 244.323 263.882 243.212C263.287 242.101 263.013 240.846 263.091 239.588C263.105 238.723 263.313 237.872 263.7 237.099C264.087 236.325 264.643 235.648 265.327 235.119C266.011 234.589 266.805 234.22 267.651 234.038C268.496 233.856 269.372 233.867 270.213 234.07C272.499 234.455 274.664 235.363 276.539 236.725C275.8 235.848 274.796 235.271 273.988 234.416C267.616 227.871 268.47 220.102 276.158 215.092C278.755 213.395 281.306 214.088 283.823 215.289C289.512 218.097 295.001 221.294 300.25 224.858C304.221 227.479 306.091 226.567 307.06 222.272C312.243 208.766 317.923 195.457 324.318 181.697C319.585 187.665 315.834 193.425 311.955 199.093C310.362 201.402 308.884 204.057 305.456 204.068C302.893 203.445 301.162 201.609 299.372 199.878C292.55 193.275 284.366 188.542 276.562 183.336C273.515 181.304 271.391 181.685 269.832 185.298C263.276 200.443 257.03 215.727 250.289 230.803C248.673 234.428 249.746 236.356 253.175 238.064C257.676 240.22 261.983 242.762 266.046 245.66C268.205 247.253 269.117 249.123 268.355 251.57C266.969 255.853 267.039 260.262 266.808 264.672C266.519 270.005 264.961 274.911 260.747 278.524C259.143 279.898 257.111 281.364 255.091 279.679C253.071 277.993 253.637 275.488 255.16 273.999C261.452 267.904 258.231 259.708 260.147 252.667C260.771 250.358 258.727 249.273 257.007 248.407C252.898 246.329 249.042 243.79 244.921 241.712C240.569 239.565 239.715 236.644 241.654 232.315C243.183 229.391 244.346 226.289 245.118 223.08C240.996 227.698 236.529 229.083 231.715 229.626C229.626 229.857 228.102 230.653 228.783 233.401C231.092 242.785 231.254 252.378 231.184 261.982C231.184 269.52 231.323 269.486 238.584 272.152C244.286 274.242 250.404 275.419 255.068 279.933C256.684 281.491 257.469 282.876 256.857 284.896C255.426 289.237 254.964 294.143 251.709 297.987Z" fill="#010101"/>
<path d="M317.368 211.456C322.205 200.616 326.857 189.673 331.982 178.972C333.748 175.278 333.263 172.992 330.089 170.753C326.199 167.994 325.021 171.699 323.324 173.616C317.782 179.996 312.763 186.814 308.318 194.002C306.575 196.749 305.316 197.465 302.8 194.96C300.63 192.801 298.355 190.458 295.654 189.188C287.031 185.171 284.896 178.395 286.062 169.633C286.38 166.177 286.38 162.7 286.062 159.244C285.969 157.374 287.285 154.153 284.238 154.095C280.867 154.026 281.848 157.443 281.802 159.509C281.652 165.847 281.802 172.207 281.802 179.295C278.72 177.668 276.03 176.455 273.514 174.874C269.877 172.565 268.158 173.893 266.715 177.494C264.591 182.804 262.097 187.884 259.719 193.148C258.068 192.617 256.995 191.681 257.353 189.754C260.746 187.837 258.98 186.291 256.995 184.755L245.347 175.855C249.611 172.909 253.32 169.231 256.302 164.993C260.585 165.974 260.354 171.342 264.187 173.073C266.668 166.286 265.987 159.359 266.218 152.502C266.299 149.767 265.248 146.65 268.065 144.503H268.573C273.514 146.003 275.095 149.339 273.987 154.234C272.948 158.851 271.436 163.388 271.528 168.213C272.902 160.872 278.166 154.165 274.645 145.992C273.594 143.568 275.695 141.617 277.577 140.289C279.747 138.754 281.675 140.185 283.256 141.536C291.406 148.462 296.335 157.443 299.417 167.555C300.202 170.164 300.872 172.738 303.423 174.239C301.299 176.663 298.09 175.682 295.493 176.686C293.969 177.275 291.649 176.686 291.372 178.88C291.095 181.073 293.103 182.597 294.731 183.081C298.035 183.982 301.424 184.532 304.843 184.721C306.99 184.882 307.556 182.851 307.971 181.177C308.283 179.895 308.029 178.452 308.421 177.206C308.579 176.765 308.831 176.364 309.16 176.031C309.489 175.698 309.887 175.441 310.326 175.278C318.557 173.616 322.332 161.957 332.836 165.304C336.08 166.343 337.454 168.767 338.019 171.596C339.693 179.503 336.969 188.08 332.248 192.374C325.933 198.146 327.572 204.091 326.545 210.29C325.183 218.451 325.691 226.566 326.545 234.705C326.764 235.87 326.527 237.074 325.882 238.069C325.238 239.064 324.235 239.773 323.082 240.049C319.076 241.203 318.36 243.893 318.464 247.518C318.591 255.021 318.464 262.525 318.534 270.005C318.614 274.253 317.576 277.116 312.624 277.3C309.691 277.404 308.456 279.494 308.006 282.299C307.729 284.042 306.678 286.201 304.739 283.869C302.43 281.087 300.826 282.38 298.39 283.615C294.777 285.439 290.217 288.348 289.398 280.671C289.32 280.082 289.031 279.542 288.586 279.149C288.14 278.757 287.567 278.539 286.974 278.536C279.77 278.374 272.544 277.139 265.375 278.651C264.419 278.874 263.567 279.417 262.961 280.189C262.354 280.961 262.029 281.917 262.039 282.899C261.889 284.623 261.889 286.358 262.039 288.082C262.617 292.7 261.381 295.886 256.095 296.382C254.599 296.723 253.152 297.25 251.788 297.952C252.758 293.662 253.945 289.424 255.344 285.254C256.672 281.86 255.425 280.325 252.631 278.951C246.423 275.968 239.959 273.545 233.319 271.713C230.04 270.767 229.163 269.289 229.198 266.08C229.29 257.434 229.048 248.765 228.84 240.142C228.84 237.833 228.967 235.351 227.466 233.469C224.627 229.914 226.046 228.494 229.867 228.263C235.443 227.917 240.464 226.601 243.951 221.718C244.62 220.783 245.982 220.748 247.875 221.372C246.109 225.493 244.481 229.637 242.565 233.642C241.238 236.424 241.561 238.329 244.528 239.587C245.567 240.084 246.574 240.647 247.541 241.273C252.481 244.159 260.1 246.086 261.601 250.231C263.194 254.606 260.758 261.255 260.7 266.992C260.7 270.317 258.634 272.66 256.187 274.68C254.94 275.707 253.774 276.896 255.263 278.501C256.752 280.105 258.092 278.616 259.211 277.774C263.54 274.495 265.179 269.947 265.098 264.649C265.029 259.846 264.787 255.033 267.35 250.635C268.723 248.326 267.142 247.172 265.329 246.179C259.962 243.201 254.698 240.061 249.249 237.244C247.01 236.09 246.721 235.085 247.725 232.8C255.183 215.785 262.593 198.758 269.739 181.615C271.274 177.921 273.017 179.445 274.968 180.519C286.203 186.798 296.614 194.448 305.963 203.294C300.63 207.242 292.03 206.307 288.994 200.697C286.246 195.629 279.759 194.671 277.612 188.98C276.873 187.076 274.079 188.357 273.791 190.839C273.502 193.321 273.514 195.791 273.029 198.261C272.452 201.228 271.401 203.779 268.481 205.187C265.329 206.654 264.718 209.147 265.249 212.344C265.78 215.542 266.576 219.167 264.821 222.457C263.067 224.765 260.446 224.258 258.057 224.535C256.625 224.696 255.46 225.193 255.413 226.843C255.314 227.406 255.399 227.986 255.655 228.497C255.91 229.009 256.323 229.424 256.833 229.683C258.334 230.318 259.384 229.348 260.215 228.309C261.751 226.405 262.732 224.084 264.741 222.538C266.558 221.128 267.883 219.181 268.527 216.973C270.05 212.264 273.537 210.613 278.373 209.724C284.826 208.57 290.298 210.879 296.07 212.587C296.809 212.806 297.744 213.06 297.998 213.741C299.833 218.555 304.37 219.848 308.387 221.891C308.404 222.079 308.404 222.269 308.387 222.457C306.344 230.237 306.378 230.168 299.856 226.058C294.512 222.699 289.144 219.351 283.614 216.316C279.782 214.215 276.781 214.422 274.507 219.352C270.478 228.078 270.097 227.952 277.323 234.958C278.906 236.347 280.563 237.65 282.287 238.86L281.306 240.118C278.027 238.56 274.749 237.013 271.482 235.409C268.827 234.116 266.391 234.612 264.948 237.025C264.555 237.586 264.284 238.223 264.152 238.896C264.019 239.568 264.029 240.261 264.18 240.929C264.331 241.598 264.62 242.227 265.029 242.777C265.438 243.328 265.957 243.786 266.553 244.124C274.564 248.741 281.098 255.033 287.724 261.439C295.423 268.92 309.46 266.68 313.847 258.38C314.491 257.207 314.94 255.936 315.175 254.617C315.44 252.863 316.548 250.381 313.778 249.861C311.365 249.399 311.7 252.054 311.019 253.474C310.534 254.49 310.038 255.494 309.553 256.499C306.875 257.134 306.655 254.548 305.512 253.278C304.89 252.414 303.981 251.799 302.947 251.543C301.913 251.287 300.821 251.407 299.868 251.881C298.817 252.332 297.478 252.77 297.455 254.052C297.432 255.333 298.864 255.679 299.937 256.06C302.246 256.868 304.924 257.076 305.94 259.893C299.706 262.582 293.461 262.005 289.155 256.995C283.922 251.132 277.892 246.034 271.24 241.85C274.356 240.511 276.227 242.635 278.328 243.766C281.525 245.475 284.584 247.564 288.405 247.529C289.883 247.529 291.614 247.841 292.526 246.179C293.565 244.286 291.822 243.362 290.852 242.369C286.95 238.398 282.933 234.543 279.008 230.607C277.542 229.14 276.203 227.548 274.391 225.597C277.969 225.112 279.332 227.663 281.098 229.06C286.997 233.677 292.641 238.502 298.413 243.316C299.706 244.39 300.884 246.398 302.684 244.736C304.878 242.704 302.58 241.273 301.288 240.118C295.158 234.901 288.867 229.868 282.702 224.696C281.213 223.438 278.87 222.676 279.239 219.34C285.773 221.649 291.037 225.7 296.555 229.164C308.017 236.298 307.971 236.378 312.716 223.576C313.87 220.367 315.024 217.147 316.248 213.926C320.646 214.884 319.711 218.209 319.169 221.048C318.13 225.931 315.706 230.399 314.251 235.155C313.628 237.14 312.739 239.068 313.016 241.307C316.006 233.873 319.469 226.624 321.096 218.693C321.766 215.242 319.122 213.614 317.368 211.456Z" fill="#FDFCFC"/>
<path d="M243.27 63.8127C243.997 66.8141 242.565 67.2757 240.176 66.3291C238.098 65.3384 235.829 64.8107 233.527 64.7823C228.39 65.0132 225.446 68.7765 226.878 73.7749C227.609 76.4807 229.06 78.9377 231.077 80.8849C233.093 82.8321 235.599 84.1966 238.329 84.8336C241.665 85.7686 242.335 87.2577 241.353 90.6054C238.56 100.267 234.231 108.463 223.784 111.569C221.752 112.18 221.198 113.646 220.748 115.286C220.298 116.925 220.182 118.749 219.594 120.319C217.285 126.321 218.358 130.523 225.25 132.128C226.688 132.656 228.069 133.329 229.371 134.136C232.072 135.383 232.338 137.23 230.041 138.881C226.751 141.19 227.951 142.84 230.271 144.976C235.766 150.055 241.099 155.365 246.432 160.537C247.645 161.691 249.399 163.169 247.748 164.831C246.098 166.493 244.609 164.738 243.397 163.572C237.294 157.724 231.214 151.856 225.158 145.968C220.956 141.882 220.979 141.859 224.73 137.415C224.58 137.126 224.511 136.711 224.269 136.572C220.806 134.506 215.853 134.021 214.029 130.65C212.206 127.279 214.953 122.951 215.6 119.026C215.773 117.952 216.384 116.44 215.207 115.909C214.662 115.715 214.08 115.652 213.507 115.724C212.934 115.796 212.385 116.002 211.906 116.325C205.51 122.189 196.714 124.301 190.4 130.315C188.091 132.52 187.987 133.271 190.4 135.856C194.856 140.682 198.48 140.936 202.821 136.226C203.666 135.443 204.628 134.797 205.672 134.309C205.867 134.169 206.09 134.073 206.326 134.026C206.561 133.979 206.804 133.983 207.038 134.037C207.272 134.092 207.492 134.196 207.682 134.343C207.873 134.489 208.03 134.675 208.142 134.887C208.373 135.406 207.854 136.283 207.623 136.988C207.533 137.158 207.379 137.286 207.196 137.345C197.753 140.809 198.942 147.25 201.643 154.973C203.167 159.324 202.428 164.461 202.798 169.24C202.994 172.103 200.489 175.705 205.28 177.321C206.319 177.679 205.834 179.56 205.21 180.461C198.48 190.088 200.697 201.574 198.607 212.16C197.384 218.347 196.772 224.673 195.895 230.929C194.198 230.872 192.2 231.206 192.628 228.401C194.382 211.417 196.145 194.444 197.915 177.483C197.915 177.298 197.984 177.113 198.007 176.917C201.193 150.147 195.248 139.897 170.452 129.588C165.512 127.522 160.467 125.698 154.834 123.505C155.642 127.857 157.951 131.066 159.382 134.61C159.959 136.006 161.437 138.269 160.41 138.811C153.276 142.552 157.223 150.505 153.714 155.538C152.237 157.639 153.483 162.857 149.662 161.749C145.657 160.594 149.489 156.958 149.732 154.453C150.159 150.124 153.818 146.038 150.263 141.42C150.024 141.106 149.876 140.731 149.835 140.338C149.794 139.945 149.861 139.548 150.03 139.191C150.2 138.834 150.464 138.53 150.794 138.312C151.124 138.095 151.507 137.972 151.902 137.957C156.092 137.438 155.111 135.406 153.807 132.878C152.133 129.646 150.609 126.344 149.189 123.008C148.612 121.681 147.319 120.145 148.531 118.737C149.905 117.133 151.671 118.114 153.31 118.645C162.457 121.486 171.362 125.053 179.941 129.311C182.55 130.662 184.212 130.546 186.383 128.411C191.139 123.712 196.922 120.33 204.044 116.555C192.685 114.316 186.302 108.152 183.266 98.5358C182.643 96.5965 181.303 93.9184 184.051 93.0526C187.179 92.0945 186.729 95.3614 187.341 97.1853C189.419 103.176 193.782 105.45 198.18 102.599C200.304 101.226 202.613 99.6325 198.319 97.5778C193.683 95.1982 189.682 91.7474 186.648 87.5118C185.828 86.4382 183.901 85.203 185.875 83.7601C187.364 82.6057 188.334 84.1872 189.153 85.1568C191.905 88.6159 195.213 91.5926 198.942 93.9646C201.54 95.523 202.878 95.777 203.433 92.0945C204.91 82.2479 209.412 75.2409 220.54 74.5021C223.288 74.3289 223.645 68.1069 221.037 65.0825C213.66 56.5171 213.787 46.9821 217.169 36.9738C217.281 36.6073 217.457 36.2634 217.689 35.958C218.751 34.5843 219.063 31.7445 221.729 33.1759C224.038 34.3996 222.341 36.1657 221.729 37.6433C218.578 44.9042 218.266 52.1305 222.018 59.2645C223.495 62.0465 225.192 63.5126 228.771 61.4809C233.388 58.8836 238.075 60.4073 242.496 62.6352C242.719 62.7434 242.909 62.91 243.045 63.1173C243.181 63.3246 243.259 63.5649 243.27 63.8127Z" fill="#010101"/>
<path d="M105.324 128.4C105.082 122.409 110.068 119.708 113.878 117.676C119.65 114.605 119.292 110.219 119.223 105.301C119.223 103.731 118.703 102.484 117.179 102.311C112.77 101.838 110.322 96.5395 105.289 97.6015C105.022 97.5685 104.765 97.4795 104.534 97.3402C104.303 97.201 104.104 97.0146 103.95 96.7934C105.751 88.7128 99.5062 80.0436 105.74 72.2979C106.582 71.2589 107.379 70.1854 108.175 69.1003C110.057 66.5376 113.947 66.0412 114.097 61.343C114.097 59.0343 119.869 57.8107 121.497 59.5191C125.029 63.1785 129.762 62.3242 133.537 64.3905C135.21 65.3025 136.838 66.3067 138.477 67.2649C144.999 72.1016 146.154 75.3454 145.265 86.5081C145.473 85.7693 145.369 84.9959 145.519 84.1994C146.927 77.4233 147.308 70.9935 139.886 67.1379C139.735 57.1989 140.774 47.1327 136.803 37.6093C134.645 32.4493 132.325 27.3932 127.361 24.2072C126.207 23.4337 125.133 22.3025 125.999 20.8826C127.153 19.0818 128.631 19.8668 129.958 20.7441C134.051 23.6575 137.249 27.6553 139.193 32.2877C142.998 40.5044 144.719 49.5323 144.203 58.5725C144.076 61.2737 144.007 63.5593 147.389 64.7945C150.529 65.9489 151.591 69.3196 152.006 72.3094C153.129 78.9947 151.906 85.8626 148.543 91.7488C147.308 93.8497 146.235 97.3475 142.021 95.0849C140.036 94.0229 139.043 97.8208 139.135 97.9132C145.577 103.373 137.762 106.652 137.104 110.934C136.7 113.555 132.486 114.928 134.599 118.784C135.245 119.938 132.994 121.093 131.782 120.342C121.473 113.855 115.494 121.139 109.122 127.269C108.429 129.566 107.056 129.658 105.324 128.4Z" fill="#010101"/>
<path d="M125.952 185.448C122.397 187.757 121.658 184.051 120.4 182.505C108.706 168.214 98.6747 152.745 89.2321 136.954C86.5655 132.532 85.007 133.49 81.6016 135.73C54.705 153.726 35.3003 178.003 21.1248 206.804C19.9704 209.113 19.2546 213.949 15.9647 212.287C12.5016 210.521 16.2533 207.323 17.4192 205.107C25.846 188.946 34.7347 173.177 47.7098 158.748C39.9071 158.879 32.2679 156.504 25.9153 151.972C24.5647 151.037 22.5793 150.171 23.5374 148.012C24.3339 146.177 26.2039 146.858 27.6353 147.031C33.545 147.891 39.5772 147.195 45.1356 145.011C49.5106 143.314 51.3689 140.567 50.9649 135.776C50.5608 130.986 49.2795 125.941 50.734 120.919C53.4122 111.685 62.9358 107.067 71.0971 111.304C72.5862 112.077 74.687 112.781 73.7981 114.998C72.8285 117.41 71.0739 116.013 69.4924 115.413C61.2964 112.296 54.8088 116.429 54.3933 125.237C54.4261 128.112 54.6887 130.98 55.1784 133.814C56.1827 142.506 54.024 146.212 45.8627 149.271C42.6535 150.425 39.2598 151.118 36.1084 151.983C44.1889 156.128 50.6878 155.377 57.614 149.421C65.9138 142.275 74.5717 135.568 83.4718 129.231C86.554 127.026 88.1699 127.142 90.2016 130.512C100.729 148.12 112.241 165.12 124.682 181.431C126.333 182.355 127.014 183.624 125.952 185.448Z" fill="#010101"/>
<path d="M192.571 228.505C193.195 229.948 194.718 230.226 195.838 231.034C194.926 233.088 193.587 232.534 191.532 231.276C192.466 234.688 193.591 238.045 194.903 241.33C197.143 246.11 195.226 249.122 191.59 252.112C184.664 257.884 176.791 260.92 167.753 260.389C165.929 260.285 162.696 260.978 162.996 257.792C163.239 255.079 166.009 256.233 167.753 256.303C175.307 256.58 182.691 254.018 188.45 249.122C190.667 247.333 191.821 245.659 190.666 242.346C186.326 229.856 181.813 217.447 175.591 205.765C172.97 200.847 169.819 196.137 162.893 197.522C163.043 200.074 164.739 201.528 165.825 203.294C166.679 204.656 167.626 206.042 166.033 207.335C164.232 208.789 163.262 207.081 162.385 205.915C161.252 204.367 160.215 202.752 159.279 201.078C146.581 178.626 137.681 154.973 136.885 128.803C136.827 127.106 136.723 125.456 138.651 125.271C140.579 125.086 140.879 127.026 141.075 128.515C142.103 136.503 142.68 144.56 144.146 152.456C146.662 165.939 152.803 178.152 158.356 190.55C159.972 194.129 162.766 193.147 165.178 192.732C171.227 191.716 177.195 190.285 183.198 189.038C184.51 188.746 185.84 188.545 187.18 188.438C188.231 188.438 189.743 187.918 190.066 189.384C190.459 191.127 189.05 191.578 187.608 191.832C182.748 192.686 177.899 193.575 172.508 194.544C181.316 203.941 185.033 215.438 189.662 226.508C189.755 226.809 189.016 232.003 192.571 228.505Z" fill="#010101"/>
<path d="M67.3915 68.3963C69.0422 73.7179 70.7853 79.0279 72.2975 84.3957C72.817 86.2311 74.6873 88.8862 71.9283 89.9367C68.8693 91.091 68.9846 87.6279 68.3035 85.9656C67.0799 82.9758 66.3066 79.8014 65.3139 76.6384C61.3082 80.5517 58.8032 94.5656 61.1696 99.2407C62.9589 102.785 65.4986 101.099 67.3456 99.7372C71.1665 96.909 72.8633 97.5324 74.7334 102.046C79.2007 112.874 86.9234 120.516 98.7095 123.286C100.175 123.632 102.242 123.632 101.988 125.687C101.688 128.123 99.5175 127.696 97.8552 127.361C86.3116 125.052 78.3812 117.884 72.7479 107.979C71.1318 105.151 70.4393 103.039 66.1912 104.978C61.5738 107.079 57.3717 104.574 56.8061 99.564C55.7326 89.9944 55.2017 80.24 62.4626 72.3903C64.5751 70.0816 63.2244 68.0616 62.8665 65.9953C59.819 48.5182 67.0106 31.3645 81.013 23.157C82.4123 22.1725 83.9759 21.4453 85.6305 21.0097C89.4052 20.3748 89.7054 22.0602 87.6853 24.7961C84.3722 29.3096 78.5428 30.7872 75.3221 35.6702C70.9817 42.2731 68.142 49.0723 68.3959 57.0605C68.5691 60.9045 68.7652 64.7139 67.3915 68.3963Z" fill="#010101"/>
<path d="M292.503 25.6847C290.991 19.5782 287.32 17.3157 284.423 14.4759C283.187 13.2523 281.283 12.1672 282.957 10.2856C284.63 8.40398 286.085 10.2856 287.32 11.3245C297.398 20.2016 304.024 30.8448 303.401 44.801C302.916 55.525 302.119 66.2259 301.311 76.9268C300.695 82.6705 298.776 88.1978 295.701 93.0878C287.539 107.044 275.35 110.553 260.943 103.2C257.034 101.158 253.354 98.7043 249.965 95.8814C248.811 94.958 247.229 93.8613 248.811 92.1413C250.392 90.4213 251.604 91.6217 252.828 92.5914C256.783 95.9493 261.219 98.6964 265.988 100.741C276.03 104.712 283.972 102.484 290.229 93.8151C294.419 87.9279 297.421 81.2903 297.455 74.0987C297.455 64.4713 298.275 54.9248 299.199 45.3897C299.972 37.3092 296.89 31.6644 290.345 27.4971C287.597 25.7425 284.792 24.034 281.929 22.5449C280.567 21.8176 278.466 21.3905 279.459 19.4858C280.336 17.8004 282.172 18.9317 283.534 19.4858C287 20.7602 290.086 22.893 292.503 25.6847Z" fill="#010101"/>
<path d="M268.042 144.561C267.569 153.923 267.118 163.296 266.611 172.658C266.53 174.32 266.819 176.375 264.475 176.767C262.443 177.102 262.097 175.174 261.37 173.928C259.638 170.984 257.976 168.006 256.279 165.027C248.524 148.992 239.628 133.534 229.659 118.772C228.644 117.272 225.7 115.563 228.321 113.601C230.941 111.638 231.98 114.628 233.111 116.221C243.212 130.501 251.269 145.981 259.661 161.241C260.499 163.014 261.888 164.468 263.621 165.385C263.621 154.196 263.621 143.006 263.621 131.817C263.621 128.815 261.162 127.199 259.742 124.96C258.019 122.401 257.168 119.355 257.318 116.274C257.468 113.193 258.61 110.243 260.573 107.864C261.404 106.848 262.247 106.121 263.413 106.64C263.736 106.772 264.022 106.98 264.247 107.247C264.471 107.515 264.627 107.833 264.701 108.174C264.775 108.515 264.765 108.869 264.671 109.205C264.577 109.541 264.403 109.849 264.163 110.103C259.546 116.614 261.947 121.993 266.715 127.026C268.238 128.654 267.8 130.605 267.869 132.475C267.927 136.503 267.973 140.555 268.042 144.561Z" fill="#010101"/>
<path d="M303.296 174.297C299.706 175.866 299.244 173.696 298.679 170.833C296.37 159.117 290.24 149.582 281.248 141.836C280.417 141.12 278.362 139.389 278.373 140.381C278.373 143.071 273.017 143.406 275.719 146.234C278.42 149.062 277.635 151.671 276.873 154.661C275.638 159.486 274.564 164.334 273.41 169.183C273.041 170.764 272.567 172.473 270.593 172.011C268.792 171.584 268.654 169.979 269.104 168.271C269.981 164.935 270.328 161.414 271.586 158.239C273.733 152.814 273.156 148.312 268.504 144.56C271.748 141.316 273.733 137.9 270.385 133.49C270.028 133.027 269.854 132.448 269.897 131.864C269.939 131.281 270.195 130.733 270.616 130.327C271.586 129.3 272.636 129.565 273.675 130.327C289.052 141.305 301.772 154.037 303.296 174.297Z" fill="#010101"/>
<path d="M67.3914 68.3963C66.5257 60.0618 65.6599 51.7619 69.1461 43.6929C72.9324 34.9775 78.5196 28.1553 87.7199 24.8076C87.5698 25.962 88.7243 27.1164 87.2698 28.34C83.495 31.6184 86.1154 32.4264 89.2321 32.8419C87.2582 36.6859 83.5641 34.5735 80.4473 35.3585C83.3891 35.8046 86.3869 35.7265 89.3015 35.1277C91.6102 34.7814 94.2766 33.7539 95.8004 36.7668V36.6745C95.0847 40.0337 91.841 40.5532 89.5669 42.0538C81.6365 47.2715 76.2686 54.6709 71.5241 62.636C70.602 64.5329 69.4379 66.3023 68.0611 67.9C67.897 68.133 67.6621 68.307 67.3914 68.3963Z" fill="#F9F8F6"/>
<path d="M125.953 185.447C125.514 184.108 125.076 182.758 124.648 181.419C126.784 180.726 124.198 176.524 127.638 177.113C129.832 177.494 129.843 179.941 130.42 181.73C136.931 202.128 143.407 222.549 155.678 240.476C156.601 241.826 157.409 243.223 155.435 244.308C153.461 245.393 152.642 243.65 151.811 242.496C144.411 232.107 139.817 220.367 134.945 208.719C131.725 201.031 130.547 192.581 125.953 185.447Z" fill="#010101"/>
<path d="M101.619 27.0237C101.549 25.8704 101.549 24.714 101.619 23.5606C102.011 20.2361 101.019 18.8277 97.5786 20.3399C95.8355 21.1133 93.5037 22.3023 92.6956 19.7743C91.8876 17.2462 94.554 17.0038 96.2971 16.3112C104.608 13.2637 112.77 12.8482 120.62 17.6734C122.039 18.5392 124.221 19.4511 123.124 21.5289C121.739 24.1724 119.95 22.2561 118.38 21.3095C115.777 19.6597 112.789 18.7168 109.711 18.5737C107.633 18.4929 105.994 18.3198 105.948 21.3327C105.902 24.3455 106.779 24.9689 109.572 24.6688C114.365 24.212 119.2 24.5394 123.886 25.6384C125.376 25.9501 127.442 25.9616 127.246 27.9471C127.003 30.2558 124.821 29.3324 123.517 29.1015C119.169 28.3122 114.753 27.9527 110.334 28.028C107.368 28.028 105.532 28.7322 105.994 32.253C106.213 33.9153 106.294 36.097 103.789 36.0854C101.284 36.0739 101.619 33.8806 101.573 32.1952C101.526 30.5099 101.573 28.7322 101.573 27.0122L101.619 27.0237Z" fill="#010101"/>
<path d="M274.876 6.18733C274.345 8.20746 273.191 8.18437 271.413 7.63028C267.974 6.46624 264.44 5.60491 260.85 5.05608C245.29 3.16293 233.665 9.10783 225.977 22.8909C225.123 24.4262 224.742 27.797 221.798 26.1925C218.855 24.5879 221.406 22.4408 222.249 20.8362C226.693 12.103 234.323 5.41158 243.562 2.1458C252.801 -1.11998 262.941 -0.710458 271.886 3.28987C273.283 3.8786 274.98 4.07485 274.876 6.18733Z" fill="#010101"/>
<path d="M256.971 22.7063C252.408 23.3824 248.022 24.9515 244.065 27.3237C242.807 28.0048 241.376 28.732 240.522 27.3237C239.668 25.9154 241.226 25.0149 242.357 24.3685C250.386 19.8773 259.322 17.2498 268.504 16.6804C269.946 16.565 271.274 16.7497 271.655 18.3081C271.759 18.7352 270.939 19.7049 270.362 19.9127C258.53 24.1838 250.83 33.2918 243.234 42.619C241.595 44.616 240.175 49.5451 237.786 47.7443C234.646 45.3432 239.183 42.6766 240.706 40.4949C245.298 33.8565 250.77 27.8724 256.971 22.7063Z" fill="#010101"/>
<path d="M94.1038 164.566C96.1932 158.02 92.7068 157.085 87.0043 157.362C78.5544 157.766 78.5546 157.478 81.452 149.282C82.5256 146.223 83.5181 143.118 84.7071 140.047C85.2035 138.789 86.1503 137.738 87.8241 138.465C89.1863 139.089 89.0706 140.393 88.7589 141.444C88.1427 143.85 87.3202 146.198 86.3003 148.462C84.6842 151.798 85.019 153.183 89.2093 153.207C98.4442 153.276 98.7558 153.484 98.3402 162.372C98.1093 167.163 99.4947 169.472 104.274 169.841C105.597 170.038 106.902 170.343 108.175 170.753C108.462 170.797 108.736 170.904 108.977 171.064C109.219 171.224 109.423 171.435 109.576 171.682C109.728 171.929 109.825 172.206 109.861 172.494C109.896 172.782 109.869 173.074 109.78 173.35C109.491 174.828 108.256 174.909 107.09 174.666C103.5 174.056 99.9501 173.231 96.4587 172.196C92.6032 170.915 95.0734 167.278 94.1038 164.566Z" fill="#010101"/>
<path d="M73.5792 268.008C62.5204 266.357 51.7271 266.854 41.2571 264.707C39.4101 264.337 36.7897 264.199 37.2284 261.705C37.667 259.212 40.1144 260.112 41.9614 260.47C52.3506 262.467 62.8898 262.121 73.2906 263.529C74.9413 263.749 77.1693 263.887 77.1116 266.115C76.9615 268.689 74.6297 267.858 73.5792 268.008Z" fill="#010101"/>
<path d="M115.378 152.756C117.687 152.086 116.302 150.794 115.863 149.709C115.228 148.139 114.963 146.523 116.925 145.911C118.888 145.299 119.557 147.065 120.03 148.485C121.185 151.74 122.027 155.065 123.112 158.32C125.167 164.507 128.526 169.263 135.637 170.256C137.299 170.487 140.093 170.695 139.239 173.523C138.558 175.763 136.307 174.677 134.725 174.47C127.176 173.315 122.535 168.698 119.719 161.772C118.922 159.844 119.43 157.004 116.625 156.127C116.032 155.823 115.576 155.309 115.345 154.684C115.114 154.06 115.126 153.372 115.378 152.756Z" fill="#010101"/>
<path d="M175.418 232.441C175.664 239.038 173.309 245.468 168.861 250.346C167.995 251.304 166.956 252.654 165.525 251.258C164.451 250.242 165.121 249.122 165.952 248.256C173.79 240.037 172.405 230.387 170.223 220.632C169.646 218.012 168.942 215.426 168.168 212.852C167.776 211.548 167.014 210.151 168.757 209.389C170.708 208.592 171.066 210.451 171.354 211.594C173.363 218.439 175.337 225.261 175.418 232.441Z" fill="#010101"/>
<path d="M68.0723 67.8993C71.3045 56.5404 78.8771 48.4367 87.985 41.5336C90.4207 39.6982 93.1796 38.2784 95.7769 36.6738C99.7595 36.8585 99.0323 38.9825 96.7236 40.1369C85.3416 45.9087 77.6996 55.1436 71.8124 66.1447C70.9235 67.83 69.6191 67.9917 68.0723 67.8993Z" fill="#010101"/>
<path d="M234.774 58.9877C233.169 58.7799 230.814 59.2417 230.814 56.8868C230.814 54.5319 233.123 55.4554 234.451 55.4207C240.604 55.2937 244.101 51.5075 246.849 46.6245C249.596 41.7416 252.043 36.3853 255.899 32.068C256.799 31.0637 257.838 29.1245 259.547 30.8098C260.828 32.0912 259.547 33.1185 258.646 34.2036C254.698 38.9249 252.136 44.5004 249.065 49.7643C245.89 55.2245 241.273 58.5952 234.774 58.9877Z" fill="#010101"/>
<path d="M115.379 152.757L116.533 156.22C115.736 158.136 114.49 157.513 113.37 156.693C108.025 152.746 106.883 145.831 110.576 140.071C112.089 138.039 113.682 136.192 116.602 137.67C118.669 139.147 120.897 137.67 123.055 137.981C124.614 138.224 126.345 138.178 126.518 140.128C126.703 142.31 124.879 142.287 123.332 142.356C122.767 142.356 122.178 142.356 121.624 142.356C111.766 142.737 110.75 144.446 115.379 152.757Z" fill="#010101"/>
<path d="M137.414 53.8047C136.872 55.5478 135.925 55.848 134.332 55.2015C125.224 51.5076 117.305 45.9666 109.709 39.8138C108.925 39.1789 108.336 38.3825 109.063 37.3897C109.64 36.6163 110.402 36.0738 111.429 36.8703C119.291 42.9191 127.36 48.6331 136.606 52.4656C137.068 52.6272 137.172 53.3891 137.414 53.8047Z" fill="#010101"/>
<path d="M255.126 6.10645C262.883 6.69517 270.075 8.28812 276.355 12.6747C277.613 13.5405 280.141 14.3254 278.86 16.4148C277.452 18.7235 275.916 16.4957 274.635 15.6646C268.724 11.809 262.156 10.2159 255.219 9.63872C253.441 9.48865 250.162 11.1163 250.174 8.04569C250.185 4.97509 253.533 6.70671 255.126 6.10645Z" fill="#010101"/>
<path d="M109.977 31.6988C119.673 32.3684 126.518 37.2283 133.191 42.4691C134.183 43.2541 134.737 44.2122 133.756 45.3666C132.775 46.5209 131.967 45.8399 131.194 45.3666C128.977 43.8774 126.807 42.3075 124.625 40.7491C120.449 37.6673 115.513 35.7799 110.346 35.289C109.111 35.1736 107.287 35.2889 107.575 33.3265C107.829 31.5604 109.469 31.6988 109.977 31.6988Z" fill="#010101"/>
<path d="M105.323 128.399C106.698 128.503 108.066 128.124 109.191 127.326C113.9 128.342 117.606 124.555 122.119 124.601C123.424 124.601 124.901 124.221 125.478 125.756C126.056 127.291 124.832 128.064 123.574 128.653C117.698 131.481 112.273 135.868 105.035 134.067C103.592 132.128 106.939 130.385 105.323 128.399Z" fill="#010101"/>
<path d="M116.649 137.612L110.623 140.013C108.199 140.267 105.255 141.236 106.364 136.804C112.216 132.786 118.323 129.543 125.792 130.582C128.043 133.41 125.792 134.137 123.748 134.934C121.382 135.834 118.6 135.661 116.649 137.612Z" fill="#010101"/>
<path d="M139.886 67.1953C142.194 69.2154 146.812 67.1954 147.781 72.1591C148.79 79.1868 147.017 86.3306 142.841 92.0718C145.288 82.4791 145.242 74.1909 138.523 67.3224L139.886 67.1953Z" fill="#F5F1EF"/>
<path d="M280.486 81.0938C281.882 81.4256 283.237 81.9095 284.527 82.5367C286.143 83.4486 288.313 84.8454 286.997 86.9694C285.369 89.5321 284.319 86.6462 283.084 85.8728C279.067 83.3679 276.354 84.7992 274.922 89.9823C274.507 91.4714 275.742 94.7498 272.475 93.7917C270.167 93.1222 271.321 90.5133 271.656 88.7587C272.683 83.9104 275.592 81.2092 280.486 81.0938Z" fill="#010101"/>
<path d="M95.7994 36.7659C92.8327 35.1614 89.9351 37.0315 87.003 36.9506C84.5442 36.9506 82.074 36.9506 79.6268 36.789C78.2993 36.6736 76.1637 36.9045 76.4523 34.6419C76.6831 33.0374 78.3571 33.2105 79.7192 33.2797C82.9052 33.4413 86.1143 34.0416 89.2311 32.8411C90.7202 32.7372 92.1977 32.5757 93.6868 32.5411C95.1759 32.5064 96.9537 30.5093 98.1081 32.8642C99.2624 35.2191 95.9725 35.0921 95.7994 36.7659Z" fill="#010101"/>
<path d="M236.183 35.1151C235.804 35.7629 235.391 36.391 234.948 36.9967C232.281 40.252 229.626 43.5188 226.867 46.7279C226.048 47.686 225.124 49.0367 223.589 47.79C222.434 46.7741 223.139 45.666 223.854 44.7887C226.752 41.2217 229.684 37.7008 232.662 34.1916C232.785 33.9853 232.948 33.806 233.142 33.6641C233.336 33.5223 233.556 33.4208 233.79 33.3658C234.024 33.3109 234.266 33.3036 234.503 33.3443C234.739 33.385 234.965 33.4729 235.167 33.6028C235.617 33.8914 235.802 34.5033 236.183 35.1151Z" fill="#010101"/>
<path d="M269.023 47.9176C265.11 47.2712 263.252 48.2755 261.959 50.5265C261.301 51.6808 260.25 53.043 258.83 51.8309C257.607 50.792 258.484 49.3375 259.211 48.1946C260.072 46.6772 261.391 45.4718 262.98 44.752C264.569 44.0322 266.346 43.8351 268.054 44.189C269.762 44.443 271.909 44.9509 271.424 47.1557C270.893 49.6029 269.023 47.9176 269.023 47.9176Z" fill="#010101"/>
<path d="M99.6105 111.027C100.407 106.94 102.023 103.454 106.537 102.323C107.069 102.112 107.663 102.114 108.193 102.329C108.724 102.544 109.152 102.955 109.388 103.477C110.034 105.001 108.926 105.428 107.714 105.682C104.551 106.352 103.708 108.81 103.189 111.546C102.935 112.897 103.5 115.136 101.18 114.813C99.3794 114.559 99.5066 112.62 99.6105 111.027Z" fill="#010101"/>
<path d="M90.0514 75.5068C91.0666 75.8017 91.9457 76.4445 92.5345 77.3225C93.1234 78.2005 93.3845 79.2578 93.2721 80.309C93.2721 82.2945 92.5216 84.4762 90.1898 84.3954C87.5809 84.3146 86.9577 81.925 86.9 79.7779C86.784 78.7988 87.0451 77.8122 87.6305 77.0188C88.2159 76.2254 89.0816 75.6849 90.0514 75.5068Z" fill="#010101"/>
<path d="M232.95 71.8009C235.501 74.1096 238.364 76.603 241.03 79.3042C241.758 80.0661 240.869 81.0473 239.737 81.209C237.983 81.4629 231.033 75.7603 230.756 73.8326C230.491 72.4473 231.068 71.6624 232.95 71.8009Z" fill="#010101"/>
<path d="M88.8268 63.5126C90.5237 63.6165 92.9478 63.5127 93.0748 65.4405C93.2364 68.0955 90.7662 67.0911 89.1732 67.1027C88.5098 67.0988 87.8524 67.2298 87.2412 67.4878C86.63 67.7458 86.0776 68.1254 85.6176 68.6034C84.6711 69.5038 83.8515 71.7663 82.1546 69.8847C80.8501 68.4533 82.224 66.9872 83.2283 65.9137C83.9168 65.1132 84.7789 64.4807 85.7493 64.0646C86.7196 63.6484 87.7723 63.4597 88.8268 63.5126Z" fill="#010101"/>
<path d="M291.972 64.0549C289.467 63.7086 288.67 61.8271 288.509 59.6684C288.382 57.7175 288.867 55.6396 291.291 55.5704C293.992 55.5127 294.581 57.8791 294.754 59.9108C294.939 61.7693 294.581 63.7432 291.972 64.0549Z" fill="#010101"/>
<path d="M272.521 59.6801C272.521 62.162 272.186 64.2976 269.75 64.2976C267.314 64.2976 266.449 62.139 266.402 59.888C266.402 57.914 266.656 55.8131 269.173 55.8246C271.862 55.79 272.232 58.064 272.521 59.6801Z" fill="#010101"/>
<path d="M243.269 63.8131L242.346 62.728C242.473 60.6732 249.699 53.4123 251.431 53.6894C251.693 53.7545 251.94 53.8732 252.154 54.0381C252.369 54.203 252.547 54.4104 252.677 54.6474C253.254 55.8826 252.354 56.7023 251.708 57.6489C249.607 60.731 245.243 60.6386 243.269 63.8131Z" fill="#010101"/>
<path d="M125.791 130.581C118.737 130.858 112.712 134.321 106.363 136.803C105.924 135.902 105.485 135.014 105.035 134.113C111.673 133.848 116.925 128.884 123.574 128.699L125.791 130.581Z" fill="#DDD6D5"/>
<path d="M296.371 47.1673C296.07 48.7141 294.316 49.3606 293.889 48.668C291.984 45.6089 288.117 51.346 287.32 47.2942C286.87 44.9855 289.629 44.0967 291.938 44.2237C292.888 44.2071 293.821 44.4797 294.612 45.0054C295.404 45.5311 296.017 46.285 296.371 47.1673Z" fill="#010101"/>
<path d="M287.043 71.5707C287.978 71.7438 289.433 71.2821 289.629 72.9213C289.837 74.7567 288.475 75.0684 287.043 75.1607C286.762 75.2208 286.47 75.2199 286.189 75.158C285.907 75.0962 285.642 74.9748 285.411 74.8021C285.181 74.6293 284.99 74.4091 284.851 74.1564C284.713 73.9037 284.63 73.6243 284.608 73.3369C284.504 71.8362 285.693 71.5591 287.043 71.5707Z" fill="#010101"/>
<path d="M264.232 223.011C264.07 219.028 264.532 215.046 263.297 211.063C262.547 208.662 262.985 205.626 265.802 204.76C272.832 202.613 272.14 196.749 271.862 191.739C271.689 188.541 272.313 186.891 275.095 186.267C277.877 185.644 280.047 186.267 280.428 189.73C280.716 192.489 281.975 194.348 285.207 194.244C286.938 194.163 287.827 195.398 288.67 196.853C292.93 204.252 296.993 205.753 305.916 203.352C308.871 202.521 309.702 199.716 311.134 197.58C315.485 190.728 320.286 184.172 325.506 177.956L326.868 178.672L308.306 221.972C303.307 222.237 300.387 220.298 297.247 215.865C294.869 212.518 288.97 210.89 283.856 210.971C281.975 210.971 280.07 211.606 278.2 211.467C272.924 211.098 270.004 214.099 269.577 218.647C269.173 222.584 267.51 223.38 264.232 223.011Z" fill="#FEFEFE"/>
<path d="M257.329 189.788L259.696 193.182C259.188 198.596 256.325 200.662 250.888 200.108C248.095 199.796 245.174 200.42 242.334 200.801C242.043 200.817 241.758 200.894 241.497 201.026C241.237 201.158 241.006 201.343 240.821 201.568C240.635 201.794 240.499 202.055 240.419 202.337C240.34 202.618 240.32 202.912 240.36 203.202C240.58 204.552 241.803 204.772 243.05 204.76C246.871 204.76 250.681 204.76 254.594 204.76C254.663 207.242 253.509 208.223 251.131 208.096C249.403 208.031 247.672 208.116 245.959 208.35C244.609 208.535 243.281 209.043 243.442 210.855C243.604 212.667 245.082 212.656 246.432 212.667H251.05C251.223 214.457 250.773 216.131 249.226 216.477C239.495 218.497 231.587 225.296 221.602 226.762C216.892 227.443 208.154 222.664 206.815 218.001C206.053 215.357 207.669 215.23 209.412 214.722C215.25 213.186 220.305 209.526 223.588 204.46C231.541 191.727 243.269 188.137 257.329 189.788Z" fill="#FEFEFE"/>
<path d="M73.9591 242.519C69.7111 242.023 63.6391 242.519 58.0405 240.211C55.6163 239.241 50.5601 238.121 56.2165 234.22C57.3708 233.423 58.3406 232.026 56.8514 230.895C52.5457 227.628 55.974 225.747 58.1788 224.107C61.0301 221.995 62.4848 219.744 60.6955 216.362C60.0837 215.207 59.6103 214.353 61.0763 213.603C64.9934 211.617 68.903 209.616 72.8048 207.6C74.8711 206.538 75.0441 208.408 75.5173 209.459C78.1839 215.334 81.7395 220.852 82.282 227.582C82.6169 230.045 83.3456 232.438 84.4405 234.67C85.2832 236.586 87.3728 237.729 85.4796 240.592C83.5865 243.455 81.4277 242.808 79.0498 242.727C77.8954 242.739 76.7527 242.658 73.9591 242.519Z" fill="#FDFDFC"/>
<path d="M51.2646 232.5C43.0687 239.369 36.2581 246.906 32.3217 256.534C31.4213 258.692 30.5209 258.739 28.443 257.977C18.6656 254.398 18.5964 254.294 24.2874 245.614C27.5412 240.617 31.5703 236.171 36.2234 232.442C41.0717 228.529 45.7583 228.16 51.2646 232.5Z" fill="#911922"/>
<path d="M317.369 211.456C322.853 211.825 323.58 215.704 322.472 219.652C320.255 227.559 317.392 235.27 314.772 243.051C314.31 244.425 313.433 245.544 311.794 244.967C309.728 244.251 310.247 242.508 310.72 241.1C312.983 234.397 315.311 227.717 317.704 221.06C318.674 218.336 318.997 215.854 316.215 213.972C316.11 213.485 316.165 212.976 316.373 212.522C316.581 212.068 316.931 211.694 317.369 211.456Z" fill="#292221"/>
<path d="M305.791 259.951C303.29 258.617 300.618 257.634 297.849 257.03C296.487 256.638 294.767 256.084 294.674 254.202C294.605 252.563 296.117 252.182 297.248 251.524C302.697 248.327 303.378 248.604 309.404 256.557C309.292 257.456 308.87 258.287 308.21 258.907C307.55 259.526 306.694 259.896 305.791 259.951Z" fill="#FEFEFE"/>
<path d="M299.336 278.12C288.127 277.485 280.555 270.917 274.494 261.959C273.859 261.013 273.271 259.916 274.437 258.9C275.799 257.746 276.953 258.381 277.9 259.454C279.781 261.613 281.432 264.072 283.452 266.023C292.687 275.257 300.652 275.973 311.341 268.551C312.496 267.743 313.65 266.796 314.805 268.1C316.248 269.647 315.07 270.917 313.997 272.037C310.06 276.181 305.05 277.751 299.336 278.12Z" fill="#261E1D"/>
<path d="M250.288 252.054C250.288 257.964 248.857 263.39 244.886 267.927C244.009 268.919 242.877 270.235 241.527 269.173C239.992 268.019 241.238 266.749 242.092 265.791C246.087 261.347 246.814 255.967 246.791 250.311C246.791 248.51 246.271 245.624 248.73 245.694C251.477 245.694 250.035 248.649 250.277 250.311C250.323 250.891 250.327 251.474 250.288 252.054Z" fill="#010101"/>
<path d="M264.765 222.515C262.583 227.34 261.659 232.281 256.268 231.75C252.598 231.438 253.025 226.74 253.683 225.193C255.795 220.333 260.747 224.327 264.765 222.515Z" fill="#FEFEFE"/>
<path d="M194.787 108.233C199.093 107.506 202.36 105.924 204.161 102.461C205.315 100.245 207.127 100.522 209.02 100.337C212.391 100.072 215.637 98.9484 218.45 97.0732C221.262 95.198 223.548 92.6337 225.089 89.6247C225.816 88.3433 227.225 86.7157 225.459 85.5844C223.473 84.3031 223.034 86.5079 222.307 87.7315C219.421 92.5914 215.381 95.9621 209.701 96.851C208.686 97.0126 207.393 97.6013 206.977 95.8467C205.823 91.5409 211.098 81.5903 215.6 80.0434C219.744 78.612 223.785 77.8502 226.797 82.5138C228.284 84.8091 230.5 86.5372 233.089 87.4198C236.725 88.6434 237.118 90.4442 235.79 93.8842C233.077 100.96 228.644 105.428 221.268 108.187C216.327 110.057 211.872 112.804 206.342 112.343C202.151 112.238 198.103 110.798 194.787 108.233Z" fill="#FCFBFB"/>
<path d="M139.988 82.1905C139.642 93.1569 133.57 99.5867 124.023 99.0903C113.496 98.5478 107.008 92.1642 107.216 82.6984C107.424 73.2327 114.858 66.5375 125.178 66.7337C134.182 66.953 140.265 73.3019 139.988 82.1905Z" fill="#FCFCFB"/>
<path d="M123.309 108.025C124.059 106.305 122.154 103.2 125.248 103.407C128.907 103.627 126.829 107.021 127.014 108.914C127.153 110.357 128.584 113.439 125.421 113.289C121.496 113.104 124.521 109.56 123.309 108.025Z" fill="#F7F2F0"/>
<path d="M137.705 99.6445C136.042 103.869 135.049 107.633 131.933 110.784C130.882 105.532 130.64 101.145 137.705 99.6445Z" fill="#F0EDEA"/>
<path d="M80.7139 42.1457C80.7139 43.3001 71.0519 50.3532 70.0245 49.9261C69.7991 49.8529 69.5949 49.7261 69.4293 49.5566C69.2636 49.3872 69.1417 49.1801 69.0736 48.9531C69.0055 48.7262 68.9934 48.4861 69.0384 48.2535C69.0834 48.0208 69.1842 47.8026 69.332 47.6174C71.8513 44.5259 75.1283 42.1397 78.844 40.6912C79.0661 40.5908 79.3115 40.5529 79.5536 40.5816C79.7957 40.6104 80.0251 40.7047 80.2176 40.8544C80.41 41.0041 80.5579 41.2035 80.6454 41.431C80.7329 41.6586 80.7565 41.9057 80.7139 42.1457Z" fill="#010101"/>
<path d="M251.223 193.217C252.551 193.217 253.902 193.125 255.229 193.217C255.713 193.237 256.174 193.425 256.532 193.75C256.891 194.075 257.124 194.516 257.191 194.995C257.241 195.28 257.229 195.572 257.157 195.852C257.084 196.132 256.953 196.393 256.772 196.618C256.59 196.843 256.363 197.027 256.105 197.157C255.847 197.287 255.564 197.361 255.275 197.373C250.946 197.904 246.514 197.304 242.219 198.527C241.365 198.781 240.43 197.731 240.28 196.75C240.241 196.464 240.259 196.173 240.332 195.894C240.406 195.615 240.533 195.353 240.708 195.124C240.883 194.895 241.101 194.702 241.351 194.557C241.6 194.412 241.876 194.318 242.162 194.279C245.14 193.667 248.164 193.275 251.177 192.79L251.223 193.217Z" fill="#2B2522"/>
<path d="M117.732 76.0496C118.333 73.3714 118.702 70.0123 122.061 70.1392C126.113 70.2778 127.106 73.6023 126.99 77.2155C126.898 80.1245 125.951 82.9873 122.627 82.8141C118.829 82.5832 118.252 79.1202 117.732 76.0496Z" fill="#010101"/>
</g>
<defs>
<clipPath id="clip0_739_1657">
<rect width="338.435" height="328" fill="white"/>
</clipPath>
</defs>
</svg>
