<svg width="100" height="100" viewBox="0 0 100 100" fill="none" xmlns="http://www.w3.org/2000/svg">
<path d="M28.9762 57.9523C21.2912 57.9523 13.921 54.8995 8.4869 49.4654C3.05282 44.0313 0 36.6611 0 28.9762C0 21.2912 3.05282 13.921 8.4869 8.48693C13.921 3.05284 21.2912 0 28.9762 0C36.6611 0 44.0314 3.05284 49.4654 8.48693C54.8995 13.921 57.9523 21.2912 57.9523 28.9762C57.9523 36.6611 54.8995 44.0313 49.4654 49.4654C44.0314 54.8995 36.6611 57.9523 28.9762 57.9523ZM28.9762 3.21957C22.1451 3.21957 15.5938 5.93321 10.7635 10.7635C5.93319 15.5938 3.21957 22.1451 3.21957 28.9762C3.21957 35.8072 5.93319 42.3585 10.7635 47.1888C15.5938 52.0191 22.1451 54.7328 28.9762 54.7328C35.8072 54.7328 42.3586 52.0191 47.1889 47.1888C52.0192 42.3585 54.7328 35.8072 54.7328 28.9762C54.7328 22.1451 52.0192 15.5938 47.1889 10.7635C42.3586 5.93321 35.8072 3.21957 28.9762 3.21957Z" fill="#444444"/>
<path d="M54.261 51.9754L51.9844 54.252L92.2343 94.5019L94.5109 92.2253L54.261 51.9754Z" fill="#444444"/>
<path d="M53.1073 66.1949L49.9199 65.8085L51.6746 51.6746L65.8085 49.9199L66.1949 53.1073L54.5722 54.5722L53.1073 66.1949Z" fill="#444444"/>
<path d="M28.9761 49.9033C40.5339 49.9033 49.9033 40.5339 49.9033 28.9761C49.9033 17.4183 40.5339 8.04883 28.9761 8.04883C17.4183 8.04883 8.04883 17.4183 8.04883 28.9761C8.04883 40.5339 17.4183 49.9033 28.9761 49.9033Z" fill="#B8292D"/>
<path d="M28.976 41.8543C25.5604 41.8543 22.2848 40.4975 19.8696 38.0823C17.4545 35.6672 16.0977 32.3915 16.0977 28.976C16.0977 25.5604 17.4545 22.2848 19.8696 19.8696C22.2848 17.4545 25.5604 16.0977 28.976 16.0977C32.3915 16.0977 35.6672 17.4545 38.0823 19.8696C40.4975 22.2848 41.8543 25.5604 41.8543 28.976C41.8543 32.3915 40.4975 35.6672 38.0823 38.0823C35.6672 40.4975 32.3915 41.8543 28.976 41.8543ZM28.976 19.3172C26.4143 19.3172 23.9576 20.3348 22.1462 22.1462C20.3348 23.9576 19.3172 26.4143 19.3172 28.976C19.3172 31.5376 20.3348 33.9944 22.1462 35.8057C23.9576 37.6171 26.4143 38.6347 28.976 38.6347C31.5376 38.6347 33.9944 37.6171 35.8057 35.8057C37.6171 33.9944 38.6347 31.5376 38.6347 28.976C38.6347 26.4143 37.6171 23.9576 35.8057 22.1462C33.9944 20.3348 31.5376 19.3172 28.976 19.3172Z" fill="#444444"/>
<path d="M28.9758 33.8052C27.695 33.8052 26.4667 33.2964 25.561 32.3907C24.6553 31.485 24.1465 30.2567 24.1465 28.9758C24.1465 27.695 24.6553 26.4666 25.561 25.561C26.4667 24.6553 27.695 24.1465 28.9758 24.1465C30.2567 24.1465 31.485 24.6553 32.3907 25.561C33.2964 26.4666 33.8052 27.695 33.8052 28.9758C33.8052 30.2567 33.2964 31.485 32.3907 32.3907C31.485 33.2964 30.2567 33.8052 28.9758 33.8052ZM28.9758 27.3661C28.5489 27.3661 28.1395 27.5357 27.8376 27.8376C27.5357 28.1394 27.3661 28.5489 27.3661 28.9758C27.3661 29.4028 27.5357 29.8122 27.8376 30.1141C28.1395 30.416 28.5489 30.5856 28.9758 30.5856C29.4028 30.5856 29.8122 30.416 30.1141 30.1141C30.416 29.8122 30.5856 29.4028 30.5856 28.9758C30.5856 28.5489 30.416 28.1394 30.1141 27.8376C29.8122 27.5357 29.4028 27.3661 28.9758 27.3661Z" fill="#444444"/>
<path d="M48.293 99.9993V96.5866C48.293 83.7783 53.381 71.4946 62.4379 62.4378C71.4947 53.381 83.7783 48.293 96.5866 48.293H99.9993L94.8319 94.8319L48.293 99.9993ZM96.3934 51.5125C84.5059 51.5634 73.1198 56.3082 64.714 64.714C56.3082 73.1198 51.5634 84.5059 51.5125 96.3934L91.9021 91.9021L96.3934 51.5125Z" fill="#444444"/>
</svg>
