<svg width="148" height="148" viewBox="0 0 148 148" fill="none" xmlns="http://www.w3.org/2000/svg">
<g filter="url(#filter0_d_1014_46)">
<circle cx="69" cy="67" r="66" fill="white"/>
</g>
<path d="M44.1283 56.475V75.95H41.0283V62.15L34.3283 73.1L27.6283 62.15V75.95H24.5283V56.475H27.2783L34.3283 68.1L41.4283 56.475H44.1283ZM57.7857 75.95V74.6C57.2024 75.2 56.5441 75.6083 55.8107 75.825C55.0941 76.0583 54.3774 76.175 53.6607 76.175C52.6441 76.175 51.7024 76 50.8357 75.65C49.9691 75.3 49.2107 74.8167 48.5607 74.2C47.9274 73.5833 47.4274 72.85 47.0607 72C46.6941 71.15 46.5107 70.2167 46.5107 69.2C46.5107 68.1833 46.6941 67.25 47.0607 66.4C47.4274 65.5333 47.9274 64.7917 48.5607 64.175C49.2107 63.5417 49.9691 63.05 50.8357 62.7C51.7024 62.3333 52.6441 62.15 53.6607 62.15C54.3607 62.15 55.0774 62.2917 55.8107 62.575C56.5441 62.8417 57.2024 63.275 57.7857 63.875V62.375H60.9107V75.95H57.7857ZM53.6607 64.8C53.0441 64.8 52.4857 64.9167 51.9857 65.15C51.4857 65.3833 51.0607 65.7 50.7107 66.1C50.3607 66.5 50.0857 66.9667 49.8857 67.5C49.7024 68.0333 49.6107 68.6 49.6107 69.2C49.6107 69.8 49.7024 70.3667 49.8857 70.9C50.0857 71.4167 50.3607 71.875 50.7107 72.275C51.0607 72.6583 51.4857 72.9667 51.9857 73.2C52.4857 73.4167 53.0441 73.525 53.6607 73.525C54.2774 73.525 54.8357 73.4167 55.3357 73.2C55.8357 72.9667 56.2607 72.6583 56.6107 72.275C56.9774 71.875 57.2524 71.4167 57.4357 70.9C57.6357 70.3667 57.7357 69.8 57.7357 69.2C57.7357 68.6 57.6357 68.0333 57.4357 67.5C57.2524 66.9667 56.9774 66.5 56.6107 66.1C56.2607 65.7 55.8357 65.3833 55.3357 65.15C54.8357 64.9167 54.2774 64.8 53.6607 64.8ZM72.6332 64.975C71.7665 64.975 71.0165 65.05 70.3832 65.2C69.7665 65.35 69.1499 65.6417 68.5332 66.075C68.0999 66.3583 67.7582 66.75 67.5082 67.25C67.2749 67.7333 67.1582 68.1917 67.1582 68.625V75.95H64.0332V62.375H67.1582V64.075C67.9749 63.325 68.8332 62.825 69.7332 62.575C70.6499 62.3083 71.6165 62.175 72.6332 62.175V64.975ZM78.1416 75.95H75.0166V56.475H78.1416V67.9L82.9416 62.375H86.3916L81.4416 67.95L87.2166 75.95H83.7666L79.5416 70.1L78.1416 71.7V75.95ZM100.065 73.825C99.8315 74.125 99.5232 74.4167 99.1398 74.7C98.7732 75 98.3315 75.2583 97.8148 75.475C97.3148 75.7083 96.7398 75.8917 96.0898 76.025C95.4565 76.1583 94.7648 76.225 94.0148 76.225C92.9648 76.225 92.0065 76.05 91.1398 75.7C90.2898 75.35 89.5482 74.8583 88.9148 74.225C88.2982 73.6083 87.8148 72.875 87.4648 72.025C87.1315 71.175 86.9648 70.2417 86.9648 69.225C86.9648 68.2083 87.1232 67.275 87.4398 66.425C87.7732 65.5583 88.2398 64.8083 88.8398 64.175C89.4398 63.5417 90.1648 63.05 91.0148 62.7C91.8648 62.3333 92.8148 62.15 93.8648 62.15C94.9148 62.15 95.8648 62.3333 96.7148 62.7C97.5648 63.05 98.2898 63.5417 98.8898 64.175C99.4898 64.8083 99.9482 65.5583 100.265 66.425C100.598 67.275 100.765 68.2083 100.765 69.225V70.425H90.2148C90.4148 71.375 90.8315 72.1417 91.4648 72.725C92.1148 73.3083 92.9648 73.6 94.0148 73.6C94.9648 73.6 95.8148 73.4417 96.5648 73.125C97.3148 72.8083 97.8898 72.4083 98.2898 71.925L100.065 73.825ZM93.8648 64.8C92.8648 64.8 92.0565 65.0833 91.4398 65.65C90.8398 66.2 90.4398 66.925 90.2398 67.825H97.4648C97.2648 66.925 96.8648 66.2 96.2648 65.65C95.6648 65.0833 94.8648 64.8 93.8648 64.8ZM107.942 71.325C107.942 72.025 108.108 72.5667 108.442 72.95C108.792 73.3333 109.3 73.525 109.967 73.525C110.45 73.525 110.892 73.3917 111.292 73.125C111.692 72.8417 112.008 72.525 112.242 72.175L114.092 74C113.608 74.7 113.017 75.2417 112.317 75.625C111.617 76.0083 110.867 76.2 110.067 76.2C108.35 76.2 107.042 75.7583 106.142 74.875C105.258 74.0083 104.817 72.8 104.817 71.25V65.075H102.517V62.375H104.817V56.975H107.942V62.375H112.067V65.075H107.942V71.325Z" fill="#1A1A1A"/>
<defs>
<filter id="filter0_d_1014_46" x="0" y="0" width="148" height="148" filterUnits="userSpaceOnUse" color-interpolation-filters="sRGB">
<feFlood flood-opacity="0" result="BackgroundImageFix"/>
<feColorMatrix in="SourceAlpha" type="matrix" values="0 0 0 0 0 0 0 0 0 0 0 0 0 0 0 0 0 0 127 0" result="hardAlpha"/>
<feOffset dx="5" dy="7"/>
<feGaussianBlur stdDeviation="4"/>
<feComposite in2="hardAlpha" operator="out"/>
<feColorMatrix type="matrix" values="0 0 0 0 0 0 0 0 0 0 0 0 0 0 0 0 0 0 0.25 0"/>
<feBlend mode="normal" in2="BackgroundImageFix" result="effect1_dropShadow_1014_46"/>
<feBlend mode="normal" in="SourceGraphic" in2="effect1_dropShadow_1014_46" result="shape"/>
</filter>
</defs>
</svg>
