<svg width="150" height="136" viewBox="0 0 150 136" fill="none" xmlns="http://www.w3.org/2000/svg">
<g clip-path="url(#clip0_1488_3827)">
<path d="M7.2583 133.063V48.3855H26.6131V29.0306H38.7099V9.67578H111.291V31.45H123.387V48.3855H142.742V133.063H7.2583Z" fill="white"/>
<path d="M145.161 48.3867H140.323V133.064H145.161V48.3867Z" fill="#444444"/>
<path d="M9.67758 48.3867H4.83887V133.064H9.67758V48.3867Z" fill="#444444"/>
<path d="M150 130.645H0V135.483H150V130.645Z" fill="#444444"/>
<path d="M29.0323 50.8077H0V38.7109H29.0323V50.8077ZM4.83871 45.969H24.1935V43.5496H4.83871V45.969Z" fill="#444444"/>
<path d="M29.0321 29.0312H24.1934V133.064H29.0321V29.0312Z" fill="#444444"/>
<path d="M125.806 29.0312H120.968V133.064H125.806V29.0312Z" fill="#444444"/>
<path d="M41.1292 31.4522H19.355V19.3555H41.1292V31.4522ZM24.1937 26.6135H36.2905V24.1942H24.1937V26.6135Z" fill="#444444"/>
<path d="M150 50.8077H120.968V38.7109H150V50.8077ZM125.806 45.969H145.161V43.5496H125.806V45.969Z" fill="#444444"/>
<path d="M113.71 135.484H36.2905V7.25781H113.71V135.484ZM41.1292 130.645H108.871V12.0965H41.1292V130.645Z" fill="#444444"/>
<path d="M118.548 12.0968H31.4517V0H118.548V12.0968ZM36.2904 7.25806H113.71V4.83871H36.2904V7.25806Z" fill="#444444"/>
<path d="M130.645 31.4522H108.871V19.3555H130.645V31.4522ZM113.71 26.6135H125.807V24.1942H113.71V26.6135Z" fill="#444444"/>
<path d="M111.29 87.0977H38.7095V91.9364H111.29V87.0977Z" fill="#444444"/>
<path d="M104.032 133.064H99.1936V101.612H50.8065V133.064H45.9678V96.7734H104.032V133.064Z" fill="#444444"/>
<path d="M77.4193 99.1953H72.5806V133.066H77.4193V99.1953Z" fill="#444444"/>
<path d="M101.613 29.0312H48.3872V58.0635H101.613V29.0312Z" fill="#B8292D"/>
<path d="M94.3547 36.2891H55.645V41.1278H94.3547V36.2891Z" fill="#444444"/>
<path d="M94.3548 45.9688H89.5161V50.8075H94.3548V45.9688Z" fill="#444444"/>
<path d="M84.6773 45.9688H55.645V50.8075H84.6773V45.9688Z" fill="#444444"/>
<path d="M70.1615 108.871H65.3228V120.968H70.1615V108.871Z" fill="#444444"/>
<path d="M84.6776 108.871H79.8389V120.968H84.6776V108.871Z" fill="#444444"/>
</g>
<defs>
<clipPath id="clip0_1488_3827">
<rect width="150" height="135.484" fill="white"/>
</clipPath>
</defs>
</svg>
