<svg width="100" height="91" viewBox="0 0 100 91" fill="none" xmlns="http://www.w3.org/2000/svg">
<g clip-path="url(#clip0_767_80)">
<path d="M61.9562 66.4551H38.0204L26.0039 55.071C23.9838 53.1466 22.3737 50.8336 21.2701 48.2712C20.1666 45.7087 19.5924 42.9497 19.582 40.1598V10.9941H80.3945V40.1841C80.3898 42.9749 79.8182 45.7357 78.7143 48.2989C77.6104 50.8621 75.9972 53.1744 73.9727 55.0953L61.9562 66.4551ZM39.7718 62.0766H60.2048L70.9564 51.8844C72.5478 50.3731 73.8167 48.5551 74.6863 46.54C75.5559 44.5249 76.0082 42.3545 76.016 40.1598V15.3726H24.0092V40.1841C24.017 42.3788 24.4694 44.5491 25.3389 46.5642C26.2085 48.5793 27.4773 50.3975 29.0688 51.9088L39.7718 62.0766Z" fill="#444444"/>
<path d="M79.3477 15.3733H20.6271L10.0215 0H89.9533L79.3477 15.3733ZM22.938 10.9949H77.0611L81.6099 4.37847H18.3649L22.938 10.9949Z" fill="#444444"/>
<path d="M24.009 43.0788L15.4953 38.6516C10.8317 36.2323 6.92374 32.5765 4.1993 28.0844C1.47486 23.5922 0.038974 18.4371 0.048879 13.1834V10.9941H24.009V43.0788ZM4.54902 15.3726C4.90382 19.4467 6.28004 23.3656 8.55045 26.7669C10.8209 30.1683 13.9121 32.9423 17.5385 34.8326L19.6548 35.9272V15.3726H4.54902Z" fill="#444444"/>
<path d="M76.0156 43.0788V10.9941H100V13.1834C100.005 18.439 98.5643 23.5949 95.8357 28.0867C93.1071 32.5786 89.1957 36.2335 84.5294 38.6516L76.0156 43.0788ZM80.3941 15.3726V35.8542L82.5104 34.7596C86.1413 32.8724 89.2375 30.0997 91.5123 26.6982C93.7871 23.2966 95.167 19.3761 95.5242 15.2996L80.3941 15.3726Z" fill="#444444"/>
<path d="M52.2018 49.4033H47.8233V32.2542L45.0259 34.2245L42.4961 30.6487L52.2018 23.7891V49.4033Z" fill="#B8292D"/>
<path d="M55.364 47.2148H44.6367V51.5933H55.364V47.2148Z" fill="#B8292D"/>
<path d="M49.9885 81.1236C48.1015 81.1236 46.257 80.5636 44.6884 79.5148C43.1198 78.466 41.8976 76.9753 41.1766 75.2315C40.4556 73.4877 40.2682 71.5692 40.6381 69.7189C41.008 67.8686 41.9186 66.1695 43.2546 64.837C44.5906 63.5044 46.2919 62.5982 48.1432 62.233C49.9945 61.8678 51.9125 62.0602 53.6545 62.7856C55.3964 63.511 56.8839 64.737 57.9287 66.3083C58.9735 67.8796 59.5287 69.7255 59.5239 71.6125C59.5175 74.1372 58.51 76.5564 56.7225 78.3394C54.935 80.1224 52.5132 81.1236 49.9885 81.1236ZM49.9885 66.5286C48.9686 66.5286 47.9716 66.831 47.1235 67.3976C46.2755 67.9642 45.6145 68.7698 45.2242 69.7121C44.8339 70.6544 44.7317 71.6912 44.9307 72.6915C45.1297 73.6919 45.6208 74.6108 46.3421 75.332C47.0633 76.0532 47.9821 76.5442 48.9825 76.7432C49.9828 76.9422 51.0197 76.8401 51.962 76.4498C52.9043 76.0595 53.7097 75.3985 54.2763 74.5505C54.843 73.7024 55.1454 72.7054 55.1454 71.6855C55.1584 71.0013 55.0344 70.3214 54.7807 69.6858C54.5271 69.0502 54.1489 68.4718 53.6684 67.9845C53.1879 67.4972 52.6149 67.1108 51.9829 66.8483C51.351 66.5857 50.6728 66.4522 49.9885 66.4556V66.5286Z" fill="#444444"/>
<path d="M79.4464 90.6843H20.5312L29.0936 76.7461H70.9083L79.4464 90.6843ZM28.3639 86.3058H71.638L68.4514 81.1246H31.5261L28.3639 86.3058Z" fill="#444444"/>
</g>
<defs>
<clipPath id="clip0_767_80">
<rect width="100" height="90.6835" fill="white"/>
</clipPath>
</defs>
</svg>
