<svg width="600" height="500" viewBox="0 0 600 500" fill="none" xmlns="http://www.w3.org/2000/svg">
<g clip-path="url(#clip0_1488_2354)">
<rect width="600" height="500" fill="white"/>
<ellipse cx="300.147" cy="249.823" rx="95.5" ry="358.292" transform="rotate(51.229 300.147 249.823)" fill="#F8F8F8"/>
<g clip-path="url(#clip1_1488_2354)">
<g opacity="0.2">
<path opacity="0.2" d="M223.606 283.153L142.324 330.385L60.5081 283.153L141.796 235.914L223.606 283.153Z" fill="white"/>
</g>
<path d="M477.984 301.482L502.03 299.113L500.38 315.535L474.344 318.576L477.984 301.482Z" fill="#D86554"/>
<path d="M491.096 293.264C491.096 293.264 490.46 295.747 490.568 295.891C490.676 296.035 491.168 295.357 491.714 294.961C492.259 294.566 491.444 295.381 492.025 296.059C492.265 296.335 493.867 296.605 494.574 296.587C495.282 296.569 495.228 295.219 495.228 295.219L495.42 291.723L495.666 289.252C495.066 289.126 493.711 289.156 492.541 288.508L492.211 291.093L491.096 293.264Z" fill="#D38D8D"/>
<path d="M497.909 304.274C497.909 304.274 496.895 294.546 493.789 294.378C490.682 294.21 487.791 301.078 486.975 304.97" stroke="#F2F2F2" stroke-width="0.75" stroke-miterlimit="10"/>
<path d="M497.171 304.274C497.171 304.274 496.158 294.546 493.051 294.378C489.944 294.21 487.053 301.078 486.237 304.97" stroke="#D86554" stroke-miterlimit="10"/>
<path d="M504.729 301.062L480.54 303.114L477.613 322.409L504.615 320.621L504.729 301.062Z" fill="white"/>
<path d="M480.54 303.113L475.43 319.763L477.613 322.408L480.54 303.113Z" fill="#E6E6E6"/>
<path d="M532.672 340.382C523.63 347.202 512.365 350.398 501.088 349.342C498.797 349.12 496.422 348.676 494.58 347.297C492.739 345.917 491.612 343.344 492.517 341.233C493.025 340.232 493.758 339.361 494.658 338.69C501.646 332.794 510.457 329.777 519.249 327.738C520.161 327.528 521.271 327.18 522.5 326.803L522.608 326.767L524.342 326.239C527.106 325.501 532.355 324.499 536.025 326.311H536.061C537.348 327.13 538.259 328.423 538.598 329.909C539.27 333.976 536.025 337.826 532.672 340.382Z" fill="#C7AFAF"/>
<path d="M517.408 329.958C518.234 330.885 518.869 331.965 519.28 333.137H523.16L519.483 327.895L517.408 329.958Z" fill="#EEEEEE"/>
<path d="M503.121 292.543L503.955 314.675C503.973 315.239 504.184 315.779 504.555 316.204L517.15 330.455C517.15 330.455 520.749 329.759 520.845 327.456L510.792 310.812L511.464 301.678L512.064 295.044L503.121 292.543Z" fill="#CEAE89"/>
<path d="M504.477 336.316L503.121 341.175L506.906 342.908L508.117 337.36L504.477 336.316Z" fill="#EEEEEE"/>
<path d="M504.669 290.98C504.669 290.98 516.065 296.528 520.863 294.369C520.863 294.369 519.165 304.08 516.065 311.013L513.755 318.102L508.357 338.903C508.357 338.903 504.351 339.215 503.559 336.438L507.722 314.948L509.569 300.685C509.569 300.685 504.207 296.834 504.669 290.98Z" fill="#D8BB92"/>
<path d="M522.05 338.396C521.078 339.901 520.329 339.979 519.813 339.637C519.213 338.924 519.363 337.46 519.483 336.764C519.525 336.53 519.555 336.381 519.555 336.381C519.646 335.771 519.684 335.155 519.669 334.539C519.669 334.539 518.158 333.094 519.717 332.38C521.156 331.72 521.456 332.53 521.456 332.53C521.456 332.53 521.906 332.362 521.522 331.738C521.522 331.738 520.191 329.561 521.336 329.741C522.992 329.921 523.496 330.803 523.496 330.803C524.041 331.264 524.125 335.175 522.05 338.396Z" fill="#242C6B"/>
<path d="M507.566 341.415C507.593 341.851 507.532 342.288 507.387 342.7C507.242 343.113 507.015 343.491 506.72 343.814C506.252 344.335 501.754 343.85 498.677 341.571C497.291 340.551 497.207 339.813 497.531 339.321C497.554 339.283 497.58 339.247 497.609 339.213L497.675 339.141C498.275 338.578 499.648 338.866 499.84 338.908C500.738 339.246 501.688 339.426 502.647 339.441C502.647 339.441 502.893 338.35 504.447 339.141C505.442 339.657 505.364 340.197 505.364 340.197C505.364 340.197 504.956 341.457 505.604 341.121C505.616 341.127 507.871 339.711 507.566 341.415Z" fill="#242C6B"/>
<path d="M514.961 255.278V260.113L508.783 256.94C508.882 256.672 508.952 256.395 508.993 256.112C509.149 255.064 509.046 253.993 508.693 252.993L510.955 251.392L513.522 249.562C513.522 249.562 514.163 253.959 514.961 255.278Z" fill="#E49C9A"/>
<path d="M513.185 251.628C512.914 252.667 512.388 253.621 511.655 254.404C510.922 255.187 510.005 255.775 508.987 256.115C509.142 255.066 509.039 253.996 508.687 252.996L510.948 251.395L513.185 251.628Z" fill="#D38D8D"/>
<path d="M538.04 300.501C538.04 300.501 533.722 291.726 530.747 292.65C527.772 293.574 527.43 301.011 528.024 304.94" stroke="#1D2168" stroke-width="0.75" stroke-miterlimit="10"/>
<path d="M527.64 292.838C527.781 293.637 527.982 294.425 528.24 295.195C528.396 295.285 528.474 294.295 528.84 293.738C529.206 293.18 529.05 294.655 529.829 295.087C530.147 295.261 531.545 295.087 532.228 294.805C532.912 294.523 532.36 293.072 532.36 293.072L531.377 289.605V288.352C530.342 288.572 529.279 288.626 528.228 288.513L527.796 290.751L527.64 292.838Z" fill="#E49C9A"/>
<path d="M543.33 295.141L521.354 305.445L525.289 324.56L550 313.524L543.33 295.141Z" fill="#1D2168"/>
<path d="M521.354 305.445L522.326 322.839L525.289 324.56L521.354 305.445Z" fill="#4A4D86"/>
<path d="M492.397 296.233C492.276 296.233 492.16 296.185 492.075 296.099C491.989 296.014 491.941 295.898 491.941 295.777V294.889C491.941 294.768 491.989 294.653 492.075 294.567C492.16 294.482 492.276 294.434 492.397 294.434C492.518 294.434 492.634 294.482 492.72 294.567C492.805 294.653 492.853 294.768 492.853 294.889V295.777C492.853 295.898 492.805 296.014 492.72 296.099C492.634 296.185 492.518 296.233 492.397 296.233Z" fill="#E49C9A"/>
<path d="M493.267 296.292C493.147 296.292 493.032 296.244 492.947 296.16C492.861 296.076 492.813 295.962 492.811 295.842V294.948C492.811 294.827 492.859 294.711 492.945 294.626C493.03 294.54 493.146 294.492 493.267 294.492C493.388 294.492 493.504 294.54 493.589 294.626C493.675 294.711 493.723 294.827 493.723 294.948V295.842C493.721 295.962 493.672 296.076 493.587 296.16C493.502 296.244 493.387 296.292 493.267 296.292Z" fill="#E49C9A"/>
<path d="M494.173 296.426C494.053 296.425 493.938 296.376 493.854 296.291C493.77 296.206 493.723 296.09 493.723 295.971V295.077C493.723 294.957 493.77 294.842 493.854 294.757C493.938 294.671 494.053 294.623 494.173 294.621C494.293 294.621 494.409 294.669 494.495 294.755C494.58 294.84 494.628 294.956 494.628 295.077V295.971C494.628 296.092 494.58 296.207 494.495 296.293C494.409 296.378 494.293 296.426 494.173 296.426Z" fill="#E49C9A"/>
<path d="M495.024 296.436C494.92 296.435 494.82 296.392 494.746 296.319C494.672 296.245 494.63 296.145 494.628 296.04V295.279C494.63 295.174 494.672 295.074 494.746 295C494.82 294.927 494.92 294.884 495.024 294.883C495.129 294.883 495.23 294.925 495.304 294.999C495.378 295.073 495.42 295.174 495.42 295.279V296.058C495.415 296.16 495.372 296.256 495.298 296.327C495.224 296.397 495.126 296.436 495.024 296.436Z" fill="#E49C9A"/>
<path d="M477.984 301.48L471.807 315.599L474.344 318.574L477.984 301.48Z" fill="#E08476"/>
<path d="M507.074 245.292C507.074 245.292 506.906 247.655 506.918 248.849C506.918 250.306 507.092 253.803 508.382 253.791C510.515 253.706 512.547 252.854 514.103 251.392C516.173 249.431 516.713 245.79 516.713 245.79L511.914 242.191L507.782 243.769L507.074 245.292Z" fill="#E49C9A"/>
<path d="M518.434 246.205C518.949 250.218 514.325 252.839 514.325 252.839L513.611 251.189C515.411 250.02 515.411 248.514 515.165 248.19C514.919 247.866 514.493 247.902 513.965 248.37C513.437 248.838 513.365 248.724 513.365 248.724C511.614 249.126 513.216 245.767 512.166 244.892C511.566 244.424 508.645 242.996 507.853 244.1L507.812 244.166C507.503 244.592 507.221 245.037 506.966 245.497C507.428 243.044 508.675 240.615 513.048 240.555C517.42 240.495 518.434 246.205 518.434 246.205Z" fill="#2A0B14"/>
<path d="M513.755 248.495C513.755 248.495 513.047 249.161 513.155 249.754C513.263 250.348 513.293 251.89 512.771 252.405C512.25 252.921 507.823 255.896 507.439 252.873C508.469 252.875 509.489 252.671 510.438 252.274C511.168 251.901 511.76 251.306 512.129 250.575C512.499 249.845 512.627 249.015 512.496 248.207L513.755 248.495Z" fill="#2A0B14"/>
<path d="M532.271 288.467C528.966 261.477 514.961 255.281 514.961 255.281L514.799 256.139C513.276 256.811 509.605 257.249 508.909 257.033C508.843 256.673 508.801 256.475 508.801 256.475C508.801 256.475 494.796 262.689 491.492 289.661L496.218 290.98C496.218 290.98 498.563 282.583 503.001 276.088L501.28 294.621C501.28 294.621 520.119 297.332 523.316 296.234L520.761 274.888C525.199 281.402 527.55 289.781 527.55 289.781L532.271 288.467Z" fill="#6C7BE6"/>
<path d="M92.2306 193.156C94.0599 193.45 96.0452 193.642 97.6646 192.742C100.274 191.303 100.747 187.536 99.4639 184.837C98.1804 182.138 95.6973 180.279 93.2862 178.521L87.3484 174.191C85.507 172.854 83.6657 171.51 81.7104 170.352C76.8042 167.449 71.2623 165.758 65.6603 164.703C62.4155 164.103 57.1975 163.881 56.2318 168.121C55.5301 171.21 59.3087 174.965 61.144 177.118C66.0442 182.864 72.5398 187.032 79.5692 189.761C83.6538 191.35 87.8993 192.488 92.2306 193.156Z" fill="#C7AFAF"/>
<path d="M77.8419 139.445L78.8796 149.875C78.9275 152.538 72.6299 166.555 72.6299 166.555L71.4303 168.529C69.9361 169.905 68.7453 171.578 67.9336 173.441C67.9336 173.441 68.9292 175.612 69.9609 175.156L70.4467 174.478C70.4467 174.478 72.1081 177.663 74.7591 178.179C74.7591 178.179 76.8883 178.287 77.3741 177.351C77.3741 177.351 77.674 176.908 76.8583 176.686C76.8583 176.686 73.4875 175.828 73.9194 170.85L74.1113 170.022C74.2291 169.758 74.3675 169.503 74.5252 169.26C78.0039 164.936 83.3779 155.411 85.1053 152.305C85.4657 151.657 85.5968 150.907 85.4771 150.175L77.8419 139.445Z" fill="#23232B"/>
<path d="M100.639 96.4297L97.7603 103.291H101.233L103.95 96.4297H100.639Z" fill="#31314F"/>
<path d="M98.6182 104.676L98.6961 103.59L99.3739 101.407C99.3739 101.407 99.6678 98.876 99.9377 99.3378V101.083C100.056 100.999 100.156 100.891 100.23 100.766C100.305 100.641 100.352 100.502 100.37 100.357C100.424 99.8716 100.478 97.9883 100.855 98.3662C101.233 98.744 101.203 100.519 101.203 100.519C101.203 100.519 101.689 97.3705 101.983 97.8264C102.277 98.2822 101.983 100.303 101.983 100.303C101.983 100.303 103.087 97.6464 103.272 98.1263C103.458 98.6061 102.601 100.651 102.601 100.651L101.851 102.751L100.519 104.958L100.334 105.462L98.6182 104.676Z" fill="#E49C9A"/>
<path d="M97.0225 111.375C97.0225 111.375 100.447 114.134 99.1697 125.17" stroke="#A2A5A9" stroke-miterlimit="10"/>
<path d="M82.4961 121.672L106.913 125.343V150.041L79.6172 145.615L82.4961 121.672Z" fill="#F2F2F2"/>
<path d="M95.1036 183.875C95.1336 183.873 95.1629 183.865 95.1897 183.852C95.2166 183.839 95.2404 183.82 95.2595 183.797C95.5749 183.411 95.9896 183.118 96.4591 182.951C96.5087 182.93 96.5486 182.892 96.5706 182.843C96.5926 182.794 96.595 182.738 96.5774 182.688C96.5597 182.637 96.5233 182.595 96.4757 182.57C96.428 182.546 96.3727 182.54 96.3211 182.555C95.7731 182.747 95.2878 183.085 94.9176 183.533C94.8829 183.576 94.8666 183.631 94.8722 183.686C94.8778 183.741 94.9049 183.791 94.9476 183.827C94.9924 183.86 95.0476 183.877 95.1036 183.875Z" fill="#F2F2F2"/>
<path d="M98.9782 184.565C96.5447 183.095 94.6514 180.877 93.5802 178.244C93.4762 177.734 93.422 177.216 93.4182 176.696C93.4182 176.696 90.8032 148.507 89.0038 139.108L89.5616 132.318L84.3315 131.449L80.373 130.789C79.9892 138.112 85.4891 158.775 90.4433 176.828L90.9291 178.831C90.9291 178.831 90.7612 181.081 90.6472 183.378C90.7056 183.944 90.8038 184.505 90.9411 185.057C90.9411 185.057 92.3386 185.603 92.7405 185.201L92.8244 184.235C94.1934 184.845 95.6344 185.279 97.1128 185.525C97.1128 185.525 99.1461 185.765 99.398 185.279C99.386 185.279 99.7159 184.919 98.9782 184.565Z" fill="#23232B"/>
<path d="M95.751 171.312C93.0747 171.703 90.3587 171.743 87.6719 171.432C84.9283 171.114 82.2335 170.463 79.6469 169.494C76.3009 168.291 73.1671 166.564 70.3623 164.378L75.0106 120.144C79.6241 120.736 84.2977 120.68 88.8955 119.977L95.751 171.312Z" fill="#A55308"/>
<path d="M87.1621 93.7541V91.6729L82.5079 88.668L81.998 93.7541H87.1621Z" fill="#E49C9A"/>
<path d="M100.261 109.424C101.647 115.56 97.7602 121.222 95.541 122.289C94.1975 122.937 92.5781 121.93 91.5165 121.042C90.8072 120.437 90.2572 119.666 89.9151 118.799L89.5492 117.899L88.9194 119.944C84.3196 120.648 79.644 120.704 75.0286 120.112L75.2025 116.436C74.7946 119.213 71.6698 128.467 71.6698 128.467L71.022 131.676H68.461L68.0951 127.046C67.3514 122.793 67.1894 113.017 68.0951 111.409C69.9592 107.622 71.4458 103.66 72.5335 99.5818C72.9953 97.2667 79.191 95.2334 80.4865 95.0055C80.6227 94.9825 80.7543 94.9379 80.8764 94.8736C81.7821 94.4177 82.076 93.0742 82.076 93.0742C83.7488 93.4812 85.4593 93.7143 87.1801 93.77L87.2101 94.9395C87.2101 95.3774 87.8099 95.5393 87.8099 95.5393H87.8638C94.0475 97.0388 95.493 110.342 95.493 110.342C96.0448 110.114 97.2444 107.721 97.2444 107.721L98.4439 104.572L100.591 105.52L100.261 109.424Z" fill="#23232B"/>
<path d="M86.7905 79.957C86.7905 79.957 90.869 80.4189 90.5931 84.2515C90.3172 88.084 87.1564 88.3599 87.1564 88.3599L86.7905 79.957Z" fill="#23232B"/>
<path d="M86.4486 80.3125C87.397 80.8996 88.1731 81.7273 88.6978 82.7116C89.3755 84.1571 90.4971 89.4651 88.8238 90.7307C87.1504 91.9962 86.4246 91.9302 86.4246 91.9302L82.1422 88.8174L81.9683 83.7013L86.4486 80.3125Z" fill="#E49C9A"/>
<path d="M82.8739 86.6337C82.82 87.6446 82.82 88.6577 82.8739 89.6686C81.9143 89.9685 79.5991 89.2427 78.7834 86.5557C77.9677 83.8687 79.917 81.2837 80.025 81.1577C80.6165 80.5712 81.3282 80.1199 82.111 79.8352C82.8938 79.5504 83.7292 79.4389 84.5593 79.5083C85.3088 79.5902 86.0482 79.747 86.7665 79.9761C86.7665 79.9761 87.4322 83.4609 82.8739 86.6337Z" fill="#23232B"/>
<path d="M84.0074 86.5563C84.0086 86.7559 83.9505 86.9513 83.8405 87.1178C83.7305 87.2842 83.5736 87.4143 83.3896 87.4915C83.2056 87.5687 83.0028 87.5895 82.8069 87.5513C82.6111 87.5131 82.431 87.4176 82.2894 87.2769C82.1479 87.1363 82.0514 86.9567 82.012 86.7611C81.9726 86.5655 81.9922 86.3626 82.0683 86.1781C82.1444 85.9936 82.2735 85.8359 82.4394 85.7249C82.6052 85.6139 82.8003 85.5547 82.9998 85.5547C83.266 85.5547 83.5214 85.66 83.7102 85.8477C83.899 86.0354 84.0058 86.2901 84.0074 86.5563Z" fill="#E49C9A"/>
<path d="M87.1562 91.6703C85.9788 91.4744 84.8843 90.9386 84.0073 90.1289C84.0073 90.1289 85.4408 92.594 87.1562 93.1278V91.6703Z" fill="#D39090"/>
<path d="M64.6768 139.455C64.7607 139.353 67.3578 133.007 70.2067 133.697C73.9374 134.603 73.5175 144.247 73.5175 144.247" stroke="#5161DD" stroke-miterlimit="10"/>
<path d="M56.6516 135.223L81.1645 145.353L77.4219 167.257L50 154.817L56.6516 135.223Z" fill="#5161DD"/>
<path d="M68.4434 131.676V132.683C68.4434 132.683 67.5797 134.597 68.4434 135.083C69.1332 135.484 69.0432 134.855 70.3747 135.053C71.7062 135.25 71.6882 134.099 71.3704 133.487C71.0008 132.958 70.7925 132.333 70.7706 131.688L68.4434 131.676Z" fill="#E49C9A"/>
<path d="M95.451 110.355C95.451 110.355 92.1283 111.819 90.125 122.735" stroke="#A2A5A9" stroke-miterlimit="10"/>
<path d="M73.2777 95.7983C73.0266 95.9773 72.7918 96.178 72.5759 96.3981C72.5248 95.4634 72.6199 94.5265 72.8578 93.6211C74.3281 93.9176 75.6818 94.6319 76.7564 95.6783C76.2296 95.717 75.7086 95.8136 75.2029 95.9662C75.9293 95.9314 76.6539 96.0648 77.3202 96.3561C77.7048 96.9069 78.0022 97.5139 78.2018 98.1554C77.7761 98.1976 77.3548 98.2759 76.9423 98.3893C77.4419 98.3937 77.9318 98.5281 78.3638 98.7792C78.4921 99.4025 78.5485 100.038 78.5317 100.674C78.1821 100.519 77.8236 100.385 77.4581 100.273C77.8386 100.513 78.1942 100.79 78.5197 101.1C78.4903 101.595 78.4181 102.087 78.3038 102.57C77.8016 102.444 77.3118 102.274 76.8403 102.06C76.627 101.473 76.5411 100.847 76.5884 100.225C76.3249 100.704 76.2239 101.255 76.3005 101.796C75.54 101.398 74.8477 100.882 74.2493 100.267C74.1177 99.6763 74.0873 99.0679 74.1593 98.4673C73.9588 98.8012 73.7843 99.1501 73.6375 99.5109C73.3081 99.038 73.0514 98.5184 72.8758 97.9695C72.8818 97.2378 72.9478 96.0502 73.2777 95.7983Z" fill="#AF6822"/>
<path d="M82.6344 123.19C82.9417 123.345 83.2631 123.469 83.5941 123.562C82.7118 124.086 81.7523 124.466 80.7511 124.69C80.2891 123.11 80.2995 121.429 80.7811 119.856C81.084 120.349 81.44 120.807 81.8427 121.223C81.4409 120.533 81.2047 119.759 81.153 118.962C81.4906 118.305 81.9322 117.708 82.4605 117.193C82.714 117.588 83.0053 117.957 83.3302 118.296C83.0779 117.81 82.9598 117.266 82.9883 116.719C83.5287 116.276 84.1184 115.898 84.7456 115.591C84.7715 116.012 84.8236 116.43 84.9016 116.845C84.9396 116.353 85.028 115.867 85.1655 115.393C85.6611 115.166 86.1772 114.988 86.7069 114.859C86.8421 115.41 86.9244 115.972 86.9528 116.539C86.4928 117.052 85.9285 117.461 85.2975 117.738C85.8967 117.748 86.4832 117.565 86.9708 117.217C86.9728 118.161 86.8188 119.099 86.515 119.993C86.0091 120.423 85.4328 120.762 84.8116 120.995C85.2369 121.028 85.6639 121.028 86.0892 120.995C85.7926 121.552 85.4168 122.063 84.9735 122.513C84.2418 122.848 83.0483 123.382 82.6344 123.19Z" fill="#AF6822"/>
<path d="M80.2171 113.545C80.4954 113.646 80.7826 113.72 81.0748 113.767C80.3661 114.304 79.5765 114.725 78.7357 115.015C78.1901 113.701 78.038 112.257 78.2978 110.858C78.6003 111.25 78.9441 111.608 79.3235 111.926C78.9098 111.372 78.6305 110.729 78.5078 110.049C78.7369 109.454 79.0587 108.899 79.4614 108.405C79.7205 108.716 80.0054 109.005 80.3131 109.269C80.05 108.874 79.8968 108.417 79.8693 107.943C80.2907 107.514 80.7595 107.133 81.2667 106.81C81.3324 107.166 81.4185 107.519 81.5247 107.865C81.5114 107.442 81.5416 107.017 81.6146 106.6C82.0186 106.36 82.4444 106.159 82.8861 106C83.0531 106.462 83.1776 106.937 83.258 107.421C82.9119 107.911 82.4638 108.321 81.9445 108.621C82.4609 108.577 82.9491 108.366 83.336 108.021C83.4226 108.823 83.3801 109.633 83.21 110.42C82.8182 110.84 82.3553 111.187 81.8425 111.446C82.2113 111.427 82.5781 111.381 82.9401 111.308C82.739 111.814 82.4664 112.289 82.1304 112.718C81.5606 113.089 80.589 113.665 80.2171 113.545Z" fill="#AF6822"/>
<path d="M93.3162 99.5967C93.1211 99.3664 92.9042 99.1555 92.6684 98.967C93.5638 98.848 94.4722 98.8682 95.3614 99.027C95.19 100.464 94.6044 101.821 93.676 102.932C93.6019 102.428 93.4691 101.935 93.2802 101.462C93.3709 102.157 93.2969 102.864 93.0643 103.525C92.568 103.945 92.0043 104.278 91.3969 104.509C91.3227 104.101 91.2164 103.7 91.079 103.309C91.1143 103.789 91.0212 104.269 90.8091 104.701C90.2228 104.872 89.6193 104.976 89.0098 105.013C89.1341 104.664 89.2362 104.307 89.3156 103.945C89.1145 104.328 88.8754 104.69 88.6019 105.025C88.1222 105.036 87.6425 105.003 87.1685 104.929C87.2505 104.436 87.379 103.952 87.5523 103.483C88.1009 103.236 88.6957 103.107 89.2977 103.105C88.816 102.89 88.2775 102.835 87.7622 102.95C88.085 102.185 88.5308 101.477 89.0818 100.856C89.6407 100.684 90.2249 100.609 90.8091 100.634C90.4719 100.468 90.1231 100.325 89.7655 100.209C90.1967 99.8605 90.6754 99.5757 91.187 99.3628C91.9187 99.3209 93.0523 99.2969 93.3162 99.5967Z" fill="#AF6822"/>
<path d="M71.2144 111.099C71.008 110.858 70.779 110.637 70.5307 110.44C71.474 110.314 72.4312 110.336 73.3676 110.506C73.1789 112.022 72.5538 113.452 71.5683 114.62C71.4861 114.089 71.3473 113.568 71.1545 113.067C71.2485 113.801 71.1683 114.546 70.9205 115.244C70.3969 115.682 69.8054 116.033 69.1692 116.281C69.09 115.855 68.9757 115.436 68.8273 115.028C68.8624 115.534 68.763 116.041 68.5394 116.497C67.9197 116.676 67.282 116.784 66.6381 116.821C66.7674 116.454 66.8736 116.08 66.956 115.7C66.7457 116.104 66.4944 116.486 66.2063 116.839C65.7004 116.85 65.1946 116.816 64.6948 116.737C64.7823 116.218 64.9169 115.708 65.0967 115.214C65.6753 114.951 66.3028 114.815 66.938 114.812C66.4296 114.585 65.8618 114.529 65.3186 114.65C65.6588 113.843 66.1289 113.098 66.7101 112.443C67.2918 112.261 67.9006 112.182 68.5094 112.209C68.1554 112.032 67.7885 111.881 67.4118 111.759C67.8652 111.392 68.3679 111.092 68.9053 110.865C69.727 110.811 70.9265 110.787 71.2144 111.099Z" fill="#AF6822"/>
<path d="M76.2226 127.372C76.3249 126.979 76.3891 126.578 76.4146 126.172C77.2433 127.079 77.9253 128.109 78.4358 129.225C76.7013 130.147 74.7359 130.543 72.7799 130.365C73.2832 129.892 73.7301 129.363 74.1114 128.788C73.4038 129.426 72.558 129.892 71.6403 130.149C70.7868 129.915 69.9766 129.544 69.2412 129.051C69.6394 128.657 70.0007 128.228 70.3208 127.768C69.8131 128.181 69.2045 128.453 68.5575 128.554C67.9105 128.021 67.3251 127.417 66.8121 126.754C67.2965 126.622 67.7714 126.458 68.2336 126.262C67.651 126.339 67.0621 126.355 66.4762 126.31C66.0935 125.783 65.7583 125.223 65.4746 124.637C66.0877 124.347 66.7261 124.114 67.3819 123.941C68.0657 124.421 69.0073 125.141 69.1812 125.591C69.0499 124.887 68.6943 124.246 68.1676 123.761C69.2696 123.529 70.4021 123.478 71.5204 123.611C72.1465 124.1 72.6841 124.692 73.1098 125.363C73.0334 124.86 72.9211 124.363 72.7739 123.875C73.496 124.085 74.1847 124.396 74.8192 124.799C75.4249 125.585 76.3246 126.844 76.2226 127.372Z" fill="#AF6822"/>
<path d="M102.829 111.793C102.563 111.481 102.267 111.196 101.947 110.941C103.161 110.777 104.394 110.805 105.6 111.025C105.368 112.975 104.574 114.815 103.315 116.321C103.209 115.638 103.03 114.968 102.781 114.324C102.903 115.27 102.8 116.232 102.481 117.131C101.806 117.693 101.044 118.143 100.226 118.462C100.126 117.912 99.9774 117.372 99.7818 116.849C99.8336 117.5 99.7072 118.153 99.416 118.738C98.6192 118.972 97.798 119.113 96.9688 119.158C97.1311 118.684 97.2673 118.202 97.3767 117.713C97.102 118.232 96.7787 118.724 96.4111 119.182C95.7606 119.198 95.1101 119.154 94.4678 119.05C94.5754 118.381 94.7482 117.724 94.9836 117.089C95.7693 116.801 96.8969 116.441 97.3467 116.573C96.6961 116.28 95.9677 116.206 95.2715 116.363C95.7103 115.324 96.3183 114.366 97.0708 113.526C97.829 113.289 98.6222 113.183 99.416 113.214C98.9585 112.986 98.4879 112.786 98.0065 112.614C98.5898 112.142 99.2382 111.756 99.9318 111.469C100.915 111.427 102.463 111.385 102.829 111.793Z" fill="#AF6822"/>
<path d="M89.1055 167.137C88.9119 168.648 88.425 170.107 87.672 171.431C84.9283 171.113 82.2336 170.463 79.647 169.494C79.8569 168.504 80.3667 167.353 80.8825 165.763C82.0821 161.967 82.166 157.864 82.0461 153.906C81.8482 148.04 81.3863 141.91 83.8454 136.566C84.6671 136.146 85.3329 137.358 85.4768 138.276C86.5204 145.117 87.564 151.966 88.6077 158.824C89.0515 161.577 89.4773 164.378 89.1055 167.137Z" fill="#7C3E06"/>
<path d="M87.8278 95.5528L84.3131 99.6913L80.8584 94.8931C81.7641 94.4373 82.058 93.0938 82.058 93.0938C82.8557 93.3217 83.7973 93.1777 84.637 93.2857C85.4896 93.3936 86.3334 93.562 87.1621 93.7895L87.1921 94.9591C87.1921 95.3969 87.7918 95.5588 87.7918 95.5588L87.8278 95.5528Z" fill="#E49C9A"/>
<path d="M83.7914 85.9553C83.7914 85.9553 83.7134 86.837 84.5771 86.705C85.4408 86.5731 87.6959 85.9013 87.486 84.3479C87.2761 82.7945 87.432 82.2367 87.6419 81.8588C87.8519 81.4809 88.1878 80.2514 86.1905 80.2034C84.1932 80.1554 83.7914 85.9553 83.7914 85.9553Z" fill="#23232B"/>
<path d="M81.1645 145.352L81.5603 165.126L77.4219 167.255L81.1645 145.352Z" fill="#7481E4"/>
<path d="M106.913 125.344L110.062 147.476L106.913 150.043V125.344Z" fill="white"/>
<path d="M97.1426 279.87C97.1426 282.629 99.1938 285.328 102.912 287.469L219.072 354.411C223.27 356.81 228.938 358.159 235.026 358.159C241.114 358.159 246.799 356.828 251.022 354.399L541.651 188.326C545.436 186.161 547.517 183.432 547.529 180.649C547.541 177.866 545.478 175.191 541.759 173.038L515.633 157.983L441.914 115.513L425.582 106.102C421.383 103.703 415.721 102.348 409.646 102.348C403.57 102.348 397.872 103.691 393.637 106.108L103.02 272.187C99.2358 274.358 97.1546 277.081 97.1426 279.87Z" fill="#C7AFAF"/>
<path d="M103.614 248.531C92.4645 254.913 94.3358 271.503 105.414 277.884L214.574 340.795C225.651 347.177 243.729 347.177 254.879 340.795L529.842 183.395C540.991 177.013 542.767 160.106 531.689 153.724L420.79 97.3448C409.712 90.9632 391.634 90.9632 380.484 97.3448L103.614 248.531Z" fill="#766E7E"/>
<path d="M105.546 245.964C94.3957 252.345 94.3357 262.757 105.414 269.109L214.573 332.02C225.651 338.402 243.729 338.402 254.879 332.02L529.841 174.62C540.991 168.238 541.051 157.856 529.973 151.474L420.814 88.5636C409.736 82.1819 391.658 82.1819 380.508 88.5636L105.546 245.964Z" fill="#C8C5CB"/>
<path d="M112.719 265.133L221.021 327.51C229.904 332.626 244.413 332.626 253.331 327.51L524.269 172.677C533.206 167.561 533.266 159.236 524.377 154.12L416.075 91.7427C407.199 86.6326 392.684 86.6326 383.771 91.7427L112.827 246.582C103.914 251.698 103.848 260.023 112.719 265.133ZM108.605 255.896C108.605 253.299 110.554 250.756 114.08 248.741L385.025 93.9079C388.971 91.6468 394.273 90.3992 399.947 90.3992C405.621 90.3992 410.899 91.6468 414.816 93.902L523.118 156.279C526.591 158.282 528.516 160.801 528.516 163.368C528.516 165.935 526.567 168.508 523.04 170.53L252.06 325.387C248.131 327.666 242.829 328.865 237.155 328.865C231.481 328.865 226.203 327.618 222.281 325.363L113.979 262.986C110.512 260.982 108.599 258.469 108.605 255.896Z" fill="#E4E2E5"/>
<path d="M108.604 255.898C108.604 258.471 110.512 260.99 114.003 262.987L222.305 325.364C226.221 327.62 231.505 328.867 237.179 328.867C242.853 328.867 248.155 327.62 252.096 325.358L523.04 170.531C526.573 168.51 528.516 165.973 528.522 163.376C528.528 160.779 526.609 158.284 523.124 156.281L498.767 142.24L430.044 102.654L414.816 93.8795C410.905 91.6244 405.621 90.3828 399.953 90.3828C394.285 90.3828 388.983 91.6363 385.031 93.8855L114.11 248.743C110.554 250.758 108.61 253.295 108.604 255.898Z" fill="#F5FAFE"/>
<path d="M425.87 115.418L476.401 144.808C480.372 147.117 486.675 147.399 491.24 145.467L498.761 142.289L430.038 102.703L424.784 106.854C421.443 109.457 421.899 113.115 425.87 115.418Z" fill="#E4E2E5"/>
<path d="M99.7638 450.978C96.0212 451.889 92.1406 452.993 89.3156 455.608C87.2044 457.563 85.8309 460.808 87.2284 463.321C88.374 465.396 90.9231 466.194 93.2262 466.62C103.338 468.467 113.757 466.674 123.731 464.221C128.961 462.931 134.263 461.396 138.618 458.223C140.837 456.622 142.894 454.283 142.816 451.548C142.69 448.411 139.631 446.03 136.524 445.55C131.822 444.848 125.128 446.395 120.33 447.055C113.413 448.014 106.549 449.323 99.7638 450.978Z" fill="#C7AFAF"/>
<path d="M118.309 383.242L118.363 396.617L135.439 406.412L135.385 393.037L118.309 383.242Z" fill="#D05D5B"/>
<path d="M135.385 393.037L135.439 406.412L151.693 397.031L151.639 383.656L135.385 393.037Z" fill="#D66767"/>
<path d="M117.373 379.254L135.312 389.667L153.378 379.242L135.438 368.824L117.373 379.254Z" fill="#DD7272"/>
<path d="M117.373 379.254L117.397 382.787L135.336 393.199L135.312 389.666L117.373 379.254Z" fill="#D66767"/>
<path d="M135.312 389.666L135.336 393.199L153.402 382.775L153.378 379.242L135.312 389.666Z" fill="#D05D5B"/>
<path d="M146.468 383.25V400.068L143.29 401.903V385.091L146.468 383.25Z" fill="#F1E2E2"/>
<path d="M124.163 383.25V399.9L127.341 401.735V385.091L124.163 383.25Z" fill="#F1E2E2"/>
<path d="M127.341 385.09L145.695 374.773L142.654 373.004L124.163 383.248L127.341 385.09Z" fill="#F8F0F0"/>
<path d="M143.29 385.089L124.882 374.785L127.929 373.016L146.468 383.248L143.29 385.089Z" fill="#F8F0F0"/>
<path d="M118.663 370.125L118.717 377.022L135.792 386.817L135.738 379.925L118.663 370.125Z" fill="#D05D5B"/>
<path d="M135.738 379.926L135.792 386.817L152.046 377.437L151.992 370.539L135.738 379.926Z" fill="#D66767"/>
<path d="M117.727 366.135L135.672 376.553L153.732 366.123L135.792 355.711L117.727 366.135Z" fill="#DD7272"/>
<path d="M117.727 366.137L117.751 369.669L135.69 380.088L135.672 376.555L117.727 366.137Z" fill="#D66767"/>
<path d="M135.672 376.555L135.69 380.088L153.756 369.658L153.732 366.125L135.672 376.555Z" fill="#D05D5B"/>
<path d="M146.822 370.137V380.471L143.644 382.306V371.972L146.822 370.137Z" fill="#F1E2E2"/>
<path d="M124.517 370.137V380.303L127.695 382.138V371.972L124.517 370.137Z" fill="#F1E2E2"/>
<path d="M127.695 371.974L146.049 361.664L143.008 359.895L124.517 370.139L127.695 371.974Z" fill="#F8F0F0"/>
<path d="M143.644 371.974L125.236 361.676L128.283 359.906L146.822 370.138L143.644 371.974Z" fill="#F8F0F0"/>
<path d="M91.5346 446.062C91.5346 446.062 89.5554 446.302 89.3814 447.406C89.2075 448.51 93.6578 453.806 94.0597 452.168C94.4616 450.531 93.31 448.156 93.31 448.156L91.5346 446.062Z" fill="#1D2168"/>
<path d="M132.241 427.739C132.571 428.897 135.738 445.013 135.738 445.013L133.237 445.919C133.237 445.919 128.301 434.559 127.797 430.924L125.098 422.527C125.098 422.527 131.912 426.576 132.241 427.739Z" fill="#E49C9A"/>
<path d="M104.712 439.335C99.7816 442.934 93.316 447.654 93.316 447.654L91.1567 446.118C91.1567 446.118 96.3748 440.079 100.819 435.484L104.712 439.335Z" fill="white"/>
<path d="M134.191 448.571C134.191 448.571 133.591 450.478 134.527 451.09C135.462 451.702 142.114 449.842 140.788 448.799C139.463 447.755 136.83 447.821 136.83 447.821L134.191 448.571Z" fill="#1D2168"/>
<path d="M134.077 448.949C134.328 449.294 134.698 449.533 135.115 449.621C135.781 449.675 137.874 448.421 137.874 448.421C137.874 448.421 138.414 447.821 136.171 447.576L135.739 444.996L130.94 440.324L134.077 448.949Z" fill="white"/>
<path d="M91.1447 446.117C90.9417 446.482 90.8758 446.908 90.9588 447.317C91.1867 447.952 93.1779 449.344 93.1779 449.344C93.1779 449.344 93.9577 449.584 93.2439 447.443L91.1447 446.117Z" fill="white"/>
<path d="M114.74 397.59L114.572 410.899V410.941V411.073L114.494 411.577C114.41 412.117 114.284 412.956 114.122 413.976C114.062 414.39 113.991 414.834 113.919 415.295L113.811 415.979L113.745 416.381C112.971 421.227 111.849 427.849 111.178 429.978C110.846 430.823 110.42 431.628 109.906 432.377C106.499 437.727 97.8025 448.085 97.8025 448.085C95.6421 446.68 93.9111 444.707 92.8003 442.381L103.794 426.031C103.794 426.031 104.328 413.586 104.592 408.596C104.856 403.606 107.555 393.523 107.555 393.523L114.74 397.59Z" fill="#AF6822"/>
<path d="M121.344 395.52C121.344 395.52 128.259 414.395 129.177 418.233C129.963 421.508 138.623 443.424 138.623 443.424C138.623 443.424 134.347 445.931 130.431 445.223L123.023 425.575L114.572 410.85L109.702 394.578L121.344 395.52Z" fill="#AF6822"/>
<path d="M121.908 350.883C121.908 350.883 125.146 350.655 125.296 353.444C125.446 356.233 120.498 357.643 120.498 357.643L121.908 350.883Z" fill="#6A3536"/>
<path d="M124.307 360.013C123.797 363.011 121.026 362.154 121.026 362.154C120.858 362.154 120.582 362.754 120.276 363.647C119.575 365.609 118.735 368.811 118.735 368.811L113.511 367.252L115.358 359.491C116.072 353.253 118.903 351.868 122.118 352.239C124.673 352.539 124.631 357.26 124.307 360.013Z" fill="#E49C9A"/>
<path d="M112.989 362.711L120.96 365.206L119.664 367.605L123.707 431.356C123.707 431.356 109.828 434.624 100.184 427.559L106.907 369.512L112.989 362.711Z" fill="#6C78F0"/>
<path d="M123.071 352.498C123.041 351.904 122.859 351.328 122.543 350.825C122.27 350.387 121.903 350.015 121.468 349.736C121.033 349.458 120.542 349.28 120.029 349.215C119.517 349.15 118.997 349.2 118.506 349.361C118.016 349.522 117.567 349.791 117.193 350.147L116.989 350.363C116.279 350.845 115.448 351.117 114.59 351.148C111.124 351.184 111.07 354.987 111.07 354.987C110.83 356.786 108.79 356.57 108.79 356.57C107.771 356.72 107.591 356.684 106.565 357.77C105.54 358.856 107.021 361.255 107.021 361.255C107.357 364.098 104.196 363.654 104.196 363.654C101.257 364.368 101.971 369.412 101.971 369.412C102.073 370.377 100.921 371.439 100.118 372.057C99.7449 372.331 99.4469 372.694 99.2509 373.113C99.055 373.532 98.9673 373.994 98.9961 374.456C99.2 376.759 102.235 377.353 102.235 377.353C102.235 377.353 102.007 380.292 103.89 380.256C105.774 380.22 106.187 375.769 106.187 375.769C106.187 375.769 106.601 370.425 110.146 369.172C113.691 367.918 114.248 363.774 115.34 362.088C116.432 360.403 119.574 358.622 119.574 358.622C123.197 357.056 123.395 354.273 123.071 352.498Z" fill="#6A3536"/>
<path d="M120.774 359.462C121.493 359.462 122.076 358.88 122.076 358.161C122.076 357.442 121.493 356.859 120.774 356.859C120.055 356.859 119.473 357.442 119.473 358.161C119.473 358.88 120.055 359.462 120.774 359.462Z" fill="#E49C9A"/>
<path d="M135.103 398.478C135.275 398.503 135.441 398.565 135.588 398.658C135.661 398.706 135.716 398.777 135.746 398.859C135.777 398.94 135.78 399.03 135.756 399.114C135.743 399.154 135.72 399.19 135.689 399.22C135.658 399.249 135.621 399.27 135.58 399.281C135.539 399.293 135.496 399.294 135.455 399.284C135.413 399.275 135.375 399.255 135.343 399.228C135.187 399.39 135.403 399.641 135.6 399.761L136.524 400.307C136.675 400.383 136.807 400.489 136.914 400.619C136.965 400.685 136.995 400.765 137 400.848C137.006 400.932 136.986 401.015 136.944 401.087C136.842 401.225 136.674 401.219 136.494 401.129C136.356 401.291 136.626 401.363 136.77 401.531C136.914 401.699 137.01 402.005 136.824 402.131C136.638 402.257 136.44 402.071 136.32 401.975C136.17 402.215 136.92 402.358 136.584 402.826C136.584 402.928 136.428 402.946 136.332 402.916C136.236 402.886 136.134 402.826 136.038 402.856C135.942 402.886 135.888 403.024 136.038 403.102C136.088 403.124 136.131 403.158 136.165 403.2C136.198 403.243 136.221 403.293 136.23 403.347C136.24 403.4 136.236 403.455 136.219 403.506C136.203 403.558 136.173 403.604 136.134 403.642C135.942 403.852 135.678 403.744 135.409 403.642C135.001 403.435 134.617 403.186 134.263 402.898C133.342 402.271 132.371 401.719 131.36 401.249C130.247 400.576 129.199 399.801 128.229 398.934C127.467 398.082 128.331 397.854 128.541 397.47C128.829 396.96 132.74 398.586 132.818 398.514C133.381 397.974 134.437 398.334 135.103 398.478Z" fill="#E49C9A"/>
<path d="M120.99 362.166C120.822 362.166 120.546 362.766 120.24 363.659C119.599 362.774 119.058 361.821 118.627 360.816L120.99 362.166Z" fill="#D38D8D"/>
<path d="M117.175 370.559L120.534 387.053L133.129 397.099L129.609 403.696C129.609 403.696 113.037 393.644 112.737 391.329C112.437 389.014 111.016 377.234 111.016 377.234" fill="#515AB4"/>
<path opacity="0.1" d="M478.231 186.173L394.238 234.983L280.441 169.158L364.435 120.348L478.231 186.173Z" fill="black"/>
<path d="M473.468 149.922L473.258 183.767L394.009 229.824L394.219 195.979L473.468 149.922Z" fill="#6C78F0"/>
<path d="M394.219 195.981L394.135 184.987L394.093 199.58L394.009 229.826L357.999 208.906L346.519 202.291L303.431 177.406L289.528 169.381L284.981 166.76L285.107 164.211L285.143 150.907L285.197 132.914L394.219 195.981Z" fill="#8C99F9"/>
<path d="M473.468 149.922L394.219 195.979L285.197 132.913L364.446 86.8555L473.468 149.922Z" fill="#7887F4"/>
<path d="M317.724 151.692L394.753 104.352L405.411 110.505L329.101 158.26" fill="white"/>
<path d="M440.798 168.911L331.782 105.832L321.124 111.986L429.42 175.478" fill="white"/>
<path d="M327.788 191.481L317.028 185.267L317.724 151.691L329.101 158.259L327.788 191.481Z" fill="#F5FAFE"/>
<path d="M440.816 202.624L436.438 205.173L431.31 208.148L429.786 209.041L429.42 175.52V175.478L440.798 168.91L440.816 202.624Z" fill="#F5FAFE"/>
<path d="M134.185 213.684L191.962 247.26L313.267 177.068L255.49 143.492L134.185 213.684Z" fill="#AA577B"/>
<path d="M134.185 213.684L134.341 261.456L192.118 295.032L191.962 247.259L134.185 213.684Z" fill="#DA5C47"/>
<path d="M191.962 247.259L192.118 295.031L313.429 224.839L313.267 177.066L191.962 247.259Z" fill="#DB6B5D"/>
<path d="M134.185 221.301V223.874L192.004 257.396L192.016 254.619L134.185 221.301Z" fill="#A34535"/>
<path d="M313.429 184.352V186.925L191.992 257.399L191.98 254.622L313.429 184.352Z" fill="#A45046"/>
<path d="M130.623 204.861L190.864 239.877L316.824 166.997L256.582 131.988L130.623 204.861Z" fill="#E56453"/>
<path d="M130.623 204.863L130.785 220.158L191.032 255.167L190.864 239.878L130.623 204.863Z" fill="#DA5C47"/>
<path d="M190.864 239.875L191.032 255.164L316.992 182.29L316.824 166.996L190.864 239.875Z" fill="#DB6B5D"/>
<path d="M163.101 255.684L163.161 271.866L188.447 286.47L188.381 270.282L163.101 255.684Z" fill="#F1F1F1"/>
<path d="M159.238 188.344L158.908 221.302L169.374 227.383L169.788 182.25L159.238 188.344Z" fill="#E17D6C"/>
<path d="M185.022 275.799V277.334L170.808 269.129L170.814 267.594L185.022 275.799Z" fill="black"/>
<path d="M185.016 279.211L185.01 280.734L170.795 272.529L170.801 271L185.016 279.211Z" fill="black"/>
<path d="M185.034 272.396L185.028 273.926L170.819 265.715V264.191L185.034 272.396Z" fill="black"/>
<path d="M198.29 139.925L200.233 139.721L202.614 139.464L203.574 131.978L200.647 131.648L198.679 138.552L198.29 139.925Z" fill="white"/>
<path d="M231.865 135.311C231.865 135.311 235.464 163.987 234.528 169.499C233.593 175.011 220.409 179.383 216.955 180.954C213.5 182.526 204.713 187.228 200.761 191.624C196.808 196.021 167.659 208.256 156.977 194.132C156.977 194.132 153.426 183.593 168.433 179.971C168.433 179.971 179.63 172.03 193.281 156.184C193.281 156.184 203.831 128.216 219.192 128.09C220.229 128.109 221.259 128.275 222.251 128.582C224.812 129.373 230.09 131.287 231.865 135.311Z" fill="#F2F2F2"/>
<path d="M168.475 174.04H168.595H168.709H168.804H168.864C169.008 174.04 169.194 174.094 169.416 174.141H169.506H169.602H169.704C170.01 174.213 170.37 174.303 170.772 174.417L170.904 174.453H170.958L171.108 174.501L171.306 174.561L171.785 174.723L172.043 174.813C172.643 175.017 173.243 175.275 173.933 175.587L174.113 175.671L174.394 175.809L174.574 175.899C174.76 175.989 174.94 176.085 175.126 176.187C175.19 176.217 175.252 176.251 175.312 176.289L175.504 176.391L175.696 176.499C175.948 176.643 176.206 176.799 176.464 176.96L176.854 177.206L177.453 177.59C177.795 177.824 178.137 178.076 178.485 178.34C178.605 178.428 178.725 178.524 178.845 178.628L179.103 178.832L179.463 179.132L179.684 179.33L179.888 179.504L180.086 179.689L180.29 179.875C180.518 180.085 180.746 180.301 180.968 180.529C181.082 180.637 181.19 180.751 181.298 180.865L181.496 181.075L181.694 181.291L181.898 181.507L182.096 181.729L182.294 181.957L182.485 182.191L182.881 182.664C182.947 182.748 183.013 182.826 183.073 182.91C183.133 182.994 183.205 183.072 183.265 183.162L183.463 183.414C183.655 183.666 183.847 183.93 184.033 184.2C184.219 184.47 184.405 184.746 184.591 185.033C184.711 185.219 184.837 185.411 184.957 185.633C185.523 186.554 186.041 187.503 186.51 188.476L186.54 188.536C186.75 188.968 186.954 189.418 187.14 189.88C187.194 190 187.248 190.12 187.296 190.24C187.344 190.36 187.398 190.485 187.446 190.611C187.548 190.857 187.65 191.109 187.746 191.361L187.889 191.751C187.889 191.799 187.925 191.853 187.949 191.907C187.973 191.961 188.027 192.123 188.069 192.237C188.171 192.531 188.273 192.837 188.369 193.137C194.487 191.097 199.357 188.416 200.803 186.797C204.725 182.406 213.518 177.698 216.997 176.127C220.475 174.555 233.623 170.165 234.564 164.671C234.564 164.539 234.612 164.395 234.63 164.233C234.697 163.533 234.727 162.831 234.72 162.128C234.762 154.835 232.921 137.855 232.177 131.629C232.033 130.378 231.625 129.172 230.978 128.091C230.332 127.011 229.463 126.08 228.429 125.361C227.115 124.486 225.706 123.761 224.23 123.202L223.798 123.04L223.678 122.992C220.505 122.003 217.095 122.077 213.968 123.202C210.057 124.87 206.573 128.15 203.628 131.875C201.941 134.029 200.4 136.293 199.015 138.653C198.781 139.048 198.56 139.432 198.338 139.822C198.242 140.122 198.14 140.422 198.032 140.722C197.9 141.1 197.768 141.484 197.624 141.861C197.354 142.605 197.072 143.349 196.766 144.075C196.346 145.094 195.903 146.072 195.435 146.972C195.093 147.65 194.711 148.307 194.289 148.939C194.012 149.359 193.708 149.759 193.377 150.138C193.149 150.408 192.922 150.666 192.694 150.93C192.052 151.662 191.422 152.382 190.792 153.083C189.373 154.715 188.003 156.21 186.684 157.57C186.15 158.133 185.616 158.685 185.094 159.219C184.375 159.951 183.673 160.656 182.989 161.336C181.598 162.722 180.266 163.987 179.025 165.139L178.899 165.259C178.335 165.787 177.789 166.284 177.267 166.758L177.141 166.872C176.638 167.328 176.152 167.76 175.678 168.168C174.718 169.013 173.831 169.769 173.039 170.435C170.154 172.846 168.475 174.04 168.475 174.04Z" fill="white"/>
<path d="M156.916 188.482C156.92 188.794 156.954 189.106 157.018 189.411C163.76 198.336 177.879 196.735 188.357 193.244C188.261 192.938 188.159 192.644 188.057 192.344C187.997 192.176 187.937 192.014 187.877 191.858C181.771 175.305 168.474 174.039 168.474 174.039C158.752 179.011 157.078 184.799 156.922 187.642C156.906 187.922 156.904 188.202 156.916 188.482Z" fill="white"/>
<path d="M156.916 188.481C160.041 192.457 164.876 194.634 171.311 194.952C171.855 194.976 172.401 194.988 172.949 194.988C178.604 194.988 184.152 193.615 188.087 192.343L188.585 192.175C194.996 190.04 199.789 187.317 201.18 185.728C205.253 181.163 214.453 176.371 217.374 175.052C217.866 174.83 218.574 174.542 219.39 174.212C224.068 172.311 232.285 168.976 234.612 164.34C234.678 163.64 234.708 162.937 234.702 162.234C234.699 162.252 234.699 162.27 234.702 162.288C234.156 167.686 224.062 171.759 219.21 173.726C218.382 174.062 217.668 174.326 217.17 174.578C214.243 175.909 204.953 180.75 200.82 185.374C199.447 186.909 194.745 189.572 188.423 191.678L187.907 191.851C183.637 193.225 177.465 194.724 171.335 194.425C164.965 194.113 160.197 191.917 157.168 187.917L156.952 187.635C156.925 187.916 156.913 188.198 156.916 188.481Z" fill="#4A2F2B"/>
<path d="M216.799 149.034C216.367 149.036 215.944 148.908 215.584 148.669C215.224 148.43 214.943 148.09 214.777 147.691C214.611 147.292 214.567 146.853 214.651 146.429C214.734 146.005 214.942 145.615 215.247 145.31C215.552 145.004 215.941 144.795 216.364 144.71C216.788 144.626 217.227 144.669 217.627 144.834C218.026 144.999 218.367 145.278 218.607 145.638C218.848 145.997 218.976 146.419 218.976 146.851C218.976 147.429 218.747 147.984 218.338 148.393C217.93 148.802 217.377 149.033 216.799 149.034ZM216.799 145.694C216.568 145.694 216.343 145.762 216.152 145.89C215.96 146.018 215.811 146.2 215.723 146.413C215.635 146.626 215.612 146.861 215.658 147.086C215.703 147.312 215.815 147.52 215.978 147.682C216.141 147.845 216.349 147.955 216.575 147.999C216.801 148.043 217.036 148.019 217.248 147.93C217.461 147.841 217.642 147.691 217.769 147.499C217.896 147.307 217.963 147.082 217.962 146.851C217.961 146.544 217.837 146.249 217.619 146.032C217.401 145.815 217.106 145.694 216.799 145.694Z" fill="#B3B3B3"/>
<path d="M212.337 158.53C211.904 158.53 211.482 158.402 211.123 158.162C210.764 157.922 210.484 157.581 210.319 157.181C210.154 156.782 210.111 156.343 210.196 155.919C210.28 155.495 210.489 155.106 210.795 154.801C211.101 154.496 211.49 154.289 211.914 154.205C212.338 154.122 212.777 154.166 213.176 154.332C213.575 154.498 213.915 154.779 214.155 155.139C214.394 155.499 214.521 155.921 214.52 156.353C214.518 156.931 214.287 157.485 213.878 157.893C213.469 158.301 212.914 158.53 212.337 158.53ZM212.337 155.19C212.106 155.19 211.881 155.258 211.69 155.386C211.499 155.514 211.35 155.695 211.262 155.908C211.173 156.121 211.15 156.355 211.195 156.58C211.24 156.806 211.351 157.013 211.514 157.176C211.676 157.339 211.884 157.45 212.11 157.494C212.335 157.539 212.569 157.516 212.782 157.428C212.994 157.34 213.176 157.191 213.304 157C213.432 156.808 213.5 156.583 213.5 156.353C213.495 156.048 213.371 155.756 213.153 155.542C212.935 155.328 212.642 155.208 212.337 155.208V155.19Z" fill="#B3B3B3"/>
<path d="M204.677 167.183C204.245 167.183 203.822 167.055 203.463 166.814C203.104 166.574 202.824 166.233 202.659 165.834C202.494 165.434 202.451 164.995 202.536 164.571C202.621 164.148 202.829 163.759 203.135 163.454C203.441 163.149 203.831 162.941 204.255 162.858C204.679 162.774 205.118 162.818 205.516 162.984C205.915 163.15 206.256 163.431 206.495 163.791C206.734 164.151 206.861 164.574 206.86 165.006C206.858 165.584 206.628 166.137 206.218 166.545C205.809 166.954 205.255 167.183 204.677 167.183ZM204.677 163.842C204.448 163.849 204.227 163.923 204.041 164.055C203.854 164.187 203.71 164.372 203.628 164.585C203.545 164.798 203.527 165.031 203.576 165.254C203.625 165.477 203.739 165.681 203.903 165.84C204.067 165.999 204.274 166.107 204.499 166.149C204.723 166.191 204.956 166.166 205.166 166.077C205.377 165.988 205.556 165.839 205.683 165.648C205.809 165.458 205.876 165.234 205.876 165.006C205.876 164.85 205.845 164.695 205.785 164.552C205.724 164.408 205.635 164.278 205.523 164.17C205.411 164.061 205.279 163.976 205.133 163.92C204.988 163.864 204.833 163.837 204.677 163.842Z" fill="#B3B3B3"/>
<path d="M196.61 174.82C196.178 174.82 195.756 174.691 195.397 174.452C195.038 174.212 194.758 173.871 194.593 173.472C194.428 173.073 194.384 172.634 194.469 172.21C194.553 171.787 194.761 171.398 195.066 171.093C195.372 170.787 195.761 170.579 196.184 170.495C196.608 170.411 197.047 170.454 197.445 170.619C197.844 170.785 198.185 171.064 198.425 171.423C198.665 171.782 198.793 172.205 198.793 172.636C198.793 173.215 198.563 173.771 198.154 174.18C197.744 174.59 197.189 174.82 196.61 174.82ZM196.61 171.473C196.38 171.473 196.155 171.541 195.964 171.669C195.772 171.797 195.623 171.978 195.535 172.191C195.447 172.404 195.424 172.638 195.469 172.863C195.514 173.089 195.624 173.296 195.787 173.459C195.95 173.622 196.157 173.733 196.383 173.778C196.609 173.822 196.843 173.799 197.055 173.711C197.268 173.623 197.45 173.474 197.577 173.283C197.705 173.091 197.774 172.866 197.774 172.636C197.774 172.484 197.743 172.332 197.685 172.191C197.627 172.05 197.541 171.922 197.433 171.814C197.325 171.706 197.196 171.62 197.055 171.561C196.914 171.503 196.763 171.473 196.61 171.473Z" fill="#B3B3B3"/>
<path d="M188.417 181.921C187.985 181.922 187.562 181.795 187.203 181.556C186.843 181.317 186.562 180.976 186.396 180.578C186.23 180.179 186.186 179.74 186.269 179.316C186.353 178.892 186.56 178.502 186.865 178.196C187.17 177.89 187.559 177.682 187.983 177.597C188.407 177.512 188.846 177.555 189.245 177.72C189.645 177.885 189.986 178.165 190.226 178.524C190.466 178.884 190.594 179.306 190.594 179.738C190.594 180.316 190.365 180.87 189.957 181.28C189.549 181.689 188.995 181.919 188.417 181.921ZM188.417 178.574C188.187 178.574 187.962 178.643 187.771 178.77C187.579 178.898 187.43 179.08 187.342 179.293C187.254 179.505 187.231 179.739 187.276 179.965C187.321 180.191 187.432 180.398 187.594 180.561C187.757 180.723 187.965 180.834 188.19 180.879C188.416 180.924 188.65 180.901 188.862 180.813C189.075 180.725 189.257 180.576 189.385 180.384C189.513 180.193 189.581 179.968 189.581 179.738C189.576 179.432 189.451 179.141 189.234 178.927C189.016 178.712 188.723 178.592 188.417 178.592V178.574Z" fill="#B3B3B3"/>
<path d="M216.799 122.59C216.799 122.59 204.803 123.789 200.646 131.653V132.576L204.641 133.332L216.799 122.59Z" fill="white"/>
<path d="M201.342 131.826C201.342 131.826 209.505 131.118 212.408 140.223C212.408 140.223 212.798 143.287 214.837 140.93C216.877 138.573 220.721 139.203 222.449 138.183C224.176 137.164 230.372 133.715 228.884 128.695C227.397 123.675 218.358 122.973 214.525 124.065C210.693 125.156 204.407 127.429 201.342 131.826Z" fill="#999999"/>
<path d="M213.434 141.812C211.97 143.557 210.843 145.558 210.111 147.714L209.847 148.512L209.619 149.328C209.453 149.899 209.232 150.454 208.959 150.983C208.437 152.011 207.863 153.012 207.238 153.982C204.744 157.841 202.02 161.546 199.081 165.078C196.17 168.63 193.062 172.016 189.772 175.22C188.128 176.827 186.398 178.345 184.59 179.767C182.81 181.228 180.828 182.426 178.707 183.323C180.706 182.229 182.557 180.883 184.213 179.317C185.916 177.811 187.529 176.198 189.113 174.56C192.256 171.268 195.26 167.837 198.157 164.316C199.615 162.565 201.03 160.778 202.422 158.972C203.813 157.167 205.169 155.338 206.458 153.472C207.1 152.537 207.712 151.577 208.258 150.605C208.536 150.132 208.771 149.634 208.959 149.118C209.139 148.566 209.337 148.02 209.559 147.48C210.021 146.417 210.577 145.398 211.221 144.434C211.849 143.473 212.592 142.593 213.434 141.812Z" fill="#F2F2F2"/>
<path d="M168.475 174.039C168.475 174.039 182.503 175.377 188.363 193.232" stroke="#F2F2F2" stroke-width="2" stroke-miterlimit="10"/>
<path d="M177.117 166.926C177.945 167.346 178.746 167.817 179.516 168.335C180.371 168.914 181.174 169.567 181.915 170.285L182.347 170.722C184.746 173.266 186.036 176.552 187.283 179.767C187.805 181.105 189.988 180.523 189.461 179.167C188.351 176.294 187.193 173.392 185.4 170.896C184.835 170.108 184.203 169.369 183.511 168.689L183.325 168.509C181.981 167.257 180.481 166.182 178.863 165.312C178.299 165.84 177.753 166.338 177.231 166.812L177.117 166.926Z" fill="#E6E6E6"/>
<path d="M185.01 159.214L185.07 159.244C186.419 159.954 187.683 160.815 188.837 161.811C189.053 162.003 189.263 162.195 189.473 162.411C191.626 164.51 192.945 167.209 194.073 169.944C194.337 170.592 194.589 171.239 194.841 171.887C195.356 173.207 197.468 172.667 197.048 171.359C197.05 171.335 197.05 171.311 197.048 171.287C195.848 168.12 194.535 164.906 192.406 162.261C192 161.752 191.563 161.269 191.098 160.815C190.684 160.413 190.258 160.029 189.814 159.676C188.833 158.885 187.786 158.181 186.684 157.57C186.15 158.134 185.616 158.686 185.094 159.22L185.01 159.214Z" fill="#E6E6E6"/>
<path d="M173.015 170.461C176.098 170.371 179.204 170.539 182.245 170.677H182.701C183.721 170.725 184.74 170.779 185.76 170.851C187.049 170.941 188.333 171.061 189.611 171.235C191.849 171.45 194.012 172.159 195.944 173.31C197.144 174.102 198.307 172.146 197.09 171.361C197.074 171.354 197.059 171.344 197.048 171.331C196.107 170.744 195.1 170.269 194.049 169.915C190.78 168.77 187.079 168.62 183.661 168.464L182.563 168.416L179.846 168.29C178.443 168.23 177.039 168.188 175.648 168.176C174.688 169.039 173.806 169.795 173.015 170.461Z" fill="#F2F2F2"/>
<path d="M194.235 149.045C195.098 149.731 195.877 150.516 196.556 151.384C196.706 151.576 196.856 151.768 197 151.984C197.438 152.584 197.864 153.22 198.271 153.855C199.913 156.4 201.278 159.112 202.344 161.946C202.65 162.756 202.944 163.578 203.196 164.405C203.627 165.791 205.805 165.197 205.373 163.806L205.283 163.53C204.26 160.291 202.882 157.175 201.174 154.239C200.678 153.396 200.155 152.572 199.603 151.768C199.279 151.288 198.937 150.82 198.589 150.353C197.676 149.122 196.596 148.024 195.38 147.09C195.038 147.764 194.656 148.417 194.235 149.045Z" fill="#E6E6E6"/>
<path d="M197.978 140.832C199.597 142.031 201.768 143.801 202.326 144.322C202.506 144.49 202.686 144.658 202.86 144.838C203.388 145.372 203.903 145.93 204.401 146.494C206.407 148.761 208.168 151.234 209.655 153.871C210.081 154.627 210.489 155.394 210.855 156.174C211.497 157.482 213.56 156.564 212.918 155.256C212.876 155.166 212.834 155.076 212.786 154.993C211.286 151.945 209.451 149.075 207.316 146.434C206.7 145.678 206.059 144.942 205.391 144.226C204.991 143.827 204.591 143.413 204.191 142.985C203.591 142.385 201.858 140.97 200.239 139.722C199.807 139.386 199.375 139.062 198.973 138.763L198.691 138.559L198.295 139.932C198.191 140.232 198.085 140.532 197.978 140.832Z" fill="#E6E6E6"/>
<path d="M182.965 161.362C184.926 161.44 186.881 161.596 188.837 161.812C189.436 161.872 190.036 161.944 190.606 162.016C191.176 162.088 191.806 162.166 192.405 162.25C194.205 162.496 196.064 162.772 197.875 163.12C199.849 163.498 202.152 163.869 203.771 165.159C204.899 166.053 206.5 164.463 205.367 163.564L205.313 163.522C204.424 162.839 203.432 162.305 202.374 161.938C201.316 161.573 200.234 161.284 199.135 161.074C196.664 160.565 194.151 160.223 191.656 159.875C191.056 159.791 190.456 159.713 189.814 159.647C188.255 159.459 186.691 159.311 185.124 159.203H185.04L185.1 159.233C184.36 159.965 183.649 160.675 182.965 161.362Z" fill="#F2F2F2"/>
<path d="M190.738 153.19C193.251 153.292 195.752 153.526 198.248 153.838C199.213 153.958 200.185 154.084 201.15 154.222C202.596 154.426 204.035 154.66 205.463 154.936C207.436 155.314 209.739 155.686 211.359 156.969C212.486 157.869 214.088 156.279 212.954 155.374C211.155 153.934 208.954 153.346 206.722 152.885C204.365 152.399 201.966 152.069 199.579 151.751L199.237 151.709C198.337 151.589 197.438 151.475 196.532 151.379C195.225 151.235 193.923 151.115 192.616 151.031C191.998 151.769 191.368 152.489 190.738 153.19Z" fill="#F2F2F2"/>
<path d="M196.712 144.182C199.159 144.314 201.594 144.452 204.029 144.692C206.042 144.88 208.044 145.17 210.027 145.561C211.946 145.945 213.98 146.347 215.701 147.319C216.972 148.039 218.1 146.083 216.841 145.369C214.936 144.41 212.895 143.751 210.789 143.414C208.767 143 206.716 142.712 204.671 142.503C202.272 142.251 199.933 142.101 197.558 141.969C197.3 142.712 197.018 143.456 196.712 144.182Z" fill="#F2F2F2"/>
<path d="M229.112 157.089L231.056 156.886L233.437 156.628L234.396 149.142L231.469 148.812L229.502 155.716L229.112 157.089Z" fill="white"/>
<path d="M262.688 152.479C262.688 152.479 266.287 181.155 265.351 186.667C264.415 192.179 251.232 196.551 247.777 198.122C244.323 199.694 235.536 204.396 231.583 208.792C227.631 213.189 198.482 225.424 187.799 211.3C187.799 211.3 184.249 200.761 199.255 197.139C199.255 197.139 210.453 189.198 224.104 173.351C224.104 173.351 234.654 145.384 250.015 145.258C251.052 145.277 252.082 145.443 253.073 145.75C255.658 146.535 260.913 148.455 262.688 152.479Z" fill="#F2F2F2"/>
<path d="M199.279 191.206H199.399H199.513H199.609H199.669C199.813 191.206 199.999 191.26 200.221 191.308H200.311H200.407H200.509C200.815 191.38 201.175 191.47 201.576 191.584L201.708 191.626H201.762L201.912 191.674L202.11 191.734L202.59 191.896L202.848 191.986C203.448 192.196 204.048 192.448 204.737 192.76L204.917 192.844L205.199 192.982L205.379 193.071L205.931 193.359C205.995 193.39 206.057 193.424 206.117 193.461L206.309 193.563L206.501 193.671C206.753 193.815 207.01 193.971 207.268 194.133L207.658 194.379L208.258 194.763C208.6 194.997 208.942 195.249 209.284 195.513C209.41 195.609 209.53 195.699 209.649 195.8L209.907 196.004L210.267 196.304L210.489 196.502L210.693 196.676L210.891 196.862L211.095 197.048C211.323 197.258 211.551 197.474 211.773 197.702L212.103 198.038L212.301 198.248L212.498 198.463L212.702 198.679L212.9 198.901L213.098 199.129L213.29 199.363L213.686 199.837C213.752 199.921 213.818 199.999 213.878 200.083C213.938 200.167 214.01 200.245 214.07 200.335L214.268 200.587C214.46 200.839 214.652 201.103 214.838 201.372C215.024 201.642 215.209 201.924 215.395 202.206C215.515 202.392 215.641 202.584 215.761 202.806C216.327 203.726 216.846 204.675 217.315 205.649L217.345 205.709C217.555 206.141 217.758 206.591 217.944 207.052C217.998 207.172 218.052 207.292 218.1 207.412C218.148 207.532 218.202 207.658 218.25 207.784C218.352 208.03 218.454 208.282 218.55 208.534L218.694 208.924L218.748 209.08C218.79 209.188 218.832 209.296 218.868 209.409C218.976 209.705 219.078 210.005 219.174 210.309C225.292 208.27 230.162 205.589 231.607 203.969C235.53 199.579 244.323 194.871 247.801 193.299C251.28 191.728 264.427 187.338 265.369 181.844C265.369 181.712 265.417 181.568 265.435 181.406C265.501 180.706 265.531 180.003 265.525 179.301C265.567 172.007 263.726 155.027 262.982 148.802C262.837 147.551 262.428 146.345 261.782 145.265C261.136 144.184 260.267 143.253 259.233 142.534C257.921 141.658 256.512 140.935 255.035 140.381L254.603 140.219L254.483 140.177C251.311 139.181 247.899 139.255 244.773 140.387C240.862 142.048 237.377 145.329 234.432 149.054C232.744 151.208 231.203 153.475 229.82 155.837C229.586 156.227 229.364 156.617 229.142 157.001C229.046 157.301 228.944 157.601 228.836 157.9C228.704 158.278 228.573 158.662 228.429 159.04C228.159 159.784 227.871 160.527 227.571 161.253C227.151 162.273 226.707 163.25 226.239 164.15C225.898 164.829 225.515 165.486 225.094 166.117C224.819 166.538 224.514 166.939 224.182 167.317L223.498 168.109C222.857 168.84 222.227 169.56 221.597 170.262C220.214 171.805 218.862 173.265 217.543 174.64C217.009 175.204 216.475 175.756 215.953 176.29C215.239 177.027 214.538 177.729 213.854 178.407C212.462 179.792 211.131 181.058 209.889 182.209L209.763 182.329C209.2 182.857 208.654 183.355 208.132 183.829L208.006 183.943C207.502 184.399 207.016 184.831 206.543 185.238C205.583 186.084 204.695 186.84 203.904 187.506C200.977 190.013 199.279 191.206 199.279 191.206Z" fill="white"/>
<path d="M187.739 205.65C187.743 205.964 187.777 206.277 187.841 206.585C194.583 215.504 208.701 213.909 219.18 210.412C219.084 210.108 218.982 209.808 218.874 209.512C218.82 209.344 218.76 209.188 218.7 209.026C212.594 192.473 199.279 191.207 199.279 191.207C189.556 196.179 187.883 201.967 187.727 204.81C187.716 205.09 187.72 205.37 187.739 205.65Z" fill="white"/>
<path d="M187.739 205.649C190.864 209.625 195.698 211.802 202.134 212.12C202.682 212.144 203.228 212.156 203.771 212.156C208.911 212.047 214.003 211.155 218.874 209.511L219.378 209.343C225.789 207.208 230.582 204.485 231.973 202.896C236.046 198.331 245.246 193.539 248.167 192.22C248.659 191.998 249.367 191.716 250.182 191.38C254.861 189.479 263.078 186.144 265.405 181.508C265.471 180.808 265.501 180.105 265.495 179.402C265.492 179.42 265.492 179.438 265.495 179.456C264.949 184.824 254.855 188.927 250.002 190.894C249.175 191.23 248.461 191.494 247.963 191.746C245.036 193.077 235.746 197.918 231.613 202.542C230.24 204.077 225.537 206.74 219.216 208.846L218.7 209.019C214.43 210.399 208.258 211.892 202.128 211.592C195.758 211.281 190.99 209.091 187.961 205.085L187.745 204.803C187.728 205.085 187.726 205.367 187.739 205.649Z" fill="#4A2F2B"/>
<path d="M247.621 166.202C247.189 166.204 246.766 166.076 246.406 165.837C246.046 165.597 245.765 165.257 245.599 164.857C245.433 164.458 245.39 164.019 245.474 163.595C245.558 163.171 245.766 162.781 246.072 162.475C246.377 162.17 246.767 161.962 247.191 161.878C247.615 161.794 248.054 161.837 248.454 162.003C248.853 162.169 249.194 162.45 249.433 162.81C249.673 163.17 249.8 163.593 249.798 164.025C249.797 164.602 249.567 165.155 249.159 165.563C248.751 165.971 248.198 166.201 247.621 166.202ZM247.621 162.862C247.391 162.862 247.166 162.93 246.975 163.058C246.784 163.186 246.634 163.367 246.546 163.58C246.458 163.792 246.435 164.026 246.48 164.252C246.525 164.478 246.636 164.685 246.799 164.848C246.961 165.011 247.169 165.121 247.394 165.166C247.62 165.211 247.854 165.188 248.067 165.1C248.279 165.012 248.461 164.863 248.589 164.672C248.717 164.48 248.785 164.255 248.785 164.025C248.785 163.717 248.662 163.421 248.444 163.202C248.226 162.984 247.93 162.862 247.621 162.862Z" fill="#B3B3B3"/>
<path d="M243.159 175.714C242.727 175.714 242.305 175.586 241.946 175.347C241.588 175.107 241.308 174.766 241.142 174.368C240.977 173.969 240.933 173.53 241.017 173.107C241.101 172.684 241.308 172.295 241.613 171.989C241.918 171.684 242.306 171.475 242.729 171.39C243.152 171.305 243.591 171.348 243.99 171.512C244.389 171.676 244.73 171.955 244.971 172.314C245.212 172.672 245.341 173.093 245.342 173.525C245.343 173.812 245.287 174.097 245.178 174.362C245.068 174.628 244.907 174.869 244.705 175.072C244.502 175.276 244.261 175.437 243.996 175.547C243.73 175.657 243.446 175.714 243.159 175.714ZM243.159 172.373C242.928 172.373 242.703 172.442 242.511 172.57C242.319 172.699 242.17 172.881 242.083 173.094C241.995 173.308 241.973 173.542 242.018 173.768C242.064 173.994 242.176 174.202 242.34 174.364C242.504 174.526 242.713 174.636 242.939 174.68C243.166 174.723 243.4 174.698 243.612 174.608C243.825 174.518 244.006 174.367 244.132 174.175C244.259 173.982 244.325 173.755 244.322 173.525C244.319 173.218 244.195 172.925 243.977 172.71C243.759 172.494 243.465 172.373 243.159 172.373Z" fill="#B3B3B3"/>
<path d="M235.518 184.351C235.086 184.351 234.663 184.223 234.304 183.982C233.945 183.742 233.665 183.401 233.5 183.002C233.335 182.602 233.292 182.163 233.377 181.739C233.462 181.316 233.67 180.927 233.976 180.622C234.282 180.317 234.672 180.109 235.095 180.026C235.519 179.942 235.958 179.986 236.357 180.152C236.756 180.318 237.097 180.599 237.336 180.959C237.575 181.319 237.702 181.742 237.701 182.174C237.699 182.752 237.469 183.305 237.059 183.713C236.65 184.122 236.096 184.351 235.518 184.351ZM235.518 181.01C235.287 181.01 235.063 181.078 234.871 181.206C234.68 181.334 234.531 181.516 234.443 181.728C234.355 181.941 234.332 182.175 234.376 182.401C234.421 182.626 234.532 182.834 234.695 182.996C234.858 183.159 235.065 183.27 235.291 183.315C235.516 183.36 235.75 183.337 235.963 183.249C236.176 183.161 236.357 183.011 236.485 182.82C236.613 182.629 236.681 182.404 236.681 182.174C236.681 181.865 236.559 181.569 236.34 181.351C236.122 181.133 235.826 181.01 235.518 181.01Z" fill="#B3B3B3"/>
<path d="M227.433 191.984C227.001 191.984 226.579 191.856 226.22 191.616C225.861 191.376 225.581 191.035 225.416 190.636C225.25 190.237 225.207 189.798 225.291 189.374C225.376 188.951 225.584 188.562 225.889 188.257C226.194 187.951 226.583 187.743 227.007 187.659C227.43 187.575 227.869 187.618 228.268 187.783C228.667 187.949 229.008 188.228 229.248 188.587C229.488 188.946 229.616 189.369 229.616 189.8C229.616 190.379 229.386 190.935 228.976 191.344C228.567 191.754 228.012 191.984 227.433 191.984ZM227.433 188.637C227.203 188.637 226.978 188.705 226.786 188.833C226.595 188.961 226.446 189.142 226.358 189.355C226.27 189.568 226.247 189.802 226.292 190.027C226.336 190.253 226.447 190.46 226.61 190.623C226.773 190.786 226.98 190.897 227.206 190.942C227.431 190.986 227.665 190.963 227.878 190.875C228.091 190.787 228.272 190.638 228.4 190.447C228.528 190.255 228.596 190.031 228.596 189.8C228.596 189.492 228.474 189.196 228.255 188.978C228.037 188.759 227.741 188.637 227.433 188.637Z" fill="#B3B3B3"/>
<path d="M219.24 199.105C218.808 199.106 218.385 198.979 218.025 198.74C217.666 198.5 217.385 198.16 217.219 197.761C217.053 197.362 217.008 196.923 217.092 196.499C217.176 196.075 217.383 195.686 217.688 195.38C217.993 195.074 218.382 194.865 218.806 194.781C219.23 194.696 219.669 194.739 220.068 194.904C220.467 195.069 220.809 195.349 221.049 195.708C221.289 196.067 221.417 196.489 221.417 196.921C221.417 197.499 221.188 198.054 220.78 198.463C220.372 198.872 219.818 199.103 219.24 199.105ZM219.24 195.758C219.01 195.758 218.785 195.826 218.594 195.954C218.402 196.082 218.253 196.264 218.165 196.476C218.077 196.689 218.054 196.923 218.099 197.148C218.144 197.374 218.254 197.581 218.417 197.744C218.58 197.907 218.787 198.018 219.013 198.063C219.239 198.108 219.473 198.085 219.685 197.996C219.898 197.908 220.08 197.759 220.207 197.568C220.335 197.377 220.404 197.152 220.404 196.921C220.404 196.613 220.281 196.317 220.063 196.099C219.845 195.88 219.549 195.758 219.24 195.758Z" fill="#B3B3B3"/>
<path d="M247.621 139.758C247.621 139.758 235.626 140.957 231.469 148.82V149.744L235.458 150.5L247.621 139.758Z" fill="white"/>
<path d="M232.165 148.994C232.165 148.994 240.328 148.286 243.231 157.391C243.231 157.391 243.621 160.455 245.66 158.098C247.699 155.741 251.544 156.371 253.271 155.351C254.999 154.332 261.194 150.883 259.707 145.863C258.219 140.843 249.181 140.141 245.348 141.232C241.516 142.324 235.23 144.597 232.165 148.994Z" fill="#999999"/>
<path d="M244.262 158.984C242.797 160.726 241.671 162.725 240.94 164.88L240.676 165.684L240.448 166.494C240.281 167.065 240.06 167.619 239.788 168.149C239.266 169.177 238.691 170.178 238.067 171.148C235.572 175.007 232.848 178.712 229.91 182.244C226.998 185.796 223.891 189.182 220.601 192.386C218.956 193.993 217.226 195.511 215.419 196.932C213.639 198.396 211.657 199.596 209.535 200.495C211.534 199.397 213.384 198.049 215.041 196.483C216.745 194.977 218.358 193.364 219.941 191.726C223.084 188.434 226.089 185.003 228.986 181.482C230.443 179.731 231.859 177.943 233.25 176.138C234.642 174.333 235.997 172.503 237.287 170.638C237.929 169.702 238.54 168.743 239.086 167.771C239.365 167.298 239.6 166.8 239.788 166.284C239.968 165.732 240.166 165.186 240.388 164.646C240.851 163.584 241.407 162.564 242.049 161.599C242.676 160.64 243.42 159.761 244.262 158.984Z" fill="#F2F2F2"/>
<path d="M199.279 191.207C199.279 191.207 213.308 192.545 219.168 210.4" stroke="#F2F2F2" stroke-width="2" stroke-miterlimit="10"/>
<path d="M262.309 175.188C263.404 171.378 261.73 167.552 258.568 166.643C255.407 165.734 251.956 168.086 250.861 171.897C249.765 175.708 251.44 179.534 254.601 180.443C257.762 181.351 261.213 178.999 262.309 175.188Z" fill="#E6E6E6"/>
<path d="M256.396 168.938L255.292 172.116L252.503 173.568L254.657 174.959L254.345 178.126L256.78 175.811L259.371 176.321L258.723 173.496L260.636 170.641L257.805 171.217L256.396 168.938Z" fill="#404A6F"/>
<path d="M207.94 184.063C208.768 184.483 209.569 184.953 210.339 185.472C211.194 186.051 211.997 186.703 212.738 187.421C212.882 187.565 213.026 187.709 213.164 187.859C215.563 190.402 216.859 193.689 218.106 196.904C218.628 198.241 220.811 197.66 220.283 196.304C219.174 193.431 218.016 190.528 216.223 188.033C215.658 187.244 215.026 186.506 214.334 185.826L214.148 185.646C212.802 184.395 211.302 183.321 209.685 182.449C209.121 182.977 208.576 183.475 208.054 183.949L207.94 184.063Z" fill="#E6E6E6"/>
<path d="M215.833 176.377L215.887 176.407C217.238 177.115 218.502 177.976 219.654 178.975C219.876 179.166 220.085 179.358 220.295 179.574C222.449 181.674 223.768 184.373 224.896 187.108C225.16 187.755 225.412 188.403 225.663 189.051C226.179 190.37 228.284 189.831 227.871 188.523C227.873 188.499 227.873 188.475 227.871 188.451C226.671 185.284 225.358 182.075 223.228 179.424C222.823 178.916 222.386 178.433 221.921 177.979C221.507 177.577 221.081 177.199 220.637 176.839C219.665 176.055 218.628 175.354 217.536 174.746C217.003 175.31 216.469 175.862 215.947 176.395L215.833 176.377Z" fill="#E6E6E6"/>
<path d="M203.837 187.625C206.92 187.535 210.027 187.703 213.068 187.841H213.524C214.543 187.889 215.563 187.943 216.583 188.015C217.872 188.105 219.156 188.225 220.433 188.399C222.672 188.614 224.835 189.323 226.767 190.474C227.967 191.266 229.13 189.31 227.913 188.525C227.896 188.518 227.882 188.508 227.871 188.495C226.93 187.908 225.923 187.433 224.872 187.079C221.603 185.934 217.902 185.784 214.483 185.628L213.386 185.58L210.669 185.454C209.265 185.394 207.862 185.352 206.47 185.34C205.517 186.204 204.629 186.959 203.837 187.625Z" fill="#F2F2F2"/>
<path d="M225.069 166.211C225.932 166.896 226.709 167.681 227.384 168.55C227.54 168.742 227.69 168.934 227.834 169.15C228.272 169.75 228.698 170.386 229.106 171.021C230.747 173.566 232.112 176.278 233.178 179.113C233.484 179.922 233.778 180.744 234.03 181.572C234.462 182.963 236.639 182.363 236.207 180.972L236.117 180.69C235.095 177.451 233.717 174.335 232.009 171.399C231.513 170.556 230.989 169.732 230.437 168.928C230.107 168.448 229.772 167.981 229.424 167.519C228.512 166.285 227.432 165.184 226.215 164.25C225.873 164.926 225.491 165.581 225.069 166.211Z" fill="#E6E6E6"/>
<path d="M228.8 157.996C230.42 159.195 232.591 160.965 233.149 161.487C233.329 161.654 233.509 161.828 233.676 162.002C234.208 162.542 234.724 163.094 235.224 163.658C237.23 165.925 238.991 168.398 240.478 171.035C240.904 171.791 241.312 172.558 241.678 173.338C242.319 174.646 244.383 173.728 243.741 172.421C243.699 172.331 243.657 172.241 243.609 172.157C242.109 169.108 240.272 166.237 238.133 163.598C237.521 162.842 236.881 162.106 236.214 161.391C235.814 160.991 235.414 160.577 235.014 160.149C234.414 159.549 232.681 158.134 231.061 156.886C230.63 156.55 230.198 156.226 229.796 155.933L229.514 155.723L229.118 157.096C229.014 157.396 228.908 157.696 228.8 157.996Z" fill="#E6E6E6"/>
<path d="M213.788 178.526C215.749 178.604 217.704 178.76 219.653 178.976C220.253 179.036 220.853 179.108 221.453 179.18C222.053 179.252 222.652 179.33 223.252 179.414C225.051 179.66 226.911 179.936 228.722 180.284C230.695 180.662 232.999 181.033 234.618 182.323C235.74 183.217 237.347 181.627 236.213 180.728L236.159 180.686C235.271 180.003 234.279 179.469 233.22 179.102C232.163 178.737 231.081 178.449 229.982 178.239C227.511 177.729 224.997 177.387 222.496 177.039C221.897 176.955 221.297 176.877 220.661 176.811C219.102 176.623 217.538 176.475 215.971 176.367H215.887L215.941 176.397C215.173 177.123 214.471 177.849 213.788 178.526Z" fill="#F2F2F2"/>
<path d="M221.561 170.358C224.068 170.46 226.575 170.694 229.07 171.006C230.036 171.126 231.008 171.252 231.973 171.39C233.419 171.594 234.858 171.828 236.286 172.104C238.259 172.482 240.562 172.854 242.181 174.143C243.303 175.037 244.91 173.447 243.777 172.542C241.978 171.102 239.776 170.514 237.545 170.059C235.188 169.567 232.789 169.237 230.402 168.919L230.06 168.877C229.16 168.757 228.261 168.643 227.349 168.547C226.047 168.403 224.746 168.283 223.438 168.199C222.821 168.937 222.191 169.657 221.561 170.358Z" fill="#F2F2F2"/>
<path d="M227.535 161.35C229.976 161.482 232.417 161.62 234.852 161.86C236.865 162.048 238.867 162.338 240.85 162.729C242.769 163.113 244.802 163.521 246.524 164.487C247.795 165.206 248.923 163.251 247.663 162.537C245.759 161.578 243.717 160.919 241.611 160.582C239.59 160.168 237.539 159.886 235.494 159.671C233.125 159.419 230.755 159.269 228.38 159.137C228.122 159.88 227.835 160.624 227.535 161.35Z" fill="#F2F2F2"/>
<path opacity="0.1" d="M440.798 136.429L374.853 174.749L308.481 136.429L374.421 98.1094L440.798 136.429Z" fill="black"/>
<path d="M437.062 75.7891L437.038 82.6026L437.008 93.9624L436.918 127.286L436.894 134.537L429.654 138.754L412.543 148.698L407.99 151.343L403.96 153.682L396.979 157.731L374.679 170.698L374.847 111.944L402.478 95.8877L411.409 90.6936L437.062 75.7891Z" fill="#6C78F0"/>
<path d="M374.847 111.944L374.781 135.497L374.745 146.953L374.679 170.698L369.371 167.633L360.362 162.433L326.534 142.898L315.618 136.601L312.05 134.537L312.146 100.362L312.176 89.9139L312.218 75.7891L374.847 111.944Z" fill="#8C99F9"/>
<path d="M437.061 75.7896L374.84 111.944L312.217 75.7896L374.432 39.6289L437.061 75.7896Z" fill="#7887F4"/>
<path d="M337.756 90.5316L398.226 53.3633L406.593 58.1975L346.687 95.6897" fill="white"/>
<path d="M411.409 90.694L348.792 54.5273L340.419 59.3616L402.478 95.8521" fill="white"/>
<path d="M345.655 153.946L337.204 149.07L337.756 90.5312L346.687 95.6894L345.655 153.946Z" fill="#F5FAFE"/>
<path d="M412.543 148.7L407.99 151.345L403.96 153.684L402.479 95.8894V95.8474L411.409 90.6953L412.543 148.7Z" fill="#F5FAFE"/>
<path d="M377.359 64.0032C379.311 62.8554 381.11 61.4671 382.715 59.8707C384.908 57.781 386.877 55.4672 388.587 52.9673C390.615 49.8484 390.531 48.337 390.297 47.4673C390.182 46.7494 389.793 46.1041 389.211 45.668L404.206 54.3768C404.79 54.8103 405.18 55.4568 405.291 56.1761C405.525 57.0458 405.609 58.5752 403.582 61.6821C401.869 64.1788 399.901 66.4904 397.71 68.5795C396.103 70.1745 394.304 71.5627 392.354 72.712L387.382 75.585L372.387 66.8822L377.359 64.0032Z" fill="#CCCCCC"/>
<path d="M402.005 52.3112C404.404 50.9317 406.449 51.1536 407.331 54.3624C408.704 59.3466 402.532 66.4 398.418 70.4545C396.605 72.2605 394.572 73.8303 392.366 75.1268L382.212 80.9746C382.53 80.4228 388.624 70.0047 392.828 62.7114C395.215 58.5909 398.88 54.0985 402.005 52.3112ZM397.692 68.5592C399.884 66.4701 401.851 64.1585 403.564 61.6617C405.591 58.5369 405.507 57.0254 405.273 56.1558C404.572 53.6127 403.15 54.0565 401.987 54.7223C399.731 56.0238 396.589 59.6585 394.333 63.557C392.21 67.2277 389.535 71.876 387.364 75.5526L392.336 72.6797C394.286 71.5304 396.086 70.1422 397.692 68.5472" fill="#BAC2FB"/>
<path d="M377.857 54.0104C380.256 49.8899 383.903 45.3976 387.004 43.6102C388.413 42.7945 389.703 42.5366 390.711 43.1244L405.705 51.8272C404.697 51.2274 403.408 51.4973 401.998 52.313C398.898 54.1124 395.233 58.5927 392.852 62.7132C388.653 70.0065 382.554 80.4247 382.236 80.9765L367.241 72.2737C367.565 71.7219 373.653 61.3037 377.857 54.0104Z" fill="#FCF3F2"/>
<path d="M402.358 77.1898C400.468 76.8215 398.656 76.1274 397.002 75.1386L392.024 72.2656L377.03 80.9684L382.008 83.8414C383.663 84.8313 385.477 85.5254 387.37 85.8926C389.871 86.3304 391.91 86.2945 393.26 85.7847L408.254 77.0819C406.905 77.5917 404.866 77.6277 402.358 77.1898Z" fill="#CCCCCC"/>
<path d="M408.842 76.8047L393.847 85.5075C393.655 85.6153 393.455 85.7076 393.248 85.7834L408.242 77.0806C408.449 77.0048 408.65 76.9125 408.842 76.8047Z" fill="#F6B24D"/>
<path d="M412.027 74.1119C411.163 69.9134 409.118 67.3044 406.731 65.9249C405.34 65.1242 403.769 64.6884 402.165 64.658C400.56 64.6275 398.974 65.0035 397.554 65.751C393.32 68.1501 387.19 71.5388 386.866 71.7128L371.872 80.4156C372.189 80.2416 378.319 76.8709 382.554 74.4538C383.974 73.7063 385.56 73.3303 387.164 73.3608C388.769 73.3912 390.34 73.827 391.73 74.6277C394.129 76.0072 396.163 78.5922 397.026 82.8147C397.626 85.6396 396.786 87.2351 395.335 88.0807L410.329 79.3779C411.787 78.5323 412.603 76.9608 412.027 74.1119Z" fill="#FCF3F2"/>
<path d="M397.05 82.815C398.388 89.3646 392.252 89.3106 388.054 88.5849C385.915 88.1674 383.866 87.382 381.996 86.2637L371.872 80.4159C372.189 80.242 378.319 76.8712 382.554 74.4541C383.974 73.7067 385.56 73.3307 387.164 73.3611C388.769 73.3915 390.34 73.8273 391.73 74.628C394.141 76.0075 396.187 78.5926 397.05 82.815ZM393.278 85.8139C395.317 85.0462 395.245 83.4148 395.011 82.2932C394.327 78.9524 392.906 77.7529 391.748 77.0871C390.568 76.4493 389.248 76.1153 387.907 76.1153C386.565 76.1153 385.245 76.4493 384.065 77.0871C381.93 78.2867 379.213 79.8161 377.048 81.0217L382.026 83.8946C383.681 84.8846 385.495 85.5787 387.388 85.9459C389.889 86.3837 391.928 86.3477 393.278 85.8379" fill="#BAC2FB"/>
<path d="M371.35 64.0032C369.401 62.8538 367.604 61.4655 366 59.8707C363.805 57.7826 361.837 55.4686 360.128 52.9673C358.095 49.8484 358.179 48.337 358.419 47.4673C358.532 46.7503 358.919 46.1052 359.498 45.668L344.504 54.3768C343.921 54.8114 343.534 55.4578 343.424 56.1761C343.184 57.0458 343.1 58.5752 345.133 61.6821C346.851 64.1748 348.825 66.4806 351.023 68.5615C352.628 70.1563 354.425 71.5446 356.373 72.694L361.351 75.567L376.346 66.8642L371.35 64.0032Z" fill="#CCCCCC"/>
<path d="M355.876 62.7126C360.074 70.0059 366.174 80.4241 366.498 80.9759L356.367 75.158C354.165 73.8599 352.133 72.2902 350.322 70.4858C346.183 66.4312 340.035 59.3778 341.409 54.3937C342.291 51.1849 344.348 50.9629 346.729 52.3424C349.824 54.0998 353.501 58.5921 355.876 62.7126ZM351.023 68.5605C352.628 70.1553 354.425 71.5435 356.373 72.6929L361.352 75.5659C359.204 71.8772 356.505 67.2289 354.382 63.5703C352.133 59.6717 348.984 56.0371 346.723 54.7355C345.565 54.0698 344.144 53.626 343.442 56.169C343.202 57.0387 343.118 58.5681 345.152 61.675C346.863 64.1689 348.831 66.4767 351.023 68.5605Z" fill="#BAC2FB"/>
<path d="M370.852 54.0104C368.453 49.8899 364.812 45.3976 361.705 43.6102C360.302 42.7945 359.006 42.5366 358.005 43.1244L343.01 51.8272C344.018 51.2274 345.307 51.4973 346.711 52.313C349.818 54.1124 353.482 58.5927 355.858 62.7132C360.056 70.0065 366.156 80.4247 366.48 80.9765L381.474 72.2737C381.15 71.7219 375.062 61.3037 370.852 54.0104Z" fill="#FCF3F2"/>
<path d="M347.526 77.1854C349.415 76.8245 351.228 76.1386 352.882 75.1581L357.86 72.2852L372.855 80.9879L367.877 83.8609C366.224 84.8497 364.411 85.5438 362.521 85.9121C360.014 86.35 357.974 86.314 356.625 85.8042L341.63 77.1014C342.98 77.5872 345.025 77.6232 347.526 77.1854Z" fill="#CCCCCC"/>
<path d="M341.043 76.8008L356.037 85.5036C356.23 85.6114 356.43 85.7037 356.637 85.7795L341.643 77.0767C341.436 77.0009 341.235 76.9086 341.043 76.8008Z" fill="#F6B24D"/>
<path d="M358.13 74.6241C359.521 73.8234 361.092 73.3876 362.696 73.3572C364.301 73.3268 365.887 73.7028 367.307 74.4502C371.542 76.8493 377.671 80.238 377.995 80.412L367.865 86.2598C365.995 87.3781 363.945 88.1635 361.807 88.581C357.663 89.3067 351.497 89.3607 352.81 82.8111C353.698 78.5887 355.743 76.0036 358.13 74.6241ZM356.607 85.78C357.957 86.2898 359.996 86.3258 362.503 85.888C364.394 85.5197 366.206 84.8256 367.859 83.8367L372.837 80.9638C370.672 79.7642 367.955 78.2468 365.82 77.0292C364.64 76.3914 363.319 76.0574 361.978 76.0574C360.637 76.0574 359.316 76.3914 358.136 77.0292C356.979 77.695 355.557 78.8945 354.874 82.2353C354.64 83.3809 354.568 84.9883 356.607 85.756" fill="#BAC2FB"/>
<path d="M375.044 78.704L374.966 78.746L373.719 78.0502C371.823 77.0006 369.604 75.7591 367.721 74.6795L367.565 74.5895L367.319 74.4516C365.899 73.7031 364.313 73.3264 362.708 73.3568C361.104 73.3873 359.533 73.8237 358.142 74.6255C355.743 76.005 353.71 78.59 352.846 82.8125C352.247 85.6374 353.086 87.2328 354.544 88.0785L339.549 79.3757C338.098 78.53 337.276 76.9346 337.858 74.1097C338.722 69.8812 340.773 67.3022 343.154 65.9227C344.544 65.1209 346.115 64.6845 347.72 64.6541C349.325 64.6236 350.911 65.0003 352.331 65.7488C356.565 68.1479 362.695 71.5366 363.019 71.7106L367.697 74.4276L375.044 78.704Z" fill="#FCF3F2"/>
<path d="M382.577 74.451L375.044 78.7034L374.966 78.7454L373.719 78.0496L367.721 74.6789L367.565 74.5889L367.709 74.427C368.351 73.7252 371.14 70.9722 375.098 71.1402C377.906 71.3176 380.558 72.4917 382.577 74.451Z" fill="#D6DAFD"/>
<path d="M365.4 249.278L289.702 292.468L281.917 177.053L356.559 133.898L365.4 249.278Z" fill="#F3DEB9"/>
<path d="M267.408 280.44L276.255 173.512H280.501L281.917 177.05L289.696 292.466L267.408 280.44Z" fill="#B6A78B"/>
<path d="M289.696 292.467L267.408 280.441H283.326L289.696 292.467Z" fill="#F3DEB9"/>
<path d="M280.501 173.512L283.326 280.44H267.408L276.255 173.512H280.501Z" fill="#B6A78B"/>
<path d="M351.251 130.352L352.913 133.123L356.559 133.89L281.917 177.05L280.501 173.512H276.255L351.251 130.352Z" fill="#E2CEAC"/>
<path d="M283.326 280.44L280.501 173.512L281.916 281.73L283.326 280.44Z" fill="#F3DEB9"/>
<path d="M343.19 155.674C343.119 157.099 342.71 158.487 341.996 159.723C341.283 160.959 340.286 162.007 339.088 162.782L308.247 180.589C306.861 181.387 305.644 181.315 304.894 180.541C304.347 179.902 304.068 179.077 304.114 178.238C304.188 176.812 304.599 175.424 305.313 174.187C306.027 172.951 307.025 171.901 308.223 171.124L339.064 153.317C339.75 152.865 340.577 152.68 341.391 152.795C342.482 153.041 343.184 154.061 343.19 155.674Z" fill="#AF9F85"/>
<path d="M342.182 155.116C342.108 156.541 341.697 157.927 340.984 159.162C340.271 160.398 339.276 161.447 338.08 162.224L307.239 180.031C306.549 180.489 305.712 180.671 304.894 180.541C304.347 179.902 304.068 179.077 304.114 178.238C304.188 176.812 304.599 175.424 305.313 174.187C306.027 172.951 307.025 171.901 308.223 171.124L339.064 153.317C339.75 152.865 340.577 152.68 341.391 152.795C341.95 153.435 342.234 154.269 342.182 155.116Z" fill="#E2CEAC"/>
<path d="M365.418 249.275L347.634 259.417C345.691 257.372 344.545 254.175 344.527 250.007C344.527 239.247 352.073 226.141 361.435 220.737C362.035 220.402 362.593 220.108 363.156 219.844L365.418 249.275Z" fill="#F5E5C7"/>
<path d="M304.444 229.622C304.444 237.209 299.136 246.416 292.539 250.236C290.865 251.287 288.931 251.852 286.955 251.868L285.449 229.49C287.284 226.785 289.677 224.505 292.467 222.802C299.052 218.994 304.42 222.053 304.444 229.622Z" fill="#F5E5C7"/>
<path d="M330.031 241.094C333.552 239.06 336.412 240.692 336.424 244.734C336.436 248.777 333.594 253.731 330.073 255.74C326.552 257.75 323.691 256.142 323.679 252.094C323.667 248.045 326.492 243.127 330.031 241.094Z" fill="#F5E5C7"/>
<path d="M337.66 188.91C341.181 186.877 344.042 188.508 344.054 192.551C344.066 196.593 341.217 201.547 337.702 203.557C334.188 205.566 331.321 203.959 331.309 199.91C331.297 195.862 334.14 190.919 337.66 188.91Z" fill="#F5E5C7"/>
<path d="M289.696 193.1C289.696 196.999 287.069 201.725 283.698 203.896L282.738 189.819C282.911 189.695 283.092 189.581 283.278 189.478C286.847 187.426 289.69 189.052 289.696 193.1Z" fill="#F5E5C7"/>
<path d="M316.956 268.355C316.843 271.941 315.843 275.444 314.047 278.551L298.045 287.68C296.281 286.48 295.19 284.135 295.184 280.896C295.184 273.987 300.024 265.578 306.034 262.105C312.043 258.632 316.938 261.451 316.956 268.355Z" fill="#F5E5C7"/>
<path d="M314.437 187.851C319.517 184.919 323.656 187.252 323.674 193.112C323.692 198.971 319.577 206.073 314.497 209.006C309.417 211.939 305.272 209.605 305.26 203.746C305.248 197.886 309.333 190.784 314.437 187.851Z" fill="#F5E5C7"/>
<path d="M344.714 205.683C349.572 202.882 353.518 205.125 353.536 210.703C353.554 216.281 349.626 223.076 344.774 225.883C339.921 228.69 335.969 226.435 335.951 220.857C335.933 215.279 339.861 208.483 344.714 205.683Z" fill="#F5E5C7"/>
<path d="M359.75 175.57C358.465 177.33 356.847 178.819 354.988 179.955C350.13 182.756 346.177 180.507 346.165 174.923C346.153 169.339 350.076 162.555 354.922 159.754C355.991 159.096 357.194 158.686 358.443 158.555L359.75 175.57Z" fill="#F5E5C7"/>
<path d="M318.035 224.853C321.826 222.664 324.915 224.415 324.927 228.77C324.939 233.124 321.874 238.438 318.083 240.627C314.293 242.817 311.21 241.059 311.192 236.699C311.174 232.338 314.245 227.036 318.035 224.853Z" fill="#F5E5C7"/>
<path d="M321.91 229.621L328.507 245.119L325.874 246.565L324.033 241.977L318.635 244.933L317.352 251.255L314.772 252.671L319.427 230.989L321.91 229.621ZM319.235 241.839L323.073 239.727L321.64 236.165L320.806 233.946L320.206 236.83L319.235 241.839Z" fill="#1A1A1A"/>
<path d="M317.022 226.575C317.089 226.855 317.171 227.132 317.268 227.403L316.392 227.883C316.356 227.709 316.314 227.547 316.284 227.403C316.259 227.238 316.243 227.072 316.236 226.905C316.206 226.719 316.176 226.503 316.146 226.251C316.116 225.999 316.092 225.651 316.062 225.268C316.048 224.707 315.905 224.156 315.642 223.66C315.558 223.516 315.445 223.39 315.31 223.292C315.174 223.194 315.02 223.125 314.857 223.09C314.54 223.016 314.208 223.045 313.909 223.174C313.582 223.294 313.264 223.434 312.955 223.594L309.741 225.358L310.064 231.391L309.255 231.835L308.541 218.64L313.279 216.037C314.293 215.485 315.079 215.359 315.678 215.671C316.278 215.983 316.578 216.679 316.638 217.74C316.679 218.528 316.569 219.315 316.314 220.061C316.015 220.89 315.502 221.625 314.827 222.191C315.018 222.156 315.215 222.159 315.405 222.2C315.596 222.241 315.776 222.32 315.936 222.431C316.143 222.584 316.315 222.78 316.442 223.004C316.569 223.228 316.648 223.476 316.674 223.732C316.734 224.23 316.776 224.632 316.812 224.932C316.848 225.232 316.884 225.531 316.926 225.795C316.941 226.057 316.973 226.318 317.022 226.575ZM312.745 222.838C313.686 222.377 314.507 221.703 315.145 220.871C315.636 220.141 315.866 219.266 315.798 218.388C315.738 217.434 315.486 216.859 315.055 216.679C314.623 216.499 313.855 216.679 312.829 217.278L309.399 219.162L309.693 224.56L312.769 222.868" fill="#1A1A1A"/>
<path d="M308.013 205.689C308.375 206.219 308.567 206.847 308.565 207.489C308.646 208.811 308.335 210.127 307.671 211.273C307.004 212.418 306.035 213.356 304.87 213.984L299.418 216.983L298.632 202.439L303.371 199.836C303.85 199.565 304.347 199.327 304.858 199.122C305.19 198.988 305.544 198.919 305.902 198.918C306.383 199.005 306.812 199.273 307.101 199.668C307.471 200.126 307.681 200.693 307.701 201.281C307.727 201.889 307.654 202.496 307.485 203.08C307.286 203.734 306.999 204.357 306.633 204.934C306.903 204.957 307.165 205.036 307.403 205.166C307.641 205.296 307.848 205.474 308.013 205.689ZM306.435 209.798C306.538 209.423 306.577 209.034 306.549 208.646C306.562 208.221 306.443 207.802 306.208 207.447C306.101 207.327 305.966 207.237 305.815 207.184C305.664 207.132 305.501 207.119 305.344 207.147C305.182 207.195 304.96 207.279 304.672 207.399C304.259 207.572 303.859 207.773 303.472 207.999L301.073 209.33L301.307 213.691L303.988 212.221C304.588 211.903 304.996 211.621 305.278 211.453C305.541 211.271 305.772 211.046 305.962 210.788C306.182 210.49 306.347 210.155 306.447 209.798H306.435ZM300.75 203.512L300.953 207.273L303.353 205.953C303.748 205.737 304.042 205.558 304.246 205.42C304.466 205.279 304.667 205.112 304.846 204.922C305.151 204.646 305.395 204.309 305.56 203.932C305.706 203.55 305.768 203.141 305.74 202.733C305.742 202.371 305.638 202.016 305.44 201.713C305.358 201.607 305.249 201.525 305.125 201.476C305 201.427 304.864 201.414 304.732 201.437C304.552 201.491 304.375 201.557 304.204 201.635C303.988 201.731 303.676 201.887 303.251 202.115L300.75 203.512Z" fill="#1A1A1A"/>
<path d="M332.928 223.844L333.756 239.168L341.127 235.12L341.271 237.837L331.416 243.253L330.445 225.211L332.928 223.844Z" fill="#1A1A1A"/>
<path d="M331.746 209.421C332.082 210.288 332.267 211.207 332.292 212.138C332.354 213.23 332.283 214.325 332.082 215.4C331.893 216.418 331.566 217.404 331.111 218.333C330.929 218.691 330.729 219.04 330.511 219.377C330.32 219.666 330.103 219.937 329.863 220.187C329.615 220.431 329.346 220.654 329.059 220.852C328.722 221.093 328.37 221.312 328.004 221.506L324.219 223.587L323.505 210.392L327.104 208.401C327.682 208.066 328.307 207.817 328.957 207.663C329.465 207.542 329.998 207.613 330.457 207.861C331.046 208.225 331.499 208.773 331.746 209.421ZM331.314 215.418C331.461 214.545 331.509 213.658 331.458 212.773C331.358 210.974 330.959 209.774 330.259 209.175C329.559 208.575 328.546 208.633 327.218 209.349L324.375 210.908L324.975 222.184L327.668 220.708C328.343 220.359 328.963 219.912 329.509 219.383C329.972 218.897 330.344 218.333 330.607 217.715C330.942 216.991 331.178 216.224 331.308 215.436" fill="#1A1A1A"/>
<path d="M324.591 187.758L329.917 200.245L327.794 201.415L326.282 197.72L321.946 200.119L320.914 205.211L318.833 206.351L322.588 188.873L324.591 187.758ZM322.456 197.606L325.545 195.903L324.387 193.03L323.715 191.231L323.247 193.558L322.456 197.6" fill="#1A1A1A"/>
<path d="M311.438 195.398L312.109 207.754L318.047 204.491L318.167 206.674L310.226 211.041L309.44 196.496L311.438 195.398Z" fill="#1A1A1A"/>
<path d="M352.505 194.48L348.888 204.431L349.182 209.871L348.372 210.315L348.078 204.875L343.586 199.375L344.618 198.811L347.377 202.434L348.492 203.741L349.356 201.384L351.599 194.972L352.505 194.48Z" fill="#1A1A1A"/>
<path d="M353.489 212.551L353.638 215.262L345.889 219.52L346.147 224.252L353.387 220.27L353.524 222.903L346.285 226.88L346.567 232.11L354.43 227.791L354.58 230.532L344.258 236.2L343.28 218.159L353.489 212.551Z" fill="#1A1A1A"/>
<path d="M338.644 201.715L343.496 213.009L342.608 213.495L341.121 209.866L335.975 212.691L334.943 217.705L334.109 218.167L337.54 202.315L338.644 201.715ZM336.155 211.701L340.845 209.128L339.381 205.589L338.08 202.591L337.174 206.717L336.155 211.701Z" fill="#1A1A1A"/>
<path d="M334.787 182.135C335.354 181.811 335.977 181.597 336.623 181.506C337.158 181.437 337.702 181.509 338.2 181.715C338.681 181.947 339.083 182.314 339.358 182.771C339.695 183.347 339.9 183.99 339.957 184.654L338.002 185.728C337.942 185.383 337.807 185.056 337.607 184.769C337.407 184.482 337.147 184.242 336.845 184.067C336.518 183.96 336.171 183.932 335.831 183.984C335.492 184.036 335.169 184.167 334.889 184.366C333.752 185.015 332.869 186.03 332.382 187.245C331.781 188.69 331.53 190.256 331.651 191.816C331.74 193.507 332.13 194.665 332.802 195.276C333.474 195.888 334.344 195.876 335.417 195.306C336.311 194.83 337.031 194.082 337.474 193.171C337.964 192.06 338.215 190.859 338.212 189.645L340.263 188.517C340.271 190.424 339.818 192.304 338.944 193.999C338.178 195.511 336.982 196.763 335.507 197.598C334.813 198.015 334.025 198.254 333.216 198.293C332.565 198.309 331.928 198.097 331.417 197.694C330.866 197.209 330.453 196.588 330.217 195.894C329.884 194.948 329.698 193.957 329.665 192.955C329.602 191.825 329.678 190.69 329.893 189.579C330.089 188.522 330.422 187.496 330.883 186.526C331.315 185.604 331.872 184.746 332.538 183.977C333.175 183.237 333.936 182.614 334.787 182.135Z" fill="#1A1A1A"/>
<path d="M351.275 173.512L346.549 182.179L352.151 188.008L349.62 189.394L345.29 184.62L343.796 187.343L344.072 192.447L342.075 193.544L341.289 179L343.286 177.902L343.634 184.38L343.922 183.828L348.576 174.993L351.275 173.512Z" fill="#1A1A1A"/>
<path d="M305.698 238.261C307.389 237.337 308.763 237.133 309.819 237.661C310.874 238.189 311.486 239.46 311.666 241.482L309.267 242.819C309.069 241.56 308.709 240.804 308.175 240.558C307.641 240.312 306.856 240.486 305.776 241.062C304.971 241.47 304.283 242.077 303.779 242.825C303.343 243.498 303.133 244.292 303.179 245.092C303.17 245.378 303.221 245.662 303.329 245.926C303.379 246.025 303.452 246.111 303.542 246.177C303.631 246.242 303.735 246.286 303.845 246.304C304.212 246.337 304.582 246.313 304.942 246.232C305.576 246.106 306.202 245.948 306.82 245.758C307.569 245.521 308.335 245.338 309.111 245.212C309.599 245.142 310.096 245.179 310.568 245.32C311.135 245.471 311.625 245.828 311.942 246.322C312.29 246.922 312.48 247.601 312.494 248.295C312.537 249.166 312.444 250.038 312.218 250.88C311.981 251.738 311.623 252.558 311.156 253.315C310.678 254.101 310.097 254.819 309.429 255.451C308.735 256.108 307.959 256.673 307.12 257.13C305.242 258.162 303.725 258.383 302.579 257.778C301.434 257.172 300.78 255.75 300.672 253.507L303.071 252.176C303.179 253.633 303.563 254.515 304.211 254.821C304.858 255.127 305.788 254.947 306.964 254.299C307.903 253.832 308.715 253.142 309.327 252.29C309.811 251.53 310.038 250.634 309.974 249.735C309.986 249.533 309.95 249.332 309.869 249.146C309.789 248.961 309.667 248.797 309.513 248.667C309.108 248.452 308.648 248.364 308.193 248.415L307.839 248.499L307.389 248.595C307.215 248.649 306.964 248.721 306.646 248.793L305.308 249.135C304.685 249.318 304.046 249.449 303.401 249.525C303.008 249.563 302.611 249.493 302.255 249.321C302.033 249.239 301.828 249.113 301.654 248.951C301.48 248.79 301.34 248.595 301.242 248.379C300.976 247.831 300.83 247.231 300.816 246.622C300.729 244.939 301.146 243.268 302.015 241.824C302.892 240.32 304.166 239.087 305.698 238.261Z" fill="#1A1A1A"/>
<path d="M306.4 219.805L306.454 220.752L300.648 223.937L300.924 228.987L306.028 226.18L306.07 227.014L300.966 229.821L301.307 236.173L300.486 236.622L299.772 223.445L306.4 219.805Z" fill="#1A1A1A"/>
<path d="M320.368 212.133L321.076 225.31L320.266 225.754L319.553 212.577L320.368 212.133Z" fill="#1A1A1A"/>
</g>
</g>
<defs>
<clipPath id="clip0_1488_2354">
<rect width="600" height="500" fill="white"/>
</clipPath>
<clipPath id="clip1_1488_2354">
<rect width="500" height="435.38" fill="white" transform="translate(50 32)"/>
</clipPath>
</defs>
</svg>
