<svg width="100" height="100" viewBox="0 0 100 100" fill="none" xmlns="http://www.w3.org/2000/svg">
<path d="M100 99.9996H0V74.4189H27.4194V56.4512H72.5806V74.4189H100V99.9996Z" fill="#B8292D"/>
<path d="M51.6137 74.1927H48.3879V66.1282H45.1621V62.9023H51.6137V74.1927Z" fill="#444444"/>
<path d="M54.8395 72.5801H45.1621V75.8059H54.8395V72.5801Z" fill="#444444"/>
<path d="M17.7419 93.5478H8.06445V87.451L14.5161 85.8381V83.8703H8.06445V80.6445H17.7419V88.3542L11.2903 89.9671V90.3219H17.7419V93.5478Z" fill="#444444"/>
<path d="M91.9352 93.5478H82.2578V90.3219H88.7094V83.8703H82.2578V80.6445H91.9352V93.5478Z" fill="#444444"/>
<path d="M90.3223 85.4844H82.2578V88.7102H90.3223V85.4844Z" fill="#444444"/>
<path d="M50.0001 16.129C47.8612 16.129 45.81 15.2794 44.2976 13.767C42.7852 12.2546 41.9355 10.2034 41.9355 8.06452C41.9355 5.92567 42.7852 3.87443 44.2976 2.36204C45.81 0.849646 47.8612 0 50.0001 0C52.1389 0 54.1902 0.849646 55.7025 2.36204C57.2149 3.87443 58.0646 5.92567 58.0646 8.06452C58.0646 10.2034 57.2149 12.2546 55.7025 13.767C54.1902 15.2794 52.1389 16.129 50.0001 16.129V16.129ZM50.0001 3.22581C48.7168 3.22581 47.486 3.73559 46.5786 4.64303C45.6711 5.55046 45.1614 6.78121 45.1614 8.06452C45.1614 9.34782 45.6711 10.5786 46.5786 11.486C47.486 12.3934 48.7168 12.9032 50.0001 12.9032C51.2834 12.9032 52.5141 12.3934 53.4216 11.486C54.329 10.5786 54.8388 9.34782 54.8388 8.06452C54.8388 6.78121 54.329 5.55046 53.4216 4.64303C52.5141 3.73559 51.2834 3.22581 50.0001 3.22581Z" fill="#444444"/>
<path d="M53.2268 54.8383C52.0352 54.8356 50.8866 54.3934 50.0009 53.5963C49.1153 54.3934 47.9666 54.8356 46.7751 54.8383C45.4918 54.8383 44.2611 54.3285 43.3537 53.421C42.4462 52.5136 41.9364 51.2829 41.9364 49.9996V24.1931H33.8719C32.5886 24.1931 31.3579 23.6833 30.4504 22.7759C29.543 21.8685 29.0332 20.6377 29.0332 19.3544V11.2899C29.0328 10.587 29.1855 9.89247 29.4808 9.25461C29.7761 8.61674 30.2067 8.05086 30.7429 7.59633C31.2805 7.1404 31.9113 6.80745 32.5911 6.62079C33.2709 6.43413 33.9833 6.39826 34.6784 6.51569C35.8238 6.73842 36.8548 7.35602 37.5917 8.26088C38.3285 9.16573 38.7245 10.3005 38.7106 11.4673V14.5157H54.388L61.2913 10.3705V6.62859C61.2774 5.46175 61.6734 4.32702 62.4102 3.42217C63.1471 2.51731 64.1781 1.89971 65.3235 1.67698C66.0186 1.55955 66.731 1.59542 67.4108 1.78208C68.0906 1.96874 68.7214 2.30169 69.259 2.75762C69.7952 3.21215 70.2258 3.77803 70.5211 4.4159C70.8163 5.05376 70.9691 5.74829 70.9687 6.45117V13.0641C70.9701 13.7915 70.7763 14.506 70.4075 15.1329C70.0387 15.7599 69.5084 16.2764 68.8719 16.6286L58.0655 22.5802V49.9996C58.0655 51.2829 57.5557 52.5136 56.6482 53.421C55.7408 54.3285 54.5101 54.8383 53.2268 54.8383ZM51.6138 49.9996C51.6138 50.4273 51.7838 50.8376 52.0863 51.1401C52.3887 51.4425 52.799 51.6125 53.2268 51.6125C53.6545 51.6125 54.0648 51.4425 54.3672 51.1401C54.6697 50.8376 54.8397 50.4273 54.8397 49.9996V20.7415L67.3074 13.806C67.4402 13.7332 67.5508 13.6258 67.6275 13.4951C67.7042 13.3645 67.7441 13.2156 67.7429 13.0641V6.45117C67.7429 6.2182 67.6924 5.988 67.595 5.77639C67.4975 5.56478 67.3554 5.37679 67.1784 5.22536C66.9988 5.06999 66.7872 4.95617 66.5585 4.89204C66.3299 4.82792 66.09 4.81507 65.8558 4.8544C65.4624 4.95071 65.1144 5.17985 64.8705 5.50311C64.6266 5.82637 64.5017 6.22392 64.5171 6.62859V12.2092L55.2913 17.7415H35.4848V11.4673C35.5002 11.0626 35.3753 10.6651 35.1314 10.3418C34.8875 10.0186 34.5394 9.78942 34.1461 9.69311C33.9119 9.65378 33.672 9.66663 33.4434 9.73075C33.2147 9.79488 33.0031 9.9087 32.8235 10.0641C32.6465 10.2155 32.5043 10.4035 32.4069 10.6151C32.3094 10.8267 32.259 11.0569 32.259 11.2899V19.3544C32.259 19.7822 32.4289 20.1924 32.7314 20.4949C33.0339 20.7974 33.4441 20.9673 33.8719 20.9673H45.1622V49.9996C45.1622 50.4273 45.3322 50.8376 45.6346 51.1401C45.9371 51.4425 46.3474 51.6125 46.7751 51.6125C47.2029 51.6125 47.6132 51.4425 47.9156 51.1401C48.2181 50.8376 48.388 50.4273 48.388 49.9996V33.8705H51.6138V49.9996Z" fill="#444444"/>
</svg>
