<svg width="100" height="67" viewBox="0 0 100 67" fill="none" xmlns="http://www.w3.org/2000/svg">
<g clip-path="url(#clip0_767_22)">
<path d="M93.4 56.2145H89.7444V3.65556H10.2562V56.2145H6.60059V0H93.4V56.2145Z" fill="#444444"/>
<path d="M100 66.3079H0V54.3867H42.0999V58.0423H3.65556V62.6524H96.3444V58.0423H57.9001V54.3867H100V66.3079Z" fill="#444444"/>
<path d="M70.6949 7.45312H66.4707V11.1087H70.6949V7.45312Z" fill="#444444"/>
<path d="M78.5133 7.45312H74.2891V11.1087H78.5133V7.45312Z" fill="#444444"/>
<path d="M86.3326 7.45312H82.1084V11.1087H86.3326V7.45312Z" fill="#444444"/>
<path d="M30.0972 47.0762H19.4961V43.4206H28.0461L36.8397 29.1639L46.3036 41.5928H53.3913L58.3872 33.0632L64.5002 34.0177L76.4214 22.0762L79.0209 24.6554L65.7796 37.8966L60.2759 37.064L55.4831 45.2484H44.4961L37.1647 35.6221L30.0972 47.0762Z" fill="#B8292D"/>
<path d="M79.5494 34.2406H75.8938V25.1829H66.8564V21.5273H79.5494V34.2406Z" fill="#B8292D"/>
</g>
<defs>
<clipPath id="clip0_767_22">
<rect width="100" height="66.3079" fill="white"/>
</clipPath>
</defs>
</svg>
