<svg width="530" height="425" viewBox="0 0 530 425" fill="none" xmlns="http://www.w3.org/2000/svg">
<path d="M528.968 196.797H24.3633V402.207H528.968V196.797Z" fill="#E6C091"/>
<g style="mix-blend-mode:multiply" opacity="0.7">
<path d="M52.9807 200.477H52.0732V405.887H52.9807V200.477Z" fill="#DCBD91"/>
</g>
<g style="mix-blend-mode:overlay" opacity="0.7">
<path d="M52.0727 200.477H51.4492V405.887H52.0727V200.477Z" fill="#DCBD91"/>
</g>
<g style="mix-blend-mode:multiply" opacity="0.7">
<path d="M78.6946 200.477H77.7871V405.887H78.6946V200.477Z" fill="#DCBD91"/>
</g>
<g style="mix-blend-mode:overlay" opacity="0.7">
<path d="M77.7875 200.477H77.1641V405.887H77.7875V200.477Z" fill="#DCBD91"/>
</g>
<g style="mix-blend-mode:multiply" opacity="0.7">
<path d="M104.403 200.477H103.495V405.887H104.403V200.477Z" fill="#DCBD91"/>
</g>
<g style="mix-blend-mode:overlay" opacity="0.7">
<path d="M103.496 200.477H102.872V405.887H103.496V200.477Z" fill="#DCBD91"/>
</g>
<g style="mix-blend-mode:multiply" opacity="0.7">
<path d="M130.117 200.477H129.21V405.887H130.117V200.477Z" fill="#DCBD91"/>
</g>
<g style="mix-blend-mode:overlay" opacity="0.7">
<path d="M129.209 200.477H128.586V405.887H129.209V200.477Z" fill="#DCBD91"/>
</g>
<g style="mix-blend-mode:multiply" opacity="0.7">
<path d="M155.824 200.477H154.917V405.887H155.824V200.477Z" fill="#DCBD91"/>
</g>
<g style="mix-blend-mode:overlay" opacity="0.7">
<path d="M154.924 200.477H154.301V405.887H154.924V200.477Z" fill="#DCBD91"/>
</g>
<g style="mix-blend-mode:multiply" opacity="0.7">
<path d="M181.539 200.477H180.632V405.887H181.539V200.477Z" fill="#DCBD91"/>
</g>
<g style="mix-blend-mode:overlay" opacity="0.7">
<path d="M180.631 200.477H180.008V405.887H180.631V200.477Z" fill="#DCBD91"/>
</g>
<g style="mix-blend-mode:multiply" opacity="0.7">
<path d="M207.246 200.477H206.339V405.887H207.246V200.477Z" fill="#DCBD91"/>
</g>
<g style="mix-blend-mode:overlay" opacity="0.7">
<path d="M206.346 200.477H205.723V405.887H206.346V200.477Z" fill="#DCBD91"/>
</g>
<g style="mix-blend-mode:multiply" opacity="0.7">
<path d="M232.961 200.477H232.054V405.887H232.961V200.477Z" fill="#DCBD91"/>
</g>
<g style="mix-blend-mode:overlay" opacity="0.7">
<path d="M232.053 200.477H231.43V405.887H232.053V200.477Z" fill="#DCBD91"/>
</g>
<g style="mix-blend-mode:multiply" opacity="0.7">
<path d="M258.675 200.477H257.768V405.887H258.675V200.477Z" fill="#DCBD91"/>
</g>
<g style="mix-blend-mode:overlay" opacity="0.7">
<path d="M257.768 200.477H257.145V405.887H257.768V200.477Z" fill="#DCBD91"/>
</g>
<g style="mix-blend-mode:multiply" opacity="0.7">
<path d="M284.383 200.477H283.476V405.887H284.383V200.477Z" fill="#DCBD91"/>
</g>
<g style="mix-blend-mode:overlay" opacity="0.7">
<path d="M283.482 200.477H282.858V405.887H283.482V200.477Z" fill="#DCBD91"/>
</g>
<g style="mix-blend-mode:multiply" opacity="0.7">
<path d="M310.097 200.477H309.189V405.887H310.097V200.477Z" fill="#DCBD91"/>
</g>
<g style="mix-blend-mode:overlay" opacity="0.7">
<path d="M309.19 200.477H308.566V405.887H309.19V200.477Z" fill="#DCBD91"/>
</g>
<g style="mix-blend-mode:multiply" opacity="0.7">
<path d="M335.805 200.477H334.897V405.887H335.805V200.477Z" fill="#DCBD91"/>
</g>
<g style="mix-blend-mode:overlay" opacity="0.7">
<path d="M334.904 200.477H334.28V405.887H334.904V200.477Z" fill="#DCBD91"/>
</g>
<g style="mix-blend-mode:multiply" opacity="0.7">
<path d="M361.519 200.477H360.611V405.887H361.519V200.477Z" fill="#DCBD91"/>
</g>
<g style="mix-blend-mode:overlay" opacity="0.7">
<path d="M360.612 200.477H359.988V405.887H360.612V200.477Z" fill="#DCBD91"/>
</g>
<g style="mix-blend-mode:multiply" opacity="0.7">
<path d="M387.234 200.477H386.326V405.887H387.234V200.477Z" fill="#DCBD91"/>
</g>
<g style="mix-blend-mode:overlay" opacity="0.7">
<path d="M386.327 200.477H385.703V405.887H386.327V200.477Z" fill="#DCBD91"/>
</g>
<g style="mix-blend-mode:multiply" opacity="0.7">
<path d="M412.941 200.477H412.033V405.887H412.941V200.477Z" fill="#DCBD91"/>
</g>
<g style="mix-blend-mode:overlay" opacity="0.7">
<path d="M412.034 200.477H411.41V405.887H412.034V200.477Z" fill="#DCBD91"/>
</g>
<g style="mix-blend-mode:multiply" opacity="0.7">
<path d="M438.656 200.477H437.748V405.887H438.656V200.477Z" fill="#DCBD91"/>
</g>
<g style="mix-blend-mode:overlay" opacity="0.7">
<path d="M437.748 200.477H437.125V405.887H437.748V200.477Z" fill="#DCBD91"/>
</g>
<g style="mix-blend-mode:multiply" opacity="0.7">
<path d="M464.363 200.477H463.455V405.887H464.363V200.477Z" fill="#DCBD91"/>
</g>
<g style="mix-blend-mode:overlay" opacity="0.7">
<path d="M463.462 200.477H462.839V405.887H463.462V200.477Z" fill="#DCBD91"/>
</g>
<g style="mix-blend-mode:multiply" opacity="0.7">
<path d="M490.077 200.477H489.17V405.887H490.077V200.477Z" fill="#DCBD91"/>
</g>
<g style="mix-blend-mode:overlay" opacity="0.7">
<path d="M489.17 200.477H488.547V405.887H489.17V200.477Z" fill="#DCBD91"/>
</g>
<g style="mix-blend-mode:multiply" opacity="0.7">
<path d="M515.785 200.477H514.878V405.887H515.785V200.477Z" fill="#DCBD91"/>
</g>
<g style="mix-blend-mode:overlay" opacity="0.7">
<path d="M514.884 200.477H514.261V405.887H514.884V200.477Z" fill="#DCBD91"/>
</g>
<g style="mix-blend-mode:multiply" opacity="0.2">
<path d="M529.993 207.359H25.3887V219.907H529.993V207.359Z" fill="#C29B73"/>
</g>
<path d="M529.993 200.477H25.3887V213.024H529.993V200.477Z" fill="#CC9B73"/>
<g style="mix-blend-mode:multiply" opacity="0.5">
<path d="M529.993 200.477H25.3887V206.75H529.993V200.477Z" fill="#CC9B73"/>
</g>
<path d="M200.548 424.999H192.235V288.425H112.556V424.999H104.243V280.125H200.548V424.999Z" fill="#8E5B49"/>
<path d="M10.0726 347.855H1.75977V424.999H10.0726V347.855Z" fill="#8E5B49"/>
<path d="M35.0599 347.855H26.7471V424.999H35.0599V347.855Z" fill="#8E5B49"/>
<path d="M115.791 335.137H0V351.025H115.791V335.137Z" fill="#A36957"/>
<path d="M71.6152 220.703H0V339.521H71.6152V220.703Z" fill="#8E5B49"/>
<path d="M113.997 423.126H147.124C149.202 423.126 148.51 419.522 146.3 418.976L137.55 416.562L131.018 414.293H113.291C112.612 420.048 113.997 423.126 113.997 423.126Z" fill="#BC5E5E"/>
<path d="M113.255 414.314L111.51 394.387L127.657 395.016L130.983 414.314H113.255Z" fill="#FFBD9A"/>
<path d="M72.4326 423.126H96.6784C98.7566 423.126 99.1445 419.522 97.094 418.976L92.0925 414.293H74.3653C71.9408 420.048 72.4326 423.126 72.4326 423.126Z" fill="#BC5E5E"/>
<path d="M74.3516 414.315L79.2908 393.758L95.2584 394.387L92.0718 414.315H74.3516Z" fill="#FFBD9A"/>
<path d="M121.45 317.518C117.592 314.62 112.743 313.569 108.046 312.981C105.58 312.67 103.141 312.358 100.682 312.033C99.2505 311.84 97.8211 311.637 96.394 311.425C95.8606 311.342 92.6186 311.176 92.4108 310.733L86.8689 299.832C86.8689 299.832 48.1587 302.938 42.3813 308.824C42.3813 308.824 41.6885 320.251 45.3046 328.572C48.9207 336.893 63.6829 339.964 91.5379 337.508C96.4425 337.072 100.273 336.817 103.252 336.623L108.198 395.838H131.412C130.622 386.846 130.442 353.064 128.08 333.538C127.159 327.036 124.782 320.015 121.45 317.518Z" fill="#ECEDED"/>
<path d="M111.378 327.264C110.235 322.242 108.767 318.071 104.098 315.291C99.4286 312.51 93.2286 312.524 88.0815 312.268C81.8469 311.957 75.6123 311.445 69.3776 311.016L84.5694 299.859C84.5694 299.859 37.5672 302.965 30.2172 308.851C30.2172 308.851 26.4418 320.278 27.848 328.599C29.2543 336.92 42.4301 339.991 70.9432 337.536C75.9656 337.1 79.8726 336.844 82.8999 336.65L74.9473 395.865H98.1609C99.7681 386.874 104.021 358.57 109.078 338.905C109.799 336.837 112.057 330.231 111.378 327.264Z" fill="white"/>
<path d="M92.0439 337.516L92.3834 336.645C93.6649 336.949 92.1825 337.475 92.0439 337.516Z" fill="#808FAE"/>
<path d="M205.667 58.4533H201.511V34.5486H101.431V58.4533H97.2744V30.3984H205.667V58.4533Z" fill="#9996A3"/>
<path d="M114.78 54.1314C112.596 53.1219 110.747 51.5097 109.451 49.485C108.155 47.4604 107.466 45.1077 107.465 42.7047V11.5166C107.466 9.34725 108.027 7.21487 109.095 5.32574C110.163 3.43662 111.701 1.85475 113.561 0.733186L114.78 0V54.1314Z" fill="white"/>
<path d="M126.467 54.1314C124.283 53.1219 122.434 51.5097 121.137 49.485C119.841 47.4604 119.152 45.1077 119.151 42.7047V11.5166C119.152 9.34725 119.714 7.21487 120.782 5.32574C121.85 3.43662 123.388 1.85475 125.248 0.733186L126.467 0V54.1314Z" fill="white"/>
<path d="M138.098 54.1314C135.914 53.1219 134.064 51.5097 132.768 49.485C131.472 47.4604 130.783 45.1077 130.782 42.7047V11.5166C130.783 9.34725 131.344 7.21487 132.412 5.32574C133.48 3.43662 135.019 1.85475 136.878 0.733186L138.098 0V54.1314Z" fill="white"/>
<path d="M149.756 54.1314C147.572 53.1219 145.723 51.5097 144.426 49.485C143.13 47.4604 142.441 45.1077 142.44 42.7047V11.5166C142.441 9.34725 143.003 7.21487 144.071 5.32574C145.139 3.43662 146.677 1.85475 148.536 0.733186L149.756 0V54.1314Z" fill="white"/>
<path d="M161.415 54.1314C159.231 53.1219 157.382 51.5097 156.086 49.485C154.789 47.4604 154.1 45.1077 154.1 42.7047V11.5166C154.1 9.34725 154.662 7.21487 155.73 5.32574C156.798 3.43662 158.336 1.85475 160.196 0.733186L161.415 0V54.1314Z" fill="white"/>
<path d="M173.074 54.1314C170.89 53.1219 169.041 51.5097 167.745 49.485C166.449 47.4604 165.759 45.1077 165.759 42.7047V11.5166C165.759 9.34725 166.321 7.21487 167.389 5.32574C168.457 3.43662 169.995 1.85475 171.855 0.733186L173.074 0V54.1314Z" fill="white"/>
<path d="M181.947 54.1297C180.595 53.5044 179.45 52.5061 178.647 51.2523C177.845 49.9986 177.418 48.5418 177.417 47.0537V27.7349C177.415 26.3895 177.761 25.0664 178.423 23.8944C179.084 22.7223 180.039 21.7411 181.192 21.0463L181.947 20.5898V54.1297Z" fill="white"/>
<path d="M189.166 54.1315C187.818 53.5026 186.678 52.5027 185.879 51.2494C185.08 49.996 184.656 48.5412 184.656 47.0556V27.7368C184.656 26.3937 185.004 25.0734 185.666 23.904C186.327 22.7345 187.28 21.7556 188.432 21.062L189.187 20.6055L189.166 54.1315Z" fill="white"/>
<path d="M196.391 54.1315C195.038 53.5063 193.893 52.5079 193.091 51.2541C192.288 50.0004 191.861 48.5436 191.86 47.0556V27.7368C191.86 26.3937 192.208 25.0734 192.87 23.904C193.531 22.7345 194.484 21.7556 195.636 21.062L196.391 20.6055V54.1315Z" fill="white"/>
<path d="M213.155 58.4531H85.9756V65.0103H213.155V58.4531Z" fill="#C29B73"/>
<path d="M107.465 75.6351V65.0039H100.898V75.6351H107.465Z" fill="#C29B73"/>
<path d="M196.876 75.6429V65.0117H190.309V75.6429H196.876Z" fill="#C29B73"/>
<path d="M306.253 54.6429H289.246L290.978 32.2461H304.078L306.253 54.6429Z" fill="white"/>
<path d="M306.253 39.6195H289.246L290.978 17.2227H304.078L306.253 39.6195Z" fill="white"/>
<path d="M329.134 54.6429H312.127L313.859 32.2461H326.959L329.134 54.6429Z" fill="white"/>
<path d="M329.134 42.8001H312.127L313.859 20.4102H326.959L329.134 42.8001Z" fill="white"/>
<path d="M329.134 28.4203H312.127L313.859 6.02344H326.959L329.134 28.4203Z" fill="white"/>
<path d="M352.014 54.6429H335.015L336.74 32.2461H349.839L352.014 54.6429Z" fill="white"/>
<path d="M352.014 40.554H335.015L336.74 18.1641H349.839L352.014 40.554Z" fill="white"/>
<path d="M396.669 54.6367H269.489V61.1939H396.669V54.6367Z" fill="#C29B73"/>
<path d="M290.978 71.8265V61.1953H284.41V71.8265H290.978Z" fill="#C29B73"/>
<path d="M380.383 71.8265V61.1953H373.816V71.8265H380.383Z" fill="#C29B73"/>
<path d="M208.521 257.797H225.528L223.796 280.187H210.697L208.521 257.797Z" fill="white"/>
<path d="M170.698 133.516H98.2373V200.547H170.698V133.516Z" fill="#ABACAC"/>
<path d="M153.843 107.005L110.118 115.492C108.319 115.841 106.606 116.541 105.077 117.55C103.549 118.56 102.235 119.861 101.21 121.378C100.185 122.896 99.4698 124.599 99.1048 126.393C98.7397 128.186 98.7321 130.034 99.0824 131.83L170.206 118.031C169.5 114.402 167.38 111.202 164.311 109.135C161.243 107.067 157.477 106.301 153.843 107.005Z" fill="#ABACAC"/>
<path d="M103.052 144.488H84.6807V134.527H103.052V144.488ZM87.4516 141.721H100.281V137.294H87.4516V141.721Z" fill="#ABACAC"/>
<path d="M183.693 144.488H165.314V134.527H183.693V144.488ZM168.085 141.721H180.922V137.294H168.085V141.721Z" fill="#ABACAC"/>
<path d="M277.559 133.516H205.099V200.547H277.559V133.516Z" fill="#ABACAC"/>
<path d="M209.913 144.488H191.535V134.527H209.913V144.488ZM194.306 141.721H207.142V137.294H194.306V141.721Z" fill="#ABACAC"/>
<path d="M290.548 144.488H272.177V134.527H290.548V144.488ZM274.948 141.721H287.777V137.294H274.948V141.721Z" fill="#ABACAC"/>
<path d="M159.094 129.538C168.988 124.934 177.111 117.237 182.232 107.611C182.647 106.83 181.449 106.124 181.033 106.92C176.031 116.341 168.081 123.871 158.395 128.362C157.584 128.736 158.284 129.932 159.087 129.559L159.094 129.538Z" fill="white"/>
<path d="M164.872 130.978C173.88 128.572 182.189 124.068 189.118 117.836C189.81 117.242 188.799 116.266 188.141 116.861C181.384 122.927 173.284 127.307 164.505 129.644C164.328 129.692 164.177 129.809 164.086 129.969C163.995 130.128 163.971 130.317 164.02 130.494C164.069 130.671 164.186 130.822 164.346 130.913C164.505 131.003 164.695 131.027 164.872 130.978Z" fill="white"/>
<path d="M179.758 102.112C180.347 99.5318 181.026 96.5783 183.381 95.0289C183.886 94.6505 184.478 94.4047 185.102 94.3141C185.727 94.2234 186.364 94.2909 186.956 94.5102C187.523 94.7271 188.003 95.1242 188.323 95.6404C188.642 96.1565 188.782 96.7632 188.722 97.3668C188.632 98.1346 189.955 98.3144 190.108 97.5466C190.593 94.607 194.112 92.4213 196.924 93.7977C199.557 95.0773 200.319 98.7848 198.642 101.095C198.275 101.6 198.878 102.257 199.425 102.105C200.856 101.607 202.423 101.669 203.81 102.278C204.423 102.558 204.93 103.025 205.259 103.612C205.588 104.199 205.721 104.875 205.639 105.543C205.147 108.593 201.628 109.499 199.1 110.128C199.224 110.571 199.342 111.014 199.467 111.463C200.672 111.145 203.367 110.613 203.485 112.556C203.602 114.673 200.984 115.323 199.404 115.71C199.274 115.747 199.158 115.821 199.07 115.924C198.981 116.026 198.925 116.151 198.907 116.285C198.889 116.419 198.911 116.555 198.97 116.677C199.029 116.798 199.122 116.9 199.238 116.969C200.194 117.661 199.633 119.349 198.746 119.86C197.319 120.677 195.601 119.452 194.881 118.249C194.785 118.098 194.635 117.991 194.461 117.948C194.287 117.906 194.104 117.932 193.949 118.021C193.795 118.11 193.681 118.256 193.631 118.427C193.581 118.599 193.6 118.782 193.682 118.941C194.853 120.898 197.673 122.399 199.751 120.829C201.372 119.598 201.614 117.031 199.938 115.773L199.771 117.038C202.12 116.478 205.313 115.157 204.822 112.134C204.35 109.368 201.143 109.589 199.1 110.122C198.922 110.17 198.772 110.287 198.681 110.447C198.59 110.606 198.566 110.795 198.615 110.972C198.663 111.149 198.78 111.3 198.94 111.391C199.1 111.481 199.289 111.505 199.467 111.456C202.709 110.654 207.149 109.077 207.087 104.982C207.044 104.186 206.797 103.413 206.368 102.74C205.94 102.066 205.345 101.514 204.641 101.137C202.914 100.291 200.923 100.159 199.1 100.77L199.882 101.787C202.044 98.8055 200.838 94.0467 197.472 92.5043C193.959 90.8926 189.436 93.4035 188.812 97.1732L190.198 97.3599C190.254 96.6202 190.105 95.8793 189.766 95.2189C189.428 94.5586 188.913 94.0045 188.279 93.6179C187.623 93.1995 186.874 92.9496 186.098 92.8905C185.322 92.8313 184.543 92.9648 183.832 93.279C180.368 94.6623 179.26 98.432 178.511 101.731C178.317 102.603 179.654 102.969 179.848 102.105L179.758 102.112Z" fill="white"/>
<path d="M243.345 72.3448C246.247 79.0265 249.074 86.4898 247.563 93.877C246.871 97.2662 245.367 100.407 244.183 103.637C242.957 106.743 242.37 110.065 242.458 113.403C242.63 117.14 243.732 120.775 245.665 123.979C245.761 124.13 245.912 124.238 246.085 124.28C246.259 124.322 246.442 124.296 246.597 124.207C246.751 124.118 246.865 123.972 246.915 123.801C246.965 123.629 246.947 123.446 246.864 123.288C245.074 120.34 244.039 116.997 243.85 113.555C243.76 110.088 244.402 106.64 245.735 103.436C246.947 100.22 248.415 97.0588 249.011 93.6418C249.56 90.1908 249.426 86.666 248.616 83.2665C247.636 79.2638 246.269 75.3652 244.536 71.6254C244.183 70.8161 242.991 71.5147 243.345 72.3171V72.3448Z" fill="white"/>
<path d="M257.671 93.5152C260.442 98.7859 257.671 104.783 255.856 109.867C254.784 112.549 254.173 115.392 254.048 118.278C254.035 121.131 254.672 123.951 255.911 126.522C256.292 127.325 257.484 126.626 257.103 125.831C255.824 123.144 255.264 120.173 255.475 117.205C255.69 114.169 256.798 111.285 257.851 108.456C259.701 103.503 261.509 97.8452 258.869 92.8235C258.454 92.0281 257.262 92.7267 257.671 93.5152Z" fill="white"/>
<path d="M234.035 97.8669C235.559 100.357 234.727 103.352 233.626 105.828C232.421 108.457 231.042 110.919 230.391 113.769C229.769 116.523 229.675 119.37 230.114 122.159C230.467 124.407 231.285 126.696 233.294 127.955C234.056 128.433 234.748 127.264 233.986 126.759C231.839 125.417 231.416 122.443 231.264 120.125C231.072 117.284 231.463 114.434 232.414 111.749C234.028 107.177 238.254 102.114 235.226 97.1683C235.13 97.0177 234.98 96.91 234.806 96.8675C234.633 96.8251 234.45 96.8512 234.295 96.9405C234.14 97.0298 234.026 97.1753 233.976 97.3466C233.927 97.518 233.945 97.7019 234.028 97.86L234.035 97.8669Z" fill="white"/>
<path d="M269.482 83.1285C271.415 86.9951 270.979 91.4288 269.919 95.4959C268.894 99.4178 266.393 103.692 267.841 107.801C268.138 108.631 269.482 108.271 269.178 107.434C268.367 105.166 268.984 102.842 269.718 100.642C270.451 98.6013 271.075 96.5234 271.588 94.4169C272.454 90.4051 272.53 86.1927 270.66 82.4438C270.265 81.6414 269.067 82.3469 269.462 83.1355L269.482 83.1285Z" fill="white"/>
<path d="M334.842 141.685C334.842 141.685 338.306 144.203 339.968 150.29C341.631 156.377 341.25 165.562 341.25 165.562L331.926 162.561C331.926 162.561 333.519 149.19 330.686 144.445C327.852 139.7 334.842 141.685 334.842 141.685Z" fill="#331C2E"/>
<path d="M311.6 154.391L306.53 157.849L304.396 162.234C304.396 162.234 292.917 166.751 289.848 168.881C286.779 171.012 280.074 175.632 274.726 182.971C269.378 190.31 263.995 202.843 263.995 202.843V206.419C263.159 207.111 262.613 208.09 262.463 209.164C262.313 210.238 262.57 211.329 263.185 212.223L263.995 213.405L262.658 220.571L268.574 230.635L274.684 230.296L280.801 227.772L281.75 223.296L280.988 215.563L279.284 214.028L281.577 211.877L280.24 208.992L286.281 202.836L340.197 216.912L343.66 205.403L342.178 196.514L358.367 207.733L353.123 219.997L366.153 227.052L374.771 217.853L381.615 201.654C381.615 201.654 363.992 175.888 354.938 170.216C348.558 166.225 336.352 162.297 336.352 162.297L334.336 155.179L329.14 154.391H311.6Z" fill="#CFCFCB"/>
<path d="M310.693 135.122C311.233 138.207 310.229 140.959 308.455 141.271C306.682 141.582 304.798 139.334 304.25 136.249C303.703 133.164 304.714 130.418 306.488 130.107C308.261 129.796 310.145 132.044 310.693 135.122Z" fill="#E5A183"/>
<path d="M338.342 140.738C339.693 137.916 339.271 134.903 337.4 134.011C335.529 133.118 332.917 134.683 331.566 137.506C330.215 140.329 330.637 143.341 332.508 144.234C334.379 145.126 336.991 143.561 338.342 140.738Z" fill="#E5A183"/>
<path d="M322.851 113.041C322.851 113.041 319.533 110.869 314.988 113.041C310.444 115.213 307.216 119.19 306.315 123.541C305.415 127.892 306.682 136.683 306.682 136.683L333.491 140.204L337.385 133.979C338.322 131.157 338.79 128.201 338.77 125.229C338.576 120.975 332.709 114.923 329.958 113.221C327.208 111.52 323.703 111.907 322.851 113.041Z" fill="#331C2E"/>
<path d="M328.538 158.644C326.335 160.38 323.266 164.177 320.821 165.436L312.508 164.004L313.02 147.279L326.986 146.691L328.538 158.644Z" fill="#E5A183"/>
<path d="M333.491 138.885C332.59 142.343 332.286 145.11 330.72 147.469C327.111 152.753 317.766 155.575 311.878 150.353C307.936 146.86 307.202 141.008 307.43 134.88L309.439 131.422C309.439 131.422 310.866 124.913 314.794 121.461C319.352 117.456 320.717 120.341 320.717 120.341C320.717 120.341 325.566 117.954 327.845 123.958C330.041 129.768 328.683 135.482 333.491 138.885Z" fill="#FFBD9A"/>
<path d="M326.917 424.993H288.851C286.772 424.993 286.731 421.389 288.851 420.843L298.494 418.422L308.116 416.16H325.843C327.672 421.922 326.917 424.993 326.917 424.993Z" fill="#3B3746"/>
<path d="M325.822 416.19L324.014 404.078L307.991 404.708L308.102 416.19H325.822Z" fill="#FFBD9A"/>
<path d="M290.555 298.918C290.555 298.918 301.285 377.162 303.114 407.34H328.156L321.714 300.488L290.555 298.918Z" fill="#637DAB"/>
<path d="M368.412 424.993H344.166C342.088 424.993 341.7 421.389 343.751 420.843L348.752 416.16H366.479C368.869 421.922 368.412 424.993 368.412 424.993Z" fill="#3B3746"/>
<path d="M366.465 416.19L363.479 404.078L347.519 404.708L348.738 416.19H366.465Z" fill="#FFBD9A"/>
<path d="M319.311 298.918C319.311 298.918 338.139 377.162 342.864 407.34H367.906L350.588 300.488L319.311 298.918Z" fill="#637DAB"/>
<path d="M312.764 156.301L308.504 159.87L307.714 166.524L314.489 175.889L320.82 165.438L312.764 156.301Z" fill="#E5A183"/>
<path d="M285.415 203.704L292.842 183.465C292.842 183.465 302.789 180.228 305.837 179.847C308.885 179.467 331.337 181.756 331.337 181.756L332.203 193.404L342.151 212.571L340.197 225.021L344.354 232.243L343.266 236.676L347.741 241.843C347.741 241.843 356.476 291.582 360.28 342.636L290.943 343.632L288.055 289.286C287.819 284.848 287.84 280.4 288.117 275.964L289.8 249.258L291.712 239.727L289.634 232.243L290.022 228.092L283.912 216.244L285.415 203.704Z" fill="#665857"/>
<path d="M301.196 407.34L300.053 397.718H314.372L329.265 396.57L329.84 407.34H314.947H301.196Z" fill="#7DA7D1"/>
<path d="M340.557 407.34L339.414 397.718H353.733L368.627 396.57L369.202 407.34H354.308H340.557Z" fill="#7DA7D1"/>
<path d="M270.099 228.272C270.099 228.272 272.793 223.686 274.255 223.022C275.717 222.358 280.365 223.022 280.365 223.022L282.942 233.044L285.997 233.895C287.46 233.364 288.96 232.943 290.486 232.636C291.594 232.668 292.685 232.922 293.693 233.383C293.849 233.445 293.99 233.536 294.11 233.653C294.229 233.77 294.324 233.91 294.389 234.064C294.453 234.218 294.486 234.383 294.486 234.55C294.485 234.717 294.451 234.883 294.386 235.036C294.28 235.285 294.095 235.493 293.86 235.628C293.625 235.762 293.353 235.817 293.084 235.783L290.527 235.458L288.096 236.565L293.77 239.837C294.068 240.008 294.288 240.288 294.384 240.619C294.479 240.949 294.443 241.303 294.282 241.607C294.13 241.899 293.876 242.124 293.567 242.239C293.259 242.354 292.919 242.351 292.613 242.23L287.14 240.093L289.814 243.62L292.336 244.609C292.622 244.721 292.854 244.939 292.983 245.217C293.112 245.496 293.128 245.813 293.028 246.103C292.93 246.378 292.736 246.607 292.481 246.748C292.226 246.89 291.928 246.933 291.643 246.871L288.74 246.29L285.498 243.046L287.881 247.148L289.759 248.178C289.993 248.311 290.167 248.529 290.246 248.786C290.325 249.043 290.301 249.321 290.181 249.562C290.055 249.803 289.84 249.986 289.582 250.072C289.324 250.159 289.042 250.142 288.796 250.025L286.066 248.746L282.471 244.741C282.471 244.741 279.478 243.025 278.231 240.833C276.984 238.64 270.099 228.272 270.099 228.272Z" fill="#FFBD9A"/>
<path d="M305.81 158.173C303.779 162.809 302.071 167.58 300.697 172.45C300.68 172.522 300.686 172.599 300.716 172.667C300.745 172.736 300.796 172.793 300.86 172.83C300.925 172.867 301 172.883 301.074 172.874C301.148 172.866 301.218 172.833 301.272 172.782C303.189 171.171 305.189 169.661 307.264 168.258C307.631 168.009 307.264 167.407 306.911 167.656C304.79 169.096 302.746 170.645 300.787 172.298L301.362 172.63C302.719 167.818 304.406 163.106 306.412 158.526C306.585 158.118 305.99 157.765 305.81 158.173Z" fill="#91918B"/>
<path d="M306.772 168.376C308.102 169.965 309.52 171.48 311.018 172.913C311.344 173.217 311.836 172.733 311.51 172.422C310.013 170.988 308.593 169.476 307.257 167.891C306.973 167.546 306.488 168.037 306.772 168.376Z" fill="#91918B"/>
<path d="M317.544 172.95L321.701 167.776L321.119 167.624C321.936 170.359 322.8 173.077 323.71 175.779C323.726 175.837 323.757 175.889 323.8 175.931C323.843 175.973 323.896 176.003 323.954 176.018C324.012 176.033 324.073 176.034 324.131 176.018C324.189 176.003 324.242 175.973 324.285 175.931L336.615 163.564C336.927 163.253 336.435 162.762 336.123 163.08L323.793 175.44L324.375 175.592C323.451 172.89 322.59 170.174 321.791 167.444C321.773 167.387 321.741 167.335 321.698 167.293C321.654 167.251 321.601 167.221 321.542 167.206C321.484 167.191 321.423 167.191 321.364 167.206C321.306 167.221 321.252 167.25 321.209 167.292L317.052 172.459C316.775 172.805 317.26 173.296 317.544 172.95Z" fill="#91918B"/>
<path d="M329.875 181.61L342.143 163.544L337.814 162.402L324.853 181.126L329.875 181.61Z" fill="#3B3746"/>
<path d="M298.383 164.304L303.343 161.828L298.383 178.892V182.323L294.178 183.658V179.805L298.383 164.304Z" fill="#3B3746"/>
<path d="M276.977 213.339C278.204 214.191 279.379 215.115 280.497 216.105C280.829 216.403 281.321 215.912 280.988 215.614C279.826 214.571 278.603 213.599 277.324 212.702C277.245 212.657 277.151 212.644 277.063 212.668C276.974 212.691 276.899 212.748 276.853 212.827C276.809 212.907 276.797 213.001 276.82 213.09C276.843 213.179 276.9 213.255 276.977 213.304V213.339Z" fill="#91918B"/>
<path d="M263.829 220.256L266.545 217.268C267.326 216.259 268.208 215.332 269.177 214.501C270.223 213.747 271.643 213.719 272.876 213.574C274.262 213.408 275.647 213.29 276.984 213.207C277.428 213.207 277.435 212.516 276.984 212.516C275.53 212.608 274.077 212.739 272.627 212.91C271.387 213.062 270.008 213.11 268.942 213.823C267.954 214.606 267.061 215.502 266.281 216.493L263.337 219.737C263.039 220.062 263.524 220.553 263.829 220.221V220.256Z" fill="#91918B"/>
<path d="M274.712 205.727C278.009 204.337 281.453 203.327 284.979 202.718C285.415 202.642 285.228 201.971 284.792 202.027C281.268 202.642 277.824 203.651 274.525 205.036C274.124 205.208 274.304 205.879 274.712 205.727Z" fill="#91918B"/>
<path d="M291.338 174.825L292.779 182.718C292.855 183.153 293.527 182.967 293.472 182.531L292.031 174.639C291.955 174.203 291.283 174.39 291.338 174.825Z" fill="#91918B"/>
<path d="M336.151 190.893C338.187 192.769 340.176 194.692 342.115 196.661C342.18 196.726 342.269 196.763 342.361 196.763C342.453 196.763 342.542 196.726 342.607 196.661C342.672 196.596 342.709 196.508 342.709 196.416C342.709 196.324 342.672 196.235 342.607 196.17C340.667 194.201 338.679 192.281 336.643 190.408C336.31 190.104 335.818 190.595 336.151 190.893Z" fill="#91918B"/>
<path d="M269.579 229.551C270.91 227.492 272.377 225.523 273.971 223.658C274.123 223.446 274.325 223.275 274.559 223.16C274.832 223.069 275.117 223.022 275.404 223.022C275.972 222.98 276.541 222.953 277.109 222.946C278.309 222.902 279.506 223.1 280.628 223.527C281.036 223.693 281.217 223.022 280.808 222.835C279.627 222.39 278.369 222.186 277.109 222.233C276.464 222.233 275.82 222.275 275.176 222.323C274.653 222.313 274.145 222.495 273.749 222.835C273.323 223.267 272.93 223.729 272.571 224.218C272.149 224.751 271.726 225.284 271.317 225.83C270.509 226.909 269.729 228.014 268.976 229.143C268.733 229.517 269.329 229.835 269.579 229.496V229.551Z" fill="#91918B"/>
<path d="M281.085 232.74C282.536 233.406 284.04 233.95 285.581 234.365C285.673 234.389 285.771 234.375 285.853 234.327C285.934 234.279 285.994 234.201 286.018 234.109C286.042 234.018 286.028 233.92 285.98 233.838C285.932 233.757 285.853 233.697 285.761 233.673C284.277 233.278 282.829 232.76 281.432 232.124C281.353 232.079 281.259 232.066 281.171 232.09C281.082 232.113 281.007 232.17 280.961 232.249C280.937 232.287 280.922 232.331 280.915 232.376C280.909 232.42 280.912 232.466 280.923 232.51C280.935 232.554 280.955 232.595 280.983 232.631C281.011 232.667 281.046 232.697 281.085 232.719V232.74Z" fill="#CE8D6F"/>
<path d="M285.103 243.079C285.2 243.079 285.346 243.307 285.401 243.369L285.803 243.805C286.046 244.061 286.281 244.324 286.496 244.587L287.992 246.212C288.297 246.544 288.782 246.053 288.484 245.728L286.884 243.985L286.108 243.141C285.817 242.83 285.54 242.408 285.076 242.387C284.612 242.366 284.632 243.079 285.076 243.079H285.103Z" fill="#CE8D6F"/>
<path d="M286.33 240.315C287.993 240.699 289.617 241.239 291.179 241.926C291.219 241.949 291.262 241.965 291.308 241.971C291.353 241.977 291.399 241.974 291.444 241.963C291.488 241.951 291.53 241.931 291.566 241.903C291.603 241.876 291.634 241.841 291.657 241.802C291.68 241.762 291.695 241.718 291.702 241.673C291.708 241.628 291.705 241.582 291.694 241.537C291.682 241.493 291.662 241.451 291.634 241.415C291.606 241.378 291.572 241.348 291.532 241.324C289.909 240.598 288.221 240.029 286.489 239.623C286.053 239.526 285.866 240.19 286.302 240.315H286.33Z" fill="#CE8D6F"/>
<path d="M365.274 224.002C365.274 224.002 362.579 219.416 361.117 218.752C359.656 218.088 355.007 218.752 355.007 218.752L352.43 228.775L349.375 229.625C347.913 229.094 346.412 228.673 344.887 228.367C343.776 228.399 342.683 228.653 341.672 229.114C341.517 229.175 341.375 229.267 341.256 229.384C341.136 229.501 341.042 229.64 340.977 229.794C340.912 229.948 340.879 230.114 340.88 230.281C340.88 230.448 340.914 230.613 340.98 230.767C341.086 231.016 341.27 231.223 341.505 231.358C341.74 231.493 342.013 231.547 342.282 231.514L344.831 231.189L347.27 232.295L341.596 235.567C341.298 235.739 341.078 236.019 340.982 236.349C340.886 236.679 340.923 237.034 341.083 237.338C341.235 237.629 341.49 237.854 341.798 237.969C342.107 238.084 342.447 238.081 342.753 237.96L348.226 235.823L345.552 239.351L343.03 240.34C342.744 240.451 342.512 240.669 342.383 240.948C342.254 241.226 342.238 241.544 342.337 241.834C342.434 242.109 342.628 242.339 342.884 242.481C343.139 242.622 343.438 242.665 343.723 242.601L346.618 242.02L349.867 238.776L347.477 242.878L345.607 243.909C345.373 244.042 345.198 244.259 345.12 244.516C345.041 244.774 345.064 245.051 345.184 245.292C345.31 245.533 345.525 245.716 345.784 245.803C346.042 245.889 346.324 245.872 346.57 245.756L349.299 244.476L352.895 240.471C352.895 240.471 355.887 238.756 357.127 236.563C358.367 234.37 365.274 224.002 365.274 224.002Z" fill="#FFBD9A"/>
<path d="M353.941 227.862C352.544 228.498 351.095 229.016 349.612 229.411C349.566 229.423 349.523 229.444 349.486 229.472C349.448 229.5 349.417 229.536 349.393 229.576C349.369 229.617 349.354 229.661 349.347 229.708C349.341 229.754 349.343 229.802 349.355 229.847C349.367 229.892 349.388 229.935 349.416 229.972C349.444 230.01 349.48 230.041 349.52 230.065C349.561 230.089 349.606 230.105 349.652 230.111C349.699 230.117 349.746 230.115 349.792 230.103C351.333 229.688 352.837 229.144 354.288 228.477C354.332 228.457 354.371 228.429 354.403 228.392C354.436 228.356 354.46 228.314 354.475 228.268C354.49 228.222 354.494 228.173 354.489 228.125C354.484 228.077 354.469 228.03 354.444 227.988C354.42 227.947 354.387 227.91 354.348 227.882C354.309 227.854 354.264 227.834 354.216 227.824C354.169 227.814 354.12 227.814 354.072 227.824C354.025 227.834 353.98 227.854 353.941 227.883V227.862Z" fill="#CE8D6F"/>
<path d="M350.22 238.098C349.763 238.098 349.528 238.526 349.209 238.831L348.412 239.695L346.812 241.439C346.514 241.764 346.999 242.255 347.304 241.923L348.835 240.311L349.528 239.55L349.929 239.114L350.13 238.893C350.13 238.893 350.206 238.803 350.248 238.803C350.339 238.801 350.426 238.764 350.491 238.7C350.556 238.635 350.593 238.549 350.594 238.457C350.594 238.366 350.558 238.278 350.493 238.213C350.428 238.148 350.34 238.112 350.248 238.112L350.22 238.098Z" fill="#CE8D6F"/>
<path d="M348.835 235.373C347.112 235.771 345.43 236.331 343.813 237.046C343.734 237.094 343.676 237.17 343.653 237.26C343.63 237.349 343.642 237.444 343.688 237.524C343.737 237.601 343.814 237.657 343.902 237.681C343.991 237.704 344.086 237.692 344.166 237.648C345.728 236.959 347.352 236.42 349.015 236.037C349.452 235.94 349.265 235.276 348.828 235.345L348.835 235.373Z" fill="#CE8D6F"/>
<path d="M294.546 235.535L302.297 237.354L306.211 238.274C307.527 238.614 308.869 238.846 310.222 238.966C312.945 239.152 315.522 238.191 318.12 237.534C320.717 236.877 323.474 236.303 326.176 235.805C329.21 235.251 332.258 234.774 335.306 234.304C335.75 234.234 335.563 233.563 335.126 233.612C329.751 234.449 324.375 235.286 319.083 236.558C317.773 236.877 316.485 237.25 315.189 237.582C313.899 237.981 312.562 238.213 311.213 238.274C308.553 238.274 305.9 237.458 303.337 236.856L294.726 234.836C294.296 234.732 294.109 235.396 294.546 235.528V235.535Z" fill="#423736"/>
<path d="M293.672 235.874C294.793 240.179 295.094 244.656 294.559 249.071C294.289 251.34 293.741 253.553 293.326 255.801C292.922 257.961 292.884 260.173 293.215 262.345C293.67 264.891 294.333 267.397 295.196 269.836C295.328 270.258 296 270.078 295.889 269.656C295.141 267.494 294.531 265.288 294.06 263.05C293.613 260.768 293.59 258.424 293.991 256.133C294.386 253.927 294.926 251.762 295.217 249.535C295.871 244.913 295.581 240.208 294.365 235.701C294.341 235.609 294.282 235.531 294.2 235.483C294.118 235.435 294.02 235.421 293.929 235.445C293.837 235.469 293.758 235.528 293.71 235.61C293.662 235.692 293.648 235.789 293.672 235.881V235.874Z" fill="#423736"/>
<path d="M296.014 270.513C298.725 271.297 301.459 271.971 304.216 272.533C306.894 273.126 309.609 273.537 312.342 273.764C315.04 273.919 317.746 273.686 320.378 273.073C322.941 272.512 325.463 271.745 327.998 271.032L335.32 268.957C335.412 268.933 335.491 268.874 335.539 268.792C335.587 268.711 335.6 268.613 335.577 268.521C335.553 268.43 335.493 268.351 335.411 268.303C335.33 268.255 335.232 268.242 335.14 268.265C330.603 269.545 326.072 270.942 321.493 272.077C318.847 272.786 316.114 273.124 313.374 273.08C310.641 272.93 307.924 272.565 305.248 271.987C302.2 271.387 299.199 270.656 296.243 269.794C296.151 269.77 296.053 269.784 295.972 269.832C295.89 269.88 295.83 269.958 295.806 270.05C295.783 270.142 295.796 270.239 295.844 270.321C295.892 270.403 295.971 270.462 296.063 270.486L296.014 270.513Z" fill="#423736"/>
<path d="M335.839 233.625C335.178 242.755 335.24 251.923 336.026 261.043C336.234 263.457 336.511 265.934 335.825 268.299C335.801 268.391 335.813 268.489 335.861 268.571C335.908 268.653 335.986 268.714 336.078 268.738C336.17 268.763 336.268 268.75 336.351 268.703C336.433 268.656 336.493 268.578 336.518 268.486C337.022 266.394 337.13 264.226 336.837 262.095C336.643 259.805 336.463 257.523 336.345 255.226C336.1 250.657 336.04 246.082 336.165 241.503C336.234 238.875 336.366 236.249 336.56 233.625C336.56 233.182 335.867 233.182 335.867 233.625H335.839Z" fill="#423736"/>
<path d="M292.724 186.298C297.573 185.011 302.422 183.711 307.465 183.372C312.508 183.033 317.593 183.877 322.602 184.458L331.268 185.461C331.711 185.509 331.704 184.818 331.268 184.769C326.121 184.174 320.981 183.545 315.833 182.985C313.334 182.674 310.814 182.556 308.296 182.632C305.777 182.769 303.271 183.097 300.801 183.614C298.03 184.174 295.259 184.901 292.537 185.627C292.491 185.639 292.449 185.66 292.411 185.689C292.374 185.718 292.343 185.753 292.319 185.794C292.296 185.835 292.281 185.88 292.274 185.927C292.268 185.973 292.272 186.021 292.284 186.066C292.296 186.111 292.317 186.154 292.346 186.191C292.375 186.229 292.411 186.26 292.451 186.283C292.492 186.307 292.537 186.322 292.584 186.328C292.631 186.334 292.678 186.331 292.724 186.319V186.298Z" fill="#423736"/>
<path d="M291.982 187.954L299.533 186.384C302.024 185.804 304.544 185.358 307.083 185.049C309.624 184.844 312.179 184.918 314.704 185.27L322.393 186.211L331.108 187.283C331.551 187.338 331.544 186.647 331.108 186.591L315.583 184.682C313.062 184.302 310.51 184.168 307.963 184.281C305.415 184.522 302.886 184.931 300.392 185.505L291.836 187.29C291.4 187.38 291.587 188.044 292.023 187.982L291.982 187.954Z" fill="#423736"/>
<path d="M325.352 197.807C328.642 202.69 332.702 206.979 336.9 211.088C338.098 212.256 339.304 213.412 340.516 214.546C340.834 214.85 341.326 214.366 341.008 214.055C336.796 210.029 332.577 205.983 328.919 201.445C327.873 200.152 326.841 198.81 325.948 197.434C325.698 197.067 325.102 197.434 325.352 197.779V197.807Z" fill="#423736"/>
<path d="M339.241 219.286C335.777 224.992 329.744 228.485 323.599 230.719C321.708 231.411 319.775 231.999 317.836 232.552C317.744 232.577 317.665 232.637 317.618 232.72C317.571 232.802 317.558 232.9 317.583 232.992C317.608 233.083 317.668 233.161 317.75 233.209C317.833 233.256 317.931 233.269 318.023 233.244C324.673 231.363 331.427 228.859 336.442 223.913C337.743 222.638 338.883 221.21 339.837 219.659C340.072 219.279 339.47 218.933 339.241 219.313V219.286Z" fill="#423736"/>
<path d="M338.492 225.402C337.884 226.895 337.062 228.293 336.054 229.552C336.022 229.584 335.996 229.622 335.979 229.664C335.961 229.707 335.952 229.752 335.952 229.797C335.952 229.843 335.961 229.888 335.979 229.93C335.996 229.972 336.022 230.011 336.054 230.043C336.086 230.075 336.125 230.101 336.167 230.118C336.209 230.136 336.254 230.145 336.3 230.145C336.346 230.145 336.391 230.136 336.433 230.118C336.475 230.101 336.514 230.075 336.546 230.043C337.629 228.686 338.51 227.182 339.164 225.575C339.188 225.486 339.176 225.391 339.131 225.311C339.085 225.231 339.01 225.172 338.922 225.146C338.833 225.126 338.74 225.139 338.66 225.184C338.581 225.229 338.521 225.301 338.492 225.388V225.402Z" fill="#423736"/>
<path d="M290.292 223.064C290.034 225.545 289.775 228.028 289.516 230.513C289.475 230.956 290.168 230.949 290.209 230.513C290.472 228.028 290.731 225.545 290.985 223.064C291.034 222.621 290.341 222.628 290.292 223.064Z" fill="#423736"/>
<path d="M346.964 249.525C346.309 258.609 345.235 267.647 343.743 276.639C343.318 279.161 342.856 281.677 342.358 284.185C342.275 284.614 342.947 284.801 343.05 284.365C344.768 275.419 346.078 266.406 346.978 257.327C347.241 254.735 347.472 252.135 347.671 249.525C347.671 249.082 346.978 249.089 346.978 249.525H346.964Z" fill="#423736"/>
<path d="M410.683 103.934L411.992 105.49C411.992 105.49 413.918 106.099 414.07 105.788C414.222 105.477 414.458 101.133 414.458 101.133L410.683 103.934Z" fill="#331C2E"/>
<path d="M439.349 100.137L440.021 105.49H443.138L443.595 104.363L439.349 100.137Z" fill="#331C2E"/>
<path d="M437.852 115.63C437.852 115.63 437.159 125.355 438.184 129.215C439.21 133.074 450.141 145.172 450.141 145.172C450.141 145.172 452.406 140.455 452.974 137.563C453.542 134.672 453.812 127.88 452.974 126.669C452.136 125.459 441.385 113.043 441.385 113.043L437.852 115.63Z" fill="#E3E4D2"/>
<path d="M444.059 110.367C444.785 112.361 445.821 114.228 447.128 115.901C449.033 118.121 451.458 119.318 451.035 121.483C450.613 123.648 452.088 128.192 451.084 131.623C450.537 133.539 449.842 135.41 449.005 137.218C449.005 137.218 442.134 131.062 440.651 126.269C439.169 121.476 440.651 113.501 440.651 113.501L444.059 110.367Z" fill="white"/>
<path d="M416.724 109.583C417.694 112.62 416.821 115.615 414.77 116.272C412.72 116.929 410.267 114.999 409.298 111.962C408.328 108.926 409.194 105.931 411.244 105.274C413.295 104.617 415.761 106.526 416.724 109.583Z" fill="#E5A183"/>
<path d="M438.06 109.364C437.09 112.401 437.928 115.382 439.93 116.018C441.932 116.654 444.35 114.718 445.327 111.681C446.303 108.645 445.465 105.664 443.456 105.027C441.447 104.391 439.037 106.328 438.06 109.364Z" fill="#E5A183"/>
<path d="M435.635 119.504L438.032 139.044H419.626L420.222 120.14L435.635 119.504Z" fill="#E5A183"/>
<path d="M435.573 93.0182C433.64 91.6835 431.413 90.8341 429.082 90.5419C421.282 89.4698 414.985 93.9035 413.779 101.201C412.574 108.498 413.183 120.976 420.014 125.569C426.713 130.051 435.483 126.849 438.406 120.99C439.909 117.96 440.422 112.932 440.741 108.872C441.219 103.124 439.882 95.9993 435.573 93.0182Z" fill="#FFBD9A"/>
<path d="M430.467 424.993H392.408C390.33 424.993 390.288 421.389 392.408 420.843L402.051 418.422L411.673 416.16H429.4C431.229 421.922 430.467 424.993 430.467 424.993Z" fill="#B14030"/>
<path d="M429.38 416.19L427.572 404.078L411.549 404.708L411.653 416.19H429.38Z" fill="#FFBD9A"/>
<path d="M490.278 424.993H466.337C464.259 424.993 463.324 421.389 465.298 420.843L469.282 416.16H487.009C491.719 420.594 490.278 424.993 490.278 424.993Z" fill="#B14030"/>
<path d="M487.008 416.19L482.208 404.078L466.337 404.708L469.288 416.19H487.008Z" fill="#FFBD9A"/>
<path d="M410.565 105.075C410.565 105.075 416.856 96.6983 425.113 96.6153C433.37 96.5323 438.968 98.5036 442.923 104.916L444.246 105.469C444.246 105.469 444.62 96.1657 444.246 94.0215C443.872 91.8772 439.079 87.5057 435.241 84.7528C431.625 82.1452 428.313 79.9111 420.201 83.6669C412.09 87.4228 410.545 92.1193 409.568 96.1657C408.141 102.19 410.565 105.075 410.565 105.075Z" fill="white"/>
<path d="M442.057 116.073C441.947 118.414 442.254 120.757 442.965 122.99C443.745 125.213 444.804 127.328 446.117 129.285C446.359 129.658 446.955 129.285 446.712 128.932C445.433 127.025 444.397 124.967 443.63 122.803C442.94 120.634 442.642 118.36 442.75 116.087C442.75 115.638 442.057 115.638 442.057 116.087V116.073Z" fill="#DDB8AB"/>
<path d="M442.743 115.213C442.725 116.741 443.017 118.256 443.602 119.667C444.267 121.082 445.094 122.414 446.068 123.638C446.331 123.997 446.927 123.638 446.664 123.292C445.744 122.121 444.947 120.857 444.288 119.522C443.706 118.161 443.415 116.693 443.436 115.213C443.436 115.121 443.399 115.033 443.334 114.968C443.269 114.904 443.181 114.867 443.089 114.867C442.997 114.867 442.909 114.904 442.844 114.968C442.779 115.033 442.743 115.121 442.743 115.213Z" fill="#DDB8AB"/>
<path d="M439.244 92.9815C441.367 96.0958 442.42 99.8147 442.243 103.578C442.243 104.028 442.936 104.028 442.936 103.578C443.118 99.69 442.031 95.8478 439.84 92.6288C439.59 92.2622 438.988 92.6288 439.244 92.9815Z" fill="#DDB8AB"/>
<path d="M442.403 94.6654C442.727 97.7438 442.806 100.843 442.638 103.934C442.638 104.384 443.331 104.384 443.331 103.934C443.499 100.843 443.42 97.7438 443.096 94.6654C443.047 94.2296 442.354 94.2227 442.403 94.6654Z" fill="#DDB8AB"/>
<path d="M422.737 138.699L415.92 132.563C415.92 132.563 397.105 136.769 387.13 148.092C383.036 152.74 392.859 183.036 392.859 183.036C392.859 183.036 387.781 205.771 387.601 208.351C387.421 210.931 390.573 216.783 390.573 216.783H452.005C452.005 216.783 456.161 220.726 458.309 219.501C460.456 218.277 466.331 214.072 466.331 214.072C466.331 214.072 473.487 219.833 477.359 219.737C481.232 219.64 493.133 208.455 493.417 206.02C493.701 203.586 491.99 191.599 491.131 189.233C490.272 186.868 486.115 186.148 486.115 186.148C486.115 186.148 487.258 176.852 486.808 175.282C486.358 173.712 477.068 156.06 473.14 150.845C462.86 137.198 445.86 134.424 445.86 134.424L440.97 128.074L422.737 138.699Z" fill="white"/>
<path d="M387.13 148.09C380.113 154.433 375.353 163.86 372.714 168.024C371.64 169.74 360.875 190.712 360.307 193.956C359.739 197.2 358.416 214.706 360.217 217.591C360.217 217.591 356.913 220.835 357.557 222.363C358.201 223.892 361.069 228.588 361.069 228.588C361.069 228.588 360.307 233.804 361.069 234.952C361.831 236.1 368.897 230.449 371.377 230.449H381.692C381.692 230.449 383.41 229.411 382.454 224.362C382.454 224.362 384.532 217.445 383.985 216.269C383.438 215.094 381.907 209.595 381.907 209.595L393.746 185.572L387.13 148.09Z" fill="white"/>
<path d="M391.84 298.918C391.84 298.918 403.866 377.162 405.916 407.34H433.979L426.761 300.488L391.84 298.918Z" fill="#615D5C"/>
<path d="M390.573 216.794L391.619 220.847L393.697 224.368H390.552L389.707 227.17V229.805C389.707 229.805 452.545 225.198 452.545 225.765C452.545 226.333 451.998 216.773 451.998 216.773L390.573 216.794Z" fill="#825B4A"/>
<path d="M424.689 291.254C424.689 291.254 446.947 359.911 462.866 407.34H489.842C489.842 407.34 467.736 329.49 461.245 291.254H424.689Z" fill="#615D5C"/>
<path d="M452.552 225.191C452.552 225.191 464.329 272.295 467.792 310.013H389.707C389.707 310.013 382.641 260.301 389.707 229.777L452.552 225.191Z" fill="#825B4A"/>
<path d="M366.805 232.406C366.805 232.406 371.238 241.806 373.24 245.237C375.242 248.668 378.824 248.813 380.978 247.381L385.225 251.718L386.714 253.579C386.828 253.723 386.97 253.844 387.131 253.933C387.292 254.022 387.469 254.079 387.653 254.099C387.836 254.119 388.021 254.102 388.198 254.05C388.374 253.997 388.539 253.91 388.681 253.793L389.236 253.344L389.665 253.738C389.944 253.994 390.303 254.147 390.681 254.171C391.059 254.195 391.434 254.088 391.743 253.869C392.065 253.634 392.292 253.29 392.382 252.902C392.472 252.514 392.42 252.106 392.235 251.753L390.919 249.242L391.348 249.671C391.571 249.893 391.857 250.041 392.168 250.093C392.478 250.145 392.797 250.099 393.08 249.961L393.42 249.795C393.737 249.64 393.989 249.378 394.132 249.056C394.276 248.733 394.3 248.37 394.202 248.031L393.018 243.812C393.018 243.812 391.016 239.821 389.679 238.279C388.342 236.736 380.604 236.204 380.604 236.204L379.406 229.819C379.406 229.819 370.615 228.076 366.805 232.406Z" fill="#FFBD9A"/>
<path d="M421.738 139.382L415.157 145.814L413.557 147.377C413.433 147.495 413.315 147.716 413.148 147.626C412.982 147.537 412.948 147.274 412.892 147.177L412.303 146.126L410.066 142.155L407.489 137.59C407.441 137.513 407.365 137.458 407.277 137.436C407.189 137.414 407.095 137.428 407.017 137.474C406.939 137.52 406.882 137.595 406.859 137.683C406.836 137.771 406.848 137.864 406.893 137.943L411.832 146.7L412.421 147.751C412.567 148 412.705 148.29 412.989 148.401C413.108 148.44 413.235 148.447 413.356 148.42C413.478 148.394 413.591 148.334 413.682 148.249C414.001 147.993 414.285 147.668 414.576 147.384L418.205 143.836L422.258 139.873C422.315 139.807 422.346 139.722 422.343 139.635C422.34 139.548 422.305 139.465 422.243 139.403C422.182 139.341 422.099 139.304 422.012 139.3C421.925 139.296 421.84 139.325 421.773 139.382H421.738Z" fill="#DDB8AB"/>
<path d="M422.494 139.397L429.041 149.15C429.068 149.195 429.105 149.233 429.148 149.262C429.192 149.291 429.242 149.309 429.294 149.316C429.346 149.322 429.399 149.317 429.449 149.3C429.499 149.284 429.544 149.256 429.581 149.219C433.516 145.401 437.615 141.763 441.877 138.304C443.115 137.294 444.369 136.303 445.639 135.33C445.985 135.06 445.639 134.458 445.293 134.735C440.901 138.111 436.663 141.675 432.581 145.429C431.403 146.512 430.249 147.612 429.117 148.728L429.664 148.804L423.118 139.044C422.875 138.678 422.273 139.044 422.522 139.397H422.494Z" fill="#DDB8AB"/>
<path d="M457.124 190.115C456.662 191.083 456.186 192.052 455.697 193.02C455.2 193.827 454.87 194.726 454.727 195.662C454.623 197.281 455.815 198.595 456.674 199.813C456.93 200.15 457.143 200.517 457.311 200.905C457.456 201.438 457.456 201.999 457.311 202.531C457.131 203.61 456.951 204.682 456.764 205.761C456.625 206.591 456.362 207.449 457.124 208.051C457.886 208.652 458.828 209.226 459.673 209.807L465.645 213.902C466.012 214.158 466.337 213.556 465.991 213.307L461.003 209.849L458.544 208.161C458.104 207.945 457.707 207.649 457.373 207.29C457.138 206.895 457.373 206.252 457.45 205.823L457.948 202.856C458.189 202.03 458.152 201.148 457.844 200.345C457.152 198.962 455.849 197.91 455.489 196.382C455.24 195.324 455.773 194.39 456.223 193.47L457.734 190.406C457.927 190.011 457.332 189.659 457.131 190.06L457.124 190.115Z" fill="#DDB8AB"/>
<path d="M470.972 185.973C472.281 185.779 473.66 185.676 474.533 186.838C474.86 187.338 475.241 187.802 475.669 188.221C476.119 188.62 476.631 188.942 477.186 189.176C477.709 189.394 478.263 189.532 478.828 189.584C479.521 189.646 480.269 189.466 480.996 189.494C482.472 189.556 483.351 190.877 483.836 192.122C484.439 193.685 484.896 195.318 485.409 196.909C485.547 197.331 486.212 197.151 486.102 196.729C485.603 195.179 485.152 193.602 484.584 192.081C484.407 191.442 484.101 190.845 483.687 190.327C483.273 189.809 482.758 189.38 482.174 189.065C481.488 188.809 480.747 188.739 480.026 188.864C479.329 188.947 478.623 188.89 477.948 188.698C477.31 188.504 476.721 188.173 476.223 187.73C475.752 187.239 475.316 186.714 474.921 186.16C473.896 184.963 472.261 185.108 470.854 185.316C470.411 185.385 470.598 186.049 471.035 186.008L470.972 185.973Z" fill="#DDB8AB"/>
<path d="M476.41 188.838C478.682 194.89 479.181 201.392 479.257 207.804C479.257 209.609 479.257 211.415 479.257 213.227L479.693 212.895C479.339 212.786 478.965 212.751 478.596 212.793C478.227 212.835 477.871 212.952 477.55 213.138C477.228 213.323 476.949 213.574 476.729 213.872C476.509 214.171 476.353 214.512 476.271 214.873C476.147 215.406 475.994 215.772 475.412 215.897C474.952 215.954 474.487 215.954 474.027 215.897C472.854 215.841 471.692 215.65 470.563 215.33C470.471 215.306 470.374 215.319 470.292 215.367C470.21 215.415 470.151 215.494 470.127 215.586C470.103 215.677 470.116 215.775 470.165 215.857C470.213 215.938 470.291 215.998 470.383 216.021C471.431 216.315 472.505 216.503 473.59 216.582C474.422 216.644 475.502 216.775 476.237 216.291C476.971 215.807 476.798 214.832 477.324 214.216C477.581 213.902 477.926 213.671 478.315 213.555C478.704 213.439 479.119 213.443 479.506 213.566C479.558 213.58 479.612 213.581 479.664 213.571C479.717 213.561 479.766 213.539 479.809 213.507C479.851 213.475 479.886 213.434 479.911 213.387C479.935 213.339 479.948 213.287 479.95 213.234C479.95 206.801 480.005 200.286 478.627 193.97C478.236 192.167 477.715 190.394 477.068 188.665C476.916 188.25 476.244 188.43 476.375 188.845L476.41 188.838Z" fill="#DDB8AB"/>
<path d="M387.254 155.928C387.337 159.912 387.254 163.896 387.337 167.88C387.337 169.955 387.15 172.148 388.03 174.05C388.487 175.025 389.055 175.938 389.505 176.921C389.939 177.878 390.312 178.862 390.621 179.867C391.33 182.149 391.713 184.52 391.757 186.908C391.757 187 391.793 187.088 391.858 187.153C391.923 187.218 392.011 187.254 392.103 187.254C392.195 187.254 392.283 187.218 392.348 187.153C392.413 187.088 392.449 187 392.449 186.908C392.368 182.716 391.278 178.605 389.27 174.922C388.693 174.007 388.307 172.986 388.134 171.92C388.016 170.841 388.044 169.741 388.03 168.662C388.03 166.704 388.03 164.747 388.03 162.789C388.03 160.507 388.03 158.217 387.967 155.928C387.967 155.836 387.931 155.748 387.866 155.683C387.801 155.618 387.713 155.582 387.621 155.582C387.529 155.582 387.441 155.618 387.376 155.683C387.311 155.748 387.275 155.836 387.275 155.928H387.254Z" fill="#DDB8AB"/>
<path d="M360.854 214.127C365.256 210.462 370.813 208.468 376.545 208.496C376.637 208.496 376.725 208.46 376.79 208.395C376.855 208.33 376.891 208.242 376.891 208.151C376.891 208.059 376.855 207.971 376.79 207.906C376.725 207.841 376.637 207.805 376.545 207.805C370.629 207.793 364.899 209.871 360.369 213.67C360.03 213.954 360.522 214.445 360.861 214.161L360.854 214.127Z" fill="#DDB8AB"/>
<path d="M359.85 218.94C362.617 217.106 365.621 215.657 368.779 214.631C370.284 214.105 371.861 213.816 373.455 213.773C374.252 213.761 375.045 213.868 375.81 214.091C376.553 214.373 377.273 214.71 377.965 215.101C378.694 215.42 379.492 215.551 380.285 215.481C381.084 215.333 381.91 215.452 382.634 215.82C383.001 216.076 383.327 215.474 382.98 215.225C381.678 214.34 380.098 215.115 378.699 214.658C377.937 214.409 377.314 213.904 376.545 213.614C375.789 213.327 374.996 213.154 374.189 213.102C370.927 212.867 367.588 214.167 364.671 215.481C362.875 216.298 361.147 217.255 359.503 218.345C359.129 218.587 359.503 219.189 359.85 218.94Z" fill="#DDB8AB"/>
<path d="M449.088 214.927C452.804 215.339 456.565 214.846 460.047 213.488C460.456 213.322 460.283 212.658 459.867 212.796C456.44 214.125 452.74 214.6 449.088 214.18C448.652 214.124 448.652 214.816 449.088 214.871V214.927Z" fill="#DDB8AB"/>
<path d="M398.581 176.842C396.652 182.533 394.169 188.021 391.168 193.228C391.133 193.306 391.128 193.394 391.154 193.476C391.18 193.558 391.236 193.627 391.31 193.67C391.384 193.713 391.472 193.727 391.555 193.709C391.639 193.691 391.714 193.643 391.764 193.574C394.798 188.315 397.307 182.771 399.253 177.022C399.391 176.6 398.726 176.42 398.56 176.842H398.581Z" fill="#DDB8AB"/>
<path d="M464.938 162.498C465.131 167.963 465.328 173.427 465.526 178.891C465.526 179.334 466.219 179.341 466.219 178.891C466.025 173.427 465.829 167.963 465.63 162.498C465.63 162.406 465.594 162.318 465.529 162.254C465.464 162.189 465.376 162.152 465.284 162.152C465.192 162.152 465.104 162.189 465.039 162.254C464.974 162.318 464.938 162.406 464.938 162.498Z" fill="#DDB8AB"/>
<path d="M394.487 223.714L416.433 223.361L438.462 223.002L450.813 222.801C450.905 222.801 450.994 222.765 451.058 222.7C451.123 222.635 451.16 222.547 451.16 222.455C451.16 222.363 451.123 222.276 451.058 222.211C450.994 222.146 450.905 222.109 450.813 222.109L428.875 222.469L406.838 222.822L394.487 223.022C394.395 223.022 394.307 223.059 394.242 223.124C394.177 223.189 394.141 223.277 394.141 223.368C394.141 223.46 394.177 223.548 394.242 223.613C394.307 223.678 394.395 223.714 394.487 223.714Z" fill="#593A2F"/>
<path d="M394.854 225.353C402.127 224.845 409.41 224.437 416.703 224.128C423.995 223.819 431.259 223.603 438.496 223.478C442.597 223.409 446.703 223.372 450.813 223.367C450.905 223.367 450.993 223.331 451.058 223.266C451.123 223.201 451.159 223.113 451.159 223.022C451.159 222.93 451.123 222.842 451.058 222.777C450.993 222.712 450.905 222.676 450.813 222.676C443.516 222.676 436.222 222.784 428.929 223.001C421.637 223.218 414.377 223.517 407.15 223.9C403.049 224.121 398.95 224.375 394.854 224.661C394.41 224.661 394.403 225.353 394.854 225.353Z" fill="#593A2F"/>
<path d="M392.387 229.481C400.391 229.813 408.389 230.094 416.384 230.325C424.378 230.556 432.381 230.733 440.394 230.858C444.883 230.927 449.374 230.982 453.868 231.024C453.96 231.024 454.048 230.987 454.113 230.922C454.178 230.857 454.214 230.769 454.214 230.678C454.214 230.586 454.178 230.498 454.113 230.433C454.048 230.368 453.96 230.332 453.868 230.332C445.869 230.263 437.865 230.14 429.857 229.965C421.849 229.79 413.848 229.559 405.854 229.274C401.365 229.112 396.876 228.942 392.387 228.762C391.944 228.762 391.944 229.453 392.387 229.453V229.481Z" fill="#593A2F"/>
<path d="M396.011 233.396C405.72 232.609 415.467 232.378 425.203 232.704C427.974 232.801 430.719 232.942 433.439 233.126C433.883 233.126 433.883 232.435 433.439 232.435C423.722 231.783 413.975 231.689 404.247 232.151C401.476 232.28 398.731 232.455 396.011 232.677C395.574 232.677 395.567 233.369 396.011 233.369V233.396Z" fill="#593A2F"/>
<path d="M399.966 260.752C404.384 268.043 409.713 274.744 415.823 280.694C421.928 286.645 428.754 291.813 436.141 296.077C440.284 298.457 444.592 300.537 449.033 302.302C449.441 302.468 449.622 301.797 449.213 301.61C441.357 298.472 433.931 294.352 427.114 289.347C420.326 284.359 414.183 278.551 408.826 272.055C405.804 268.373 403.049 264.48 400.583 260.406C400.535 260.329 400.459 260.274 400.371 260.252C400.282 260.231 400.189 260.244 400.111 260.291C400.033 260.337 399.976 260.412 399.953 260.5C399.93 260.587 399.942 260.68 399.987 260.759L399.966 260.752Z" fill="#593A2F"/>
<path d="M459.756 279.558C460.169 286.397 459.372 293.255 457.401 299.818C456.839 301.671 456.188 303.497 455.447 305.282C455.281 305.697 455.953 305.877 456.14 305.469C458.771 299.091 460.257 292.301 460.532 285.41C460.608 283.445 460.587 281.488 460.469 279.523C460.469 279.081 459.777 279.081 459.777 279.523L459.756 279.558Z" fill="#593A2F"/>
<path d="M388.197 243.69L391.176 249.638C391.37 250.032 391.972 249.687 391.771 249.285L388.793 243.337C388.599 242.936 387.996 243.288 388.197 243.69Z" fill="#CE8D6F"/>
<path d="M385.149 241.247C386.33 241.917 387.372 242.806 388.217 243.868C388.283 243.933 388.371 243.97 388.463 243.97C388.555 243.97 388.644 243.933 388.709 243.868C388.774 243.803 388.811 243.715 388.811 243.623C388.811 243.53 388.774 243.442 388.709 243.377C387.821 242.273 386.73 241.348 385.495 240.652C385.417 240.617 385.328 240.611 385.247 240.638C385.165 240.664 385.096 240.719 385.053 240.793C385.01 240.867 384.996 240.954 385.013 241.038C385.031 241.122 385.079 241.196 385.149 241.247Z" fill="#CE8D6F"/>
<path d="M382.246 244.296C385.239 246.717 387.095 250.148 388.869 253.482C389.076 253.876 389.679 253.53 389.464 253.136C387.663 249.747 385.772 246.261 382.738 243.805C382.399 243.529 381.9 244.013 382.246 244.296Z" fill="#CE8D6F"/>
<path d="M377.182 237.007C378.689 236.651 380.246 236.567 381.782 236.758C381.969 236.758 382.129 236.585 382.129 236.412C382.125 236.321 382.088 236.235 382.023 236.171C381.959 236.107 381.873 236.069 381.782 236.066C380.183 235.875 378.563 235.966 376.995 236.336C376.566 236.439 376.746 237.11 377.182 237.027V237.007Z" fill="#CE8D6F"/>
<path d="M379.413 246.496L380.563 247.346C380.601 247.372 380.644 247.389 380.69 247.395C380.736 247.401 380.782 247.396 380.826 247.381C380.912 247.358 380.985 247.303 381.034 247.229C381.068 247.142 381.068 247.046 381.034 246.959C381.006 246.874 380.949 246.801 380.874 246.752L379.731 245.894C379.649 245.848 379.552 245.836 379.461 245.859C379.374 245.884 379.3 245.941 379.253 246.018C379.219 246.105 379.219 246.201 379.253 246.288C379.283 246.372 379.339 246.445 379.413 246.496Z" fill="#CE8D6F"/>
<path d="M442.161 169.96C441.886 169.96 441.616 169.879 441.388 169.725C441.159 169.572 440.981 169.354 440.877 169.1C440.773 168.845 440.747 168.565 440.803 168.296C440.859 168.027 440.994 167.78 441.191 167.588L488.02 121.846C488.148 121.71 488.303 121.6 488.474 121.524C488.646 121.449 488.831 121.408 489.018 121.406C489.206 121.404 489.392 121.44 489.565 121.512C489.738 121.584 489.895 121.69 490.026 121.824C490.157 121.958 490.259 122.117 490.327 122.291C490.394 122.466 490.425 122.653 490.419 122.84C490.412 123.027 490.367 123.211 490.287 123.38C490.207 123.549 490.093 123.701 489.953 123.825L443.131 169.559C442.873 169.815 442.525 169.959 442.161 169.96Z" fill="#AAAAAA"/>
<path d="M442.161 170.653C441.747 170.653 441.344 170.53 441.001 170.299C440.658 170.068 440.392 169.741 440.236 169.359C440.081 168.976 440.043 168.556 440.128 168.152C440.213 167.748 440.417 167.379 440.713 167.091L459.285 148.948C459.478 148.747 459.709 148.587 459.965 148.477C460.221 148.367 460.497 148.31 460.776 148.309C461.055 148.307 461.331 148.362 461.588 148.469C461.845 148.577 462.078 148.735 462.273 148.934C462.467 149.133 462.62 149.369 462.721 149.628C462.823 149.887 462.871 150.164 462.863 150.443C462.855 150.721 462.791 150.995 462.675 151.248C462.559 151.501 462.393 151.728 462.188 151.916L443.615 170.058C443.227 170.439 442.705 170.653 442.161 170.653Z" fill="#70353B"/>
<path d="M460.442 167.719C460.609 167.989 460.775 168.265 460.955 168.549L460.442 167.719Z" fill="#FFBD9A"/>
<path d="M452.746 171.875C447.619 166.722 445.936 164.225 446.151 162.067C446.331 160.22 448.499 157.675 450.176 156.458C450.427 156.269 450.696 156.105 450.979 155.967C451.623 155.669 452.69 155.918 453.75 156.326C454.977 156.952 456.162 157.657 457.297 158.436L458.045 158.886C458.045 158.886 458.177 159.045 458.385 159.321C459.299 161.832 460.712 167.061 460.705 167.096C460.698 167.13 460.899 168.41 460.92 168.583C460.504 170.001 459.569 169.517 459.569 169.517C459.569 169.517 453.099 172.304 452.746 171.875Z" fill="#FFBD9A"/>
<path d="M454.921 171.27C454.921 171.27 453.23 172.12 452.711 171.878C450.681 170.958 443.754 164.629 445.347 160.32C446.94 156.011 449.594 155.112 450.141 156.461C450.209 156.598 450.269 156.738 450.321 156.883C450.321 156.82 450.252 156.668 450.176 156.426C449.552 154.572 451.852 151.211 452.863 153.784C452.406 152.615 452.254 151.204 453.23 150.533C454.207 149.862 455.468 151.176 456.313 153.092C457.034 154.737 457.604 156.443 458.017 158.19C458.017 158.19 458.177 158.619 458.419 159.303C459.333 161.814 460.747 167.043 460.74 167.078L460.435 167.728L459.611 169.506L454.921 171.27Z" fill="#FFBD9A"/>
<path d="M456.854 154.411C456.854 154.411 458.281 154.058 458.973 154.743C460.03 156.224 460.854 157.857 461.419 159.585C461.571 160.429 460.954 168.577 460.954 168.577L456.854 154.411Z" fill="#FFBD9A"/>
<path d="M460.948 168.558C460.948 168.558 464.751 177.079 473.632 188.997C473.632 188.997 473.057 205.3 472.295 206.635C471.533 207.97 468.568 210.093 467.757 210.252C466.947 210.412 463.469 208.399 462.493 206.794C458.336 200.119 455.69 181.637 452.483 172.839C449.275 164.041 460.948 168.558 460.948 168.558Z" fill="#FFBD9A"/>
<path d="M456.708 154.668C457.566 156.059 458.095 157.628 458.253 159.254C458.294 159.697 458.987 159.704 458.945 159.254C458.783 157.507 458.221 155.82 457.304 154.323C457.075 153.942 456.472 154.323 456.708 154.668Z" fill="#CE8D6F"/>
<path d="M452.746 154.294L453.515 156.577C453.527 156.622 453.548 156.665 453.576 156.702C453.604 156.74 453.64 156.771 453.68 156.795C453.721 156.819 453.766 156.835 453.812 156.841C453.859 156.847 453.906 156.845 453.951 156.833C453.997 156.821 454.04 156.8 454.077 156.772C454.115 156.744 454.146 156.709 454.17 156.668C454.194 156.628 454.209 156.583 454.216 156.536C454.222 156.49 454.22 156.443 454.208 156.397L453.439 154.108C453.413 154.021 453.355 153.947 453.276 153.902C453.197 153.857 453.104 153.844 453.016 153.866C452.928 153.891 452.853 153.951 452.808 154.031C452.762 154.111 452.75 154.205 452.774 154.294H452.746Z" fill="#CE8D6F"/>
<path d="M449.92 156.674C450.033 157.464 450.25 158.236 450.564 158.97C450.612 159.049 450.688 159.107 450.778 159.13C450.867 159.153 450.962 159.141 451.042 159.095C451.12 159.046 451.176 158.97 451.199 158.881C451.222 158.792 451.211 158.698 451.167 158.618C450.883 157.935 450.688 157.219 450.585 156.487C450.573 156.444 450.552 156.403 450.524 156.368C450.497 156.333 450.462 156.303 450.423 156.281C450.383 156.259 450.34 156.245 450.295 156.24C450.251 156.235 450.205 156.239 450.162 156.252C450.074 156.276 450 156.334 449.954 156.413C449.909 156.492 449.896 156.586 449.92 156.674Z" fill="#CE8D6F"/>
<path d="M446.996 157.725C446.872 158.925 447.058 160.137 447.537 161.245C447.584 161.324 447.661 161.382 447.75 161.405C447.84 161.428 447.935 161.416 448.015 161.37C448.093 161.321 448.149 161.245 448.172 161.156C448.195 161.067 448.183 160.973 448.139 160.893C447.722 159.892 447.567 158.802 447.689 157.725C447.689 157.633 447.653 157.545 447.588 157.48C447.523 157.415 447.435 157.379 447.343 157.379C447.251 157.381 447.164 157.418 447.1 157.482C447.035 157.547 446.998 157.634 446.996 157.725Z" fill="#CE8D6F"/>
<path d="M473.161 105.85C475.577 103.743 478.729 102.672 481.931 102.871C485.133 103.07 488.127 104.523 490.263 106.914C492.398 109.305 493.502 112.441 493.335 115.64C493.169 118.84 491.744 121.844 489.371 124L473.161 105.85Z" fill="#AAAAAA"/>
<path d="M120.765 215.262C120.765 215.262 125.85 215.262 126.882 216.68C127.914 218.098 128.475 221.722 128.15 223.562C127.956 224.689 127.519 226.681 121.769 228.452L120.599 228.348L116.671 223.195C116.671 223.195 116.906 218.554 118.056 217.309C118.85 216.494 119.764 215.803 120.765 215.262Z" fill="#FFBD9A"/>
<path d="M120.599 228.345C120.599 228.345 124.208 227.695 129.39 224.195C130.552 223.385 131.401 222.201 131.794 220.84C131.794 220.84 131.648 218.703 130.353 219.609C129.341 220.301 128.448 221.041 128.448 221.041C128.448 221.041 129.473 220.211 130.332 219.346C132.791 216.856 131.558 214.062 129.334 215.999C126.792 218.212 126.986 217.735 126.986 217.735C126.986 217.735 128.039 217.659 129.757 215.501C131.475 213.342 129.577 211.191 127.478 213.426C126.426 214.613 125.191 215.627 123.82 216.427C123.82 216.427 125.511 215.162 127.284 213.515C129.854 211.108 131.752 209.262 132.493 207.851C133.879 205.208 132.237 204.392 130.63 206.024C126.723 210.071 121.119 214.802 121.119 214.802C121.119 214.802 119.733 214.906 117.752 217.154C114.558 220.771 117.676 226.325 117.676 226.325L120.599 228.345Z" fill="#FFBD9A"/>
<path d="M119.706 222.102C119.706 222.102 116.242 222.566 116.45 219.059C116.657 215.552 117.475 209.41 116.062 207.238C114.981 205.564 117.447 204.969 118.756 206.283C120.066 207.597 120.218 211.768 120.218 211.768L121.888 215.517L119.706 222.102Z" fill="#FFBD9A"/>
<path d="M36.7148 172.942C35.4471 177.023 34.5203 181.201 33.9438 185.434C32.884 193.043 35.17 213.275 25.728 222.412C17.6576 230.221 61.2655 227.696 69.0865 223.795C76.9075 219.894 73.5616 201.253 71.9475 188.72C70.3334 176.186 68.7747 172.016 68.7747 172.016" fill="#331C2E"/>
<path d="M124.956 261.65L110.63 255.391C110.63 255.391 103.703 243.791 98.23 236.238C92.7574 228.685 87.3124 220.232 84.1674 218.04C81.0224 215.847 71.8782 211.849 71.8782 211.849L69.6823 207.339L64.459 203.805H46.3925L41.0444 204.621L38.9662 211.946C38.9662 211.946 28.118 216.705 22.3405 221.837C21.6004 222.48 20.906 223.173 20.2623 223.912C18.3876 229.098 17.4904 234.586 17.6161 240.098C17.6784 252.472 21.1976 264.41 25.5411 275.885C27.6193 281.315 29.6975 286.952 30.0161 292.79C30.1538 295.014 29.941 297.245 29.3857 299.403C29.3857 300.343 29.3857 300.945 29.3857 300.945C29.3857 300.945 23.0679 313.437 31.3947 310.2C44.1064 305.247 73.4577 303.913 83.1699 303.601C84.8948 303.539 88.3724 301.291 88.2061 299.569C87.6034 293.51 86.5782 283.93 85.5252 278.299C84.5069 272.766 87.6034 265.012 87.07 262.065L107.312 277.483C107.312 277.483 115.701 281.516 120.474 277.954C125.247 274.391 124.956 261.65 124.956 261.65Z" fill="#FD8876"/>
<path d="M124.956 261.652L110.631 255.392C110.631 255.392 104.202 244.575 98.8055 237.035C97.5793 237.921 96.3809 238.861 95.2033 239.802C93.1666 241.485 91.1946 243.237 89.2873 245.059C88.0196 246.269 86.3431 247.487 86.0938 249.285C87.118 253.589 87.6066 258.003 87.5485 262.427L107.278 277.457C107.278 277.457 115.667 281.49 120.44 277.928C125.213 274.365 124.956 261.652 124.956 261.652Z" fill="#FFBD9A"/>
<path d="M43.9615 187.051C45.2292 189.707 44.8829 192.508 43.1787 193.325C41.4746 194.141 39.0708 192.633 37.8031 189.991C36.5354 187.348 36.8817 184.533 38.5859 183.717C40.29 182.901 42.6938 184.374 43.9615 187.051Z" fill="#E5A183"/>
<path d="M52.897 162.334C52.897 162.334 56.0905 160.335 60.4617 162.334C64.8329 164.333 67.9294 167.992 68.7745 172.017C69.6197 176.043 68.4212 184.108 68.4212 184.108L41.8825 187.442L38.1417 181.59C37.196 179.053 36.7264 176.364 36.7562 173.657C36.9363 169.742 43.4411 164.104 46.0804 162.541C48.7198 160.978 52.0796 161.296 52.897 162.334Z" fill="#331C2E"/>
<path d="M46.5586 208.051C48.5814 209.655 53.6592 213.778 55.9106 214.968L62.9765 212.547L62.5124 197.164L49.6551 196.617L46.5586 208.051Z" fill="#E5A183"/>
<path d="M42.6445 187.946C43.5174 191.315 43.8153 194.704 45.3532 196.938C48.8584 202.07 58.1203 204.547 63.8423 199.483C67.6731 196.087 68.2135 189.98 67.9987 184.024L66.3569 180.345C65.9933 177.245 64.5166 174.382 62.2005 172.286C57.7739 168.399 55.4117 170.903 55.4117 170.903C55.4117 170.903 50.6873 168.586 48.4843 174.424C46.3092 180.082 47.2859 184.64 42.6445 187.946Z" fill="#FFBD9A"/>
<path d="M62.1733 206.953L68.4357 215.751L61.6607 225.117L55.3291 214.665L62.1733 206.953Z" fill="#E5A183"/>
<path d="M73.7489 205.61C74.7118 211.144 77.6075 224.722 73.5757 231.604C69.544 238.486 64.5078 235.671 64.5078 235.671C64.5078 235.671 69.156 235.754 69.0244 227.572C68.8928 219.389 66.8354 209.221 66.8354 209.221C65.8586 203.252 67.8745 190.366 66.302 180.364C64.7295 170.362 69.1214 177.362 69.1214 177.362C69.1214 177.362 72.1902 196.591 73.7489 205.61Z" fill="#331C2E"/>
<path d="M116.456 223.891L109.487 256.912L124.263 268.615C124.263 268.615 125.649 256.331 126.522 239.267C127.395 222.203 126.522 225.724 126.522 225.724L116.456 223.891Z" fill="#FFBD9A"/>
<path d="M40.5664 212.764C45.0969 217.288 49.8191 221.611 54.7329 225.733C54.7826 225.78 54.8449 225.812 54.9122 225.824C54.9794 225.836 55.0488 225.829 55.1119 225.802C55.175 225.776 55.229 225.732 55.2675 225.675C55.306 225.619 55.3273 225.553 55.3287 225.484C55.2733 222.547 55.2224 219.605 55.1763 216.658L54.5251 216.831L60.8429 225.076C61.1061 225.422 61.7088 225.076 61.4386 224.723C59.3327 221.957 57.2291 219.208 55.1278 216.478C55.0889 216.413 55.0296 216.362 54.9588 216.334C54.8881 216.306 54.81 216.301 54.7366 216.322C54.6632 216.342 54.5987 216.386 54.5529 216.447C54.5072 216.508 54.4828 216.582 54.4835 216.658C54.5343 219.6 54.5852 222.542 54.636 225.484L55.2248 225.242C50.3202 221.124 45.5957 216.801 41.0513 212.273C40.9847 212.217 40.8993 212.188 40.8121 212.192C40.7249 212.196 40.6424 212.232 40.5811 212.294C40.5199 212.356 40.4844 212.439 40.4816 212.526C40.4789 212.614 40.5092 212.698 40.5664 212.764Z" fill="#CE5E52"/>
<path d="M81.1261 233.27C83.3439 238.515 84.9411 244.001 85.8852 249.615C86.1531 251.22 86.3678 252.834 86.5294 254.457C86.5779 254.893 87.2707 254.899 87.2222 254.457C86.66 248.735 85.4302 243.099 83.5576 237.663C83.0265 236.113 82.44 234.585 81.7981 233.077C81.6249 232.676 80.9529 232.855 81.1053 233.264L81.1261 233.27Z" fill="#CE5E52"/>
<path d="M26.9679 224.404C28.2072 224.678 29.3206 225.354 30.1337 226.327C30.9548 227.19 31.654 228.16 32.2119 229.212C33.1064 231.086 33.5793 233.133 33.5974 235.209C33.6667 236.592 33.6806 237.927 33.7291 239.29C33.7291 239.732 34.4218 239.732 34.4218 239.29C34.4489 236.897 34.2914 234.506 33.9507 232.137C33.4849 229.853 32.3911 227.743 30.7919 226.044C29.8681 224.882 28.5755 224.07 27.1273 223.74C26.6978 223.664 26.5038 224.335 26.9471 224.432L26.9679 224.404Z" fill="#CE5E52"/>
<path d="M81.8128 228.594C81.0715 230.599 80.6893 232.718 80.6836 234.854C80.6836 234.946 80.72 235.034 80.785 235.099C80.8499 235.164 80.9381 235.2 81.03 235.2C81.1218 235.2 81.2099 235.164 81.2749 235.099C81.3398 235.034 81.3763 234.946 81.3763 234.854C81.382 232.78 81.7573 230.724 82.4847 228.781C82.6371 228.359 81.9721 228.179 81.792 228.594H81.8128Z" fill="#CE5E52"/>
<path d="M67.3484 217.044C65.7966 219.16 64.2426 221.272 62.6862 223.38C62.423 223.739 63.0257 224.071 63.282 223.732L67.9441 217.396C68.2073 217.037 67.6116 216.705 67.3484 217.044Z" fill="#CE5E52"/>
<path d="M43.6218 205.834C47.3188 209.391 51.3797 212.551 55.7378 215.261C56.1118 215.497 56.4305 214.902 56.0841 214.667C51.779 211.987 47.7669 208.864 44.1136 205.35C43.7949 205.038 43.3031 205.529 43.6218 205.834Z" fill="#CE5E52"/>
<path d="M55.5996 215.156L60.7606 225.089C60.9684 225.483 61.5641 225.138 61.3563 224.736C59.6383 221.43 57.9181 218.122 56.1954 214.811C55.9946 214.416 55.3918 214.762 55.5996 215.156Z" fill="#CE5E52"/>
<path d="M62.8661 208.258L65.9211 211.357C65.987 211.414 66.072 211.444 66.1592 211.442C66.2464 211.439 66.3294 211.403 66.3915 211.342C66.4537 211.281 66.4904 211.199 66.4944 211.112C66.4983 211.025 66.4693 210.939 66.413 210.873C65.397 209.835 64.3763 208.8 63.3511 207.767C63.0393 207.449 62.5544 207.94 62.8661 208.258Z" fill="#CE5E52"/>
<path d="M304.216 39.4453H290.978V39.7912H304.216V39.4453Z" fill="#614E52"/>
<path d="M327.734 28.25H313.838V28.5958H327.734V28.25Z" fill="#614E52"/>
<path d="M327.734 42.6289H313.838V42.9748H327.734V42.6289Z" fill="#614E52"/>
<path d="M350.463 40.3789H336.566V40.7248H350.463V40.3789Z" fill="#614E52"/>
<path d="M239.646 424.999H231.333V288.425H73.4584V424.999H65.1455V280.125H239.646V424.999Z" fill="#8E5B49"/>
<path d="M109.723 255.211C109.661 255.212 109.601 255.196 109.547 255.166C109.493 255.136 109.449 255.091 109.418 255.038C106.107 249.048 102.491 243.134 98.6599 237.456C98.6336 237.418 98.6152 237.376 98.6055 237.331C98.5958 237.286 98.5951 237.24 98.6035 237.195C98.6118 237.15 98.6291 237.107 98.6543 237.068C98.6794 237.03 98.7119 236.997 98.7499 236.971C98.8274 236.921 98.9215 236.903 99.0121 236.921C99.1028 236.939 99.1827 236.992 99.2348 237.068C103.073 242.768 106.703 248.695 110.021 254.699C110.044 254.739 110.059 254.782 110.065 254.827C110.071 254.873 110.067 254.919 110.055 254.962C110.043 255.006 110.022 255.047 109.993 255.083C109.965 255.119 109.929 255.148 109.889 255.17C109.838 255.196 109.781 255.211 109.723 255.211Z" fill="#CE8D6F"/>
<path d="M121.243 214.949C121.183 214.949 121.124 214.934 121.072 214.905C121.02 214.876 120.976 214.834 120.945 214.783C120.898 214.703 120.885 214.609 120.907 214.52C120.929 214.431 120.985 214.354 121.063 214.305C123.212 212.877 125.159 211.167 126.854 209.221C127.993 207.986 129.198 206.813 130.463 205.708C130.497 205.678 130.537 205.656 130.58 205.642C130.624 205.628 130.669 205.622 130.714 205.626C130.759 205.63 130.803 205.643 130.844 205.664C130.884 205.685 130.919 205.714 130.948 205.749C130.978 205.784 131 205.823 131.014 205.866C131.028 205.91 131.033 205.955 131.03 206C131.026 206.045 131.013 206.089 130.992 206.129C130.97 206.169 130.941 206.205 130.906 206.233C129.663 207.323 128.48 208.477 127.36 209.692C125.622 211.683 123.626 213.432 121.423 214.893C121.369 214.929 121.307 214.948 121.243 214.949Z" fill="#CE8D6F"/>
<path d="M124.124 219.28C123.941 219.283 123.76 219.248 123.591 219.176C123.268 219 123.021 218.709 122.9 218.362C122.778 218.014 122.79 217.634 122.933 217.295C123.189 216.73 123.588 216.242 124.09 215.877L127.235 213.152C127.305 213.091 127.396 213.061 127.488 213.067C127.58 213.074 127.666 213.117 127.727 213.186C127.787 213.256 127.818 213.347 127.811 213.439C127.805 213.531 127.762 213.617 127.692 213.677L124.54 216.396C124.134 216.694 123.807 217.086 123.584 217.537C123.505 217.711 123.491 217.907 123.543 218.09C123.595 218.274 123.71 218.433 123.868 218.54C124.154 218.615 124.457 218.59 124.727 218.471C126.561 217.876 128.225 216.849 129.576 215.476C129.608 215.443 129.647 215.418 129.689 215.4C129.731 215.382 129.776 215.373 129.822 215.373C129.868 215.373 129.913 215.382 129.955 215.4C129.998 215.418 130.036 215.443 130.068 215.476C130.101 215.508 130.126 215.546 130.144 215.588C130.162 215.63 130.171 215.676 130.171 215.721C130.171 215.767 130.162 215.812 130.144 215.854C130.126 215.896 130.101 215.935 130.068 215.967C128.636 217.422 126.873 218.509 124.928 219.135C124.669 219.224 124.398 219.273 124.124 219.28Z" fill="#CE8D6F"/>
<path d="M109.251 256.401H109.148C109.06 256.372 108.987 256.311 108.945 256.229C108.902 256.148 108.893 256.053 108.919 255.965C112.287 245.406 114.778 234.589 116.366 223.622C116.38 223.532 116.428 223.452 116.5 223.397C116.573 223.343 116.664 223.319 116.754 223.331C116.845 223.343 116.927 223.391 116.983 223.463C117.039 223.536 117.064 223.628 117.052 223.718C115.458 234.723 112.96 245.577 109.584 256.172C109.559 256.24 109.514 256.299 109.454 256.34C109.395 256.381 109.324 256.402 109.251 256.401Z" fill="#CE8D6F"/>
<path d="M64.7574 252.168L64.1992 253.043L86.0935 266.965L86.6516 266.089L64.7574 252.168Z" fill="#CBD1DD"/>
<path d="M72.0135 250.244L71.2373 250.934L88.4945 270.294L89.2707 269.604L72.0135 250.244Z" fill="#CBD1DD"/>
<path d="M125.462 222.328C125.169 222.336 124.88 222.259 124.63 222.107C124.434 221.965 124.278 221.774 124.178 221.553C124.078 221.332 124.038 221.089 124.062 220.848C124.109 220.433 124.254 220.035 124.485 219.686C125.012 218.837 125.759 218.147 126.646 217.687C126.687 217.666 126.731 217.654 126.776 217.65C126.822 217.646 126.868 217.651 126.911 217.665C126.954 217.679 126.995 217.701 127.03 217.73C127.064 217.76 127.093 217.795 127.114 217.836C127.135 217.876 127.148 217.92 127.151 217.966C127.155 218.011 127.15 218.057 127.136 218.1C127.123 218.143 127.1 218.184 127.071 218.218C127.042 218.253 127.006 218.282 126.965 218.303C126.189 218.7 125.537 219.303 125.081 220.046C124.902 220.298 124.79 220.59 124.755 220.897C124.744 221.016 124.761 221.137 124.807 221.248C124.853 221.358 124.926 221.456 125.018 221.533C125.193 221.624 125.391 221.66 125.586 221.637C125.989 221.586 126.381 221.474 126.75 221.305C127.909 220.833 128.997 220.204 129.985 219.437C130.021 219.406 130.063 219.382 130.108 219.368C130.153 219.354 130.2 219.348 130.247 219.353C130.294 219.358 130.34 219.372 130.381 219.395C130.423 219.417 130.459 219.449 130.488 219.486C130.517 219.523 130.538 219.566 130.549 219.612C130.561 219.658 130.563 219.705 130.556 219.752C130.548 219.799 130.531 219.843 130.506 219.883C130.48 219.923 130.447 219.957 130.408 219.984C129.371 220.79 128.229 221.451 127.014 221.948C126.575 222.146 126.107 222.272 125.628 222.321L125.462 222.328Z" fill="#CE8D6F"/>
<path d="M121.499 227.999H121.409C120.893 227.829 120.451 227.487 120.158 227.029C119.865 226.572 119.739 226.028 119.802 225.488C119.87 224.984 120.042 224.498 120.308 224.064C120.574 223.629 120.928 223.255 121.347 222.964C121.383 222.936 121.424 222.917 121.468 222.905C121.512 222.894 121.558 222.892 121.603 222.898C121.648 222.904 121.692 222.92 121.731 222.943C121.77 222.966 121.804 222.997 121.832 223.033C121.859 223.069 121.879 223.111 121.89 223.155C121.901 223.199 121.904 223.244 121.897 223.289C121.891 223.334 121.876 223.378 121.852 223.417C121.829 223.456 121.799 223.49 121.762 223.517C121.424 223.753 121.136 224.055 120.917 224.404C120.698 224.754 120.552 225.143 120.488 225.551C120.443 225.927 120.526 226.307 120.725 226.63C120.924 226.952 121.226 227.198 121.582 227.328C121.674 227.339 121.758 227.386 121.815 227.459C121.872 227.532 121.898 227.624 121.887 227.716C121.876 227.807 121.829 227.891 121.756 227.948C121.683 228.005 121.591 228.031 121.499 228.02V227.999Z" fill="#CE8D6F"/>
<path d="M126.466 224.951C126.144 224.965 125.826 224.879 125.554 224.706C125.283 224.533 125.072 224.28 124.949 223.982C124.875 223.693 124.882 223.39 124.969 223.104C125.056 222.819 125.219 222.563 125.441 222.364C125.685 222.125 125.957 221.916 126.252 221.741C126.369 221.658 126.494 221.582 126.612 221.492C126.686 221.438 126.779 221.416 126.87 221.43C126.961 221.444 127.043 221.494 127.097 221.568C127.151 221.643 127.173 221.735 127.159 221.826C127.145 221.917 127.095 221.998 127.021 222.052L126.633 222.315C126.383 222.467 126.151 222.646 125.94 222.848C125.812 222.961 125.714 223.105 125.658 223.266C125.601 223.427 125.586 223.6 125.614 223.768C125.698 223.935 125.832 224.071 125.997 224.158C126.162 224.245 126.351 224.278 126.536 224.252C127.007 224.181 127.458 224.011 127.859 223.754L130.089 222.537C130.129 222.514 130.173 222.499 130.219 222.494C130.264 222.488 130.311 222.492 130.355 222.505C130.399 222.518 130.439 222.54 130.475 222.569C130.51 222.598 130.539 222.634 130.56 222.675C130.583 222.714 130.598 222.758 130.603 222.803C130.608 222.848 130.604 222.893 130.591 222.937C130.578 222.98 130.557 223.02 130.528 223.055C130.498 223.09 130.462 223.118 130.422 223.138L128.191 224.363C127.704 224.675 127.152 224.874 126.577 224.944L126.466 224.951Z" fill="#CE8D6F"/>
<path d="M114.773 279.976C110.679 279.976 106.404 277.749 103.689 275.231C103.657 275.199 103.631 275.162 103.613 275.12C103.596 275.079 103.587 275.034 103.587 274.989C103.587 274.944 103.596 274.899 103.613 274.857C103.631 274.816 103.657 274.778 103.689 274.747C103.72 274.714 103.757 274.687 103.799 274.669C103.841 274.651 103.886 274.642 103.931 274.642C103.977 274.642 104.022 274.651 104.063 274.669C104.105 274.687 104.143 274.714 104.174 274.747C107.492 277.845 113.138 280.28 117.516 278.897C120.924 277.832 123.21 274.747 124.312 269.677C127.429 255.345 126.182 226.045 126.168 225.755C126.166 225.709 126.173 225.664 126.189 225.621C126.205 225.578 126.229 225.539 126.26 225.506C126.291 225.472 126.328 225.445 126.369 225.426C126.41 225.407 126.455 225.397 126.501 225.395C126.546 225.393 126.592 225.4 126.634 225.416C126.677 225.431 126.716 225.455 126.75 225.486C126.783 225.517 126.81 225.554 126.829 225.595C126.848 225.637 126.859 225.681 126.861 225.727C126.861 226.017 128.122 255.407 124.991 269.822C123.834 275.141 121.388 278.413 117.724 279.554C116.767 279.842 115.772 279.984 114.773 279.976Z" fill="#CE8D6F"/>
<path d="M95.404 280.114H85.013C78.8268 280.114 73.6104 275.763 72.8415 269.967L71.6016 260.719H108.961L107.534 270.153C106.689 275.867 101.528 280.114 95.404 280.114Z" fill="white"/>
<path d="M19.5693 256.608C19.5693 256.608 26.4967 283.646 29.1222 286.841C34.9759 294.007 71.3792 278.264 71.3792 278.264C74.1502 278.416 77.316 276.777 77.316 276.777L83.0242 275.906L85.6358 274.253C85.7514 274.176 85.8496 274.077 85.9245 273.96C85.9994 273.844 86.0491 273.713 86.0706 273.577C86.0922 273.44 86.0849 273.3 86.0494 273.167C86.0139 273.033 85.9509 272.908 85.8644 272.8C85.6921 272.554 85.438 272.378 85.1475 272.302C84.857 272.226 84.5488 272.255 84.278 272.385L82.3384 273.429L77.1359 273.201L81.9227 272.205L83.9316 270.019C84.1258 269.792 84.2255 269.499 84.21 269.201C84.1946 268.902 84.0652 268.621 83.8485 268.415C83.6279 268.164 83.3242 268.002 82.9932 267.958C82.6623 267.913 82.3264 267.989 82.0474 268.173L79.8307 269.798L75.0438 270.144L79.893 266.596C80.0263 266.492 80.1376 266.363 80.2207 266.217C80.3037 266.07 80.3567 265.908 80.3767 265.741C80.3967 265.574 80.3832 265.404 80.337 265.242C80.2909 265.08 80.2129 264.929 80.1077 264.797C79.8921 264.489 79.575 264.266 79.2116 264.167C78.8482 264.069 78.4618 264.101 78.1196 264.258L72.0928 267.336L72.2243 264.61L73.8038 262.577C73.9696 262.349 74.0518 262.072 74.0366 261.791C74.0215 261.51 73.9099 261.243 73.7207 261.034C73.4942 260.745 73.1675 260.551 72.8049 260.489C72.4422 260.428 72.0697 260.504 71.7603 260.702C70.8874 261.339 69.7513 262.279 69.4327 263.068C68.9717 264.571 68.638 266.109 68.4351 267.668L66.0867 269.833L42.3466 272.696L38.6196 250.5L19.5693 256.608Z" fill="#FFBD9A"/>
<path d="M76.9421 273.513C76.9975 273.437 77.3369 273.43 77.4201 273.416L78.0574 273.312L79.145 273.132L81.4796 272.745C81.916 272.676 81.7359 272.005 81.2995 272.053L78.7363 272.475L77.4547 272.683C77.046 272.752 76.6027 272.766 76.3464 273.139C76.0901 273.513 76.6927 273.831 76.9421 273.485V273.513Z" fill="#CE8D6F"/>
<path d="M74.8506 270.92C76.0633 269.681 77.403 268.573 78.8477 267.614C79.2149 267.365 78.8477 266.763 78.4944 267.019C76.9919 268.006 75.5986 269.149 74.338 270.429C74.0332 270.754 74.5181 271.238 74.8298 270.92H74.8506Z" fill="#CE8D6F"/>
<path d="M36.9369 280.021L36.2441 279.876C36.6127 278.211 37.3615 276.654 38.4322 275.326C39.5029 273.997 40.8664 272.934 42.4165 272.219L42.7004 272.848C41.2522 273.521 39.9789 274.518 38.9793 275.762C37.9797 277.006 37.2808 278.463 36.9369 280.021Z" fill="#CE8D6F"/>
<path d="M64.9237 272.131C64.8681 272.129 64.8136 272.115 64.7644 272.089C64.7239 272.069 64.6879 272.041 64.6586 272.006C64.6293 271.971 64.6072 271.931 64.5936 271.888C64.5801 271.845 64.5754 271.8 64.5797 271.755C64.584 271.709 64.5973 271.666 64.6188 271.626C65.4374 270.02 66.5871 268.606 67.9925 267.476C68.0647 267.428 68.1524 267.409 68.2381 267.422C68.3238 267.436 68.4014 267.481 68.4554 267.549C68.5094 267.616 68.5359 267.702 68.5297 267.788C68.5235 267.875 68.4851 267.956 68.422 268.015C67.0981 269.084 66.0127 270.418 65.2354 271.93C65.2078 271.99 65.1639 272.04 65.1087 272.076C65.0535 272.111 64.9893 272.13 64.9237 272.131Z" fill="#CE8D6F"/>
<path d="M122.615 273.394C131.771 274.815 141.14 273.779 149.763 270.392C150.158 270.272 150.497 270.016 150.719 269.669C150.942 269.323 151.035 268.908 150.98 268.5C150.925 268.092 150.726 267.717 150.42 267.441C150.113 267.166 149.718 267.008 149.306 266.996C145.837 266.64 142.342 266.64 138.873 266.996C137.176 267.211 135.486 267.487 133.782 267.591C132.91 267.65 132.035 267.65 131.163 267.591C130.817 267.591 130.47 267.487 130.152 267.446C129.833 267.404 129.84 267.342 130.048 267.446C130.129 267.556 130.185 267.682 130.212 267.816C130.24 267.949 130.238 268.087 130.207 268.22L129.584 268.843C130.276 268.352 131.71 268.207 132.611 268.089C133.949 267.925 135.301 267.907 136.643 268.034C138.936 268.309 141.165 268.978 143.23 270.012C145.336 271.091 147.517 272.016 149.756 272.779C151.924 273.429 154.862 273.968 156.683 272.287C158.658 270.503 158.069 267.141 155.298 266.595C152.776 266.097 150.968 268.29 148.932 269.362C147.546 270.102 145.052 270.745 143.93 269.126C143.773 268.916 143.679 268.665 143.659 268.402C143.64 268.14 143.695 267.878 143.819 267.646C143.864 267.561 143.93 267.489 144.012 267.438C144.093 267.387 144.187 267.358 144.283 267.356C144.283 267.356 144.623 267.418 144.644 267.432C144.858 267.591 144.789 267.605 144.734 267.473C144.804 267.735 144.837 268.005 144.831 268.276C144.841 269.003 145.034 269.717 145.392 270.351C146.14 271.506 147.47 271.893 148.717 272.301C150.147 272.813 151.633 273.152 153.144 273.311C153.906 273.377 154.674 273.349 155.43 273.228C155.731 273.187 156.029 273.13 156.323 273.055C156.517 273 156.711 272.938 156.905 272.862C157.293 272.772 157.148 272.703 156.455 272.668L155.831 272.052L155.928 272.184C155.845 271.893 155.769 271.603 155.693 271.312C155.693 271.208 155.617 271.527 155.561 271.644C155.426 271.901 155.271 272.146 155.097 272.377C154.869 272.774 154.807 273.245 154.923 273.688C155.04 274.13 155.326 274.509 155.721 274.743C156.12 274.963 156.589 275.022 157.03 274.906C157.471 274.79 157.851 274.509 158.09 274.12C159.108 272.737 159.953 270.026 157.563 269.424C156.732 269.216 156.032 269.562 155.25 269.756C154.457 269.929 153.639 269.95 152.839 269.818C151.957 269.671 151.088 269.453 150.241 269.168C149.542 269.044 148.871 268.796 148.26 268.435C148.405 268.559 148.26 268.746 148.26 268.331C148.273 268.232 148.273 268.132 148.26 268.034C148.238 267.623 148.192 267.214 148.121 266.809C147.94 266.054 147.519 265.378 146.923 264.88C146.319 264.385 145.589 264.07 144.814 263.971C144.04 263.872 143.253 263.993 142.545 264.319C141.842 264.688 141.252 265.239 140.836 265.915C140.42 266.591 140.195 267.365 140.183 268.158C140.065 271.783 143.771 273.927 147.041 273.539C148.803 273.283 150.48 272.617 151.938 271.596C152.576 271.181 153.171 270.697 153.816 270.282C153.975 270.185 154.938 269.95 154.418 269.77C154.287 269.728 154.051 269.908 153.788 269.943C153.046 269.997 152.301 269.922 151.585 269.721C150.055 269.338 148.571 268.791 147.158 268.089C143.916 266.567 140.806 265.08 137.204 264.631C135.402 264.422 133.58 264.452 131.787 264.72C130.166 264.949 127.741 265.184 126.937 266.83C126.729 267.305 126.662 267.829 126.744 268.34C126.827 268.852 127.055 269.329 127.401 269.714C128.091 270.408 129.009 270.828 129.985 270.897C132.101 271.144 134.241 271.1 136.345 270.766C138.41 270.449 140.492 270.241 142.579 270.143C144.796 270.102 147.006 270.275 149.216 270.441C149.063 269.313 148.911 268.179 148.752 267.045C140.732 270.266 131.998 271.3 123.446 270.04C123.004 269.933 122.538 269.999 122.142 270.224C121.747 270.449 121.453 270.816 121.319 271.25C121.2 271.692 121.259 272.163 121.485 272.562C121.71 272.96 122.084 273.254 122.525 273.38L122.615 273.394Z" fill="#BA8E69"/>
<path d="M167.192 272.594C166.181 274.774 164.566 276.619 162.538 277.912C160.51 279.205 158.154 279.892 155.748 279.891H124.513C122.341 279.892 120.205 279.332 118.313 278.267C116.421 277.202 114.836 275.667 113.713 273.811L112.979 272.594H167.192Z" fill="white"/>
<path d="M198.829 272.443C196.278 272.396 193.733 272.184 191.209 271.807C190.305 271.708 189.418 271.492 188.57 271.164C188.286 271.042 188.02 270.881 187.78 270.687C187.69 270.604 187.586 270.424 187.503 270.368C187.177 270.154 187.766 269.933 187.33 270.59L186.706 271.212C187.341 271.07 187.996 271.044 188.639 271.136C189.495 271.238 190.322 271.503 191.077 271.918C191.382 272.142 191.702 272.345 192.033 272.526C192.117 272.526 192.207 272.755 192.255 272.748C192.299 272.429 192.362 272.112 192.442 271.8L191.542 271.945L189.893 272.098C187.815 272.291 185.674 272.63 183.575 272.644C182.086 272.644 180.77 271.952 180.77 270.299L179.038 272.028L179.266 272.084C179.557 272.277 179.592 272.277 179.363 272.084C179.28 271.793 179.204 271.503 179.128 271.212V271.392C179.301 270.984 179.467 270.576 179.633 270.168L179.509 270.285L180.278 269.843C179.955 269.967 179.617 270.049 179.273 270.085C179.121 270.085 178.58 269.988 178.698 270.085L179.322 270.707C179.322 270.949 179.37 271.185 179.391 271.399L178.948 272.16L179.065 272.049L176.987 272.319C179.718 273.617 182.692 274.324 185.716 274.394C188.397 274.442 191.632 274.152 193.779 272.367C194.261 271.968 194.661 271.48 194.957 270.929C195.169 270.533 195.346 270.118 195.483 269.69C195.92 270.119 194.576 269.739 194.721 269.774C194.721 269.559 194.652 269.504 194.604 269.621L194.52 269.718C194.368 269.767 194.209 269.974 194.042 270.05C193.671 270.196 193.286 270.305 192.892 270.375C190.184 271.005 185.674 271.274 186.284 275.162C186.407 275.603 186.699 275.977 187.098 276.204C187.496 276.431 187.968 276.491 188.41 276.372C188.849 276.242 189.219 275.947 189.445 275.55C189.671 275.153 189.735 274.684 189.623 274.242C189.796 275.362 189.401 274.56 189.734 274.636C190.116 274.592 190.49 274.499 190.849 274.359L193.516 273.771C195.075 273.426 196.675 272.865 197.541 271.427C197.969 270.77 198.151 269.984 198.054 269.207C197.958 268.43 197.589 267.712 197.014 267.18C196.731 266.92 196.399 266.72 196.038 266.59C195.676 266.461 195.292 266.405 194.909 266.426C194.525 266.448 194.149 266.545 193.804 266.714C193.459 266.883 193.152 267.119 192.899 267.408C192.137 268.286 192.151 269.483 191.077 270.05C189.962 270.574 188.749 270.857 187.517 270.88C184.505 271.126 181.48 270.595 178.733 269.338C178.402 269.161 178.023 269.091 177.65 269.14C177.278 269.188 176.93 269.352 176.655 269.607C176.414 269.84 176.23 270.124 176.115 270.437C175.999 270.751 175.956 271.086 175.989 271.418C176.022 271.751 176.129 272.072 176.303 272.357C176.477 272.642 176.713 272.884 176.994 273.066C178.026 273.758 179.433 273.599 180.589 273.356C181.975 273.059 183.215 271.814 182.418 270.327C181.774 269.13 180.34 268.688 179.1 268.556C178.641 268.558 178.202 268.741 177.877 269.065C177.553 269.389 177.37 269.827 177.368 270.285C177.361 271.137 177.543 271.981 177.903 272.753C178.262 273.526 178.79 274.21 179.446 274.754C181.005 276.026 182.91 276.179 184.864 276.019C186.817 275.86 188.694 275.66 190.606 275.48C192.29 275.321 194.396 275.349 195.352 273.675C196.418 271.814 194.846 270.133 193.357 269.193C191.844 268.259 190.118 267.726 188.341 267.643C186.547 267.546 184.06 267.844 183.984 270.126C183.922 271.759 185.217 273.218 186.554 273.965C188.21 274.899 190.128 275.113 191.978 275.349C194.276 275.65 196.588 275.828 198.905 275.881C201.136 275.923 201.136 272.464 198.905 272.423L198.829 272.443Z" fill="#91AD56"/>
<path d="M181.192 275.988C182.932 275.956 184.668 275.834 186.395 275.622C187.832 275.527 189.252 275.253 190.621 274.806C191.31 274.59 191.944 274.226 192.478 273.74C193.011 273.253 193.432 272.656 193.71 271.99C193.85 271.648 193.916 271.28 193.903 270.91C193.89 270.54 193.798 270.178 193.634 269.846C193.38 269.462 193.035 269.146 192.628 268.929C192.222 268.712 191.767 268.599 191.306 268.601C189.729 268.438 188.137 268.696 186.693 269.348C185.307 269.943 183.652 271.029 183.596 272.675C183.534 274.46 185.093 275.324 186.651 275.511C188.21 275.698 189.962 275.829 191.618 275.981C193.447 276.154 195.435 276.417 197.077 275.359C197.797 274.89 198.388 274.249 198.797 273.494C199.206 272.739 199.42 271.894 199.418 271.036C199.417 270.578 199.233 270.139 198.909 269.815C198.585 269.491 198.145 269.308 197.687 269.307C196.516 269.452 195.123 269.867 194.618 271.063C194.043 272.447 194.999 273.554 196.294 273.83C197.333 274.079 198.649 274.19 199.592 273.574C199.857 273.398 200.08 273.165 200.244 272.892C200.409 272.62 200.511 272.314 200.544 271.998C200.576 271.681 200.538 271.361 200.432 271.061C200.326 270.761 200.155 270.488 199.931 270.261C199.658 270.002 199.309 269.837 198.936 269.789C198.562 269.74 198.183 269.811 197.853 269.991C195.538 271.042 192.985 271.465 190.454 271.216C189.561 271.133 188.258 271.015 187.552 270.386C187.357 270.193 187.214 269.956 187.136 269.694C186.916 269.059 186.534 268.491 186.028 268.048C185.489 267.644 184.819 267.454 184.149 267.515C183.478 267.577 182.854 267.885 182.398 268.38C181.93 268.898 181.654 269.56 181.614 270.257C181.573 270.953 181.772 271.643 182.176 272.212C182.966 273.401 184.254 273.886 185.64 274.183L187.51 274.598L188.397 274.792C189.09 274.951 188.57 274.972 188.674 274.218C188.569 274.66 188.636 275.126 188.861 275.521C189.085 275.916 189.452 276.212 189.886 276.348C190.697 276.569 191.888 276.071 192.013 275.138C192.141 274.505 192.062 273.848 191.787 273.264C191.513 272.68 191.058 272.2 190.489 271.893C189.429 271.299 188.044 271.202 186.873 270.918C186.348 270.853 185.835 270.716 185.349 270.51C185.612 270.662 184.954 270.296 185.051 270.261C185.075 270.324 185.084 270.392 185.077 270.46C185.07 270.527 185.046 270.592 185.009 270.648L184.649 270.918C183.859 270.42 183.61 270.386 183.894 270.814C183.955 271.12 184.078 271.409 184.254 271.665C184.552 272.203 184.958 272.674 185.446 273.049C187.254 274.432 189.9 274.723 192.124 274.688C194.715 274.639 197.266 274.038 199.605 272.924L197.527 272.654L197.638 272.779L197.195 272.011V272.177V271.257L197.236 271.16L197.853 270.545C198.13 270.51 198.151 270.503 197.908 270.51C197.745 270.524 197.58 270.524 197.416 270.51C197.193 270.478 196.974 270.418 196.765 270.33L197.527 270.773L197.43 270.676C197.596 271.084 197.763 271.492 197.936 271.9V271.672C197.763 272.08 197.596 272.488 197.43 272.896C197.488 272.803 197.58 272.736 197.687 272.71L195.955 270.98C195.956 271.21 195.91 271.437 195.819 271.647C195.729 271.858 195.595 272.047 195.427 272.203C195.259 272.359 195.06 272.479 194.843 272.554C194.626 272.629 194.396 272.659 194.167 272.641C192.463 272.618 190.762 272.482 189.076 272.232C188.383 272.163 187.559 272.039 186.887 272.025C186.7 271.914 186.623 271.9 186.672 271.977C186.506 273.215 186.63 273.581 187.032 273.09C187.254 272.952 187.455 272.786 187.683 272.654C188.249 272.329 188.868 272.109 189.512 272.004C190.051 271.866 190.615 271.866 191.154 272.004L190.537 271.382L190.454 270.808C190.454 270.766 190.454 270.808 190.392 270.897C190.461 270.897 190.066 271.229 190.184 271.126C190.003 271.263 189.805 271.377 189.595 271.465C188.899 271.724 188.173 271.896 187.434 271.977C185.369 272.279 183.286 272.448 181.199 272.481C178.976 272.53 178.962 275.988 181.199 275.94L181.192 275.988Z" fill="#C85B7A"/>
<path d="M192.65 270.012C192.65 269.888 192.588 269.756 192.553 269.625C192.518 269.493 192.553 269.224 192.553 269.542C192.563 269.438 192.563 269.334 192.553 269.231C192.636 269.334 192.428 269.556 192.394 269.632C192.359 269.708 192.304 269.735 192.394 269.666C192.484 269.597 192.442 269.604 192.269 269.756C192.186 269.798 191.95 269.846 192.172 269.798C191.996 269.841 191.813 269.838 191.639 269.788C191.465 269.738 191.307 269.644 191.181 269.514C191.078 269.459 190.999 269.368 190.96 269.258C190.91 269.177 190.891 269.082 190.904 268.988C190.994 269.134 190.904 269.507 190.904 269.68C190.904 269.853 190.904 269.957 190.904 270.088C190.904 270.22 190.863 270.296 190.904 270.123C190.808 270.662 190.667 271.192 190.482 271.707C190.368 272.148 190.43 272.615 190.655 273.012C190.88 273.408 191.25 273.701 191.687 273.83C193.571 274.487 196.031 275.504 197.631 273.692C198.027 273.25 198.277 272.696 198.345 272.106C198.413 271.517 198.297 270.92 198.012 270.399C197.762 269.923 197.385 269.526 196.923 269.25C196.461 268.974 195.932 268.831 195.393 268.836L196.89 271.437C196.767 271.636 196.574 271.781 196.349 271.845C196.696 271.748 195.982 271.845 196.349 271.845C196.716 271.845 196.01 271.755 196.349 271.845C196.114 271.734 196.079 271.728 196.238 271.845C196.058 271.686 196.017 271.658 196.114 271.755C196.211 271.852 196.176 271.817 196.044 271.658C196.083 271.712 196.116 271.77 196.141 271.831C196.204 271.942 196.183 271.9 196.1 271.714C196.12 271.777 196.136 271.842 196.148 271.907C196.169 271.97 196.183 272.035 196.19 272.101C196.19 271.887 196.19 271.845 196.19 271.977C196.19 272.108 196.19 272.288 196.19 272.44C196.195 272.818 196.321 273.184 196.551 273.484C196.78 273.784 197.101 274.003 197.465 274.107C198.393 274.366 199.386 274.257 200.235 273.803C201.059 273.352 201.686 272.613 201.995 271.727C202.116 271.284 202.057 270.812 201.829 270.412C201.602 270.013 201.226 269.72 200.783 269.597C200.34 269.489 199.874 269.554 199.478 269.779C199.082 270.005 198.788 270.373 198.656 270.808C198.698 270.697 198.795 270.552 198.656 270.718C198.898 270.386 198.739 270.621 198.656 270.718C198.573 270.814 198.434 270.835 198.601 270.78C198.899 270.669 198.407 270.78 198.462 270.835C198.518 270.891 198.767 270.669 198.538 270.787C198.31 270.904 198.656 270.787 198.649 270.787C198.642 270.787 198.386 270.787 198.344 270.787C198.157 270.787 198.739 270.87 198.393 270.787L199.661 272.454C199.735 271.756 199.618 271.051 199.321 270.415C199.025 269.779 198.56 269.235 197.977 268.843C197.323 268.458 196.546 268.335 195.804 268.499C195.062 268.663 194.41 269.103 193.98 269.729C193.829 269.992 193.749 270.29 193.749 270.593C193.749 270.897 193.829 271.195 193.98 271.458C194.132 271.721 194.349 271.94 194.612 272.093C194.874 272.246 195.172 272.327 195.476 272.329C195.844 272.329 195.192 272.26 195.386 272.329C195.58 272.398 195.456 272.329 195.22 272.26L195.04 272.115C195.144 272.219 195.151 272.219 195.04 272.115C194.929 272.011 194.957 271.99 195.04 272.115L195.095 272.212L194.998 271.997C195.123 272.329 194.998 271.624 194.998 271.963C194.996 271.801 195.034 271.642 195.109 271.499C195.241 271.354 195.262 271.319 195.178 271.409C195.095 271.499 195.116 271.472 195.262 271.34C195.005 271.527 195.428 271.292 195.262 271.34C195.095 271.389 195.677 271.34 195.262 271.34H195.102C195.269 271.34 195.289 271.34 195.165 271.34C194.895 271.278 194.638 271.209 194.382 271.126L192.726 270.552L193.939 272.682C194.28 271.735 194.476 270.741 194.52 269.735C194.583 268.573 194.299 267.294 193.135 266.72C192.603 266.466 192.002 266.396 191.426 266.522C190.851 266.647 190.333 266.96 189.955 267.411C189.089 268.463 189.159 269.742 189.484 270.987C189.545 271.206 189.648 271.411 189.788 271.59C189.927 271.769 190.101 271.919 190.299 272.031C190.497 272.143 190.715 272.216 190.94 272.244C191.166 272.271 191.395 272.255 191.614 272.194C191.834 272.134 192.039 272.031 192.218 271.891C192.398 271.752 192.548 271.578 192.66 271.381C192.772 271.183 192.844 270.966 192.872 270.74C192.9 270.515 192.884 270.286 192.823 270.067L192.65 270.012Z" fill="#C85B7A"/>
<path d="M206.45 272.594C205.438 274.773 203.823 276.618 201.795 277.911C199.768 279.204 197.412 279.891 195.006 279.891H185.148C182.977 279.892 180.843 279.333 178.952 278.267C177.061 277.202 175.477 275.667 174.355 273.811L173.621 272.594H206.45Z" fill="white"/>
</svg>
