<svg width="600" height="500" viewBox="0 0 600 500" fill="none" xmlns="http://www.w3.org/2000/svg">
<g clip-path="url(#clip0_1589_2801)">
<rect width="600" height="500" fill="white"/>
<ellipse cx="300.146" cy="249.823" rx="95.5" ry="358.292" transform="rotate(51.229 300.146 249.823)" fill="#F8F8F8"/>
<g clip-path="url(#clip1_1589_2801)">
<path d="M546.843 87.3438H240.178V262.33H546.843V87.3438Z" fill="white"/>
<path d="M166.315 175.96C166.315 176.473 166.113 176.965 165.753 177.327C165.393 177.69 164.904 177.894 164.395 177.894C163.886 177.894 163.397 177.69 163.037 177.327C162.677 176.965 162.475 176.473 162.475 175.96C162.475 175.448 162.677 174.956 163.037 174.594C163.397 174.231 163.886 174.027 164.395 174.027C164.904 174.027 165.393 174.231 165.753 174.594C166.113 174.956 166.315 175.448 166.315 175.96Z" fill="#DEE5FF"/>
<path d="M178.088 177.894C179.149 177.894 180.009 177.028 180.009 175.96C180.009 174.893 179.149 174.027 178.088 174.027C177.028 174.027 176.168 174.893 176.168 175.96C176.168 177.028 177.028 177.894 178.088 177.894Z" fill="#DEE5FF"/>
<path d="M193.701 175.96C193.701 176.473 193.499 176.965 193.138 177.327C192.778 177.69 192.29 177.894 191.781 177.894C191.271 177.894 190.783 177.69 190.423 177.327C190.063 176.965 189.86 176.473 189.86 175.96C189.86 175.448 190.063 174.956 190.423 174.594C190.783 174.231 191.271 174.027 191.781 174.027C192.29 174.027 192.778 174.231 193.138 174.594C193.499 174.956 193.701 175.448 193.701 175.96Z" fill="#DEE5FF"/>
<path d="M207.393 175.96C207.393 176.473 207.191 176.965 206.831 177.327C206.471 177.69 205.982 177.894 205.473 177.894C204.964 177.894 204.475 177.69 204.115 177.327C203.755 176.965 203.553 176.473 203.553 175.96C203.553 175.448 203.755 174.956 204.115 174.594C204.475 174.231 204.964 174.027 205.473 174.027C205.982 174.027 206.471 174.231 206.831 174.594C207.191 174.956 207.393 175.448 207.393 175.96Z" fill="#DEE5FF"/>
<path d="M166.315 186.886C166.315 187.399 166.113 187.891 165.753 188.253C165.393 188.616 164.904 188.819 164.395 188.819C163.886 188.819 163.397 188.616 163.037 188.253C162.677 187.891 162.475 187.399 162.475 186.886C162.475 186.374 162.677 185.882 163.037 185.519C163.397 185.157 163.886 184.953 164.395 184.953C164.904 184.953 165.393 185.157 165.753 185.519C166.113 185.882 166.315 186.374 166.315 186.886Z" fill="#DEE5FF"/>
<path d="M178.088 188.819C179.149 188.819 180.009 187.954 180.009 186.886C180.009 185.819 179.149 184.953 178.088 184.953C177.028 184.953 176.168 185.819 176.168 186.886C176.168 187.954 177.028 188.819 178.088 188.819Z" fill="#DEE5FF"/>
<path d="M193.701 186.886C193.701 187.399 193.499 187.891 193.138 188.253C192.778 188.616 192.29 188.819 191.781 188.819C191.271 188.819 190.783 188.616 190.423 188.253C190.063 187.891 189.86 187.399 189.86 186.886C189.86 186.374 190.063 185.882 190.423 185.519C190.783 185.157 191.271 184.953 191.781 184.953C192.29 184.953 192.778 185.157 193.138 185.519C193.499 185.882 193.701 186.374 193.701 186.886Z" fill="#DEE5FF"/>
<path d="M207.393 186.886C207.393 187.399 207.191 187.891 206.831 188.253C206.471 188.616 205.982 188.819 205.473 188.819C204.964 188.819 204.475 188.616 204.115 188.253C203.755 187.891 203.553 187.399 203.553 186.886C203.553 186.374 203.755 185.882 204.115 185.519C204.475 185.157 204.964 184.953 205.473 184.953C205.982 184.953 206.471 185.157 206.831 185.519C207.191 185.882 207.393 186.374 207.393 186.886Z" fill="#DEE5FF"/>
<path d="M166.315 197.785C166.315 198.167 166.203 198.541 165.992 198.859C165.781 199.177 165.481 199.424 165.13 199.571C164.779 199.717 164.393 199.755 164.02 199.681C163.648 199.606 163.306 199.422 163.037 199.152C162.768 198.881 162.586 198.537 162.511 198.162C162.437 197.787 162.476 197.398 162.621 197.045C162.766 196.692 163.012 196.39 163.328 196.177C163.644 195.965 164.015 195.852 164.395 195.852C164.904 195.852 165.393 196.055 165.753 196.418C166.113 196.78 166.315 197.272 166.315 197.785Z" fill="#DEE5FF"/>
<path d="M180.008 197.785C180.008 198.167 179.896 198.541 179.685 198.859C179.474 199.177 179.174 199.424 178.823 199.571C178.472 199.717 178.086 199.755 177.714 199.681C177.341 199.606 176.999 199.422 176.73 199.152C176.462 198.881 176.279 198.537 176.205 198.162C176.131 197.787 176.169 197.398 176.314 197.045C176.459 196.692 176.706 196.39 177.021 196.177C177.337 195.965 177.708 195.852 178.088 195.852C178.597 195.852 179.086 196.055 179.446 196.418C179.806 196.78 180.008 197.272 180.008 197.785Z" fill="#DEE5FF"/>
<path d="M193.701 197.785C193.701 198.167 193.588 198.541 193.377 198.859C193.166 199.177 192.866 199.424 192.516 199.571C192.165 199.717 191.779 199.755 191.406 199.681C191.033 199.606 190.691 199.422 190.423 199.152C190.154 198.881 189.971 198.537 189.897 198.162C189.823 197.787 189.861 197.398 190.006 197.045C190.152 196.692 190.398 196.39 190.714 196.177C191.03 195.965 191.401 195.852 191.781 195.852C192.29 195.852 192.778 196.055 193.138 196.418C193.499 196.78 193.701 197.272 193.701 197.785Z" fill="#DEE5FF"/>
<path d="M207.393 197.785C207.393 198.167 207.281 198.541 207.07 198.859C206.859 199.177 206.559 199.424 206.208 199.571C205.857 199.717 205.471 199.755 205.098 199.681C204.726 199.606 204.384 199.422 204.115 199.152C203.847 198.881 203.664 198.537 203.59 198.162C203.516 197.787 203.554 197.398 203.699 197.045C203.844 196.692 204.09 196.39 204.406 196.177C204.722 195.965 205.093 195.852 205.473 195.852C205.725 195.852 205.975 195.901 206.208 195.999C206.441 196.096 206.653 196.238 206.831 196.418C207.009 196.597 207.151 196.81 207.247 197.045C207.344 197.279 207.393 197.531 207.393 197.785Z" fill="#DEE5FF"/>
<path d="M166.315 208.624C166.315 209.007 166.203 209.381 165.992 209.699C165.781 210.016 165.481 210.264 165.13 210.41C164.779 210.557 164.393 210.595 164.02 210.52C163.648 210.446 163.306 210.262 163.037 209.991C162.768 209.721 162.586 209.377 162.511 209.002C162.437 208.627 162.476 208.238 162.621 207.885C162.766 207.532 163.012 207.23 163.328 207.017C163.644 206.805 164.015 206.691 164.395 206.691C164.904 206.691 165.393 206.895 165.753 207.258C166.113 207.62 166.315 208.112 166.315 208.624Z" fill="#DEE5FF"/>
<path d="M180.008 208.624C180.008 209.007 179.896 209.381 179.685 209.699C179.474 210.016 179.174 210.264 178.823 210.41C178.472 210.557 178.086 210.595 177.714 210.52C177.341 210.446 176.999 210.262 176.73 209.991C176.462 209.721 176.279 209.377 176.205 209.002C176.131 208.627 176.169 208.238 176.314 207.885C176.459 207.532 176.706 207.23 177.021 207.017C177.337 206.805 177.708 206.691 178.088 206.691C178.597 206.691 179.086 206.895 179.446 207.258C179.806 207.62 180.008 208.112 180.008 208.624Z" fill="#DEE5FF"/>
<path d="M193.701 208.624C193.701 209.007 193.588 209.381 193.377 209.699C193.166 210.016 192.866 210.264 192.516 210.41C192.165 210.557 191.779 210.595 191.406 210.52C191.033 210.446 190.691 210.262 190.423 209.991C190.154 209.721 189.971 209.377 189.897 209.002C189.823 208.627 189.861 208.238 190.006 207.885C190.152 207.532 190.398 207.23 190.714 207.017C191.03 206.805 191.401 206.691 191.781 206.691C192.29 206.691 192.778 206.895 193.138 207.258C193.499 207.62 193.701 208.112 193.701 208.624Z" fill="#DEE5FF"/>
<path d="M207.393 208.624C207.393 209.007 207.281 209.381 207.07 209.699C206.859 210.016 206.559 210.264 206.208 210.41C205.857 210.557 205.471 210.595 205.098 210.52C204.726 210.446 204.384 210.262 204.115 209.991C203.847 209.721 203.664 209.377 203.59 209.002C203.516 208.627 203.554 208.238 203.699 207.885C203.844 207.532 204.09 207.23 204.406 207.017C204.722 206.805 205.093 206.691 205.473 206.691C205.725 206.691 205.975 206.741 206.208 206.839C206.441 206.936 206.653 207.078 206.831 207.258C207.009 207.437 207.151 207.65 207.247 207.885C207.344 208.119 207.393 208.371 207.393 208.624Z" fill="#DEE5FF"/>
<path d="M599.082 413.142H0.918457C0.67488 413.142 0.441301 413.044 0.269065 412.871C0.0968301 412.698 0 412.463 0 412.217C0 411.972 0.0968301 411.737 0.269065 411.564C0.441301 411.39 0.67488 411.293 0.918457 411.293H599.082C599.325 411.293 599.559 411.39 599.731 411.564C599.903 411.737 600 411.972 600 412.217C600 412.463 599.903 412.698 599.731 412.871C599.559 413.044 599.325 413.142 599.082 413.142Z" fill="#C9D5FF"/>
<path d="M545.786 262.275H239.093C238.805 262.275 238.529 262.16 238.326 261.955C238.122 261.75 238.008 261.472 238.008 261.183V87.0927C238.008 86.8029 238.122 86.525 238.326 86.3201C238.529 86.1152 238.805 86 239.093 86H545.786C546.074 86 546.35 86.1152 546.554 86.3201C546.758 86.525 546.872 86.8029 546.872 87.0927V261.183C546.872 261.472 546.758 261.75 546.554 261.955C546.35 262.16 546.074 262.275 545.786 262.275ZM240.067 260.09H544.701V88.1573H240.067V260.09Z" fill="#C9D5FF"/>
<path d="M548.04 271.071H236.838C235.58 270.814 234.449 270.126 233.636 269.126C232.824 268.125 232.38 266.872 232.38 265.58C232.38 264.287 232.824 263.034 233.636 262.034C234.449 261.033 235.58 260.346 236.838 260.089H548.04C548.849 259.923 549.683 259.941 550.484 260.14C551.285 260.34 552.032 260.716 552.67 261.241C553.309 261.767 553.824 262.429 554.177 263.179C554.531 263.929 554.714 264.749 554.714 265.58C554.714 266.41 554.531 267.23 554.177 267.98C553.824 268.731 553.309 269.393 552.67 269.918C552.032 270.444 551.285 270.82 550.484 271.019C549.683 271.218 548.849 271.236 548.04 271.071ZM236.838 262.274C235.968 262.274 235.132 262.622 234.516 263.242C233.9 263.862 233.554 264.703 233.554 265.58C233.554 266.457 233.9 267.297 234.516 267.917C235.132 268.537 235.968 268.886 236.838 268.886H548.04C548.911 268.886 549.746 268.537 550.362 267.917C550.978 267.297 551.324 266.457 551.324 265.58C551.324 264.703 550.978 263.862 550.362 263.242C549.746 262.622 548.911 262.274 548.04 262.274H236.838Z" fill="#C9D5FF"/>
<path d="M265.421 129.283C270.191 123.567 276.743 119.644 284.009 118.154C291.276 116.663 298.83 117.693 305.441 121.074L290.775 150.071H290.552C290.483 150.068 290.414 150.082 290.351 150.112C290.289 150.141 290.233 150.184 290.19 150.239L265.421 129.283Z" fill="#E3E9FF"/>
<path d="M257.767 150.492H290.161C290.162 150.586 290.188 150.677 290.238 150.756C290.287 150.835 290.357 150.899 290.44 150.94L275.662 179.881C270.274 177.123 265.75 172.918 262.592 167.73C259.433 162.543 257.763 156.576 257.767 150.492Z" fill="#C9D5FF"/>
<path d="M290.552 183.41V150.968C290.616 150.972 290.681 150.962 290.741 150.94C290.802 150.918 290.857 150.884 290.904 150.839C290.951 150.794 290.989 150.74 291.014 150.681C291.04 150.621 291.053 150.557 291.053 150.492C291.08 150.41 291.08 150.321 291.053 150.24L317.659 131.777C320.873 136.481 322.821 141.943 323.314 147.63C323.806 153.318 322.826 159.037 320.468 164.229C318.111 169.421 314.457 173.91 309.862 177.257C305.268 180.604 299.89 182.695 294.253 183.326C292.945 183.41 291.748 183.41 290.552 183.41Z" fill="#C9D5FF"/>
<path d="M300.877 193.972H270.096C269.941 193.997 269.783 193.988 269.631 193.946C269.48 193.903 269.339 193.828 269.22 193.725C269.1 193.623 269.004 193.495 268.938 193.352C268.872 193.208 268.838 193.052 268.838 192.893C268.838 192.735 268.872 192.579 268.938 192.435C269.004 192.291 269.1 192.164 269.22 192.061C269.339 191.959 269.48 191.884 269.631 191.841C269.783 191.799 269.941 191.79 270.096 191.815H300.877C301.032 191.79 301.191 191.799 301.342 191.841C301.494 191.884 301.634 191.959 301.754 192.061C301.874 192.164 301.97 192.291 302.036 192.435C302.102 192.579 302.136 192.735 302.136 192.893C302.136 193.052 302.102 193.208 302.036 193.352C301.97 193.495 301.874 193.623 301.754 193.725C301.634 193.828 301.494 193.903 301.342 193.946C301.191 193.988 301.032 193.997 300.877 193.972Z" fill="#DEE5FF"/>
<path d="M312.872 202.517H270.096C269.953 202.521 269.81 202.495 269.677 202.442C269.543 202.388 269.422 202.308 269.32 202.206C269.219 202.104 269.139 201.982 269.086 201.847C269.033 201.713 269.007 201.569 269.011 201.425C269.011 201.135 269.125 200.857 269.329 200.652C269.532 200.447 269.809 200.332 270.096 200.332H312.872C313.16 200.332 313.436 200.447 313.64 200.652C313.843 200.857 313.957 201.135 313.957 201.425C313.961 201.569 313.936 201.713 313.883 201.847C313.83 201.982 313.75 202.104 313.648 202.206C313.547 202.308 313.425 202.388 313.292 202.442C313.159 202.495 313.016 202.521 312.872 202.517Z" fill="#DEE5FF"/>
<path d="M297.732 211.064H270.096C269.953 211.068 269.81 211.042 269.677 210.989C269.543 210.935 269.422 210.855 269.32 210.753C269.219 210.65 269.139 210.528 269.086 210.394C269.033 210.26 269.007 210.116 269.011 209.971C269.011 209.682 269.125 209.404 269.329 209.199C269.532 208.994 269.809 208.879 270.096 208.879H297.732C298.02 208.879 298.296 208.994 298.5 209.199C298.703 209.404 298.818 209.682 298.818 209.971C298.821 210.116 298.796 210.26 298.743 210.394C298.69 210.528 298.61 210.65 298.508 210.753C298.407 210.855 298.285 210.935 298.152 210.989C298.019 211.042 297.876 211.068 297.732 211.064Z" fill="#DEE5FF"/>
<path d="M420.103 220.868C420.103 221.328 419.968 221.778 419.714 222.16C419.46 222.543 419.099 222.841 418.677 223.017C418.255 223.193 417.791 223.239 417.343 223.149C416.895 223.059 416.483 222.838 416.16 222.513C415.837 222.187 415.617 221.773 415.528 221.322C415.439 220.871 415.484 220.403 415.659 219.978C415.834 219.554 416.13 219.19 416.51 218.935C416.89 218.679 417.336 218.543 417.793 218.543C418.406 218.543 418.993 218.788 419.427 219.224C419.86 219.66 420.103 220.252 420.103 220.868Z" fill="#C9D5FF"/>
<path d="M469.14 220.868C469.14 221.328 469.005 221.778 468.751 222.16C468.497 222.543 468.136 222.841 467.714 223.017C467.292 223.193 466.828 223.239 466.38 223.149C465.932 223.059 465.52 222.838 465.197 222.513C464.874 222.187 464.654 221.773 464.565 221.322C464.476 220.871 464.522 220.403 464.696 219.978C464.871 219.554 465.167 219.19 465.547 218.935C465.927 218.679 466.374 218.543 466.83 218.543C467.443 218.543 468.031 218.788 468.464 219.224C468.897 219.66 469.14 220.252 469.14 220.868Z" fill="#E3E9FF"/>
<path d="M506.907 192.767H402.653C402.535 192.767 402.422 192.72 402.338 192.636C402.255 192.552 402.208 192.437 402.208 192.319C402.215 192.205 402.265 192.098 402.348 192.02C402.431 191.942 402.54 191.898 402.653 191.898H506.907C507.017 191.898 507.124 191.943 507.202 192.021C507.28 192.1 507.324 192.207 507.324 192.319C507.325 192.433 507.281 192.543 507.204 192.626C507.126 192.709 507.02 192.76 506.907 192.767Z" fill="#A6B9FF"/>
<path d="M506.907 174.725H402.653C402.535 174.725 402.422 174.677 402.338 174.593C402.255 174.509 402.208 174.395 402.208 174.276C402.208 174.157 402.255 174.044 402.338 173.959C402.422 173.875 402.535 173.828 402.653 173.828H506.907C507.025 173.828 507.138 173.875 507.222 173.959C507.305 174.044 507.352 174.157 507.352 174.276C507.352 174.395 507.305 174.509 507.222 174.593C507.138 174.677 507.025 174.725 506.907 174.725Z" fill="#A6B9FF"/>
<path d="M506.907 157.943H402.653C402.535 157.943 402.422 157.896 402.338 157.812C402.255 157.727 402.208 157.613 402.208 157.495C402.215 157.381 402.265 157.274 402.348 157.195C402.431 157.117 402.54 157.074 402.653 157.074H506.907C507.017 157.074 507.124 157.119 507.202 157.197C507.28 157.276 507.324 157.383 507.324 157.495C507.325 157.609 507.281 157.719 507.204 157.802C507.126 157.885 507.02 157.936 506.907 157.943Z" fill="#A6B9FF"/>
<path d="M506.907 142.814H402.653C402.535 142.814 402.422 142.767 402.338 142.683C402.255 142.599 402.208 142.485 402.208 142.366C402.208 142.247 402.255 142.133 402.338 142.049C402.422 141.965 402.535 141.918 402.653 141.918H506.907C507.025 141.918 507.138 141.965 507.222 142.049C507.305 142.133 507.352 142.247 507.352 142.366C507.352 142.485 507.305 142.599 507.222 142.683C507.138 142.767 507.025 142.814 506.907 142.814Z" fill="#A6B9FF"/>
<path d="M506.907 124.747H402.653C402.54 124.748 402.431 124.704 402.348 124.626C402.265 124.548 402.215 124.441 402.208 124.327C402.208 124.208 402.255 124.094 402.338 124.01C402.422 123.926 402.535 123.879 402.653 123.879H506.907C507.02 123.886 507.126 123.936 507.204 124.02C507.281 124.103 507.325 124.213 507.324 124.327C507.324 124.439 507.28 124.545 507.202 124.624C507.124 124.703 507.017 124.747 506.907 124.747Z" fill="#A6B9FF"/>
<path d="M417.765 157.383H408.47V208.007H417.765V157.383Z" fill="#C9D5FF"/>
<path d="M433.461 149.289H424.166V208.01H433.461V149.289Z" fill="#E3E9FF"/>
<path d="M449.158 137.438H439.862V208.037H449.158V137.438Z" fill="#C9D5FF"/>
<path d="M464.855 172.121H455.56V208.037H464.855V172.121Z" fill="#E3E9FF"/>
<path d="M480.551 139.176H471.256V208.039H480.551V139.176Z" fill="#C9D5FF"/>
<path d="M496.248 175.988H486.952V208.038H496.248V175.988Z" fill="#C9D5FF"/>
<path d="M506.907 208.458H402.653C402.54 208.459 402.431 208.415 402.348 208.337C402.265 208.259 402.215 208.152 402.208 208.038C402.208 207.919 402.255 207.805 402.338 207.721C402.422 207.637 402.535 207.59 402.653 207.59H506.907C507.02 207.597 507.126 207.647 507.204 207.731C507.281 207.814 507.325 207.924 507.324 208.038C507.324 208.149 507.28 208.256 507.202 208.335C507.124 208.414 507.017 208.458 506.907 208.458Z" fill="#A6B9FF"/>
<path d="M449.242 221.959H424.194C424.05 221.963 423.908 221.937 423.774 221.883C423.641 221.83 423.52 221.75 423.418 221.647C423.317 221.545 423.237 221.423 423.184 221.289C423.13 221.154 423.105 221.011 423.109 220.866C423.109 220.576 423.223 220.298 423.427 220.094C423.63 219.889 423.906 219.773 424.194 219.773H449.242C449.529 219.773 449.806 219.889 450.009 220.094C450.213 220.298 450.327 220.576 450.327 220.866C450.331 221.011 450.305 221.154 450.252 221.289C450.199 221.423 450.119 221.545 450.018 221.647C449.916 221.75 449.795 221.83 449.661 221.883C449.528 221.937 449.385 221.963 449.242 221.959Z" fill="#A6B9FF"/>
<path d="M497.751 221.959H472.703C472.559 221.963 472.417 221.937 472.283 221.883C472.15 221.83 472.028 221.75 471.927 221.647C471.825 221.545 471.745 221.423 471.692 221.289C471.639 221.154 471.614 221.011 471.618 220.866C471.618 220.576 471.732 220.298 471.935 220.094C472.139 219.889 472.415 219.773 472.703 219.773H497.751C498.036 219.781 498.308 219.898 498.51 220.101C498.712 220.305 498.829 220.579 498.836 220.866C498.836 221.156 498.722 221.434 498.518 221.639C498.314 221.844 498.038 221.959 497.751 221.959Z" fill="#A6B9FF"/>
<path d="M397.811 406.471V401.512H407.162V403.613V406.471L403.85 408.376H400.928L397.811 406.471Z" fill="#FFCEC8"/>
<path d="M397.811 406.471V410.337H421.55V410.001C421.549 409.587 421.42 409.184 421.18 408.847C420.941 408.511 420.603 408.258 420.214 408.124L407.05 403.613L405.074 405.967C403.992 406.629 402.767 407.02 401.503 407.107C400.24 407.195 398.973 406.977 397.811 406.471Z" fill="#426BFF"/>
<path d="M421.578 410.367V411.824H397.811V410.423L421.578 410.367Z" fill="#426BFF"/>
<path d="M352.613 248.129L353.225 319.065L356.955 401.543H370.87L376.436 274.128C376.443 273.622 376.644 273.139 376.997 272.778C377.349 272.418 377.827 272.209 378.329 272.195C378.802 272.212 379.253 272.399 379.601 272.723C379.948 273.047 380.168 273.486 380.221 273.96L395.528 401.543H408.915V248.129H352.613Z" fill="#426BFF"/>
<path d="M383.756 183.41C383.756 183.41 389.322 183.998 389.99 179.012C390.658 174.025 390.77 166.965 390.77 166.965H369.451V187.444H383.756V183.41Z" fill="#FFCEC8"/>
<path d="M385.176 175.006C384.747 175.148 384.29 175.182 383.845 175.106C383.4 175.03 382.98 174.846 382.621 174.571C382.262 174.295 381.975 173.936 381.785 173.523C381.595 173.111 381.508 172.658 381.53 172.205C381.53 172.205 382.031 169.851 384.591 171.028C384.591 171.028 384.257 167.386 390.686 168.703C391.243 168.703 392.022 166.545 392.078 166.237C392.508 164.145 392.184 161.967 391.164 160.093C390.144 158.219 388.495 156.772 386.512 156.011C384.163 155.11 381.628 154.812 379.136 155.143C378.166 155.299 377.226 155.611 376.353 156.067C375.769 156.348 374.016 157.412 374.016 158.169V155.367C372.411 155.374 370.875 156.021 369.744 157.166C368.612 158.31 367.977 159.86 367.977 161.475V179.769H377.606C378.79 179.768 379.96 179.501 381.028 178.987C382.097 178.473 383.039 177.726 383.784 176.799L385.176 175.006Z" fill="#384B61"/>
<path d="M346.547 189.853C347.913 188.461 349.557 187.377 351.371 186.672C353.184 185.967 355.125 185.657 357.067 185.763L403.516 188.228L435.911 191.03L449.826 164.219L459.789 168.001L447.6 198.818C446.821 200.784 445.659 202.573 444.182 204.08C442.705 205.586 440.943 206.778 439 207.587C437.092 208.375 435.051 208.785 432.989 208.792H409.833L410.473 257.595H350.888V235.435C348.674 235.435 346.55 234.549 344.984 232.973C343.419 231.397 342.539 229.259 342.539 227.03V199.266C342.543 195.652 343.952 192.183 346.463 189.601L346.547 189.853Z" fill="#FF6652"/>
<path d="M350.889 235.577V200.949L348.996 235.353L350.889 235.577Z" fill="#FF361C"/>
<path d="M369.451 186.408V184.867L383.756 185.652V187.361L369.451 186.408Z" fill="#FF6652"/>
<path d="M368.811 401.543H359.293V405.297H368.811V401.543Z" fill="#FFCEC8"/>
<path d="M370.732 409.527H357.763L358.765 405.297H369.173L370.732 409.527Z" fill="#426BFF"/>
<path d="M358.04 409.023H370.453C370.756 409.023 371.046 409.144 371.26 409.36C371.474 409.575 371.594 409.867 371.594 410.172V411.825H356.899V410.172C356.899 409.867 357.02 409.575 357.234 409.36C357.448 409.144 357.738 409.023 358.04 409.023Z" fill="#426BFF"/>
<path d="M371.594 410.367V411.824H356.899V410.423L371.594 410.367Z" fill="#426BFF"/>
<path d="M457.508 167.19L458.008 165.116L460.792 159.513C460.876 159.434 460.943 159.339 460.989 159.233C461.035 159.127 461.059 159.013 461.059 158.897C461.059 158.781 461.035 158.667 460.989 158.561C460.943 158.455 460.876 158.359 460.792 158.281C460.621 158.157 460.409 158.106 460.201 158.137C459.993 158.168 459.805 158.28 459.678 158.449C459.801 158.214 459.835 157.943 459.773 157.685C459.712 157.427 459.559 157.201 459.344 157.048C459.192 156.975 459.026 156.938 458.857 156.938C458.689 156.938 458.523 156.975 458.37 157.048C458.565 156.431 458.732 155.815 458.927 155.199C458.962 154.931 458.893 154.659 458.732 154.442C458.608 154.288 458.442 154.173 458.254 154.113C458.066 154.054 457.864 154.051 457.675 154.106C458.37 152.705 459.038 151.304 459.706 149.904C459.757 149.841 459.796 149.769 459.819 149.692C459.843 149.614 459.851 149.533 459.843 149.452C459.835 149.371 459.812 149.293 459.774 149.222C459.736 149.15 459.685 149.087 459.623 149.035C459.561 148.984 459.489 148.945 459.412 148.921C459.335 148.898 459.254 148.89 459.174 148.897C459.094 148.905 459.016 148.929 458.945 148.967C458.874 149.005 458.811 149.057 458.76 149.119L454.084 156.711L452.86 158.477L452.108 162.035L450.661 164.64L457.508 167.19Z" fill="#FFCEC8"/>
<path d="M456.673 156.571C456.673 156.571 456.673 156.571 456.673 156.318L457.73 154.273C457.761 154.246 457.801 154.23 457.842 154.23C457.883 154.23 457.922 154.246 457.953 154.273C457.971 154.289 457.985 154.308 457.995 154.33C458.004 154.352 458.009 154.376 458.009 154.399C458.009 154.423 458.004 154.447 457.995 154.468C457.985 154.49 457.971 154.51 457.953 154.525L456.923 156.571C456.888 156.6 456.844 156.617 456.798 156.617C456.752 156.617 456.708 156.6 456.673 156.571Z" fill="#FFABA1"/>
<path d="M383.756 183.411C383.756 183.411 382.42 184.027 379.108 181.254C379.48 182.222 380.111 183.067 380.932 183.696C381.752 184.324 382.73 184.71 383.756 184.812V183.411Z" fill="#FF9B8F"/>
<path d="M352.697 257.738H408.971L352.697 260.036V257.738Z" fill="#2453FF"/>
<path d="M507.241 222.633C505.643 223.931 504.35 225.568 503.455 227.428C502.56 229.288 502.085 231.324 502.064 233.391C502.064 240.255 502.621 241.403 497.556 243.365C495.678 243.933 494.046 245.121 492.92 246.737C491.794 248.353 491.241 250.303 491.349 252.274C491.739 255.075 492.88 258.213 501.174 257.877C501.37 255.59 502.053 253.373 503.177 251.377C506.306 248.382 510.231 246.367 514.477 245.578L514.894 240.115C513.426 240.15 511.982 239.731 510.758 238.914C509.534 238.098 508.588 236.923 508.048 235.548L507.241 222.633Z" fill="#FDA74C"/>
<path d="M507.685 233.335C507.491 226.611 507.073 221.092 507.073 221.092C507.073 221.092 522.352 216.89 525.831 227.172C525.831 227.172 529.115 226.836 529.032 229.973C528.984 230.824 528.625 231.628 528.024 232.228C527.422 232.828 526.621 233.183 525.775 233.223L526.638 244.149C526.122 245.782 525.101 247.207 523.725 248.215C522.348 249.223 520.687 249.761 518.985 249.752C518.985 249.752 512.055 249.752 513.14 245.69L514.421 245.55L514.838 240.087C513.926 240.124 513.016 239.979 512.16 239.658C511.305 239.338 510.521 238.849 509.856 238.221C509.19 237.592 508.655 236.836 508.283 235.998C507.91 235.159 507.707 234.254 507.685 233.335Z" fill="#FFCEC8"/>
<path d="M525.832 227.172C524.585 227.852 523.206 228.252 521.79 228.344C520.375 228.436 518.957 228.217 517.634 227.703C516.31 227.189 515.114 226.391 514.127 225.366C513.14 224.341 512.385 223.112 511.916 221.764C511.916 221.764 510.052 225.743 507.074 225.743L506.879 218.991C506.879 215.601 510.219 213.752 513.002 212.996C514.867 212.443 516.83 212.308 518.752 212.598C520.675 212.888 522.512 213.598 524.134 214.676C526.582 217.021 528.112 220.173 528.448 223.558C530.248 223.624 531.966 224.335 533.292 225.562C534.618 226.79 535.466 228.453 535.684 230.253L536.073 235.856C536.073 235.856 548.987 233.811 551.269 242.16C552.688 247.259 551.714 253.366 546.287 253.815L545.285 251.377C544.397 249.05 542.774 247.082 540.665 245.774C538.779 244.684 536.66 244.069 534.487 243.981H526.722L525.859 233.055C526.684 232.955 527.452 232.582 528.042 231.993C528.632 231.405 529.01 230.634 529.116 229.805C529.098 229.405 528.996 229.013 528.815 228.656C528.635 228.299 528.38 227.985 528.069 227.736C527.758 227.486 527.397 227.306 527.011 227.209C526.625 227.112 526.223 227.099 525.832 227.172Z" fill="#FDA74C"/>
<path d="M514.838 239.974C516.018 240.038 517.194 239.777 518.238 239.219C519.282 238.662 520.156 237.828 520.766 236.809C520.442 238.234 519.678 239.521 518.583 240.482C517.488 241.443 516.118 242.03 514.671 242.16L514.838 239.974Z" fill="#FF9B8F"/>
<path d="M542.474 411.654C545.041 411.654 547.122 409.559 547.122 406.975C547.122 404.392 545.041 402.297 542.474 402.297C539.907 402.297 537.826 404.392 537.826 406.975C537.826 409.559 539.907 411.654 542.474 411.654Z" fill="#426BFF"/>
<path d="M543.002 403.895H504.875C504.739 403.919 504.599 403.912 504.466 403.876C504.333 403.84 504.209 403.775 504.104 403.685C503.998 403.596 503.913 403.484 503.855 403.358C503.797 403.232 503.767 403.095 503.767 402.956C503.767 402.818 503.797 402.68 503.855 402.555C503.913 402.429 503.998 402.317 504.104 402.228C504.209 402.138 504.333 402.073 504.466 402.037C504.599 402.001 504.739 401.994 504.875 402.018H543.002C543.222 402.056 543.421 402.171 543.565 402.343C543.708 402.515 543.787 402.732 543.787 402.956C543.787 403.181 543.708 403.398 543.565 403.57C543.421 403.741 543.222 403.857 543.002 403.895Z" fill="#426BFF"/>
<path d="M523.939 403.224C523.688 403.224 523.447 403.124 523.269 402.945C523.092 402.766 522.992 402.524 522.992 402.272V323.827C522.992 323.702 523.017 323.578 523.064 323.463C523.112 323.347 523.182 323.242 523.269 323.154C523.357 323.065 523.462 322.995 523.576 322.948C523.691 322.9 523.814 322.875 523.939 322.875C524.063 322.875 524.186 322.9 524.301 322.948C524.415 322.995 524.52 323.065 524.608 323.154C524.695 323.242 524.765 323.347 524.813 323.463C524.86 323.578 524.885 323.702 524.885 323.827V402.272C524.885 402.524 524.785 402.766 524.608 402.945C524.43 403.124 524.189 403.224 523.939 403.224Z" fill="#426BFF"/>
<path d="M505.014 411.654C507.581 411.654 509.662 409.559 509.662 406.975C509.662 404.392 507.581 402.297 505.014 402.297C502.447 402.297 500.366 404.392 500.366 406.975C500.366 409.559 502.447 411.654 505.014 411.654Z" fill="#426BFF"/>
<path d="M551.074 336.46H493.771V330.465H552.66L551.074 336.46Z" fill="#3661FF"/>
<path d="M552.604 330.662L572.781 262.191H509.745L523.104 330.662H552.604Z" fill="#426BFF"/>
<path d="M498.363 330.467H492.936L483.724 404.176L469.809 405.717L474.095 402.355L470.56 335.425C470.56 334.809 470.56 334.165 470.56 333.548C469.363 318.336 482.277 308.894 482.277 308.894C482.277 308.894 499.866 305.757 498.363 330.467Z" fill="#FFC1BA"/>
<path d="M484.698 397.113L486.006 402.156C486.153 402.739 486.07 403.356 485.774 403.879C485.478 404.401 484.993 404.788 484.42 404.958L463.965 410.561C463.722 410.62 463.466 410.599 463.236 410.501C463.006 410.403 462.813 410.234 462.685 410.018C462.558 409.802 462.502 409.55 462.527 409.3C462.552 409.05 462.656 408.814 462.823 408.628L474.735 399.803L484.698 397.113Z" fill="#FF5640"/>
<path d="M484.698 397.113L482.138 399.915C480.667 401.522 478.787 402.693 476.702 403.3C474.616 403.908 472.406 403.929 470.31 403.361L474.735 400.083L484.698 397.113Z" fill="#FFC1BA"/>
<path d="M521.657 287.406L512.723 291.693L504.151 295.867L524.162 296.063L521.657 287.406Z" fill="#FFCEC8"/>
<path d="M544.812 302.086C544.812 302.086 553.328 321.921 541.584 330.466H504.152C504.152 330.466 503.317 308.053 482.249 308.894L493.659 302.086H544.812Z" fill="#FF6652"/>
<path d="M504.151 330.464H498.724L489.512 404.174L474.984 406.975L479.02 402.521L476.237 336.292C475.933 331.952 476.588 327.598 478.157 323.545C479.198 320.961 480.594 318.537 482.304 316.344L487.564 309.312C487.564 309.312 503.177 310.433 504.151 330.464Z" fill="#FFCEC8"/>
<path d="M541.667 291.301L543.587 296.428L526.388 296.063L541.667 291.301Z" fill="#384B61"/>
<path d="M438.917 303.877H586.753C587.747 303.87 588.698 303.469 589.401 302.761C590.104 302.053 590.502 301.096 590.51 300.095C590.51 299.598 590.413 299.106 590.224 298.647C590.035 298.188 589.758 297.772 589.409 297.42C589.06 297.069 588.646 296.791 588.19 296.601C587.735 296.41 587.246 296.313 586.753 296.313H438.917C438.422 296.309 437.932 296.404 437.474 296.593C437.017 296.782 436.601 297.06 436.252 297.412C435.902 297.764 435.625 298.183 435.438 298.643C435.25 299.104 435.156 299.597 435.159 300.095C435.159 301.098 435.555 302.06 436.26 302.769C436.964 303.478 437.92 303.877 438.917 303.877Z" fill="#FDA74C"/>
<path d="M440.447 410.785H440.28C440.038 410.738 439.824 410.597 439.684 410.393C439.544 410.189 439.488 409.937 439.529 409.693L457.146 304.381C457.159 304.253 457.199 304.128 457.262 304.015C457.326 303.903 457.411 303.804 457.513 303.726C457.616 303.647 457.733 303.591 457.858 303.559C457.983 303.528 458.113 303.523 458.24 303.544C458.367 303.565 458.488 303.612 458.596 303.681C458.705 303.751 458.798 303.843 458.87 303.95C458.942 304.057 458.992 304.178 459.016 304.305C459.04 304.432 459.038 304.563 459.01 304.69L441.282 410.001C441.251 410.207 441.152 410.397 441 410.54C440.849 410.682 440.654 410.769 440.447 410.785Z" fill="#426BFF"/>
<path d="M587.393 410.787C587.171 410.79 586.957 410.712 586.788 410.568C586.619 410.424 586.508 410.223 586.474 410.003L568.774 304.692C568.733 304.447 568.789 304.196 568.929 303.992C569.069 303.788 569.283 303.647 569.525 303.599C569.648 303.575 569.775 303.576 569.897 303.603C570.019 303.63 570.134 303.682 570.236 303.756C570.338 303.829 570.423 303.923 570.488 304.03C570.552 304.138 570.594 304.259 570.611 304.383L588.339 409.695C588.372 409.942 588.309 410.194 588.165 410.397C588.02 410.6 587.803 410.739 587.56 410.787H587.393Z" fill="#426BFF"/>
<path d="M526.722 244.262H535.071C536.915 244.26 538.739 244.651 540.423 245.409C542.106 246.167 543.611 247.275 544.84 248.66C546.09 250.075 547.038 251.735 547.623 253.535L554.553 276.984C555.064 278.678 555.156 280.473 554.821 282.211C554.486 283.949 553.735 285.579 552.632 286.958C551.131 288.844 549.043 290.166 546.704 290.712L524.05 296.063L519.597 288.331L512.584 291.693L504.513 295.643L503.205 286.481L500.784 295.811H474.039L473.788 293.766L490.486 288.163L495.413 258.606C495.789 256.197 496.744 253.918 498.196 251.966C499.465 250.301 501.066 248.922 502.898 247.918C504.729 246.914 506.749 246.308 508.827 246.139L512.723 245.831C514.864 247.264 517.425 247.926 519.987 247.708C521.287 247.643 522.56 247.303 523.72 246.709C524.881 246.115 525.904 245.281 526.722 244.262Z" fill="#384B61"/>
<path d="M519.708 288.891C519.602 288.889 519.498 288.856 519.409 288.797C519.32 288.737 519.25 288.653 519.207 288.555C519.175 288.487 519.156 288.413 519.153 288.338C519.149 288.263 519.161 288.187 519.187 288.117C519.213 288.046 519.253 287.982 519.304 287.927C519.355 287.872 519.417 287.828 519.486 287.798L538.049 278.889L532.121 259.474C532.085 259.326 532.104 259.169 532.176 259.034C532.248 258.9 532.367 258.797 532.511 258.746C532.582 258.725 532.657 258.718 532.73 258.726C532.804 258.734 532.876 258.758 532.941 258.794C533.006 258.831 533.062 258.88 533.108 258.939C533.154 258.998 533.187 259.066 533.206 259.138L539.273 279.029C539.319 279.159 539.312 279.302 539.255 279.428C539.198 279.553 539.095 279.651 538.967 279.702L519.959 288.835L519.708 288.891Z" fill="#212B38"/>
<path d="M503.317 287.067C503.182 287.069 503.052 287.021 502.95 286.934C502.847 286.846 502.78 286.725 502.76 286.591L501.007 276.729C500.981 276.581 501.015 276.428 501.101 276.304C501.187 276.181 501.318 276.097 501.466 276.071C501.613 276.045 501.765 276.079 501.888 276.166C502.01 276.252 502.094 276.385 502.12 276.533L503.873 286.395C503.897 286.547 503.861 286.703 503.773 286.828C503.685 286.954 503.551 287.04 503.4 287.067H503.317Z" fill="#212B38"/>
<path d="M505.042 278.468C503.648 278.465 502.298 277.969 501.229 277.067C500.423 276.398 499.802 275.53 499.427 274.549C499.051 273.567 498.934 272.505 499.086 271.464L501.174 255.523C501.201 255.377 501.282 255.247 501.401 255.158C501.52 255.07 501.667 255.03 501.814 255.047C501.886 255.053 501.956 255.075 502.02 255.11C502.083 255.145 502.139 255.193 502.184 255.251C502.228 255.309 502.26 255.375 502.278 255.446C502.296 255.517 502.299 255.591 502.287 255.663L500.199 271.604C500.082 272.448 500.181 273.309 500.488 274.103C500.795 274.898 501.3 275.6 501.953 276.142C502.577 276.677 503.328 277.041 504.132 277.198C504.937 277.355 505.768 277.3 506.545 277.039C506.69 276.997 506.844 277.008 506.981 277.07C507.119 277.131 507.23 277.239 507.296 277.375C507.352 277.513 507.35 277.667 507.293 277.803C507.235 277.94 507.127 278.048 506.99 278.104C506.365 278.332 505.707 278.455 505.042 278.468Z" fill="#212B38"/>
<path d="M524.941 296.425C524.818 296.396 524.708 296.327 524.629 296.228C524.551 296.128 524.508 296.005 524.508 295.878C524.508 295.751 524.551 295.628 524.629 295.529C524.708 295.429 524.818 295.36 524.941 295.332L541.249 291.466C541.385 291.458 541.519 291.499 541.628 291.58C541.737 291.661 541.815 291.778 541.848 291.91C541.88 292.043 541.867 292.183 541.808 292.306C541.75 292.429 541.651 292.528 541.528 292.586L525.191 296.425H524.941Z" fill="#212B38"/>
<path d="M517.315 296.426H499.587V293.008H513.947C514.843 293.015 515.7 293.379 516.33 294.019C516.961 294.659 517.315 295.524 517.315 296.426Z" fill="#293545"/>
<path d="M501.675 296.426H450.55L442.424 270.595C442.257 270.061 442.218 269.494 442.311 268.941C442.403 268.389 442.623 267.866 442.954 267.415C443.285 266.965 443.717 266.599 444.215 266.349C444.713 266.098 445.262 265.969 445.819 265.973H489.541C490.293 265.974 491.024 266.216 491.63 266.665C492.236 267.113 492.683 267.744 492.908 268.466L501.675 296.426Z" fill="#293545"/>
<path d="M466.413 282.501C466.714 282.9 467.122 283.203 467.59 283.374C468.057 283.546 468.564 283.577 469.049 283.466C469.534 283.355 469.977 283.106 470.325 282.748C470.673 282.39 470.911 281.938 471.01 281.448C471.11 280.957 471.067 280.448 470.886 279.981C470.706 279.514 470.396 279.11 469.993 278.816C469.59 278.522 469.112 278.351 468.615 278.324C468.118 278.297 467.624 278.415 467.192 278.663C466.59 279.073 466.171 279.705 466.025 280.422C465.879 281.139 466.019 281.885 466.413 282.501Z" fill="#526985"/>
<path d="M490.375 398.375L491.46 403.502C491.607 404.085 491.524 404.702 491.228 405.225C490.932 405.747 490.447 406.134 489.874 406.303L469.418 411.907C469.173 411.981 468.909 411.969 468.671 411.874C468.432 411.779 468.233 411.606 468.104 411.382C467.975 411.159 467.925 410.898 467.962 410.643C467.998 410.387 468.119 410.151 468.305 409.974L479.438 401.317L490.375 398.375Z" fill="#FF6652"/>
<path d="M490.152 398.434L487.592 401.235C486.036 402.812 484.098 403.951 481.969 404.541C479.841 405.131 477.596 405.15 475.458 404.597L479.299 401.571L490.152 398.434Z" fill="#FFCEC8"/>
<path d="M264.92 324.442C270.236 344.053 262.61 366.689 259.048 387.225L247.915 385.964C247.915 385.964 245.828 316.765 246.496 314.664C252.758 316.961 259.243 316.429 265.699 317.942C265.56 317.886 264.948 324.442 264.92 324.442Z" fill="#FFCEC8"/>
<path d="M300.849 383.277L307.806 401.039L315.209 399.134L311.675 381.008C311.675 381.008 305.441 381.988 300.849 383.277Z" fill="#FFCEC8"/>
<path d="M314.987 397.758L316.684 401.96C316.924 402.462 316.955 403.039 316.773 403.564C316.59 404.089 316.208 404.52 315.71 404.762L299.541 412.102C298.678 412.522 297.843 411.402 298.4 410.589L306.415 401.792L314.987 397.758Z" fill="#384B61"/>
<path d="M314.987 397.758L313.178 400.391C312.12 401.918 310.672 403.13 308.987 403.899C307.302 404.668 305.443 404.966 303.604 404.762L307.529 399.803L314.987 397.758Z" fill="#FFCEC8"/>
<path d="M247.776 385.348L247.47 404.959L254.873 406.163L259.047 387.337C259.047 387.337 252.507 386.048 247.776 385.348Z" fill="#FFCEC8"/>
<path d="M255.29 404.736V409.302C255.29 409.823 255.091 410.324 254.733 410.7C254.375 411.076 253.887 411.298 253.37 411.319H235.697C235.48 411.312 235.272 411.234 235.103 411.097C234.935 410.96 234.815 410.771 234.761 410.56C234.708 410.348 234.724 410.125 234.808 409.923C234.891 409.722 235.037 409.553 235.224 409.442L245.967 404.68L255.29 404.736Z" fill="#384B61"/>
<path d="M255.29 404.735L252.507 406.388C250.923 407.349 249.11 407.857 247.261 407.857C245.412 407.857 243.598 407.349 242.015 406.388L247.581 403.586L255.29 404.735Z" fill="#FFCEC8"/>
<path d="M265.282 265.609L260.689 271.212L279.447 332.062L291.582 328.336L300.237 325.703C297.092 300.881 296.396 284.183 293.251 269.671C292.541 266.098 290.976 262.754 288.692 259.927C286.408 257.101 283.473 254.878 280.143 253.45L275.662 251.629L265.282 265.609Z" fill="#FFCEC8"/>
<path d="M279.447 332.064L301.294 384.118L311.619 380.952C307.334 362.854 304.077 346.857 298.789 325.312H288.409L279.447 332.064Z" fill="#FFCEC8"/>
<path d="M247.358 298.277C245.813 303.48 244.815 308.833 244.38 314.246C243.61 320.112 244.249 326.078 246.245 331.644C250.976 327.778 270.847 323.239 275.996 325.788C282.422 328.923 289.627 330.074 296.702 329.094C305.607 327.806 313.122 324.528 318.354 316.767C322.217 311.25 324.341 304.69 324.449 297.941C322.834 298.78 320.96 298.96 319.217 298.445C315.626 297.044 313.4 293.318 310.394 291.077C305.162 287.183 302.184 280.963 299.819 274.828C297.952 268.548 295.136 262.595 291.469 257.178C290.707 256.099 289.694 255.224 288.519 254.628C286.34 253.337 283.778 252.861 281.283 253.284C275.717 255.301 270.485 249.221 266.561 254.236C264.521 257.074 262.812 260.138 261.468 263.369C259.993 266.591 258.129 269.673 256.848 272.895C253.703 280.683 250.447 288.387 247.998 296.4C247.72 296.904 247.525 297.521 247.358 298.277Z" fill="#FF6652"/>
<path d="M259.13 189.966C261.162 189.293 261.913 186.015 261.913 186.015C261.617 183.92 262.039 181.785 263.11 179.964L277.972 179.348L278.361 190.554L279.948 204.982L267.563 205.402L268.148 198.763H267.925L263.834 199.295L262.971 199.463C262.568 199.502 262.162 199.425 261.802 199.239C260.327 198.595 260.411 192.935 260.411 192.935V191.927C258.713 191.282 259.13 189.966 259.13 189.966Z" fill="#FFCEC8"/>
<path d="M268.259 198.734L273.908 197.445L268.203 200.191L268.259 198.734Z" fill="#FF897A"/>
<path d="M271.933 187.643C270.143 186.918 268.617 185.656 267.564 184.029C266.802 182.924 266.376 181.619 266.339 180.275C266.339 180.275 263.083 180.723 261.997 185.682C261.571 184.225 261.535 182.68 261.891 181.205C262.248 179.729 262.986 178.374 264.029 177.277C266.812 174.475 281.173 172.206 284.735 184.057C286.878 191.257 278.584 196.048 279.169 197.813C279.169 197.813 273.603 196.944 274.883 191.901L271.933 187.643Z" fill="#5C403A"/>
<path d="M266.339 180.273C266.339 180.273 265.142 188.678 271.905 191.676C271.926 190.717 272.227 189.785 272.772 188.998C273.316 188.21 274.08 187.602 274.966 187.249L266.339 180.273Z" fill="#5C403A"/>
<path d="M271.571 193.243C273.046 194.279 274.577 194.672 275.802 192.879C277.026 191.086 277.527 187.808 276.052 186.771C275.203 186.377 274.244 186.296 273.342 186.542C272.44 186.788 271.653 187.346 271.119 188.118C270.585 188.889 270.337 189.826 270.42 190.763C270.503 191.7 270.91 192.578 271.571 193.243Z" fill="#FFCEC8"/>
<path d="M277.416 194.449C277.472 195.817 277.93 197.137 278.733 198.243C279.535 199.349 280.645 200.19 281.922 200.661C283.2 201.131 284.587 201.21 285.909 200.886C287.231 200.562 288.427 199.851 289.347 198.843C290.267 197.834 290.869 196.573 291.077 195.22C291.285 193.867 291.09 192.482 290.515 191.241C289.941 190 289.014 188.958 287.851 188.247C286.689 187.536 285.343 187.189 283.984 187.249C283.081 187.281 282.193 187.494 281.373 187.874C280.552 188.255 279.815 188.796 279.204 189.466C278.592 190.136 278.12 190.921 277.813 191.777C277.506 192.632 277.371 193.54 277.416 194.449Z" fill="#5C403A"/>
<path d="M279.669 189.32C279.704 189.338 279.742 189.347 279.781 189.347C279.819 189.347 279.857 189.338 279.892 189.32C280.506 188.68 281.263 188.195 282.101 187.908C282.938 187.621 283.831 187.538 284.707 187.668C284.743 187.676 284.781 187.676 284.818 187.669C284.855 187.662 284.89 187.648 284.921 187.627C284.952 187.606 284.979 187.579 284.999 187.548C285.02 187.516 285.034 187.481 285.041 187.443C285.054 187.406 285.058 187.367 285.053 187.328C285.048 187.289 285.035 187.252 285.013 187.219C284.991 187.186 284.962 187.159 284.929 187.14C284.895 187.12 284.857 187.109 284.818 187.107C283.847 186.937 282.849 187.015 281.916 187.333C280.983 187.651 280.143 188.2 279.474 188.928C279.439 188.97 279.415 189.022 279.406 189.076C279.397 189.131 279.403 189.187 279.423 189.239C279.443 189.29 279.476 189.335 279.52 189.369C279.563 189.404 279.615 189.425 279.669 189.433V189.32Z" fill="white"/>
<path d="M260.383 228.293L242.85 269.588L247.303 272.53L267.229 251.714L260.383 228.293Z" fill="#FFCEC8"/>
<path d="M246.691 265.609L249.474 270.064L238.787 282.195C238.655 282.283 238.5 282.329 238.342 282.329C238.183 282.329 238.028 282.283 237.896 282.195C237.748 282.092 237.644 281.936 237.608 281.758C237.572 281.58 237.605 281.395 237.702 281.242L235.642 283.455C235.492 283.568 235.31 283.626 235.123 283.622C234.936 283.618 234.757 283.55 234.612 283.431C234.468 283.312 234.368 283.147 234.328 282.964C234.287 282.78 234.309 282.588 234.39 282.419L233.666 283.259C233.477 283.388 233.254 283.457 233.026 283.457C232.798 283.457 232.575 283.388 232.386 283.259C232.221 283.118 232.108 282.925 232.068 282.711C232.027 282.496 232.061 282.275 232.163 282.082L233.249 280.85L235.559 278.048L232.776 279.953C232.33 280.234 231.885 280.29 231.551 279.953C231.418 279.755 231.361 279.515 231.392 279.277C231.423 279.04 231.539 278.822 231.718 278.665C233.666 276.844 235.392 274.798 237.284 273.061L235.781 273.678C235.453 273.839 235.087 273.907 234.724 273.874C234.48 273.837 234.245 273.751 234.035 273.621C233.825 273.491 233.642 273.32 233.499 273.118L236.588 271.296L239.65 269.503C240.27 269.135 241.002 269.006 241.709 269.139L243.128 269.419L246.691 265.609Z" fill="#FFCEC8"/>
<path d="M282.787 208.259L287.546 255.129L266.45 254.121C266.673 249.919 261.552 232.241 261.552 232.241L257.656 227.702C257.131 226.69 256.801 225.588 256.682 224.452C256.603 223.137 256.864 221.824 257.439 220.64C258.015 219.457 258.885 218.444 259.966 217.7C262.749 215.683 264.419 209.688 267.425 205.794C279.03 205.402 279.893 202.992 279.893 202.992C280.535 204.909 281.515 206.693 282.787 208.259Z" fill="#384B61"/>
<path d="M276.915 204.562C275.074 206.599 273.062 208.474 270.904 210.166C269.54 211.258 266.256 213.864 264.057 213.388H263.139C264.243 210.529 265.772 207.855 267.675 205.459L276.915 204.562Z" fill="#FFCEC8"/>
<path d="M270.442 296.922L298.921 291.723L294.923 269.532L266.443 274.732L270.442 296.922Z" fill="white"/>
<path d="M280.467 307.31L315.814 300.775C316.507 300.647 316.965 299.978 316.838 299.28L312.88 277.59C312.753 276.893 312.088 276.431 311.395 276.559L276.048 283.095C275.355 283.223 274.897 283.892 275.024 284.59L278.982 306.28C279.109 306.977 279.774 307.439 280.467 307.31Z" fill="#384B61"/>
<path d="M275.161 207.139C275.567 206.911 275.985 206.705 276.414 206.522C277.285 206.114 278.235 205.902 279.197 205.902C280.158 205.902 281.108 206.114 281.98 206.522C283.525 207.508 284.723 208.959 285.403 210.669C286.27 213.051 286.823 215.538 287.045 218.065C287.768 222.659 288.492 227.226 289.188 231.821C289.661 234.622 290.106 237.424 290.552 240.421L294.81 283.37L288.409 284.07L277.276 250.451C276.832 249.125 276.488 247.767 276.247 246.389L273.909 232.549L271.404 217.953C270.849 215.546 270.984 213.03 271.794 210.697C272.547 209.205 273.718 207.968 275.161 207.139Z" fill="#FFCEC8"/>
<path d="M272.267 229.302C271.655 225.576 271.014 221.85 270.374 218.096C269.749 215.447 269.904 212.673 270.82 210.111C271.68 208.412 273.041 207.023 274.716 206.133C275.156 205.88 275.612 205.656 276.08 205.46C277.019 205.031 278.039 204.809 279.071 204.809C280.103 204.809 281.124 205.031 282.063 205.46C283.767 206.528 285.084 208.119 285.82 209.999C286.774 212.614 287.373 215.347 287.602 218.124C288.214 221.878 288.798 225.632 289.383 229.33L272.267 229.302Z" fill="#384B61"/>
<path d="M294.002 281.215L294.587 283.148L297.676 287.939C298.168 289.02 298.559 290.146 298.845 291.301C298.95 291.693 298.946 292.107 298.833 292.498C298.721 292.888 298.503 293.24 298.205 293.514L296.284 294.522C295.795 294.675 295.271 294.675 294.781 294.522L292.332 293.906L294.447 293.15L293.056 291.861L291.163 289.956L290.829 290.236L291.08 291.945C291.165 292.51 291.108 293.089 290.913 293.626C290.8 293.926 290.582 294.174 290.3 294.323C290.018 294.473 289.692 294.514 289.382 294.438V292.113L288.909 289.311L288.241 285.053L287.518 282.027L294.002 281.215Z" fill="#FFCEC8"/>
<path d="M272.044 228.403C272.147 228.377 272.237 228.315 272.299 228.227C272.36 228.14 272.388 228.034 272.378 227.927C271.291 222.994 270.593 217.982 270.291 212.939C270.299 212.887 270.296 212.834 270.284 212.784C270.271 212.733 270.249 212.686 270.218 212.644C270.186 212.602 270.147 212.567 270.103 212.541C270.058 212.514 270.008 212.497 269.957 212.49C269.905 212.478 269.851 212.477 269.799 212.488C269.747 212.499 269.698 212.521 269.656 212.553C269.613 212.585 269.578 212.627 269.554 212.674C269.529 212.721 269.514 212.773 269.512 212.827C269.782 217.955 270.471 223.052 271.571 228.067C271.597 228.171 271.659 228.262 271.746 228.323C271.833 228.385 271.939 228.413 272.044 228.403Z" fill="#384B61"/>
<path d="M114.245 405.914C114.245 406.845 113.971 407.754 113.457 408.528C112.943 409.302 112.213 409.906 111.358 410.262C110.504 410.618 109.564 410.712 108.657 410.53C107.75 410.348 106.917 409.9 106.263 409.242C105.609 408.583 105.164 407.745 104.983 406.832C104.803 405.919 104.896 404.973 105.249 404.113C105.603 403.253 106.203 402.517 106.972 402C107.74 401.483 108.644 401.207 109.569 401.207C110.809 401.207 111.998 401.703 112.875 402.586C113.752 403.468 114.245 404.665 114.245 405.914Z" fill="#426BFF"/>
<path d="M109.04 402.802H147.391C147.635 402.802 147.868 402.705 148.04 402.531C148.213 402.358 148.309 402.123 148.309 401.878C148.309 401.632 148.213 401.397 148.04 401.224C147.868 401.05 147.635 400.953 147.391 400.953H109.04C108.797 400.953 108.563 401.05 108.391 401.224C108.219 401.397 108.122 401.632 108.122 401.878C108.122 402.123 108.219 402.358 108.391 402.531C108.563 402.705 108.797 402.802 109.04 402.802Z" fill="#426BFF"/>
<path d="M128.215 402.102C128.336 402.102 128.455 402.078 128.567 402.031C128.678 401.985 128.779 401.916 128.865 401.831C128.95 401.745 129.018 401.643 129.064 401.531C129.11 401.419 129.134 401.298 129.134 401.177V322.257C129.134 322.011 129.037 321.776 128.865 321.603C128.692 321.43 128.459 321.332 128.215 321.332C127.972 321.332 127.738 321.43 127.566 321.603C127.394 321.776 127.297 322.011 127.297 322.257V401.177C127.297 401.298 127.321 401.419 127.367 401.531C127.413 401.643 127.481 401.745 127.566 401.831C127.651 401.916 127.752 401.985 127.864 402.031C127.975 402.078 128.095 402.102 128.215 402.102Z" fill="#426BFF"/>
<path d="M151.927 405.914C151.927 406.845 151.653 407.754 151.139 408.528C150.626 409.302 149.895 409.906 149.041 410.262C148.187 410.618 147.247 410.712 146.34 410.53C145.433 410.348 144.599 409.9 143.946 409.242C143.292 408.583 142.846 407.745 142.666 406.832C142.486 405.919 142.578 404.973 142.932 404.113C143.286 403.253 143.885 402.517 144.654 402C145.423 401.483 146.327 401.207 147.252 401.207C148.492 401.207 149.681 401.703 150.558 402.586C151.435 403.468 151.927 404.665 151.927 405.914Z" fill="#426BFF"/>
<path d="M100.913 333.601H158.579V327.746H99.3271L100.913 333.601Z" fill="#3661FF"/>
<path d="M99.3827 327.749L79.0664 258.887H142.492L129.05 327.749H99.3827Z" fill="#426BFF"/>
<path d="M174.581 395.379L180.899 406.865L184.934 407.062L187.717 408.742C187.859 408.835 187.977 408.959 188.064 409.105C188.151 409.25 188.203 409.414 188.218 409.583C188.23 409.699 188.217 409.816 188.18 409.927C188.144 410.037 188.083 410.138 188.004 410.223C187.925 410.308 187.829 410.375 187.721 410.419C187.614 410.464 187.499 410.484 187.383 410.479L180.231 410.115L175.333 402.187C175.333 402.187 174.275 401.43 174.164 402.523C174.052 403.616 174.47 407.454 174.637 409.135C174.66 409.218 174.662 409.305 174.644 409.389C174.626 409.473 174.588 409.552 174.534 409.618C174.479 409.684 174.409 409.735 174.33 409.768C174.251 409.801 174.165 409.815 174.08 409.807C173.907 409.794 173.745 409.719 173.622 409.596C173.5 409.472 173.425 409.309 173.412 409.135L172.577 401.598C172.577 401.598 170.49 396.331 174.581 395.379Z" fill="#384B61"/>
<path d="M180.899 406.863L184.934 407.059L182.847 389.941L174.581 395.376L180.899 406.863Z" fill="#FFCDC7"/>
<path d="M182.847 389.942L182.096 382.798L167.624 382.266L174.582 395.377L182.847 389.942Z" fill="#FFCDC7"/>
<path d="M134.839 300.824C141.296 302.365 149.06 304.102 155.461 305.895C161.862 307.688 168.319 307.912 174.275 310.21C177.337 311.249 179.945 313.329 181.65 316.093C182.772 318.337 183.435 320.786 183.598 323.293C184.572 332.006 184.795 388.906 184.934 391.203H169.516L155.267 317.157L134.839 300.824Z" fill="#FF4D36"/>
<path d="M106.146 301.637H136.37L166.316 314.72C168.723 315.767 170.89 317.302 172.681 319.231C174.472 321.159 175.849 323.438 176.725 325.926C176.725 326.178 176.725 326.459 176.947 326.711L153.208 328.056V327.803H121.175V327.635H106.146C94.7078 319.231 106.146 301.637 106.146 301.637Z" fill="#FF6652"/>
<path d="M213.655 294.156H65.1512C62.9993 294.156 61.2549 295.912 61.2549 298.078V298.359C61.2549 300.525 62.9993 302.281 65.1512 302.281H213.655C215.807 302.281 217.552 300.525 217.552 298.359V298.078C217.552 295.912 215.807 294.156 213.655 294.156Z" fill="#FDA74C"/>
<path d="M212.57 411.374H212.737C212.855 411.354 212.967 411.31 213.068 411.245C213.169 411.18 213.256 411.096 213.323 410.996C213.391 410.897 213.438 410.785 213.461 410.667C213.485 410.549 213.484 410.427 213.46 410.309L195.37 302.701C195.35 302.583 195.307 302.471 195.244 302.37C195.181 302.269 195.098 302.181 195.001 302.112C194.904 302.043 194.795 301.994 194.679 301.968C194.564 301.941 194.444 301.938 194.327 301.958C194.21 301.979 194.098 302.022 193.998 302.086C193.897 302.149 193.81 302.232 193.742 302.33C193.673 302.428 193.625 302.538 193.598 302.654C193.572 302.771 193.569 302.891 193.589 303.009L211.679 410.618C211.718 410.828 211.828 411.018 211.99 411.156C212.152 411.294 212.357 411.371 212.57 411.374Z" fill="#426BFF"/>
<path d="M64.0943 411.376C64.3067 411.373 64.5116 411.296 64.674 411.158C64.8364 411.02 64.9462 410.83 64.9849 410.619L83.0748 303.011C83.1151 302.769 83.0585 302.522 82.9176 302.322C82.7768 302.122 82.563 301.987 82.3233 301.946C82.2062 301.926 82.0863 301.93 81.9706 301.958C81.855 301.985 81.7461 302.035 81.6501 302.106C81.5542 302.176 81.4732 302.265 81.412 302.368C81.3507 302.47 81.3105 302.584 81.2936 302.703L63.1758 410.339C63.1355 410.581 63.1919 410.828 63.3328 411.028C63.4736 411.227 63.6875 411.363 63.9273 411.404L64.0943 411.376Z" fill="#426BFF"/>
<path d="M132.057 226.192C132.057 226.192 136.092 242.609 125.294 244.99V249.809C125.294 249.809 118.809 253.003 114.997 250.201V238.378C114.997 238.378 110.655 237.09 112.047 233.448C113.438 229.805 116.694 232.495 116.694 232.495L118.364 226.023L132.057 226.192Z" fill="#FFCEC8"/>
<path d="M125.294 245.046C123.318 245.128 121.386 244.447 119.895 243.141C120.28 244.313 121 245.346 121.965 246.108C122.931 246.871 124.098 247.329 125.322 247.427L125.294 245.046Z" fill="#FFBDB5"/>
<path d="M105.311 250.089C107.036 250.089 108.428 250.482 109.986 250.51H112.491C113.24 250.675 114.008 250.731 114.773 250.678C115.552 250.341 115.302 247.876 115.33 246.923L115.747 238.379C114.775 238.336 113.855 237.92 113.178 237.217C112.5 236.514 112.115 235.576 112.101 234.597C112.101 234.597 112.101 231.795 116.61 232.664C118.904 233.21 121.307 233.069 123.523 232.258C125.738 231.446 127.669 230 129.078 228.097C129.294 229.114 129.77 230.057 130.458 230.833C131.146 231.609 132.023 232.192 133.002 232.524L133.141 229.722C133.283 228.341 133.142 226.946 132.728 225.622C132.314 224.298 131.635 223.073 130.733 222.023C129.831 220.974 128.725 220.121 127.483 219.517C126.241 218.914 124.89 218.573 123.512 218.516H122.51C114.495 218.992 110.793 222.914 109.569 227.957C109.569 227.957 100.468 248.044 95.6535 251.042C94.2586 251.827 93.0662 252.93 92.1719 254.263C91.2777 255.596 90.7067 257.122 90.5049 258.718H97.1286C97.1286 258.718 97.9079 251.014 104.81 249.977L105.311 250.089Z" fill="#FDA74C"/>
<path d="M124.792 249.472H128.466C128.744 252.638 128.021 255.075 126.128 256.083C124.878 256.723 123.497 257.057 122.095 257.059C120.693 257.061 119.31 256.731 118.058 256.096C116.806 255.46 115.72 254.537 114.889 253.401C114.057 252.265 113.503 250.948 113.271 249.556L124.737 249.023L124.792 249.472Z" fill="#FFCEC8"/>
<path d="M143.3 266.45L145.415 271.689L168.57 252.078L171.353 256.056L152.29 286.397C150.912 288.539 148.829 290.124 146.406 290.872C143.983 291.62 141.375 291.484 139.042 290.488L133.671 287.49L140.74 273.09C141.091 272.301 141.272 271.447 141.272 270.582C141.272 269.718 141.091 268.864 140.74 268.075L140.434 267.543L143.3 266.45Z" fill="#FFBDB5"/>
<path d="M113.437 249.584C110.155 249.41 106.866 249.769 103.696 250.648C100.884 253.336 99.0505 256.898 98.4922 260.762C98.4922 260.762 99.9673 277.571 107.426 274.462L108.316 294.073H132.863L140.572 275.47C141.41 272.831 141.515 270.012 140.878 267.318L145.86 266.113L138.791 253.758C138.409 253.093 137.92 252.496 137.344 251.993C134.596 250.23 131.389 249.332 128.132 249.415C127.241 249.415 127.019 250.676 126.796 251.405C126.452 252.464 125.86 253.425 125.07 254.206C123.935 255.069 122.567 255.566 121.147 255.631C119.726 255.696 118.319 255.326 117.111 254.57C116.316 254.241 115.605 253.734 115.031 253.089C114.458 252.444 114.036 251.676 113.799 250.844L113.437 249.584Z" fill="#384B61"/>
<path d="M140.238 267.936C140.336 267.975 140.446 267.975 140.544 267.936C140.607 267.896 140.661 267.844 140.704 267.783C140.746 267.722 140.776 267.652 140.792 267.579C140.807 267.506 140.808 267.431 140.794 267.357C140.78 267.284 140.752 267.214 140.711 267.152L132.362 254.208C132.322 254.146 132.27 254.092 132.209 254.05C132.148 254.007 132.079 253.977 132.007 253.962C131.934 253.946 131.86 253.945 131.787 253.959C131.714 253.972 131.645 254 131.583 254.04C131.521 254.081 131.467 254.133 131.425 254.194C131.383 254.256 131.353 254.325 131.338 254.398C131.322 254.471 131.321 254.546 131.334 254.619C131.348 254.692 131.375 254.762 131.416 254.825L139.765 267.796C139.828 267.854 139.903 267.897 139.985 267.922C140.067 267.946 140.154 267.951 140.238 267.936Z" fill="#212B38"/>
<path d="M107.371 275.162C107.446 275.162 107.521 275.147 107.59 275.117C107.66 275.087 107.723 275.043 107.775 274.988C107.827 274.933 107.867 274.868 107.893 274.797C107.92 274.726 107.931 274.65 107.927 274.574V262.779C107.927 262.63 107.869 262.488 107.764 262.383C107.66 262.278 107.518 262.219 107.371 262.219C107.223 262.219 107.082 262.278 106.977 262.383C106.873 262.488 106.814 262.63 106.814 262.779V274.574C106.81 274.65 106.822 274.726 106.848 274.797C106.875 274.868 106.915 274.933 106.967 274.988C107.019 275.043 107.082 275.087 107.151 275.117C107.221 275.147 107.295 275.162 107.371 275.162Z" fill="#194BFF"/>
<path d="M113.883 294.156L98.4646 264.907C97.7451 263.65 97.309 262.249 97.1874 260.804C97.0658 259.358 97.2616 257.904 97.7609 256.543C98.2602 255.182 99.0508 253.949 100.077 252.93C101.102 251.911 102.338 251.132 103.697 250.647C108.233 249.106 110.432 251.516 112.296 256.25L125.794 294.128L113.883 294.156Z" fill="#FFCEC8"/>
<path d="M102.389 274.572L98.4647 264.907C94.9859 258.547 98.4647 251.235 103.641 250.283C108.818 249.33 110.376 251.627 112.241 256.278L118.475 273.844L102.389 274.572Z" fill="#384B61"/>
<path d="M122.26 284.465L150.953 289.62L149.534 294.158H125.739L122.26 284.465Z" fill="#FFCEC8"/>
<path d="M118.141 273.452H118.336C118.406 273.427 118.47 273.389 118.525 273.338C118.58 273.288 118.624 273.227 118.655 273.159C118.686 273.091 118.704 273.018 118.706 272.943C118.709 272.868 118.696 272.794 118.67 272.724L113.299 257.623C113.243 257.486 113.137 257.374 113.002 257.312C112.868 257.25 112.715 257.241 112.575 257.287C112.505 257.312 112.441 257.351 112.386 257.402C112.331 257.452 112.286 257.513 112.255 257.581C112.224 257.649 112.207 257.722 112.204 257.797C112.202 257.871 112.214 257.946 112.241 258.016L117.612 273.06C117.648 273.174 117.718 273.273 117.813 273.343C117.908 273.414 118.023 273.452 118.141 273.452Z" fill="#212B38"/>
<path d="M176.558 250.649L170.185 251.63V239.415C170.183 239.081 170.296 238.757 170.504 238.497C170.711 238.237 171.002 238.057 171.326 237.986L175.138 237.398C175.337 237.377 175.538 237.4 175.727 237.465C175.917 237.53 176.09 237.635 176.235 237.773C176.38 237.912 176.494 238.08 176.569 238.266C176.644 238.453 176.678 238.653 176.669 238.854L176.558 250.649Z" fill="#384B61"/>
<path d="M175.667 250.2L171.047 250.704V240.282C171.03 240.032 171.106 239.784 171.26 239.587C171.415 239.39 171.636 239.258 171.882 239.217L174.665 238.769C174.816 238.757 174.967 238.777 175.109 238.829C175.251 238.88 175.381 238.962 175.489 239.068C175.597 239.174 175.681 239.303 175.736 239.444C175.791 239.586 175.815 239.738 175.806 239.89L175.667 250.2Z" fill="white"/>
<path d="M165.843 254.991L167.902 252.33L168.292 247.287L171.075 243.505C171.262 243.888 171.359 244.31 171.359 244.737C171.359 245.165 171.262 245.586 171.075 245.97L170.546 246.951L170.323 251.573L176.251 250.733L176.724 243.477L177.81 243.309V249.892L172.55 254.935L169.322 259.053L165.843 254.991Z" fill="#FFBDB5"/>
<path d="M134.867 294.156H152.707V290.738H138.29C137.387 290.738 136.521 291.097 135.88 291.738C135.238 292.378 134.875 293.247 134.867 294.156Z" fill="#2D57F0"/>
<path d="M150.563 294.157H202.05L210.204 268.186C210.375 267.649 210.418 267.078 210.328 266.52C210.238 265.963 210.019 265.434 209.688 264.978C209.357 264.522 208.924 264.152 208.423 263.896C207.923 263.64 207.37 263.507 206.809 263.508H162.809C162.052 263.518 161.317 263.766 160.708 264.219C160.099 264.671 159.646 265.304 159.414 266.029L150.563 294.157Z" fill="#426BFF"/>
<path d="M186.103 280.148C185.77 280.801 185.195 281.295 184.503 281.526C183.811 281.756 183.056 281.704 182.402 281.381C181.859 281.143 181.401 280.745 181.088 280.239C180.776 279.734 180.623 279.145 180.65 278.55C180.677 277.955 180.882 277.382 181.24 276.907C181.597 276.432 182.089 276.078 182.651 275.891C183.213 275.704 183.818 275.693 184.386 275.859C184.954 276.026 185.458 276.362 185.832 276.824C186.207 277.285 186.433 277.85 186.481 278.444C186.53 279.037 186.398 279.632 186.103 280.148Z" fill="#7895FF"/>
<path d="M155.045 393.332L158.996 405.827L162.921 406.808L165.258 408.993C165.384 409.11 165.481 409.254 165.544 409.414C165.606 409.574 165.632 409.746 165.62 409.917C165.608 410.033 165.571 410.145 165.512 410.245C165.453 410.345 165.373 410.431 165.278 410.498C165.183 410.564 165.075 410.609 164.961 410.63C164.847 410.651 164.73 410.646 164.618 410.618L157.688 408.881L154.404 400.112C154.404 400.112 153.514 399.187 153.208 400.112C152.901 401.036 152.54 405.043 152.373 406.724C152.37 406.805 152.35 406.885 152.314 406.958C152.277 407.031 152.226 407.095 152.162 407.146C152.098 407.197 152.024 407.233 151.945 407.252C151.866 407.271 151.784 407.272 151.705 407.256C151.536 407.205 151.39 407.095 151.294 406.946C151.197 406.798 151.155 406.62 151.176 406.443L151.816 398.907C151.816 398.907 150.675 393.528 155.045 393.332Z" fill="#384B61"/>
<path d="M158.996 405.827L162.948 406.807L164.2 389.605L155.044 393.332L158.996 405.827Z" fill="#FFCDC7"/>
<path d="M164.201 389.607L164.841 382.463L150.759 379.102L155.045 393.334L164.201 389.607Z" fill="#FFCDC7"/>
<path d="M176.947 331.474L166.01 393.333L151.176 386.217L151.593 326.963L172.021 318.559C173.87 320.108 175.293 322.109 176.155 324.37C177.018 326.631 177.29 329.077 176.947 331.474Z" fill="#FF6652"/>
<path d="M107.398 251.742L107.927 251.574L107.398 251.742Z" fill="#FDA74C"/>
</g>
</g>
<defs>
<clipPath id="clip0_1589_2801">
<rect width="600" height="500" fill="white"/>
</clipPath>
<clipPath id="clip1_1589_2801">
<rect width="600" height="327" fill="white" transform="translate(0 86)"/>
</clipPath>
</defs>
</svg>
