<svg width="375" height="576" viewBox="0 0 375 576" fill="none" xmlns="http://www.w3.org/2000/svg">
<g clip-path="url(#clip0_2765_999)">
<path d="M212.215 76.6961C317.421 40.5043 431.085 87.4303 481.804 182.533L484.62 181.027C433.171 84.556 317.871 36.9777 211.178 73.6813C177.79 85.1148 147.551 104.223 122.892 129.469L125.17 131.696C149.483 106.806 179.297 87.9674 212.215 76.6961Z" fill="white"/>
<path d="M499.043 214.184C495.118 202.768 490.295 191.681 484.62 181.027L481.804 182.534C487.402 193.036 492.158 203.966 496.029 215.221C536.147 331.84 474.127 458.908 357.502 499.028C240.877 539.149 113.815 477.127 73.6964 360.508C45.2974 277.955 68.0773 190.176 125.17 131.696L122.892 129.469C64.9843 188.779 41.8761 277.81 70.6817 361.545C111.374 479.833 240.251 542.736 358.539 502.043C476.827 461.351 539.736 332.472 499.043 214.184Z" fill="#B8292D"/>
<g clip-path="url(#clip1_2765_999)">
<path d="M300.496 122C291.73 121.999 282.977 122.694 274.321 124.078C195.909 136.614 136 204.563 136 286.508C135.962 312.138 141.938 337.419 153.448 360.318C167.137 387.585 188.14 410.507 214.108 426.522C240.076 442.538 269.987 451.016 300.496 451.008C391.346 451.008 464.992 377.36 464.992 286.508C464.992 195.656 391.346 122 300.496 122ZM300.496 448.694C270.416 448.7 240.927 440.341 215.325 424.551C189.722 408.761 169.015 386.161 155.518 359.279C144.172 336.701 138.279 311.777 138.314 286.508C138.314 205.715 197.387 138.741 274.711 126.368C283.246 125.002 291.877 124.318 300.521 124.322C390.088 124.322 462.703 196.931 462.703 286.508C462.703 376.086 390.063 448.719 300.496 448.719V448.694Z" fill="#C4C4C4"/>
<g clip-path="url(#clip2_2765_999)">
<g filter="url(#filter0_d_2765_999)">
<circle cx="300" cy="287" r="50" fill="#B8292D"/>
</g>
<path d="M297.2 276.21H286.55V282.66H296.24V285.81H286.55V296.34H282.8V272.97H297.2V276.21ZM317.152 280.62C317.152 281.58 316.972 282.52 316.612 283.44C316.252 284.36 315.742 285.18 315.082 285.9C314.422 286.6 313.632 287.17 312.712 287.61C311.812 288.03 310.822 288.24 309.742 288.24H303.952V296.34H300.202V272.97H309.742C310.822 272.97 311.812 273.19 312.712 273.63C313.632 274.05 314.422 274.62 315.082 275.34C315.742 276.06 316.252 276.88 316.612 277.8C316.972 278.72 317.152 279.66 317.152 280.62ZM309.562 285.06C310.182 285.06 310.732 284.95 311.212 284.73C311.712 284.49 312.132 284.17 312.472 283.77C312.812 283.37 313.062 282.9 313.222 282.36C313.402 281.82 313.492 281.24 313.492 280.62C313.492 280 313.402 279.42 313.222 278.88C313.062 278.34 312.812 277.87 312.472 277.47C312.132 277.05 311.712 276.73 311.212 276.51C310.732 276.27 310.182 276.15 309.562 276.15H303.952V285.06H309.562Z" fill="white"/>
</g>
</g>
<g filter="url(#filter1_d_2765_999)">
<circle cx="140" cy="352" r="40" fill="white"/>
</g>
<path d="M123.331 350.912H121.411V335.872H123.331V350.912ZM111.923 345.36C112.701 344.997 113.4 344.571 114.019 344.08C114.637 343.589 115.16 343.061 115.587 342.496C116.013 341.931 116.339 341.344 116.563 340.736C116.787 340.117 116.899 339.504 116.899 338.896H112.323V337.2H119.075C119.075 338.277 118.957 339.296 118.723 340.256C118.499 341.205 118.136 342.085 117.635 342.896C117.144 343.696 116.515 344.421 115.747 345.072C114.979 345.712 114.056 346.261 112.979 346.72L111.923 345.36ZM138.289 343.696H136.369V340.576H134.113C134.017 341.003 133.863 341.392 133.649 341.744C133.415 342.117 133.137 342.416 132.817 342.64C132.476 342.896 132.108 343.088 131.713 343.216C131.329 343.355 130.897 343.424 130.417 343.424C129.873 343.424 129.377 343.333 128.929 343.152C128.449 342.971 128.049 342.72 127.729 342.4C127.377 342.08 127.105 341.696 126.913 341.248C126.711 340.843 126.609 340.357 126.609 339.792C126.609 339.237 126.711 338.752 126.913 338.336C127.105 337.899 127.377 337.52 127.729 337.2C128.028 336.912 128.428 336.661 128.929 336.448C129.409 336.267 129.905 336.176 130.417 336.176C130.833 336.176 131.249 336.24 131.665 336.368C132.071 336.507 132.433 336.688 132.753 336.912C133.031 337.125 133.308 337.408 133.585 337.76C133.809 338.091 133.98 338.464 134.097 338.88H136.369V335.872H138.289V343.696ZM136.369 344.432H138.289V350.592H131.089C130.449 350.592 129.937 350.453 129.553 350.176C129.169 349.899 128.977 349.488 128.977 348.944V344.432H130.897V346H136.369V344.432ZM132.305 339.792C132.305 339.525 132.257 339.269 132.161 339.024C132.108 338.907 132.044 338.8 131.969 338.704C131.905 338.597 131.831 338.501 131.745 338.416C131.66 338.331 131.569 338.256 131.473 338.192C131.377 338.128 131.271 338.069 131.153 338.016C130.929 337.92 130.689 337.872 130.433 337.872C130.156 337.872 129.905 337.92 129.681 338.016C129.447 338.112 129.244 338.245 129.073 338.416C128.924 338.565 128.791 338.768 128.673 339.024C128.577 339.269 128.529 339.525 128.529 339.792C128.529 340.091 128.577 340.352 128.673 340.576C128.791 340.853 128.924 341.056 129.073 341.184C129.201 341.333 129.404 341.467 129.681 341.584C129.905 341.68 130.156 341.728 130.433 341.728C130.689 341.728 130.929 341.68 131.153 341.584C131.377 341.488 131.575 341.355 131.745 341.184C131.905 341.024 132.044 340.821 132.161 340.576C132.257 340.352 132.305 340.091 132.305 339.792ZM136.369 349.024V347.568H130.897V348.576C130.897 348.875 131.052 349.024 131.361 349.024H136.369ZM144.672 343.184C143.776 343.184 143.045 342.965 142.48 342.528C141.915 342.091 141.632 341.451 141.632 340.608V336.32H143.536V338.32H146.976V336.32H148.88V338.72H151.104V335.872H153.008V343.424H151.104V340.416H148.88V343.184H144.672ZM151.104 344.288H153.008V350.592H145.824C145.184 350.592 144.672 350.453 144.288 350.176C143.904 349.899 143.712 349.488 143.712 348.944V344.288H145.616V345.968H151.104V344.288ZM151.104 349.024V347.536H145.616V348.576C145.616 348.875 145.771 349.024 146.08 349.024H151.104ZM146.976 339.952H143.536V340.256C143.536 340.427 143.557 340.592 143.6 340.752C143.643 340.901 143.712 341.04 143.808 341.168C143.915 341.285 144.053 341.381 144.224 341.456C144.405 341.52 144.635 341.552 144.912 341.552H146.976V339.952ZM167.647 345.632H165.727V335.872H167.647V345.632ZM163.663 339.968C163.663 340.544 163.567 341.061 163.375 341.52C163.161 342 162.889 342.4 162.559 342.72C162.207 343.061 161.807 343.317 161.359 343.488C160.879 343.669 160.377 343.76 159.855 343.76C159.311 343.76 158.815 343.669 158.367 343.488C157.887 343.317 157.481 343.056 157.151 342.704C156.831 342.416 156.564 342.016 156.351 341.504C156.159 341.056 156.063 340.544 156.063 339.968C156.063 339.413 156.159 338.896 156.351 338.416C156.564 337.936 156.831 337.536 157.151 337.216C157.481 336.907 157.887 336.651 158.367 336.448C158.847 336.267 159.343 336.176 159.855 336.176C160.345 336.176 160.847 336.267 161.359 336.448C161.807 336.64 162.207 336.896 162.559 337.216C162.889 337.557 163.161 337.957 163.375 338.416C163.567 338.896 163.663 339.413 163.663 339.968ZM161.743 339.968C161.743 339.317 161.567 338.8 161.215 338.416C160.841 338.053 160.393 337.872 159.871 337.872C159.327 337.872 158.873 338.053 158.511 338.416C158.148 338.779 157.967 339.296 157.967 339.968C157.967 340.651 158.148 341.168 158.511 341.52C158.863 341.883 159.316 342.064 159.871 342.064C160.393 342.064 160.836 341.883 161.199 341.52C161.561 341.157 161.743 340.64 161.743 339.968ZM167.759 350.512H160.559C159.919 350.512 159.401 350.373 159.007 350.096C158.612 349.819 158.415 349.408 158.415 348.864V345.376H160.335V348.352C160.335 348.651 160.489 348.8 160.799 348.8H167.759V350.512ZM120.626 365.352C120.509 365.245 120.391 365.139 120.274 365.032C120.157 364.925 120.039 364.813 119.922 364.696L119.202 364.056C120.151 363.832 120.989 363.523 121.714 363.128C122.482 362.723 123.058 362.28 123.442 361.8C122.802 361.864 122.162 361.912 121.522 361.944C121.202 361.976 120.882 362.008 120.562 362.04C120.242 362.061 119.922 362.083 119.602 362.104L119.522 361.304C119.501 361.176 119.485 361.048 119.474 360.92C119.463 360.792 119.453 360.659 119.442 360.52L121.89 360.392C122.295 360.371 122.701 360.355 123.106 360.344C123.511 360.323 123.917 360.301 124.322 360.28C124.397 360.088 124.455 359.891 124.498 359.688C124.541 359.475 124.567 359.256 124.578 359.032H119.762V357.464H126.674C126.674 359.533 126.162 361.208 125.138 362.488C124.114 363.768 122.61 364.723 120.626 365.352ZM126.322 360.632H129.01V356.872H130.93V366.632H129.01V362.344H126.322V360.632ZM131.058 371.512H123.698C123.058 371.512 122.541 371.373 122.146 371.096C121.762 370.819 121.57 370.408 121.57 369.864V366.504H123.49V369.352C123.49 369.651 123.645 369.8 123.954 369.8H131.058V371.512ZM145.649 369.08H138.257V369.784C138.278 370.029 138.433 370.152 138.721 370.152H145.841V371.72H138.433C137.793 371.72 137.281 371.581 136.897 371.304C136.523 371.027 136.337 370.616 136.337 370.072V367.512H143.729V366.552H136.337V364.984H145.649V369.08ZM138.849 358.296C138.849 358.509 138.859 358.717 138.881 358.92C138.913 359.112 138.961 359.309 139.025 359.512C139.131 359.928 139.334 360.333 139.633 360.728C139.91 361.155 140.278 361.533 140.737 361.864C140.961 362.056 141.217 362.237 141.505 362.408C141.793 362.579 142.107 362.744 142.449 362.904L141.809 363.528L141.153 364.168C140.769 363.987 140.411 363.8 140.081 363.608C139.75 363.405 139.446 363.181 139.169 362.936C138.603 362.467 138.177 361.944 137.889 361.368C137.601 361.987 137.174 362.563 136.609 363.096C136.001 363.651 135.318 364.115 134.561 364.488C134.337 364.285 134.123 364.072 133.921 363.848C133.803 363.752 133.691 363.656 133.585 363.56C133.489 363.453 133.387 363.341 133.281 363.224C133.601 363.043 133.894 362.861 134.161 362.68C134.438 362.499 134.694 362.301 134.929 362.088C135.355 361.725 135.723 361.315 136.033 360.856C136.31 360.461 136.523 360.035 136.673 359.576C136.801 359.16 136.865 358.733 136.865 358.296V357.224H138.849V358.296ZM140.993 359.096H143.729V356.872H145.649V364.072H143.729V360.792H140.993V359.096ZM160.127 368.632C160.127 369.123 160.021 369.592 159.807 370.04C159.69 370.253 159.557 370.451 159.407 370.632C159.269 370.813 159.114 370.979 158.943 371.128C158.741 371.277 158.533 371.411 158.319 371.528C158.106 371.645 157.882 371.747 157.647 371.832C157.135 371.992 156.597 372.072 156.031 372.072C155.466 372.072 154.943 371.992 154.463 371.832C153.962 371.672 153.535 371.448 153.183 371.16C153.002 371.011 152.837 370.845 152.687 370.664C152.538 370.483 152.41 370.285 152.303 370.072C152.09 369.667 151.983 369.187 151.983 368.632C151.983 368.088 152.095 367.597 152.319 367.16C152.426 366.947 152.554 366.749 152.703 366.568C152.853 366.387 153.018 366.221 153.199 366.072C153.551 365.784 153.978 365.555 154.479 365.384C154.991 365.235 155.509 365.16 156.031 365.16C156.586 365.16 157.119 365.24 157.631 365.4C157.877 365.485 158.106 365.587 158.319 365.704C158.533 365.811 158.735 365.939 158.927 366.088C159.269 366.365 159.562 366.728 159.807 367.176C160.021 367.635 160.127 368.12 160.127 368.632ZM158.207 368.632C158.207 368.376 158.149 368.12 158.031 367.864C157.903 367.661 157.749 367.475 157.567 367.304C157.365 367.165 157.135 367.053 156.879 366.968C156.741 366.936 156.602 366.909 156.463 366.888C156.335 366.867 156.197 366.856 156.047 366.856C155.898 366.856 155.754 366.867 155.615 366.888C155.487 366.909 155.359 366.936 155.231 366.968C155.103 367.021 154.981 367.075 154.863 367.128C154.746 367.181 154.639 367.245 154.543 367.32C154.33 367.48 154.17 367.661 154.063 367.864C153.946 368.077 153.887 368.333 153.887 368.632C153.887 368.92 153.946 369.165 154.063 369.368C154.181 369.592 154.341 369.773 154.543 369.912C154.639 369.987 154.741 370.045 154.847 370.088C154.965 370.141 155.093 370.195 155.231 370.248C155.359 370.28 155.487 370.307 155.615 370.328C155.754 370.349 155.898 370.36 156.047 370.36C156.197 370.36 156.335 370.349 156.463 370.328C156.602 370.307 156.741 370.28 156.879 370.248C157.007 370.205 157.125 370.157 157.231 370.104C157.349 370.061 157.461 369.997 157.567 369.912C157.759 369.752 157.914 369.571 158.031 369.368C158.149 369.155 158.207 368.909 158.207 368.632ZM160.287 365.256H158.367V356.872H160.287V365.256ZM156.959 362.888V364.488H151.247C150.607 364.488 150.095 364.328 149.711 364.008C149.327 363.688 149.135 363.256 149.135 362.712V357.464H156.015V359.112H151.055V360.12H155.631V361.752H151.055V362.44C151.055 362.739 151.205 362.888 151.503 362.888H156.959Z" fill="#1A1A1A"/>
<g filter="url(#filter2_d_2765_999)">
<circle cx="223" cy="482" r="40" fill="white"/>
</g>
<path d="M205.223 476.6C205.223 477.144 205.1 477.629 204.855 478.056C204.62 478.493 204.305 478.861 203.911 479.16C203.527 479.459 203.089 479.683 202.599 479.832C202.108 479.992 201.617 480.072 201.127 480.072C200.615 480.072 200.113 479.992 199.623 479.832C199.143 479.672 198.711 479.437 198.327 479.128C197.943 478.829 197.633 478.467 197.399 478.04C197.175 477.613 197.062 477.133 197.062 476.6C197.062 476.045 197.18 475.549 197.415 475.112C197.649 474.675 197.959 474.307 198.343 474.008C198.727 473.709 199.159 473.485 199.639 473.336C200.129 473.176 200.625 473.096 201.127 473.096C201.649 473.096 202.156 473.181 202.647 473.352C203.148 473.523 203.585 473.763 203.959 474.072C204.343 474.371 204.647 474.739 204.871 475.176C205.105 475.603 205.223 476.077 205.223 476.6ZM201.831 471.848L201.175 472.488C200.78 472.307 200.417 472.115 200.087 471.912C199.756 471.699 199.457 471.475 199.191 471.24C198.625 470.739 198.199 470.211 197.911 469.656C197.623 470.275 197.196 470.851 196.631 471.384C196.065 471.917 195.383 472.392 194.583 472.808C194.359 472.605 194.145 472.392 193.943 472.168C193.825 472.072 193.713 471.976 193.607 471.88C193.511 471.773 193.409 471.661 193.303 471.544C193.623 471.363 193.916 471.181 194.183 471C194.46 470.819 194.716 470.621 194.951 470.408C195.399 470.013 195.767 469.597 196.055 469.16C196.193 468.957 196.316 468.749 196.423 468.536C196.529 468.323 196.62 468.099 196.695 467.864C196.823 467.437 196.887 467.005 196.887 466.568V465.224H198.871V466.568C198.871 467.027 198.94 467.448 199.079 467.832C199.228 468.301 199.441 468.712 199.719 469.064C200.039 469.501 200.412 469.88 200.839 470.2C201.052 470.381 201.292 470.563 201.559 470.744C201.836 470.915 202.14 471.075 202.47 471.224L201.831 471.848ZM205.351 469.72V472.776H203.431V464.872H205.351V468.024H207.591V469.72H205.351ZM203.303 476.6C203.303 476.312 203.233 476.061 203.095 475.848C202.967 475.624 202.796 475.437 202.583 475.288C202.38 475.128 202.151 475.011 201.895 474.936C201.639 474.851 201.388 474.808 201.142 474.808C200.865 474.808 200.593 474.851 200.327 474.936C200.071 475.011 199.841 475.128 199.639 475.288C199.447 475.437 199.287 475.624 199.159 475.848C199.041 476.072 198.983 476.323 198.983 476.6C198.983 476.909 199.047 477.171 199.175 477.384C199.303 477.608 199.468 477.789 199.671 477.928C199.884 478.077 200.119 478.184 200.375 478.248C200.631 478.323 200.887 478.36 201.142 478.36C201.409 478.36 201.671 478.317 201.927 478.232C202.193 478.157 202.428 478.045 202.631 477.896C202.833 477.747 202.993 477.56 203.111 477.336C203.239 477.123 203.303 476.877 203.303 476.6ZM216.101 469.832V471.608H221.973V473.304H208.325V471.608H214.181V469.832H216.101ZM221.125 469C221.04 469.117 220.955 469.229 220.869 469.336C220.784 469.432 220.699 469.539 220.613 469.656L220.117 470.312C219.477 470.205 218.896 470.077 218.373 469.928C217.861 469.768 217.392 469.581 216.965 469.368C216.112 468.952 215.504 468.44 215.141 467.832C214.672 468.461 214.048 468.973 213.269 469.368C212.864 469.581 212.4 469.768 211.877 469.928C211.365 470.077 210.789 470.205 210.149 470.312L209.669 469.656C209.584 469.539 209.499 469.432 209.413 469.336C209.328 469.229 209.243 469.117 209.157 469C209.541 468.947 209.909 468.877 210.261 468.792C210.613 468.696 210.944 468.584 211.253 468.456C211.563 468.339 211.845 468.211 212.101 468.072C212.368 467.933 212.608 467.779 212.821 467.608C213.237 467.32 213.563 466.989 213.797 466.616C214.021 466.264 214.133 465.917 214.133 465.576V464.984H216.133V465.576C216.133 465.928 216.245 466.28 216.469 466.632C216.587 466.813 216.725 466.989 216.885 467.16C217.056 467.32 217.248 467.475 217.461 467.624C217.909 467.976 218.432 468.253 219.029 468.456C219.328 468.573 219.648 468.68 219.989 468.776C220.341 468.872 220.72 468.947 221.125 469ZM217.909 479.592V476.104H210.261V474.392H219.829V479.592H217.909ZM233.844 476.856C233.844 477.336 233.743 477.773 233.54 478.168C233.433 478.36 233.311 478.541 233.172 478.712C233.044 478.883 232.889 479.043 232.708 479.192C232.345 479.48 231.924 479.699 231.444 479.848C230.911 479.997 230.377 480.072 229.844 480.072C229.556 480.072 229.284 480.051 229.028 480.008C228.772 479.976 228.521 479.923 228.276 479.848C227.817 479.709 227.396 479.491 227.012 479.192C226.639 478.883 226.356 478.547 226.164 478.184C225.961 477.789 225.86 477.347 225.86 476.856C225.86 476.408 225.961 475.987 226.164 475.592C226.377 475.176 226.655 474.829 226.996 474.552C227.177 474.403 227.369 474.275 227.572 474.168C227.785 474.051 228.015 473.944 228.26 473.848C228.74 473.677 229.268 473.592 229.844 473.592C230.377 473.592 230.911 473.667 231.444 473.816C231.924 473.965 232.345 474.184 232.708 474.472C232.889 474.621 233.044 474.781 233.172 474.952C233.311 475.123 233.433 475.304 233.54 475.496C233.743 475.912 233.844 476.365 233.844 476.856ZM235.284 469.96L234.772 470.632C232.308 470.184 230.665 469.341 229.844 468.104C229.449 468.723 228.841 469.24 228.02 469.656C227.604 469.869 227.135 470.056 226.612 470.216C226.1 470.376 225.54 470.515 224.932 470.632L224.436 469.96C224.351 469.853 224.265 469.747 224.18 469.64C224.105 469.533 224.025 469.421 223.94 469.304C224.153 469.272 224.367 469.229 224.58 469.176C224.793 469.123 225.012 469.059 225.236 468.984C225.631 468.867 226.052 468.707 226.5 468.504C226.692 468.408 226.879 468.307 227.06 468.2C227.241 468.083 227.412 467.96 227.572 467.832C227.892 467.576 228.143 467.299 228.324 467H224.724V465.304H234.98V467H231.364C231.449 467.149 231.556 467.293 231.684 467.432C231.823 467.571 231.977 467.704 232.148 467.832C232.415 468.056 232.761 468.269 233.188 468.472C233.38 468.568 233.577 468.659 233.78 468.744C233.993 468.829 234.212 468.904 234.436 468.968C234.863 469.117 235.311 469.229 235.78 469.304L235.284 469.96ZM236.692 471.304V473H223.044V471.304H236.692ZM231.924 476.856C231.924 476.632 231.871 476.419 231.764 476.216C231.647 476.045 231.492 475.88 231.3 475.72C231.108 475.592 230.889 475.485 230.644 475.4C230.388 475.336 230.127 475.304 229.86 475.304C229.583 475.304 229.327 475.336 229.092 475.4C228.953 475.443 228.825 475.491 228.708 475.544C228.601 475.597 228.505 475.651 228.42 475.704C228.228 475.853 228.073 476.019 227.956 476.2C227.839 476.381 227.78 476.6 227.78 476.856C227.78 477.101 227.839 477.309 227.956 477.48C228.073 477.672 228.228 477.832 228.42 477.96C228.505 478.013 228.601 478.067 228.708 478.12C228.825 478.173 228.953 478.221 229.092 478.264C229.327 478.328 229.583 478.36 229.86 478.36C229.988 478.36 230.116 478.349 230.244 478.328C230.383 478.307 230.516 478.28 230.644 478.248C230.783 478.205 230.905 478.157 231.012 478.104C231.119 478.051 231.215 477.997 231.3 477.944C231.46 477.848 231.615 477.688 231.764 477.464C231.871 477.283 231.924 477.08 231.924 476.856ZM241.891 474.856C241.229 474.856 240.637 474.744 240.115 474.52C239.603 474.285 239.165 473.976 238.803 473.592C238.451 473.197 238.179 472.744 237.987 472.232C237.795 471.72 237.699 471.181 237.699 470.616C237.699 470.051 237.795 469.512 237.987 469C238.179 468.488 238.451 468.04 238.803 467.656C239.165 467.272 239.603 466.968 240.115 466.744C240.637 466.509 241.229 466.392 241.891 466.392C242.573 466.392 243.176 466.515 243.699 466.76C244.232 467.005 244.68 467.331 245.043 467.736H248.147V464.872H250.067V479.912H248.147V473.592H244.963C244.6 473.987 244.157 474.296 243.635 474.52C243.123 474.744 242.541 474.856 241.891 474.856ZM244.115 470.616C244.115 469.848 243.917 469.229 243.523 468.76C243.139 468.28 242.595 468.04 241.891 468.04C241.187 468.04 240.637 468.28 240.243 468.76C239.848 469.229 239.651 469.848 239.651 470.616C239.651 471.384 239.848 472.008 240.243 472.488C240.637 472.957 241.187 473.192 241.891 473.192C242.595 473.192 243.139 472.957 243.523 472.488C243.917 472.008 244.115 471.384 244.115 470.616ZM248.147 471.88V469.448H245.923C246.029 469.811 246.083 470.2 246.083 470.616C246.083 471.021 246.024 471.443 245.907 471.88H248.147ZM212.662 498.368H204.806V498.752C204.817 498.869 204.859 498.976 204.934 499.072C205.019 499.168 205.131 499.216 205.27 499.216H212.838V500.72H204.966C204.326 500.72 203.819 500.581 203.446 500.304C203.083 500.037 202.902 499.632 202.902 499.088V496.896H210.742V496.128H202.902V494.624H212.662V498.368ZM208.742 490.4V492.032H214.614V493.68H200.966V492.032H206.822V490.4H208.742ZM213.766 489.68C213.681 489.797 213.595 489.909 213.51 490.016C213.425 490.112 213.339 490.219 213.254 490.336L212.758 490.992C211.521 490.8 210.475 490.485 209.622 490.048C208.79 489.643 208.177 489.136 207.782 488.528C207.398 489.104 206.779 489.611 205.926 490.048C205.062 490.485 204.017 490.8 202.79 490.992L202.31 490.336C202.225 490.219 202.139 490.112 202.054 490.016C201.969 489.909 201.883 489.797 201.798 489.68C202.566 489.584 203.265 489.408 203.894 489.152C204.203 489.035 204.486 488.907 204.742 488.768C204.998 488.619 205.233 488.469 205.446 488.32C205.862 488.011 206.193 487.68 206.438 487.328C206.662 486.976 206.774 486.635 206.774 486.304V485.984H208.774V486.304C208.774 486.667 208.897 487.019 209.142 487.36C209.366 487.733 209.702 488.069 210.15 488.368C210.363 488.528 210.603 488.672 210.87 488.8C211.137 488.928 211.425 489.051 211.734 489.168C212.374 489.413 213.051 489.584 213.766 489.68ZM227.461 490.672H219.493V491.392C219.493 491.509 219.535 491.611 219.621 491.696C219.706 491.781 219.818 491.824 219.957 491.824H227.653V493.456H219.669C219.029 493.456 218.517 493.296 218.133 492.976C217.759 492.656 217.573 492.224 217.573 491.68V489.024H225.541V487.936H217.573V486.304H227.461V490.672ZM221.525 500.912V496.416H215.685V494.72H229.333V496.416H223.477V500.912H221.525ZM240.947 488.864H238.211V487.296H240.947V485.872H242.867V495.632H240.947V491.472H238.211V489.904H240.947V488.864ZM236.067 487.856C236.067 488.293 236.131 488.72 236.259 489.136C236.387 489.573 236.595 489.989 236.883 490.384C237.171 490.8 237.545 491.189 238.003 491.552C238.227 491.744 238.478 491.925 238.755 492.096C239.033 492.267 239.337 492.432 239.667 492.592L239.027 493.2L238.371 493.84C237.571 493.467 236.915 493.045 236.403 492.576C235.806 492.075 235.374 491.536 235.107 490.96C234.499 492.261 233.39 493.328 231.779 494.16C231.555 493.957 231.342 493.744 231.139 493.52C231.022 493.424 230.91 493.328 230.803 493.232C230.707 493.125 230.606 493.019 230.499 492.912C230.819 492.731 231.113 492.544 231.379 492.352C231.657 492.16 231.913 491.957 232.147 491.744C232.382 491.541 232.59 491.333 232.771 491.12C232.953 490.907 233.113 490.693 233.251 490.48C233.401 490.267 233.523 490.053 233.619 489.84C233.726 489.616 233.817 489.392 233.891 489.168C234.019 488.741 234.083 488.304 234.083 487.856V486.224H236.067V487.856ZM242.979 500.512H235.763C235.123 500.512 234.606 500.373 234.211 500.096C233.827 499.819 233.635 499.408 233.635 498.864V495.376H235.555V498.352C235.555 498.651 235.71 498.8 236.019 498.8H242.979V500.512Z" fill="#1A1A1A"/>
<g filter="url(#filter3_d_2765_999)">
<circle cx="76.0002" cy="167" r="40" fill="white"/>
</g>
<path d="M57.2867 174.432H55.4307V160.032H57.2867V165.328H58.6627V159.872H60.5507V174.912H58.6627V167.024H57.2867V174.432ZM47.8627 169.664C48.5347 169.248 49.1427 168.789 49.6867 168.288C50.2307 167.787 50.6894 167.248 51.0627 166.672C51.4361 166.096 51.7241 165.477 51.9267 164.816C52.1294 164.144 52.2307 163.488 52.2307 162.848H48.3907V161.2H54.1987C54.1987 162.405 54.0974 163.493 53.8947 164.464C53.6921 165.424 53.3347 166.336 52.8227 167.2C52.3747 167.968 51.8201 168.677 51.1587 169.328C50.4974 169.968 49.7987 170.501 49.0627 170.928L47.8627 169.664ZM74.7095 169.632H72.7895V159.872H74.7095V169.632ZM70.7255 163.968C70.7255 164.544 70.6295 165.061 70.4375 165.52C70.2242 166 69.9522 166.4 69.6215 166.72C69.2695 167.061 68.8695 167.317 68.4215 167.488C67.9415 167.669 67.4402 167.76 66.9175 167.76C66.3735 167.76 65.8775 167.669 65.4295 167.488C64.9495 167.317 64.5442 167.056 64.2135 166.704C63.8935 166.416 63.6268 166.016 63.4135 165.504C63.2215 165.056 63.1255 164.544 63.1255 163.968C63.1255 163.413 63.2215 162.896 63.4135 162.416C63.6268 161.936 63.8935 161.536 64.2135 161.216C64.5442 160.907 64.9495 160.651 65.4295 160.448C65.9095 160.267 66.4055 160.176 66.9175 160.176C67.4082 160.176 67.9095 160.267 68.4215 160.448C68.8695 160.64 69.2695 160.896 69.6215 161.216C69.9522 161.557 70.2242 161.957 70.4375 162.416C70.6295 162.896 70.7255 163.413 70.7255 163.968ZM68.8055 163.968C68.8055 163.317 68.6295 162.8 68.2775 162.416C67.9042 162.053 67.4562 161.872 66.9335 161.872C66.3895 161.872 65.9362 162.053 65.5735 162.416C65.2108 162.779 65.0295 163.296 65.0295 163.968C65.0295 164.651 65.2108 165.168 65.5735 165.52C65.9255 165.883 66.3788 166.064 66.9335 166.064C67.4562 166.064 67.8988 165.883 68.2615 165.52C68.6242 165.157 68.8055 164.64 68.8055 163.968ZM74.8215 174.512H67.6215C66.9815 174.512 66.4642 174.373 66.0695 174.096C65.6748 173.819 65.4775 173.408 65.4775 172.864V169.376H67.3975V172.352C67.3975 172.651 67.5522 172.8 67.8615 172.8H74.8215V174.512ZM89.2682 171.6C89.2682 172.101 89.1616 172.576 88.9482 173.024C88.7242 173.44 88.4362 173.808 88.0842 174.128C87.8816 174.277 87.6682 174.411 87.4442 174.528C87.2309 174.645 87.0069 174.747 86.7722 174.832C86.2602 174.992 85.7269 175.072 85.1722 175.072C84.6069 175.072 84.0842 174.992 83.6042 174.832C83.1029 174.661 82.6762 174.432 82.3242 174.144C81.9402 173.824 81.6469 173.456 81.4442 173.04C81.2309 172.635 81.1242 172.155 81.1242 171.6C81.1242 171.067 81.2309 170.576 81.4442 170.128C81.6469 169.712 81.9402 169.344 82.3242 169.024C82.6762 168.736 83.1029 168.507 83.6042 168.336C84.0842 168.176 84.6069 168.096 85.1722 168.096C85.7269 168.096 86.2602 168.176 86.7722 168.336C87.0069 168.421 87.2309 168.523 87.4442 168.64C87.6576 168.757 87.8656 168.891 88.0682 169.04C88.4309 169.339 88.7242 169.707 88.9482 170.144C89.1616 170.624 89.2682 171.109 89.2682 171.6ZM85.4282 163.792C85.4282 164.325 85.3322 164.805 85.1402 165.232C84.9269 165.68 84.6549 166.064 84.3242 166.384C83.9722 166.725 83.5722 166.981 83.1242 167.152C82.6442 167.333 82.1482 167.424 81.6362 167.424C81.0922 167.424 80.5962 167.333 80.1482 167.152C79.6682 166.971 79.2682 166.72 78.9482 166.4C78.5962 166.08 78.3242 165.696 78.1322 165.248C77.9296 164.843 77.8282 164.357 77.8282 163.792C77.8282 163.237 77.9296 162.752 78.1322 162.336C78.3242 161.899 78.5962 161.52 78.9482 161.2C79.2469 160.912 79.6469 160.661 80.1482 160.448C80.6282 160.267 81.1242 160.176 81.6362 160.176C82.1162 160.176 82.6122 160.267 83.1242 160.448C83.5722 160.64 83.9722 160.896 84.3242 161.216C84.6549 161.536 84.9269 161.915 85.1402 162.352C85.3322 162.8 85.4282 163.28 85.4282 163.792ZM87.3482 171.6C87.3482 171.323 87.2949 171.072 87.1882 170.848C87.0602 170.645 86.9056 170.459 86.7242 170.288C86.6282 170.213 86.5216 170.149 86.4042 170.096C86.2869 170.043 86.1642 169.989 86.0362 169.936C85.7269 169.851 85.4442 169.808 85.1882 169.808C84.9216 169.808 84.6442 169.851 84.3562 169.936C84.0576 170.043 83.8282 170.16 83.6682 170.288C83.4549 170.469 83.3002 170.661 83.2042 170.864C83.0869 171.088 83.0282 171.333 83.0282 171.6C83.0282 171.888 83.0869 172.133 83.2042 172.336C83.3109 172.528 83.4709 172.715 83.6842 172.896C83.7802 172.981 83.8816 173.045 83.9882 173.088C84.1056 173.141 84.2336 173.195 84.3722 173.248C84.5002 173.28 84.6282 173.307 84.7562 173.328C84.8949 173.349 85.0389 173.36 85.1882 173.36C85.3376 173.36 85.4816 173.349 85.6202 173.328C85.7589 173.307 85.8976 173.28 86.0362 173.248C86.1642 173.195 86.2816 173.141 86.3882 173.088C86.5056 173.045 86.6176 172.981 86.7242 172.896C86.9056 172.747 87.0602 172.56 87.1882 172.336C87.2949 172.133 87.3482 171.888 87.3482 171.6ZM83.5242 163.792C83.5242 163.525 83.4762 163.269 83.3802 163.024C83.3269 162.907 83.2629 162.8 83.1882 162.704C83.1242 162.597 83.0496 162.501 82.9642 162.416C82.8789 162.331 82.7882 162.256 82.6922 162.192C82.5962 162.128 82.4896 162.069 82.3722 162.016C82.1482 161.92 81.9082 161.872 81.6522 161.872C81.3749 161.872 81.1242 161.92 80.9002 162.016C80.6656 162.112 80.4629 162.245 80.2922 162.416C80.1429 162.565 80.0096 162.768 79.8922 163.024C79.7962 163.269 79.7482 163.525 79.7482 163.792C79.7482 164.091 79.7962 164.352 79.8922 164.576C80.0096 164.853 80.1429 165.056 80.2922 165.184C80.4202 165.333 80.6229 165.467 80.9002 165.584C81.1242 165.68 81.3749 165.728 81.6522 165.728C81.9082 165.728 82.1482 165.68 82.3722 165.584C82.5962 165.488 82.7936 165.355 82.9642 165.184C83.1242 165.024 83.2629 164.821 83.3802 164.576C83.4762 164.352 83.5242 164.091 83.5242 163.792ZM85.5402 164.592H87.5882V162.864H85.5402V161.296H87.5882V159.872H89.5082V168.016H87.5882V166.16H85.5402V164.592ZM104.227 167.696H102.307V164.576H100.051C99.955 165.003 99.8003 165.392 99.587 165.744C99.3523 166.117 99.075 166.416 98.755 166.64C98.4137 166.896 98.0457 167.088 97.651 167.216C97.267 167.355 96.835 167.424 96.355 167.424C95.811 167.424 95.315 167.333 94.867 167.152C94.387 166.971 93.987 166.72 93.667 166.4C93.315 166.08 93.043 165.696 92.851 165.248C92.6483 164.843 92.547 164.357 92.547 163.792C92.547 163.237 92.6483 162.752 92.851 162.336C93.043 161.899 93.315 161.52 93.667 161.2C93.9657 160.912 94.3657 160.661 94.867 160.448C95.347 160.267 95.843 160.176 96.355 160.176C96.771 160.176 97.187 160.24 97.603 160.368C98.0083 160.507 98.371 160.688 98.691 160.912C98.9683 161.125 99.2457 161.408 99.523 161.76C99.747 162.091 99.9177 162.464 100.035 162.88H102.307V159.872H104.227V167.696ZM102.307 168.432H104.227V174.592H97.027C96.387 174.592 95.875 174.453 95.491 174.176C95.107 173.899 94.915 173.488 94.915 172.944V168.432H96.835V170H102.307V168.432ZM98.243 163.792C98.243 163.525 98.195 163.269 98.099 163.024C98.0457 162.907 97.9817 162.8 97.907 162.704C97.843 162.597 97.7683 162.501 97.683 162.416C97.5977 162.331 97.507 162.256 97.411 162.192C97.315 162.128 97.2083 162.069 97.091 162.016C96.867 161.92 96.627 161.872 96.371 161.872C96.0937 161.872 95.843 161.92 95.619 162.016C95.3843 162.112 95.1817 162.245 95.011 162.416C94.8617 162.565 94.7283 162.768 94.611 163.024C94.515 163.269 94.467 163.525 94.467 163.792C94.467 164.091 94.515 164.352 94.611 164.576C94.7283 164.853 94.8617 165.056 95.011 165.184C95.139 165.333 95.3417 165.467 95.619 165.584C95.843 165.68 96.0937 165.728 96.371 165.728C96.627 165.728 96.867 165.68 97.091 165.584C97.315 165.488 97.5123 165.355 97.683 165.184C97.843 165.024 97.9817 164.821 98.099 164.576C98.195 164.352 98.243 164.091 98.243 163.792ZM102.307 173.024V171.568H96.835V172.576C96.835 172.875 96.9897 173.024 97.299 173.024H102.307Z" fill="#1A1A1A"/>
<g filter="url(#filter4_d_2765_999)">
<circle cx="264" cy="127" r="45" fill="white"/>
</g>
<path d="M254.059 117.4C253.227 117.4 252.593 117.224 252.155 116.872C251.718 116.52 251.499 115.923 251.499 115.08V109.88H253.419V112.04H259.499V109.88H261.403V117.4H257.467V120.392H263.323V122.088H249.675V120.392H255.531V117.4H254.059ZM259.499 113.736H253.419V114.808C253.419 115.149 253.478 115.384 253.595 115.512C253.723 115.64 253.958 115.704 254.299 115.704H259.499V113.736ZM264.602 111.8V110.232H267.866V108.648H269.85V110.232H273.114V111.8H271.674C271.845 111.981 271.989 112.184 272.106 112.408C272.234 112.632 272.33 112.877 272.394 113.144H274.938V108.872H276.858V117.496H274.938V114.856H272.33C272.202 115.251 272.01 115.592 271.754 115.88C271.509 116.168 271.226 116.408 270.906 116.6C270.586 116.792 270.245 116.936 269.882 117.032C269.53 117.117 269.183 117.16 268.842 117.16C268.405 117.16 267.967 117.091 267.53 116.952C267.103 116.813 266.719 116.611 266.378 116.344C266.037 116.067 265.759 115.725 265.546 115.32C265.343 114.915 265.242 114.44 265.242 113.896C265.242 113.448 265.311 113.053 265.45 112.712C265.589 112.371 265.781 112.067 266.026 111.8H264.602ZM276.858 123.592H269.674C269.034 123.592 268.517 123.453 268.122 123.176C267.738 122.899 267.546 122.488 267.546 121.944V118.392H276.858V123.592ZM270.602 113.896C270.602 113.32 270.437 112.883 270.106 112.584C269.775 112.275 269.354 112.12 268.842 112.12C268.33 112.12 267.909 112.28 267.578 112.6C267.258 112.92 267.098 113.352 267.098 113.896C267.098 114.451 267.269 114.883 267.61 115.192C267.951 115.501 268.362 115.656 268.842 115.656C269.354 115.656 269.775 115.501 270.106 115.192C270.437 114.872 270.602 114.44 270.602 113.896ZM274.938 121.88V120.104H269.466V121.432C269.466 121.731 269.621 121.88 269.93 121.88H274.938ZM253.996 144.448H246.188V144.8C246.199 144.917 246.241 145.013 246.316 145.088C246.401 145.173 246.513 145.216 246.652 145.216H254.172V146.72H246.348C245.708 146.72 245.201 146.587 244.828 146.32C244.465 146.053 244.284 145.648 244.284 145.104V142.96H252.076V142.256H244.284V140.752H253.996V144.448ZM243.772 137.584V136.016H245.644C245.623 135.867 245.612 135.723 245.612 135.584C245.612 135.435 245.612 135.285 245.612 135.136L245.564 134.256H247.484L247.532 135.136C247.532 135.285 247.532 135.435 247.532 135.584C247.532 135.723 247.543 135.867 247.564 136.016H250.684L250.732 135.136C250.732 134.859 250.748 134.565 250.78 134.256H252.684C252.663 134.405 252.652 134.555 252.652 134.704C252.652 134.843 252.652 134.987 252.652 135.136L252.604 136.016H254.492V137.584H243.772ZM255.964 138.32V139.968H242.316V138.32H255.964ZM243.98 133.872V132.304H254.268V133.872H243.98ZM265.147 136.48H267.419V131.872H269.339V146.912H267.419V138.176H265.147V136.48ZM266.539 141.984C265.899 142.315 265.147 142.565 264.283 142.736C263.419 142.896 262.469 142.976 261.435 142.976C260.923 142.976 260.443 142.917 259.995 142.8C259.557 142.683 259.179 142.507 258.859 142.272C258.539 142.027 258.283 141.717 258.091 141.344C257.909 140.971 257.819 140.528 257.819 140.016V136.832H262.395V134.768H257.819V133.072H264.331V138.496H259.755V139.6C259.755 140.24 259.904 140.683 260.203 140.928C260.501 141.173 260.971 141.296 261.611 141.296C262.091 141.296 262.533 141.28 262.939 141.248C263.355 141.205 263.744 141.152 264.107 141.088C264.469 141.024 264.811 140.944 265.131 140.848C265.461 140.741 265.787 140.624 266.107 140.496L266.539 141.984ZM285.401 143.392V145.088H271.753V143.392H285.401ZM278.585 137.232C278.447 137.541 278.281 137.819 278.089 138.064C277.908 138.309 277.711 138.555 277.497 138.8C276.975 139.408 276.372 139.904 275.689 140.288C275.017 140.661 274.313 140.955 273.577 141.168L272.521 139.84C273.289 139.595 273.977 139.285 274.585 138.912C275.193 138.528 275.753 138.059 276.265 137.504C276.671 137.024 276.985 136.533 277.209 136.032C277.444 135.531 277.561 134.992 277.561 134.416V132.896H279.561V134.416C279.561 135.024 279.684 135.584 279.929 136.096C280.175 136.597 280.489 137.061 280.873 137.488C281.417 138.096 281.999 138.587 282.617 138.96C283.236 139.323 283.897 139.611 284.601 139.824L283.545 141.168C282.745 140.933 282.015 140.624 281.353 140.24C280.703 139.845 280.105 139.328 279.561 138.688C279.38 138.464 279.209 138.235 279.049 138C278.889 137.755 278.735 137.499 278.585 137.232Z" fill="#1A1A1A"/>
</g>
<defs>
<filter id="filter0_d_2765_999" x="243" y="234" width="114" height="114" filterUnits="userSpaceOnUse" color-interpolation-filters="sRGB">
<feFlood flood-opacity="0" result="BackgroundImageFix"/>
<feColorMatrix in="SourceAlpha" type="matrix" values="0 0 0 0 0 0 0 0 0 0 0 0 0 0 0 0 0 0 127 0" result="hardAlpha"/>
<feOffset dy="4"/>
<feGaussianBlur stdDeviation="3.5"/>
<feComposite in2="hardAlpha" operator="out"/>
<feColorMatrix type="matrix" values="0 0 0 0 0 0 0 0 0 0 0 0 0 0 0 0 0 0 0.25 0"/>
<feBlend mode="normal" in2="BackgroundImageFix" result="effect1_dropShadow_2765_999"/>
<feBlend mode="normal" in="SourceGraphic" in2="effect1_dropShadow_2765_999" result="shape"/>
</filter>
<filter id="filter1_d_2765_999" x="97" y="311" width="96" height="96" filterUnits="userSpaceOnUse" color-interpolation-filters="sRGB">
<feFlood flood-opacity="0" result="BackgroundImageFix"/>
<feColorMatrix in="SourceAlpha" type="matrix" values="0 0 0 0 0 0 0 0 0 0 0 0 0 0 0 0 0 0 127 0" result="hardAlpha"/>
<feOffset dx="5" dy="7"/>
<feGaussianBlur stdDeviation="4"/>
<feComposite in2="hardAlpha" operator="out"/>
<feColorMatrix type="matrix" values="0 0 0 0 0 0 0 0 0 0 0 0 0 0 0 0 0 0 0.25 0"/>
<feBlend mode="normal" in2="BackgroundImageFix" result="effect1_dropShadow_2765_999"/>
<feBlend mode="normal" in="SourceGraphic" in2="effect1_dropShadow_2765_999" result="shape"/>
</filter>
<filter id="filter2_d_2765_999" x="180" y="441" width="96" height="96" filterUnits="userSpaceOnUse" color-interpolation-filters="sRGB">
<feFlood flood-opacity="0" result="BackgroundImageFix"/>
<feColorMatrix in="SourceAlpha" type="matrix" values="0 0 0 0 0 0 0 0 0 0 0 0 0 0 0 0 0 0 127 0" result="hardAlpha"/>
<feOffset dx="5" dy="7"/>
<feGaussianBlur stdDeviation="4"/>
<feComposite in2="hardAlpha" operator="out"/>
<feColorMatrix type="matrix" values="0 0 0 0 0 0 0 0 0 0 0 0 0 0 0 0 0 0 0.25 0"/>
<feBlend mode="normal" in2="BackgroundImageFix" result="effect1_dropShadow_2765_999"/>
<feBlend mode="normal" in="SourceGraphic" in2="effect1_dropShadow_2765_999" result="shape"/>
</filter>
<filter id="filter3_d_2765_999" x="33.0002" y="126" width="96" height="96" filterUnits="userSpaceOnUse" color-interpolation-filters="sRGB">
<feFlood flood-opacity="0" result="BackgroundImageFix"/>
<feColorMatrix in="SourceAlpha" type="matrix" values="0 0 0 0 0 0 0 0 0 0 0 0 0 0 0 0 0 0 127 0" result="hardAlpha"/>
<feOffset dx="5" dy="7"/>
<feGaussianBlur stdDeviation="4"/>
<feComposite in2="hardAlpha" operator="out"/>
<feColorMatrix type="matrix" values="0 0 0 0 0 0 0 0 0 0 0 0 0 0 0 0 0 0 0.25 0"/>
<feBlend mode="normal" in2="BackgroundImageFix" result="effect1_dropShadow_2765_999"/>
<feBlend mode="normal" in="SourceGraphic" in2="effect1_dropShadow_2765_999" result="shape"/>
</filter>
<filter id="filter4_d_2765_999" x="216" y="81" width="106" height="106" filterUnits="userSpaceOnUse" color-interpolation-filters="sRGB">
<feFlood flood-opacity="0" result="BackgroundImageFix"/>
<feColorMatrix in="SourceAlpha" type="matrix" values="0 0 0 0 0 0 0 0 0 0 0 0 0 0 0 0 0 0 127 0" result="hardAlpha"/>
<feOffset dx="5" dy="7"/>
<feGaussianBlur stdDeviation="4"/>
<feComposite in2="hardAlpha" operator="out"/>
<feColorMatrix type="matrix" values="0 0 0 0 0 0 0 0 0 0 0 0 0 0 0 0 0 0 0.25 0"/>
<feBlend mode="normal" in2="BackgroundImageFix" result="effect1_dropShadow_2765_999"/>
<feBlend mode="normal" in="SourceGraphic" in2="effect1_dropShadow_2765_999" result="shape"/>
</filter>
<clipPath id="clip0_2765_999">
<rect width="453" height="453" fill="white" transform="translate(425.362) rotate(71.0162)"/>
</clipPath>
<clipPath id="clip1_2765_999">
<rect width="329" height="329" fill="white" transform="translate(136 122)"/>
</clipPath>
<clipPath id="clip2_2765_999">
<rect width="120" height="120" fill="white" transform="translate(240 227)"/>
</clipPath>
</defs>
</svg>
