<svg width="375" height="576" viewBox="0 0 375 576" fill="none" xmlns="http://www.w3.org/2000/svg">
<g clip-path="url(#clip0_744_49)">
<path d="M212.215 76.6961C317.421 40.5043 431.085 87.4303 481.804 182.533L484.62 181.027C433.171 84.556 317.871 36.9777 211.178 73.6813C177.79 85.1148 147.551 104.223 122.892 129.469L125.17 131.696C149.483 106.806 179.297 87.9674 212.215 76.6961Z" fill="white"/>
<path d="M499.043 214.184C495.118 202.768 490.295 191.681 484.62 181.027L481.804 182.534C487.402 193.036 492.158 203.966 496.029 215.221C536.147 331.84 474.127 458.908 357.502 499.028C240.877 539.149 113.815 477.127 73.6964 360.508C45.2974 277.955 68.0773 190.176 125.17 131.696L122.892 129.469C64.9843 188.779 41.8761 277.81 70.6817 361.545C111.374 479.833 240.251 542.736 358.539 502.043C476.827 461.351 539.736 332.472 499.043 214.184Z" fill="#B8292D"/>
<g clip-path="url(#clip1_744_49)">
<path d="M300.496 122C291.73 121.999 282.977 122.694 274.321 124.078C195.909 136.614 136 204.563 136 286.508C135.962 312.138 141.938 337.419 153.448 360.318C167.137 387.585 188.14 410.507 214.108 426.522C240.076 442.538 269.987 451.016 300.496 451.008C391.346 451.008 464.992 377.36 464.992 286.508C464.992 195.656 391.346 122 300.496 122ZM300.496 448.694C270.416 448.7 240.927 440.341 215.325 424.551C189.722 408.761 169.015 386.161 155.518 359.279C144.172 336.701 138.279 311.777 138.314 286.508C138.314 205.715 197.387 138.741 274.711 126.368C283.246 125.002 291.877 124.318 300.521 124.322C390.088 124.322 462.703 196.931 462.703 286.508C462.703 376.086 390.063 448.719 300.496 448.719V448.694Z" fill="#C4C4C4"/>
<g clip-path="url(#clip2_744_49)">
<g filter="url(#filter0_d_744_49)">
<circle cx="300" cy="287" r="50" fill="#B8292D"/>
</g>
<path d="M297.2 276.21H286.55V282.66H296.24V285.81H286.55V296.34H282.8V272.97H297.2V276.21ZM317.152 280.62C317.152 281.58 316.972 282.52 316.612 283.44C316.252 284.36 315.742 285.18 315.082 285.9C314.422 286.6 313.632 287.17 312.712 287.61C311.812 288.03 310.822 288.24 309.742 288.24H303.952V296.34H300.202V272.97H309.742C310.822 272.97 311.812 273.19 312.712 273.63C313.632 274.05 314.422 274.62 315.082 275.34C315.742 276.06 316.252 276.88 316.612 277.8C316.972 278.72 317.152 279.66 317.152 280.62ZM309.562 285.06C310.182 285.06 310.732 284.95 311.212 284.73C311.712 284.49 312.132 284.17 312.472 283.77C312.812 283.37 313.062 282.9 313.222 282.36C313.402 281.82 313.492 281.24 313.492 280.62C313.492 280 313.402 279.42 313.222 278.88C313.062 278.34 312.812 277.87 312.472 277.47C312.132 277.05 311.712 276.73 311.212 276.51C310.732 276.27 310.182 276.15 309.562 276.15H303.952V285.06H309.562Z" fill="white"/>
</g>
<g filter="url(#filter1_d_744_49)">
<circle cx="166" cy="356" r="30" fill="white"/>
</g>
<path d="M149.359 356.992C149.359 356.107 149.492 355.275 149.759 354.496C150.036 353.717 150.436 353.04 150.959 352.464C151.492 351.888 152.148 351.435 152.927 351.104C153.705 350.763 154.607 350.592 155.631 350.592C156.655 350.592 157.535 350.741 158.271 351.04C159.007 351.339 159.684 351.813 160.303 352.464L159.119 353.776C158.639 353.232 158.121 352.848 157.567 352.624C157.012 352.4 156.367 352.288 155.631 352.288C154.959 352.288 154.356 352.4 153.823 352.624C153.3 352.837 152.857 353.152 152.495 353.568C152.132 353.973 151.855 354.469 151.663 355.056C151.481 355.632 151.391 356.277 151.391 356.992C151.391 357.717 151.487 358.368 151.679 358.944C151.881 359.52 152.164 360.016 152.527 360.432C152.9 360.837 153.353 361.152 153.887 361.376C154.42 361.589 155.023 361.696 155.695 361.696C156.431 361.696 157.087 361.584 157.663 361.36C158.239 361.136 158.767 360.752 159.247 360.208L160.431 361.52C159.812 362.171 159.124 362.645 158.367 362.944C157.609 363.243 156.719 363.392 155.695 363.392C154.671 363.392 153.764 363.221 152.975 362.88C152.196 362.549 151.535 362.096 150.991 361.52C150.457 360.944 150.052 360.267 149.775 359.488C149.497 358.709 149.359 357.877 149.359 356.992ZM169.462 352.512H164.038V355.984H168.998V357.664H164.038V361.52H169.654V363.248H162.038V350.784H169.462V352.512ZM177.225 363.408C176.233 363.408 175.342 363.243 174.553 362.912C173.774 362.581 173.118 362.128 172.585 361.552C172.052 360.965 171.641 360.283 171.353 359.504C171.076 358.715 170.937 357.872 170.937 356.976C170.937 356.059 171.081 355.211 171.369 354.432C171.668 353.643 172.089 352.96 172.633 352.384C173.188 351.808 173.854 351.36 174.633 351.04C175.422 350.709 176.308 350.544 177.289 350.544C178.27 350.544 179.15 350.715 179.929 351.056C180.718 351.387 181.385 351.845 181.929 352.432C182.484 353.008 182.905 353.691 183.193 354.48C183.492 355.259 183.641 356.091 183.641 356.976C183.641 357.893 183.486 358.747 183.177 359.536C182.878 360.315 182.446 360.992 181.881 361.568C181.326 362.144 180.654 362.592 179.865 362.912C179.076 363.243 178.196 363.408 177.225 363.408ZM177.289 352.208C176.617 352.208 176.009 352.32 175.465 352.544C174.932 352.768 174.473 353.088 174.089 353.504C173.716 353.92 173.428 354.421 173.225 355.008C173.022 355.595 172.921 356.251 172.921 356.976C172.921 357.765 173.028 358.459 173.241 359.056C173.465 359.643 173.774 360.139 174.169 360.544C174.564 360.939 175.022 361.237 175.545 361.44C176.078 361.643 176.66 361.744 177.289 361.744C177.961 361.744 178.564 361.632 179.097 361.408C179.641 361.173 180.1 360.848 180.473 360.432C180.857 360.016 181.15 359.515 181.353 358.928C181.556 358.341 181.657 357.691 181.657 356.976C181.657 356.208 181.545 355.531 181.321 354.944C181.108 354.347 180.809 353.845 180.425 353.44C180.041 353.035 179.582 352.731 179.049 352.528C178.516 352.315 177.929 352.208 177.289 352.208Z" fill="#1A1A1A"/>
</g>
<g filter="url(#filter2_d_744_49)">
<circle cx="223" cy="482" r="40" fill="white"/>
</g>
<path d="M216.439 475.248H208.679V462.784H210.679V473.52H216.439V475.248ZM224.698 475.248V474.384C224.325 474.768 223.903 475.029 223.434 475.168C222.975 475.317 222.517 475.392 222.058 475.392C221.407 475.392 220.805 475.28 220.25 475.056C219.695 474.832 219.21 474.523 218.794 474.128C218.389 473.733 218.069 473.264 217.834 472.72C217.599 472.176 217.482 471.579 217.482 470.928C217.482 470.277 217.599 469.68 217.834 469.136C218.069 468.581 218.389 468.107 218.794 467.712C219.21 467.307 219.695 466.992 220.25 466.768C220.805 466.533 221.407 466.416 222.058 466.416C222.506 466.416 222.965 466.507 223.434 466.688C223.903 466.859 224.325 467.136 224.698 467.52V466.56H226.698V475.248H224.698ZM222.058 468.112C221.663 468.112 221.306 468.187 220.986 468.336C220.666 468.485 220.394 468.688 220.17 468.944C219.946 469.2 219.77 469.499 219.642 469.84C219.525 470.181 219.466 470.544 219.466 470.928C219.466 471.312 219.525 471.675 219.642 472.016C219.77 472.347 219.946 472.64 220.17 472.896C220.394 473.141 220.666 473.339 220.986 473.488C221.306 473.627 221.663 473.696 222.058 473.696C222.453 473.696 222.81 473.627 223.13 473.488C223.45 473.339 223.722 473.141 223.946 472.896C224.181 472.64 224.357 472.347 224.474 472.016C224.602 471.675 224.666 471.312 224.666 470.928C224.666 470.544 224.602 470.181 224.474 469.84C224.357 469.499 224.181 469.2 223.946 468.944C223.722 468.688 223.45 468.485 223.13 468.336C222.81 468.187 222.453 468.112 222.058 468.112ZM228.616 475.248V462.784H230.616V467.232C230.979 466.976 231.374 466.779 231.8 466.64C232.238 466.491 232.696 466.416 233.176 466.416C233.827 466.416 234.43 466.533 234.984 466.768C235.539 466.992 236.019 467.307 236.424 467.712C236.83 468.107 237.144 468.581 237.368 469.136C237.603 469.68 237.72 470.277 237.72 470.928C237.72 471.579 237.603 472.176 237.368 472.72C237.144 473.264 236.83 473.733 236.424 474.128C236.019 474.523 235.539 474.832 234.984 475.056C234.43 475.28 233.827 475.392 233.176 475.392C232.696 475.392 232.227 475.307 231.768 475.136C231.31 474.965 230.926 474.709 230.616 474.368V475.248H228.616ZM233.176 468.112C232.44 468.112 231.843 468.336 231.384 468.784C230.936 469.221 230.68 469.813 230.616 470.56V471.296C230.68 472.043 230.936 472.629 231.384 473.056C231.843 473.483 232.44 473.696 233.176 473.696C233.976 473.696 234.6 473.451 235.048 472.96C235.507 472.469 235.736 471.792 235.736 470.928C235.736 470.064 235.507 469.381 235.048 468.88C234.6 468.368 233.976 468.112 233.176 468.112ZM200.498 499.592C200.146 499.443 199.81 499.277 199.49 499.096C199.18 498.915 198.887 498.717 198.61 498.504C198.034 498.077 197.554 497.565 197.17 496.968C196.754 496.392 196.444 495.731 196.242 494.984C196.018 494.248 195.906 493.405 195.906 492.456C195.906 490.685 196.3 489.203 197.09 488.008C197.868 486.813 199.004 485.912 200.498 485.304V487.24C200.018 487.517 199.628 487.8 199.33 488.088C199.01 488.397 198.727 488.771 198.482 489.208C198.236 489.645 198.06 490.125 197.954 490.648C197.826 491.192 197.762 491.795 197.762 492.456C197.762 493.8 198.002 494.872 198.482 495.672C198.94 496.504 199.612 497.16 200.498 497.64V499.592ZM209.85 488.968C209.85 489.544 209.754 490.056 209.562 490.504C209.349 490.984 209.077 491.384 208.746 491.704C208.394 492.045 207.994 492.301 207.546 492.472C207.077 492.664 206.581 492.76 206.058 492.76C205.503 492.76 205.002 492.664 204.554 492.472C204.085 492.301 203.685 492.045 203.354 491.704C203.034 491.416 202.767 491.016 202.554 490.504C202.362 490.056 202.266 489.544 202.266 488.968C202.266 488.424 202.362 487.912 202.554 487.432C202.767 486.931 203.034 486.531 203.354 486.232C203.727 485.88 204.127 485.619 204.554 485.448C205.034 485.267 205.535 485.176 206.058 485.176C206.559 485.176 207.055 485.267 207.546 485.448C207.962 485.619 208.362 485.88 208.746 486.232C209.077 486.573 209.349 486.973 209.562 487.432C209.754 487.912 209.85 488.424 209.85 488.968ZM207.93 488.968C207.93 488.317 207.754 487.8 207.402 487.416C207.029 487.053 206.586 486.872 206.074 486.872C205.53 486.872 205.077 487.053 204.714 487.416C204.351 487.779 204.17 488.296 204.17 488.968C204.17 489.651 204.351 490.168 204.714 490.52C205.066 490.883 205.519 491.064 206.074 491.064C206.33 491.064 206.57 491.016 206.794 490.92C207.018 490.845 207.215 490.712 207.386 490.52C207.546 490.339 207.679 490.12 207.786 489.864C207.882 489.608 207.93 489.309 207.93 488.968ZM214.042 499.512H206.698C206.058 499.512 205.541 499.373 205.146 499.096C204.762 498.819 204.57 498.408 204.57 497.864V494.376H206.49V497.352C206.49 497.651 206.645 497.8 206.954 497.8H214.042V499.512ZM209.93 491.384V489.816H212.01V488.024H209.93V486.456H212.01V484.872H213.93V494.616H212.01V491.384H209.93ZM228.025 485.464C228.025 486.872 227.966 488.131 227.849 489.24C227.742 490.349 227.587 491.288 227.385 492.056L225.609 491.752C225.811 490.984 225.945 490.205 226.009 489.416C226.073 488.616 226.105 487.864 226.105 487.16H217.961V485.464H228.025ZM222.025 499.912V494.68H216.185V492.984H229.833V494.68H223.977V499.912H222.025ZM238.695 492.968V496.392H244.551V498.088H230.903V496.392H236.759V492.968H238.695ZM237.735 489.976C237.597 490.285 237.431 490.563 237.239 490.808C237.058 491.053 236.861 491.299 236.647 491.544C236.125 492.152 235.522 492.648 234.839 493.032C234.167 493.405 233.463 493.699 232.727 493.912L231.671 492.584C232.439 492.339 233.127 492.029 233.735 491.656C234.343 491.272 234.903 490.803 235.415 490.248C235.821 489.768 236.135 489.277 236.359 488.776C236.594 488.275 236.711 487.736 236.711 487.16V485.736H238.711V487.16C238.711 487.768 238.834 488.328 239.079 488.84C239.325 489.341 239.639 489.805 240.023 490.232C240.567 490.84 241.149 491.331 241.767 491.704C242.386 492.067 243.047 492.355 243.751 492.568L242.695 493.912C241.895 493.677 241.165 493.368 240.503 492.984C239.853 492.589 239.255 492.072 238.711 491.432C238.53 491.208 238.359 490.979 238.199 490.744C238.039 490.499 237.885 490.243 237.735 489.976ZM245.526 497.64C246.401 497.149 247.078 496.493 247.558 495.672C248.027 494.851 248.262 493.779 248.262 492.456C248.262 492.115 248.246 491.8 248.214 491.512C248.182 491.213 248.139 490.925 248.086 490.648C247.958 490.125 247.782 489.645 247.558 489.208C247.441 489.005 247.307 488.813 247.158 488.632C247.019 488.44 246.865 488.259 246.694 488.088C246.513 487.928 246.326 487.779 246.134 487.64C245.942 487.501 245.739 487.368 245.526 487.24V485.304C246.998 485.912 248.139 486.813 248.95 488.008C249.739 489.213 250.134 490.696 250.134 492.456C250.134 493.373 250.027 494.216 249.814 494.984C249.601 495.709 249.286 496.371 248.87 496.968C248.433 497.565 247.947 498.077 247.414 498.504C247.126 498.717 246.822 498.915 246.502 499.096C246.193 499.277 245.867 499.443 245.526 499.592V497.64Z" fill="#1A1A1A"/>
<g filter="url(#filter3_d_744_49)">
<circle cx="76.0002" cy="167" r="40" fill="white"/>
</g>
<path d="M60.5824 160.784V173.248H58.5984V164.416L54.3104 171.424L50.0224 164.416V173.248H48.0384V160.784H49.7984L54.3104 168.224L58.8544 160.784H60.5824ZM69.3231 173.248V172.384C68.9498 172.768 68.5285 173.029 68.0591 173.168C67.6005 173.317 67.1418 173.392 66.6831 173.392C66.0325 173.392 65.4298 173.28 64.8751 173.056C64.3205 172.832 63.8351 172.523 63.4191 172.128C63.0138 171.733 62.6938 171.264 62.4591 170.72C62.2245 170.176 62.1071 169.579 62.1071 168.928C62.1071 168.277 62.2245 167.68 62.4591 167.136C62.6938 166.581 63.0138 166.107 63.4191 165.712C63.8351 165.307 64.3205 164.992 64.8751 164.768C65.4298 164.533 66.0325 164.416 66.6831 164.416C67.1311 164.416 67.5898 164.507 68.0591 164.688C68.5285 164.859 68.9498 165.136 69.3231 165.52V164.56H71.3231V173.248H69.3231ZM66.6831 166.112C66.2885 166.112 65.9311 166.187 65.6111 166.336C65.2911 166.485 65.0191 166.688 64.7951 166.944C64.5711 167.2 64.3951 167.499 64.2671 167.84C64.1498 168.181 64.0911 168.544 64.0911 168.928C64.0911 169.312 64.1498 169.675 64.2671 170.016C64.3951 170.347 64.5711 170.64 64.7951 170.896C65.0191 171.141 65.2911 171.339 65.6111 171.488C65.9311 171.627 66.2885 171.696 66.6831 171.696C67.0778 171.696 67.4351 171.627 67.7551 171.488C68.0751 171.339 68.3471 171.141 68.5711 170.896C68.8058 170.64 68.9818 170.347 69.0991 170.016C69.2271 169.675 69.2911 169.312 69.2911 168.928C69.2911 168.544 69.2271 168.181 69.0991 167.84C68.9818 167.499 68.8058 167.2 68.5711 166.944C68.3471 166.688 68.0751 166.485 67.7551 166.336C67.4351 166.187 67.0778 166.112 66.6831 166.112ZM78.8255 166.224C78.2708 166.224 77.7908 166.272 77.3855 166.368C76.9908 166.464 76.5962 166.651 76.2015 166.928C75.9242 167.109 75.7055 167.36 75.5455 167.68C75.3962 167.989 75.3215 168.283 75.3215 168.56V173.248H73.3215V164.56H75.3215V165.648C75.8442 165.168 76.3935 164.848 76.9695 164.688C77.5562 164.517 78.1748 164.432 78.8255 164.432V166.224ZM82.3509 173.248H80.3509V160.784H82.3509V168.096L85.4229 164.56H87.6309L84.4629 168.128L88.1589 173.248H85.9509L83.2469 169.504L82.3509 170.528V173.248ZM96.3817 171.888C96.2324 172.08 96.0351 172.267 95.7897 172.448C95.5551 172.64 95.2724 172.805 94.9417 172.944C94.6217 173.093 94.2537 173.211 93.8377 173.296C93.4324 173.381 92.9897 173.424 92.5097 173.424C91.8377 173.424 91.2244 173.312 90.6697 173.088C90.1257 172.864 89.6511 172.549 89.2457 172.144C88.8511 171.749 88.5417 171.28 88.3177 170.736C88.1044 170.192 87.9977 169.595 87.9977 168.944C87.9977 168.293 88.0991 167.696 88.3017 167.152C88.5151 166.597 88.8137 166.117 89.1977 165.712C89.5817 165.307 90.0457 164.992 90.5897 164.768C91.1337 164.533 91.7417 164.416 92.4137 164.416C93.0857 164.416 93.6937 164.533 94.2377 164.768C94.7817 164.992 95.2457 165.307 95.6297 165.712C96.0137 166.117 96.3071 166.597 96.5097 167.152C96.7231 167.696 96.8297 168.293 96.8297 168.944V169.712H90.0777C90.2057 170.32 90.4724 170.811 90.8777 171.184C91.2937 171.557 91.8377 171.744 92.5097 171.744C93.1177 171.744 93.6617 171.643 94.1417 171.44C94.6217 171.237 94.9897 170.981 95.2457 170.672L96.3817 171.888ZM92.4137 166.112C91.7737 166.112 91.2564 166.293 90.8617 166.656C90.4777 167.008 90.2217 167.472 90.0937 168.048H94.7177C94.5897 167.472 94.3337 167.008 93.9497 166.656C93.5657 166.293 93.0537 166.112 92.4137 166.112ZM101.423 170.288C101.423 170.736 101.53 171.083 101.743 171.328C101.967 171.573 102.292 171.696 102.719 171.696C103.028 171.696 103.311 171.611 103.567 171.44C103.823 171.259 104.026 171.056 104.175 170.832L105.359 172C105.05 172.448 104.671 172.795 104.223 173.04C103.775 173.285 103.295 173.408 102.783 173.408C101.684 173.408 100.847 173.125 100.271 172.56C99.7055 172.005 99.4229 171.232 99.4229 170.24V166.288H97.9509V164.56H99.4229V161.104H101.423V164.56H104.063V166.288H101.423V170.288Z" fill="#1A1A1A"/>
<g filter="url(#filter4_d_744_49)">
<circle cx="264" cy="127" r="45" fill="white"/>
</g>
<path d="M254.059 117.4C253.227 117.4 252.593 117.224 252.155 116.872C251.718 116.52 251.499 115.923 251.499 115.08V109.88H253.419V112.04H259.499V109.88H261.403V117.4H257.467V120.392H263.323V122.088H249.675V120.392H255.531V117.4H254.059ZM259.499 113.736H253.419V114.808C253.419 115.149 253.478 115.384 253.595 115.512C253.723 115.64 253.958 115.704 254.299 115.704H259.499V113.736ZM264.602 111.8V110.232H267.866V108.648H269.85V110.232H273.114V111.8H271.674C271.845 111.981 271.989 112.184 272.106 112.408C272.234 112.632 272.33 112.877 272.394 113.144H274.938V108.872H276.858V117.496H274.938V114.856H272.33C272.202 115.251 272.01 115.592 271.754 115.88C271.509 116.168 271.226 116.408 270.906 116.6C270.586 116.792 270.245 116.936 269.882 117.032C269.53 117.117 269.183 117.16 268.842 117.16C268.405 117.16 267.967 117.091 267.53 116.952C267.103 116.813 266.719 116.611 266.378 116.344C266.037 116.067 265.759 115.725 265.546 115.32C265.343 114.915 265.242 114.44 265.242 113.896C265.242 113.448 265.311 113.053 265.45 112.712C265.589 112.371 265.781 112.067 266.026 111.8H264.602ZM276.858 123.592H269.674C269.034 123.592 268.517 123.453 268.122 123.176C267.738 122.899 267.546 122.488 267.546 121.944V118.392H276.858V123.592ZM270.602 113.896C270.602 113.32 270.437 112.883 270.106 112.584C269.775 112.275 269.354 112.12 268.842 112.12C268.33 112.12 267.909 112.28 267.578 112.6C267.258 112.92 267.098 113.352 267.098 113.896C267.098 114.451 267.269 114.883 267.61 115.192C267.951 115.501 268.362 115.656 268.842 115.656C269.354 115.656 269.775 115.501 270.106 115.192C270.437 114.872 270.602 114.44 270.602 113.896ZM274.938 121.88V120.104H269.466V121.432C269.466 121.731 269.621 121.88 269.93 121.88H274.938ZM253.996 144.448H246.188V144.8C246.199 144.917 246.241 145.013 246.316 145.088C246.401 145.173 246.513 145.216 246.652 145.216H254.172V146.72H246.348C245.708 146.72 245.201 146.587 244.828 146.32C244.465 146.053 244.284 145.648 244.284 145.104V142.96H252.076V142.256H244.284V140.752H253.996V144.448ZM243.772 137.584V136.016H245.644C245.623 135.867 245.612 135.723 245.612 135.584C245.612 135.435 245.612 135.285 245.612 135.136L245.564 134.256H247.484L247.532 135.136C247.532 135.285 247.532 135.435 247.532 135.584C247.532 135.723 247.543 135.867 247.564 136.016H250.684L250.732 135.136C250.732 134.859 250.748 134.565 250.78 134.256H252.684C252.663 134.405 252.652 134.555 252.652 134.704C252.652 134.843 252.652 134.987 252.652 135.136L252.604 136.016H254.492V137.584H243.772ZM255.964 138.32V139.968H242.316V138.32H255.964ZM243.98 133.872V132.304H254.268V133.872H243.98ZM265.147 136.48H267.419V131.872H269.339V146.912H267.419V138.176H265.147V136.48ZM266.539 141.984C265.899 142.315 265.147 142.565 264.283 142.736C263.419 142.896 262.469 142.976 261.435 142.976C260.923 142.976 260.443 142.917 259.995 142.8C259.557 142.683 259.179 142.507 258.859 142.272C258.539 142.027 258.283 141.717 258.091 141.344C257.909 140.971 257.819 140.528 257.819 140.016V136.832H262.395V134.768H257.819V133.072H264.331V138.496H259.755V139.6C259.755 140.24 259.904 140.683 260.203 140.928C260.501 141.173 260.971 141.296 261.611 141.296C262.091 141.296 262.533 141.28 262.939 141.248C263.355 141.205 263.744 141.152 264.107 141.088C264.469 141.024 264.811 140.944 265.131 140.848C265.461 140.741 265.787 140.624 266.107 140.496L266.539 141.984ZM285.401 143.392V145.088H271.753V143.392H285.401ZM278.585 137.232C278.447 137.541 278.281 137.819 278.089 138.064C277.908 138.309 277.711 138.555 277.497 138.8C276.975 139.408 276.372 139.904 275.689 140.288C275.017 140.661 274.313 140.955 273.577 141.168L272.521 139.84C273.289 139.595 273.977 139.285 274.585 138.912C275.193 138.528 275.753 138.059 276.265 137.504C276.671 137.024 276.985 136.533 277.209 136.032C277.444 135.531 277.561 134.992 277.561 134.416V132.896H279.561V134.416C279.561 135.024 279.684 135.584 279.929 136.096C280.175 136.597 280.489 137.061 280.873 137.488C281.417 138.096 281.999 138.587 282.617 138.96C283.236 139.323 283.897 139.611 284.601 139.824L283.545 141.168C282.745 140.933 282.015 140.624 281.353 140.24C280.703 139.845 280.105 139.328 279.561 138.688C279.38 138.464 279.209 138.235 279.049 138C278.889 137.755 278.735 137.499 278.585 137.232Z" fill="#1A1A1A"/>
</g>
<defs>
<filter id="filter0_d_744_49" x="243" y="234" width="114" height="114" filterUnits="userSpaceOnUse" color-interpolation-filters="sRGB">
<feFlood flood-opacity="0" result="BackgroundImageFix"/>
<feColorMatrix in="SourceAlpha" type="matrix" values="0 0 0 0 0 0 0 0 0 0 0 0 0 0 0 0 0 0 127 0" result="hardAlpha"/>
<feOffset dy="4"/>
<feGaussianBlur stdDeviation="3.5"/>
<feComposite in2="hardAlpha" operator="out"/>
<feColorMatrix type="matrix" values="0 0 0 0 0 0 0 0 0 0 0 0 0 0 0 0 0 0 0.25 0"/>
<feBlend mode="normal" in2="BackgroundImageFix" result="effect1_dropShadow_744_49"/>
<feBlend mode="normal" in="SourceGraphic" in2="effect1_dropShadow_744_49" result="shape"/>
</filter>
<filter id="filter1_d_744_49" x="133" y="325" width="76" height="76" filterUnits="userSpaceOnUse" color-interpolation-filters="sRGB">
<feFlood flood-opacity="0" result="BackgroundImageFix"/>
<feColorMatrix in="SourceAlpha" type="matrix" values="0 0 0 0 0 0 0 0 0 0 0 0 0 0 0 0 0 0 127 0" result="hardAlpha"/>
<feOffset dx="5" dy="7"/>
<feGaussianBlur stdDeviation="4"/>
<feComposite in2="hardAlpha" operator="out"/>
<feColorMatrix type="matrix" values="0 0 0 0 0 0 0 0 0 0 0 0 0 0 0 0 0 0 0.25 0"/>
<feBlend mode="normal" in2="BackgroundImageFix" result="effect1_dropShadow_744_49"/>
<feBlend mode="normal" in="SourceGraphic" in2="effect1_dropShadow_744_49" result="shape"/>
</filter>
<filter id="filter2_d_744_49" x="180" y="441" width="96" height="96" filterUnits="userSpaceOnUse" color-interpolation-filters="sRGB">
<feFlood flood-opacity="0" result="BackgroundImageFix"/>
<feColorMatrix in="SourceAlpha" type="matrix" values="0 0 0 0 0 0 0 0 0 0 0 0 0 0 0 0 0 0 127 0" result="hardAlpha"/>
<feOffset dx="5" dy="7"/>
<feGaussianBlur stdDeviation="4"/>
<feComposite in2="hardAlpha" operator="out"/>
<feColorMatrix type="matrix" values="0 0 0 0 0 0 0 0 0 0 0 0 0 0 0 0 0 0 0.25 0"/>
<feBlend mode="normal" in2="BackgroundImageFix" result="effect1_dropShadow_744_49"/>
<feBlend mode="normal" in="SourceGraphic" in2="effect1_dropShadow_744_49" result="shape"/>
</filter>
<filter id="filter3_d_744_49" x="33.0002" y="126" width="96" height="96" filterUnits="userSpaceOnUse" color-interpolation-filters="sRGB">
<feFlood flood-opacity="0" result="BackgroundImageFix"/>
<feColorMatrix in="SourceAlpha" type="matrix" values="0 0 0 0 0 0 0 0 0 0 0 0 0 0 0 0 0 0 127 0" result="hardAlpha"/>
<feOffset dx="5" dy="7"/>
<feGaussianBlur stdDeviation="4"/>
<feComposite in2="hardAlpha" operator="out"/>
<feColorMatrix type="matrix" values="0 0 0 0 0 0 0 0 0 0 0 0 0 0 0 0 0 0 0.25 0"/>
<feBlend mode="normal" in2="BackgroundImageFix" result="effect1_dropShadow_744_49"/>
<feBlend mode="normal" in="SourceGraphic" in2="effect1_dropShadow_744_49" result="shape"/>
</filter>
<filter id="filter4_d_744_49" x="216" y="81" width="106" height="106" filterUnits="userSpaceOnUse" color-interpolation-filters="sRGB">
<feFlood flood-opacity="0" result="BackgroundImageFix"/>
<feColorMatrix in="SourceAlpha" type="matrix" values="0 0 0 0 0 0 0 0 0 0 0 0 0 0 0 0 0 0 127 0" result="hardAlpha"/>
<feOffset dx="5" dy="7"/>
<feGaussianBlur stdDeviation="4"/>
<feComposite in2="hardAlpha" operator="out"/>
<feColorMatrix type="matrix" values="0 0 0 0 0 0 0 0 0 0 0 0 0 0 0 0 0 0 0.25 0"/>
<feBlend mode="normal" in2="BackgroundImageFix" result="effect1_dropShadow_744_49"/>
<feBlend mode="normal" in="SourceGraphic" in2="effect1_dropShadow_744_49" result="shape"/>
</filter>
<clipPath id="clip0_744_49">
<rect width="453" height="453" fill="white" transform="translate(425.362) rotate(71.0162)"/>
</clipPath>
<clipPath id="clip1_744_49">
<rect width="329" height="329" fill="white" transform="translate(136 122)"/>
</clipPath>
<clipPath id="clip2_744_49">
<rect width="120" height="120" fill="white" transform="translate(240 227)"/>
</clipPath>
</defs>
</svg>
