<svg width="100" height="84" viewBox="0 0 100 84" fill="none" xmlns="http://www.w3.org/2000/svg">
<g clip-path="url(#clip0_767_67)">
<path d="M21.8021 78.7144H0V38.793H21.8021V78.7144ZM4.41932 74.2951H17.3827V43.2123H4.41932V74.2951Z" fill="#444444"/>
<path d="M58.5815 83.23L18.8811 69.6037C18.3244 69.4116 17.8667 69.0063 17.6089 68.4768C17.351 67.9473 17.3141 67.337 17.5062 66.7803C17.6983 66.2236 18.1037 65.7659 18.6332 65.5081C19.1627 65.2502 19.7729 65.2133 20.3297 65.4054L58.1642 78.4179L94.3537 58.7764C93.2464 56.6871 91.4224 55.0676 89.2169 54.2151C87.0114 53.3627 84.5724 53.3346 82.3478 54.136C76.2835 55.9774 58.0168 62.9501 57.7959 63.0238C57.2456 63.2322 56.6352 63.2134 56.0988 62.9716C55.5624 62.7299 55.144 62.285 54.9356 61.7348C54.7273 61.1845 54.746 60.5741 54.9877 60.0377C55.2294 59.5013 55.6744 59.0829 56.2246 58.8745C56.9611 58.6044 74.8104 51.8036 81.022 49.9131C84.643 48.7097 88.5926 48.9836 92.0128 50.6753C95.433 52.367 98.0477 55.34 99.2887 58.9482L99.9516 60.7405L58.5815 83.23Z" fill="#444444"/>
<path d="M54.604 63.7132C53.3313 63.7208 52.0731 63.444 50.9212 62.903L35.7481 55.832C35.2174 55.5813 34.808 55.1301 34.61 54.5776C34.412 54.0251 34.4417 53.4164 34.6924 52.8858C34.9431 52.3551 35.3943 51.9458 35.9468 51.7478C36.4993 51.5498 37.1079 51.5793 37.6386 51.83L52.7871 58.901C53.7454 59.3532 54.8368 59.4353 55.8519 59.1316C56.867 58.828 57.7342 58.1601 58.2867 57.2561C58.6141 56.7395 58.8253 56.158 58.9059 55.5518C58.9864 54.9456 58.9343 54.3293 58.7532 53.7452C58.5834 53.1565 58.2896 52.6108 57.8915 52.145C57.4935 51.6792 57.0004 51.3039 56.4453 51.0444L39.8728 43.2123H17.7761C17.4859 43.2123 17.1985 43.1552 16.9304 43.0442C16.6624 42.9331 16.4188 42.7703 16.2136 42.5651C16.0084 42.3599 15.8457 42.1163 15.7346 41.8482C15.6236 41.5801 15.5664 41.2929 15.5664 41.0027C15.5664 40.7125 15.6236 40.4252 15.7346 40.1571C15.8457 39.889 16.0084 39.6454 16.2136 39.4402C16.4188 39.235 16.6624 39.0722 16.9304 38.9611C17.1985 38.8501 17.4859 38.793 17.7761 38.793H40.8058L58.385 47.067C60.1857 47.916 61.6427 49.3543 62.5148 51.144C63.387 52.9337 63.622 54.9674 63.181 56.9089C62.74 58.8503 61.6495 60.583 60.0898 61.8203C58.5301 63.0576 56.5948 63.7255 54.604 63.7132V63.7132Z" fill="#444444"/>
<path d="M13.1108 64.0566H8.69141V70.2437H13.1108V64.0566Z" fill="#444444"/>
<path d="M44.783 24.2573C42.3842 24.2573 40.0392 23.546 38.0447 22.2133C36.0501 20.8806 34.4956 18.9863 33.5776 16.7701C32.6596 14.5539 32.4194 12.1152 32.8873 9.76243C33.3553 7.4097 34.5105 5.24859 36.2067 3.55237C37.903 1.85614 40.0641 0.701032 42.4168 0.233045C44.7695 -0.234941 47.2082 0.00527983 49.4244 0.923269C51.6406 1.84126 53.5349 3.39577 54.8676 5.39031C56.2003 7.38486 56.9116 9.72986 56.9116 12.1287C56.8734 15.3335 55.5833 18.3963 53.317 20.6626C51.0506 22.9289 47.9878 24.219 44.783 24.2573ZM44.783 4.41934C43.2582 4.41934 41.7677 4.87146 40.5 5.71857C39.2322 6.56568 38.244 7.76976 37.6605 9.17845C37.077 10.5871 36.9244 12.1372 37.2218 13.6327C37.5193 15.1281 38.2535 16.5018 39.3317 17.58C40.4099 18.6581 41.7835 19.3924 43.279 19.6898C44.7744 19.9873 46.3245 19.8346 47.7332 19.2511C49.1419 18.6676 50.3459 17.6795 51.193 16.4117C52.0401 15.1439 52.4923 13.6534 52.4923 12.1287C52.4858 10.086 51.6715 8.12889 50.2271 6.68452C48.7828 5.24015 46.8256 4.42582 44.783 4.41934V4.41934Z" fill="#444444"/>
<path d="M67.7634 41.2964C65.3646 41.2964 63.0196 40.585 61.0251 39.2523C59.0306 37.9196 57.476 36.0254 56.558 33.8092C55.64 31.5929 55.3998 29.1542 55.8678 26.8015C56.3358 24.4488 57.4909 22.2877 59.1872 20.5914C60.8834 18.8952 63.0445 17.7401 65.3972 17.2721C67.7499 16.8041 70.1886 17.0443 72.4049 17.9623C74.6211 18.8803 76.5153 20.4348 77.8481 22.4294C79.1808 24.4239 79.8921 26.7689 79.8921 29.1677C79.8921 32.3844 78.6143 35.4694 76.3397 37.744C74.0651 40.0186 70.9801 41.2964 67.7634 41.2964ZM67.7634 21.483C66.2376 21.483 64.7461 21.9357 63.4778 22.7839C62.2095 23.6321 61.2214 24.8376 60.6386 26.2477C60.0559 27.6579 59.9047 29.2092 60.2041 30.7053C60.5036 32.2015 61.2403 33.5751 62.3209 34.6522C63.4015 35.7294 64.7775 36.4617 66.2745 36.7564C67.7716 37.0511 69.3225 36.8949 70.7307 36.3077C72.139 35.7204 73.3413 34.7285 74.1854 33.4575C75.0296 32.1864 75.4776 30.6935 75.4727 29.1677C75.4662 27.1273 74.6511 25.1728 73.2061 23.7323C71.761 22.2918 69.8038 21.483 67.7634 21.483V21.483Z" fill="#444444"/>
<path d="M46.4522 15.5162H42.9167C42.513 15.5162 42.1259 15.3559 41.8404 15.0704C41.5549 14.7849 41.3945 14.3977 41.3945 13.994V13.6257H42.6221V14.0922C42.6187 14.1329 42.6238 14.1739 42.6371 14.2126C42.6504 14.2512 42.6715 14.2866 42.6992 14.3166C42.7269 14.3467 42.7606 14.3705 42.7981 14.3869C42.8355 14.4032 42.8759 14.4116 42.9167 14.4114H46.4522C46.4931 14.4116 46.5335 14.4032 46.571 14.3869C46.6084 14.3705 46.642 14.3467 46.6697 14.3166C46.6974 14.2866 46.7186 14.2512 46.7319 14.2126C46.7452 14.1739 46.7502 14.1329 46.7468 14.0922V13.1347C46.7502 13.094 46.7452 13.0531 46.7319 13.0144C46.7186 12.9758 46.6974 12.9404 46.6697 12.9103C46.642 12.8803 46.6084 12.8564 46.571 12.8401C46.5335 12.8238 46.4931 12.8154 46.4522 12.8156H42.9167C42.718 12.8188 42.5206 12.7825 42.3361 12.7086C42.1515 12.6348 41.9835 12.525 41.8418 12.3856C41.7002 12.2462 41.5876 12.0801 41.5108 11.8967C41.434 11.7134 41.3945 11.5166 41.3945 11.3179V10.3358C41.3945 10.137 41.434 9.94024 41.5108 9.75692C41.5876 9.57359 41.7002 9.40742 41.8418 9.26802C41.9835 9.12862 42.1515 9.01882 42.3361 8.94501C42.5206 8.87121 42.718 8.83483 42.9167 8.83809H46.4522C46.8494 8.83809 47.2304 8.99592 47.5112 9.27679C47.7921 9.55765 47.9499 9.93859 47.9499 10.3358V10.8268H46.7468V10.3358C46.7468 10.2577 46.7158 10.1827 46.6606 10.1274C46.6053 10.0722 46.5304 10.0412 46.4522 10.0412H42.9167C42.8386 10.0412 42.7637 10.0722 42.7084 10.1274C42.6532 10.1827 42.6221 10.2577 42.6221 10.3358V11.3179C42.6221 11.396 42.6532 11.471 42.7084 11.5262C42.7637 11.5815 42.8386 11.6125 42.9167 11.6125H46.4522C46.651 11.6124 46.8478 11.652 47.0311 11.7288C47.2144 11.8056 47.3806 11.9181 47.52 12.0598C47.6594 12.2015 47.7692 12.3694 47.843 12.554C47.9168 12.7385 47.9532 12.9359 47.9499 13.1347V14.0922C47.931 14.4765 47.7649 14.8388 47.4861 15.104C47.2072 15.3691 46.837 15.5167 46.4522 15.5162Z" fill="#B8292D"/>
<path d="M45.2734 7.70898H44.0703V9.32941H45.2734V7.70898Z" fill="#B8292D"/>
<path d="M45.2734 14.9023H44.0703V16.5228H45.2734V14.9023Z" fill="#B8292D"/>
<path d="M69.5308 32.5807H65.9954C65.7966 32.5807 65.5998 32.5412 65.4165 32.4644C65.2332 32.3876 65.0669 32.2751 64.9275 32.1334C64.7881 31.9917 64.6783 31.8237 64.6045 31.6392C64.5307 31.4546 64.4944 31.2572 64.4977 31.0585V30.5674H65.7007V31.0585C65.7007 31.1367 65.7318 31.2116 65.787 31.2668C65.8423 31.3221 65.9172 31.3531 65.9954 31.3531H69.5308C69.5715 31.3565 69.6125 31.3514 69.6511 31.3381C69.6898 31.3249 69.7252 31.3037 69.7552 31.276C69.7852 31.2483 69.8092 31.2146 69.8255 31.1772C69.8418 31.1398 69.8501 31.0994 69.85 31.0585V30.0765C69.8438 29.9961 69.8074 29.9211 69.7482 29.8664C69.689 29.8118 69.6114 29.7815 69.5308 29.7818H65.9954C65.7987 29.7917 65.6019 29.7627 65.4164 29.6965C65.2308 29.6303 65.0602 29.528 64.9143 29.3957C64.7683 29.2635 64.6498 29.1038 64.5657 28.9257C64.4816 28.7475 64.4335 28.5545 64.424 28.3578V27.3757C64.4208 27.177 64.4571 26.9796 64.5309 26.795C64.6047 26.6105 64.7145 26.4425 64.8539 26.3008C64.9933 26.1591 65.1595 26.0466 65.3429 25.9698C65.5262 25.893 65.7229 25.8535 65.9217 25.8535H69.4571C69.657 25.8535 69.855 25.8929 70.0397 25.9694C70.2244 26.0459 70.3922 26.158 70.5335 26.2993C70.6749 26.4407 70.787 26.6085 70.8635 26.7932C70.94 26.9779 70.9794 27.1758 70.9794 27.3757V27.8667H69.7763V27.3757C69.7765 27.3349 69.7681 27.2944 69.7518 27.257C69.7355 27.2195 69.7116 27.1859 69.6815 27.1582C69.6515 27.1305 69.6161 27.1093 69.5775 27.096C69.5388 27.0827 69.4978 27.0777 69.4571 27.0811H65.9217C65.883 27.0811 65.8447 27.0887 65.809 27.1035C65.7732 27.1183 65.7407 27.14 65.7134 27.1674C65.686 27.1947 65.6643 27.2272 65.6495 27.263C65.6347 27.2987 65.627 27.337 65.627 27.3757V28.3578C65.6327 28.434 65.6656 28.5057 65.7197 28.5598C65.7737 28.6139 65.8454 28.6467 65.9217 28.6524H69.4571C69.6559 28.6491 69.8533 28.6855 70.0378 28.7593C70.2224 28.8331 70.3904 28.9429 70.5321 29.0823C70.6738 29.2217 70.7863 29.3879 70.8631 29.5712C70.9399 29.7545 70.9795 29.9513 70.9794 30.1501V31.1322C70.9615 31.5106 70.8031 31.8687 70.5353 32.1366C70.2674 32.4044 69.9092 32.5628 69.5308 32.5807Z" fill="#B8292D"/>
<path d="M68.3769 24.7734H67.1738V26.3939H68.3769V24.7734Z" fill="#B8292D"/>
<path d="M68.3769 31.9668H67.1738V33.5872H68.3769V31.9668Z" fill="#B8292D"/>
</g>
<defs>
<clipPath id="clip0_767_67">
<rect width="100" height="83.231" fill="white"/>
</clipPath>
</defs>
</svg>
