<svg width="100" height="100" viewBox="0 0 100 100" fill="none" xmlns="http://www.w3.org/2000/svg">
<rect width="100" height="100" rx="11" fill="#B8292D"/>
<g clip-path="url(#clip0_144_804)">
<path d="M50.0001 39.3097C49.8004 39.3722 49.5868 39.3722 49.3871 39.3097L24.8687 22.8538C24.6657 22.7276 24.5083 22.538 24.4199 22.3134C24.3316 22.0887 24.317 21.841 24.3783 21.6072C24.4446 21.3599 24.588 21.1412 24.787 20.9838C24.9859 20.8264 25.2297 20.739 25.4817 20.7345H74.5185C74.7732 20.7281 75.0222 20.8114 75.2233 20.9705C75.4245 21.1296 75.5652 21.3545 75.6218 21.6072C75.7121 21.8324 75.7183 22.0835 75.6393 22.3131C75.5602 22.5427 75.4014 22.735 75.1927 22.8538L50.6743 39.3097C50.4545 39.3773 50.2199 39.3773 50.0001 39.3097ZM29.1594 22.8538L50.0001 36.7541L70.7794 22.8538H29.1594Z" fill="white"/>
<path d="M30.6309 49.3455H19.7202C19.3895 49.3179 19.0821 49.1617 18.862 48.9092C18.7864 48.7542 18.7471 48.5835 18.7471 48.4105C18.7471 48.2375 18.7864 48.0668 18.862 47.9119L24.3174 21.4827C24.3613 21.2186 24.4966 20.9791 24.699 20.8076C24.9013 20.6361 25.1573 20.5439 25.4207 20.5477C25.6841 20.5439 25.9401 20.6361 26.1424 20.8076C26.3448 20.9791 26.4802 21.2186 26.524 21.4827L31.9794 47.9119C32.055 48.0668 32.0943 48.2375 32.0943 48.4105C32.0943 48.5835 32.055 48.7542 31.9794 48.9092C31.8211 49.108 31.609 49.2552 31.3694 49.3327C31.1297 49.4103 30.873 49.4147 30.6309 49.3455ZM21.13 46.9769H29.2211L25.1755 27.4043L21.13 46.9769Z" fill="white"/>
<path d="M80.0346 49.3455H69.1852C69.0183 49.348 68.8532 49.3097 68.7038 49.2337C68.5545 49.1578 68.4253 49.0465 68.3271 48.9092C68.2515 48.7542 68.2121 48.5835 68.2121 48.4105C68.2121 48.2375 68.2515 48.0668 68.3271 47.9119L73.7211 21.4827C73.7758 21.2239 73.9142 20.9911 74.1142 20.8216C74.3142 20.6521 74.5642 20.5557 74.8244 20.5477C75.0952 20.5415 75.3596 20.6315 75.5721 20.8022C75.7847 20.9728 75.9321 21.2135 75.9891 21.4827L81.3831 47.9119C81.5125 48.2313 81.5125 48.5898 81.3831 48.9092C81.2248 49.108 81.0128 49.2552 80.7731 49.3328C80.5334 49.4103 80.2767 49.4147 80.0346 49.3455ZM70.595 46.9769H78.6248L74.5792 27.4043L70.595 46.9769Z" fill="white"/>
<path d="M74.5787 58.4461C71.8313 58.4461 69.1965 57.3362 67.2538 55.3607C65.3111 53.3851 64.2197 50.7057 64.2197 47.9118C64.2345 47.6026 64.362 47.3101 64.5773 47.0912C64.7926 46.8723 65.0802 46.7426 65.3843 46.7275H83.7731C84.0772 46.7426 84.3648 46.8723 84.5801 47.0912C84.7954 47.3101 84.9229 47.6026 84.9377 47.9118C84.9216 50.7006 83.8251 53.3706 81.8858 55.3426C79.9466 57.3146 77.3211 58.4298 74.5787 58.4461ZM66.6102 49.0962C66.8769 51.0513 67.831 52.8421 69.296 54.137C70.761 55.432 72.6376 56.1435 74.5787 56.1398C76.5267 56.1455 78.4114 55.4361 79.8865 54.1422C81.3616 52.8482 82.3281 51.0566 82.6085 49.0962H66.6102Z" fill="white"/>
<path d="M25.359 58.4461C22.6116 58.4461 19.9768 57.3362 18.0341 55.3607C16.0914 53.3851 15 50.7057 15 47.9118C15 47.5977 15.1227 47.2965 15.3411 47.0744C15.5595 46.8522 15.8557 46.7275 16.1646 46.7275H34.5534C34.8623 46.7275 35.1585 46.8522 35.3769 47.0744C35.5953 47.2965 35.718 47.5977 35.718 47.9118C35.718 50.7057 34.6266 53.3851 32.6839 55.3607C30.7413 57.3362 28.1064 58.4461 25.359 58.4461ZM17.3905 49.0962C17.6572 51.0513 18.6114 52.8421 20.0763 54.137C21.5413 55.432 23.418 56.1435 25.359 56.1398C27.3001 56.1435 29.1767 55.432 30.6417 54.137C32.1067 52.8421 33.0608 51.0513 33.3275 49.0962H17.3905Z" fill="white"/>
<path d="M49.9991 72.4087C49.8491 72.4172 49.699 72.3944 49.558 72.3418C49.417 72.2893 49.288 72.208 49.179 72.1029C49.0699 71.9979 48.9831 71.8713 48.9239 71.7309C48.8646 71.5906 48.8342 71.4394 48.8344 71.2867V16.1843C48.8256 16.0264 48.8496 15.8684 48.905 15.7206C48.9604 15.5728 49.0458 15.4386 49.1558 15.3268C49.2658 15.2149 49.3978 15.128 49.5431 15.0717C49.6884 15.0153 49.8438 14.9909 49.9991 14.9999C50.1493 14.9997 50.2979 15.0306 50.4359 15.0909C50.574 15.1511 50.6984 15.2395 50.8017 15.3503C50.905 15.4612 50.985 15.5923 51.0367 15.7357C51.0884 15.8791 51.1107 16.0318 51.1024 16.1843V71.2867C51.1024 71.5842 50.9862 71.8697 50.7792 72.0801C50.5723 72.2905 50.2917 72.4087 49.9991 72.4087Z" fill="white"/>
<path d="M63.7307 79.1407H36.2701C36.1149 79.1498 35.9595 79.1253 35.8141 79.069C35.6688 79.0127 35.5368 78.9257 35.4269 78.8139C35.3169 78.7021 35.2314 78.5678 35.176 78.42C35.1206 78.2723 35.0966 78.1143 35.1055 77.9564V72.097C35.1053 71.9443 35.1357 71.7931 35.1949 71.6528C35.2542 71.5124 35.341 71.3858 35.45 71.2808C35.5591 71.1757 35.688 71.0944 35.8291 71.0419C35.9701 70.9893 36.1202 70.9665 36.2701 70.975H63.7307C64.0293 70.9746 64.3166 71.0908 64.5333 71.2996C64.75 71.5084 64.8796 71.7939 64.8954 72.097V77.9564C64.8954 78.2705 64.7727 78.5716 64.5542 78.7937C64.3358 79.0158 64.0396 79.1407 63.7307 79.1407ZM37.3734 76.8343H62.5661V73.2814H37.3734V76.8343Z" fill="white"/>
<path d="M69.1864 85H30.6313C30.476 85.009 30.3206 84.9846 30.1753 84.9283C30.03 84.8719 29.898 84.7851 29.788 84.6733C29.678 84.5614 29.5925 84.4272 29.5371 84.2794C29.4818 84.1316 29.4578 83.9736 29.4667 83.8157V77.9564C29.5371 77.7043 29.6922 77.4851 29.9049 77.3371C30.1176 77.1891 30.3746 77.1215 30.6313 77.146H69.0025C69.3011 77.1456 69.5884 77.2618 69.8051 77.4706C70.0218 77.6794 70.1515 77.9648 70.1672 78.268V84.1273C70.1079 84.3556 69.9828 84.5608 69.8081 84.7163C69.6333 84.8718 69.4168 84.9705 69.1864 85ZM31.9185 82.6937H68.0218V79.1407H31.9185V82.6937Z" fill="white"/>
</g>
<defs>
<clipPath id="clip0_144_804">
<rect width="70" height="70" fill="white" transform="translate(15 15)"/>
</clipPath>
</defs>
</svg>
