<svg width="100" height="100" viewBox="0 0 100 100" fill="none" xmlns="http://www.w3.org/2000/svg">
<rect width="100" height="100" rx="11" fill="#B8292D"/>
<g clip-path="url(#clip0_144_821)">
<path d="M54.233 46.7655C60.2487 46.7655 65.1254 41.8888 65.1254 35.8732C65.1254 29.8575 60.2487 24.9808 54.233 24.9808C48.2174 24.9808 43.3407 29.8575 43.3407 35.8732C43.3407 41.8888 48.2174 46.7655 54.233 46.7655Z" fill="white"/>
<path d="M38.6427 48.6755C43.4039 48.6755 47.2636 44.8158 47.2636 40.0546C47.2636 35.2934 43.4039 31.4336 38.6427 31.4336C33.8815 31.4336 30.0217 35.2934 30.0217 40.0546C30.0217 44.8158 33.8815 48.6755 38.6427 48.6755Z" fill="white"/>
<path d="M69.8228 48.4175C74.5841 48.4175 78.4438 44.5577 78.4438 39.7965C78.4438 35.0353 74.5841 31.1756 69.8228 31.1756C65.0616 31.1756 61.2019 35.0353 61.2019 39.7965C61.2019 44.5577 65.0616 48.4175 69.8228 48.4175Z" fill="white"/>
<path d="M38.6433 50.379C35.9051 50.379 33.279 49.2913 31.3428 47.355C29.4066 45.4188 28.3188 42.7927 28.3188 40.0545C28.3188 37.3163 29.4066 34.6902 31.3428 32.754C33.279 30.8178 35.9051 29.73 38.6433 29.73C41.3816 29.73 44.0076 30.8178 45.9438 32.754C47.8801 34.6902 48.9678 37.3163 48.9678 40.0545C48.9678 42.7927 47.8801 45.4188 45.9438 47.355C44.0076 49.2913 41.3816 50.379 38.6433 50.379ZM38.6433 31.7433C36.4343 31.7433 34.315 32.6173 32.7481 34.1745C31.1812 35.7316 30.2941 37.8455 30.2805 40.0545C30.294 42.2683 31.1795 44.3875 32.7449 45.9529C34.3103 47.5184 36.4295 48.4038 38.6433 48.4173C40.8571 48.4038 42.9764 47.5184 44.5418 45.9529C46.1072 44.3875 46.9926 42.2683 47.0062 40.0545C47.0062 37.8366 46.1251 35.7095 44.5567 34.1411C42.9884 32.5728 40.8613 31.6917 38.6433 31.6917V31.7433Z" fill="white"/>
<path d="M38.1784 43.6681C37.3079 43.6328 36.451 43.4404 35.6489 43.1002V41.0869C36.1246 41.3459 36.6264 41.5536 37.146 41.7065C37.6254 41.7743 38.112 41.7743 38.5914 41.7065H39.3657C39.402 41.6437 39.4211 41.5724 39.4211 41.4999C39.4211 41.4274 39.402 41.3563 39.3657 41.2935C39.3899 41.2363 39.4023 41.1748 39.4023 41.1128C39.4023 41.0507 39.3899 40.9893 39.3657 40.9321L38.7979 40.6224L37.7138 40.2094C37.2719 40.0667 36.8542 39.8578 36.4749 39.5899C36.2084 39.3723 35.9813 39.1103 35.8038 38.8155C35.7202 38.459 35.7202 38.088 35.8038 37.7315C35.7869 37.4437 35.8337 37.1557 35.9407 36.8881C36.0478 36.6204 36.2126 36.3796 36.4233 36.1828C36.9658 35.7431 37.6355 35.4897 38.3333 35.4601V34.8923H39.6755V35.7183C40.5083 35.7837 41.3263 35.9752 42.1017 36.2861L41.379 38.0412C40.6754 37.6805 39.8983 37.4862 39.1076 37.4734C38.8882 37.4117 38.656 37.4117 38.4365 37.4734C38.4048 37.5283 38.3881 37.5907 38.3881 37.6541C38.3881 37.7175 38.4048 37.7799 38.4365 37.8348C38.4011 37.935 38.4011 38.0443 38.4365 38.1445H38.9011L39.882 38.5575C40.552 38.7403 41.1704 39.076 41.6888 39.5383C42.0621 39.9465 42.2653 40.4822 42.2566 41.0354C42.2712 41.3353 42.2184 41.6346 42.1023 41.9115C41.9862 42.1884 41.8096 42.4358 41.5855 42.6356C41.0893 43.131 40.4273 43.4252 39.7271 43.4616V44.5973H38.4882L38.1784 43.6681Z" fill="#B8292D"/>
<path d="M69.8235 50.379C67.0853 50.379 64.4592 49.2913 62.523 47.355C60.5868 45.4188 59.499 42.7927 59.499 40.0545C59.499 37.3163 60.5868 34.6902 62.523 32.754C64.4592 30.8178 67.0853 29.73 69.8235 29.73C72.5617 29.73 75.1878 30.8178 77.124 32.754C79.0602 34.6902 80.148 37.3163 80.148 40.0545C80.148 42.7927 79.0602 45.4188 77.124 47.355C75.1878 49.2913 72.5617 50.379 69.8235 50.379ZM69.8235 31.7433C67.6145 31.7433 65.4951 32.6173 63.9283 34.1745C62.3614 35.7316 61.4743 37.8455 61.4607 40.0545C61.4742 42.2683 62.3596 44.3875 63.9251 45.9529C65.4905 47.5184 67.6097 48.4038 69.8235 48.4173C72.0415 48.4173 74.1686 47.5362 75.7369 45.9679C77.3053 44.3996 78.1863 42.2725 78.1863 40.0545C78.1932 38.9544 77.9816 37.8638 77.5637 36.8461C77.1459 35.8284 76.5301 34.9038 75.7522 34.1259C74.9743 33.3479 74.0496 32.7322 73.0319 32.3143C72.0142 31.8965 70.9236 31.6849 69.8235 31.6917V31.7433Z" fill="white"/>
<path d="M69.3586 43.6681C68.4881 43.6328 67.6311 43.4404 66.8291 43.1002V41.0869C67.3048 41.3459 67.8066 41.5536 68.3261 41.7065C68.8056 41.7743 69.2922 41.7743 69.7716 41.7065H70.5459C70.5822 41.6437 70.6013 41.5724 70.6013 41.4999C70.6013 41.4274 70.5822 41.3563 70.5459 41.2935C70.5701 41.2363 70.5825 41.1748 70.5825 41.1128C70.5825 41.0507 70.5701 40.9893 70.5459 40.9321L69.9781 40.6224L68.894 40.2094C68.4521 40.0667 68.0344 39.8578 67.6551 39.5899C67.3885 39.3723 67.1615 39.1103 66.984 38.8155C66.9004 38.459 66.9004 38.088 66.984 37.7315C66.9671 37.4437 67.0138 37.1557 67.1209 36.8881C67.228 36.6204 67.3927 36.3796 67.6034 36.1828C68.146 35.7431 68.8157 35.4897 69.5135 35.4601V34.8923H70.6492V35.7183C71.482 35.7837 72.3 35.9752 73.0754 36.2861L72.3527 38.0412C71.6491 37.6805 70.8719 37.4862 70.0813 37.4734C69.8619 37.4117 69.6297 37.4117 69.4102 37.4734C69.3828 37.5297 69.3686 37.5915 69.3686 37.6541C69.3686 37.7167 69.3828 37.7785 69.4102 37.8348C69.3748 37.935 69.3748 38.0443 69.4102 38.1445H69.9265C70.2175 38.3209 70.5297 38.4597 70.8557 38.5575C71.531 38.7269 72.1525 39.0642 72.6624 39.5383C73.0358 39.9465 73.2389 40.4822 73.2303 41.0354C73.2448 41.3353 73.1921 41.6346 73.076 41.9115C72.9599 42.1884 72.7833 42.4358 72.5592 42.6356C72.063 43.131 71.401 43.4252 70.7008 43.4616V44.5973H69.4618L69.3586 43.6681Z" fill="#B8292D"/>
<path d="M54.078 48.4174C50.8332 48.4174 47.7213 47.1284 45.4269 44.834C43.1325 42.5396 41.8435 39.4277 41.8435 36.1829C41.8572 32.9471 43.1522 29.8484 45.4451 27.5651C47.7381 25.2818 50.8422 24 54.078 24C57.3139 24 60.418 25.2818 62.7109 27.5651C65.0039 29.8484 66.2989 32.9471 66.3125 36.1829C66.2989 39.4235 65.0056 42.5275 62.7141 44.819C60.4226 47.1104 57.3186 48.4038 54.078 48.4174ZM54.078 25.91C51.3398 25.91 48.7137 26.9978 46.7775 28.934C44.8413 30.8702 43.7535 33.4963 43.7535 36.2345C43.7535 38.9727 44.8413 41.5988 46.7775 43.535C48.7137 45.4712 51.3398 46.559 54.078 46.559C56.8162 46.559 59.4423 45.4712 61.3785 43.535C63.3148 41.5988 64.4025 38.9727 64.4025 36.2345C64.4025 33.4963 63.3148 30.8702 61.3785 28.934C59.4423 26.9978 56.8162 25.91 54.078 25.91Z" fill="white"/>
<path d="M53.5108 40.5708C52.4577 40.5341 51.4224 40.2884 50.4651 39.8481V37.4734L52.2719 38.1961C52.8456 38.3469 53.4342 38.4335 54.027 38.4542C54.3148 38.5286 54.6168 38.5286 54.9046 38.4542C54.9954 38.4147 55.0728 38.3498 55.1277 38.2674C55.1826 38.185 55.2127 38.0886 55.2144 37.9897C55.2462 37.9255 55.2628 37.8548 55.2628 37.7831C55.2628 37.7115 55.2462 37.6408 55.2144 37.5767C55.0098 37.4237 54.7836 37.3019 54.5433 37.2153C54.1099 37.0086 53.6612 36.836 53.2011 36.6991C52.6916 36.4963 52.2068 36.2364 51.7556 35.9247C51.3974 35.6778 51.1121 35.339 50.9297 34.9439C50.7264 34.5457 50.6371 34.0991 50.6716 33.6533C50.6598 33.3107 50.7179 32.9694 50.8421 32.65C50.9663 32.3305 51.1542 32.0395 51.3943 31.7949C52.0615 31.2803 52.875 30.9912 53.7173 30.969V29.73H55.1627V30.6592C56.178 30.7277 57.1737 30.9723 58.1052 31.382L57.2276 33.4469C56.3745 33.0291 55.4413 32.8002 54.4916 32.7757C54.2214 32.701 53.9359 32.701 53.6657 32.7757C53.6294 32.8385 53.6103 32.9098 53.6103 32.9823C53.6103 33.0548 53.6294 33.126 53.6657 33.1887C53.6223 33.323 53.6223 33.4675 53.6657 33.6017L54.2335 33.9114L55.4208 34.376C56.2226 34.6321 56.9614 35.0542 57.589 35.615C57.8196 35.8427 57.9988 36.1172 58.1145 36.4199C58.2303 36.7227 58.2799 37.0466 58.2601 37.3701C58.2764 37.7332 58.2158 38.0956 58.0824 38.4337C57.9489 38.7717 57.7456 39.0778 57.4857 39.3318C56.8579 39.8934 56.0558 40.2215 55.2144 40.261V41.6548H53.7173L53.5108 40.5708Z" fill="#B8292D"/>
<path d="M40.1397 68.8598H21.8137C21.5536 68.8598 21.3041 68.7565 21.1202 68.5725C20.9362 68.3886 20.8329 68.1391 20.8329 67.879V65.8657C20.8315 63.4566 21.3052 61.0709 22.2267 58.845C23.1529 56.6265 24.5031 54.61 26.2016 52.9085L29.8152 49.3465C32.2682 46.9101 35.367 45.2264 38.7459 44.494L49.6898 42.1193C50.8211 41.9021 51.9928 42.0944 52.9953 42.6619C53.9979 43.2294 54.7658 44.1349 55.1618 45.2167C55.5665 46.4984 55.4554 47.8874 54.8521 49.0884C54.5452 49.6759 54.1211 50.1942 53.6062 50.6115C53.0912 51.0288 52.4963 51.3362 51.858 51.5147L47.0055 52.8568L56.7621 53.6828L64.8152 52.1341L77.5143 44.8037C78.4373 44.2452 79.523 44.0175 80.5926 44.1583C81.6623 44.299 82.6521 44.7998 83.3993 45.5781C83.9092 46.0672 84.3035 46.6639 84.5536 47.3247C84.8037 47.9856 84.9031 48.694 84.8447 49.3981C84.7759 50.0937 84.5666 50.7681 84.2294 51.3804C83.8922 51.9926 83.4341 52.5301 82.883 52.9601L71.7326 61.168C67.0838 64.3475 61.7997 66.4788 56.2459 67.4144C50.9386 68.4312 45.5431 68.9154 40.1397 68.8598ZM22.7429 66.9498H40.1397C45.5278 66.9895 50.9063 66.4879 56.1942 65.4527C61.3821 64.5327 66.3116 62.5081 70.6485 59.5161L81.7473 51.3081C82.0959 51.0596 82.3837 50.7355 82.5893 50.3601C82.7949 49.9846 82.913 49.5675 82.9347 49.14C82.9843 48.7154 82.9357 48.2851 82.7924 47.8823C82.6492 47.4795 82.4153 47.1149 82.1087 46.817C81.6369 46.3604 81.0302 46.0685 80.379 45.9848C79.7279 45.9011 79.0671 46.03 78.4951 46.3524L65.6928 53.7861H65.383L57.0718 55.4379H56.8137L41.6367 54.0958C41.4117 54.0731 41.2014 53.9734 41.0415 53.8135C40.8815 53.6535 40.7818 53.4432 40.7591 53.2182C40.7388 53.0021 40.7948 52.7856 40.9174 52.6065C41.04 52.4273 41.2214 52.2967 41.4302 52.2374L51.3934 49.4498C51.7791 49.3492 52.1394 49.1685 52.4507 48.9194C52.762 48.6704 53.0173 48.3586 53.2001 48.0043C53.3672 47.6399 53.4536 47.2437 53.4536 46.8428C53.4536 46.4419 53.3672 46.0457 53.2001 45.6813C52.9746 45.0053 52.5073 44.4365 51.888 44.084C51.2687 43.7315 50.5411 43.6201 49.8447 43.7713L38.9007 46.1459C35.8792 46.811 33.1061 48.3138 30.8993 50.4822L27.3373 54.0958C25.8079 55.6095 24.5921 57.41 23.7595 59.3942C22.9268 61.3784 22.4936 63.5074 22.4848 65.6592L22.7429 66.9498Z" fill="white"/>
<path d="M20.0072 76.758H19.5426C19.3071 76.638 19.1235 76.436 19.0264 76.1901L14.9999 57.5028C14.9536 57.2905 14.9793 57.0687 15.0727 56.8725C15.1661 56.6763 15.3221 56.5167 15.5161 56.4187L25.8406 51.9792C26.1061 51.8755 26.4009 51.8755 26.6665 51.9792C26.9187 52.128 27.1036 52.3684 27.1827 52.6503L31.8288 71.3376C31.8689 71.4493 31.886 71.568 31.879 71.6865C31.8719 71.805 31.8409 71.9208 31.7878 72.027C31.7348 72.1332 31.6607 72.2275 31.5701 72.3042C31.4796 72.3809 31.3744 72.4384 31.2609 72.4733L20.2653 76.9128L20.0072 76.758ZM17.0647 57.7093L20.7299 74.4866L29.8671 70.8214L25.6857 53.9925L17.0647 57.7093Z" fill="white"/>
<path d="M15.2067 58.174L19.9559 75.4675L29.8674 70.8215L25.686 53.9926L15.2067 58.174Z" fill="white"/>
</g>
<defs>
<clipPath id="clip0_144_821">
<rect width="70" height="52.7581" fill="white" transform="translate(15 24)"/>
</clipPath>
</defs>
</svg>
