<svg width="100" height="100" viewBox="0 0 100 100" fill="none" xmlns="http://www.w3.org/2000/svg">
<rect width="100" height="100" rx="11" fill="#B8292D"/>
<g clip-path="url(#clip0_144_814)">
<path d="M74.4653 78.6728H25.4716C24.0911 78.6729 22.7243 78.4 21.4496 77.8698C20.175 77.3396 19.0179 76.5625 18.0447 75.5834C17.0715 74.6043 16.3015 73.4425 15.779 72.1647C15.2565 70.8869 14.9918 69.5184 15.0002 68.1379V40.5949C15.0001 37.8118 16.1013 35.1418 18.0633 33.1679C20.0253 31.1941 22.6886 30.0767 25.4716 30.0599H74.4653C77.2542 30.0766 79.9241 31.1919 81.8962 33.164C83.8682 35.136 84.9835 37.806 85.0002 40.5949V68.1379C85.0002 70.9319 83.8902 73.6115 81.9146 75.5872C79.9389 77.5629 77.2593 78.6728 74.4653 78.6728ZM25.4716 32.4716C23.3172 32.4716 21.251 33.3275 19.7276 34.8509C18.2041 36.3743 17.3483 38.4404 17.3483 40.5949V68.1379C17.3483 70.2982 18.202 72.3711 19.7237 73.9046C21.2453 75.4381 23.3114 76.308 25.4716 76.3247H74.4653C75.5374 76.3248 76.5989 76.1125 77.5886 75.7003C78.5784 75.2881 79.4767 74.6841 80.2319 73.9231C80.987 73.162 81.584 72.2589 81.9885 71.266C82.393 70.2731 82.5969 69.21 82.5886 68.1379V40.5949C82.5886 38.4404 81.7327 36.3743 80.2093 34.8509C78.6859 33.3275 76.6197 32.4716 74.4653 32.4716H25.4716Z" fill="white"/>
<path d="M53.5226 64.9013H46.4147C46.1118 64.9013 45.8212 64.781 45.607 64.5667C45.3928 64.3525 45.2724 64.0619 45.2724 63.7589V58.9992H40.5126C40.1929 58.9992 39.8862 58.8721 39.66 58.646C39.4339 58.4199 39.3069 58.1132 39.3069 57.7934V50.6855C39.3066 50.53 39.3381 50.3761 39.3995 50.2332C39.4608 50.0903 39.5507 49.9614 39.6636 49.8544C39.7764 49.7475 39.91 49.6647 40.056 49.6112C40.202 49.5577 40.3574 49.5346 40.5126 49.5432H45.2724V44.7835C45.272 44.4744 45.3903 44.1769 45.6029 43.9525C45.8154 43.7281 46.1061 43.5939 46.4147 43.5776H53.5226C53.8374 43.593 54.1353 43.725 54.3582 43.9478C54.5811 44.1707 54.7131 44.4686 54.7284 44.7835V49.5432H59.4882C59.7911 49.5432 60.0817 49.6635 60.2959 49.8778C60.5102 50.092 60.6305 50.3825 60.6305 50.6855V57.7934C60.631 58.1025 60.5126 58.4 60.3001 58.6244C60.0875 58.8488 59.7969 58.9829 59.4882 58.9992H54.7284V63.7589C54.7122 64.0676 54.578 64.3582 54.3536 64.5708C54.1292 64.7834 53.8317 64.9017 53.5226 64.9013ZM47.6205 62.5532H52.3168V57.7934C52.3322 57.4786 52.4642 57.1807 52.6871 56.9578C52.91 56.735 53.2078 56.603 53.5226 56.5876H58.2824V51.8913H53.5226C53.2028 51.8913 52.8961 51.7643 52.67 51.5381C52.4439 51.312 52.3168 51.0053 52.3168 50.6855V45.9257H47.6205V50.6855C47.6205 51.0053 47.4935 51.312 47.2674 51.5381C47.0412 51.7643 46.7345 51.8913 46.4147 51.8913H41.655V56.5876H46.4147C46.7296 56.603 47.0274 56.735 47.2503 56.9578C47.4732 57.1807 47.6051 57.4786 47.6205 57.7934V62.5532Z" fill="white"/>
<path d="M33.6595 78.6728H25.6631C25.5078 78.6815 25.3524 78.6583 25.2064 78.6048C25.0604 78.5512 24.9269 78.4685 24.814 78.3615C24.7011 78.2546 24.6112 78.1258 24.5499 77.9829C24.4885 77.84 24.457 77.6861 24.4573 77.5305V31.2658C24.4573 30.946 24.5843 30.6392 24.8104 30.4131C25.0366 30.187 25.3433 30.0599 25.6631 30.0599H33.6595C33.9743 30.0753 34.2721 30.2074 34.495 30.4302C34.7179 30.6531 34.8499 30.9509 34.8653 31.2658V77.5305C34.849 77.8392 34.7148 78.1298 34.4904 78.3424C34.266 78.555 33.9686 78.6733 33.6595 78.6728ZM26.8054 76.3247H32.4536V32.3446H26.8054V76.3247Z" fill="white"/>
<path d="M74.5917 78.6728H66.5953C66.4401 78.6815 66.2847 78.6583 66.1387 78.6048C65.9927 78.5512 65.8591 78.4685 65.7462 78.3615C65.6333 78.2546 65.5435 78.1258 65.4821 77.9829C65.4208 77.84 65.3893 77.6861 65.3895 77.5305V31.2658C65.3895 30.946 65.5166 30.6392 65.7427 30.4131C65.9688 30.187 66.2755 30.0599 66.5953 30.0599H74.5917C74.9115 30.0599 75.2182 30.187 75.4443 30.4131C75.6705 30.6392 75.7975 30.946 75.7975 31.2658V77.5305C75.7977 77.6861 75.7662 77.84 75.7049 77.9829C75.6435 78.1258 75.5537 78.2546 75.4408 78.3615C75.3279 78.4685 75.1944 78.5512 75.0484 78.6048C74.9024 78.6583 74.747 78.6815 74.5917 78.6728ZM67.7377 76.3247H73.4493V32.3446H67.7377V76.3247Z" fill="white"/>
<path d="M58.5357 32.3444H41.4006C41.0919 32.3282 40.8013 32.194 40.5887 31.9696C40.3761 31.7452 40.2578 31.4477 40.2583 31.1386V23.2057C40.2578 22.8966 40.3761 22.5992 40.5887 22.3748C40.8013 22.1504 41.0919 22.0163 41.4006 22H58.5357C58.8444 22.0163 59.135 22.1504 59.3476 22.3748C59.5602 22.5992 59.6785 22.8966 59.678 23.2057V31.1386C59.6785 31.4477 59.5602 31.7452 59.3476 31.9696C59.135 32.194 58.8444 32.3282 58.5357 32.3444ZM42.6064 29.9329H57.3299V24.4115H42.6064V29.9329Z" fill="white"/>
</g>
<defs>
<clipPath id="clip0_144_814">
<rect width="70" height="56.5458" fill="white" transform="translate(15 22)"/>
</clipPath>
</defs>
</svg>
